<?xml version="1.0" encoding="us-ascii" standalone="no"?><svg xmlns="http://www.w3.org/2000/svg" xmlns:xlink="http://www.w3.org/1999/xlink" contentStyleType="text/css" height="890px" preserveAspectRatio="none" style="width:1608px;height:890px;background:#FFFFFF;" version="1.1" viewBox="0 0 1608 890" width="1608px" zoomAndPan="magnify"><defs/><g><rect fill="#FFFFFF" height="658.7813" style="stroke:#181818;stroke-width:1.0;" width="10" x="48.5" y="112.2422"/><rect fill="#FFFFFF" height="74.9121" style="stroke:#181818;stroke-width:1.0;" width="10" x="329.5" y="135.5332"/><rect fill="#FFFFFF" height="31.291" style="stroke:#181818;stroke-width:1.0;" width="10" x="329.5" y="241.7363"/><rect fill="#FFFFFF" height="466.7051" style="stroke:#181818;stroke-width:1.0;" width="10" x="329.5" y="304.3184"/><rect fill="#FFFFFF" height="404.123" style="stroke:#181818;stroke-width:1.0;" width="10" x="644.5" y="335.6094"/><rect fill="#FFFFFF" height="90.543" style="stroke:#181818;stroke-width:1.0;" width="10" x="649.5" y="374.9004"/><rect fill="#FFFFFF" height="31.291" style="stroke:#181818;stroke-width:1.0;" width="10" x="812.5" y="503.7344"/><rect fill="#FFFFFF" height="31.291" style="stroke:#181818;stroke-width:1.0;" width="10" x="919.5" y="566.3164"/><rect fill="#FFFFFF" height="79.543" style="stroke:#181818;stroke-width:1.0;" width="10" x="1512.5" y="628.8984"/><line style="stroke:#181818;stroke-width:0.5;stroke-dasharray:5.0,5.0;" x1="53" x2="53" y1="102.2422" y2="789.0234"/><line style="stroke:#181818;stroke-width:0.5;stroke-dasharray:5.0,5.0;" x1="334" x2="334" y1="102.2422" y2="789.0234"/><line style="stroke:#181818;stroke-width:0.5;stroke-dasharray:5.0,5.0;" x1="649" x2="649" y1="175.3438" y2="789.0234"/><line style="stroke:#181818;stroke-width:0.5;stroke-dasharray:5.0,5.0;" x1="817" x2="817" y1="102.2422" y2="789.0234"/><line style="stroke:#181818;stroke-width:0.5;stroke-dasharray:5.0,5.0;" x1="924" x2="924" y1="102.2422" y2="789.0234"/><line style="stroke:#181818;stroke-width:0.5;stroke-dasharray:5.0,5.0;" x1="1070" x2="1070" y1="102.2422" y2="789.0234"/><line style="stroke:#181818;stroke-width:0.5;stroke-dasharray:5.0,5.0;" x1="1245" x2="1245" y1="102.2422" y2="789.0234"/><line style="stroke:#181818;stroke-width:0.5;stroke-dasharray:5.0,5.0;" x1="1379" x2="1379" y1="102.2422" y2="789.0234"/><line style="stroke:#181818;stroke-width:0.5;stroke-dasharray:5.0,5.0;" x1="1517" x2="1517" y1="102.2422" y2="789.0234"/><text fill="#000000" font-family="sans-serif" font-size="14" lengthAdjust="spacing" textLength="91" x="5" y="80.1074">Green Spaces</text><text fill="#000000" font-family="sans-serif" font-size="14" lengthAdjust="spacing" textLength="56" x="22.5" y="98.7285">Manager</text><ellipse cx="53.5" cy="13.5" fill="#E3E3E3" rx="8" ry="8" style="stroke:#181818;stroke-width:0.5;"/><path d="M53.5,21.5 L53.5,48.5 M40.5,29.5 L66.5,29.5 M53.5,48.5 L40.5,63.5 M53.5,48.5 L66.5,63.5 " fill="none" style="stroke:#181818;stroke-width:0.5;"/><text fill="#000000" font-family="sans-serif" font-size="14" lengthAdjust="spacing" textLength="91" x="5" y="803.1309">Green Spaces</text><text fill="#000000" font-family="sans-serif" font-size="14" lengthAdjust="spacing" textLength="56" x="22.5" y="821.752">Manager</text><ellipse cx="53.5" cy="833.7656" fill="#E3E3E3" rx="8" ry="8" style="stroke:#181818;stroke-width:0.5;"/><path d="M53.5,841.7656 L53.5,868.7656 M40.5,849.7656 L66.5,849.7656 M53.5,868.7656 L40.5,883.7656 M53.5,868.7656 L66.5,883.7656 " fill="none" style="stroke:#181818;stroke-width:0.5;"/><rect fill="#E3E3E3" height="32.6211" rx="2.5" ry="2.5" style="stroke:#181818;stroke-width:0.5;" width="163" x="253" y="68.6211"/><text fill="#000000" font-family="sans-serif" font-size="14" lengthAdjust="spacing" textLength="149" x="260" y="90.7285">:RegisterGreenSpaceUI</text><rect fill="#E3E3E3" height="32.6211" rx="2.5" ry="2.5" style="stroke:#181818;stroke-width:0.5;" width="163" x="253" y="788.0234"/><text fill="#000000" font-family="sans-serif" font-size="14" lengthAdjust="spacing" textLength="149" x="260" y="810.1309">:RegisterGreenSpaceUI</text><rect fill="#E3E3E3" height="32.6211" rx="2.5" ry="2.5" style="stroke:#181818;stroke-width:0.5;" width="213" x="543" y="788.0234"/><text fill="#000000" font-family="sans-serif" font-size="14" lengthAdjust="spacing" textLength="199" x="550" y="810.1309">:RegisterGreenSpaceController</text><rect fill="#E3E3E3" height="32.6211" rx="2.5" ry="2.5" style="stroke:#181818;stroke-width:0.5;" width="97" x="769" y="68.6211"/><text fill="#000000" font-family="sans-serif" font-size="14" lengthAdjust="spacing" textLength="83" x="776" y="90.7285">:Repositories</text><rect fill="#E3E3E3" height="32.6211" rx="2.5" ry="2.5" style="stroke:#181818;stroke-width:0.5;" width="97" x="769" y="788.0234"/><text fill="#000000" font-family="sans-serif" font-size="14" lengthAdjust="spacing" textLength="83" x="776" y="810.1309">:Repositories</text><rect fill="#E3E3E3" height="51.2422" rx="2.5" ry="2.5" style="stroke:#181818;stroke-width:0.5;" width="97" x="876" y="50"/><text fill="#000000" font-family="sans-serif" font-size="14" lengthAdjust="spacing" textLength="74" x="887.5" y="72.1074">repositories</text><text fill="#000000" font-family="sans-serif" font-size="14" lengthAdjust="spacing" textLength="83" x="883" y="90.7285">:Repositories</text><rect fill="#E3E3E3" height="51.2422" rx="2.5" ry="2.5" style="stroke:#181818;stroke-width:0.5;" width="97" x="876" y="788.0234"/><text fill="#000000" font-family="sans-serif" font-size="14" lengthAdjust="spacing" textLength="74" x="887.5" y="810.1309">repositories</text><text fill="#000000" font-family="sans-serif" font-size="14" lengthAdjust="spacing" textLength="83" x="883" y="828.752">:Repositories</text><rect fill="#E3E3E3" height="51.2422" rx="2.5" ry="2.5" style="stroke:#181818;stroke-width:0.5;" width="175" x="983" y="50"/><text fill="#000000" font-family="sans-serif" font-size="14" lengthAdjust="spacing" textLength="161" x="990" y="72.1074">authenticationRepository:</text><text fill="#000000" font-family="sans-serif" font-size="14" lengthAdjust="spacing" textLength="158" x="991.5" y="90.7285">AuthenticationRepository</text><rect fill="#E3E3E3" height="51.2422" rx="2.5" ry="2.5" style="stroke:#181818;stroke-width:0.5;" width="175" x="983" y="788.0234"/><text fill="#000000" font-family="sans-serif" font-size="14" lengthAdjust="spacing" textLength="161" x="990" y="810.1309">authenticationRepository:</text><text fill="#000000" font-family="sans-serif" font-size="14" lengthAdjust="spacing" textLength="158" x="991.5" y="828.752">AuthenticationRepository</text><rect fill="#E3E3E3" height="51.2422" rx="2.5" ry="2.5" style="stroke:#181818;stroke-width:0.5;" width="155" x="1168" y="50"/><text fill="#000000" font-family="sans-serif" font-size="14" lengthAdjust="spacing" textLength="141" x="1175" y="72.1074">authenticationFacade:</text><text fill="#000000" font-family="sans-serif" font-size="14" lengthAdjust="spacing" textLength="77" x="1207" y="90.7285">AuthFacade</text><rect fill="#E3E3E3" height="51.2422" rx="2.5" ry="2.5" style="stroke:#181818;stroke-width:0.5;" width="155" x="1168" y="788.0234"/><text fill="#000000" font-family="sans-serif" font-size="14" lengthAdjust="spacing" textLength="141" x="1175" y="810.1309">authenticationFacade:</text><text fill="#000000" font-family="sans-serif" font-size="14" lengthAdjust="spacing" textLength="77" x="1207" y="828.752">AuthFacade</text><rect fill="#E3E3E3" height="51.2422" rx="2.5" ry="2.5" style="stroke:#181818;stroke-width:0.5;" width="93" x="1333" y="50"/><text fill="#000000" font-family="sans-serif" font-size="14" lengthAdjust="spacing" textLength="32" x="1363.5" y="72.1074">user:</text><text fill="#000000" font-family="sans-serif" font-size="14" lengthAdjust="spacing" textLength="79" x="1340" y="90.7285">UserSession</text><rect fill="#E3E3E3" height="51.2422" rx="2.5" ry="2.5" style="stroke:#181818;stroke-width:0.5;" width="93" x="1333" y="788.0234"/><text fill="#000000" font-family="sans-serif" font-size="14" lengthAdjust="spacing" textLength="32" x="1363.5" y="810.1309">user:</text><text fill="#000000" font-family="sans-serif" font-size="14" lengthAdjust="spacing" textLength="79" x="1340" y="828.752">UserSession</text><rect fill="#E3E3E3" height="51.2422" rx="2.5" ry="2.5" style="stroke:#181818;stroke-width:0.5;" width="163" x="1436" y="50"/><text fill="#000000" font-family="sans-serif" font-size="14" lengthAdjust="spacing" textLength="149" x="1443" y="72.1074">greenSpaceRepository:</text><text fill="#000000" font-family="sans-serif" font-size="14" lengthAdjust="spacing" textLength="148" x="1443.5" y="90.7285">GreenSpaceRepository</text><rect fill="#E3E3E3" height="51.2422" rx="2.5" ry="2.5" style="stroke:#181818;stroke-width:0.5;" width="163" x="1436" y="788.0234"/><text fill="#000000" font-family="sans-serif" font-size="14" lengthAdjust="spacing" textLength="149" x="1443" y="810.1309">greenSpaceRepository:</text><text fill="#000000" font-family="sans-serif" font-size="14" lengthAdjust="spacing" textLength="148" x="1443.5" y="828.752">GreenSpaceRepository</text><rect fill="#FFFFFF" height="658.7813" style="stroke:#181818;stroke-width:1.0;" width="10" x="48.5" y="112.2422"/><rect fill="#FFFFFF" height="74.9121" style="stroke:#181818;stroke-width:1.0;" width="10" x="329.5" y="135.5332"/><rect fill="#FFFFFF" height="31.291" style="stroke:#181818;stroke-width:1.0;" width="10" x="329.5" y="241.7363"/><rect fill="#FFFFFF" height="466.7051" style="stroke:#181818;stroke-width:1.0;" width="10" x="329.5" y="304.3184"/><rect fill="#FFFFFF" height="404.123" style="stroke:#181818;stroke-width:1.0;" width="10" x="644.5" y="335.6094"/><rect fill="#FFFFFF" height="90.543" style="stroke:#181818;stroke-width:1.0;" width="10" x="649.5" y="374.9004"/><rect fill="#FFFFFF" height="31.291" style="stroke:#181818;stroke-width:1.0;" width="10" x="812.5" y="503.7344"/><rect fill="#FFFFFF" height="31.291" style="stroke:#181818;stroke-width:1.0;" width="10" x="919.5" y="566.3164"/><rect fill="#FFFFFF" height="79.543" style="stroke:#181818;stroke-width:1.0;" width="10" x="1512.5" y="628.8984"/><polygon fill="#181818" points="317.5,131.5332,327.5,135.5332,317.5,139.5332,321.5,135.5332" style="stroke:#181818;stroke-width:1.0;"/><line style="stroke:#181818;stroke-width:1.0;" x1="58.5" x2="323.5" y1="135.5332" y2="135.5332"/><text fill="#000000" font-family="sans-serif" font-size="13" font-weight="bold" lengthAdjust="spacing" textLength="7" x="65.5" y="130.2705">1</text><text fill="#000000" font-family="sans-serif" font-size="13" lengthAdjust="spacing" textLength="203" x="76.5" y="130.2705">asks to register a new green space</text><polygon fill="#181818" points="531,162.8242,541,166.8242,531,170.8242,535,166.8242" style="stroke:#181818;stroke-width:1.0;"/><line style="stroke:#181818;stroke-width:1.0;" x1="339.5" x2="537" y1="166.8242" y2="166.8242"/><text fill="#000000" font-family="sans-serif" font-size="13" font-weight="bold" lengthAdjust="spacing" textLength="7" x="346.5" y="161.5615">2</text><text fill="#000000" font-family="sans-serif" font-size="13" lengthAdjust="spacing" textLength="36" x="357.5" y="161.5615">create</text><rect fill="#E3E3E3" height="32.6211" rx="2.5" ry="2.5" style="stroke:#181818;stroke-width:0.5;" width="213" x="543" y="143.5332"/><text fill="#000000" font-family="sans-serif" font-size="14" lengthAdjust="spacing" textLength="199" x="550" y="165.6406">:RegisterGreenSpaceController</text><polygon fill="#181818" points="69.5,206.4453,59.5,210.4453,69.5,214.4453,65.5,210.4453" style="stroke:#181818;stroke-width:1.0;"/><line style="stroke:#181818;stroke-width:1.0;stroke-dasharray:2.0,2.0;" x1="63.5" x2="333.5" y1="210.4453" y2="210.4453"/><text fill="#000000" font-family="sans-serif" font-size="13" font-weight="bold" lengthAdjust="spacing" textLength="7" x="75.5" y="205.1826">3</text><text fill="#000000" font-family="sans-serif" font-size="13" lengthAdjust="spacing" textLength="79" x="86.5" y="205.1826">requests data</text><polygon fill="#181818" points="317.5,237.7363,327.5,241.7363,317.5,245.7363,321.5,241.7363" style="stroke:#181818;stroke-width:1.0;"/><line style="stroke:#181818;stroke-width:1.0;" x1="58.5" x2="323.5" y1="241.7363" y2="241.7363"/><text fill="#000000" font-family="sans-serif" font-size="13" font-weight="bold" lengthAdjust="spacing" textLength="7" x="65.5" y="236.4736">4</text><text fill="#000000" font-family="sans-serif" font-size="13" lengthAdjust="spacing" textLength="168" x="76.5" y="236.4736">types/selects requested data</text><polygon fill="#181818" points="69.5,269.0273,59.5,273.0273,69.5,277.0273,65.5,273.0273" style="stroke:#181818;stroke-width:1.0;"/><line style="stroke:#181818;stroke-width:1.0;stroke-dasharray:2.0,2.0;" x1="63.5" x2="333.5" y1="273.0273" y2="273.0273"/><text fill="#000000" font-family="sans-serif" font-size="13" font-weight="bold" lengthAdjust="spacing" textLength="7" x="75.5" y="267.7646">5</text><text fill="#000000" font-family="sans-serif" font-size="13" lengthAdjust="spacing" textLength="236" x="86.5" y="267.7646">shows all data and requests confirmation</text><polygon fill="#181818" points="317.5,300.3184,327.5,304.3184,317.5,308.3184,321.5,304.3184" style="stroke:#181818;stroke-width:1.0;"/><line style="stroke:#181818;stroke-width:1.0;" x1="58.5" x2="323.5" y1="304.3184" y2="304.3184"/><text fill="#000000" font-family="sans-serif" font-size="13" font-weight="bold" lengthAdjust="spacing" textLength="7" x="65.5" y="299.0557">6</text><text fill="#000000" font-family="sans-serif" font-size="13" lengthAdjust="spacing" textLength="78" x="76.5" y="299.0557">confirms data</text><polygon fill="#181818" points="632.5,331.6094,642.5,335.6094,632.5,339.6094,636.5,335.6094" style="stroke:#181818;stroke-width:1.0;"/><line style="stroke:#181818;stroke-width:1.0;" x1="339.5" x2="638.5" y1="335.6094" y2="335.6094"/><text fill="#000000" font-family="sans-serif" font-size="13" font-weight="bold" lengthAdjust="spacing" textLength="7" x="346.5" y="330.3467">7</text><text fill="#000000" font-family="sans-serif" font-size="13" lengthAdjust="spacing" textLength="275" x="357.5" y="330.3467">registerGreenSpace(name, address, type, area)</text><line style="stroke:#181818;stroke-width:1.0;" x1="654.5" x2="701.5" y1="361.9004" y2="361.9004"/><line style="stroke:#181818;stroke-width:1.0;" x1="701.5" x2="701.5" y1="361.9004" y2="374.9004"/><line style="stroke:#181818;stroke-width:1.0;" x1="660.5" x2="701.5" y1="374.9004" y2="374.9004"/><polygon fill="#181818" points="670.5,370.9004,660.5,374.9004,670.5,378.9004,666.5,374.9004" style="stroke:#181818;stroke-width:1.0;"/><text fill="#000000" font-family="sans-serif" font-size="13" font-weight="bold" lengthAdjust="spacing" textLength="7" x="666.5" y="356.6377">8</text><text fill="#000000" font-family="sans-serif" font-size="13" lengthAdjust="spacing" textLength="133" x="677.5" y="356.6377">getGSMFromSession()</text><rect fill="none" height="43.252" style="stroke:#000000;stroke-width:1.5;" width="219" x="540" y="387.9004"/><path d="M540,387.9004 L602,387.9004 L602,396.9004 L592,406.9004 L540,406.9004 L540,387.9004 " fill="#EEEEEE" style="stroke:#000000;stroke-width:2.0;"/><text fill="#000000" font-family="sans-serif" font-size="13" font-weight="bold" lengthAdjust="spacing" textLength="17" x="553" y="403.9287">ref</text><text fill="#000000" font-family="sans-serif" font-size="12" lengthAdjust="spacing" textLength="82" x="608.5" y="423.8496">Get GSM email</text><line style="stroke:#181818;stroke-width:1.0;stroke-dasharray:2.0,2.0;" x1="659.5" x2="701.5" y1="464.4434" y2="464.4434"/><line style="stroke:#181818;stroke-width:1.0;stroke-dasharray:2.0,2.0;" x1="701.5" x2="701.5" y1="464.4434" y2="477.4434"/><line style="stroke:#181818;stroke-width:1.0;stroke-dasharray:2.0,2.0;" x1="654.5" x2="701.5" y1="477.4434" y2="477.4434"/><polygon fill="#181818" points="664.5,473.4434,654.5,477.4434,664.5,481.4434,660.5,477.4434" style="stroke:#181818;stroke-width:1.0;"/><text fill="#000000" font-family="sans-serif" font-size="13" font-weight="bold" lengthAdjust="spacing" textLength="7" x="666.5" y="459.1807">9</text><text fill="#000000" font-family="sans-serif" font-size="13" lengthAdjust="spacing" textLength="31" x="677.5" y="459.1807">email</text><polygon fill="#181818" points="800.5,499.7344,810.5,503.7344,800.5,507.7344,804.5,503.7344" style="stroke:#181818;stroke-width:1.0;"/><line style="stroke:#181818;stroke-width:1.0;" x1="654.5" x2="806.5" y1="503.7344" y2="503.7344"/><text fill="#000000" font-family="sans-serif" font-size="13" font-weight="bold" lengthAdjust="spacing" textLength="14" x="661.5" y="498.4717">10</text><text fill="#000000" font-family="sans-serif" font-size="13" lengthAdjust="spacing" textLength="75" x="679.5" y="498.4717">getInstance()</text><polygon fill="#181818" points="665.5,531.0254,655.5,535.0254,665.5,539.0254,661.5,535.0254" style="stroke:#181818;stroke-width:1.0;"/><line style="stroke:#181818;stroke-width:1.0;stroke-dasharray:2.0,2.0;" x1="659.5" x2="816.5" y1="535.0254" y2="535.0254"/><text fill="#000000" font-family="sans-serif" font-size="13" font-weight="bold" lengthAdjust="spacing" textLength="14" x="671.5" y="529.7627">11</text><text fill="#000000" font-family="sans-serif" font-size="13" lengthAdjust="spacing" textLength="67" x="689.5" y="529.7627">repositories</text><polygon fill="#181818" points="907.5,562.3164,917.5,566.3164,907.5,570.3164,911.5,566.3164" style="stroke:#181818;stroke-width:1.0;"/><line style="stroke:#181818;stroke-width:1.0;" x1="654.5" x2="913.5" y1="566.3164" y2="566.3164"/><text fill="#000000" font-family="sans-serif" font-size="13" font-weight="bold" lengthAdjust="spacing" textLength="14" x="661.5" y="561.0537">12</text><text fill="#000000" font-family="sans-serif" font-size="13" lengthAdjust="spacing" textLength="160" x="679.5" y="561.0537">getGreenSpaceRepository()</text><polygon fill="#181818" points="665.5,593.6074,655.5,597.6074,665.5,601.6074,661.5,597.6074" style="stroke:#181818;stroke-width:1.0;"/><line style="stroke:#181818;stroke-width:1.0;stroke-dasharray:2.0,2.0;" x1="659.5" x2="923.5" y1="597.6074" y2="597.6074"/><text fill="#000000" font-family="sans-serif" font-size="13" font-weight="bold" lengthAdjust="spacing" textLength="14" x="671.5" y="592.3447">13</text><text fill="#000000" font-family="sans-serif" font-size="13" lengthAdjust="spacing" textLength="131" x="689.5" y="592.3447">greenSpaceRepository</text><polygon fill="#181818" points="1500.5,624.8984,1510.5,628.8984,1500.5,632.8984,1504.5,628.8984" style="stroke:#181818;stroke-width:1.0;"/><line style="stroke:#181818;stroke-width:1.0;" x1="654.5" x2="1506.5" y1="628.8984" y2="628.8984"/><text fill="#000000" font-family="sans-serif" font-size="13" font-weight="bold" lengthAdjust="spacing" textLength="14" x="661.5" y="623.6357">14</text><text fill="#000000" font-family="sans-serif" font-size="13" lengthAdjust="spacing" textLength="409" x="679.5" y="623.6357">registerGreenSpace(name ,address, type, area, greenSpacesManager)</text><rect fill="none" height="43.252" style="stroke:#000000;stroke-width:1.5;" width="169" x="1433" y="636.8984"/><path d="M1433,636.8984 L1495,636.8984 L1495,645.8984 L1485,655.8984 L1433,655.8984 L1433,636.8984 " fill="#EEEEEE" style="stroke:#000000;stroke-width:2.0;"/><text fill="#000000" font-family="sans-serif" font-size="13" font-weight="bold" lengthAdjust="spacing" textLength="17" x="1446" y="652.9268">ref</text><text fill="#000000" font-family="sans-serif" font-size="12" lengthAdjust="spacing" textLength="122" x="1456.5" y="672.8477">Register Green Space</text><polygon fill="#181818" points="665.5,704.4414,655.5,708.4414,665.5,712.4414,661.5,708.4414" style="stroke:#181818;stroke-width:1.0;"/><line style="stroke:#181818;stroke-width:1.0;stroke-dasharray:2.0,2.0;" x1="659.5" x2="1516.5" y1="708.4414" y2="708.4414"/><text fill="#000000" font-family="sans-serif" font-size="13" font-weight="bold" lengthAdjust="spacing" textLength="14" x="671.5" y="703.1787">15</text><text fill="#000000" font-family="sans-serif" font-size="13" lengthAdjust="spacing" textLength="69" x="689.5" y="703.1787">greenSpace</text><polygon fill="#181818" points="350.5,735.7324,340.5,739.7324,350.5,743.7324,346.5,739.7324" style="stroke:#181818;stroke-width:1.0;"/><line style="stroke:#181818;stroke-width:1.0;stroke-dasharray:2.0,2.0;" x1="344.5" x2="648.5" y1="739.7324" y2="739.7324"/><text fill="#000000" font-family="sans-serif" font-size="13" font-weight="bold" lengthAdjust="spacing" textLength="14" x="356.5" y="734.4697">16</text><text fill="#000000" font-family="sans-serif" font-size="13" lengthAdjust="spacing" textLength="69" x="374.5" y="734.4697">greenSpace</text><polygon fill="#181818" points="64.5,767.0234,54.5,771.0234,64.5,775.0234,60.5,771.0234" style="stroke:#181818;stroke-width:1.0;"/><line style="stroke:#181818;stroke-width:1.0;stroke-dasharray:2.0,2.0;" x1="58.5" x2="333.5" y1="771.0234" y2="771.0234"/><text fill="#000000" font-family="sans-serif" font-size="13" font-weight="bold" lengthAdjust="spacing" textLength="14" x="70.5" y="765.7607">17</text><text fill="#000000" font-family="sans-serif" font-size="13" lengthAdjust="spacing" textLength="158" x="88.5" y="765.7607">displays operation success</text><!--SRC=[ZLLDRzim3BtxLn2zh2qox9x3WA5OWm0hCCJBBHVMPXmXjkI9ShFy-r5ogjYmd5QNH2BVq-E7Q3ugtQB51XgZJN6mfY5mjgECewN5ueWLvUvS4rWg7Egg7Zhm0KjpKhg2FTPCMOQTCxfhNibcsPU3AWdsnhXNyo_3mXaBTojBf24NPkATVa4j_FOEa66LlsJ2wbIXMjGExfORgXGxiW4J8DjrSDskF_HyCjfPKzSNygS_cryJJ6jOYIX577msFt-FNUp0OwUJW7oCaF0Ff6MFJXaT0UVbJl-OCGMcCUuMvpCMMDA5hzz4XduxHdTCLhotyfCJip04TtyyTgnYwaQoLudZm93optoLrHiw2jNCG9RyWQ_VfMIm5DYHmHbffRvSWA3fr5C1Uwu0YIHIvt3Wbn08ZQ_ZuwDG5PR4epTxazZyJKlX_jiHEuOI7GPpIHF2eIXtRec_CTNIt_mEf_AAdw17z_71d2JzTHq0WBgyIYYCtYlRz4NzX9IBFz-uUvoAPKpbjKxt6XjQ09QbbO8lGdoobNmzH8P86zv5FFRBdrpfAt8Yy5c6mwLxxXz6tZU8_BAq1_CcXGvcIAmLkP02Qb3L4myAsTod54Q9K-GWo_FnoUCDuQqrorYJjCq4vgV2o287Wzk7Cs9En8HYe27lSvnuJ3S4vHD5-K1IycNEIylJsfBpOAxTO95ejyM0Wo-JVYQcz32PxQOF8uoPUHyqWy_EvveiTKKontEPlHrIxE7jEacMRE7Ht2aLjpMU6KnBDamOuAwGJ7DgqWosVZB_1m00]--></g></svg>