<?xml version="1.0" encoding="us-ascii" standalone="no"?><svg xmlns="http://www.w3.org/2000/svg" xmlns:xlink="http://www.w3.org/1999/xlink" contentStyleType="text/css" height="942.2px" preserveAspectRatio="none" style="width:1403px;height:942px;background:#FFFFFF;" version="1.1" viewBox="0 0 1403 942" width="1403.5px" zoomAndPan="magnify"><defs/><g><rect fill="#FFFFFF" height="780.2156" style="stroke:#181818;stroke-width:0.6999999999999998;" width="7" x="33.95" y="78.5695"/><rect fill="#FFFFFF" height="52.4385" style="stroke:#181818;stroke-width:0.6999999999999998;" width="7" x="230.65" y="94.8732"/><rect fill="#FFFFFF" height="21.9037" style="stroke:#181818;stroke-width:0.6999999999999998;" width="7" x="230.65" y="169.2154"/><rect fill="#FFFFFF" height="645.7623" style="stroke:#181818;stroke-width:0.6999999999999998;" width="7" x="230.65" y="213.0229"/><rect fill="#FFFFFF" height="601.9549" style="stroke:#181818;stroke-width:0.6999999999999998;" width="7" x="451.15" y="234.9266"/><rect fill="#FFFFFF" height="248.6408" style="stroke:#181818;stroke-width:0.6999999999999998;" width="7" x="454.65" y="262.4303"/><rect fill="#FFFFFF" height="21.9037" style="stroke:#181818;stroke-width:0.6999999999999998;" width="7" x="568.75" y="287.834"/><rect fill="#FFFFFF" height="21.9037" style="stroke:#181818;stroke-width:0.6999999999999998;" width="7" x="568.75" y="537.8748"/><rect fill="#FFFFFF" height="21.9037" style="stroke:#181818;stroke-width:0.6999999999999998;" width="7" x="643.65" y="331.6414"/><rect fill="#FFFFFF" height="21.9037" style="stroke:#181818;stroke-width:0.6999999999999998;" width="7" x="643.65" y="581.6822"/><rect fill="#FFFFFF" height="21.9037" style="stroke:#181818;stroke-width:0.6999999999999998;" width="7" x="745.85" y="375.4488"/><rect fill="#FFFFFF" height="21.9037" style="stroke:#181818;stroke-width:0.6999999999999998;" width="7" x="868.35" y="419.2562"/><rect fill="#FFFFFF" height="21.9037" style="stroke:#181818;stroke-width:0.6999999999999998;" width="7" x="962.15" y="463.0637"/><rect fill="#FFFFFF" height="189.4881" style="stroke:#181818;stroke-width:0.6999999999999998;" width="7" x="1058.75" y="625.4896"/><rect fill="#FFFFFF" height="91.6111" style="stroke:#181818;stroke-width:0.6999999999999998;" width="7" x="1062.25" y="696.5629"/><rect fill="#FFFFFF" height="29.6037" style="stroke:#181818;stroke-width:0.6999999999999998;" width="7" x="1065.75" y="727.5666"/><line style="stroke:#181818;stroke-width:0.3499999999999999;stroke-dasharray:5.0,5.0;" x1="37.1" x2="37.1" y1="71.5695" y2="871.3852"/><line style="stroke:#181818;stroke-width:0.3499999999999999;stroke-dasharray:5.0,5.0;" x1="233.8" x2="233.8" y1="71.5695" y2="871.3852"/><line style="stroke:#181818;stroke-width:0.3499999999999999;stroke-dasharray:5.0,5.0;" x1="454.3" x2="454.3" y1="122.7406" y2="871.3852"/><line style="stroke:#181818;stroke-width:0.3499999999999999;stroke-dasharray:5.0,5.0;" x1="571.9" x2="571.9" y1="71.5695" y2="871.3852"/><line style="stroke:#181818;stroke-width:0.3499999999999999;stroke-dasharray:5.0,5.0;" x1="646.8" x2="646.8" y1="71.5695" y2="871.3852"/><line style="stroke:#181818;stroke-width:0.3499999999999999;stroke-dasharray:5.0,5.0;" x1="749" x2="749" y1="71.5695" y2="871.3852"/><line style="stroke:#181818;stroke-width:0.3499999999999999;stroke-dasharray:5.0,5.0;" x1="871.5" x2="871.5" y1="71.5695" y2="871.3852"/><line style="stroke:#181818;stroke-width:0.3499999999999999;stroke-dasharray:5.0,5.0;" x1="965.3" x2="965.3" y1="71.5695" y2="871.3852"/><line style="stroke:#181818;stroke-width:0.3499999999999999;stroke-dasharray:5.0,5.0;" x1="1061.9" x2="1061.9" y1="71.5695" y2="871.3852"/><line style="stroke:#181818;stroke-width:0.3499999999999999;stroke-dasharray:5.0,5.0;" x1="1365.35" x2="1365.35" y1="659.8744" y2="871.3852"/><text fill="#000000" font-family="sans-serif" font-size="9.8" lengthAdjust="spacing" textLength="63.7" x="3.5" y="56.0752">Green Spaces</text><text fill="#000000" font-family="sans-serif" font-size="9.8" lengthAdjust="spacing" textLength="39.2" x="15.75" y="69.11">Manager</text><ellipse cx="37.45" cy="9.45" fill="#E3E3E3" rx="5.6" ry="5.6" style="stroke:#181818;stroke-width:0.3499999999999999;"/><path d="M37.45,15.05 L37.45,33.95 M28.35,20.65 L46.55,20.65 M37.45,33.95 L28.35,44.45 M37.45,33.95 L46.55,44.45 " fill="none" style="stroke:#181818;stroke-width:0.3499999999999999;"/><text fill="#000000" font-family="sans-serif" font-size="9.8" lengthAdjust="spacing" textLength="63.7" x="3.5" y="881.2604">Green Spaces</text><text fill="#000000" font-family="sans-serif" font-size="9.8" lengthAdjust="spacing" textLength="39.2" x="15.75" y="894.2951">Manager</text><ellipse cx="37.45" cy="902.7047" fill="#E3E3E3" rx="5.6" ry="5.6" style="stroke:#181818;stroke-width:0.3499999999999999;"/><path d="M37.45,908.3047 L37.45,927.2047 M28.35,913.9047 L46.55,913.9047 M37.45,927.2047 L28.35,937.7047 M37.45,927.2047 L46.55,937.7047 " fill="none" style="stroke:#181818;stroke-width:0.3499999999999999;"/><rect fill="#E3E3E3" height="22.8348" rx="1.75" ry="1.75" style="stroke:#181818;stroke-width:0.3499999999999999;" width="114.1" x="177.1" y="48.0348"/><text fill="#000000" font-family="sans-serif" font-size="9.8" lengthAdjust="spacing" textLength="104.3" x="182" y="63.51">:RegisterGreenSpaceUI</text><rect fill="#E3E3E3" height="22.8348" rx="1.75" ry="1.75" style="stroke:#181818;stroke-width:0.3499999999999999;" width="114.1" x="177.1" y="870.6852"/><text fill="#000000" font-family="sans-serif" font-size="9.8" lengthAdjust="spacing" textLength="104.3" x="182" y="886.1604">:RegisterGreenSpaceUI</text><rect fill="#E3E3E3" height="22.8348" rx="1.75" ry="1.75" style="stroke:#181818;stroke-width:0.3499999999999999;" width="149.1" x="380.1" y="870.6852"/><text fill="#000000" font-family="sans-serif" font-size="9.8" lengthAdjust="spacing" textLength="139.3" x="385" y="886.1604">:RegisterGreenSpaceController</text><rect fill="#E3E3E3" height="22.8348" rx="1.75" ry="1.75" style="stroke:#181818;stroke-width:0.3499999999999999;" width="67.9" x="538.3" y="48.0348"/><text fill="#000000" font-family="sans-serif" font-size="9.8" lengthAdjust="spacing" textLength="58.1" x="543.2" y="63.51">:Repositories</text><rect fill="#E3E3E3" height="22.8348" rx="1.75" ry="1.75" style="stroke:#181818;stroke-width:0.3499999999999999;" width="67.9" x="538.3" y="870.6852"/><text fill="#000000" font-family="sans-serif" font-size="9.8" lengthAdjust="spacing" textLength="58.1" x="543.2" y="886.1604">:Repositories</text><rect fill="#E3E3E3" height="35.8695" rx="1.75" ry="1.75" style="stroke:#181818;stroke-width:0.3499999999999999;" width="67.9" x="613.2" y="35"/><text fill="#000000" font-family="sans-serif" font-size="9.8" lengthAdjust="spacing" textLength="51.8" x="621.25" y="50.4752">repositories</text><text fill="#000000" font-family="sans-serif" font-size="9.8" lengthAdjust="spacing" textLength="58.1" x="618.1" y="63.51">:Repositories</text><rect fill="#E3E3E3" height="35.8695" rx="1.75" ry="1.75" style="stroke:#181818;stroke-width:0.3499999999999999;" width="67.9" x="613.2" y="870.6852"/><text fill="#000000" font-family="sans-serif" font-size="9.8" lengthAdjust="spacing" textLength="51.8" x="621.25" y="886.1604">repositories</text><text fill="#000000" font-family="sans-serif" font-size="9.8" lengthAdjust="spacing" textLength="58.1" x="618.1" y="899.1951">:Repositories</text><rect fill="#E3E3E3" height="35.8695" rx="1.75" ry="1.75" style="stroke:#181818;stroke-width:0.3499999999999999;" width="122.5" x="688.1" y="35"/><text fill="#000000" font-family="sans-serif" font-size="9.8" lengthAdjust="spacing" textLength="112.7" x="693" y="50.4752">authenticationRepository:</text><text fill="#000000" font-family="sans-serif" font-size="9.8" lengthAdjust="spacing" textLength="110.6" x="694.05" y="63.51">AuthenticationRepository</text><rect fill="#E3E3E3" height="35.8695" rx="1.75" ry="1.75" style="stroke:#181818;stroke-width:0.3499999999999999;" width="122.5" x="688.1" y="870.6852"/><text fill="#000000" font-family="sans-serif" font-size="9.8" lengthAdjust="spacing" textLength="112.7" x="693" y="886.1604">authenticationRepository:</text><text fill="#000000" font-family="sans-serif" font-size="9.8" lengthAdjust="spacing" textLength="110.6" x="694.05" y="899.1951">AuthenticationRepository</text><rect fill="#E3E3E3" height="35.8695" rx="1.75" ry="1.75" style="stroke:#181818;stroke-width:0.3499999999999999;" width="108.5" x="817.6" y="35"/><text fill="#000000" font-family="sans-serif" font-size="9.8" lengthAdjust="spacing" textLength="98.7" x="822.5" y="50.4752">authenticationFacade:</text><text fill="#000000" font-family="sans-serif" font-size="9.8" lengthAdjust="spacing" textLength="53.9" x="844.9" y="63.51">AuthFacade</text><rect fill="#E3E3E3" height="35.8695" rx="1.75" ry="1.75" style="stroke:#181818;stroke-width:0.3499999999999999;" width="108.5" x="817.6" y="870.6852"/><text fill="#000000" font-family="sans-serif" font-size="9.8" lengthAdjust="spacing" textLength="98.7" x="822.5" y="886.1604">authenticationFacade:</text><text fill="#000000" font-family="sans-serif" font-size="9.8" lengthAdjust="spacing" textLength="53.9" x="844.9" y="899.1951">AuthFacade</text><rect fill="#E3E3E3" height="35.8695" rx="1.75" ry="1.75" style="stroke:#181818;stroke-width:0.3499999999999999;" width="65.1" x="933.1" y="35"/><text fill="#000000" font-family="sans-serif" font-size="9.8" lengthAdjust="spacing" textLength="22.4" x="954.45" y="50.4752">user:</text><text fill="#000000" font-family="sans-serif" font-size="9.8" lengthAdjust="spacing" textLength="55.3" x="938" y="63.51">UserSession</text><rect fill="#E3E3E3" height="35.8695" rx="1.75" ry="1.75" style="stroke:#181818;stroke-width:0.3499999999999999;" width="65.1" x="933.1" y="870.6852"/><text fill="#000000" font-family="sans-serif" font-size="9.8" lengthAdjust="spacing" textLength="22.4" x="954.45" y="886.1604">user:</text><text fill="#000000" font-family="sans-serif" font-size="9.8" lengthAdjust="spacing" textLength="55.3" x="938" y="899.1951">UserSession</text><rect fill="#E3E3E3" height="35.8695" rx="1.75" ry="1.75" style="stroke:#181818;stroke-width:0.3499999999999999;" width="114.1" x="1005.2" y="35"/><text fill="#000000" font-family="sans-serif" font-size="9.8" lengthAdjust="spacing" textLength="104.3" x="1010.1" y="50.4752">greenSpaceRepository:</text><text fill="#000000" font-family="sans-serif" font-size="9.8" lengthAdjust="spacing" textLength="103.6" x="1010.45" y="63.51">GreenSpaceRepository</text><rect fill="#E3E3E3" height="35.8695" rx="1.75" ry="1.75" style="stroke:#181818;stroke-width:0.3499999999999999;" width="114.1" x="1005.2" y="870.6852"/><text fill="#000000" font-family="sans-serif" font-size="9.8" lengthAdjust="spacing" textLength="104.3" x="1010.1" y="886.1604">greenSpaceRepository:</text><text fill="#000000" font-family="sans-serif" font-size="9.8" lengthAdjust="spacing" textLength="103.6" x="1010.45" y="899.1951">GreenSpaceRepository</text><rect fill="#E3E3E3" height="35.8695" rx="1.75" ry="1.75" style="stroke:#181818;stroke-width:0.3499999999999999;" width="68.6" x="1331.05" y="870.6852"/><text fill="#000000" font-family="sans-serif" font-size="9.8" lengthAdjust="spacing" textLength="53.9" x="1338.4" y="886.1604">greenSpace</text><text fill="#000000" font-family="sans-serif" font-size="9.8" lengthAdjust="spacing" textLength="58.8" x="1335.95" y="899.1951">:GreenSpace</text><rect fill="#FFFFFF" height="780.2156" style="stroke:#181818;stroke-width:0.6999999999999998;" width="7" x="33.95" y="78.5695"/><rect fill="#FFFFFF" height="52.4385" style="stroke:#181818;stroke-width:0.6999999999999998;" width="7" x="230.65" y="94.8732"/><rect fill="#FFFFFF" height="21.9037" style="stroke:#181818;stroke-width:0.6999999999999998;" width="7" x="230.65" y="169.2154"/><rect fill="#FFFFFF" height="645.7623" style="stroke:#181818;stroke-width:0.6999999999999998;" width="7" x="230.65" y="213.0229"/><rect fill="#FFFFFF" height="601.9549" style="stroke:#181818;stroke-width:0.6999999999999998;" width="7" x="451.15" y="234.9266"/><rect fill="#FFFFFF" height="248.6408" style="stroke:#181818;stroke-width:0.6999999999999998;" width="7" x="454.65" y="262.4303"/><rect fill="#FFFFFF" height="21.9037" style="stroke:#181818;stroke-width:0.6999999999999998;" width="7" x="568.75" y="287.834"/><rect fill="#FFFFFF" height="21.9037" style="stroke:#181818;stroke-width:0.6999999999999998;" width="7" x="568.75" y="537.8748"/><rect fill="#FFFFFF" height="21.9037" style="stroke:#181818;stroke-width:0.6999999999999998;" width="7" x="643.65" y="331.6414"/><rect fill="#FFFFFF" height="21.9037" style="stroke:#181818;stroke-width:0.6999999999999998;" width="7" x="643.65" y="581.6822"/><rect fill="#FFFFFF" height="21.9037" style="stroke:#181818;stroke-width:0.6999999999999998;" width="7" x="745.85" y="375.4488"/><rect fill="#FFFFFF" height="21.9037" style="stroke:#181818;stroke-width:0.6999999999999998;" width="7" x="868.35" y="419.2562"/><rect fill="#FFFFFF" height="21.9037" style="stroke:#181818;stroke-width:0.6999999999999998;" width="7" x="962.15" y="463.0637"/><rect fill="#FFFFFF" height="189.4881" style="stroke:#181818;stroke-width:0.6999999999999998;" width="7" x="1058.75" y="625.4896"/><rect fill="#FFFFFF" height="91.6111" style="stroke:#181818;stroke-width:0.6999999999999998;" width="7" x="1062.25" y="696.5629"/><rect fill="#FFFFFF" height="29.6037" style="stroke:#181818;stroke-width:0.6999999999999998;" width="7" x="1065.75" y="727.5666"/><polygon fill="#181818" points="222.25,92.0732,229.25,94.8732,222.25,97.6732,225.05,94.8732" style="stroke:#181818;stroke-width:0.6999999999999998;"/><line style="stroke:#181818;stroke-width:0.6999999999999998;" x1="40.95" x2="226.45" y1="94.8732" y2="94.8732"/><text fill="#000000" font-family="sans-serif" font-size="9.1" font-weight="bold" lengthAdjust="spacing" textLength="4.9" x="45.85" y="91.1894">1</text><text fill="#000000" font-family="sans-serif" font-size="9.1" lengthAdjust="spacing" textLength="142.1" x="53.55" y="91.1894">asks to register a new green space</text><polygon fill="#181818" points="371.7,113.977,378.7,116.777,371.7,119.577,374.5,116.777" style="stroke:#181818;stroke-width:0.6999999999999998;"/><line style="stroke:#181818;stroke-width:0.6999999999999998;" x1="237.65" x2="375.9" y1="116.777" y2="116.777"/><text fill="#000000" font-family="sans-serif" font-size="9.1" font-weight="bold" lengthAdjust="spacing" textLength="4.9" x="242.55" y="113.0931">2</text><text fill="#000000" font-family="sans-serif" font-size="9.1" lengthAdjust="spacing" textLength="25.2" x="250.25" y="113.0931">create</text><rect fill="#E3E3E3" height="22.8348" rx="1.75" ry="1.75" style="stroke:#181818;stroke-width:0.3499999999999999;" width="149.1" x="380.1" y="100.4732"/><text fill="#000000" font-family="sans-serif" font-size="9.8" lengthAdjust="spacing" textLength="139.3" x="385" y="115.9484">:RegisterGreenSpaceController</text><polygon fill="#181818" points="48.65,144.5117,41.65,147.3117,48.65,150.1117,45.85,147.3117" style="stroke:#181818;stroke-width:0.6999999999999998;"/><line style="stroke:#181818;stroke-width:0.6999999999999998;stroke-dasharray:2.0,2.0;" x1="44.45" x2="233.45" y1="147.3117" y2="147.3117"/><text fill="#000000" font-family="sans-serif" font-size="9.1" font-weight="bold" lengthAdjust="spacing" textLength="4.9" x="52.85" y="143.6278">3</text><text fill="#000000" font-family="sans-serif" font-size="9.1" lengthAdjust="spacing" textLength="55.3" x="60.55" y="143.6278">requests data</text><polygon fill="#181818" points="222.25,166.4154,229.25,169.2154,222.25,172.0154,225.05,169.2154" style="stroke:#181818;stroke-width:0.6999999999999998;"/><line style="stroke:#181818;stroke-width:0.6999999999999998;" x1="40.95" x2="226.45" y1="169.2154" y2="169.2154"/><text fill="#000000" font-family="sans-serif" font-size="9.1" font-weight="bold" lengthAdjust="spacing" textLength="4.9" x="45.85" y="165.5315">4</text><text fill="#000000" font-family="sans-serif" font-size="9.1" lengthAdjust="spacing" textLength="117.6" x="53.55" y="165.5315">types/selects requested data</text><polygon fill="#181818" points="48.65,188.3191,41.65,191.1191,48.65,193.9191,45.85,191.1191" style="stroke:#181818;stroke-width:0.6999999999999998;"/><line style="stroke:#181818;stroke-width:0.6999999999999998;stroke-dasharray:2.0,2.0;" x1="44.45" x2="233.45" y1="191.1191" y2="191.1191"/><text fill="#000000" font-family="sans-serif" font-size="9.1" font-weight="bold" lengthAdjust="spacing" textLength="4.9" x="52.85" y="187.4353">5</text><text fill="#000000" font-family="sans-serif" font-size="9.1" lengthAdjust="spacing" textLength="165.2" x="60.55" y="187.4353">shows all data and requests confirmation</text><polygon fill="#181818" points="222.25,210.2229,229.25,213.0229,222.25,215.8229,225.05,213.0229" style="stroke:#181818;stroke-width:0.6999999999999998;"/><line style="stroke:#181818;stroke-width:0.6999999999999998;" x1="40.95" x2="226.45" y1="213.0229" y2="213.0229"/><text fill="#000000" font-family="sans-serif" font-size="9.1" font-weight="bold" lengthAdjust="spacing" textLength="4.9" x="45.85" y="209.339">6</text><text fill="#000000" font-family="sans-serif" font-size="9.1" lengthAdjust="spacing" textLength="54.6" x="53.55" y="209.339">confirms data</text><polygon fill="#181818" points="442.75,232.1266,449.75,234.9266,442.75,237.7266,445.55,234.9266" style="stroke:#181818;stroke-width:0.6999999999999998;"/><line style="stroke:#181818;stroke-width:0.6999999999999998;" x1="237.65" x2="446.95" y1="234.9266" y2="234.9266"/><text fill="#000000" font-family="sans-serif" font-size="9.1" font-weight="bold" lengthAdjust="spacing" textLength="4.9" x="242.55" y="231.2427">7</text><text fill="#000000" font-family="sans-serif" font-size="9.1" lengthAdjust="spacing" textLength="192.5" x="250.25" y="231.2427">registerGreenSpace(name, address, type, area)</text><line style="stroke:#181818;stroke-width:0.6999999999999998;" x1="458.15" x2="491.05" y1="253.3303" y2="253.3303"/><line style="stroke:#181818;stroke-width:0.6999999999999998;" x1="491.05" x2="491.05" y1="253.3303" y2="262.4303"/><line style="stroke:#181818;stroke-width:0.6999999999999998;" x1="462.35" x2="491.05" y1="262.4303" y2="262.4303"/><polygon fill="#181818" points="469.35,259.6303,462.35,262.4303,469.35,265.2303,466.55,262.4303" style="stroke:#181818;stroke-width:0.6999999999999998;"/><text fill="#000000" font-family="sans-serif" font-size="9.1" font-weight="bold" lengthAdjust="spacing" textLength="4.9" x="466.55" y="249.6464">8</text><text fill="#000000" font-family="sans-serif" font-size="9.1" lengthAdjust="spacing" textLength="93.1" x="474.25" y="249.6464">getGSMFromSession()</text><polygon fill="#181818" points="560.35,285.034,567.35,287.834,560.35,290.634,563.15,287.834" style="stroke:#181818;stroke-width:0.6999999999999998;"/><line style="stroke:#181818;stroke-width:0.6999999999999998;" x1="461.65" x2="564.55" y1="287.834" y2="287.834"/><text fill="#000000" font-family="sans-serif" font-size="9.1" font-weight="bold" lengthAdjust="spacing" textLength="4.9" x="466.55" y="284.1501">9</text><text fill="#000000" font-family="sans-serif" font-size="9.1" lengthAdjust="spacing" textLength="52.5" x="474.25" y="284.1501">getInstance()</text><polygon fill="#181818" points="469.35,306.9377,462.35,309.7377,469.35,312.5377,466.55,309.7377" style="stroke:#181818;stroke-width:0.6999999999999998;"/><line style="stroke:#181818;stroke-width:0.6999999999999998;stroke-dasharray:2.0,2.0;" x1="465.15" x2="571.55" y1="309.7377" y2="309.7377"/><text fill="#000000" font-family="sans-serif" font-size="9.1" font-weight="bold" lengthAdjust="spacing" textLength="9.8" x="473.55" y="306.0538">10</text><text fill="#000000" font-family="sans-serif" font-size="9.1" lengthAdjust="spacing" textLength="46.9" x="486.15" y="306.0538">repositories</text><polygon fill="#181818" points="635.25,328.8414,642.25,331.6414,635.25,334.4414,638.05,331.6414" style="stroke:#181818;stroke-width:0.6999999999999998;"/><line style="stroke:#181818;stroke-width:0.6999999999999998;" x1="461.65" x2="639.45" y1="331.6414" y2="331.6414"/><text fill="#000000" font-family="sans-serif" font-size="9.1" font-weight="bold" lengthAdjust="spacing" textLength="9.8" x="466.55" y="327.9575">11</text><text fill="#000000" font-family="sans-serif" font-size="9.1" lengthAdjust="spacing" textLength="119.7" x="479.15" y="327.9575">getAuthenticationRepository()</text><polygon fill="#181818" points="469.35,350.7451,462.35,353.5451,469.35,356.3451,466.55,353.5451" style="stroke:#181818;stroke-width:0.6999999999999998;"/><line style="stroke:#181818;stroke-width:0.6999999999999998;stroke-dasharray:2.0,2.0;" x1="465.15" x2="646.45" y1="353.5451" y2="353.5451"/><text fill="#000000" font-family="sans-serif" font-size="9.1" font-weight="bold" lengthAdjust="spacing" textLength="9.8" x="473.55" y="349.8612">12</text><text fill="#000000" font-family="sans-serif" font-size="9.1" lengthAdjust="spacing" textLength="100.1" x="486.15" y="349.8612">authenticationRepository</text><polygon fill="#181818" points="737.45,372.6488,744.45,375.4488,737.45,378.2488,740.25,375.4488" style="stroke:#181818;stroke-width:0.6999999999999998;"/><line style="stroke:#181818;stroke-width:0.6999999999999998;" x1="461.65" x2="741.65" y1="375.4488" y2="375.4488"/><text fill="#000000" font-family="sans-serif" font-size="9.1" font-weight="bold" lengthAdjust="spacing" textLength="9.8" x="466.55" y="371.7649">13</text><text fill="#000000" font-family="sans-serif" font-size="9.1" lengthAdjust="spacing" textLength="99.4" x="479.15" y="371.7649">getCurrentUserSession()</text><polygon fill="#181818" points="469.35,394.5525,462.35,397.3525,469.35,400.1525,466.55,397.3525" style="stroke:#181818;stroke-width:0.6999999999999998;"/><line style="stroke:#181818;stroke-width:0.6999999999999998;stroke-dasharray:2.0,2.0;" x1="465.15" x2="748.65" y1="397.3525" y2="397.3525"/><text fill="#000000" font-family="sans-serif" font-size="9.1" font-weight="bold" lengthAdjust="spacing" textLength="9.8" x="473.55" y="393.6687">14</text><text fill="#000000" font-family="sans-serif" font-size="9.1" lengthAdjust="spacing" textLength="86.8" x="486.15" y="393.6687">authenticationFacade</text><polygon fill="#181818" points="859.95,416.4562,866.95,419.2562,859.95,422.0562,862.75,419.2562" style="stroke:#181818;stroke-width:0.6999999999999998;"/><line style="stroke:#181818;stroke-width:0.6999999999999998;" x1="461.65" x2="864.15" y1="419.2562" y2="419.2562"/><text fill="#000000" font-family="sans-serif" font-size="9.1" font-weight="bold" lengthAdjust="spacing" textLength="9.8" x="466.55" y="415.5724">15</text><text fill="#000000" font-family="sans-serif" font-size="9.1" lengthAdjust="spacing" textLength="99.4" x="479.15" y="415.5724">getCurrentUserSession()</text><polygon fill="#181818" points="469.35,438.36,462.35,441.16,469.35,443.96,466.55,441.16" style="stroke:#181818;stroke-width:0.6999999999999998;"/><line style="stroke:#181818;stroke-width:0.6999999999999998;stroke-dasharray:2.0,2.0;" x1="465.15" x2="871.15" y1="441.16" y2="441.16"/><text fill="#000000" font-family="sans-serif" font-size="9.1" font-weight="bold" lengthAdjust="spacing" textLength="9.8" x="473.55" y="437.4761">16</text><text fill="#000000" font-family="sans-serif" font-size="9.1" lengthAdjust="spacing" textLength="50.4" x="486.15" y="437.4761">userSession</text><polygon fill="#181818" points="953.75,460.2637,960.75,463.0637,953.75,465.8637,956.55,463.0637" style="stroke:#181818;stroke-width:0.6999999999999998;"/><line style="stroke:#181818;stroke-width:0.6999999999999998;" x1="461.65" x2="957.95" y1="463.0637" y2="463.0637"/><text fill="#000000" font-family="sans-serif" font-size="9.1" font-weight="bold" lengthAdjust="spacing" textLength="9.8" x="466.55" y="459.3798">17</text><text fill="#000000" font-family="sans-serif" font-size="9.1" lengthAdjust="spacing" textLength="44.1" x="479.15" y="459.3798">getUserId()</text><polygon fill="#181818" points="469.35,482.1674,462.35,484.9674,469.35,487.7674,466.55,484.9674" style="stroke:#181818;stroke-width:0.6999999999999998;"/><line style="stroke:#181818;stroke-width:0.6999999999999998;stroke-dasharray:2.0,2.0;" x1="465.15" x2="964.95" y1="484.9674" y2="484.9674"/><text fill="#000000" font-family="sans-serif" font-size="9.1" font-weight="bold" lengthAdjust="spacing" textLength="9.8" x="473.55" y="481.2835">18</text><text fill="#000000" font-family="sans-serif" font-size="9.1" lengthAdjust="spacing" textLength="21.7" x="486.15" y="481.2835">email</text><line style="stroke:#181818;stroke-width:0.6999999999999998;stroke-dasharray:2.0,2.0;" x1="461.65" x2="491.05" y1="510.3711" y2="510.3711"/><line style="stroke:#181818;stroke-width:0.6999999999999998;stroke-dasharray:2.0,2.0;" x1="491.05" x2="491.05" y1="510.3711" y2="519.4711"/><line style="stroke:#181818;stroke-width:0.6999999999999998;stroke-dasharray:2.0,2.0;" x1="458.15" x2="491.05" y1="519.4711" y2="519.4711"/><polygon fill="#181818" points="465.15,516.6711,458.15,519.4711,465.15,522.2711,462.35,519.4711" style="stroke:#181818;stroke-width:0.6999999999999998;"/><text fill="#000000" font-family="sans-serif" font-size="9.1" font-weight="bold" lengthAdjust="spacing" textLength="9.8" x="466.55" y="506.6872">19</text><text fill="#000000" font-family="sans-serif" font-size="9.1" lengthAdjust="spacing" textLength="21.7" x="479.15" y="506.6872">email</text><polygon fill="#181818" points="560.35,535.0748,567.35,537.8748,560.35,540.6748,563.15,537.8748" style="stroke:#181818;stroke-width:0.6999999999999998;"/><line style="stroke:#181818;stroke-width:0.6999999999999998;" x1="458.15" x2="564.55" y1="537.8748" y2="537.8748"/><text fill="#000000" font-family="sans-serif" font-size="9.1" font-weight="bold" lengthAdjust="spacing" textLength="9.8" x="463.05" y="534.1909">20</text><text fill="#000000" font-family="sans-serif" font-size="9.1" lengthAdjust="spacing" textLength="52.5" x="475.65" y="534.1909">getInstance()</text><polygon fill="#181818" points="465.85,556.9785,458.85,559.7785,465.85,562.5785,463.05,559.7785" style="stroke:#181818;stroke-width:0.6999999999999998;"/><line style="stroke:#181818;stroke-width:0.6999999999999998;stroke-dasharray:2.0,2.0;" x1="461.65" x2="571.55" y1="559.7785" y2="559.7785"/><text fill="#000000" font-family="sans-serif" font-size="9.1" font-weight="bold" lengthAdjust="spacing" textLength="9.8" x="470.05" y="556.0946">21</text><text fill="#000000" font-family="sans-serif" font-size="9.1" lengthAdjust="spacing" textLength="46.9" x="482.65" y="556.0946">repositories</text><polygon fill="#181818" points="635.25,578.8822,642.25,581.6822,635.25,584.4822,638.05,581.6822" style="stroke:#181818;stroke-width:0.6999999999999998;"/><line style="stroke:#181818;stroke-width:0.6999999999999998;" x1="458.15" x2="639.45" y1="581.6822" y2="581.6822"/><text fill="#000000" font-family="sans-serif" font-size="9.1" font-weight="bold" lengthAdjust="spacing" textLength="9.8" x="463.05" y="577.9983">22</text><text fill="#000000" font-family="sans-serif" font-size="9.1" lengthAdjust="spacing" textLength="112" x="475.65" y="577.9983">getGreenSpaceRepository()</text><polygon fill="#181818" points="465.85,600.7859,458.85,603.5859,465.85,606.3859,463.05,603.5859" style="stroke:#181818;stroke-width:0.6999999999999998;"/><line style="stroke:#181818;stroke-width:0.6999999999999998;stroke-dasharray:2.0,2.0;" x1="461.65" x2="646.45" y1="603.5859" y2="603.5859"/><text fill="#000000" font-family="sans-serif" font-size="9.1" font-weight="bold" lengthAdjust="spacing" textLength="9.8" x="470.05" y="599.9021">23</text><text fill="#000000" font-family="sans-serif" font-size="9.1" lengthAdjust="spacing" textLength="91.7" x="482.65" y="599.9021">greenSpaceRepository</text><polygon fill="#181818" points="1050.35,622.6896,1057.35,625.4896,1050.35,628.2896,1053.15,625.4896" style="stroke:#181818;stroke-width:0.6999999999999998;"/><line style="stroke:#181818;stroke-width:0.6999999999999998;" x1="458.15" x2="1054.55" y1="625.4896" y2="625.4896"/><text fill="#000000" font-family="sans-serif" font-size="9.1" font-weight="bold" lengthAdjust="spacing" textLength="9.8" x="463.05" y="621.8058">24</text><text fill="#000000" font-family="sans-serif" font-size="9.1" lengthAdjust="spacing" textLength="286.3" x="475.65" y="621.8058">registerGreenSpace(name ,address, type, area, greenSpacesManager)</text><polygon fill="#181818" points="1322.65,644.5934,1329.65,647.3934,1322.65,650.1934,1325.45,647.3934" style="stroke:#181818;stroke-width:0.6999999999999998;"/><line style="stroke:#181818;stroke-width:0.6999999999999998;" x1="1065.75" x2="1326.85" y1="647.3934" y2="647.3934"/><text fill="#000000" font-family="sans-serif" font-size="9.1" font-weight="bold" lengthAdjust="spacing" textLength="9.8" x="1070.65" y="643.7095">25</text><text fill="#000000" font-family="sans-serif" font-size="9.1" lengthAdjust="spacing" textLength="235.9" x="1083.25" y="643.7095">register(name ,address, type, area, greenSpacesManager)</text><rect fill="#E3E3E3" height="35.8695" rx="1.75" ry="1.75" style="stroke:#181818;stroke-width:0.3499999999999999;" width="68.6" x="1331.05" y="631.0896"/><text fill="#000000" font-family="sans-serif" font-size="9.8" lengthAdjust="spacing" textLength="53.9" x="1338.4" y="646.5648">greenSpace</text><text fill="#000000" font-family="sans-serif" font-size="9.8" lengthAdjust="spacing" textLength="58.8" x="1335.95" y="659.5996">:GreenSpace</text><line style="stroke:#181818;stroke-width:0.6999999999999998;" x1="1065.75" x2="1098.65" y1="687.4629" y2="687.4629"/><line style="stroke:#181818;stroke-width:0.6999999999999998;" x1="1098.65" x2="1098.65" y1="687.4629" y2="696.5629"/><line style="stroke:#181818;stroke-width:0.6999999999999998;" x1="1069.95" x2="1098.65" y1="696.5629" y2="696.5629"/><polygon fill="#181818" points="1076.95,693.7629,1069.95,696.5629,1076.95,699.3629,1074.15,696.5629" style="stroke:#181818;stroke-width:0.6999999999999998;"/><text fill="#000000" font-family="sans-serif" font-size="9.1" font-weight="bold" lengthAdjust="spacing" textLength="9.8" x="1074.15" y="683.779">26</text><text fill="#000000" font-family="sans-serif" font-size="9.1" lengthAdjust="spacing" textLength="121.8" x="1086.75" y="683.779">addGreenSpace (greenSpace)</text><line style="stroke:#181818;stroke-width:0.6999999999999998;" x1="1069.25" x2="1102.15" y1="718.4666" y2="718.4666"/><line style="stroke:#181818;stroke-width:0.6999999999999998;" x1="1102.15" x2="1102.15" y1="718.4666" y2="727.5666"/><line style="stroke:#181818;stroke-width:0.6999999999999998;" x1="1073.45" x2="1102.15" y1="727.5666" y2="727.5666"/><polygon fill="#181818" points="1080.45,724.7666,1073.45,727.5666,1080.45,730.3666,1077.65,727.5666" style="stroke:#181818;stroke-width:0.6999999999999998;"/><text fill="#000000" font-family="sans-serif" font-size="9.1" font-weight="bold" lengthAdjust="spacing" textLength="9.8" x="1077.65" y="714.7827">27</text><text fill="#000000" font-family="sans-serif" font-size="9.1" lengthAdjust="spacing" textLength="137.2" x="1090.25" y="714.7827">validateGreenSpace (greenSpace)</text><line style="stroke:#181818;stroke-width:0.6999999999999998;stroke-dasharray:2.0,2.0;" x1="1072.75" x2="1102.15" y1="756.4703" y2="756.4703"/><line style="stroke:#181818;stroke-width:0.6999999999999998;stroke-dasharray:2.0,2.0;" x1="1102.15" x2="1102.15" y1="756.4703" y2="765.5703"/><line style="stroke:#181818;stroke-width:0.6999999999999998;stroke-dasharray:2.0,2.0;" x1="1069.25" x2="1102.15" y1="765.5703" y2="765.5703"/><polygon fill="#181818" points="1076.25,762.7703,1069.25,765.5703,1076.25,768.3703,1073.45,765.5703" style="stroke:#181818;stroke-width:0.6999999999999998;"/><text fill="#000000" font-family="sans-serif" font-size="9.1" font-weight="bold" lengthAdjust="spacing" textLength="9.8" x="1077.65" y="752.7864">28</text><text fill="#000000" font-family="sans-serif" font-size="9.1" lengthAdjust="spacing" textLength="2.8" x="1090.25" y="752.7864">&#160;</text><line style="stroke:#181818;stroke-width:0.6999999999999998;stroke-dasharray:2.0,2.0;" x1="1069.25" x2="1098.65" y1="787.474" y2="787.474"/><line style="stroke:#181818;stroke-width:0.6999999999999998;stroke-dasharray:2.0,2.0;" x1="1098.65" x2="1098.65" y1="787.474" y2="796.574"/><line style="stroke:#181818;stroke-width:0.6999999999999998;stroke-dasharray:2.0,2.0;" x1="1065.75" x2="1098.65" y1="796.574" y2="796.574"/><polygon fill="#181818" points="1072.75,793.774,1065.75,796.574,1072.75,799.374,1069.95,796.574" style="stroke:#181818;stroke-width:0.6999999999999998;"/><text fill="#000000" font-family="sans-serif" font-size="9.1" font-weight="bold" lengthAdjust="spacing" textLength="9.8" x="1074.15" y="783.7901">29</text><text fill="#000000" font-family="sans-serif" font-size="9.1" lengthAdjust="spacing" textLength="2.8" x="1086.75" y="783.7901">&#160;</text><polygon fill="#181818" points="465.85,812.1777,458.85,814.9777,465.85,817.7777,463.05,814.9777" style="stroke:#181818;stroke-width:0.6999999999999998;"/><line style="stroke:#181818;stroke-width:0.6999999999999998;stroke-dasharray:2.0,2.0;" x1="461.65" x2="1061.55" y1="814.9777" y2="814.9777"/><text fill="#000000" font-family="sans-serif" font-size="9.1" font-weight="bold" lengthAdjust="spacing" textLength="9.8" x="470.05" y="811.2938">30</text><text fill="#000000" font-family="sans-serif" font-size="9.1" lengthAdjust="spacing" textLength="48.3" x="482.65" y="811.2938">greenSpace</text><polygon fill="#181818" points="245.35,834.0814,238.35,836.8814,245.35,839.6814,242.55,836.8814" style="stroke:#181818;stroke-width:0.6999999999999998;"/><line style="stroke:#181818;stroke-width:0.6999999999999998;stroke-dasharray:2.0,2.0;" x1="241.15" x2="453.95" y1="836.8814" y2="836.8814"/><text fill="#000000" font-family="sans-serif" font-size="9.1" font-weight="bold" lengthAdjust="spacing" textLength="9.8" x="249.55" y="833.1976">31</text><text fill="#000000" font-family="sans-serif" font-size="9.1" lengthAdjust="spacing" textLength="48.3" x="262.15" y="833.1976">greenSpace</text><polygon fill="#181818" points="45.15,855.9852,38.15,858.7852,45.15,861.5852,42.35,858.7852" style="stroke:#181818;stroke-width:0.6999999999999998;"/><line style="stroke:#181818;stroke-width:0.6999999999999998;stroke-dasharray:2.0,2.0;" x1="40.95" x2="233.45" y1="858.7852" y2="858.7852"/><text fill="#000000" font-family="sans-serif" font-size="9.1" font-weight="bold" lengthAdjust="spacing" textLength="9.8" x="49.35" y="855.1013">32</text><text fill="#000000" font-family="sans-serif" font-size="9.1" lengthAdjust="spacing" textLength="110.6" x="61.95" y="855.1013">displays operation success</text><!--SRC=[rLR1Rjim3BtxAuHUrXOPTizXG16aHO1rAEBbrejgiubGM_94kLt-VfJis58jfMan39ilYQJ7noUAf8HFGZPSyvhLIgfYfrKDpEWMCXnM6buyyItaPby1qr0OBhUL3y0TBzMBa5lso2k4BEEjKRAj7q1dsQUTA84zAcKUrA-C5qPfTdQZ0IJBYHdmNjvoIVpwZ75aD_bjHgn65ABXqh2p-Hgs0WreP-DCDYi7tQpUH2wKD5fLLK- - -B7-Dh5f50eI9G0TPhsy2o7QGzpBg44UMj3sTo1fp8rGSZ3Op-_bLMB9COLsnpYlUS5BwFcwmS3G3KFh5a4JUaC_EI0IWuFRwH2u7K8NoBw9J3k663x5IC4RURh3NY-Nt_ExgyKoivaXdha1bm4Peu_-iCzVwPZPdC1Fo8oYzEkEc74cuQLppz0IEfE1X7B3JTYF28Z6dltb9L4L6WZHBTibMhEUviJzimKqo4fkk5ikOKBeYpBx1l0BGaKrWGTpA4VxYNNW3tVgXOwigfm1ux8S9HHAFWfTTubmWfGUZqTyXw6O3w4Sp-HSyXfcZ9UbfYIPkVtHaE9rCJ0CjAwMXcdxsPcHVWk615vJG-apxlmYG9z0H9NbU5OIgUUGlWI3BTbWXIPSd0yR7IisW7andL1u6d8d8bMvHqJb4rMv9olL9Ov8pECQGoQdTj5gJLDUmQTqlcew8IXOIshlEqv2zp47_WxwdlP-zRtxYV9ktbFTZdp7nCRu3a9T8xKIhRPLcPBb6ckmP6SyAL1pKQL4JAqxzwTP_oVr5BjIFbnBqMletNKKlVnIVPBD8drovd5W_wn9x2agEO3QBuQoKiURqzrf1utlLNQoltXeoCyO5NO-WYucn7zett4TpxmITF71NnMJK3EnzbBldtENTFMwhB8FkHZQrcOL9OjshU2DL0fiAhv7fXhGtIs4RK4fZB5NaJUqhyZV]--></g></svg>