<?xml version="1.0" encoding="us-ascii" standalone="no"?><svg xmlns="http://www.w3.org/2000/svg" xmlns:xlink="http://www.w3.org/1999/xlink" contentStyleType="text/css" height="468px" preserveAspectRatio="none" style="width:960px;height:468px;background:#FFFFFF;" version="1.1" viewBox="0 0 960 468" width="960px" zoomAndPan="magnify"><defs/><g><rect fill="#FFFFFF" height="303.9883" style="stroke:#181818;stroke-width:1.0;" width="10" x="446" y="90.5332"/><rect fill="#FFFFFF" height="130.873" style="stroke:#181818;stroke-width:1.0;" width="10" x="451" y="218.3574"/><rect fill="#FFFFFF" height="42.291" style="stroke:#181818;stroke-width:1.0;" width="10" x="456" y="262.6484"/><rect fill="none" height="258.6973" style="stroke:#000000;stroke-width:1.5;" width="594.5" x="359.5" y="105.5332"/><line style="stroke:#181818;stroke-width:0.5;stroke-dasharray:5.0,5.0;" x1="450.5" x2="450.5" y1="57.2422" y2="412.5215"/><line style="stroke:#181818;stroke-width:0.5;stroke-dasharray:5.0,5.0;" x1="895" x2="895" y1="165.9453" y2="412.5215"/><rect fill="#E3E3E3" height="51.2422" rx="2.5" ry="2.5" style="stroke:#181818;stroke-width:0.5;" width="163" x="369.5" y="5"/><text fill="#000000" font-family="sans-serif" font-size="14" lengthAdjust="spacing" textLength="149" x="376.5" y="27.1074">greenSpaceRepository:</text><text fill="#000000" font-family="sans-serif" font-size="14" lengthAdjust="spacing" textLength="148" x="377" y="45.7285">GreenSpaceRepository</text><rect fill="#E3E3E3" height="51.2422" rx="2.5" ry="2.5" style="stroke:#181818;stroke-width:0.5;" width="163" x="369.5" y="411.5215"/><text fill="#000000" font-family="sans-serif" font-size="14" lengthAdjust="spacing" textLength="149" x="376.5" y="433.6289">greenSpaceRepository:</text><text fill="#000000" font-family="sans-serif" font-size="14" lengthAdjust="spacing" textLength="148" x="377" y="452.25">GreenSpaceRepository</text><rect fill="#E3E3E3" height="51.2422" rx="2.5" ry="2.5" style="stroke:#181818;stroke-width:0.5;" width="98" x="846" y="411.5215"/><text fill="#000000" font-family="sans-serif" font-size="14" lengthAdjust="spacing" textLength="77" x="856.5" y="433.6289">greenSpace</text><text fill="#000000" font-family="sans-serif" font-size="14" lengthAdjust="spacing" textLength="84" x="853" y="452.25">:GreenSpace</text><rect fill="#FFFFFF" height="303.9883" style="stroke:#181818;stroke-width:1.0;" width="10" x="446" y="90.5332"/><rect fill="#FFFFFF" height="130.873" style="stroke:#181818;stroke-width:1.0;" width="10" x="451" y="218.3574"/><rect fill="#FFFFFF" height="42.291" style="stroke:#181818;stroke-width:1.0;" width="10" x="456" y="262.6484"/><polygon fill="#181818" points="434,86.5332,444,90.5332,434,94.5332,438,90.5332" style="stroke:#181818;stroke-width:1.0;"/><line style="stroke:#181818;stroke-width:1.0;" x1="0" x2="440" y1="90.5332" y2="90.5332"/><text fill="#000000" font-family="sans-serif" font-size="13" font-weight="bold" lengthAdjust="spacing" textLength="14" x="7" y="85.2705">14</text><text fill="#000000" font-family="sans-serif" font-size="13" lengthAdjust="spacing" textLength="409" x="25" y="85.2705">registerGreenSpace(name ,address, type, area, greenSpacesManager)</text><path d="M359.5,105.5332 L543.5,105.5332 L543.5,114.8242 L533.5,124.8242 L359.5,124.8242 L359.5,105.5332 " fill="#EEEEEE" style="stroke:#000000;stroke-width:1.5;"/><rect fill="none" height="258.6973" style="stroke:#000000;stroke-width:1.5;" width="594.5" x="359.5" y="105.5332"/><text fill="#000000" font-family="sans-serif" font-size="13" font-weight="bold" lengthAdjust="spacing" textLength="139" x="374.5" y="120.5615">Register Green Space</text><polygon fill="#181818" points="834,144.1152,844,148.1152,834,152.1152,838,148.1152" style="stroke:#181818;stroke-width:1.0;"/><line style="stroke:#181818;stroke-width:1.0;" x1="456" x2="840" y1="148.1152" y2="148.1152"/><text fill="#000000" font-family="sans-serif" font-size="13" font-weight="bold" lengthAdjust="spacing" textLength="25" x="463" y="142.8525">14.1</text><text fill="#000000" font-family="sans-serif" font-size="13" lengthAdjust="spacing" textLength="337" x="492" y="142.8525">register(name ,address, type, area, greenSpacesManager)</text><rect fill="#E3E3E3" height="51.2422" rx="2.5" ry="2.5" style="stroke:#181818;stroke-width:0.5;" width="98" x="846" y="124.8242"/><text fill="#000000" font-family="sans-serif" font-size="14" lengthAdjust="spacing" textLength="77" x="856.5" y="146.9316">greenSpace</text><text fill="#000000" font-family="sans-serif" font-size="14" lengthAdjust="spacing" textLength="84" x="853" y="165.5527">:GreenSpace</text><line style="stroke:#181818;stroke-width:1.0;" x1="456" x2="503" y1="205.3574" y2="205.3574"/><line style="stroke:#181818;stroke-width:1.0;" x1="503" x2="503" y1="205.3574" y2="218.3574"/><line style="stroke:#181818;stroke-width:1.0;" x1="462" x2="503" y1="218.3574" y2="218.3574"/><polygon fill="#181818" points="472,214.3574,462,218.3574,472,222.3574,468,218.3574" style="stroke:#181818;stroke-width:1.0;"/><text fill="#000000" font-family="sans-serif" font-size="13" font-weight="bold" lengthAdjust="spacing" textLength="25" x="468" y="200.0947">14.2</text><text fill="#000000" font-family="sans-serif" font-size="13" lengthAdjust="spacing" textLength="174" x="497" y="200.0947">addGreenSpace (greenSpace)</text><line style="stroke:#181818;stroke-width:1.0;" x1="461" x2="508" y1="249.6484" y2="249.6484"/><line style="stroke:#181818;stroke-width:1.0;" x1="508" x2="508" y1="249.6484" y2="262.6484"/><line style="stroke:#181818;stroke-width:1.0;" x1="467" x2="508" y1="262.6484" y2="262.6484"/><polygon fill="#181818" points="477,258.6484,467,262.6484,477,266.6484,473,262.6484" style="stroke:#181818;stroke-width:1.0;"/><text fill="#000000" font-family="sans-serif" font-size="13" font-weight="bold" lengthAdjust="spacing" textLength="25" x="473" y="244.3857">14.3</text><text fill="#000000" font-family="sans-serif" font-size="13" lengthAdjust="spacing" textLength="196" x="502" y="244.3857">validateGreenSpace (greenSpace)</text><line style="stroke:#181818;stroke-width:1.0;stroke-dasharray:2.0,2.0;" x1="466" x2="508" y1="303.9395" y2="303.9395"/><line style="stroke:#181818;stroke-width:1.0;stroke-dasharray:2.0,2.0;" x1="508" x2="508" y1="303.9395" y2="316.9395"/><line style="stroke:#181818;stroke-width:1.0;stroke-dasharray:2.0,2.0;" x1="461" x2="508" y1="316.9395" y2="316.9395"/><polygon fill="#181818" points="471,312.9395,461,316.9395,471,320.9395,467,316.9395" style="stroke:#181818;stroke-width:1.0;"/><text fill="#000000" font-family="sans-serif" font-size="13" font-weight="bold" lengthAdjust="spacing" textLength="25" x="473" y="298.6768">14.4</text><text fill="#000000" font-family="sans-serif" font-size="13" lengthAdjust="spacing" textLength="4" x="502" y="298.6768">&#160;</text><line style="stroke:#181818;stroke-width:1.0;stroke-dasharray:2.0,2.0;" x1="461" x2="503" y1="348.2305" y2="348.2305"/><line style="stroke:#181818;stroke-width:1.0;stroke-dasharray:2.0,2.0;" x1="503" x2="503" y1="348.2305" y2="361.2305"/><line style="stroke:#181818;stroke-width:1.0;stroke-dasharray:2.0,2.0;" x1="456" x2="503" y1="361.2305" y2="361.2305"/><polygon fill="#181818" points="466,357.2305,456,361.2305,466,365.2305,462,361.2305" style="stroke:#181818;stroke-width:1.0;"/><text fill="#000000" font-family="sans-serif" font-size="13" font-weight="bold" lengthAdjust="spacing" textLength="25" x="468" y="342.9678">14.5</text><text fill="#000000" font-family="sans-serif" font-size="13" lengthAdjust="spacing" textLength="4" x="497" y="342.9678">&#160;</text><polygon fill="#181818" points="11,390.5215,1,394.5215,11,398.5215,7,394.5215" style="stroke:#181818;stroke-width:1.0;"/><line style="stroke:#181818;stroke-width:1.0;stroke-dasharray:2.0,2.0;" x1="5" x2="450" y1="394.5215" y2="394.5215"/><text fill="#000000" font-family="sans-serif" font-size="13" font-weight="bold" lengthAdjust="spacing" textLength="14" x="17" y="389.2588">15</text><text fill="#000000" font-family="sans-serif" font-size="13" lengthAdjust="spacing" textLength="71" x="35" y="389.2588">green space</text><!--SRC=[rLFDIyCm5B_dhtZiuZPQOQ2N8e98sKcHzhhBM_FMXhL9IT9f_tj3KDj9MX5sq7S9l8_VnqjYZaAsgB61HabLL5er15PtnCnNfSNYY2Nbjgy9D1KMPLcF6qo5NBqAMS81QqECOMULx9ezQSQkAi493ahPlNfZp4rOKOWMfOL5gObaxl0ferOPOPNkavtS1j8BG0EX_Yd4dKm673-zpTBqENzvU4p72c5pmnZ4zq5mI9pXKXXBUW1RIdHBYf1pJSP4OFkM8a1D68r0p1DAjpMzEkUwtZ0ih3YXfR0TS55grRMGVJ23fmRVo7pzCuAIdPN1wNezil1RuMTStsEAEtYdu3Y71S9oQ5hDaiolweBwJbWBxeZ-XCW9bRD8dFwF39BSd-EFSUipTt4S5kDUiS-3yR_W9vft]--></g></svg>