<?xml version="1.0" encoding="us-ascii" standalone="no"?><svg xmlns="http://www.w3.org/2000/svg" xmlns:xlink="http://www.w3.org/1999/xlink" contentStyleType="text/css" height="576px" preserveAspectRatio="none" style="width:549px;height:576px;background:#FFFFFF;" version="1.1" viewBox="0 0 549 576" width="549.6px" zoomAndPan="magnify"><defs/><g><!--class RegisterGreenSpaceUI--><g id="elem_RegisterGreenSpaceUI"><rect codeLine="9" fill="#F1F1F1" height="28.8" id="RegisterGreenSpaceUI" rx="1.5" ry="1.5" style="stroke:#181818;stroke-width:0.3;" width="106.2" x="281.4" y="4.2"/><ellipse cx="290.4" cy="13.8" fill="#ADD1B2" rx="6.6" ry="6.6" style="stroke:#181818;stroke-width:0.6;"/><path d="M292.0594,11.325 Q292.1531,11.1938 292.2656,11.1281 Q292.3781,11.0625 292.5094,11.0625 Q292.7344,11.0625 292.875,11.2219 Q293.0156,11.3719 293.0156,11.7375 L293.0156,12.6094 Q293.0156,12.975 292.875,13.1344 Q292.7344,13.2938 292.5094,13.2938 Q292.3031,13.2938 292.1813,13.1719 Q292.0594,13.0594 291.9938,12.75 Q291.9656,12.5344 291.8531,12.4219 Q291.6563,12.1969 291.2906,12.0656 Q290.925,11.9344 290.55,11.9344 Q290.0906,11.9344 289.7063,12.1313 Q289.3313,12.3281 289.0313,12.7781 Q288.7406,13.2281 288.7406,13.8469 L288.7406,14.5031 Q288.7406,15.2437 289.275,15.7406 Q289.8094,16.2281 290.7656,16.2281 Q291.3281,16.2281 291.7219,16.0781 Q291.9563,15.9844 292.2094,15.7219 Q292.3688,15.5625 292.4531,15.5156 Q292.5469,15.4688 292.6688,15.4688 Q292.8656,15.4688 293.0156,15.6281 Q293.175,15.7781 293.175,15.9844 Q293.175,16.1906 292.9688,16.4344 Q292.6688,16.7813 292.1906,16.9781 Q291.5438,17.25 290.7656,17.25 Q289.8563,17.25 289.1344,16.875 Q288.5438,16.575 288.1312,15.9375 Q287.7188,15.2906 287.7188,14.5219 L287.7188,13.8281 Q287.7188,13.0313 288.0844,12.3469 Q288.4594,11.6531 289.1156,11.2875 Q289.7719,10.9125 290.5125,10.9125 Q290.9531,10.9125 291.3375,11.0156 Q291.7313,11.1094 292.0594,11.325 Z " fill="#000000"/><text fill="#000000" font-family="sans-serif" font-size="8.4" lengthAdjust="spacing" textLength="87" x="298.8" y="17.2781">RegisterGreenSpaceUI</text><line style="stroke:#181818;stroke-width:0.3;" x1="282" x2="387" y1="23.4" y2="23.4"/><line style="stroke:#181818;stroke-width:0.3;" x1="282" x2="387" y1="28.2" y2="28.2"/></g><!--class RegisterGreenSpaceController--><g id="elem_RegisterGreenSpaceController"><rect codeLine="12" fill="#F1F1F1" height="62.318" id="RegisterGreenSpaceController" rx="1.5" ry="1.5" style="stroke:#181818;stroke-width:0.3;" width="321" x="174" y="69.6"/><ellipse cx="273.45" cy="79.2" fill="#ADD1B2" rx="6.6" ry="6.6" style="stroke:#181818;stroke-width:0.6;"/><path d="M275.1094,76.725 Q275.2031,76.5938 275.3156,76.5281 Q275.4281,76.4625 275.5594,76.4625 Q275.7844,76.4625 275.925,76.6219 Q276.0656,76.7719 276.0656,77.1375 L276.0656,78.0094 Q276.0656,78.375 275.925,78.5344 Q275.7844,78.6938 275.5594,78.6938 Q275.3531,78.6938 275.2313,78.5719 Q275.1094,78.4594 275.0438,78.15 Q275.0156,77.9344 274.9031,77.8219 Q274.7063,77.5969 274.3406,77.4656 Q273.975,77.3344 273.6,77.3344 Q273.1406,77.3344 272.7562,77.5313 Q272.3812,77.7281 272.0813,78.1781 Q271.7906,78.6281 271.7906,79.2469 L271.7906,79.9031 Q271.7906,80.6438 272.325,81.1406 Q272.8594,81.6281 273.8156,81.6281 Q274.3781,81.6281 274.7719,81.4781 Q275.0062,81.3844 275.2594,81.1219 Q275.4188,80.9625 275.5031,80.9156 Q275.5969,80.8687 275.7188,80.8687 Q275.9156,80.8687 276.0656,81.0281 Q276.225,81.1781 276.225,81.3844 Q276.225,81.5906 276.0188,81.8344 Q275.7188,82.1812 275.2406,82.3781 Q274.5938,82.65 273.8156,82.65 Q272.9063,82.65 272.1844,82.275 Q271.5938,81.975 271.1813,81.3375 Q270.7688,80.6906 270.7688,79.9219 L270.7688,79.2281 Q270.7688,78.4312 271.1344,77.7469 Q271.5094,77.0531 272.1656,76.6875 Q272.8219,76.3125 273.5625,76.3125 Q274.0031,76.3125 274.3875,76.4156 Q274.7813,76.5094 275.1094,76.725 Z " fill="#000000"/><text fill="#000000" font-family="sans-serif" font-size="8.4" lengthAdjust="spacing" textLength="117" x="285.75" y="82.6781">RegisterGreenSpaceController</text><line style="stroke:#181818;stroke-width:0.3;" x1="174.6" x2="494.4" y1="88.8" y2="88.8"/><line style="stroke:#181818;stroke-width:0.3;" x1="174.6" x2="494.4" y1="93.6" y2="93.6"/><text fill="#000000" font-family="sans-serif" font-size="8.4" lengthAdjust="spacing" textLength="313.8" x="177.6" y="105.0645">+RegisterGreenSpaceController(greenSpaceRepository, authenticationRepository)</text><text fill="#000000" font-family="sans-serif" font-size="8.4" lengthAdjust="spacing" textLength="187.2" x="177.6" y="116.2371">+registerGreenSpace(name, address, type, area)</text><text fill="#000000" font-family="sans-serif" font-size="8.4" lengthAdjust="spacing" textLength="89.4" x="177.6" y="127.4098">-getGSMFromSession()</text></g><!--class GreenSpaceRepository--><g id="elem_GreenSpaceRepository"><rect codeLine="18" fill="#F1F1F1" height="62.318" id="GreenSpaceRepository" rx="1.5" ry="1.5" style="stroke:#181818;stroke-width:0.3;" width="283.2" x="53.1" y="267"/><ellipse cx="147.75" cy="276.6" fill="#ADD1B2" rx="6.6" ry="6.6" style="stroke:#181818;stroke-width:0.6;"/><path d="M149.4094,274.125 Q149.5031,273.9938 149.6156,273.9281 Q149.7281,273.8625 149.8594,273.8625 Q150.0844,273.8625 150.225,274.0219 Q150.3656,274.1719 150.3656,274.5375 L150.3656,275.4094 Q150.3656,275.775 150.225,275.9344 Q150.0844,276.0938 149.8594,276.0938 Q149.6531,276.0938 149.5313,275.9719 Q149.4094,275.8594 149.3438,275.55 Q149.3156,275.3344 149.2031,275.2219 Q149.0063,274.9969 148.6406,274.8656 Q148.275,274.7344 147.9,274.7344 Q147.4406,274.7344 147.0563,274.9313 Q146.6813,275.1281 146.3813,275.5781 Q146.0906,276.0281 146.0906,276.6469 L146.0906,277.3031 Q146.0906,278.0438 146.625,278.5406 Q147.1594,279.0281 148.1156,279.0281 Q148.6781,279.0281 149.0719,278.8781 Q149.3063,278.7844 149.5594,278.5219 Q149.7188,278.3625 149.8031,278.3156 Q149.8969,278.2688 150.0187,278.2688 Q150.2156,278.2688 150.3656,278.4281 Q150.525,278.5781 150.525,278.7844 Q150.525,278.9906 150.3188,279.2344 Q150.0187,279.5813 149.5406,279.7781 Q148.8937,280.05 148.1156,280.05 Q147.2062,280.05 146.4844,279.675 Q145.8937,279.375 145.4813,278.7375 Q145.0688,278.0906 145.0688,277.3219 L145.0688,276.6281 Q145.0688,275.8313 145.4344,275.1469 Q145.8094,274.4531 146.4656,274.0875 Q147.1219,273.7125 147.8625,273.7125 Q148.3031,273.7125 148.6875,273.8156 Q149.0812,273.9094 149.4094,274.125 Z " fill="#000000"/><text fill="#000000" font-family="sans-serif" font-size="8.4" lengthAdjust="spacing" textLength="88.8" x="160.05" y="280.0781">GreenSpaceRepository</text><line style="stroke:#181818;stroke-width:0.3;" x1="53.7" x2="335.7" y1="286.2" y2="286.2"/><line style="stroke:#181818;stroke-width:0.3;" x1="53.7" x2="335.7" y1="291" y2="291"/><text fill="#000000" font-family="sans-serif" font-size="8.4" lengthAdjust="spacing" textLength="276" x="56.7" y="302.4645">+registerGreenSpace(name ,address, type, area, greenSpacesManager)</text><text fill="#000000" font-family="sans-serif" font-size="8.4" lengthAdjust="spacing" textLength="117.6" x="56.7" y="313.6371">-addGreenSpace(greenSpace)</text><text fill="#000000" font-family="sans-serif" font-size="8.4" lengthAdjust="spacing" textLength="132.6" x="56.7" y="324.8098">-validateGreenSpace(greenSpace)</text></g><!--class GreenSpace--><g id="elem_GreenSpace"><rect codeLine="24" fill="#F1F1F1" height="95.8359" id="GreenSpace" rx="1.5" ry="1.5" style="stroke:#181818;stroke-width:0.3;" width="254.4" x="67.5" y="366"/><ellipse cx="168.15" cy="375.6" fill="#ADD1B2" rx="6.6" ry="6.6" style="stroke:#181818;stroke-width:0.6;"/><path d="M169.8094,373.125 Q169.9031,372.9938 170.0156,372.9281 Q170.1281,372.8625 170.2594,372.8625 Q170.4844,372.8625 170.625,373.0219 Q170.7656,373.1719 170.7656,373.5375 L170.7656,374.4094 Q170.7656,374.775 170.625,374.9344 Q170.4844,375.0938 170.2594,375.0938 Q170.0531,375.0938 169.9313,374.9719 Q169.8094,374.8594 169.7438,374.55 Q169.7156,374.3344 169.6031,374.2219 Q169.4063,373.9969 169.0406,373.8656 Q168.675,373.7344 168.3,373.7344 Q167.8406,373.7344 167.4562,373.9313 Q167.0812,374.1281 166.7813,374.5781 Q166.4906,375.0281 166.4906,375.6469 L166.4906,376.3031 Q166.4906,377.0438 167.025,377.5406 Q167.5594,378.0281 168.5156,378.0281 Q169.0781,378.0281 169.4719,377.8781 Q169.7062,377.7844 169.9594,377.5219 Q170.1188,377.3625 170.2031,377.3156 Q170.2969,377.2688 170.4188,377.2688 Q170.6156,377.2688 170.7656,377.4281 Q170.925,377.5781 170.925,377.7844 Q170.925,377.9906 170.7188,378.2344 Q170.4188,378.5813 169.9406,378.7781 Q169.2938,379.05 168.5156,379.05 Q167.6063,379.05 166.8844,378.675 Q166.2938,378.375 165.8813,377.7375 Q165.4688,377.0906 165.4688,376.3219 L165.4688,375.6281 Q165.4688,374.8313 165.8344,374.1469 Q166.2094,373.4531 166.8656,373.0875 Q167.5219,372.7125 168.2625,372.7125 Q168.7031,372.7125 169.0875,372.8156 Q169.4813,372.9094 169.8094,373.125 Z " fill="#000000"/><text fill="#000000" font-family="sans-serif" font-size="8.4" lengthAdjust="spacing" textLength="48" x="180.45" y="379.0781">GreenSpace</text><line style="stroke:#181818;stroke-width:0.3;" x1="68.1" x2="321.3" y1="385.2" y2="385.2"/><text fill="#000000" font-family="sans-serif" font-size="8.4" lengthAdjust="spacing" textLength="48.6" x="71.1" y="396.6645">-String name</text><text fill="#000000" font-family="sans-serif" font-size="8.4" lengthAdjust="spacing" textLength="67.2" x="71.1" y="407.8371">-Address address</text><text fill="#000000" font-family="sans-serif" font-size="8.4" lengthAdjust="spacing" textLength="88.8" x="71.1" y="419.0098">-GreenSpaceType type</text><text fill="#000000" font-family="sans-serif" font-size="8.4" lengthAdjust="spacing" textLength="48.6" x="71.1" y="430.1824">-double area</text><text fill="#000000" font-family="sans-serif" font-size="8.4" lengthAdjust="spacing" textLength="175.2" x="71.1" y="441.3551">-GreenSpacesManager greenSpacesManager</text><line style="stroke:#181818;stroke-width:0.3;" x1="68.1" x2="321.3" y1="445.8633" y2="445.8633"/><text fill="#000000" font-family="sans-serif" font-size="8.4" lengthAdjust="spacing" textLength="247.2" x="71.1" y="457.3277">+GreenSpace(name, address, type, area, greenSpacesManager)</text></g><!--class GreenSpaceManager--><g id="elem_GreenSpaceManager"><rect codeLine="33" fill="#F1F1F1" height="51.1453" id="GreenSpaceManager" rx="1.5" ry="1.5" style="stroke:#181818;stroke-width:0.3;" width="119.4" x="4.2" y="509.7"/><ellipse cx="21.57" cy="519.3" fill="#ADD1B2" rx="6.6" ry="6.6" style="stroke:#181818;stroke-width:0.6;"/><path d="M23.2294,516.825 Q23.3231,516.6938 23.4356,516.6281 Q23.5481,516.5625 23.6794,516.5625 Q23.9044,516.5625 24.045,516.7219 Q24.1856,516.8719 24.1856,517.2375 L24.1856,518.1094 Q24.1856,518.475 24.045,518.6344 Q23.9044,518.7937 23.6794,518.7937 Q23.4731,518.7937 23.3513,518.6719 Q23.2294,518.5594 23.1638,518.25 Q23.1356,518.0344 23.0231,517.9219 Q22.8263,517.6969 22.4606,517.5656 Q22.095,517.4344 21.72,517.4344 Q21.2606,517.4344 20.8763,517.6313 Q20.5013,517.8281 20.2013,518.2781 Q19.9106,518.7281 19.9106,519.3469 L19.9106,520.0031 Q19.9106,520.7438 20.445,521.2406 Q20.9794,521.7281 21.9356,521.7281 Q22.4981,521.7281 22.8919,521.5781 Q23.1263,521.4844 23.3794,521.2219 Q23.5388,521.0625 23.6231,521.0156 Q23.7169,520.9688 23.8388,520.9688 Q24.0356,520.9688 24.1856,521.1281 Q24.345,521.2781 24.345,521.4844 Q24.345,521.6906 24.1388,521.9344 Q23.8388,522.2813 23.3606,522.4781 Q22.7138,522.75 21.9356,522.75 Q21.0263,522.75 20.3044,522.375 Q19.7138,522.075 19.3013,521.4375 Q18.8888,520.7906 18.8888,520.0219 L18.8888,519.3281 Q18.8888,518.5313 19.2544,517.8469 Q19.6294,517.1531 20.2856,516.7875 Q20.9419,516.4125 21.6825,516.4125 Q22.1231,516.4125 22.5075,516.5156 Q22.9013,516.6094 23.2294,516.825 Z " fill="#000000"/><text fill="#000000" font-family="sans-serif" font-size="8.4" lengthAdjust="spacing" textLength="81.6" x="31.83" y="522.7781">GreenSpaceManager</text><line style="stroke:#181818;stroke-width:0.3;" x1="4.8" x2="123" y1="528.9" y2="528.9"/><text fill="#000000" font-family="sans-serif" font-size="8.4" lengthAdjust="spacing" textLength="47.4" x="7.8" y="540.3645">-String email</text><line style="stroke:#181818;stroke-width:0.3;" x1="4.8" x2="123" y1="544.8727" y2="544.8727"/><text fill="#000000" font-family="sans-serif" font-size="8.4" lengthAdjust="spacing" textLength="112.2" x="7.8" y="556.3371">+GreenSpaceManager(email)</text></g><!--class Address--><g id="elem_Address"><rect codeLine="38" fill="#F1F1F1" height="73.4906" id="Address" rx="1.5" ry="1.5" style="stroke:#181818;stroke-width:0.3;" width="100.2" x="144.6" y="498.6"/><ellipse cx="176.55" cy="508.2" fill="#ADD1B2" rx="6.6" ry="6.6" style="stroke:#181818;stroke-width:0.6;"/><path d="M178.2094,505.725 Q178.3031,505.5938 178.4156,505.5281 Q178.5281,505.4625 178.6594,505.4625 Q178.8844,505.4625 179.025,505.6219 Q179.1656,505.7719 179.1656,506.1375 L179.1656,507.0094 Q179.1656,507.375 179.025,507.5344 Q178.8844,507.6937 178.6594,507.6937 Q178.4531,507.6937 178.3312,507.5719 Q178.2094,507.4594 178.1437,507.15 Q178.1156,506.9344 178.0031,506.8219 Q177.8063,506.5969 177.4406,506.4656 Q177.075,506.3344 176.7,506.3344 Q176.2406,506.3344 175.8563,506.5313 Q175.4813,506.7281 175.1813,507.1781 Q174.8906,507.6281 174.8906,508.2469 L174.8906,508.9031 Q174.8906,509.6437 175.425,510.1406 Q175.9594,510.6281 176.9156,510.6281 Q177.4781,510.6281 177.8719,510.4781 Q178.1063,510.3844 178.3594,510.1219 Q178.5187,509.9625 178.6031,509.9156 Q178.6969,509.8688 178.8188,509.8688 Q179.0156,509.8688 179.1656,510.0281 Q179.325,510.1781 179.325,510.3844 Q179.325,510.5906 179.1188,510.8344 Q178.8188,511.1813 178.3406,511.3781 Q177.6938,511.65 176.9156,511.65 Q176.0063,511.65 175.2844,511.275 Q174.6938,510.975 174.2813,510.3375 Q173.8688,509.6906 173.8688,508.9219 L173.8688,508.2281 Q173.8688,507.4313 174.2344,506.7469 Q174.6094,506.0531 175.2656,505.6875 Q175.9219,505.3125 176.6625,505.3125 Q177.1031,505.3125 177.4875,505.4156 Q177.8813,505.5094 178.2094,505.725 Z " fill="#000000"/><text fill="#000000" font-family="sans-serif" font-size="8.4" lengthAdjust="spacing" textLength="31.2" x="188.85" y="511.6781">Address</text><line style="stroke:#181818;stroke-width:0.3;" x1="145.2" x2="244.2" y1="517.8" y2="517.8"/><text fill="#000000" font-family="sans-serif" font-size="8.4" lengthAdjust="spacing" textLength="49.2" x="148.2" y="529.2645">-String street</text><text fill="#000000" font-family="sans-serif" font-size="8.4" lengthAdjust="spacing" textLength="56.4" x="148.2" y="540.4371">-String zipcode</text><text fill="#000000" font-family="sans-serif" font-size="8.4" lengthAdjust="spacing" textLength="40.2" x="148.2" y="551.6098">-String city</text><line style="stroke:#181818;stroke-width:0.3;" x1="145.2" x2="244.2" y1="556.118" y2="556.118"/><text fill="#000000" font-family="sans-serif" font-size="8.4" lengthAdjust="spacing" textLength="93" x="148.2" y="567.5824">+Address(addressArray)</text></g><!--class GreenSpaceType--><g id="elem_GreenSpaceType"><rect codeLine="45" fill="#F1F1F1" height="62.318" id="GreenSpaceType" rx="1.5" ry="1.5" style="stroke:#181818;stroke-width:0.3;" width="94.2" x="265.8" y="504"/><ellipse cx="278.31" cy="513.6" fill="#EB937F" rx="6.6" ry="6.6" style="stroke:#181818;stroke-width:0.6;"/><path d="M277.6256,514.0781 L277.6256,515.5781 L280.2225,515.5781 L280.2225,515.025 Q280.2225,514.6594 280.3631,514.5 Q280.5131,514.3406 280.7381,514.3406 Q280.9631,514.3406 281.1038,514.5 Q281.2444,514.6594 281.2444,515.025 L281.2444,516.6 L276.4444,516.6 Q276.0694,516.6 275.91,516.4594 Q275.76,516.3188 275.76,516.0844 Q275.76,515.8594 275.9194,515.7188 Q276.0788,515.5781 276.4444,515.5781 L276.6038,515.5781 L276.6038,511.5844 L276.4444,511.5844 Q276.0694,511.5844 275.91,511.4437 Q275.76,511.3031 275.76,511.0687 Q275.76,510.8438 275.91,510.7031 Q276.0694,510.5625 276.4444,510.5625 L281.0194,510.5625 L281.0194,512.1188 Q281.0194,512.4844 280.8788,512.6438 Q280.7475,512.7937 280.5131,512.7937 Q280.2881,512.7937 280.1475,512.6438 Q280.0069,512.4844 280.0069,512.1188 L280.0069,511.5844 L277.6256,511.5844 L277.6256,513.0563 L278.5163,513.0563 Q278.5163,512.6625 278.5913,512.55 Q278.7506,512.3063 279.0319,512.3063 Q279.2569,512.3063 279.3975,512.4656 Q279.5381,512.6156 279.5381,512.9812 L279.5381,514.1625 Q279.5381,514.4906 279.4631,514.6031 Q279.3038,514.8375 279.0319,514.8375 Q278.7506,514.8375 278.5913,514.5938 Q278.5163,514.4812 278.5163,514.0781 L277.6256,514.0781 Z " fill="#000000"/><text fill="#000000" font-family="sans-serif" font-size="8.4" lengthAdjust="spacing" textLength="67.2" x="287.49" y="517.0781">GreenSpaceType</text><line style="stroke:#181818;stroke-width:0.3;" x1="266.4" x2="359.4" y1="523.2" y2="523.2"/><text fill="#000000" font-family="sans-serif" font-size="8.4" lengthAdjust="spacing" textLength="34.8" x="269.4" y="534.6645">GARDEN</text><text fill="#000000" font-family="sans-serif" font-size="8.4" lengthAdjust="spacing" textLength="87" x="269.4" y="545.8371">MEDIUM_SIZED_PARK</text><text fill="#000000" font-family="sans-serif" font-size="8.4" lengthAdjust="spacing" textLength="83.4" x="269.4" y="557.0098">LARGE_SIZED_PARK</text><line style="stroke:#181818;stroke-width:0.3;" x1="266.4" x2="359.4" y1="561.518" y2="561.518"/></g><!--class Repositories--><g id="elem_Repositories"><rect codeLine="51" fill="#F1F1F1" height="51.1453" id="Repositories" rx="1.5" ry="1.5" style="stroke:#181818;stroke-width:0.3;" width="127.2" x="270.9" y="179.4"/><ellipse cx="308.25" cy="189" fill="#ADD1B2" rx="6.6" ry="6.6" style="stroke:#181818;stroke-width:0.6;"/><path d="M309.9094,186.525 Q310.0031,186.3937 310.1156,186.3281 Q310.2281,186.2625 310.3594,186.2625 Q310.5844,186.2625 310.725,186.4219 Q310.8656,186.5719 310.8656,186.9375 L310.8656,187.8094 Q310.8656,188.175 310.725,188.3344 Q310.5844,188.4938 310.3594,188.4938 Q310.1531,188.4938 310.0313,188.3719 Q309.9094,188.2594 309.8438,187.95 Q309.8156,187.7344 309.7031,187.6219 Q309.5062,187.3969 309.1406,187.2656 Q308.775,187.1344 308.4,187.1344 Q307.9406,187.1344 307.5563,187.3312 Q307.1813,187.5281 306.8812,187.9781 Q306.5906,188.4281 306.5906,189.0469 L306.5906,189.7031 Q306.5906,190.4438 307.125,190.9406 Q307.6594,191.4281 308.6156,191.4281 Q309.1781,191.4281 309.5719,191.2781 Q309.8063,191.1844 310.0594,190.9219 Q310.2188,190.7625 310.3031,190.7156 Q310.3969,190.6688 310.5188,190.6688 Q310.7156,190.6688 310.8656,190.8281 Q311.025,190.9781 311.025,191.1844 Q311.025,191.3906 310.8187,191.6344 Q310.5188,191.9813 310.0406,192.1781 Q309.3938,192.45 308.6156,192.45 Q307.7063,192.45 306.9844,192.075 Q306.3938,191.775 305.9813,191.1375 Q305.5687,190.4906 305.5687,189.7219 L305.5687,189.0281 Q305.5687,188.2313 305.9344,187.5469 Q306.3094,186.8531 306.9656,186.4875 Q307.6219,186.1125 308.3625,186.1125 Q308.8031,186.1125 309.1875,186.2156 Q309.5813,186.3094 309.9094,186.525 Z " fill="#000000"/><text fill="#000000" font-family="sans-serif" font-size="8.4" lengthAdjust="spacing" textLength="47.4" x="320.55" y="192.4781">Repositories</text><line style="stroke:#181818;stroke-width:0.3;" x1="271.5" x2="397.5" y1="198.6" y2="198.6"/><line style="stroke:#181818;stroke-width:0.3;" x1="271.5" x2="397.5" y1="203.4" y2="203.4"/><text fill="#000000" font-family="sans-serif" font-size="8.4" lengthAdjust="spacing" textLength="114" x="274.5" y="214.8645">+getGreenSpaceRepository();</text><text fill="#000000" font-family="sans-serif" font-size="8.4" lengthAdjust="spacing" textLength="120" x="274.5" y="226.0371">+getAuthenticationRepository();</text></g><!--class AuthenticationRepository--><g id="elem_AuthenticationRepository"><rect codeLine="56" fill="#F1F1F1" height="39.9727" id="AuthenticationRepository" rx="1.5" ry="1.5" style="stroke:#181818;stroke-width:0.3;" width="114" x="405.9" y="278.1"/><ellipse cx="414.9" cy="287.7" fill="#ADD1B2" rx="6.6" ry="6.6" style="stroke:#181818;stroke-width:0.6;"/><path d="M416.5594,285.225 Q416.6531,285.0938 416.7656,285.0281 Q416.8781,284.9625 417.0094,284.9625 Q417.2344,284.9625 417.375,285.1219 Q417.5156,285.2719 417.5156,285.6375 L417.5156,286.5094 Q417.5156,286.875 417.375,287.0344 Q417.2344,287.1937 417.0094,287.1937 Q416.8031,287.1937 416.6813,287.0719 Q416.5594,286.9594 416.4938,286.65 Q416.4656,286.4344 416.3531,286.3219 Q416.1563,286.0969 415.7906,285.9656 Q415.425,285.8344 415.05,285.8344 Q414.5906,285.8344 414.2063,286.0313 Q413.8313,286.2281 413.5313,286.6781 Q413.2406,287.1281 413.2406,287.7469 L413.2406,288.4031 Q413.2406,289.1438 413.775,289.6406 Q414.3094,290.1281 415.2656,290.1281 Q415.8281,290.1281 416.2219,289.9781 Q416.4563,289.8844 416.7094,289.6219 Q416.8688,289.4625 416.9531,289.4156 Q417.0469,289.3688 417.1688,289.3688 Q417.3656,289.3688 417.5156,289.5281 Q417.675,289.6781 417.675,289.8844 Q417.675,290.0906 417.4688,290.3344 Q417.1688,290.6813 416.6906,290.8781 Q416.0438,291.15 415.2656,291.15 Q414.3563,291.15 413.6344,290.775 Q413.0438,290.475 412.6312,289.8375 Q412.2188,289.1906 412.2188,288.4219 L412.2188,287.7281 Q412.2188,286.9313 412.5844,286.2469 Q412.9594,285.5531 413.6156,285.1875 Q414.2719,284.8125 415.0125,284.8125 Q415.4531,284.8125 415.8375,284.9156 Q416.2313,285.0094 416.5594,285.225 Z " fill="#000000"/><text fill="#000000" font-family="sans-serif" font-size="8.4" lengthAdjust="spacing" textLength="94.8" x="423.3" y="291.1781">AuthenticationRepository</text><line style="stroke:#181818;stroke-width:0.3;" x1="406.5" x2="519.3" y1="297.3" y2="297.3"/><line style="stroke:#181818;stroke-width:0.3;" x1="406.5" x2="519.3" y1="302.1" y2="302.1"/><text fill="#000000" font-family="sans-serif" font-size="8.4" lengthAdjust="spacing" textLength="99" x="409.5" y="313.5645">+getCurrentUserSession()</text></g><!--class UserSession--><g id="elem_UserSession"><rect codeLine="60" fill="#F1F1F1" height="39.9727" id="UserSession" rx="1.5" ry="1.5" style="stroke:#181818;stroke-width:0.3;" width="66.6" x="429.6" y="393.9"/><ellipse cx="438.6" cy="403.5" fill="#ADD1B2" rx="6.6" ry="6.6" style="stroke:#181818;stroke-width:0.6;"/><path d="M440.2594,401.025 Q440.3531,400.8938 440.4656,400.8281 Q440.5781,400.7625 440.7094,400.7625 Q440.9344,400.7625 441.075,400.9219 Q441.2156,401.0719 441.2156,401.4375 L441.2156,402.3094 Q441.2156,402.675 441.075,402.8344 Q440.9344,402.9938 440.7094,402.9938 Q440.5031,402.9938 440.3812,402.8719 Q440.2594,402.7594 440.1937,402.45 Q440.1656,402.2344 440.0531,402.1219 Q439.8563,401.8969 439.4906,401.7656 Q439.125,401.6344 438.75,401.6344 Q438.2906,401.6344 437.9063,401.8313 Q437.5313,402.0281 437.2313,402.4781 Q436.9406,402.9281 436.9406,403.5469 L436.9406,404.2031 Q436.9406,404.9437 437.475,405.4406 Q438.0094,405.9281 438.9656,405.9281 Q439.5281,405.9281 439.9219,405.7781 Q440.1563,405.6844 440.4094,405.4219 Q440.5687,405.2625 440.6531,405.2156 Q440.7469,405.1688 440.8688,405.1688 Q441.0656,405.1688 441.2156,405.3281 Q441.375,405.4781 441.375,405.6844 Q441.375,405.8906 441.1688,406.1344 Q440.8688,406.4813 440.3906,406.6781 Q439.7438,406.95 438.9656,406.95 Q438.0563,406.95 437.3344,406.575 Q436.7438,406.275 436.3313,405.6375 Q435.9188,404.9906 435.9188,404.2219 L435.9188,403.5281 Q435.9188,402.7313 436.2844,402.0469 Q436.6594,401.3531 437.3156,400.9875 Q437.9719,400.6125 438.7125,400.6125 Q439.1531,400.6125 439.5375,400.7156 Q439.9313,400.8094 440.2594,401.025 Z " fill="#000000"/><text fill="#000000" font-family="sans-serif" font-size="8.4" lengthAdjust="spacing" textLength="47.4" x="447" y="406.9781">UserSession</text><line style="stroke:#181818;stroke-width:0.3;" x1="430.2" x2="495.6" y1="413.1" y2="413.1"/><line style="stroke:#181818;stroke-width:0.3;" x1="430.2" x2="495.6" y1="417.9" y2="417.9"/><text fill="#000000" font-family="sans-serif" font-size="8.4" lengthAdjust="spacing" textLength="46.8" x="433.2" y="429.3645">+getUserId()</text></g><!--link RegisterGreenSpaceUI to RegisterGreenSpaceController--><g id="link_RegisterGreenSpaceUI_RegisterGreenSpaceController"><path codeLine="65" d="M334.5,33.126 C334.5,43.122 334.5,53.382 334.5,65.916 " fill="none" id="RegisterGreenSpaceUI-to-RegisterGreenSpaceController" style="stroke:#181818;stroke-width:0.6;stroke-dasharray:7.0,7.0;"/><polygon fill="#181818" points="334.5,69.516,336.9,64.116,334.5,66.516,332.1,64.116,334.5,69.516" style="stroke:#181818;stroke-width:0.6;"/></g><!--link RegisterGreenSpaceController to Repositories--><g id="link_RegisterGreenSpaceController_Repositories"><path codeLine="66" d="M334.5,132.276 C334.5,147.312 334.5,161.556 334.5,175.716 " fill="none" id="RegisterGreenSpaceController-to-Repositories" style="stroke:#181818;stroke-width:0.6;stroke-dasharray:7.0,7.0;"/><polygon fill="#181818" points="334.5,179.316,336.9,173.916,334.5,176.316,332.1,173.916,334.5,179.316" style="stroke:#181818;stroke-width:0.6;"/><text fill="#000000" font-family="sans-serif" font-size="7.8" lengthAdjust="spacing" textLength="40.2" x="335.1" y="159.017">repositories</text></g><!--link RegisterGreenSpaceController to GreenSpaceRepository--><g id="link_RegisterGreenSpaceController_GreenSpaceRepository"><path codeLine="67" d="M273.996,132.006 C230.796,153.858 180.3,179.4 180.3,179.4 C180.3,179.4 180.3,230.4 180.3,230.4 C180.3,230.4 183.5777,245.7079 187.3757,263.4319 " fill="none" id="RegisterGreenSpaceController-to-GreenSpaceRepository" style="stroke:#181818;stroke-width:0.6;stroke-dasharray:7.0,7.0;"/><polygon fill="#181818" points="188.13,266.952,189.3453,261.169,187.5014,264.0186,184.6518,262.1747,188.13,266.952" style="stroke:#181818;stroke-width:0.6;"/><text fill="#000000" font-family="sans-serif" font-size="7.8" lengthAdjust="spacing" textLength="78.6" x="180.9" y="208.217">greenSpaceRepository</text></g><!--link RegisterGreenSpaceController to AuthenticationRepository--><g id="link_RegisterGreenSpaceController_AuthenticationRepository"><path codeLine="68" d="M382.29,132.006 C416.412,153.858 456.3,179.4 456.3,179.4 C456.3,179.4 459.7356,240.9176 461.6076,274.4876 " fill="none" id="RegisterGreenSpaceController-to-AuthenticationRepository" style="stroke:#181818;stroke-width:0.6;stroke-dasharray:7.0,7.0;"/><polygon fill="#181818" points="461.808,278.082,463.9036,272.5568,461.641,275.0867,459.1111,272.824,461.808,278.082" style="stroke:#181818;stroke-width:0.6;"/><text fill="#000000" font-family="sans-serif" font-size="7.8" lengthAdjust="spacing" textLength="85.8" x="459.3" y="208.217">authenticationRepository</text></g><!--link AuthenticationRepository to UserSession--><g id="link_AuthenticationRepository_UserSession"><path codeLine="69" d="M462.9,318.498 C462.9,339.558 462.9,369.138 462.9,390.168 " fill="none" id="AuthenticationRepository-to-UserSession" style="stroke:#181818;stroke-width:0.6;stroke-dasharray:7.0,7.0;"/><polygon fill="#181818" points="462.9,393.768,465.3,388.368,462.9,390.768,460.5,388.368,462.9,393.768" style="stroke:#181818;stroke-width:0.6;"/></g><!--link Repositories to Repositories--><g id="link_Repositories_Repositories"><path codeLine="70" d="M398.142,197.172 C410.406,198.084 419.1,200.658 419.1,204.9 C419.1,209.142 413.9961,211.449 401.7321,212.361 " fill="none" id="Repositories-to-Repositories" style="stroke:#181818;stroke-width:0.6;"/><polygon fill="#181818" points="398.142,212.628,403.7051,214.6209,401.1337,212.4055,403.3491,209.8341,398.142,212.628" style="stroke:#181818;stroke-width:0.6;"/><text fill="#000000" font-family="sans-serif" font-size="7.8" lengthAdjust="spacing" textLength="29.4" x="422.7" y="208.217">instance</text></g><!--link Repositories to GreenSpaceRepository--><g id="link_Repositories_GreenSpaceRepository"><path codeLine="71" d="M296.67,230.424 C279.606,241.662 262.2961,253.0673 244.3021,264.9233 " fill="none" id="Repositories-to-GreenSpaceRepository" style="stroke:#181818;stroke-width:0.6;"/><polygon fill="#181818" points="241.296,266.904,247.1257,265.937,243.8011,265.2534,244.4847,261.9289,241.296,266.904" style="stroke:#181818;stroke-width:0.6;"/><text fill="#000000" font-family="sans-serif" font-size="7.8" lengthAdjust="spacing" textLength="4.2" x="243.0752" y="260.2475">1</text></g><!--link Repositories to AuthenticationRepository--><g id="link_Repositories_AuthenticationRepository"><path codeLine="72" d="M369.246,230.424 C390.114,245.394 413.3605,262.07 432.7285,275.96 " fill="none" id="Repositories-to-AuthenticationRepository" style="stroke:#181818;stroke-width:0.6;"/><polygon fill="#181818" points="435.654,278.058,432.6645,272.9607,433.2161,276.3096,429.8671,276.8613,435.654,278.058" style="stroke:#181818;stroke-width:0.6;"/><text fill="#000000" font-family="sans-serif" font-size="7.8" lengthAdjust="spacing" textLength="4.2" x="425.6765" y="271.345">1</text></g><!--link GreenSpaceRepository to GreenSpace--><g id="link_GreenSpaceRepository_GreenSpace"><path codeLine="73" d="M194.7,329.508 C194.7,340.716 194.7,350.064 194.7,362.382 " fill="none" id="GreenSpaceRepository-to-GreenSpace" style="stroke:#181818;stroke-width:0.6;"/><polygon fill="#181818" points="194.7,365.982,197.1,360.582,194.7,362.982,192.3,360.582,194.7,365.982" style="stroke:#181818;stroke-width:0.6;"/><text fill="#000000" font-family="sans-serif" font-size="7.8" lengthAdjust="spacing" textLength="3" x="191.5617" y="359.3178">*</text></g><!--link GreenSpace to GreenSpaceManager--><g id="link_GreenSpace_GreenSpaceManager"><path codeLine="74" d="M143.004,462.03 C125.298,478.272 108.8345,493.376 93.8345,507.14 " fill="none" id="GreenSpace-to-GreenSpaceManager" style="stroke:#181818;stroke-width:0.6;"/><polygon fill="#181818" points="91.182,509.574,96.7834,507.6914,93.3924,507.5457,93.5381,504.1547,91.182,509.574" style="stroke:#181818;stroke-width:0.6;"/><text fill="#000000" font-family="sans-serif" font-size="7.8" lengthAdjust="spacing" textLength="4.2" x="90.9954" y="502.8964">1</text></g><!--link GreenSpace to Address--><g id="link_GreenSpace_Address"><path codeLine="75" d="M194.7,462.03 C194.7,474.144 194.7,483.384 194.7,494.838 " fill="none" id="GreenSpace-to-Address" style="stroke:#181818;stroke-width:0.6;"/><polygon fill="#181818" points="194.7,498.438,197.1,493.038,194.7,495.438,192.3,493.038,194.7,498.438" style="stroke:#181818;stroke-width:0.6;"/><text fill="#000000" font-family="sans-serif" font-size="7.8" lengthAdjust="spacing" textLength="4.2" x="190.2572" y="491.808">1</text></g><!--link GreenSpace to GreenSpaceType--><g id="link_GreenSpace_GreenSpaceType"><path codeLine="76" d="M241.416,462.03 C255.288,476.112 267.5878,488.6011 280.1218,501.3271 " fill="none" id="GreenSpace-to-GreenSpaceType" style="stroke:#181818;stroke-width:0.6;"/><polygon fill="#181818" points="282.648,503.892,280.5687,498.3606,280.5429,501.7546,277.1489,501.7288,282.648,503.892" style="stroke:#181818;stroke-width:0.6;"/><text fill="#000000" font-family="sans-serif" font-size="7.8" lengthAdjust="spacing" textLength="4.2" x="274.1007" y="497.2339">1</text></g><!--SRC=[ZLJ1Rjim3BthAuHUwgn9iLqpO83Hf86nPHZYvT9BeTgi8rIM34dUu0xxzqcM4ikfd2wdY7ma7vz9gXVA6o99ZHjIl90ASjqnm18AJNZ50AaJG1r8ANvJNk5dmbJeOPI3xXh0ZM2TVQ30MJ2YLAgrf4-jXgmGFAUlW3yYTCtWMMCjiAJLGUEIsgfKS8Jw6Bo3YYeDSYC1U6xumJx3Vz3VQV-Tu5eAna0Q73Q_cqkOf3ePTz08HRMGtHoJLX-0QreGIsRmp5n6-IPZmaaD9gui9IWrnrOAyvH0NCYY0ht9j_TIrBa1cAJ9REXY4o5nP3zH2yyZjUPuQ4Tj2JVVKlhw1Xra663U_OimMX8D4vW8KyzlaPklQkR1SdA6rF4wQk6CGznFEoIMidEKedqomsRPdoEF7KIQSjByZ_nnIIBzUD-uAwW9PUV5F3BfdK4kt_WuWz8cJezChxGfH0aZMq5rv-huB8dl9PMIT7qHu6sDnpgwKfjqjrf_x_zkrwjilttCiuVrwl57kllQMx-bkyqwD0RhuyUDWkTzOmSrCex9xFF9dqviXyKCQao0y53dhfNIGFOAP6Gf0dCGOwrPwN0eUXrkRxzSF0leuirmqOCgItC7XzVxiJ7jbZXsPTxFDINXSl8-eKdLRRv0KHJsY1UBywOfL-Ru5_0MT_NfAjfa73d51qLFNX_r8SmVu2BLZzSW0l9hT3dUxX3w1m00]--></g></svg>