<?xml version="1.0" encoding="us-ascii" standalone="no"?><svg xmlns="http://www.w3.org/2000/svg" xmlns:xlink="http://www.w3.org/1999/xlink" contentStyleType="text/css" height="613.6px" preserveAspectRatio="none" style="width:999px;height:613px;background:#FFFFFF;" version="1.1" viewBox="0 0 999 613" width="999.2px" zoomAndPan="magnify"><defs/><g><rect fill="#FFFFFF" height="520.9359" style="stroke:#181818;stroke-width:0.4000000000000001;" width="4" x="24.4" y="44.8969"/><rect fill="#FFFFFF" height="29.9648" style="stroke:#181818;stroke-width:0.4000000000000001;" width="4" x="148.4" y="54.2133"/><rect fill="#FFFFFF" height="112.6477" style="stroke:#181818;stroke-width:0.4000000000000001;" width="4" x="148.4" y="96.6945"/><rect fill="#FFFFFF" height="12.5164" style="stroke:#181818;stroke-width:0.4000000000000001;" width="4" x="148.4" y="221.8586"/><rect fill="#FFFFFF" height="318.9414" style="stroke:#181818;stroke-width:0.4000000000000001;" width="4" x="148.4" y="246.8914"/><rect fill="#FFFFFF" height="87.6148" style="stroke:#181818;stroke-width:0.4000000000000001;" width="4" x="436" y="109.2109"/><rect fill="#FFFFFF" height="293.9086" style="stroke:#181818;stroke-width:0.4000000000000001;" width="4" x="436" y="259.4078"/><rect fill="#FFFFFF" height="92.0148" style="stroke:#181818;stroke-width:0.4000000000000001;" width="4" x="438" y="275.1242"/><rect fill="#FFFFFF" height="12.5164" style="stroke:#181818;stroke-width:0.4000000000000001;" width="4" x="514.4" y="121.7273"/><rect fill="#FFFFFF" height="12.5164" style="stroke:#181818;stroke-width:0.4000000000000001;" width="4" x="514.4" y="289.6406"/><rect fill="#FFFFFF" height="12.5164" style="stroke:#181818;stroke-width:0.4000000000000001;" width="4" x="514.4" y="382.4555"/><rect fill="#FFFFFF" height="12.5164" style="stroke:#181818;stroke-width:0.4000000000000001;" width="4" x="557.2" y="146.7602"/><rect fill="#FFFFFF" height="12.5164" style="stroke:#181818;stroke-width:0.4000000000000001;" width="4" x="557.2" y="314.6734"/><rect fill="#FFFFFF" height="12.5164" style="stroke:#181818;stroke-width:0.4000000000000001;" width="4" x="557.2" y="407.4883"/><rect fill="#FFFFFF" height="12.5164" style="stroke:#181818;stroke-width:0.4000000000000001;" width="4" x="601.6" y="171.793"/><rect fill="#FFFFFF" height="12.5164" style="stroke:#181818;stroke-width:0.4000000000000001;" width="4" x="601.6" y="339.7063"/><rect fill="#FFFFFF" height="108.2789" style="stroke:#181818;stroke-width:0.4000000000000001;" width="4" x="710" y="432.5211"/><rect fill="#FFFFFF" height="52.3492" style="stroke:#181818;stroke-width:0.4000000000000001;" width="4" x="712" y="473.1344"/><rect fill="#FFFFFF" height="16.9164" style="stroke:#181818;stroke-width:0.4000000000000001;" width="4" x="714" y="490.8508"/><line style="stroke:#181818;stroke-width:0.20000000000000004;stroke-dasharray:5.0,5.0;" x1="26.4" x2="26.4" y1="40.8969" y2="573.0328"/><line style="stroke:#181818;stroke-width:0.20000000000000004;stroke-dasharray:5.0,5.0;" x1="150.2" x2="150.2" y1="40.8969" y2="573.0328"/><line style="stroke:#181818;stroke-width:0.20000000000000004;stroke-dasharray:5.0,5.0;" x1="438" x2="438" y1="70.1375" y2="573.0328"/><line style="stroke:#181818;stroke-width:0.20000000000000004;stroke-dasharray:5.0,5.0;" x1="516.2" x2="516.2" y1="40.8969" y2="573.0328"/><line style="stroke:#181818;stroke-width:0.20000000000000004;stroke-dasharray:5.0,5.0;" x1="559" x2="559" y1="40.8969" y2="573.0328"/><line style="stroke:#181818;stroke-width:0.20000000000000004;stroke-dasharray:5.0,5.0;" x1="603.4" x2="603.4" y1="40.8969" y2="573.0328"/><line style="stroke:#181818;stroke-width:0.20000000000000004;stroke-dasharray:5.0,5.0;" x1="711.8" x2="711.8" y1="40.8969" y2="573.0328"/><line style="stroke:#181818;stroke-width:0.20000000000000004;stroke-dasharray:5.0,5.0;" x1="977.6" x2="977.6" y1="452.1695" y2="573.0328"/><text fill="#000000" font-family="sans-serif" font-size="5.6" lengthAdjust="spacing" textLength="46.4" x="2" y="32.043">Human Resources</text><text fill="#000000" font-family="sans-serif" font-size="5.6" lengthAdjust="spacing" textLength="22.4" x="14" y="39.4914">Manager</text><ellipse cx="26.4" cy="5.4" fill="#E3E3E3" rx="3.2" ry="3.2" style="stroke:#181818;stroke-width:0.20000000000000004;"/><path d="M26.4,8.6 L26.4,19.4 M21.2,11.8 L31.6,11.8 M26.4,19.4 L21.2,25.4 M26.4,19.4 L31.6,25.4 " fill="none" style="stroke:#181818;stroke-width:0.20000000000000004;"/><text fill="#000000" font-family="sans-serif" font-size="5.6" lengthAdjust="spacing" textLength="46.4" x="2" y="578.6758">Human Resources</text><text fill="#000000" font-family="sans-serif" font-size="5.6" lengthAdjust="spacing" textLength="22.4" x="14" y="586.1242">Manager</text><ellipse cx="26.4" cy="590.9297" fill="#E3E3E3" rx="3.2" ry="3.2" style="stroke:#181818;stroke-width:0.20000000000000004;"/><path d="M26.4,594.1297 L26.4,604.9297 M21.2,597.3297 L31.6,597.3297 M26.4,604.9297 L21.2,610.9297 M26.4,604.9297 L31.6,610.9297 " fill="none" style="stroke:#181818;stroke-width:0.20000000000000004;"/><rect fill="#E3E3E3" height="13.0484" rx="1" ry="1" style="stroke:#181818;stroke-width:0.20000000000000004;" width="64.4" x="118.2" y="27.4484"/><text fill="#000000" font-family="sans-serif" font-size="5.6" lengthAdjust="spacing" textLength="58.8" x="121" y="36.2914">:RegisterCollaboratorUI</text><rect fill="#E3E3E3" height="13.0484" rx="1" ry="1" style="stroke:#181818;stroke-width:0.20000000000000004;" width="64.4" x="118.2" y="572.6328"/><text fill="#000000" font-family="sans-serif" font-size="5.6" lengthAdjust="spacing" textLength="58.8" x="121" y="581.4758">:RegisterCollaboratorUI</text><rect fill="#E3E3E3" height="13.0484" rx="1" ry="1" style="stroke:#181818;stroke-width:0.20000000000000004;" width="85.6" x="395.2" y="572.6328"/><text fill="#000000" font-family="sans-serif" font-size="5.6" lengthAdjust="spacing" textLength="80" x="398" y="581.4758">:RegisterCollaboratorControlller</text><rect fill="#E3E3E3" height="13.0484" rx="1" ry="1" style="stroke:#181818;stroke-width:0.20000000000000004;" width="38.8" x="497" y="27.4484"/><text fill="#000000" font-family="sans-serif" font-size="5.6" lengthAdjust="spacing" textLength="33.2" x="499.8" y="36.2914">:Repositories</text><rect fill="#E3E3E3" height="13.0484" rx="1" ry="1" style="stroke:#181818;stroke-width:0.20000000000000004;" width="38.8" x="497" y="572.6328"/><text fill="#000000" font-family="sans-serif" font-size="5.6" lengthAdjust="spacing" textLength="33.2" x="499.8" y="581.4758">:Repositories</text><rect fill="#E3E3E3" height="20.4969" rx="1" ry="1" style="stroke:#181818;stroke-width:0.20000000000000004;" width="38.8" x="539.8" y="20"/><text fill="#000000" font-family="sans-serif" font-size="5.6" lengthAdjust="spacing" textLength="29.6" x="544.4" y="28.843">repositories</text><text fill="#000000" font-family="sans-serif" font-size="5.6" lengthAdjust="spacing" textLength="33.2" x="542.6" y="36.2914">:Repositories</text><rect fill="#E3E3E3" height="20.4969" rx="1" ry="1" style="stroke:#181818;stroke-width:0.20000000000000004;" width="38.8" x="539.8" y="572.6328"/><text fill="#000000" font-family="sans-serif" font-size="5.6" lengthAdjust="spacing" textLength="29.6" x="544.4" y="581.4758">repositories</text><text fill="#000000" font-family="sans-serif" font-size="5.6" lengthAdjust="spacing" textLength="33.2" x="542.6" y="588.9242">:Repositories</text><rect fill="#E3E3E3" height="20.4969" rx="1" ry="1" style="stroke:#181818;stroke-width:0.20000000000000004;" width="42" x="582.6" y="20"/><text fill="#000000" font-family="sans-serif" font-size="5.6" lengthAdjust="spacing" textLength="36.4" x="585.4" y="28.843">jobRepository:</text><text fill="#000000" font-family="sans-serif" font-size="5.6" lengthAdjust="spacing" textLength="34.8" x="586.2" y="36.2914">jobRepository</text><rect fill="#E3E3E3" height="20.4969" rx="1" ry="1" style="stroke:#181818;stroke-width:0.20000000000000004;" width="42" x="582.6" y="572.6328"/><text fill="#000000" font-family="sans-serif" font-size="5.6" lengthAdjust="spacing" textLength="36.4" x="585.4" y="581.4758">jobRepository:</text><text fill="#000000" font-family="sans-serif" font-size="5.6" lengthAdjust="spacing" textLength="34.8" x="586.2" y="588.9242">jobRepository</text><rect fill="#E3E3E3" height="20.4969" rx="1" ry="1" style="stroke:#181818;stroke-width:0.20000000000000004;" width="64.4" x="679.8" y="20"/><text fill="#000000" font-family="sans-serif" font-size="5.6" lengthAdjust="spacing" textLength="58.8" x="682.6" y="28.843">collaboratorRepository:</text><text fill="#000000" font-family="sans-serif" font-size="5.6" lengthAdjust="spacing" textLength="57.2" x="683.4" y="36.2914">collaboratorRepository</text><rect fill="#E3E3E3" height="20.4969" rx="1" ry="1" style="stroke:#181818;stroke-width:0.20000000000000004;" width="64.4" x="679.8" y="572.6328"/><text fill="#000000" font-family="sans-serif" font-size="5.6" lengthAdjust="spacing" textLength="58.8" x="682.6" y="581.4758">collaboratorRepository:</text><text fill="#000000" font-family="sans-serif" font-size="5.6" lengthAdjust="spacing" textLength="57.2" x="683.4" y="588.9242">collaboratorRepository</text><rect fill="#E3E3E3" height="20.4969" rx="1" ry="1" style="stroke:#181818;stroke-width:0.20000000000000004;" width="38.4" x="958.4" y="572.6328"/><text fill="#000000" font-family="sans-serif" font-size="5.6" lengthAdjust="spacing" textLength="30" x="962.6" y="581.4758">collaborator</text><text fill="#000000" font-family="sans-serif" font-size="5.6" lengthAdjust="spacing" textLength="32.8" x="961.2" y="588.9242">:Collaborator</text><rect fill="#FFFFFF" height="520.9359" style="stroke:#181818;stroke-width:0.4000000000000001;" width="4" x="24.4" y="44.8969"/><rect fill="#FFFFFF" height="29.9648" style="stroke:#181818;stroke-width:0.4000000000000001;" width="4" x="148.4" y="54.2133"/><rect fill="#FFFFFF" height="112.6477" style="stroke:#181818;stroke-width:0.4000000000000001;" width="4" x="148.4" y="96.6945"/><rect fill="#FFFFFF" height="12.5164" style="stroke:#181818;stroke-width:0.4000000000000001;" width="4" x="148.4" y="221.8586"/><rect fill="#FFFFFF" height="318.9414" style="stroke:#181818;stroke-width:0.4000000000000001;" width="4" x="148.4" y="246.8914"/><rect fill="#FFFFFF" height="87.6148" style="stroke:#181818;stroke-width:0.4000000000000001;" width="4" x="436" y="109.2109"/><rect fill="#FFFFFF" height="293.9086" style="stroke:#181818;stroke-width:0.4000000000000001;" width="4" x="436" y="259.4078"/><rect fill="#FFFFFF" height="92.0148" style="stroke:#181818;stroke-width:0.4000000000000001;" width="4" x="438" y="275.1242"/><rect fill="#FFFFFF" height="12.5164" style="stroke:#181818;stroke-width:0.4000000000000001;" width="4" x="514.4" y="121.7273"/><rect fill="#FFFFFF" height="12.5164" style="stroke:#181818;stroke-width:0.4000000000000001;" width="4" x="514.4" y="289.6406"/><rect fill="#FFFFFF" height="12.5164" style="stroke:#181818;stroke-width:0.4000000000000001;" width="4" x="514.4" y="382.4555"/><rect fill="#FFFFFF" height="12.5164" style="stroke:#181818;stroke-width:0.4000000000000001;" width="4" x="557.2" y="146.7602"/><rect fill="#FFFFFF" height="12.5164" style="stroke:#181818;stroke-width:0.4000000000000001;" width="4" x="557.2" y="314.6734"/><rect fill="#FFFFFF" height="12.5164" style="stroke:#181818;stroke-width:0.4000000000000001;" width="4" x="557.2" y="407.4883"/><rect fill="#FFFFFF" height="12.5164" style="stroke:#181818;stroke-width:0.4000000000000001;" width="4" x="601.6" y="171.793"/><rect fill="#FFFFFF" height="12.5164" style="stroke:#181818;stroke-width:0.4000000000000001;" width="4" x="601.6" y="339.7063"/><rect fill="#FFFFFF" height="108.2789" style="stroke:#181818;stroke-width:0.4000000000000001;" width="4" x="710" y="432.5211"/><rect fill="#FFFFFF" height="52.3492" style="stroke:#181818;stroke-width:0.4000000000000001;" width="4" x="712" y="473.1344"/><rect fill="#FFFFFF" height="16.9164" style="stroke:#181818;stroke-width:0.4000000000000001;" width="4" x="714" y="490.8508"/><polygon fill="#181818" points="143.6,52.6133,147.6,54.2133,143.6,55.8133,145.2,54.2133" style="stroke:#181818;stroke-width:0.4000000000000001;"/><line style="stroke:#181818;stroke-width:0.4000000000000001;" x1="28.4" x2="146" y1="54.2133" y2="54.2133"/><text fill="#000000" font-family="sans-serif" font-size="5.2" font-weight="bold" lengthAdjust="spacing" textLength="2.8" x="31.2" y="52.1082">1</text><text fill="#000000" font-family="sans-serif" font-size="5.2" lengthAdjust="spacing" textLength="79.6" x="35.6" y="52.1082">asks to register a new collaborator</text><polygon fill="#181818" points="390.4,65.1297,394.4,66.7297,390.4,68.3297,392,66.7297" style="stroke:#181818;stroke-width:0.4000000000000001;"/><line style="stroke:#181818;stroke-width:0.4000000000000001;" x1="152.4" x2="392.8" y1="66.7297" y2="66.7297"/><text fill="#000000" font-family="sans-serif" font-size="5.2" font-weight="bold" lengthAdjust="spacing" textLength="2.8" x="155.2" y="64.6246">2</text><text fill="#000000" font-family="sans-serif" font-size="5.2" lengthAdjust="spacing" textLength="14.4" x="159.6" y="64.6246">create</text><rect fill="#E3E3E3" height="13.0484" rx="1" ry="1" style="stroke:#181818;stroke-width:0.20000000000000004;" width="85.6" x="395.2" y="57.4133"/><text fill="#000000" font-family="sans-serif" font-size="5.6" lengthAdjust="spacing" textLength="80" x="398" y="66.2563">:RegisterCollaboratorControlller</text><polygon fill="#181818" points="32.8,82.5781,28.8,84.1781,32.8,85.7781,31.2,84.1781" style="stroke:#181818;stroke-width:0.4000000000000001;"/><line style="stroke:#181818;stroke-width:0.4000000000000001;stroke-dasharray:2.0,2.0;" x1="30.4" x2="150" y1="84.1781" y2="84.1781"/><text fill="#000000" font-family="sans-serif" font-size="5.2" font-weight="bold" lengthAdjust="spacing" textLength="2.8" x="35.2" y="82.073">3</text><text fill="#000000" font-family="sans-serif" font-size="5.2" lengthAdjust="spacing" textLength="31.6" x="39.6" y="82.073">requests data</text><polygon fill="#181818" points="143.6,95.0945,147.6,96.6945,143.6,98.2945,145.2,96.6945" style="stroke:#181818;stroke-width:0.4000000000000001;"/><line style="stroke:#181818;stroke-width:0.4000000000000001;" x1="28.4" x2="146" y1="96.6945" y2="96.6945"/><text fill="#000000" font-family="sans-serif" font-size="5.2" font-weight="bold" lengthAdjust="spacing" textLength="2.8" x="31.2" y="94.5895">4</text><text fill="#000000" font-family="sans-serif" font-size="5.2" lengthAdjust="spacing" textLength="67.2" x="35.6" y="94.5895">types/selects requested data</text><polygon fill="#181818" points="431.2,107.6109,435.2,109.2109,431.2,110.8109,432.8,109.2109" style="stroke:#181818;stroke-width:0.4000000000000001;"/><line style="stroke:#181818;stroke-width:0.4000000000000001;" x1="152.4" x2="433.6" y1="109.2109" y2="109.2109"/><text fill="#000000" font-family="sans-serif" font-size="5.2" font-weight="bold" lengthAdjust="spacing" textLength="2.8" x="155.2" y="107.1059">5</text><text fill="#000000" font-family="sans-serif" font-size="5.2" lengthAdjust="spacing" textLength="29.6" x="159.6" y="107.1059">getJobsList()</text><polygon fill="#181818" points="509.6,120.1273,513.6,121.7273,509.6,123.3273,511.2,121.7273" style="stroke:#181818;stroke-width:0.4000000000000001;"/><line style="stroke:#181818;stroke-width:0.4000000000000001;" x1="440" x2="512" y1="121.7273" y2="121.7273"/><text fill="#000000" font-family="sans-serif" font-size="5.2" font-weight="bold" lengthAdjust="spacing" textLength="2.8" x="442.8" y="119.6223">6</text><text fill="#000000" font-family="sans-serif" font-size="5.2" lengthAdjust="spacing" textLength="30" x="447.2" y="119.6223">getInstance()</text><polygon fill="#181818" points="444.4,132.6438,440.4,134.2438,444.4,135.8438,442.8,134.2438" style="stroke:#181818;stroke-width:0.4000000000000001;"/><line style="stroke:#181818;stroke-width:0.4000000000000001;stroke-dasharray:2.0,2.0;" x1="442" x2="516" y1="134.2438" y2="134.2438"/><text fill="#000000" font-family="sans-serif" font-size="5.2" font-weight="bold" lengthAdjust="spacing" textLength="2.8" x="446.8" y="132.1387">7</text><text fill="#000000" font-family="sans-serif" font-size="5.2" lengthAdjust="spacing" textLength="26.8" x="451.2" y="132.1387">repositories</text><polygon fill="#181818" points="552.4,145.1602,556.4,146.7602,552.4,148.3602,554,146.7602" style="stroke:#181818;stroke-width:0.4000000000000001;"/><line style="stroke:#181818;stroke-width:0.4000000000000001;" x1="440" x2="554.8" y1="146.7602" y2="146.7602"/><text fill="#000000" font-family="sans-serif" font-size="5.2" font-weight="bold" lengthAdjust="spacing" textLength="2.8" x="442.8" y="144.6551">8</text><text fill="#000000" font-family="sans-serif" font-size="5.2" lengthAdjust="spacing" textLength="43.2" x="447.2" y="144.6551">getJobRepository()</text><polygon fill="#181818" points="444.4,157.6766,440.4,159.2766,444.4,160.8766,442.8,159.2766" style="stroke:#181818;stroke-width:0.4000000000000001;"/><line style="stroke:#181818;stroke-width:0.4000000000000001;stroke-dasharray:2.0,2.0;" x1="442" x2="558.8" y1="159.2766" y2="159.2766"/><text fill="#000000" font-family="sans-serif" font-size="5.2" font-weight="bold" lengthAdjust="spacing" textLength="2.8" x="446.8" y="157.1715">9</text><text fill="#000000" font-family="sans-serif" font-size="5.2" lengthAdjust="spacing" textLength="32.8" x="451.2" y="157.1715">JobRepository</text><polygon fill="#181818" points="596.8,170.193,600.8,171.793,596.8,173.393,598.4,171.793" style="stroke:#181818;stroke-width:0.4000000000000001;"/><line style="stroke:#181818;stroke-width:0.4000000000000001;" x1="440" x2="599.2" y1="171.793" y2="171.793"/><text fill="#000000" font-family="sans-serif" font-size="5.2" font-weight="bold" lengthAdjust="spacing" textLength="5.6" x="442.8" y="169.6879">10</text><text fill="#000000" font-family="sans-serif" font-size="5.2" lengthAdjust="spacing" textLength="29.6" x="450" y="169.6879">getJobsList()</text><polygon fill="#181818" points="444.4,182.7094,440.4,184.3094,444.4,185.9094,442.8,184.3094" style="stroke:#181818;stroke-width:0.4000000000000001;"/><line style="stroke:#181818;stroke-width:0.4000000000000001;stroke-dasharray:2.0,2.0;" x1="442" x2="603.2" y1="184.3094" y2="184.3094"/><text fill="#000000" font-family="sans-serif" font-size="5.2" font-weight="bold" lengthAdjust="spacing" textLength="5.6" x="446.8" y="182.2043">11</text><text fill="#000000" font-family="sans-serif" font-size="5.2" lengthAdjust="spacing" textLength="19.2" x="454" y="182.2043">JobsList</text><polygon fill="#181818" points="156.8,195.2258,152.8,196.8258,156.8,198.4258,155.2,196.8258" style="stroke:#181818;stroke-width:0.4000000000000001;"/><line style="stroke:#181818;stroke-width:0.4000000000000001;stroke-dasharray:2.0,2.0;" x1="154.4" x2="437.6" y1="196.8258" y2="196.8258"/><text fill="#000000" font-family="sans-serif" font-size="5.2" font-weight="bold" lengthAdjust="spacing" textLength="5.6" x="159.2" y="194.7207">12</text><text fill="#000000" font-family="sans-serif" font-size="5.2" lengthAdjust="spacing" textLength="19.2" x="166.4" y="194.7207">JobsList</text><polygon fill="#181818" points="32.8,207.7422,28.8,209.3422,32.8,210.9422,31.2,209.3422" style="stroke:#181818;stroke-width:0.4000000000000001;"/><line style="stroke:#181818;stroke-width:0.4000000000000001;stroke-dasharray:2.0,2.0;" x1="30.4" x2="150" y1="209.3422" y2="209.3422"/><text fill="#000000" font-family="sans-serif" font-size="5.2" font-weight="bold" lengthAdjust="spacing" textLength="5.6" x="35.2" y="207.2371">13</text><text fill="#000000" font-family="sans-serif" font-size="5.2" lengthAdjust="spacing" textLength="103.2" x="42.4" y="207.2371">shows the list of jobs and asks to select one</text><polygon fill="#181818" points="143.6,220.2586,147.6,221.8586,143.6,223.4586,145.2,221.8586" style="stroke:#181818;stroke-width:0.4000000000000001;"/><line style="stroke:#181818;stroke-width:0.4000000000000001;" x1="28.4" x2="146" y1="221.8586" y2="221.8586"/><text fill="#000000" font-family="sans-serif" font-size="5.2" font-weight="bold" lengthAdjust="spacing" textLength="5.6" x="31.2" y="219.7535">14</text><text fill="#000000" font-family="sans-serif" font-size="5.2" lengthAdjust="spacing" textLength="34" x="38.4" y="219.7535">selects the job</text><polygon fill="#181818" points="32.8,232.775,28.8,234.375,32.8,235.975,31.2,234.375" style="stroke:#181818;stroke-width:0.4000000000000001;"/><line style="stroke:#181818;stroke-width:0.4000000000000001;stroke-dasharray:2.0,2.0;" x1="30.4" x2="150" y1="234.375" y2="234.375"/><text fill="#000000" font-family="sans-serif" font-size="5.2" font-weight="bold" lengthAdjust="spacing" textLength="5.6" x="35.2" y="232.2699">15</text><text fill="#000000" font-family="sans-serif" font-size="5.2" lengthAdjust="spacing" textLength="94.4" x="42.4" y="232.2699">shows all data and requests confirmation</text><polygon fill="#181818" points="143.6,245.2914,147.6,246.8914,143.6,248.4914,145.2,246.8914" style="stroke:#181818;stroke-width:0.4000000000000001;"/><line style="stroke:#181818;stroke-width:0.4000000000000001;" x1="28.4" x2="146" y1="246.8914" y2="246.8914"/><text fill="#000000" font-family="sans-serif" font-size="5.2" font-weight="bold" lengthAdjust="spacing" textLength="5.6" x="31.2" y="244.7863">16</text><text fill="#000000" font-family="sans-serif" font-size="5.2" lengthAdjust="spacing" textLength="31.2" x="38.4" y="244.7863">confirms data</text><polygon fill="#181818" points="431.2,257.8078,435.2,259.4078,431.2,261.0078,432.8,259.4078" style="stroke:#181818;stroke-width:0.4000000000000001;"/><line style="stroke:#181818;stroke-width:0.4000000000000001;" x1="152.4" x2="433.6" y1="259.4078" y2="259.4078"/><text fill="#000000" font-family="sans-serif" font-size="5.2" font-weight="bold" lengthAdjust="spacing" textLength="5.6" x="155.2" y="257.3027">17</text><text fill="#000000" font-family="sans-serif" font-size="5.2" lengthAdjust="spacing" textLength="268.8" x="162.4" y="257.3027">registerCollaborator(name, birthday, admissionDate, address, phoneNumber, email, idDocType, idNumber, jobName)</text><line style="stroke:#181818;stroke-width:0.4000000000000001;" x1="440" x2="458.8" y1="269.9242" y2="269.9242"/><line style="stroke:#181818;stroke-width:0.4000000000000001;" x1="458.8" x2="458.8" y1="269.9242" y2="275.1242"/><line style="stroke:#181818;stroke-width:0.4000000000000001;" x1="442.4" x2="458.8" y1="275.1242" y2="275.1242"/><polygon fill="#181818" points="446.4,273.5242,442.4,275.1242,446.4,276.7242,444.8,275.1242" style="stroke:#181818;stroke-width:0.4000000000000001;"/><text fill="#000000" font-family="sans-serif" font-size="5.2" font-weight="bold" lengthAdjust="spacing" textLength="5.6" x="444.8" y="267.8191">18</text><text fill="#000000" font-family="sans-serif" font-size="5.2" lengthAdjust="spacing" textLength="61.6" x="452" y="267.8191">getJobsByName(jobName)</text><polygon fill="#181818" points="509.6,288.0406,513.6,289.6406,509.6,291.2406,511.2,289.6406" style="stroke:#181818;stroke-width:0.4000000000000001;"/><line style="stroke:#181818;stroke-width:0.4000000000000001;" x1="442" x2="512" y1="289.6406" y2="289.6406"/><text fill="#000000" font-family="sans-serif" font-size="5.2" font-weight="bold" lengthAdjust="spacing" textLength="5.6" x="444.8" y="287.5355">19</text><text fill="#000000" font-family="sans-serif" font-size="5.2" lengthAdjust="spacing" textLength="30" x="452" y="287.5355">getInstance()</text><polygon fill="#181818" points="446.4,300.557,442.4,302.157,446.4,303.757,444.8,302.157" style="stroke:#181818;stroke-width:0.4000000000000001;"/><line style="stroke:#181818;stroke-width:0.4000000000000001;stroke-dasharray:2.0,2.0;" x1="444" x2="516" y1="302.157" y2="302.157"/><text fill="#000000" font-family="sans-serif" font-size="5.2" font-weight="bold" lengthAdjust="spacing" textLength="5.6" x="448.8" y="300.052">20</text><text fill="#000000" font-family="sans-serif" font-size="5.2" lengthAdjust="spacing" textLength="26.8" x="456" y="300.052">repositories</text><polygon fill="#181818" points="552.4,313.0734,556.4,314.6734,552.4,316.2734,554,314.6734" style="stroke:#181818;stroke-width:0.4000000000000001;"/><line style="stroke:#181818;stroke-width:0.4000000000000001;" x1="442" x2="554.8" y1="314.6734" y2="314.6734"/><text fill="#000000" font-family="sans-serif" font-size="5.2" font-weight="bold" lengthAdjust="spacing" textLength="5.6" x="444.8" y="312.5684">21</text><text fill="#000000" font-family="sans-serif" font-size="5.2" lengthAdjust="spacing" textLength="43.2" x="452" y="312.5684">getJobRepository()</text><polygon fill="#181818" points="446.4,325.5898,442.4,327.1898,446.4,328.7898,444.8,327.1898" style="stroke:#181818;stroke-width:0.4000000000000001;"/><line style="stroke:#181818;stroke-width:0.4000000000000001;stroke-dasharray:2.0,2.0;" x1="444" x2="558.8" y1="327.1898" y2="327.1898"/><text fill="#000000" font-family="sans-serif" font-size="5.2" font-weight="bold" lengthAdjust="spacing" textLength="5.6" x="448.8" y="325.0848">22</text><text fill="#000000" font-family="sans-serif" font-size="5.2" lengthAdjust="spacing" textLength="31.6" x="456" y="325.0848">jobRepository</text><polygon fill="#181818" points="596.8,338.1063,600.8,339.7063,596.8,341.3063,598.4,339.7063" style="stroke:#181818;stroke-width:0.4000000000000001;"/><line style="stroke:#181818;stroke-width:0.4000000000000001;" x1="442" x2="599.2" y1="339.7063" y2="339.7063"/><text fill="#000000" font-family="sans-serif" font-size="5.2" font-weight="bold" lengthAdjust="spacing" textLength="5.6" x="444.8" y="337.6012">23</text><text fill="#000000" font-family="sans-serif" font-size="5.2" lengthAdjust="spacing" textLength="61.6" x="452" y="337.6012">getJobsByName(jobName)</text><polygon fill="#181818" points="446.4,350.6227,442.4,352.2227,446.4,353.8227,444.8,352.2227" style="stroke:#181818;stroke-width:0.4000000000000001;"/><line style="stroke:#181818;stroke-width:0.4000000000000001;stroke-dasharray:2.0,2.0;" x1="444" x2="603.2" y1="352.2227" y2="352.2227"/><text fill="#000000" font-family="sans-serif" font-size="5.2" font-weight="bold" lengthAdjust="spacing" textLength="5.6" x="448.8" y="350.1176">24</text><text fill="#000000" font-family="sans-serif" font-size="5.2" lengthAdjust="spacing" textLength="6.8" x="456" y="350.1176">job</text><line style="stroke:#181818;stroke-width:0.4000000000000001;stroke-dasharray:2.0,2.0;" x1="442" x2="458.8" y1="366.7391" y2="366.7391"/><line style="stroke:#181818;stroke-width:0.4000000000000001;stroke-dasharray:2.0,2.0;" x1="458.8" x2="458.8" y1="366.7391" y2="371.9391"/><line style="stroke:#181818;stroke-width:0.4000000000000001;stroke-dasharray:2.0,2.0;" x1="440" x2="458.8" y1="371.9391" y2="371.9391"/><polygon fill="#181818" points="444,370.3391,440,371.9391,444,373.5391,442.4,371.9391" style="stroke:#181818;stroke-width:0.4000000000000001;"/><text fill="#000000" font-family="sans-serif" font-size="5.2" font-weight="bold" lengthAdjust="spacing" textLength="5.6" x="444.8" y="364.634">25</text><text fill="#000000" font-family="sans-serif" font-size="5.2" lengthAdjust="spacing" textLength="6.8" x="452" y="364.634">job</text><polygon fill="#181818" points="509.6,380.8555,513.6,382.4555,509.6,384.0555,511.2,382.4555" style="stroke:#181818;stroke-width:0.4000000000000001;"/><line style="stroke:#181818;stroke-width:0.4000000000000001;" x1="440" x2="512" y1="382.4555" y2="382.4555"/><text fill="#000000" font-family="sans-serif" font-size="5.2" font-weight="bold" lengthAdjust="spacing" textLength="5.6" x="442.8" y="380.3504">26</text><text fill="#000000" font-family="sans-serif" font-size="5.2" lengthAdjust="spacing" textLength="30" x="450" y="380.3504">getInstance()</text><polygon fill="#181818" points="444.4,393.3719,440.4,394.9719,444.4,396.5719,442.8,394.9719" style="stroke:#181818;stroke-width:0.4000000000000001;"/><line style="stroke:#181818;stroke-width:0.4000000000000001;stroke-dasharray:2.0,2.0;" x1="442" x2="516" y1="394.9719" y2="394.9719"/><text fill="#000000" font-family="sans-serif" font-size="5.2" font-weight="bold" lengthAdjust="spacing" textLength="5.6" x="446.8" y="392.8668">27</text><text fill="#000000" font-family="sans-serif" font-size="5.2" lengthAdjust="spacing" textLength="26.8" x="454" y="392.8668">repositories</text><polygon fill="#181818" points="552.4,405.8883,556.4,407.4883,552.4,409.0883,554,407.4883" style="stroke:#181818;stroke-width:0.4000000000000001;"/><line style="stroke:#181818;stroke-width:0.4000000000000001;" x1="440" x2="554.8" y1="407.4883" y2="407.4883"/><text fill="#000000" font-family="sans-serif" font-size="5.2" font-weight="bold" lengthAdjust="spacing" textLength="5.6" x="442.8" y="405.3832">28</text><text fill="#000000" font-family="sans-serif" font-size="5.2" lengthAdjust="spacing" textLength="62.8" x="450" y="405.3832">getCollaboratorRepository()</text><polygon fill="#181818" points="444.4,418.4047,440.4,420.0047,444.4,421.6047,442.8,420.0047" style="stroke:#181818;stroke-width:0.4000000000000001;"/><line style="stroke:#181818;stroke-width:0.4000000000000001;stroke-dasharray:2.0,2.0;" x1="442" x2="558.8" y1="420.0047" y2="420.0047"/><text fill="#000000" font-family="sans-serif" font-size="5.2" font-weight="bold" lengthAdjust="spacing" textLength="5.6" x="446.8" y="417.8996">29</text><text fill="#000000" font-family="sans-serif" font-size="5.2" lengthAdjust="spacing" textLength="51.6" x="454" y="417.8996">collaboratorRepository</text><polygon fill="#181818" points="705.2,430.9211,709.2,432.5211,705.2,434.1211,706.8,432.5211" style="stroke:#181818;stroke-width:0.4000000000000001;"/><line style="stroke:#181818;stroke-width:0.4000000000000001;" x1="440" x2="707.6" y1="432.5211" y2="432.5211"/><text fill="#000000" font-family="sans-serif" font-size="5.2" font-weight="bold" lengthAdjust="spacing" textLength="5.6" x="442.8" y="430.416">30</text><text fill="#000000" font-family="sans-serif" font-size="5.2" lengthAdjust="spacing" textLength="255.2" x="450" y="430.416">registerCollaborator(name, birthday, admissionDate, address, phoneNumber, email, idDocType, idNumber, job)</text><polygon fill="#181818" points="953.6,443.4375,957.6,445.0375,953.6,446.6375,955.2,445.0375" style="stroke:#181818;stroke-width:0.4000000000000001;"/><line style="stroke:#181818;stroke-width:0.4000000000000001;" x1="714" x2="956" y1="445.0375" y2="445.0375"/><text fill="#000000" font-family="sans-serif" font-size="5.2" font-weight="bold" lengthAdjust="spacing" textLength="5.6" x="716.8" y="442.9324">31</text><text fill="#000000" font-family="sans-serif" font-size="5.2" lengthAdjust="spacing" textLength="227.6" x="724" y="442.9324">register(name, birthday, admissionDate, address, phoneNumber, email, idDocType, idNumber, job)</text><rect fill="#E3E3E3" height="20.4969" rx="1" ry="1" style="stroke:#181818;stroke-width:0.20000000000000004;" width="38.4" x="958.4" y="435.7211"/><text fill="#000000" font-family="sans-serif" font-size="5.6" lengthAdjust="spacing" textLength="30" x="962.6" y="444.5641">collaborator</text><text fill="#000000" font-family="sans-serif" font-size="5.6" lengthAdjust="spacing" textLength="32.8" x="961.2" y="452.0125">:Collaborator</text><line style="stroke:#181818;stroke-width:0.4000000000000001;" x1="714" x2="732.8" y1="467.9344" y2="467.9344"/><line style="stroke:#181818;stroke-width:0.4000000000000001;" x1="732.8" x2="732.8" y1="467.9344" y2="473.1344"/><line style="stroke:#181818;stroke-width:0.4000000000000001;" x1="716.4" x2="732.8" y1="473.1344" y2="473.1344"/><polygon fill="#181818" points="720.4,471.5344,716.4,473.1344,720.4,474.7344,718.8,473.1344" style="stroke:#181818;stroke-width:0.4000000000000001;"/><text fill="#000000" font-family="sans-serif" font-size="5.2" font-weight="bold" lengthAdjust="spacing" textLength="5.6" x="718.8" y="465.8293">32</text><text fill="#000000" font-family="sans-serif" font-size="5.2" lengthAdjust="spacing" textLength="66.4" x="726" y="465.8293">addCollaborator (colaborator)</text><line style="stroke:#181818;stroke-width:0.4000000000000001;" x1="716" x2="734.8" y1="485.6508" y2="485.6508"/><line style="stroke:#181818;stroke-width:0.4000000000000001;" x1="734.8" x2="734.8" y1="485.6508" y2="490.8508"/><line style="stroke:#181818;stroke-width:0.4000000000000001;" x1="718.4" x2="734.8" y1="490.8508" y2="490.8508"/><polygon fill="#181818" points="722.4,489.2508,718.4,490.8508,722.4,492.4508,720.8,490.8508" style="stroke:#181818;stroke-width:0.4000000000000001;"/><text fill="#000000" font-family="sans-serif" font-size="5.2" font-weight="bold" lengthAdjust="spacing" textLength="5.6" x="720.8" y="483.5457">33</text><text fill="#000000" font-family="sans-serif" font-size="5.2" lengthAdjust="spacing" textLength="75.2" x="728" y="483.5457">validateCollaborator (colaborator)</text><line style="stroke:#181818;stroke-width:0.4000000000000001;stroke-dasharray:2.0,2.0;" x1="718" x2="734.8" y1="507.3672" y2="507.3672"/><line style="stroke:#181818;stroke-width:0.4000000000000001;stroke-dasharray:2.0,2.0;" x1="734.8" x2="734.8" y1="507.3672" y2="512.5672"/><line style="stroke:#181818;stroke-width:0.4000000000000001;stroke-dasharray:2.0,2.0;" x1="716" x2="734.8" y1="512.5672" y2="512.5672"/><polygon fill="#181818" points="720,510.9672,716,512.5672,720,514.1672,718.4,512.5672" style="stroke:#181818;stroke-width:0.4000000000000001;"/><text fill="#000000" font-family="sans-serif" font-size="5.2" font-weight="bold" lengthAdjust="spacing" textLength="5.6" x="720.8" y="505.2621">34</text><text fill="#000000" font-family="sans-serif" font-size="5.2" lengthAdjust="spacing" textLength="1.6" x="728" y="505.2621">&#160;</text><line style="stroke:#181818;stroke-width:0.4000000000000001;stroke-dasharray:2.0,2.0;" x1="716" x2="732.8" y1="525.0836" y2="525.0836"/><line style="stroke:#181818;stroke-width:0.4000000000000001;stroke-dasharray:2.0,2.0;" x1="732.8" x2="732.8" y1="525.0836" y2="530.2836"/><line style="stroke:#181818;stroke-width:0.4000000000000001;stroke-dasharray:2.0,2.0;" x1="714" x2="732.8" y1="530.2836" y2="530.2836"/><polygon fill="#181818" points="718,528.6836,714,530.2836,718,531.8836,716.4,530.2836" style="stroke:#181818;stroke-width:0.4000000000000001;"/><text fill="#000000" font-family="sans-serif" font-size="5.2" font-weight="bold" lengthAdjust="spacing" textLength="5.6" x="718.8" y="522.9785">35</text><text fill="#000000" font-family="sans-serif" font-size="5.2" lengthAdjust="spacing" textLength="1.6" x="726" y="522.9785">&#160;</text><polygon fill="#181818" points="444.4,539.2,440.4,540.8,444.4,542.4,442.8,540.8" style="stroke:#181818;stroke-width:0.4000000000000001;"/><line style="stroke:#181818;stroke-width:0.4000000000000001;stroke-dasharray:2.0,2.0;" x1="442" x2="711.6" y1="540.8" y2="540.8"/><text fill="#000000" font-family="sans-serif" font-size="5.2" font-weight="bold" lengthAdjust="spacing" textLength="5.6" x="446.8" y="538.6949">36</text><text fill="#000000" font-family="sans-serif" font-size="5.2" lengthAdjust="spacing" textLength="26.8" x="454" y="538.6949">collaborator</text><polygon fill="#181818" points="156.8,551.7164,152.8,553.3164,156.8,554.9164,155.2,553.3164" style="stroke:#181818;stroke-width:0.4000000000000001;"/><line style="stroke:#181818;stroke-width:0.4000000000000001;stroke-dasharray:2.0,2.0;" x1="154.4" x2="437.6" y1="553.3164" y2="553.3164"/><text fill="#000000" font-family="sans-serif" font-size="5.2" font-weight="bold" lengthAdjust="spacing" textLength="5.6" x="159.2" y="551.2113">37</text><text fill="#000000" font-family="sans-serif" font-size="5.2" lengthAdjust="spacing" textLength="26.8" x="166.4" y="551.2113">collaborator</text><polygon fill="#181818" points="30.8,564.2328,26.8,565.8328,30.8,567.4328,29.2,565.8328" style="stroke:#181818;stroke-width:0.4000000000000001;"/><line style="stroke:#181818;stroke-width:0.4000000000000001;stroke-dasharray:2.0,2.0;" x1="28.4" x2="150" y1="565.8328" y2="565.8328"/><text fill="#000000" font-family="sans-serif" font-size="5.2" font-weight="bold" lengthAdjust="spacing" textLength="5.6" x="33.2" y="563.7277">38</text><text fill="#000000" font-family="sans-serif" font-size="5.2" lengthAdjust="spacing" textLength="63.2" x="40.4" y="563.7277">displays operation success</text><!--SRC=[rLTDKzim4BtxL-nmQM32z9v3Po1q1Ze1EWdSk2Zs9X6n9LUhGFFlkr8IHnhR-M2WfJfPtjstJwktianpgKfXH065LZgT6LqWMBF0X2fBATAvcEB8BdC4WwaLQfg73ZGJcNwLQWeJaHCcYLXOhHR564sIV9d9366YjHthtub8hJPmShqeX88XabwO5Eb9tGh5ASm928BhuMt2m5QciXJAmablY5D95arVvxaOQoCOvF76Ep_U7E3RryeQdkVh3Fs7uQ0MLcgIx2kHlC_m-y_OnGGUJwenO1H7FEjnvRNiFQbexcEYDt5m6l2FK9eD7gxPr8xBomZBjAhD_M1mSNa_l7Yu7oPkl-IBiEWt9G4U_03dtxZkq6FtEO7LB8fLpK60mjU8Xe-fK7Yt_0it685nt5QSdJ5MQf0zLcPdOfjBrMFmNmiaIv09AxmvmnfWoCekIwIlX3bBbJRXc6tZzz1XY2dQ7tfC0rvLvxHogUAyVghNRlWuZcSHhC9l576Vf1Y4Hn1ENf75HPwl6RX5RzKLkGLhhq4494RL8hOws45bLECo2iX4A3lOZ9hfn6tGKjk8KTmMaKzagZY29-ans_Zjm5mHtSXd7z1syoEPqao_SZFC478E1Zrn6Gc4ogesMKaIjC93PBmHi8Dag6RbDb0GUUwbxbDNpPDgDP6c45PgTKZsjJyTt3MzwXG8ZvIE4WLsOIoDdMLYsGMH5PA8ILmnb9jc1ecwKCwuB7V-cz45B8JCko2pAvq-S3UxnusDIt77c4TrvOhVMdYNInVVgU4Stk6Vei7ViR-VFwA_3ohpqOtUgrhXZIs-5-G_sVb-uwV-pH9ekJaShOMMMylVEnjQ2j2oliZPZMO_VuO4zo9_OTaiwOEMSGIrjg9pvh3Uq677pUIqXl-EjMeZz29ooTyJ_1UiMcdL40AXVzgaEnBM6pfvOwBWNjG2kETQr8DCKfcB9O4kqVZB1z0YvLy-Qhg415Ftl_47]--></g></svg>