<?xml version="1.0" encoding="us-ascii" standalone="no"?><svg xmlns="http://www.w3.org/2000/svg" xmlns:xlink="http://www.w3.org/1999/xlink" contentStyleType="text/css" height="187.2px" preserveAspectRatio="none" style="width:567px;height:187px;background:#FFFFFF;" version="1.1" viewBox="0 0 567 187" width="567.6px" zoomAndPan="magnify"><defs/><g><rect fill="#FFFFFF" height="121.5953" style="stroke:#181818;stroke-width:0.4000000000000001;" width="4" x="270" y="36.2133"/><rect fill="#FFFFFF" height="52.3492" style="stroke:#181818;stroke-width:0.4000000000000001;" width="4" x="272" y="87.343"/><rect fill="#FFFFFF" height="16.9164" style="stroke:#181818;stroke-width:0.4000000000000001;" width="4" x="274" y="105.0594"/><rect fill="none" height="103.4789" style="stroke:#000000;stroke-width:0.6000000000000001;" width="329.4" x="235.8" y="42.2133"/><line style="stroke:#181818;stroke-width:0.20000000000000004;stroke-dasharray:5.0,5.0;" x1="271.8" x2="271.8" y1="22.8969" y2="165.0086"/><line style="stroke:#181818;stroke-width:0.20000000000000004;stroke-dasharray:5.0,5.0;" x1="542" x2="542" y1="66.3781" y2="165.0086"/><rect fill="#E3E3E3" height="20.4969" rx="1" ry="1" style="stroke:#181818;stroke-width:0.20000000000000004;" width="64.4" x="239.8" y="2"/><text fill="#000000" font-family="sans-serif" font-size="5.6" lengthAdjust="spacing" textLength="58.8" x="242.6" y="10.843">collaboratorRepository:</text><text fill="#000000" font-family="sans-serif" font-size="5.6" lengthAdjust="spacing" textLength="57.2" x="243.4" y="18.2914">collaboratorRepository</text><rect fill="#E3E3E3" height="20.4969" rx="1" ry="1" style="stroke:#181818;stroke-width:0.20000000000000004;" width="64.4" x="239.8" y="164.6086"/><text fill="#000000" font-family="sans-serif" font-size="5.6" lengthAdjust="spacing" textLength="58.8" x="242.6" y="173.4516">collaboratorRepository:</text><text fill="#000000" font-family="sans-serif" font-size="5.6" lengthAdjust="spacing" textLength="57.2" x="243.4" y="180.9">collaboratorRepository</text><rect fill="#E3E3E3" height="20.4969" rx="1" ry="1" style="stroke:#181818;stroke-width:0.20000000000000004;" width="38.4" x="522.8" y="164.6086"/><text fill="#000000" font-family="sans-serif" font-size="5.6" lengthAdjust="spacing" textLength="30" x="527" y="173.4516">collaborator</text><text fill="#000000" font-family="sans-serif" font-size="5.6" lengthAdjust="spacing" textLength="32.8" x="525.6" y="180.9">:Collaborator</text><rect fill="#FFFFFF" height="121.5953" style="stroke:#181818;stroke-width:0.4000000000000001;" width="4" x="270" y="36.2133"/><rect fill="#FFFFFF" height="52.3492" style="stroke:#181818;stroke-width:0.4000000000000001;" width="4" x="272" y="87.343"/><rect fill="#FFFFFF" height="16.9164" style="stroke:#181818;stroke-width:0.4000000000000001;" width="4" x="274" y="105.0594"/><polygon fill="#181818" points="265.2,34.6133,269.2,36.2133,265.2,37.8133,266.8,36.2133" style="stroke:#181818;stroke-width:0.4000000000000001;"/><line style="stroke:#181818;stroke-width:0.4000000000000001;" x1="0" x2="267.6" y1="36.2133" y2="36.2133"/><text fill="#000000" font-family="sans-serif" font-size="5.2" font-weight="bold" lengthAdjust="spacing" textLength="5.6" x="2.8" y="34.1082">18</text><text fill="#000000" font-family="sans-serif" font-size="5.2" lengthAdjust="spacing" textLength="255.2" x="10" y="34.1082">registerCollaborator(name, birthday, admissionDate, address, phoneNumber, email, idDocType, idNumber, job)</text><path d="M235.8,42.2133 L307.8,42.2133 L307.8,45.9297 L303.8,49.9297 L235.8,49.9297 L235.8,42.2133 " fill="#EEEEEE" style="stroke:#000000;stroke-width:0.6000000000000001;"/><rect fill="none" height="103.4789" style="stroke:#000000;stroke-width:0.6000000000000001;" width="329.4" x="235.8" y="42.2133"/><text fill="#000000" font-family="sans-serif" font-size="5.2" font-weight="bold" lengthAdjust="spacing" textLength="54" x="241.8" y="48.2246">Register Collaborator</text><polygon fill="#181818" points="518,57.6461,522,59.2461,518,60.8461,519.6,59.2461" style="stroke:#181818;stroke-width:0.4000000000000001;"/><line style="stroke:#181818;stroke-width:0.4000000000000001;" x1="274" x2="520.4" y1="59.2461" y2="59.2461"/><text fill="#000000" font-family="sans-serif" font-size="5.2" font-weight="bold" lengthAdjust="spacing" textLength="10" x="276.8" y="57.141">18.1</text><text fill="#000000" font-family="sans-serif" font-size="5.2" lengthAdjust="spacing" textLength="227.6" x="288.4" y="57.141">register(name, birthday, admissionDate, address, phoneNumber, email, idDocType, idNumber, job)</text><rect fill="#E3E3E3" height="20.4969" rx="1" ry="1" style="stroke:#181818;stroke-width:0.20000000000000004;" width="38.4" x="522.8" y="49.9297"/><text fill="#000000" font-family="sans-serif" font-size="5.6" lengthAdjust="spacing" textLength="30" x="527" y="58.7727">collaborator</text><text fill="#000000" font-family="sans-serif" font-size="5.6" lengthAdjust="spacing" textLength="32.8" x="525.6" y="66.2211">:Collaborator</text><line style="stroke:#181818;stroke-width:0.4000000000000001;" x1="274" x2="292.8" y1="82.143" y2="82.143"/><line style="stroke:#181818;stroke-width:0.4000000000000001;" x1="292.8" x2="292.8" y1="82.143" y2="87.343"/><line style="stroke:#181818;stroke-width:0.4000000000000001;" x1="276.4" x2="292.8" y1="87.343" y2="87.343"/><polygon fill="#181818" points="280.4,85.743,276.4,87.343,280.4,88.943,278.8,87.343" style="stroke:#181818;stroke-width:0.4000000000000001;"/><text fill="#000000" font-family="sans-serif" font-size="5.2" font-weight="bold" lengthAdjust="spacing" textLength="10" x="278.8" y="80.0379">18.2</text><text fill="#000000" font-family="sans-serif" font-size="5.2" lengthAdjust="spacing" textLength="66.4" x="290.4" y="80.0379">addCollaborator (colaborator)</text><line style="stroke:#181818;stroke-width:0.4000000000000001;" x1="276" x2="294.8" y1="99.8594" y2="99.8594"/><line style="stroke:#181818;stroke-width:0.4000000000000001;" x1="294.8" x2="294.8" y1="99.8594" y2="105.0594"/><line style="stroke:#181818;stroke-width:0.4000000000000001;" x1="278.4" x2="294.8" y1="105.0594" y2="105.0594"/><polygon fill="#181818" points="282.4,103.4594,278.4,105.0594,282.4,106.6594,280.8,105.0594" style="stroke:#181818;stroke-width:0.4000000000000001;"/><text fill="#000000" font-family="sans-serif" font-size="5.2" font-weight="bold" lengthAdjust="spacing" textLength="10" x="280.8" y="97.7543">18.3</text><text fill="#000000" font-family="sans-serif" font-size="5.2" lengthAdjust="spacing" textLength="75.2" x="292.4" y="97.7543">validateCollaborator (colaborator)</text><line style="stroke:#181818;stroke-width:0.4000000000000001;stroke-dasharray:2.0,2.0;" x1="278" x2="294.8" y1="121.5758" y2="121.5758"/><line style="stroke:#181818;stroke-width:0.4000000000000001;stroke-dasharray:2.0,2.0;" x1="294.8" x2="294.8" y1="121.5758" y2="126.7758"/><line style="stroke:#181818;stroke-width:0.4000000000000001;stroke-dasharray:2.0,2.0;" x1="276" x2="294.8" y1="126.7758" y2="126.7758"/><polygon fill="#181818" points="280,125.1758,276,126.7758,280,128.3758,278.4,126.7758" style="stroke:#181818;stroke-width:0.4000000000000001;"/><text fill="#000000" font-family="sans-serif" font-size="5.2" font-weight="bold" lengthAdjust="spacing" textLength="10" x="280.8" y="119.4707">18.4</text><text fill="#000000" font-family="sans-serif" font-size="5.2" lengthAdjust="spacing" textLength="1.6" x="292.4" y="119.4707">&#160;</text><line style="stroke:#181818;stroke-width:0.4000000000000001;stroke-dasharray:2.0,2.0;" x1="276" x2="292.8" y1="139.2922" y2="139.2922"/><line style="stroke:#181818;stroke-width:0.4000000000000001;stroke-dasharray:2.0,2.0;" x1="292.8" x2="292.8" y1="139.2922" y2="144.4922"/><line style="stroke:#181818;stroke-width:0.4000000000000001;stroke-dasharray:2.0,2.0;" x1="274" x2="292.8" y1="144.4922" y2="144.4922"/><polygon fill="#181818" points="278,142.8922,274,144.4922,278,146.0922,276.4,144.4922" style="stroke:#181818;stroke-width:0.4000000000000001;"/><text fill="#000000" font-family="sans-serif" font-size="5.2" font-weight="bold" lengthAdjust="spacing" textLength="10" x="278.8" y="137.1871">18.5</text><text fill="#000000" font-family="sans-serif" font-size="5.2" lengthAdjust="spacing" textLength="1.6" x="290.4" y="137.1871">&#160;</text><polygon fill="#181818" points="4.4,156.2086,0.4,157.8086,4.4,159.4086,2.8,157.8086" style="stroke:#181818;stroke-width:0.4000000000000001;"/><line style="stroke:#181818;stroke-width:0.4000000000000001;stroke-dasharray:2.0,2.0;" x1="2" x2="271.6" y1="157.8086" y2="157.8086"/><text fill="#000000" font-family="sans-serif" font-size="5.2" font-weight="bold" lengthAdjust="spacing" textLength="5.6" x="6.8" y="155.7035">19</text><text fill="#000000" font-family="sans-serif" font-size="5.2" lengthAdjust="spacing" textLength="26.8" x="14" y="155.7035">collaborator</text><!--SRC=[pLCzRy8m4DtzAqvCW99AR2sgAb4OKP5IHfQBVKrS4Zko7Qhy-pgXL5R1AaEhrfFltkbzd6oxbwf1WpNKMcbU6bqJEDCIivz8WtoF1JsxhY8mn1sgeWe7R8b2lqbLm0jMbXZpRIUvR50v675TLPXhWqwRZ1fjfRzqyvsw38m0BLo6uhmxDLy6vS2ntApNYyTDjjXkCiQmTLgrTKu6PhSiVOX8mDmdBAHrP4B2iSAQ4iYbSQN0BW4KjRHMQhL2Htqf35cRG5DgHK-3JW9KewmIa6Ab-RPhgB-Ui5UTJxwukfdv1dVou2bZ6m1_2gFR1h8Fcn3w7F3mH5Bw_E5wfjCWzszblTvQvCNqoc5O6Fl1Kp4vu_zkbJzWw82L55xYBrn5RPqn2FgNelqKAN5ypaSBuNUu6phtQHh_gI70haZv3W00]--></g></svg>