<?xml version="1.0" encoding="us-ascii" standalone="no"?><svg xmlns="http://www.w3.org/2000/svg" xmlns:xlink="http://www.w3.org/1999/xlink" contentStyleType="text/css" height="319.2px" preserveAspectRatio="none" style="width:558px;height:319px;background:#FFFFFF;" version="1.1" viewBox="0 0 558 319" width="558.6px" zoomAndPan="magnify"><defs/><g><rect fill="#FFFFFF" height="249.6592" style="stroke:#181818;stroke-width:0.3;" width="3" x="18.3" y="33.6727"/><rect fill="#FFFFFF" height="22.4736" style="stroke:#181818;stroke-width:0.3;" width="3" x="109.2" y="40.66"/><rect fill="#FFFFFF" height="42.6375" style="stroke:#181818;stroke-width:0.3;" width="3" x="109.2" y="72.5209"/><rect fill="#FFFFFF" height="9.3873" style="stroke:#181818;stroke-width:0.3;" width="3" x="109.2" y="124.5457"/><rect fill="#FFFFFF" height="140.0115" style="stroke:#181818;stroke-width:0.3;" width="3" x="109.2" y="143.3203"/><rect fill="#FFFFFF" height="23.8629" style="stroke:#181818;stroke-width:0.3;" width="3" x="324.9" y="81.9082"/><rect fill="#FFFFFF" height="121.2369" style="stroke:#181818;stroke-width:0.3;" width="3" x="324.9" y="152.7076"/><rect fill="#FFFFFF" height="27.1629" style="stroke:#181818;stroke-width:0.3;" width="3" x="326.4" y="164.4949"/><rect fill="#FFFFFF" height="9.3873" style="stroke:#181818;stroke-width:0.3;" width="3" x="383.7" y="203.1451"/><rect fill="#FFFFFF" height="9.3873" style="stroke:#181818;stroke-width:0.3;" width="3" x="415.8" y="221.9197"/><rect fill="#FFFFFF" height="23.8629" style="stroke:#181818;stroke-width:0.3;" width="3" x="530.4" y="240.6943"/><line style="stroke:#181818;stroke-width:0.15;stroke-dasharray:5.0,5.0;" x1="19.8" x2="19.8" y1="30.6727" y2="288.7318"/><line style="stroke:#181818;stroke-width:0.15;stroke-dasharray:5.0,5.0;" x1="110.55" x2="110.55" y1="30.6727" y2="288.7318"/><line style="stroke:#181818;stroke-width:0.15;stroke-dasharray:5.0,5.0;" x1="326.4" x2="326.4" y1="52.6031" y2="288.7318"/><line style="stroke:#181818;stroke-width:0.15;stroke-dasharray:5.0,5.0;" x1="385.05" x2="385.05" y1="30.6727" y2="288.7318"/><line style="stroke:#181818;stroke-width:0.15;stroke-dasharray:5.0,5.0;" x1="417.15" x2="417.15" y1="30.6727" y2="288.7318"/><line style="stroke:#181818;stroke-width:0.15;stroke-dasharray:5.0,5.0;" x1="450.45" x2="450.45" y1="30.6727" y2="288.7318"/><line style="stroke:#181818;stroke-width:0.15;stroke-dasharray:5.0,5.0;" x1="531.75" x2="531.75" y1="30.6727" y2="288.7318"/><text fill="#000000" font-family="sans-serif" font-size="4.2" lengthAdjust="spacing" textLength="34.8" x="1.5" y="24.0322">Human Resources</text><text fill="#000000" font-family="sans-serif" font-size="4.2" lengthAdjust="spacing" textLength="16.8" x="10.5" y="29.6186">Manager</text><ellipse cx="19.8" cy="4.05" fill="#E3E3E3" rx="2.4" ry="2.4" style="stroke:#181818;stroke-width:0.15;"/><path d="M19.8,6.45 L19.8,14.55 M15.9,8.85 L23.7,8.85 M19.8,14.55 L15.9,19.05 M19.8,14.55 L23.7,19.05 " fill="none" style="stroke:#181818;stroke-width:0.15;"/><text fill="#000000" font-family="sans-serif" font-size="4.2" lengthAdjust="spacing" textLength="34.8" x="1.5" y="292.9641">Human Resources</text><text fill="#000000" font-family="sans-serif" font-size="4.2" lengthAdjust="spacing" textLength="16.8" x="10.5" y="298.5504">Manager</text><ellipse cx="19.8" cy="302.1545" fill="#E3E3E3" rx="2.4" ry="2.4" style="stroke:#181818;stroke-width:0.15;"/><path d="M19.8,304.5545 L19.8,312.6545 M15.9,306.9545 L23.7,306.9545 M19.8,312.6545 L15.9,317.1545 M19.8,312.6545 L23.7,317.1545 " fill="none" style="stroke:#181818;stroke-width:0.15;"/><rect fill="#E3E3E3" height="9.7863" rx="0.75" ry="0.75" style="stroke:#181818;stroke-width:0.15;" width="48.3" x="86.55" y="20.5863"/><text fill="#000000" font-family="sans-serif" font-size="4.2" lengthAdjust="spacing" textLength="44.1" x="88.65" y="27.2186">:RegisterCollaboratorUI</text><rect fill="#E3E3E3" height="9.7863" rx="0.75" ry="0.75" style="stroke:#181818;stroke-width:0.15;" width="48.3" x="86.55" y="288.4318"/><text fill="#000000" font-family="sans-serif" font-size="4.2" lengthAdjust="spacing" textLength="44.1" x="88.65" y="295.0641">:RegisterCollaboratorUI</text><rect fill="#E3E3E3" height="9.7863" rx="0.75" ry="0.75" style="stroke:#181818;stroke-width:0.15;" width="64.2" x="294.3" y="288.4318"/><text fill="#000000" font-family="sans-serif" font-size="4.2" lengthAdjust="spacing" textLength="60" x="296.4" y="295.0641">:RegisterCollaboratorControlller</text><rect fill="#E3E3E3" height="9.7863" rx="0.75" ry="0.75" style="stroke:#181818;stroke-width:0.15;" width="29.1" x="370.65" y="20.5863"/><text fill="#000000" font-family="sans-serif" font-size="4.2" lengthAdjust="spacing" textLength="24.9" x="372.75" y="27.2186">:Repositories</text><rect fill="#E3E3E3" height="9.7863" rx="0.75" ry="0.75" style="stroke:#181818;stroke-width:0.15;" width="29.1" x="370.65" y="288.4318"/><text fill="#000000" font-family="sans-serif" font-size="4.2" lengthAdjust="spacing" textLength="24.9" x="372.75" y="295.0641">:Repositories</text><rect fill="#E3E3E3" height="15.3727" rx="0.75" ry="0.75" style="stroke:#181818;stroke-width:0.15;" width="29.1" x="402.75" y="15"/><text fill="#000000" font-family="sans-serif" font-size="4.2" lengthAdjust="spacing" textLength="22.2" x="406.2" y="21.6322">repositories</text><text fill="#000000" font-family="sans-serif" font-size="4.2" lengthAdjust="spacing" textLength="24.9" x="404.85" y="27.2186">:Repositories</text><rect fill="#E3E3E3" height="15.3727" rx="0.75" ry="0.75" style="stroke:#181818;stroke-width:0.15;" width="29.1" x="402.75" y="288.4318"/><text fill="#000000" font-family="sans-serif" font-size="4.2" lengthAdjust="spacing" textLength="22.2" x="406.2" y="295.0641">repositories</text><text fill="#000000" font-family="sans-serif" font-size="4.2" lengthAdjust="spacing" textLength="24.9" x="404.85" y="300.6504">:Repositories</text><rect fill="#E3E3E3" height="15.3727" rx="0.75" ry="0.75" style="stroke:#181818;stroke-width:0.15;" width="31.5" x="434.85" y="15"/><text fill="#000000" font-family="sans-serif" font-size="4.2" lengthAdjust="spacing" textLength="27.3" x="436.95" y="21.6322">jobRepository:</text><text fill="#000000" font-family="sans-serif" font-size="4.2" lengthAdjust="spacing" textLength="26.1" x="437.55" y="27.2186">jobRepository</text><rect fill="#E3E3E3" height="15.3727" rx="0.75" ry="0.75" style="stroke:#181818;stroke-width:0.15;" width="31.5" x="434.85" y="288.4318"/><text fill="#000000" font-family="sans-serif" font-size="4.2" lengthAdjust="spacing" textLength="27.3" x="436.95" y="295.0641">jobRepository:</text><text fill="#000000" font-family="sans-serif" font-size="4.2" lengthAdjust="spacing" textLength="26.1" x="437.55" y="300.6504">jobRepository</text><rect fill="#E3E3E3" height="15.3727" rx="0.75" ry="0.75" style="stroke:#181818;stroke-width:0.15;" width="48.3" x="507.75" y="15"/><text fill="#000000" font-family="sans-serif" font-size="4.2" lengthAdjust="spacing" textLength="44.1" x="509.85" y="21.6322">collaboratorRepository:</text><text fill="#000000" font-family="sans-serif" font-size="4.2" lengthAdjust="spacing" textLength="42.9" x="510.45" y="27.2186">collaboratorRepository</text><rect fill="#E3E3E3" height="15.3727" rx="0.75" ry="0.75" style="stroke:#181818;stroke-width:0.15;" width="48.3" x="507.75" y="288.4318"/><text fill="#000000" font-family="sans-serif" font-size="4.2" lengthAdjust="spacing" textLength="44.1" x="509.85" y="295.0641">collaboratorRepository:</text><text fill="#000000" font-family="sans-serif" font-size="4.2" lengthAdjust="spacing" textLength="42.9" x="510.45" y="300.6504">collaboratorRepository</text><rect fill="#FFFFFF" height="249.6592" style="stroke:#181818;stroke-width:0.3;" width="3" x="18.3" y="33.6727"/><rect fill="#FFFFFF" height="22.4736" style="stroke:#181818;stroke-width:0.3;" width="3" x="109.2" y="40.66"/><rect fill="#FFFFFF" height="42.6375" style="stroke:#181818;stroke-width:0.3;" width="3" x="109.2" y="72.5209"/><rect fill="#FFFFFF" height="9.3873" style="stroke:#181818;stroke-width:0.3;" width="3" x="109.2" y="124.5457"/><rect fill="#FFFFFF" height="140.0115" style="stroke:#181818;stroke-width:0.3;" width="3" x="109.2" y="143.3203"/><rect fill="#FFFFFF" height="23.8629" style="stroke:#181818;stroke-width:0.3;" width="3" x="324.9" y="81.9082"/><rect fill="#FFFFFF" height="121.2369" style="stroke:#181818;stroke-width:0.3;" width="3" x="324.9" y="152.7076"/><rect fill="#FFFFFF" height="27.1629" style="stroke:#181818;stroke-width:0.3;" width="3" x="326.4" y="164.4949"/><rect fill="#FFFFFF" height="9.3873" style="stroke:#181818;stroke-width:0.3;" width="3" x="383.7" y="203.1451"/><rect fill="#FFFFFF" height="9.3873" style="stroke:#181818;stroke-width:0.3;" width="3" x="415.8" y="221.9197"/><rect fill="#FFFFFF" height="23.8629" style="stroke:#181818;stroke-width:0.3;" width="3" x="530.4" y="240.6943"/><polygon fill="#181818" points="105.6,39.46,108.6,40.66,105.6,41.86,106.8,40.66" style="stroke:#181818;stroke-width:0.3;"/><line style="stroke:#181818;stroke-width:0.3;" x1="21.3" x2="107.4" y1="40.66" y2="40.66"/><text fill="#000000" font-family="sans-serif" font-size="3.9" font-weight="bold" lengthAdjust="spacing" textLength="2.1" x="23.4" y="39.0812">1</text><text fill="#000000" font-family="sans-serif" font-size="3.9" lengthAdjust="spacing" textLength="59.7" x="26.7" y="39.0812">asks to register a new collaborator</text><polygon fill="#181818" points="290.7,48.8473,293.7,50.0473,290.7,51.2473,291.9,50.0473" style="stroke:#181818;stroke-width:0.3;"/><line style="stroke:#181818;stroke-width:0.3;" x1="112.2" x2="292.5" y1="50.0473" y2="50.0473"/><text fill="#000000" font-family="sans-serif" font-size="3.9" font-weight="bold" lengthAdjust="spacing" textLength="2.1" x="114.3" y="48.4685">2</text><text fill="#000000" font-family="sans-serif" font-size="3.9" lengthAdjust="spacing" textLength="10.8" x="117.6" y="48.4685">create</text><rect fill="#E3E3E3" height="9.7863" rx="0.75" ry="0.75" style="stroke:#181818;stroke-width:0.15;" width="64.2" x="294.3" y="43.06"/><text fill="#000000" font-family="sans-serif" font-size="4.2" lengthAdjust="spacing" textLength="60" x="296.4" y="49.6922">:RegisterCollaboratorControlller</text><polygon fill="#181818" points="24.6,61.9336,21.6,63.1336,24.6,64.3336,23.4,63.1336" style="stroke:#181818;stroke-width:0.3;"/><line style="stroke:#181818;stroke-width:0.3;stroke-dasharray:2.0,2.0;" x1="22.8" x2="110.4" y1="63.1336" y2="63.1336"/><text fill="#000000" font-family="sans-serif" font-size="3.9" font-weight="bold" lengthAdjust="spacing" textLength="2.1" x="26.4" y="61.5548">3</text><text fill="#000000" font-family="sans-serif" font-size="3.9" lengthAdjust="spacing" textLength="23.7" x="29.7" y="61.5548">requests data</text><polygon fill="#181818" points="105.6,71.3209,108.6,72.5209,105.6,73.7209,106.8,72.5209" style="stroke:#181818;stroke-width:0.3;"/><line style="stroke:#181818;stroke-width:0.3;" x1="21.3" x2="107.4" y1="72.5209" y2="72.5209"/><text fill="#000000" font-family="sans-serif" font-size="3.9" font-weight="bold" lengthAdjust="spacing" textLength="2.1" x="23.4" y="70.9421">4</text><text fill="#000000" font-family="sans-serif" font-size="3.9" lengthAdjust="spacing" textLength="50.4" x="26.7" y="70.9421">types/selects requested data</text><polygon fill="#181818" points="321.3,80.7082,324.3,81.9082,321.3,83.1082,322.5,81.9082" style="stroke:#181818;stroke-width:0.3;"/><line style="stroke:#181818;stroke-width:0.3;" x1="112.2" x2="323.1" y1="81.9082" y2="81.9082"/><text fill="#000000" font-family="sans-serif" font-size="3.9" font-weight="bold" lengthAdjust="spacing" textLength="2.1" x="114.3" y="80.3294">5</text><text fill="#000000" font-family="sans-serif" font-size="3.9" lengthAdjust="spacing" textLength="22.2" x="117.6" y="80.3294">getJobsList()</text><rect fill="none" height="12.9756" style="stroke:#000000;stroke-width:0.44999999999999996;" width="66" x="293.4" y="84.3082"/><path d="M293.4,84.3082 L312,84.3082 L312,87.0082 L309,90.0082 L293.4,90.0082 L293.4,84.3082 " fill="#EEEEEE" style="stroke:#000000;stroke-width:0.6;"/><text fill="#000000" font-family="sans-serif" font-size="3.9" font-weight="bold" lengthAdjust="spacing" textLength="5.1" x="297.3" y="89.1167">ref</text><text fill="#000000" font-family="sans-serif" font-size="3.6" lengthAdjust="spacing" textLength="21.6" x="315.6" y="95.093">Get Jobs List</text><polygon fill="#181818" points="115.5,104.5711,112.5,105.7711,115.5,106.9711,114.3,105.7711" style="stroke:#181818;stroke-width:0.3;"/><line style="stroke:#181818;stroke-width:0.3;stroke-dasharray:2.0,2.0;" x1="113.7" x2="326.1" y1="105.7711" y2="105.7711"/><text fill="#000000" font-family="sans-serif" font-size="3.9" font-weight="bold" lengthAdjust="spacing" textLength="2.1" x="117.3" y="104.1923">6</text><text fill="#000000" font-family="sans-serif" font-size="3.9" lengthAdjust="spacing" textLength="14.4" x="120.6" y="104.1923">JobsList</text><polygon fill="#181818" points="24.6,113.9584,21.6,115.1584,24.6,116.3584,23.4,115.1584" style="stroke:#181818;stroke-width:0.3;"/><line style="stroke:#181818;stroke-width:0.3;stroke-dasharray:2.0,2.0;" x1="22.8" x2="110.4" y1="115.1584" y2="115.1584"/><text fill="#000000" font-family="sans-serif" font-size="3.9" font-weight="bold" lengthAdjust="spacing" textLength="2.1" x="26.4" y="113.5796">7</text><text fill="#000000" font-family="sans-serif" font-size="3.9" lengthAdjust="spacing" textLength="77.4" x="29.7" y="113.5796">shows the list of jobs and asks to select one</text><polygon fill="#181818" points="105.6,123.3457,108.6,124.5457,105.6,125.7457,106.8,124.5457" style="stroke:#181818;stroke-width:0.3;"/><line style="stroke:#181818;stroke-width:0.3;" x1="21.3" x2="107.4" y1="124.5457" y2="124.5457"/><text fill="#000000" font-family="sans-serif" font-size="3.9" font-weight="bold" lengthAdjust="spacing" textLength="2.1" x="23.4" y="122.9669">8</text><text fill="#000000" font-family="sans-serif" font-size="3.9" lengthAdjust="spacing" textLength="25.5" x="26.7" y="122.9669">selects the job</text><polygon fill="#181818" points="24.6,132.733,21.6,133.933,24.6,135.133,23.4,133.933" style="stroke:#181818;stroke-width:0.3;"/><line style="stroke:#181818;stroke-width:0.3;stroke-dasharray:2.0,2.0;" x1="22.8" x2="110.4" y1="133.933" y2="133.933"/><text fill="#000000" font-family="sans-serif" font-size="3.9" font-weight="bold" lengthAdjust="spacing" textLength="2.1" x="26.4" y="132.3542">9</text><text fill="#000000" font-family="sans-serif" font-size="3.9" lengthAdjust="spacing" textLength="70.8" x="29.7" y="132.3542">shows all data and requests confirmation</text><polygon fill="#181818" points="105.6,142.1203,108.6,143.3203,105.6,144.5203,106.8,143.3203" style="stroke:#181818;stroke-width:0.3;"/><line style="stroke:#181818;stroke-width:0.3;" x1="21.3" x2="107.4" y1="143.3203" y2="143.3203"/><text fill="#000000" font-family="sans-serif" font-size="3.9" font-weight="bold" lengthAdjust="spacing" textLength="4.2" x="23.4" y="141.7415">10</text><text fill="#000000" font-family="sans-serif" font-size="3.9" lengthAdjust="spacing" textLength="23.4" x="28.8" y="141.7415">confirms data</text><polygon fill="#181818" points="321.3,151.5076,324.3,152.7076,321.3,153.9076,322.5,152.7076" style="stroke:#181818;stroke-width:0.3;"/><line style="stroke:#181818;stroke-width:0.3;" x1="112.2" x2="323.1" y1="152.7076" y2="152.7076"/><text fill="#000000" font-family="sans-serif" font-size="3.9" font-weight="bold" lengthAdjust="spacing" textLength="4.2" x="114.3" y="151.1288">11</text><text fill="#000000" font-family="sans-serif" font-size="3.9" lengthAdjust="spacing" textLength="201.6" x="119.7" y="151.1288">registerCollaborator(name, birthday, admissionDate, address, phoneNumber, email, idDocType, idNumber, jobName)</text><line style="stroke:#181818;stroke-width:0.3;" x1="327.9" x2="342" y1="160.5949" y2="160.5949"/><line style="stroke:#181818;stroke-width:0.3;" x1="342" x2="342" y1="160.5949" y2="164.4949"/><line style="stroke:#181818;stroke-width:0.3;" x1="329.7" x2="342" y1="164.4949" y2="164.4949"/><polygon fill="#181818" points="332.7,163.2949,329.7,164.4949,332.7,165.6949,331.5,164.4949" style="stroke:#181818;stroke-width:0.3;"/><text fill="#000000" font-family="sans-serif" font-size="3.9" font-weight="bold" lengthAdjust="spacing" textLength="4.2" x="331.5" y="159.0161">12</text><text fill="#000000" font-family="sans-serif" font-size="3.9" lengthAdjust="spacing" textLength="46.2" x="336.9" y="159.0161">getJobsByName(jobName)</text><rect fill="none" height="12.9756" style="stroke:#000000;stroke-width:0.44999999999999996;" width="66" x="293.4" y="168.3949"/><path d="M293.4,168.3949 L312,168.3949 L312,171.0949 L309,174.0949 L293.4,174.0949 L293.4,168.3949 " fill="#EEEEEE" style="stroke:#000000;stroke-width:0.6;"/><text fill="#000000" font-family="sans-serif" font-size="3.9" font-weight="bold" lengthAdjust="spacing" textLength="5.1" x="297.3" y="173.2034">ref</text><text fill="#000000" font-family="sans-serif" font-size="3.6" lengthAdjust="spacing" textLength="24" x="314.4" y="179.1797">Get Job Object</text><line style="stroke:#181818;stroke-width:0.3;stroke-dasharray:2.0,2.0;" x1="329.4" x2="342" y1="191.3578" y2="191.3578"/><line style="stroke:#181818;stroke-width:0.3;stroke-dasharray:2.0,2.0;" x1="342" x2="342" y1="191.3578" y2="195.2578"/><line style="stroke:#181818;stroke-width:0.3;stroke-dasharray:2.0,2.0;" x1="327.9" x2="342" y1="195.2578" y2="195.2578"/><polygon fill="#181818" points="330.9,194.0578,327.9,195.2578,330.9,196.4578,329.7,195.2578" style="stroke:#181818;stroke-width:0.3;"/><text fill="#000000" font-family="sans-serif" font-size="3.9" font-weight="bold" lengthAdjust="spacing" textLength="4.2" x="331.5" y="189.779">13</text><text fill="#000000" font-family="sans-serif" font-size="3.9" lengthAdjust="spacing" textLength="5.1" x="336.9" y="189.779">job</text><polygon fill="#181818" points="380.1,201.9451,383.1,203.1451,380.1,204.3451,381.3,203.1451" style="stroke:#181818;stroke-width:0.3;"/><line style="stroke:#181818;stroke-width:0.3;" x1="327.9" x2="381.9" y1="203.1451" y2="203.1451"/><text fill="#000000" font-family="sans-serif" font-size="3.9" font-weight="bold" lengthAdjust="spacing" textLength="4.2" x="330" y="201.5663">14</text><text fill="#000000" font-family="sans-serif" font-size="3.9" lengthAdjust="spacing" textLength="22.5" x="335.4" y="201.5663">getInstance()</text><polygon fill="#181818" points="331.2,211.3324,328.2,212.5324,331.2,213.7324,330,212.5324" style="stroke:#181818;stroke-width:0.3;"/><line style="stroke:#181818;stroke-width:0.3;stroke-dasharray:2.0,2.0;" x1="329.4" x2="384.9" y1="212.5324" y2="212.5324"/><text fill="#000000" font-family="sans-serif" font-size="3.9" font-weight="bold" lengthAdjust="spacing" textLength="4.2" x="333" y="210.9536">15</text><text fill="#000000" font-family="sans-serif" font-size="3.9" lengthAdjust="spacing" textLength="20.1" x="338.4" y="210.9536">repositories</text><polygon fill="#181818" points="412.2,220.7197,415.2,221.9197,412.2,223.1197,413.4,221.9197" style="stroke:#181818;stroke-width:0.3;"/><line style="stroke:#181818;stroke-width:0.3;" x1="327.9" x2="414" y1="221.9197" y2="221.9197"/><text fill="#000000" font-family="sans-serif" font-size="3.9" font-weight="bold" lengthAdjust="spacing" textLength="4.2" x="330" y="220.3409">16</text><text fill="#000000" font-family="sans-serif" font-size="3.9" lengthAdjust="spacing" textLength="47.1" x="335.4" y="220.3409">getCollaboratorRepository()</text><polygon fill="#181818" points="331.2,230.107,328.2,231.307,331.2,232.507,330,231.307" style="stroke:#181818;stroke-width:0.3;"/><line style="stroke:#181818;stroke-width:0.3;stroke-dasharray:2.0,2.0;" x1="329.4" x2="417" y1="231.307" y2="231.307"/><text fill="#000000" font-family="sans-serif" font-size="3.9" font-weight="bold" lengthAdjust="spacing" textLength="4.2" x="333" y="229.7282">17</text><text fill="#000000" font-family="sans-serif" font-size="3.9" lengthAdjust="spacing" textLength="38.7" x="338.4" y="229.7282">collaboratorRepository</text><polygon fill="#181818" points="526.8,239.4943,529.8,240.6943,526.8,241.8943,528,240.6943" style="stroke:#181818;stroke-width:0.3;"/><line style="stroke:#181818;stroke-width:0.3;" x1="327.9" x2="528.6" y1="240.6943" y2="240.6943"/><text fill="#000000" font-family="sans-serif" font-size="3.9" font-weight="bold" lengthAdjust="spacing" textLength="4.2" x="330" y="239.1155">18</text><text fill="#000000" font-family="sans-serif" font-size="3.9" lengthAdjust="spacing" textLength="191.4" x="335.4" y="239.1155">registerCollaborator(name, birthday, admissionDate, address, phoneNumber, email, idDocType, idNumber, job)</text><rect fill="none" height="12.9756" style="stroke:#000000;stroke-width:0.44999999999999996;" width="50.1" x="506.85" y="243.0943"/><path d="M506.85,243.0943 L525.45,243.0943 L525.45,245.7943 L522.45,248.7943 L506.85,248.7943 L506.85,243.0943 " fill="#EEEEEE" style="stroke:#000000;stroke-width:0.6;"/><text fill="#000000" font-family="sans-serif" font-size="3.9" font-weight="bold" lengthAdjust="spacing" textLength="5.1" x="510.75" y="247.9028">ref</text><text fill="#000000" font-family="sans-serif" font-size="3.6" lengthAdjust="spacing" textLength="35.4" x="514.2" y="253.8791">Register Collaborator</text><polygon fill="#181818" points="331.2,263.3572,328.2,264.5572,331.2,265.7572,330,264.5572" style="stroke:#181818;stroke-width:0.3;"/><line style="stroke:#181818;stroke-width:0.3;stroke-dasharray:2.0,2.0;" x1="329.4" x2="531.6" y1="264.5572" y2="264.5572"/><text fill="#000000" font-family="sans-serif" font-size="3.9" font-weight="bold" lengthAdjust="spacing" textLength="4.2" x="333" y="262.9784">19</text><text fill="#000000" font-family="sans-serif" font-size="3.9" lengthAdjust="spacing" textLength="20.1" x="338.4" y="262.9784">collaborator</text><polygon fill="#181818" points="115.5,272.7445,112.5,273.9445,115.5,275.1445,114.3,273.9445" style="stroke:#181818;stroke-width:0.3;"/><line style="stroke:#181818;stroke-width:0.3;stroke-dasharray:2.0,2.0;" x1="113.7" x2="326.1" y1="273.9445" y2="273.9445"/><text fill="#000000" font-family="sans-serif" font-size="3.9" font-weight="bold" lengthAdjust="spacing" textLength="4.2" x="117.3" y="272.3657">20</text><text fill="#000000" font-family="sans-serif" font-size="3.9" lengthAdjust="spacing" textLength="20.1" x="122.7" y="272.3657">collaborator</text><polygon fill="#181818" points="23.1,282.1318,20.1,283.3318,23.1,284.5318,21.9,283.3318" style="stroke:#181818;stroke-width:0.3;"/><line style="stroke:#181818;stroke-width:0.3;stroke-dasharray:2.0,2.0;" x1="21.3" x2="110.4" y1="283.3318" y2="283.3318"/><text fill="#000000" font-family="sans-serif" font-size="3.9" font-weight="bold" lengthAdjust="spacing" textLength="4.2" x="24.9" y="281.753">21</text><text fill="#000000" font-family="sans-serif" font-size="3.9" lengthAdjust="spacing" textLength="47.4" x="30.3" y="281.753">displays operation success</text><!--SRC=[lLQnSjim3Dtr5RWiTNFETVVGeKwlIIz9UtQoPO4as68YaIf19VNV5wGZcOgas5CvYGJmyFW0W-PdfMkqM45bjCaAQoe2PnjAkBFKc3tZbjPkLn9OoXpgRHaxS86vULLw2niicP846sTqKwLaa-HJeNA2ZJ4kDNyJp9onS7RLLAXXHMmQcn4_wblKaiAU0J9ShMuJ0NOgKpLg1sUB5MqLEx9BKvQO6ei2yd0Td1-kJ_1T6ksixCkt3ClxrSqWh3Qin5SH1v_Lzzzz5njvFEhHW7K_uicadTTkyQXx-n3JE-a7Pn7_7igu8S2DcnAlkdf1Hq7Q16J91rny5VLW8O7F3Cv8QVVA0OAcrnvOYEbGHFDmu9SW28uNzFnSi39Buh4tUvFOVAg5WFzfY1r3ZWw3EQS1OCpAxMhYBqobD1otuPGVue_G4OWjkPycvHkvrUnpvzB5XIxeZlsoj07p8We44xnRFyY1nmCFsBEIpdti0ImGk6YlqfBepD7L3oHwSd5XNgKe1K4fWM0slbKOK1ArvTfB0qRJANAsGdf8WHfNS8G2bcMGFAJkYfWPlL6sGgUCFYNxcp-VNBr5rutnxtYciQ8vfCgw8iVT732l5BEGk1GelyqjCS-XBaIMkp21va0Lgd8EAhyqsRrqbVziRIB5dM2Ur1txehRytfhhsyx7pmOuHx2ETrlKSV0hVPBY3Lm6RTThlJtDjjOVjjxx6yee2nUyrYp3FgFPnBtyZEnPv23A7K_CAH83Y8Z3Ef1OZWwr3oYj1vpM4Qc96JbDRptERs8-_x- -dH1WwWsOxBuJ1EcaR5-8vVktuMXRZcUPgCjKDOxTBHgx4u179ky2SiLrYJi6KvCDymsuoUG_2e_DkMZhdzP_]--></g></svg>