<?xml version="1.0" encoding="us-ascii" standalone="no"?><svg xmlns="http://www.w3.org/2000/svg" xmlns:xlink="http://www.w3.org/1999/xlink" contentStyleType="text/css" height="516.5px" preserveAspectRatio="none" style="width:502px;height:516px;background:#FFFFFF;" version="1.1" viewBox="0 0 502 516" width="502px" zoomAndPan="magnify"><defs/><g><!--class RegisterCollaboratorUI--><g id="elem_RegisterCollaboratorUI"><rect codeLine="11" fill="#F1F1F1" height="24" id="RegisterCollaboratorUI" rx="1.25" ry="1.25" style="stroke:#181818;stroke-width:0.25;" width="87.5" x="266" y="3.5"/><ellipse cx="273.5" cy="11.5" fill="#ADD1B2" rx="5.5" ry="5.5" style="stroke:#181818;stroke-width:0.5;"/><path d="M274.8828,9.4375 Q274.9609,9.3281 275.0547,9.2734 Q275.1484,9.2188 275.2578,9.2188 Q275.4453,9.2188 275.5625,9.3516 Q275.6797,9.4766 275.6797,9.7813 L275.6797,10.5078 Q275.6797,10.8125 275.5625,10.9453 Q275.4453,11.0781 275.2578,11.0781 Q275.0859,11.0781 274.9844,10.9766 Q274.8828,10.8828 274.8281,10.625 Q274.8047,10.4453 274.7109,10.3516 Q274.5469,10.1641 274.2422,10.0547 Q273.9375,9.9453 273.625,9.9453 Q273.2422,9.9453 272.9219,10.1094 Q272.6094,10.2734 272.3594,10.6484 Q272.1172,11.0234 272.1172,11.5391 L272.1172,12.0859 Q272.1172,12.7031 272.5625,13.1172 Q273.0078,13.5234 273.8047,13.5234 Q274.2734,13.5234 274.6016,13.3984 Q274.7969,13.3203 275.0078,13.1016 Q275.1406,12.9688 275.2109,12.9297 Q275.2891,12.8906 275.3906,12.8906 Q275.5547,12.8906 275.6797,13.0234 Q275.8125,13.1484 275.8125,13.3203 Q275.8125,13.4922 275.6406,13.6953 Q275.3906,13.9844 274.9922,14.1484 Q274.4531,14.375 273.8047,14.375 Q273.0469,14.375 272.4453,14.0625 Q271.9531,13.8125 271.6094,13.2813 Q271.2656,12.7422 271.2656,12.1016 L271.2656,11.5234 Q271.2656,10.8594 271.5703,10.2891 Q271.8828,9.7109 272.4297,9.4063 Q272.9766,9.0938 273.5938,9.0938 Q273.9609,9.0938 274.2813,9.1797 Q274.6094,9.2578 274.8828,9.4375 Z " fill="#000000"/><text fill="#000000" font-family="sans-serif" font-size="7" lengthAdjust="spacing" textLength="71.5" x="280.5" y="14.3984">RegisterCollaboratorUI</text><line style="stroke:#181818;stroke-width:0.25;" x1="266.5" x2="353" y1="19.5" y2="19.5"/><line style="stroke:#181818;stroke-width:0.25;" x1="266.5" x2="353" y1="23.5" y2="23.5"/></g><!--class RegisterCollaboratorController--><g id="elem_RegisterCollaboratorController"><rect codeLine="14" fill="#F1F1F1" height="61.2422" id="RegisterCollaboratorController" rx="1.25" ry="1.25" style="stroke:#181818;stroke-width:0.25;" width="377.5" x="121" y="58"/><ellipse cx="259.375" cy="66" fill="#ADD1B2" rx="5.5" ry="5.5" style="stroke:#181818;stroke-width:0.5;"/><path d="M260.7578,63.9375 Q260.8359,63.8281 260.9297,63.7734 Q261.0234,63.7188 261.1328,63.7188 Q261.3203,63.7188 261.4375,63.8516 Q261.5547,63.9766 261.5547,64.2813 L261.5547,65.0078 Q261.5547,65.3125 261.4375,65.4453 Q261.3203,65.5781 261.1328,65.5781 Q260.9609,65.5781 260.8594,65.4766 Q260.7578,65.3828 260.7031,65.125 Q260.6797,64.9453 260.5859,64.8516 Q260.4219,64.6641 260.1172,64.5547 Q259.8125,64.4453 259.5,64.4453 Q259.1172,64.4453 258.7969,64.6094 Q258.4844,64.7734 258.2344,65.1484 Q257.9922,65.5234 257.9922,66.0391 L257.9922,66.5859 Q257.9922,67.2031 258.4375,67.6172 Q258.8828,68.0234 259.6797,68.0234 Q260.1484,68.0234 260.4766,67.8984 Q260.6719,67.8203 260.8828,67.6016 Q261.0156,67.4688 261.0859,67.4297 Q261.1641,67.3906 261.2656,67.3906 Q261.4297,67.3906 261.5547,67.5234 Q261.6875,67.6484 261.6875,67.8203 Q261.6875,67.9922 261.5156,68.1953 Q261.2656,68.4844 260.8672,68.6484 Q260.3281,68.875 259.6797,68.875 Q258.9219,68.875 258.3203,68.5625 Q257.8281,68.3125 257.4844,67.7813 Q257.1406,67.2422 257.1406,66.6016 L257.1406,66.0234 Q257.1406,65.3594 257.4453,64.7891 Q257.7578,64.2109 258.3047,63.9063 Q258.8516,63.5938 259.4688,63.5938 Q259.8359,63.5938 260.1563,63.6797 Q260.4844,63.7578 260.7578,63.9375 Z " fill="#000000"/><text fill="#000000" font-family="sans-serif" font-size="7" lengthAdjust="spacing" textLength="96.5" x="269.625" y="68.8984">RegisterCollaboratorController</text><line style="stroke:#181818;stroke-width:0.25;" x1="121.5" x2="498" y1="74" y2="74"/><line style="stroke:#181818;stroke-width:0.25;" x1="121.5" x2="498" y1="78" y2="78"/><text fill="#000000" font-family="sans-serif" font-size="7" lengthAdjust="spacing" textLength="224.5" x="124" y="87.5537">+RegisterCollaboratorController(collaboratorRepository, jobRepository)</text><text fill="#000000" font-family="sans-serif" font-size="7" lengthAdjust="spacing" textLength="371.5" x="124" y="96.8643">+registerCollaborator(name, birthday, admissionDate, address, phoneNumber, email, idDocType, idNumber, jobName)</text><text fill="#000000" font-family="sans-serif" font-size="7" lengthAdjust="spacing" textLength="82" x="124" y="106.1748">-getJobByName(jobName)</text><text fill="#000000" font-family="sans-serif" font-size="7" lengthAdjust="spacing" textLength="44.5" x="124" y="115.4854">+getJobsList()</text></g><!--class CollaboratorRepository--><g id="elem_CollaboratorRepository"><rect codeLine="21" fill="#F1F1F1" height="51.9316" id="CollaboratorRepository" rx="1.25" ry="1.25" style="stroke:#181818;stroke-width:0.25;" width="359.5" x="3.5" y="250"/><ellipse cx="144.625" cy="258" fill="#ADD1B2" rx="5.5" ry="5.5" style="stroke:#181818;stroke-width:0.5;"/><path d="M146.0078,255.9375 Q146.0859,255.8281 146.1797,255.7734 Q146.2734,255.7188 146.3828,255.7188 Q146.5703,255.7188 146.6875,255.8516 Q146.8047,255.9766 146.8047,256.2813 L146.8047,257.0078 Q146.8047,257.3125 146.6875,257.4453 Q146.5703,257.5781 146.3828,257.5781 Q146.2109,257.5781 146.1094,257.4766 Q146.0078,257.3828 145.9531,257.125 Q145.9297,256.9453 145.8359,256.8516 Q145.6719,256.6641 145.3672,256.5547 Q145.0625,256.4453 144.75,256.4453 Q144.3672,256.4453 144.0469,256.6094 Q143.7344,256.7734 143.4844,257.1484 Q143.2422,257.5234 143.2422,258.0391 L143.2422,258.5859 Q143.2422,259.2031 143.6875,259.6172 Q144.1328,260.0234 144.9297,260.0234 Q145.3984,260.0234 145.7266,259.8984 Q145.9219,259.8203 146.1328,259.6016 Q146.2656,259.4688 146.3359,259.4297 Q146.4141,259.3906 146.5156,259.3906 Q146.6797,259.3906 146.8047,259.5234 Q146.9375,259.6484 146.9375,259.8203 Q146.9375,259.9922 146.7656,260.1953 Q146.5156,260.4844 146.1172,260.6484 Q145.5781,260.875 144.9297,260.875 Q144.1719,260.875 143.5703,260.5625 Q143.0781,260.3125 142.7344,259.7813 Q142.3906,259.2422 142.3906,258.6016 L142.3906,258.0234 Q142.3906,257.3594 142.6953,256.7891 Q143.0078,256.2109 143.5547,255.9063 Q144.1016,255.5938 144.7188,255.5938 Q145.0859,255.5938 145.4063,255.6797 Q145.7344,255.7578 146.0078,255.9375 Z " fill="#000000"/><text fill="#000000" font-family="sans-serif" font-size="7" lengthAdjust="spacing" textLength="73" x="154.875" y="260.8984">CollaboratorRepository</text><line style="stroke:#181818;stroke-width:0.25;" x1="4" x2="362.5" y1="266" y2="266"/><line style="stroke:#181818;stroke-width:0.25;" x1="4" x2="362.5" y1="270" y2="270"/><text fill="#000000" font-family="sans-serif" font-size="7" lengthAdjust="spacing" textLength="96" x="6.5" y="279.5537">-addCollaborator(collaborator)</text><text fill="#000000" font-family="sans-serif" font-size="7" lengthAdjust="spacing" textLength="108.5" x="6.5" y="288.8643">-validateCollaborator(collaborator)</text><text fill="#000000" font-family="sans-serif" font-size="7" lengthAdjust="spacing" textLength="353.5" x="6.5" y="298.1748">+registerCollaborator(name, birthday, admissionDate, address, phoneNumber, email, idDocType, idNumber, job)</text></g><!--class Collaborator--><g id="elem_Collaborator"><rect codeLine="27" fill="#F1F1F1" height="98.4844" id="Collaborator" rx="1.25" ry="1.25" style="stroke:#181818;stroke-width:0.25;" width="335.5" x="52.5" y="332.5"/><ellipse cx="198.625" cy="340.5" fill="#ADD1B2" rx="5.5" ry="5.5" style="stroke:#181818;stroke-width:0.5;"/><path d="M200.0078,338.4375 Q200.0859,338.3281 200.1797,338.2734 Q200.2734,338.2188 200.3828,338.2188 Q200.5703,338.2188 200.6875,338.3516 Q200.8047,338.4766 200.8047,338.7813 L200.8047,339.5078 Q200.8047,339.8125 200.6875,339.9453 Q200.5703,340.0781 200.3828,340.0781 Q200.2109,340.0781 200.1094,339.9766 Q200.0078,339.8828 199.9531,339.625 Q199.9297,339.4453 199.8359,339.3516 Q199.6719,339.1641 199.3672,339.0547 Q199.0625,338.9453 198.75,338.9453 Q198.3672,338.9453 198.0469,339.1094 Q197.7344,339.2734 197.4844,339.6484 Q197.2422,340.0234 197.2422,340.5391 L197.2422,341.0859 Q197.2422,341.7031 197.6875,342.1172 Q198.1328,342.5234 198.9297,342.5234 Q199.3984,342.5234 199.7266,342.3984 Q199.9219,342.3203 200.1328,342.1016 Q200.2656,341.9688 200.3359,341.9297 Q200.4141,341.8906 200.5156,341.8906 Q200.6797,341.8906 200.8047,342.0234 Q200.9375,342.1484 200.9375,342.3203 Q200.9375,342.4922 200.7656,342.6953 Q200.5156,342.9844 200.1172,343.1484 Q199.5781,343.375 198.9297,343.375 Q198.1719,343.375 197.5703,343.0625 Q197.0781,342.8125 196.7344,342.2813 Q196.3906,341.7422 196.3906,341.1016 L196.3906,340.5234 Q196.3906,339.8594 196.6953,339.2891 Q197.0078,338.7109 197.5547,338.4063 Q198.1016,338.0938 198.7188,338.0938 Q199.0859,338.0938 199.4063,338.1797 Q199.7344,338.2578 200.0078,338.4375 Z " fill="#000000"/><text fill="#000000" font-family="sans-serif" font-size="7" lengthAdjust="spacing" textLength="39" x="208.875" y="343.3984">Collaborator</text><line style="stroke:#181818;stroke-width:0.25;" x1="53" x2="387.5" y1="348.5" y2="348.5"/><text fill="#000000" font-family="sans-serif" font-size="7" lengthAdjust="spacing" textLength="40.5" x="55.5" y="358.0537">-String name</text><text fill="#000000" font-family="sans-serif" font-size="7" lengthAdjust="spacing" textLength="45" x="55.5" y="367.3643">-Date birthday</text><text fill="#000000" font-family="sans-serif" font-size="7" lengthAdjust="spacing" textLength="66" x="55.5" y="376.6748">-Date admissionDate</text><text fill="#000000" font-family="sans-serif" font-size="7" lengthAdjust="spacing" textLength="48.5" x="55.5" y="385.9854">-String address</text><text fill="#000000" font-family="sans-serif" font-size="7" lengthAdjust="spacing" textLength="56.5" x="55.5" y="395.2959">-int phoneNumber</text><text fill="#000000" font-family="sans-serif" font-size="7" lengthAdjust="spacing" textLength="39.5" x="55.5" y="404.6064">-String email</text><text fill="#000000" font-family="sans-serif" font-size="7" lengthAdjust="spacing" textLength="42" x="55.5" y="413.917">-int idNumber</text><line style="stroke:#181818;stroke-width:0.25;" x1="53" x2="387.5" y1="417.6738" y2="417.6738"/><text fill="#000000" font-family="sans-serif" font-size="7" lengthAdjust="spacing" textLength="329.5" x="55.5" y="427.2275">+Collaborator(name, birthday, admissionDate, address, phoneNumber, email, idDocType, idNumber, job)</text></g><!--class JobRepository--><g id="elem_JobRepository"><rect codeLine="38" fill="#F1F1F1" height="33.3105" id="JobRepository" rx="1.25" ry="1.25" style="stroke:#181818;stroke-width:0.25;" width="93" x="380.75" y="259.25"/><ellipse cx="402.65" cy="267.25" fill="#ADD1B2" rx="5.5" ry="5.5" style="stroke:#181818;stroke-width:0.5;"/><path d="M404.0328,265.1875 Q404.1109,265.0781 404.2047,265.0234 Q404.2984,264.9688 404.4078,264.9688 Q404.5953,264.9688 404.7125,265.1016 Q404.8297,265.2266 404.8297,265.5313 L404.8297,266.2578 Q404.8297,266.5625 404.7125,266.6953 Q404.5953,266.8281 404.4078,266.8281 Q404.2359,266.8281 404.1344,266.7266 Q404.0328,266.6328 403.9781,266.375 Q403.9547,266.1953 403.8609,266.1016 Q403.6969,265.9141 403.3922,265.8047 Q403.0875,265.6953 402.775,265.6953 Q402.3922,265.6953 402.0719,265.8594 Q401.7594,266.0234 401.5094,266.3984 Q401.2672,266.7734 401.2672,267.2891 L401.2672,267.8359 Q401.2672,268.4531 401.7125,268.8672 Q402.1578,269.2734 402.9547,269.2734 Q403.4234,269.2734 403.7516,269.1484 Q403.9469,269.0703 404.1578,268.8516 Q404.2906,268.7188 404.3609,268.6797 Q404.4391,268.6406 404.5406,268.6406 Q404.7047,268.6406 404.8297,268.7734 Q404.9625,268.8984 404.9625,269.0703 Q404.9625,269.2422 404.7906,269.4453 Q404.5406,269.7344 404.1422,269.8984 Q403.6031,270.125 402.9547,270.125 Q402.1969,270.125 401.5953,269.8125 Q401.1031,269.5625 400.7594,269.0313 Q400.4156,268.4922 400.4156,267.8516 L400.4156,267.2734 Q400.4156,266.6094 400.7203,266.0391 Q401.0328,265.4609 401.5797,265.1563 Q402.1266,264.8438 402.7438,264.8438 Q403.1109,264.8438 403.4313,264.9297 Q403.7594,265.0078 404.0328,265.1875 Z " fill="#000000"/><text fill="#000000" font-family="sans-serif" font-size="7" lengthAdjust="spacing" textLength="45" x="412.85" y="270.1484">JobRepository</text><line style="stroke:#181818;stroke-width:0.25;" x1="381.25" x2="473.25" y1="275.25" y2="275.25"/><line style="stroke:#181818;stroke-width:0.25;" x1="381.25" x2="473.25" y1="279.25" y2="279.25"/><text fill="#000000" font-family="sans-serif" font-size="7" lengthAdjust="spacing" textLength="87" x="383.75" y="288.8037">+getJobsByName(jobName)</text></g><!--class Job--><g id="elem_Job"><rect codeLine="42" fill="#F1F1F1" height="42.6211" id="Job" rx="1.25" ry="1.25" style="stroke:#181818;stroke-width:0.25;" width="46.5" x="347.5" y="466.25"/><ellipse cx="363.775" cy="474.25" fill="#ADD1B2" rx="5.5" ry="5.5" style="stroke:#181818;stroke-width:0.5;"/><path d="M365.1578,472.1875 Q365.2359,472.0781 365.3297,472.0234 Q365.4234,471.9688 365.5328,471.9688 Q365.7203,471.9688 365.8375,472.1016 Q365.9547,472.2266 365.9547,472.5313 L365.9547,473.2578 Q365.9547,473.5625 365.8375,473.6953 Q365.7203,473.8281 365.5328,473.8281 Q365.3609,473.8281 365.2594,473.7266 Q365.1578,473.6328 365.1031,473.375 Q365.0797,473.1953 364.9859,473.1016 Q364.8219,472.9141 364.5172,472.8047 Q364.2125,472.6953 363.9,472.6953 Q363.5172,472.6953 363.1969,472.8594 Q362.8844,473.0234 362.6344,473.3984 Q362.3922,473.7734 362.3922,474.2891 L362.3922,474.8359 Q362.3922,475.4531 362.8375,475.8672 Q363.2828,476.2734 364.0797,476.2734 Q364.5484,476.2734 364.8766,476.1484 Q365.0719,476.0703 365.2828,475.8516 Q365.4156,475.7188 365.4859,475.6797 Q365.5641,475.6406 365.6656,475.6406 Q365.8297,475.6406 365.9547,475.7734 Q366.0875,475.8984 366.0875,476.0703 Q366.0875,476.2422 365.9156,476.4453 Q365.6656,476.7344 365.2672,476.8984 Q364.7281,477.125 364.0797,477.125 Q363.3219,477.125 362.7203,476.8125 Q362.2281,476.5625 361.8844,476.0313 Q361.5406,475.4922 361.5406,474.8516 L361.5406,474.2734 Q361.5406,473.6094 361.8453,473.0391 Q362.1578,472.4609 362.7047,472.1563 Q363.2516,471.8438 363.8688,471.8438 Q364.2359,471.8438 364.5563,471.9297 Q364.8844,472.0078 365.1578,472.1875 Z " fill="#000000"/><text fill="#000000" font-family="sans-serif" font-size="7" lengthAdjust="spacing" textLength="11" x="372.725" y="477.1484">Job</text><line style="stroke:#181818;stroke-width:0.25;" x1="348" x2="393.5" y1="482.25" y2="482.25"/><text fill="#000000" font-family="sans-serif" font-size="7" lengthAdjust="spacing" textLength="40.5" x="350.5" y="491.8037">-String name</text><line style="stroke:#181818;stroke-width:0.25;" x1="348" x2="393.5" y1="495.5605" y2="495.5605"/><text fill="#000000" font-family="sans-serif" font-size="7" lengthAdjust="spacing" textLength="37.5" x="350.5" y="505.1143">+Job(name)</text></g><!--class Repositories--><g id="elem_Repositories"><rect codeLine="47" fill="#F1F1F1" height="61.2422" id="Repositories" rx="1.25" ry="1.25" style="stroke:#181818;stroke-width:0.25;" width="98" x="260.75" y="158.5"/><ellipse cx="287.875" cy="166.5" fill="#ADD1B2" rx="5.5" ry="5.5" style="stroke:#181818;stroke-width:0.5;"/><path d="M289.2578,164.4375 Q289.3359,164.3281 289.4297,164.2734 Q289.5234,164.2188 289.6328,164.2188 Q289.8203,164.2188 289.9375,164.3516 Q290.0547,164.4766 290.0547,164.7813 L290.0547,165.5078 Q290.0547,165.8125 289.9375,165.9453 Q289.8203,166.0781 289.6328,166.0781 Q289.4609,166.0781 289.3594,165.9766 Q289.2578,165.8828 289.2031,165.625 Q289.1797,165.4453 289.0859,165.3516 Q288.9219,165.1641 288.6172,165.0547 Q288.3125,164.9453 288,164.9453 Q287.6172,164.9453 287.2969,165.1094 Q286.9844,165.2734 286.7344,165.6484 Q286.4922,166.0234 286.4922,166.5391 L286.4922,167.0859 Q286.4922,167.7031 286.9375,168.1172 Q287.3828,168.5234 288.1797,168.5234 Q288.6484,168.5234 288.9766,168.3984 Q289.1719,168.3203 289.3828,168.1016 Q289.5156,167.9688 289.5859,167.9297 Q289.6641,167.8906 289.7656,167.8906 Q289.9297,167.8906 290.0547,168.0234 Q290.1875,168.1484 290.1875,168.3203 Q290.1875,168.4922 290.0156,168.6953 Q289.7656,168.9844 289.3672,169.1484 Q288.8281,169.375 288.1797,169.375 Q287.4219,169.375 286.8203,169.0625 Q286.3281,168.8125 285.9844,168.2813 Q285.6406,167.7422 285.6406,167.1016 L285.6406,166.5234 Q285.6406,165.8594 285.9453,165.2891 Q286.2578,164.7109 286.8047,164.4063 Q287.3516,164.0938 287.9688,164.0938 Q288.3359,164.0938 288.6563,164.1797 Q288.9844,164.2578 289.2578,164.4375 Z " fill="#000000"/><text fill="#000000" font-family="sans-serif" font-size="7" lengthAdjust="spacing" textLength="39.5" x="298.125" y="169.3984">Repositories</text><line style="stroke:#181818;stroke-width:0.25;" x1="261.25" x2="358.25" y1="174.5" y2="174.5"/><line style="stroke:#181818;stroke-width:0.25;" x1="261.25" x2="358.25" y1="178.5" y2="178.5"/><text fill="#000000" font-family="sans-serif" font-size="7" lengthAdjust="spacing" textLength="47" x="263.75" y="188.0537">-Repositories()</text><text fill="#000000" font-family="sans-serif" font-size="7" lengthAdjust="spacing" textLength="91" x="263.75" y="197.3643">+getInstance() : Repositories</text><text fill="#000000" font-family="sans-serif" font-size="7" lengthAdjust="spacing" textLength="64" x="263.75" y="206.6748">+getJobRepository()</text><text fill="#000000" font-family="sans-serif" font-size="7" lengthAdjust="spacing" textLength="92" x="263.75" y="215.9854">+getCollaboratorRepository()</text></g><!--class IdDocType--><g id="elem_IdDocType"><rect codeLine="54" fill="#F1F1F1" height="51.9316" id="IdDocType" rx="1.25" ry="1.25" style="stroke:#181818;stroke-width:0.25;" width="74.5" x="183" y="461.5"/><ellipse cx="201.525" cy="469.5" fill="#EB937F" rx="5.5" ry="5.5" style="stroke:#181818;stroke-width:0.5;"/><path d="M200.9547,469.8984 L200.9547,471.1484 L203.1188,471.1484 L203.1188,470.6875 Q203.1188,470.3828 203.2359,470.25 Q203.3609,470.1172 203.5484,470.1172 Q203.7359,470.1172 203.8531,470.25 Q203.9703,470.3828 203.9703,470.6875 L203.9703,472 L199.9703,472 Q199.6578,472 199.525,471.8828 Q199.4,471.7656 199.4,471.5703 Q199.4,471.3828 199.5328,471.2656 Q199.6656,471.1484 199.9703,471.1484 L200.1031,471.1484 L200.1031,467.8203 L199.9703,467.8203 Q199.6578,467.8203 199.525,467.7031 Q199.4,467.5859 199.4,467.3906 Q199.4,467.2031 199.525,467.0859 Q199.6578,466.9688 199.9703,466.9688 L203.7828,466.9688 L203.7828,468.2656 Q203.7828,468.5703 203.6656,468.7031 Q203.5563,468.8281 203.3609,468.8281 Q203.1734,468.8281 203.0563,468.7031 Q202.9391,468.5703 202.9391,468.2656 L202.9391,467.8203 L200.9547,467.8203 L200.9547,469.0469 L201.6969,469.0469 Q201.6969,468.7188 201.7594,468.625 Q201.8922,468.4219 202.1266,468.4219 Q202.3141,468.4219 202.4313,468.5547 Q202.5484,468.6797 202.5484,468.9844 L202.5484,469.9688 Q202.5484,470.2422 202.4859,470.3359 Q202.3531,470.5313 202.1266,470.5313 Q201.8922,470.5313 201.7594,470.3281 Q201.6969,470.2344 201.6969,469.8984 L200.9547,469.8984 Z " fill="#000000"/><text fill="#000000" font-family="sans-serif" font-size="7" lengthAdjust="spacing" textLength="34" x="210.975" y="472.3984">IdDocType</text><line style="stroke:#181818;stroke-width:0.25;" x1="183.5" x2="257" y1="477.5" y2="477.5"/><text fill="#000000" font-family="sans-serif" font-size="7" lengthAdjust="spacing" textLength="68.5" x="186" y="487.0537">TAXPAYER_NUMBER</text><text fill="#000000" font-family="sans-serif" font-size="7" lengthAdjust="spacing" textLength="49" x="186" y="496.3643">CITIZEN_CARD</text><text fill="#000000" font-family="sans-serif" font-size="7" lengthAdjust="spacing" textLength="37.5" x="186" y="505.6748">PASSPORT</text><line style="stroke:#181818;stroke-width:0.25;" x1="183.5" x2="257" y1="509.4316" y2="509.4316"/></g><!--link RegisterCollaboratorUI to RegisterCollaboratorController--><g id="link_RegisterCollaboratorUI_RegisterCollaboratorController"><path codeLine="60" d="M309.75,27.57 C309.75,35.795 309.75,44.25 309.75,54.975 " fill="none" id="RegisterCollaboratorUI-to-RegisterCollaboratorController" style="stroke:#181818;stroke-width:0.5;stroke-dasharray:7.0,7.0;"/><polygon fill="#181818" points="309.75,57.975,311.75,53.475,309.75,55.475,307.75,53.475,309.75,57.975" style="stroke:#181818;stroke-width:0.5;"/></g><!--link RegisterCollaboratorController to Repositories--><g id="link_RegisterCollaboratorController_Repositories"><path codeLine="61" d="M309.75,119.125 C309.75,131.59 309.75,143.02 309.75,155.48 " fill="none" id="RegisterCollaboratorController-to-Repositories" style="stroke:#181818;stroke-width:0.5;stroke-dasharray:7.0,7.0;"/><polygon fill="#181818" points="309.75,158.48,311.75,153.98,309.75,155.98,307.75,153.98,309.75,158.48" style="stroke:#181818;stroke-width:0.5;"/><text fill="#000000" font-family="sans-serif" font-size="6.5" lengthAdjust="spacing" textLength="33.5" x="310.25" y="141.5142">repositories</text></g><!--link RegisterCollaboratorController to CollaboratorRepository--><g id="link_RegisterCollaboratorController_CollaboratorRepository"><path codeLine="62" d="M256.085,119.08 C222.57,137.865 185.75,158.5 185.75,158.5 C185.75,158.5 184.594,212.5407 183.859,246.9707 " fill="none" id="RegisterCollaboratorController-to-CollaboratorRepository" style="stroke:#181818;stroke-width:0.5;stroke-dasharray:7.0,7.0;"/><polygon fill="#181818" points="183.795,249.97,185.8906,245.5137,183.8484,247.4706,181.8915,245.4283,183.795,249.97" style="stroke:#181818;stroke-width:0.5;"/><text fill="#000000" font-family="sans-serif" font-size="6.5" lengthAdjust="spacing" textLength="65.5" x="186.25" y="191.7642">CollaboratorRepository</text></g><!--link RegisterCollaboratorController to JobRepository--><g id="link_RegisterCollaboratorController_JobRepository"><path codeLine="63" d="M351.95,119.08 C378.3,137.865 407.25,158.5 407.25,158.5 C407.25,158.5 418.4695,224.1279 423.9645,256.2729 " fill="none" id="RegisterCollaboratorController-to-JobRepository" style="stroke:#181818;stroke-width:0.5;stroke-dasharray:7.0,7.0;"/><polygon fill="#181818" points="424.47,259.23,425.6832,254.4573,424.0488,256.7657,421.7403,255.1313,424.47,259.23" style="stroke:#181818;stroke-width:0.5;"/><text fill="#000000" font-family="sans-serif" font-size="6.5" lengthAdjust="spacing" textLength="41" x="417.75" y="191.7642">JobRepository</text></g><!--link Repositories to Repositories--><g id="link_Repositories_Repositories"><path codeLine="64" d="M358.76,180.86 C368.935,181.715 376.25,184.43 376.25,189 C376.25,193.57 371.9245,196.0338 361.7495,196.8888 " fill="none" id="Repositories-to-Repositories" style="stroke:#181818;stroke-width:0.5;"/><polygon fill="#181818" points="358.76,197.14,363.4117,198.7562,361.2512,196.9307,363.0767,194.7702,358.76,197.14" style="stroke:#181818;stroke-width:0.5;"/><text fill="#000000" font-family="sans-serif" font-size="6.5" lengthAdjust="spacing" textLength="24.5" x="379.25" y="191.7642">instance</text></g><!--link Repositories to CollaboratorRepository--><g id="link_Repositories_CollaboratorRepository"><path codeLine="65" d="M265.505,219.58 C250.97,229.46 237.4408,238.6581 223.4408,248.1781 " fill="none" id="Repositories-to-CollaboratorRepository" style="stroke:#181818;stroke-width:0.5;"/><polygon fill="#181818" points="220.96,249.865,225.8058,248.9885,223.0273,248.4592,223.5565,245.6808,220.96,249.865" style="stroke:#181818;stroke-width:0.5;"/><text fill="#000000" font-family="sans-serif" font-size="6.5" lengthAdjust="spacing" textLength="3.5" x="222.2921" y="244.3105">1</text></g><!--link Repositories to JobRepository--><g id="link_Repositories_JobRepository"><path codeLine="66" d="M350.845,219.58 C369.045,232.9 387.3141,246.2732 402.5691,257.4382 " fill="none" id="Repositories-to-JobRepository" style="stroke:#181818;stroke-width:0.5;"/><polygon fill="#181818" points="404.99,259.21,402.5399,254.9384,402.9726,257.7335,400.1775,258.1662,404.99,259.21" style="stroke:#181818;stroke-width:0.5;"/><text fill="#000000" font-family="sans-serif" font-size="6.5" lengthAdjust="spacing" textLength="3.5" x="396.763" y="253.6149">1</text></g><!--link CollaboratorRepository to Collaborator--><g id="link_CollaboratorRepository_Collaborator"><path codeLine="67" d="M192.3,302.125 C195.53,311.27 198.2907,319.0763 201.9807,329.5213 " fill="none" id="CollaboratorRepository-to-Collaborator" style="stroke:#181818;stroke-width:0.5;"/><polygon fill="#181818" points="202.98,332.35,203.3668,327.4408,202.1472,329.9928,199.5953,328.7732,202.98,332.35" style="stroke:#181818;stroke-width:0.5;"/><text fill="#000000" font-family="sans-serif" font-size="6.5" lengthAdjust="spacing" textLength="2.5" x="199.1199" y="326.9302">*</text></g><!--link JobRepository to Job--><g id="link_JobRepository_Job"><path codeLine="68" d="M424.015,292.89 C416.165,332.65 396.75,431 396.75,431 C396.75,431 389.0885,447.5041 381.6935,463.4291 " fill="none" id="JobRepository-to-Job" style="stroke:#181818;stroke-width:0.5;"/><polygon fill="#181818" points="380.43,466.15,384.1392,462.9109,381.4829,463.8825,380.5113,461.2262,380.43,466.15" style="stroke:#181818;stroke-width:0.5;"/><text fill="#000000" font-family="sans-serif" font-size="6.5" lengthAdjust="spacing" textLength="2.5" x="379.2735" y="460.5861">*</text></g><!--link Collaborator to Job--><g id="link_Collaborator_Job"><path codeLine="69" d="M290.435,431.1 C310.97,445.395 329.5526,458.3264 344.9426,469.0364 " fill="none" id="Collaborator-to-Job" style="stroke:#181818;stroke-width:0.5;"/><polygon fill="#181818" points="347.405,470.75,344.8538,466.538,345.353,469.322,342.569,469.8212,347.405,470.75" style="stroke:#181818;stroke-width:0.5;"/><text fill="#000000" font-family="sans-serif" font-size="6.5" lengthAdjust="spacing" textLength="3.5" x="340.0623" y="466.0504">1</text></g><!--link Collaborator to IdDocType--><g id="link_Collaborator_IdDocType"><path codeLine="70" d="M220.25,431.1 C220.25,441.605 220.25,449.305 220.25,458.49 " fill="none" id="Collaborator-to-IdDocType" style="stroke:#181818;stroke-width:0.5;"/><polygon fill="#181818" points="220.25,461.49,222.25,456.99,220.25,458.99,218.25,456.99,220.25,461.49" style="stroke:#181818;stroke-width:0.5;"/><text fill="#000000" font-family="sans-serif" font-size="6.5" lengthAdjust="spacing" textLength="3.5" x="216.5148" y="455.9523">1</text></g><!--SRC=[lLHDRzim3BthLmYzn5cSOhlcCC1rSd2nPO6J0jikXMopjbPPCYHbWpVilq_-ggNERdggJoRvI3xIproeHyeh8ac9Iy55MaXH0jRo36YCL2Hz93aSTSq0IqWruJcp0QeWcVX5UOuV25DsX54Ekgu0LuBLZO4M4q4XjK1MLig8Ke7MaYPd3L4g-97-1lmUeGM31usrm9BcXSOPRUXGmH5gSt0CELKQP2WO8ucGH0jv5-4_wEzBY51mBOqDqY2nULOlexpKSiTG2KNDI-tZ7o8PpMLNIawKyZWfmSS9bRh8Y4aaMKcLCeDiYOR6p2GevUEg41psvp81wMCe2MK-fjbMf2Upj-PrY9dEUrEpwxdEGT-AvAPkN9uJMdKXzSbmyfRZMiB9YVfrh0qVXxuzVz_o9s4qC-GluDvk7JF33ICTZRgCO9lEdQDfzKJ1SZbSdDoULkUZNDlq763BT8GDDBk5lEKYRcrz3bhl5V5SBNRItD9M9jPoNje_MD-0WXho7AVNAm6RnX5Nvfgau2tnnW6D48UpdJijsKxKmCybZeQ5z3HEmTT3y6qNt-_lFj_iujONHgVe-sv_7mRnjdKSWkFny2K-DLLchidrzSSBPmHTk39TXN7QZJchrkolo9uUVZFZVqr5PyyRrqJEHrsldxEd_MVy7tVruMgUqmJMRJjpbLhmExSmShKzG8pNgM8tcWuygGRz0m00]--></g></svg>