<?xml version="1.0" encoding="us-ascii" standalone="no"?><svg xmlns="http://www.w3.org/2000/svg" xmlns:xlink="http://www.w3.org/1999/xlink" contentStyleType="text/css" height="291.9px" preserveAspectRatio="none" style="width:453px;height:291px;background:#FFFFFF;" version="1.1" viewBox="0 0 453 291" width="453.6px" zoomAndPan="magnify"><defs/><g><rect fill="#FFFFFF" height="176.6297" style="stroke:#181818;stroke-width:0.6999999999999998;" width="7" x="133.7" y="63.3732"/><rect fill="#FFFFFF" height="21.9037" style="stroke:#181818;stroke-width:0.6999999999999998;" width="7" x="249.55" y="103.6807"/><rect fill="#FFFFFF" height="21.9037" style="stroke:#181818;stroke-width:0.6999999999999998;" width="7" x="324.45" y="147.4881"/><rect fill="#FFFFFF" height="21.9037" style="stroke:#181818;stroke-width:0.6999999999999998;" width="7" x="402.15" y="191.2955"/><rect fill="none" height="144.926" style="stroke:#000000;stroke-width:1.0499999999999998;" width="394.1" x="55.3" y="73.8732"/><line style="stroke:#181818;stroke-width:0.3499999999999999;stroke-dasharray:5.0,5.0;" x1="137.2" x2="137.2" y1="40.0695" y2="252.6029"/><line style="stroke:#181818;stroke-width:0.3499999999999999;stroke-dasharray:5.0,5.0;" x1="252.7" x2="252.7" y1="40.0695" y2="252.6029"/><line style="stroke:#181818;stroke-width:0.3499999999999999;stroke-dasharray:5.0,5.0;" x1="327.6" x2="327.6" y1="40.0695" y2="252.6029"/><line style="stroke:#181818;stroke-width:0.3499999999999999;stroke-dasharray:5.0,5.0;" x1="405.3" x2="405.3" y1="40.0695" y2="252.6029"/><rect fill="#E3E3E3" height="22.8348" rx="1.75" ry="1.75" style="stroke:#181818;stroke-width:0.3499999999999999;" width="149.8" x="62.3" y="16.5348"/><text fill="#000000" font-family="sans-serif" font-size="9.8" lengthAdjust="spacing" textLength="140" x="67.2" y="32.01">:RegisterCollaboratorControlller</text><rect fill="#E3E3E3" height="22.8348" rx="1.75" ry="1.75" style="stroke:#181818;stroke-width:0.3499999999999999;" width="149.8" x="62.3" y="251.9029"/><text fill="#000000" font-family="sans-serif" font-size="9.8" lengthAdjust="spacing" textLength="140" x="67.2" y="267.3781">:RegisterCollaboratorControlller</text><rect fill="#E3E3E3" height="22.8348" rx="1.75" ry="1.75" style="stroke:#181818;stroke-width:0.3499999999999999;" width="67.9" x="219.1" y="16.5348"/><text fill="#000000" font-family="sans-serif" font-size="9.8" lengthAdjust="spacing" textLength="58.1" x="224" y="32.01">:Repositories</text><rect fill="#E3E3E3" height="22.8348" rx="1.75" ry="1.75" style="stroke:#181818;stroke-width:0.3499999999999999;" width="67.9" x="219.1" y="251.9029"/><text fill="#000000" font-family="sans-serif" font-size="9.8" lengthAdjust="spacing" textLength="58.1" x="224" y="267.3781">:Repositories</text><rect fill="#E3E3E3" height="35.8695" rx="1.75" ry="1.75" style="stroke:#181818;stroke-width:0.3499999999999999;" width="67.9" x="294" y="3.5"/><text fill="#000000" font-family="sans-serif" font-size="9.8" lengthAdjust="spacing" textLength="51.8" x="302.05" y="18.9752">repositories</text><text fill="#000000" font-family="sans-serif" font-size="9.8" lengthAdjust="spacing" textLength="58.1" x="298.9" y="32.01">:Repositories</text><rect fill="#E3E3E3" height="35.8695" rx="1.75" ry="1.75" style="stroke:#181818;stroke-width:0.3499999999999999;" width="67.9" x="294" y="251.9029"/><text fill="#000000" font-family="sans-serif" font-size="9.8" lengthAdjust="spacing" textLength="51.8" x="302.05" y="267.3781">repositories</text><text fill="#000000" font-family="sans-serif" font-size="9.8" lengthAdjust="spacing" textLength="58.1" x="298.9" y="280.4129">:Repositories</text><rect fill="#E3E3E3" height="35.8695" rx="1.75" ry="1.75" style="stroke:#181818;stroke-width:0.3499999999999999;" width="73.5" x="368.9" y="3.5"/><text fill="#000000" font-family="sans-serif" font-size="9.8" lengthAdjust="spacing" textLength="63.7" x="373.8" y="18.9752">jobRepository:</text><text fill="#000000" font-family="sans-serif" font-size="9.8" lengthAdjust="spacing" textLength="60.9" x="375.2" y="32.01">jobRepository</text><rect fill="#E3E3E3" height="35.8695" rx="1.75" ry="1.75" style="stroke:#181818;stroke-width:0.3499999999999999;" width="73.5" x="368.9" y="251.9029"/><text fill="#000000" font-family="sans-serif" font-size="9.8" lengthAdjust="spacing" textLength="63.7" x="373.8" y="267.3781">jobRepository:</text><text fill="#000000" font-family="sans-serif" font-size="9.8" lengthAdjust="spacing" textLength="60.9" x="375.2" y="280.4129">jobRepository</text><rect fill="#FFFFFF" height="176.6297" style="stroke:#181818;stroke-width:0.6999999999999998;" width="7" x="133.7" y="63.3732"/><rect fill="#FFFFFF" height="21.9037" style="stroke:#181818;stroke-width:0.6999999999999998;" width="7" x="249.55" y="103.6807"/><rect fill="#FFFFFF" height="21.9037" style="stroke:#181818;stroke-width:0.6999999999999998;" width="7" x="324.45" y="147.4881"/><rect fill="#FFFFFF" height="21.9037" style="stroke:#181818;stroke-width:0.6999999999999998;" width="7" x="402.15" y="191.2955"/><polygon fill="#181818" points="125.3,60.5732,132.3,63.3732,125.3,66.1732,128.1,63.3732" style="stroke:#181818;stroke-width:0.6999999999999998;"/><line style="stroke:#181818;stroke-width:0.6999999999999998;" x1="0" x2="129.5" y1="63.3732" y2="63.3732"/><text fill="#000000" font-family="sans-serif" font-size="9.1" font-weight="bold" lengthAdjust="spacing" textLength="9.8" x="4.9" y="59.6894">12</text><text fill="#000000" font-family="sans-serif" font-size="9.1" lengthAdjust="spacing" textLength="107.8" x="17.5" y="59.6894">getJobsByName(jobName)</text><path d="M55.3,73.8732 L152.6,73.8732 L152.6,80.377 L145.6,87.377 L55.3,87.377 L55.3,73.8732 " fill="#EEEEEE" style="stroke:#000000;stroke-width:1.0499999999999998;"/><rect fill="none" height="144.926" style="stroke:#000000;stroke-width:1.0499999999999998;" width="394.1" x="55.3" y="73.8732"/><text fill="#000000" font-family="sans-serif" font-size="9.1" font-weight="bold" lengthAdjust="spacing" textLength="65.8" x="65.8" y="84.3931">Get Job Object</text><polygon fill="#181818" points="241.15,100.8807,248.15,103.6807,241.15,106.4807,243.95,103.6807" style="stroke:#181818;stroke-width:0.6999999999999998;"/><line style="stroke:#181818;stroke-width:0.6999999999999998;" x1="140.7" x2="245.35" y1="103.6807" y2="103.6807"/><text fill="#000000" font-family="sans-serif" font-size="9.1" font-weight="bold" lengthAdjust="spacing" textLength="17.5" x="145.6" y="99.9968">12.1</text><text fill="#000000" font-family="sans-serif" font-size="9.1" lengthAdjust="spacing" textLength="52.5" x="165.9" y="99.9968">getInstance()</text><polygon fill="#181818" points="148.4,122.7844,141.4,125.5844,148.4,128.3844,145.6,125.5844" style="stroke:#181818;stroke-width:0.6999999999999998;"/><line style="stroke:#181818;stroke-width:0.6999999999999998;stroke-dasharray:2.0,2.0;" x1="144.2" x2="252.35" y1="125.5844" y2="125.5844"/><text fill="#000000" font-family="sans-serif" font-size="9.1" font-weight="bold" lengthAdjust="spacing" textLength="17.5" x="152.6" y="121.9005">12.2</text><text fill="#000000" font-family="sans-serif" font-size="9.1" lengthAdjust="spacing" textLength="46.9" x="172.9" y="121.9005">repositories</text><polygon fill="#181818" points="316.05,144.6881,323.05,147.4881,316.05,150.2881,318.85,147.4881" style="stroke:#181818;stroke-width:0.6999999999999998;"/><line style="stroke:#181818;stroke-width:0.6999999999999998;" x1="140.7" x2="320.25" y1="147.4881" y2="147.4881"/><text fill="#000000" font-family="sans-serif" font-size="9.1" font-weight="bold" lengthAdjust="spacing" textLength="17.5" x="145.6" y="143.8042">12.3</text><text fill="#000000" font-family="sans-serif" font-size="9.1" lengthAdjust="spacing" textLength="75.6" x="165.9" y="143.8042">getJobRepository()</text><polygon fill="#181818" points="148.4,166.5918,141.4,169.3918,148.4,172.1918,145.6,169.3918" style="stroke:#181818;stroke-width:0.6999999999999998;"/><line style="stroke:#181818;stroke-width:0.6999999999999998;stroke-dasharray:2.0,2.0;" x1="144.2" x2="327.25" y1="169.3918" y2="169.3918"/><text fill="#000000" font-family="sans-serif" font-size="9.1" font-weight="bold" lengthAdjust="spacing" textLength="17.5" x="152.6" y="165.7079">12.4</text><text fill="#000000" font-family="sans-serif" font-size="9.1" lengthAdjust="spacing" textLength="57.4" x="172.9" y="165.7079">JobRepository</text><polygon fill="#181818" points="393.75,188.4955,400.75,191.2955,393.75,194.0955,396.55,191.2955" style="stroke:#181818;stroke-width:0.6999999999999998;"/><line style="stroke:#181818;stroke-width:0.6999999999999998;" x1="140.7" x2="397.95" y1="191.2955" y2="191.2955"/><text fill="#000000" font-family="sans-serif" font-size="9.1" font-weight="bold" lengthAdjust="spacing" textLength="17.5" x="145.6" y="187.6116">12.5</text><text fill="#000000" font-family="sans-serif" font-size="9.1" lengthAdjust="spacing" textLength="107.8" x="165.9" y="187.6116">getJobsByName(jobName)</text><polygon fill="#181818" points="148.4,210.3992,141.4,213.1992,148.4,215.9992,145.6,213.1992" style="stroke:#181818;stroke-width:0.6999999999999998;"/><line style="stroke:#181818;stroke-width:0.6999999999999998;stroke-dasharray:2.0,2.0;" x1="144.2" x2="404.95" y1="213.1992" y2="213.1992"/><text fill="#000000" font-family="sans-serif" font-size="9.1" font-weight="bold" lengthAdjust="spacing" textLength="17.5" x="152.6" y="209.5153">12.6</text><text fill="#000000" font-family="sans-serif" font-size="9.1" lengthAdjust="spacing" textLength="11.9" x="172.9" y="209.5153">job</text><polygon fill="#181818" points="7.7,237.2029,0.7,240.0029,7.7,242.8029,4.9,240.0029" style="stroke:#181818;stroke-width:0.6999999999999998;"/><line style="stroke:#181818;stroke-width:0.6999999999999998;stroke-dasharray:2.0,2.0;" x1="3.5" x2="136.5" y1="240.0029" y2="240.0029"/><text fill="#000000" font-family="sans-serif" font-size="9.1" font-weight="bold" lengthAdjust="spacing" textLength="9.8" x="11.9" y="236.319">13</text><text fill="#000000" font-family="sans-serif" font-size="9.1" lengthAdjust="spacing" textLength="11.9" x="24.5" y="236.319">job</text><!--SRC=[VL9DJyCm3BtdLrYxi1sADBXLY0CJGY04QEMuYzjwNROshf8KsBydoqP9jcwvvCFlFJ_RCHkfMjJOGCEAYvNcXi3gZeJf8oqM6wmeizkQG5DXKLLr230hBFbRgWgMM1iI0ZlBgcjoqa9ShMH9i6IsEVy8uHXM5h95PM6KpgcInfAUSLrZpXejkxEosjrhqYD00xFF-Ui9hMKZ7LQIyPZvuqSCqG5YeGO9MSnOSzwZjkb2HNVFYLx28c5w8mGazzugf52HVU7SF6pViA6ne-tsIKoudWeihFn2I_iAmQrASzV24rbmV7ZFrwxPmaV-bi_WCZd_-qJFohXv53IUHBXUUzUPAB9Z9WUlAOHzYc0bdPS8J6HzkV-jkM0bE_6I1MOYbGjkic4xyGJFJM7Gsj5eGqmKwiswibtWdCS1ELAbtyDFSEjVxf9aBtdG37Jyn_W5]--></g></svg>