<?xml version="1.0" encoding="us-ascii" standalone="no"?><svg xmlns="http://www.w3.org/2000/svg" xmlns:xlink="http://www.w3.org/1999/xlink" contentStyleType="text/css" height="308.8px" preserveAspectRatio="none" style="width:645px;height:308px;background:#FFFFFF;" version="1.1" viewBox="0 0 645 308" width="645.6px" zoomAndPan="magnify"><defs/><g><!--class JobRepository--><g id="elem_JobRepository"><rect codeLine="22" fill="#F1F1F1" height="97.9875" id="JobRepository" rx="2" ry="2" style="stroke:#181818;stroke-width:0.4000000000000001;" width="165.6" x="294.4" y="122.4"/><ellipse cx="337.8" cy="135.2" fill="#ADD1B2" rx="8.8" ry="8.8" style="stroke:#181818;stroke-width:0.8000000000000002;"/><path d="M340.0125,131.9 Q340.1375,131.725 340.2875,131.6375 Q340.4375,131.55 340.6125,131.55 Q340.9125,131.55 341.1,131.7625 Q341.2875,131.9625 341.2875,132.45 L341.2875,133.6125 Q341.2875,134.1 341.1,134.3125 Q340.9125,134.525 340.6125,134.525 Q340.3375,134.525 340.175,134.3625 Q340.0125,134.2125 339.925,133.8 Q339.8875,133.5125 339.7375,133.3625 Q339.475,133.0625 338.9875,132.8875 Q338.5,132.7125 338,132.7125 Q337.3875,132.7125 336.875,132.975 Q336.375,133.2375 335.975,133.8375 Q335.5875,134.4375 335.5875,135.2625 L335.5875,136.1375 Q335.5875,137.125 336.3,137.7875 Q337.0125,138.4375 338.2875,138.4375 Q339.0375,138.4375 339.5625,138.2375 Q339.875,138.1125 340.2125,137.7625 Q340.425,137.55 340.5375,137.4875 Q340.6625,137.425 340.825,137.425 Q341.0875,137.425 341.2875,137.6375 Q341.5,137.8375 341.5,138.1125 Q341.5,138.3875 341.225,138.7125 Q340.825,139.175 340.1875,139.4375 Q339.325,139.8 338.2875,139.8 Q337.075,139.8 336.1125,139.3 Q335.325,138.9 334.775,138.05 Q334.225,137.1875 334.225,136.1625 L334.225,135.2375 Q334.225,134.175 334.7125,133.2625 Q335.2125,132.3375 336.0875,131.85 Q336.9625,131.35 337.95,131.35 Q338.5375,131.35 339.05,131.4875 Q339.575,131.6125 340.0125,131.9 Z " fill="#000000"/><text fill="#000000" font-family="sans-serif" font-size="11.2" lengthAdjust="spacing" textLength="72" x="354.2" y="139.8375">JobRepository</text><line style="stroke:#181818;stroke-width:0.4000000000000001;" x1="295.2" x2="459.2" y1="148" y2="148"/><line style="stroke:#181818;stroke-width:0.4000000000000001;" x1="295.2" x2="459.2" y1="154.4" y2="154.4"/><text fill="#000000" font-family="sans-serif" font-size="11.2" lengthAdjust="spacing" textLength="64" x="299.2" y="169.6859">-addJob(job)</text><text fill="#000000" font-family="sans-serif" font-size="11.2" lengthAdjust="spacing" textLength="84" x="299.2" y="184.5828">-validateJob(job)</text><text fill="#000000" font-family="sans-serif" font-size="11.2" lengthAdjust="spacing" textLength="3.2" x="299.2" y="199.4797">&#160;</text><text fill="#000000" font-family="sans-serif" font-size="11.2" lengthAdjust="spacing" textLength="156" x="299.2" y="214.3766">+CreateJob(name, description)</text></g><!--class HRM--><g id="elem_HRM"><rect codeLine="29" fill="#F1F1F1" height="53.2969" id="HRM" rx="2" ry="2" style="stroke:#181818;stroke-width:0.4000000000000001;" width="74.4" x="340" y="248.4"/><ellipse cx="363.16" cy="261.2" fill="#ADD1B2" rx="8.8" ry="8.8" style="stroke:#181818;stroke-width:0.8000000000000002;"/><path d="M365.3725,257.9 Q365.4975,257.725 365.6475,257.6375 Q365.7975,257.55 365.9725,257.55 Q366.2725,257.55 366.46,257.7625 Q366.6475,257.9625 366.6475,258.45 L366.6475,259.6125 Q366.6475,260.1 366.46,260.3125 Q366.2725,260.525 365.9725,260.525 Q365.6975,260.525 365.535,260.3625 Q365.3725,260.2125 365.285,259.8 Q365.2475,259.5125 365.0975,259.3625 Q364.835,259.0625 364.3475,258.8875 Q363.86,258.7125 363.36,258.7125 Q362.7475,258.7125 362.235,258.975 Q361.735,259.2375 361.335,259.8375 Q360.9475,260.4375 360.9475,261.2625 L360.9475,262.1375 Q360.9475,263.125 361.66,263.7875 Q362.3725,264.4375 363.6475,264.4375 Q364.3975,264.4375 364.9225,264.2375 Q365.235,264.1125 365.5725,263.7625 Q365.785,263.55 365.8975,263.4875 Q366.0225,263.425 366.185,263.425 Q366.4475,263.425 366.6475,263.6375 Q366.86,263.8375 366.86,264.1125 Q366.86,264.3875 366.585,264.7125 Q366.185,265.175 365.5475,265.4375 Q364.685,265.8 363.6475,265.8 Q362.435,265.8 361.4725,265.3 Q360.685,264.9 360.135,264.05 Q359.585,263.1875 359.585,262.1625 L359.585,261.2375 Q359.585,260.175 360.0725,259.2625 Q360.5725,258.3375 361.4475,257.85 Q362.3225,257.35 363.31,257.35 Q363.8975,257.35 364.41,257.4875 Q364.935,257.6125 365.3725,257.9 Z " fill="#000000"/><text fill="#000000" font-family="sans-serif" font-size="11.2" lengthAdjust="spacing" textLength="24" x="376.84" y="265.8375">HRM</text><line style="stroke:#181818;stroke-width:0.4000000000000001;" x1="340.8" x2="413.6" y1="274" y2="274"/><text fill="#000000" font-family="sans-serif" font-size="11.2" lengthAdjust="spacing" textLength="64.8" x="344.8" y="289.2859">-String name</text><line style="stroke:#181818;stroke-width:0.4000000000000001;" x1="340.8" x2="413.6" y1="295.2969" y2="295.2969"/></g><!--class Job--><g id="elem_Job"><rect codeLine="33" fill="#F1F1F1" height="83.0906" id="Job" rx="2" ry="2" style="stroke:#181818;stroke-width:0.4000000000000001;" width="131.2" x="508.8" y="217.6"/><ellipse cx="562.2" cy="230.4" fill="#ADD1B2" rx="8.8" ry="8.8" style="stroke:#181818;stroke-width:0.8000000000000002;"/><path d="M564.4125,227.1 Q564.5375,226.925 564.6875,226.8375 Q564.8375,226.75 565.0125,226.75 Q565.3125,226.75 565.5,226.9625 Q565.6875,227.1625 565.6875,227.65 L565.6875,228.8125 Q565.6875,229.3 565.5,229.5125 Q565.3125,229.725 565.0125,229.725 Q564.7375,229.725 564.575,229.5625 Q564.4125,229.4125 564.325,229 Q564.2875,228.7125 564.1375,228.5625 Q563.875,228.2625 563.3875,228.0875 Q562.9,227.9125 562.4,227.9125 Q561.7875,227.9125 561.275,228.175 Q560.775,228.4375 560.375,229.0375 Q559.9875,229.6375 559.9875,230.4625 L559.9875,231.3375 Q559.9875,232.325 560.7,232.9875 Q561.4125,233.6375 562.6875,233.6375 Q563.4375,233.6375 563.9625,233.4375 Q564.275,233.3125 564.6125,232.9625 Q564.825,232.75 564.9375,232.6875 Q565.0625,232.625 565.225,232.625 Q565.4875,232.625 565.6875,232.8375 Q565.9,233.0375 565.9,233.3125 Q565.9,233.5875 565.625,233.9125 Q565.225,234.375 564.5875,234.6375 Q563.725,235 562.6875,235 Q561.475,235 560.5125,234.5 Q559.725,234.1 559.175,233.25 Q558.625,232.3875 558.625,231.3625 L558.625,230.4375 Q558.625,229.375 559.1125,228.4625 Q559.6125,227.5375 560.4875,227.05 Q561.3625,226.55 562.35,226.55 Q562.9375,226.55 563.45,226.6875 Q563.975,226.8125 564.4125,227.1 Z " fill="#000000"/><text fill="#000000" font-family="sans-serif" font-size="11.2" lengthAdjust="spacing" textLength="17.6" x="578.6" y="235.0375">Job</text><line style="stroke:#181818;stroke-width:0.4000000000000001;" x1="509.6" x2="639.2" y1="243.2" y2="243.2"/><text fill="#000000" font-family="sans-serif" font-size="11.2" lengthAdjust="spacing" textLength="64.8" x="513.6" y="258.4859">-String name</text><text fill="#000000" font-family="sans-serif" font-size="11.2" lengthAdjust="spacing" textLength="92" x="513.6" y="273.3828">-String description</text><line style="stroke:#181818;stroke-width:0.4000000000000001;" x1="509.6" x2="639.2" y1="279.3938" y2="279.3938"/><text fill="#000000" font-family="sans-serif" font-size="11.2" lengthAdjust="spacing" textLength="121.6" x="513.6" y="294.6797">+Job(name, description)</text></g><!--class Repositories--><g id="elem_Repositories"><rect codeLine="40" fill="#F1F1F1" height="83.0906" id="Repositories" rx="2" ry="2" style="stroke:#181818;stroke-width:0.4000000000000001;" width="155.2" x="14.8" y="220.8"/><ellipse cx="57.4" cy="233.6" fill="#ADD1B2" rx="8.8" ry="8.8" style="stroke:#181818;stroke-width:0.8000000000000002;"/><path d="M59.6125,230.3 Q59.7375,230.125 59.8875,230.0375 Q60.0375,229.95 60.2125,229.95 Q60.5125,229.95 60.7,230.1625 Q60.8875,230.3625 60.8875,230.85 L60.8875,232.0125 Q60.8875,232.5 60.7,232.7125 Q60.5125,232.925 60.2125,232.925 Q59.9375,232.925 59.775,232.7625 Q59.6125,232.6125 59.525,232.2 Q59.4875,231.9125 59.3375,231.7625 Q59.075,231.4625 58.5875,231.2875 Q58.1,231.1125 57.6,231.1125 Q56.9875,231.1125 56.475,231.375 Q55.975,231.6375 55.575,232.2375 Q55.1875,232.8375 55.1875,233.6625 L55.1875,234.5375 Q55.1875,235.525 55.9,236.1875 Q56.6125,236.8375 57.8875,236.8375 Q58.6375,236.8375 59.1625,236.6375 Q59.475,236.5125 59.8125,236.1625 Q60.025,235.95 60.1375,235.8875 Q60.2625,235.825 60.425,235.825 Q60.6875,235.825 60.8875,236.0375 Q61.1,236.2375 61.1,236.5125 Q61.1,236.7875 60.825,237.1125 Q60.425,237.575 59.7875,237.8375 Q58.925,238.2 57.8875,238.2 Q56.675,238.2 55.7125,237.7 Q54.925,237.3 54.375,236.45 Q53.825,235.5875 53.825,234.5625 L53.825,233.6375 Q53.825,232.575 54.3125,231.6625 Q54.8125,230.7375 55.6875,230.25 Q56.5625,229.75 57.55,229.75 Q58.1375,229.75 58.65,229.8875 Q59.175,230.0125 59.6125,230.3 Z " fill="#000000"/><text fill="#000000" font-family="sans-serif" font-size="11.2" lengthAdjust="spacing" textLength="63.2" x="73.8" y="238.2375">Repositories</text><line style="stroke:#181818;stroke-width:0.4000000000000001;" x1="15.6" x2="169.2" y1="246.4" y2="246.4"/><line style="stroke:#181818;stroke-width:0.4000000000000001;" x1="15.6" x2="169.2" y1="252.8" y2="252.8"/><text fill="#000000" font-family="sans-serif" font-size="11.2" lengthAdjust="spacing" textLength="75.2" x="19.6" y="268.0859">-Repositories()</text><text fill="#000000" font-family="sans-serif" font-size="11.2" lengthAdjust="spacing" textLength="145.6" x="19.6" y="282.9828">+getInstance() : Repositories</text><text fill="#000000" font-family="sans-serif" font-size="11.2" lengthAdjust="spacing" textLength="102.4" x="19.6" y="297.8797">+getJobRepository()</text></g><!--class RegisterJobController--><g id="elem_RegisterJobController"><rect codeLine="46" fill="#F1F1F1" height="68.1938" id="RegisterJobController" rx="2" ry="2" style="stroke:#181818;stroke-width:0.4000000000000001;" width="173.6" x="5.6" y="72.4"/><ellipse cx="34.88" cy="85.2" fill="#ADD1B2" rx="8.8" ry="8.8" style="stroke:#181818;stroke-width:0.8000000000000002;"/><path d="M37.0925,81.9 Q37.2175,81.725 37.3675,81.6375 Q37.5175,81.55 37.6925,81.55 Q37.9925,81.55 38.18,81.7625 Q38.3675,81.9625 38.3675,82.45 L38.3675,83.6125 Q38.3675,84.1 38.18,84.3125 Q37.9925,84.525 37.6925,84.525 Q37.4175,84.525 37.255,84.3625 Q37.0925,84.2125 37.005,83.8 Q36.9675,83.5125 36.8175,83.3625 Q36.555,83.0625 36.0675,82.8875 Q35.58,82.7125 35.08,82.7125 Q34.4675,82.7125 33.955,82.975 Q33.455,83.2375 33.055,83.8375 Q32.6675,84.4375 32.6675,85.2625 L32.6675,86.1375 Q32.6675,87.125 33.38,87.7875 Q34.0925,88.4375 35.3675,88.4375 Q36.1175,88.4375 36.6425,88.2375 Q36.955,88.1125 37.2925,87.7625 Q37.505,87.55 37.6175,87.4875 Q37.7425,87.425 37.905,87.425 Q38.1675,87.425 38.3675,87.6375 Q38.58,87.8375 38.58,88.1125 Q38.58,88.3875 38.305,88.7125 Q37.905,89.175 37.2675,89.4375 Q36.405,89.8 35.3675,89.8 Q34.155,89.8 33.1925,89.3 Q32.405,88.9 31.855,88.05 Q31.305,87.1875 31.305,86.1625 L31.305,85.2375 Q31.305,84.175 31.7925,83.2625 Q32.2925,82.3375 33.1675,81.85 Q34.0425,81.35 35.03,81.35 Q35.6175,81.35 36.13,81.4875 Q36.655,81.6125 37.0925,81.9 Z " fill="#000000"/><text fill="#000000" font-family="sans-serif" font-size="11.2" lengthAdjust="spacing" textLength="109.6" x="49.92" y="89.8375">RegisterJobController</text><line style="stroke:#181818;stroke-width:0.4000000000000001;" x1="6.4" x2="178.4" y1="98" y2="98"/><line style="stroke:#181818;stroke-width:0.4000000000000001;" x1="6.4" x2="178.4" y1="104.4" y2="104.4"/><text fill="#000000" font-family="sans-serif" font-size="11.2" lengthAdjust="spacing" textLength="124" x="10.4" y="119.6859">+RegisterJobController()</text><text fill="#000000" font-family="sans-serif" font-size="11.2" lengthAdjust="spacing" textLength="164" x="10.4" y="134.5828">+RegisterJob(name, description)</text></g><!--class RegisterJobUI--><g id="elem_RegisterJobUI"><rect codeLine="52" fill="#F1F1F1" height="38.4" id="RegisterJobUI" rx="2" ry="2" style="stroke:#181818;stroke-width:0.4000000000000001;" width="95.2" x="44.8" y="5.6"/><ellipse cx="56.8" cy="18.4" fill="#ADD1B2" rx="8.8" ry="8.8" style="stroke:#181818;stroke-width:0.8000000000000002;"/><path d="M59.0125,15.1 Q59.1375,14.925 59.2875,14.8375 Q59.4375,14.75 59.6125,14.75 Q59.9125,14.75 60.1,14.9625 Q60.2875,15.1625 60.2875,15.65 L60.2875,16.8125 Q60.2875,17.3 60.1,17.5125 Q59.9125,17.725 59.6125,17.725 Q59.3375,17.725 59.175,17.5625 Q59.0125,17.4125 58.925,17 Q58.8875,16.7125 58.7375,16.5625 Q58.475,16.2625 57.9875,16.0875 Q57.5,15.9125 57,15.9125 Q56.3875,15.9125 55.875,16.175 Q55.375,16.4375 54.975,17.0375 Q54.5875,17.6375 54.5875,18.4625 L54.5875,19.3375 Q54.5875,20.325 55.3,20.9875 Q56.0125,21.6375 57.2875,21.6375 Q58.0375,21.6375 58.5625,21.4375 Q58.875,21.3125 59.2125,20.9625 Q59.425,20.75 59.5375,20.6875 Q59.6625,20.625 59.825,20.625 Q60.0875,20.625 60.2875,20.8375 Q60.5,21.0375 60.5,21.3125 Q60.5,21.5875 60.225,21.9125 Q59.825,22.375 59.1875,22.6375 Q58.325,23 57.2875,23 Q56.075,23 55.1125,22.5 Q54.325,22.1 53.775,21.25 Q53.225,20.3875 53.225,19.3625 L53.225,18.4375 Q53.225,17.375 53.7125,16.4625 Q54.2125,15.5375 55.0875,15.05 Q55.9625,14.55 56.95,14.55 Q57.5375,14.55 58.05,14.6875 Q58.575,14.8125 59.0125,15.1 Z " fill="#000000"/><text fill="#000000" font-family="sans-serif" font-size="11.2" lengthAdjust="spacing" textLength="69.6" x="68" y="23.0375">RegisterJobUI</text><line style="stroke:#181818;stroke-width:0.4000000000000001;" x1="45.6" x2="139.2" y1="31.2" y2="31.2"/><line style="stroke:#181818;stroke-width:0.4000000000000001;" x1="45.6" x2="139.2" y1="37.6" y2="37.6"/></g><!--link Repositories to Repositories--><g id="link_Repositories_Repositories"><path codeLine="55" d="M65.44,220.608 C64.712,205.32 73.696,192.8 92.4,192.8 C111.104,192.8 120.3163,200.5254 119.5883,215.8134 " fill="none" id="Repositories-to-Repositories" style="stroke:#181818;stroke-width:0.8000000000000002;"/><polygon fill="#181818" points="119.36,220.608,122.8988,213.5684,119.5503,216.6125,116.5061,213.2639,119.36,220.608" style="stroke:#181818;stroke-width:0.8000000000000002;"/><text fill="#000000" font-family="sans-serif" font-size="10.4" lengthAdjust="spacing" textLength="39.2" x="72.8" y="185.6227">instance</text></g><!--link RegisterJobUI to RegisterJobController--><g id="link_RegisterJobUI_RegisterJobController"><path codeLine="57" d="M92.4,44.28 C92.4,48.64 92.4,52 92.4,52 C92.4,52 92.4,59.48 92.4,67.536 " fill="none" id="RegisterJobUI-to-RegisterJobController" style="stroke:#181818;stroke-width:0.8000000000000002;stroke-dasharray:7.0,7.0;"/><polygon fill="#181818" points="92.4,72.336,95.6,65.136,92.4,68.336,89.2,65.136,92.4,72.336" style="stroke:#181818;stroke-width:0.8000000000000002;"/></g><!--link RegisterJobController to Repositories--><g id="link_RegisterJobController_Repositories"><path codeLine="59" d="M92.4,140.52 C92.4,164.136 92.4,190.904 92.4,216 " fill="none" id="RegisterJobController-to-Repositories" style="stroke:#181818;stroke-width:0.8000000000000002;stroke-dasharray:7.0,7.0;"/><polygon fill="#181818" points="92.4,220.8,95.6,213.6,92.4,216.8,89.2,213.6,92.4,220.8" style="stroke:#181818;stroke-width:0.8000000000000002;"/><text fill="#000000" font-family="sans-serif" font-size="10.4" lengthAdjust="spacing" textLength="53.6" x="55.6" y="185.0227">repositories</text></g><!--link RegisterJobController to JobRepository--><g id="link_RegisterJobController_JobRepository"><path codeLine="61" d="M179.32,126.104 C215.856,134.464 253.5609,143.0893 289.6409,151.3453 " fill="none" id="RegisterJobController-to-JobRepository" style="stroke:#181818;stroke-width:0.8000000000000002;stroke-dasharray:7.0,7.0;"/><polygon fill="#181818" points="294.32,152.416,288.0152,147.6906,290.4208,151.5238,286.5876,153.9293,294.32,152.416" style="stroke:#181818;stroke-width:0.8000000000000002;"/><text fill="#000000" font-family="sans-serif" font-size="10.4" lengthAdjust="spacing" textLength="65.6" x="204" y="130.4227">JobRepository</text></g><!--link Repositories to JobRepository--><g id="link_Repositories_JobRepository"><path codeLine="62" d="M170.208,237.6 C208.624,225.232 250.527,211.7353 289.631,199.1433 " fill="none" id="Repositories-to-JobRepository" style="stroke:#181818;stroke-width:0.8000000000000002;"/><polygon fill="#181818" points="294.2,197.672,286.3657,196.8329,290.3925,198.8981,288.3274,202.9249,294.2,197.672" style="stroke:#181818;stroke-width:0.8000000000000002;"/><text fill="#000000" font-family="sans-serif" font-size="10.4" lengthAdjust="spacing" textLength="5.6" x="282.2991" y="211.3324">1</text></g><!--link HRM to Job--><g id="link_HRM_Job"><path codeLine="64" d="M414.56,272.208 C440.992,270.048 472.6161,267.4643 503.9281,264.8963 " fill="none" id="HRM-to-Job" style="stroke:#181818;stroke-width:0.8000000000000002;"/><polygon fill="#181818" points="508.712,264.504,501.2745,261.9032,504.7254,264.831,501.7977,268.2818,508.712,264.504" style="stroke:#181818;stroke-width:0.8000000000000002;"/></g><!--link JobRepository to Job--><g id="link_JobRepository_Job"><path codeLine="65" d="M460.104,208.136 C476.304,215.424 488.7265,221.0149 504.2705,228.0069 " fill="none" id="JobRepository-to-Job" style="stroke:#181818;stroke-width:0.8000000000000002;"/><polygon fill="#181818" points="508.648,229.976,503.3945,224.104,505.0001,228.3351,500.769,229.9407,508.648,229.976" style="stroke:#181818;stroke-width:0.8000000000000002;"/><text fill="#000000" font-family="sans-serif" font-size="10.4" lengthAdjust="spacing" textLength="4" x="498.4021" y="239.1472">*</text></g><!--SRC=[XLBDJiCm3BxxAImktVWJN3aWeGc98N5XuW6or7I1DAaS3pGGxqwobIvXHVJKVh-srIgy6jSfLYsstdczOjyI2gy9zaodzAjgQ24RIyYaHRd6veAmKhL_Dwx1PsL3pbZZI3OTOUVj9dr0DK9w5W-PIriLmeq8c-LQQAwzMvWFmWi0Iy-2uf5DinAiJPh6U0TGRJruqtNMQ9Mm1OMGgEeJAepF2GQ9XCQ6PExYkzCqcVvm4PojcSb9xqlKrv3x58WF0wCf4RUjChRNx-JtVlb8dGz6F6y-8QdFL5r7UFBYbzCTyAQigPNGWC8kTSRKeqwrT8er1SscIpjDOQYuUtp0FXaNyLBn-4aE-GoZWWB9id_g_oiU5ZCKXe8Sd4nXEC_-q7XLYFQIubQJegWnGOYZOEQTiBUMk6yy6MU7wemTMsQqv6aUmoDHB7XsNIvyXQPVAGbpx_dr-4o5Bbla_22Py_lyvOgsucBHLtp_6Z_EVtHvz4i2wUT9L8IXJDiQZhS6W6y0]--></g></svg>