<?xml version="1.0" encoding="us-ascii" standalone="no"?><svg xmlns="http://www.w3.org/2000/svg" xmlns:xlink="http://www.w3.org/1999/xlink" contentStyleType="text/css" height="380px" preserveAspectRatio="none" style="width:484px;height:380px;background:#FFFFFF;" version="1.1" viewBox="0 0 484 380" width="484px" zoomAndPan="magnify"><defs/><g><rect fill="#FFFFFF" height="224.4063" style="stroke:#181818;stroke-width:1.0;" width="10" x="211" y="90.5332"/><rect fill="#FFFFFF" height="87.582" style="stroke:#181818;stroke-width:1.0;" width="10" x="216" y="218.3574"/><rect fill="none" height="170.1152" style="stroke:#000000;stroke-width:1.5;" width="324" x="154" y="105.5332"/><line style="stroke:#181818;stroke-width:0.5;stroke-dasharray:5.0,5.0;" x1="216" x2="216" y1="57.2422" y2="323.9395"/><line style="stroke:#181818;stroke-width:0.5;stroke-dasharray:5.0,5.0;" x1="448" x2="448" y1="165.9453" y2="323.9395"/><rect fill="#E3E3E3" height="32.6211" rx="2.5" ry="2.5" style="stroke:#181818;stroke-width:0.5;" width="104" x="164" y="23.6211"/><text fill="#000000" font-family="sans-serif" font-size="14" lengthAdjust="spacing" textLength="90" x="171" y="45.7285">JobRepository</text><rect fill="#E3E3E3" height="32.6211" rx="2.5" ry="2.5" style="stroke:#181818;stroke-width:0.5;" width="104" x="164" y="322.9395"/><text fill="#000000" font-family="sans-serif" font-size="14" lengthAdjust="spacing" textLength="90" x="171" y="345.0469">JobRepository</text><rect fill="#E3E3E3" height="51.2422" rx="2.5" ry="2.5" style="stroke:#181818;stroke-width:0.5;" width="40" x="428" y="322.9395"/><text fill="#000000" font-family="sans-serif" font-size="14" lengthAdjust="spacing" textLength="19" x="438.5" y="345.0469">job</text><text fill="#000000" font-family="sans-serif" font-size="14" lengthAdjust="spacing" textLength="26" x="435" y="363.668">:Job</text><rect fill="#FFFFFF" height="224.4063" style="stroke:#181818;stroke-width:1.0;" width="10" x="211" y="90.5332"/><rect fill="#FFFFFF" height="87.582" style="stroke:#181818;stroke-width:1.0;" width="10" x="216" y="218.3574"/><polygon fill="#181818" points="199,86.5332,209,90.5332,199,94.5332,203,90.5332" style="stroke:#181818;stroke-width:1.0;"/><line style="stroke:#181818;stroke-width:1.0;" x1="0" x2="205" y1="90.5332" y2="90.5332"/><text fill="#000000" font-family="sans-serif" font-size="13" font-weight="bold" lengthAdjust="spacing" textLength="14" x="7" y="85.2705">13</text><text fill="#000000" font-family="sans-serif" font-size="13" lengthAdjust="spacing" textLength="174" x="25" y="85.2705">registerJob(name, description)</text><path d="M154,105.5332 L278,105.5332 L278,114.8242 L268,124.8242 L154,124.8242 L154,105.5332 " fill="#EEEEEE" style="stroke:#000000;stroke-width:1.5;"/><rect fill="none" height="170.1152" style="stroke:#000000;stroke-width:1.5;" width="324" x="154" y="105.5332"/><text fill="#000000" font-family="sans-serif" font-size="13" font-weight="bold" lengthAdjust="spacing" textLength="79" x="169" y="120.5615">Register Job</text><polygon fill="#181818" points="416,144.1152,426,148.1152,416,152.1152,420,148.1152" style="stroke:#181818;stroke-width:1.0;"/><line style="stroke:#181818;stroke-width:1.0;" x1="221" x2="422" y1="148.1152" y2="148.1152"/><text fill="#000000" font-family="sans-serif" font-size="13" font-weight="bold" lengthAdjust="spacing" textLength="25" x="228" y="142.8525">13.1</text><text fill="#000000" font-family="sans-serif" font-size="13" lengthAdjust="spacing" textLength="154" x="257" y="142.8525">register(name, description)</text><rect fill="#E3E3E3" height="51.2422" rx="2.5" ry="2.5" style="stroke:#181818;stroke-width:0.5;" width="40" x="428" y="124.8242"/><text fill="#000000" font-family="sans-serif" font-size="14" lengthAdjust="spacing" textLength="19" x="438.5" y="146.9316">job</text><text fill="#000000" font-family="sans-serif" font-size="14" lengthAdjust="spacing" textLength="26" x="435" y="165.5527">:Job</text><line style="stroke:#181818;stroke-width:1.0;" x1="221" x2="268" y1="205.3574" y2="205.3574"/><line style="stroke:#181818;stroke-width:1.0;" x1="268" x2="268" y1="205.3574" y2="218.3574"/><line style="stroke:#181818;stroke-width:1.0;" x1="227" x2="268" y1="218.3574" y2="218.3574"/><polygon fill="#181818" points="237,214.3574,227,218.3574,237,222.3574,233,218.3574" style="stroke:#181818;stroke-width:1.0;"/><text fill="#000000" font-family="sans-serif" font-size="13" font-weight="bold" lengthAdjust="spacing" textLength="25" x="233" y="200.0947">13.2</text><text fill="#000000" font-family="sans-serif" font-size="13" lengthAdjust="spacing" textLength="70" x="262" y="200.0947">addJob (job)</text><line style="stroke:#181818;stroke-width:1.0;" x1="226" x2="268" y1="254.6484" y2="254.6484"/><line style="stroke:#181818;stroke-width:1.0;" x1="268" x2="268" y1="254.6484" y2="267.6484"/><line style="stroke:#181818;stroke-width:1.0;" x1="227" x2="268" y1="267.6484" y2="267.6484"/><polygon fill="#181818" points="237,263.6484,227,267.6484,237,271.6484,233,267.6484" style="stroke:#181818;stroke-width:1.0;"/><text fill="#000000" font-family="sans-serif" font-size="13" font-weight="bold" lengthAdjust="spacing" textLength="25" x="233" y="249.3857">13.3</text><text fill="#000000" font-family="sans-serif" font-size="13" lengthAdjust="spacing" textLength="88" x="262" y="249.3857">validateJob(job)</text><polygon fill="#181818" points="11,301.9395,1,305.9395,11,309.9395,7,305.9395" style="stroke:#181818;stroke-width:1.0;"/><line style="stroke:#181818;stroke-width:1.0;stroke-dasharray:2.0,2.0;" x1="5" x2="210" y1="305.9395" y2="305.9395"/><text fill="#000000" font-family="sans-serif" font-size="13" font-weight="bold" lengthAdjust="spacing" textLength="14" x="17" y="300.6768">13</text><text fill="#000000" font-family="sans-serif" font-size="13" lengthAdjust="spacing" textLength="17" x="35" y="300.6768">job</text><!--SRC=[RP0_JyD03CNt-nHMb_uHGQhO8iJGiGjIkx8uToOzcfnFTqwhVdkS12Y1UBH_xptR-Un3n8Gjj1pOdXAt198wClbd4j6UiQQZt1g2H5OmrCrl89_GyTM76jwnoMICjiLR7p48BFPS7IXoziBfjW3Ci7_T7QVC1rTleLJoUsuCTiAXQojAi7qonSkWAZM_zbaeARiAsD83ECes-IYUm_gFx75hq8g_eD0O2bfruYx2uSi7rCWC_Rvw2CQipUOUDfSq8z7rq3arX9KUjBxR_bzYNdt1nZlb-kC6X-K0Kt2Zr_GdVUUvA4QF4bHW74sZp2S0]--></g></svg>