<?xml version="1.0" encoding="us-ascii" standalone="no"?><svg xmlns="http://www.w3.org/2000/svg" xmlns:xlink="http://www.w3.org/1999/xlink" contentStyleType="text/css" height="429.6px" preserveAspectRatio="none" style="width:561px;height:429px;background:#FFFFFF;" version="1.1" viewBox="0 0 561 429" width="561.6px" zoomAndPan="magnify"><defs/><g><rect fill="#FFFFFF" height="313.1684" style="stroke:#181818;stroke-width:0.6;" width="6" x="10.8" y="56.1727"/><rect fill="#FFFFFF" height="44.9473" style="stroke:#181818;stroke-width:0.6;" width="6" x="179.4" y="70.1473"/><rect fill="#FFFFFF" height="18.7746" style="stroke:#181818;stroke-width:0.6;" width="6" x="179.4" y="133.8691"/><rect fill="#FFFFFF" height="197.9227" style="stroke:#181818;stroke-width:0.6;" width="6" x="179.4" y="171.4184"/><rect fill="#FFFFFF" height="160.3734" style="stroke:#181818;stroke-width:0.6;" width="6" x="307.8" y="190.193"/><rect fill="#FFFFFF" height="18.7746" style="stroke:#181818;stroke-width:0.6;" width="6" x="389.4" y="208.9676"/><rect fill="#FFFFFF" height="18.7746" style="stroke:#181818;stroke-width:0.6;" width="6" x="453.6" y="246.5168"/><rect fill="#FFFFFF" height="47.7258" style="stroke:#181818;stroke-width:0.6;" width="6" x="521.1" y="284.066"/><line style="stroke:#181818;stroke-width:0.3;stroke-dasharray:5.0,5.0;" x1="13.8" x2="13.8" y1="50.1727" y2="380.141"/><line style="stroke:#181818;stroke-width:0.3;stroke-dasharray:5.0,5.0;" x1="182.1" x2="182.1" y1="50.1727" y2="380.141"/><line style="stroke:#181818;stroke-width:0.3;stroke-dasharray:5.0,5.0;" x1="310.5" x2="310.5" y1="94.0336" y2="380.141"/><line style="stroke:#181818;stroke-width:0.3;stroke-dasharray:5.0,5.0;" x1="392.1" x2="392.1" y1="50.1727" y2="380.141"/><line style="stroke:#181818;stroke-width:0.3;stroke-dasharray:5.0,5.0;" x1="456.3" x2="456.3" y1="50.1727" y2="380.141"/><line style="stroke:#181818;stroke-width:0.3;stroke-dasharray:5.0,5.0;" x1="524.1" x2="524.1" y1="50.1727" y2="380.141"/><text fill="#000000" font-family="sans-serif" font-size="8.4" lengthAdjust="spacing" textLength="18" x="3" y="48.0645">HRM</text><ellipse cx="13.8" cy="8.1" fill="#E3E3E3" rx="4.8" ry="4.8" style="stroke:#181818;stroke-width:0.3;"/><path d="M13.8,12.9 L13.8,29.1 M6,17.7 L21.6,17.7 M13.8,29.1 L6,38.1 M13.8,29.1 L21.6,38.1 " fill="none" style="stroke:#181818;stroke-width:0.3;"/><text fill="#000000" font-family="sans-serif" font-size="8.4" lengthAdjust="spacing" textLength="18" x="3" y="388.6055">HRM</text><ellipse cx="13.8" cy="395.8137" fill="#E3E3E3" rx="4.8" ry="4.8" style="stroke:#181818;stroke-width:0.3;"/><path d="M13.8,400.6137 L13.8,416.8137 M6,405.4137 L21.6,405.4137 M13.8,416.8137 L6,425.8137 M13.8,416.8137 L21.6,425.8137 " fill="none" style="stroke:#181818;stroke-width:0.3;"/><rect fill="#E3E3E3" height="19.5727" rx="1.5" ry="1.5" style="stroke:#181818;stroke-width:0.3;" width="63" x="150.9" y="30"/><text fill="#000000" font-family="sans-serif" font-size="8.4" lengthAdjust="spacing" textLength="54.6" x="155.1" y="43.2645">:RegisterJobUI</text><rect fill="#E3E3E3" height="19.5727" rx="1.5" ry="1.5" style="stroke:#181818;stroke-width:0.3;" width="63" x="150.9" y="379.541"/><text fill="#000000" font-family="sans-serif" font-size="8.4" lengthAdjust="spacing" textLength="54.6" x="155.1" y="392.8055">:RegisterJobUI</text><rect fill="#E3E3E3" height="19.5727" rx="1.5" ry="1.5" style="stroke:#181818;stroke-width:0.3;" width="93" x="264.3" y="379.541"/><text fill="#000000" font-family="sans-serif" font-size="8.4" lengthAdjust="spacing" textLength="84.6" x="268.5" y="392.8055">:RegisterJobController</text><rect fill="#E3E3E3" height="19.5727" rx="1.5" ry="1.5" style="stroke:#181818;stroke-width:0.3;" width="58.2" x="363.3" y="30"/><text fill="#000000" font-family="sans-serif" font-size="8.4" lengthAdjust="spacing" textLength="49.8" x="367.5" y="43.2645">:Repositories</text><rect fill="#E3E3E3" height="19.5727" rx="1.5" ry="1.5" style="stroke:#181818;stroke-width:0.3;" width="58.2" x="363.3" y="379.541"/><text fill="#000000" font-family="sans-serif" font-size="8.4" lengthAdjust="spacing" textLength="49.8" x="367.5" y="392.8055">:Repositories</text><rect fill="#E3E3E3" height="30.7453" rx="1.5" ry="1.5" style="stroke:#181818;stroke-width:0.3;" width="58.2" x="427.5" y="18.8273"/><text fill="#000000" font-family="sans-serif" font-size="8.4" lengthAdjust="spacing" textLength="44.4" x="434.4" y="32.0918">repositories</text><text fill="#000000" font-family="sans-serif" font-size="8.4" lengthAdjust="spacing" textLength="49.8" x="431.7" y="43.2645">:Repositories</text><rect fill="#E3E3E3" height="30.7453" rx="1.5" ry="1.5" style="stroke:#181818;stroke-width:0.3;" width="58.2" x="427.5" y="379.541"/><text fill="#000000" font-family="sans-serif" font-size="8.4" lengthAdjust="spacing" textLength="44.4" x="434.4" y="392.8055">repositories</text><text fill="#000000" font-family="sans-serif" font-size="8.4" lengthAdjust="spacing" textLength="49.8" x="431.7" y="403.9781">:Repositories</text><rect fill="#E3E3E3" height="19.5727" rx="1.5" ry="1.5" style="stroke:#181818;stroke-width:0.3;" width="64.8" x="491.7" y="30"/><text fill="#000000" font-family="sans-serif" font-size="8.4" lengthAdjust="spacing" textLength="56.4" x="495.9" y="43.2645">:JobRepository</text><rect fill="#E3E3E3" height="19.5727" rx="1.5" ry="1.5" style="stroke:#181818;stroke-width:0.3;" width="64.8" x="491.7" y="379.541"/><text fill="#000000" font-family="sans-serif" font-size="8.4" lengthAdjust="spacing" textLength="56.4" x="495.9" y="392.8055">:JobRepository</text><rect fill="#FFFFFF" height="313.1684" style="stroke:#181818;stroke-width:0.6;" width="6" x="10.8" y="56.1727"/><rect fill="#FFFFFF" height="44.9473" style="stroke:#181818;stroke-width:0.6;" width="6" x="179.4" y="70.1473"/><rect fill="#FFFFFF" height="18.7746" style="stroke:#181818;stroke-width:0.6;" width="6" x="179.4" y="133.8691"/><rect fill="#FFFFFF" height="197.9227" style="stroke:#181818;stroke-width:0.6;" width="6" x="179.4" y="171.4184"/><rect fill="#FFFFFF" height="160.3734" style="stroke:#181818;stroke-width:0.6;" width="6" x="307.8" y="190.193"/><rect fill="#FFFFFF" height="18.7746" style="stroke:#181818;stroke-width:0.6;" width="6" x="389.4" y="208.9676"/><rect fill="#FFFFFF" height="18.7746" style="stroke:#181818;stroke-width:0.6;" width="6" x="453.6" y="246.5168"/><rect fill="#FFFFFF" height="47.7258" style="stroke:#181818;stroke-width:0.6;" width="6" x="521.1" y="284.066"/><polygon fill="#181818" points="172.2,67.7473,178.2,70.1473,172.2,72.5473,174.6,70.1473" style="stroke:#181818;stroke-width:0.6;"/><line style="stroke:#181818;stroke-width:0.6;" x1="16.8" x2="175.8" y1="70.1473" y2="70.1473"/><text fill="#000000" font-family="sans-serif" font-size="7.8" font-weight="bold" lengthAdjust="spacing" textLength="4.2" x="21" y="66.9896">1</text><text fill="#000000" font-family="sans-serif" font-size="7.8" lengthAdjust="spacing" textLength="89.4" x="27.6" y="66.9896">asks to register a new job</text><polygon fill="#181818" points="257.1,86.5219,263.1,88.9219,257.1,91.3219,259.5,88.9219" style="stroke:#181818;stroke-width:0.6;"/><line style="stroke:#181818;stroke-width:0.6;" x1="185.4" x2="260.7" y1="88.9219" y2="88.9219"/><text fill="#000000" font-family="sans-serif" font-size="7.8" font-weight="bold" lengthAdjust="spacing" textLength="4.2" x="189.6" y="85.7643">2</text><text fill="#000000" font-family="sans-serif" font-size="7.8" lengthAdjust="spacing" textLength="21.6" x="196.2" y="85.7643">create</text><rect fill="#E3E3E3" height="19.5727" rx="1.5" ry="1.5" style="stroke:#181818;stroke-width:0.3;" width="93" x="264.3" y="74.9473"/><text fill="#000000" font-family="sans-serif" font-size="8.4" lengthAdjust="spacing" textLength="84.6" x="268.5" y="88.2117">:RegisterJobController</text><polygon fill="#181818" points="23.4,112.6945,17.4,115.0945,23.4,117.4945,21,115.0945" style="stroke:#181818;stroke-width:0.6;"/><line style="stroke:#181818;stroke-width:0.6;stroke-dasharray:2.0,2.0;" x1="19.8" x2="181.8" y1="115.0945" y2="115.0945"/><text fill="#000000" font-family="sans-serif" font-size="7.8" font-weight="bold" lengthAdjust="spacing" textLength="4.2" x="27" y="111.9369">3</text><text fill="#000000" font-family="sans-serif" font-size="7.8" lengthAdjust="spacing" textLength="47.4" x="33.6" y="111.9369">requests data</text><polygon fill="#181818" points="172.2,131.4691,178.2,133.8691,172.2,136.2691,174.6,133.8691" style="stroke:#181818;stroke-width:0.6;"/><line style="stroke:#181818;stroke-width:0.6;" x1="16.8" x2="175.8" y1="133.8691" y2="133.8691"/><text fill="#000000" font-family="sans-serif" font-size="7.8" font-weight="bold" lengthAdjust="spacing" textLength="4.2" x="21" y="130.7115">4</text><text fill="#000000" font-family="sans-serif" font-size="7.8" lengthAdjust="spacing" textLength="100.8" x="27.6" y="130.7115">types/selects requested data</text><polygon fill="#181818" points="23.4,150.2438,17.4,152.6437,23.4,155.0438,21,152.6437" style="stroke:#181818;stroke-width:0.6;"/><line style="stroke:#181818;stroke-width:0.6;stroke-dasharray:2.0,2.0;" x1="19.8" x2="181.8" y1="152.6437" y2="152.6437"/><text fill="#000000" font-family="sans-serif" font-size="7.8" font-weight="bold" lengthAdjust="spacing" textLength="4.2" x="27" y="149.4861">5</text><text fill="#000000" font-family="sans-serif" font-size="7.8" lengthAdjust="spacing" textLength="141.6" x="33.6" y="149.4861">shows all data and requests confirmation</text><polygon fill="#181818" points="172.2,169.0184,178.2,171.4184,172.2,173.8184,174.6,171.4184" style="stroke:#181818;stroke-width:0.6;"/><line style="stroke:#181818;stroke-width:0.6;" x1="16.8" x2="175.8" y1="171.4184" y2="171.4184"/><text fill="#000000" font-family="sans-serif" font-size="7.8" font-weight="bold" lengthAdjust="spacing" textLength="4.2" x="21" y="168.2607">6</text><text fill="#000000" font-family="sans-serif" font-size="7.8" lengthAdjust="spacing" textLength="46.8" x="27.6" y="168.2607">confirms data</text><polygon fill="#181818" points="300.6,187.793,306.6,190.193,300.6,192.593,303,190.193" style="stroke:#181818;stroke-width:0.6;"/><line style="stroke:#181818;stroke-width:0.6;" x1="185.4" x2="304.2" y1="190.193" y2="190.193"/><text fill="#000000" font-family="sans-serif" font-size="7.8" font-weight="bold" lengthAdjust="spacing" textLength="4.2" x="189.6" y="187.0354">7</text><text fill="#000000" font-family="sans-serif" font-size="7.8" lengthAdjust="spacing" textLength="104.4" x="196.2" y="187.0354">registerJob(name, description)</text><polygon fill="#181818" points="382.2,206.5676,388.2,208.9676,382.2,211.3676,384.6,208.9676" style="stroke:#181818;stroke-width:0.6;"/><line style="stroke:#181818;stroke-width:0.6;" x1="313.8" x2="385.8" y1="208.9676" y2="208.9676"/><text fill="#000000" font-family="sans-serif" font-size="7.8" font-weight="bold" lengthAdjust="spacing" textLength="4.2" x="318" y="205.81">8</text><text fill="#000000" font-family="sans-serif" font-size="7.8" lengthAdjust="spacing" textLength="45" x="324.6" y="205.81">getInstance()</text><polygon fill="#181818" points="320.4,225.3422,314.4,227.7422,320.4,230.1422,318,227.7422" style="stroke:#181818;stroke-width:0.6;"/><line style="stroke:#181818;stroke-width:0.6;stroke-dasharray:2.0,2.0;" x1="316.8" x2="391.8" y1="227.7422" y2="227.7422"/><text fill="#000000" font-family="sans-serif" font-size="7.8" font-weight="bold" lengthAdjust="spacing" textLength="4.2" x="324" y="224.5846">9</text><text fill="#000000" font-family="sans-serif" font-size="7.8" lengthAdjust="spacing" textLength="40.2" x="330.6" y="224.5846">repositories</text><polygon fill="#181818" points="446.4,244.1168,452.4,246.5168,446.4,248.9168,448.8,246.5168" style="stroke:#181818;stroke-width:0.6;"/><line style="stroke:#181818;stroke-width:0.6;" x1="313.8" x2="450" y1="246.5168" y2="246.5168"/><text fill="#000000" font-family="sans-serif" font-size="7.8" font-weight="bold" lengthAdjust="spacing" textLength="8.4" x="318" y="243.3592">10</text><text fill="#000000" font-family="sans-serif" font-size="7.8" lengthAdjust="spacing" textLength="64.8" x="328.8" y="243.3592">getJobRepository()</text><polygon fill="#181818" points="320.4,262.8914,314.4,265.2914,320.4,267.6914,318,265.2914" style="stroke:#181818;stroke-width:0.6;"/><line style="stroke:#181818;stroke-width:0.6;stroke-dasharray:2.0,2.0;" x1="316.8" x2="456" y1="265.2914" y2="265.2914"/><text fill="#000000" font-family="sans-serif" font-size="7.8" font-weight="bold" lengthAdjust="spacing" textLength="8.4" x="324" y="262.1338">11</text><text fill="#000000" font-family="sans-serif" font-size="7.8" lengthAdjust="spacing" textLength="47.4" x="334.8" y="262.1338">jobRepository</text><polygon fill="#181818" points="513.9,281.666,519.9,284.066,513.9,286.466,516.3,284.066" style="stroke:#181818;stroke-width:0.6;"/><line style="stroke:#181818;stroke-width:0.6;" x1="313.8" x2="517.5" y1="284.066" y2="284.066"/><text fill="#000000" font-family="sans-serif" font-size="7.8" font-weight="bold" lengthAdjust="spacing" textLength="8.4" x="318" y="280.9084">12</text><text fill="#000000" font-family="sans-serif" font-size="7.8" lengthAdjust="spacing" textLength="104.4" x="328.8" y="280.9084">registerJob(name, description)</text><rect fill="none" height="25.9512" style="stroke:#000000;stroke-width:0.8999999999999999;" width="68.4" x="489.9" y="288.866"/><path d="M489.9,288.866 L527.1,288.866 L527.1,294.266 L521.1,300.266 L489.9,300.266 L489.9,288.866 " fill="#EEEEEE" style="stroke:#000000;stroke-width:1.2;"/><text fill="#000000" font-family="sans-serif" font-size="7.8" font-weight="bold" lengthAdjust="spacing" textLength="10.2" x="497.7" y="298.483">ref</text><text fill="#000000" font-family="sans-serif" font-size="7.2" lengthAdjust="spacing" textLength="42" x="503.1" y="310.4355">Register Job</text><polygon fill="#181818" points="320.4,329.3918,314.4,331.7918,320.4,334.1918,318,331.7918" style="stroke:#181818;stroke-width:0.6;"/><line style="stroke:#181818;stroke-width:0.6;stroke-dasharray:2.0,2.0;" x1="316.8" x2="523.5" y1="331.7918" y2="331.7918"/><text fill="#000000" font-family="sans-serif" font-size="7.8" font-weight="bold" lengthAdjust="spacing" textLength="8.4" x="324" y="328.6342">13</text><text fill="#000000" font-family="sans-serif" font-size="7.8" lengthAdjust="spacing" textLength="10.2" x="334.8" y="328.6342">job</text><polygon fill="#181818" points="192,348.1664,186,350.5664,192,352.9664,189.6,350.5664" style="stroke:#181818;stroke-width:0.6;"/><line style="stroke:#181818;stroke-width:0.6;stroke-dasharray:2.0,2.0;" x1="188.4" x2="310.2" y1="350.5664" y2="350.5664"/><text fill="#000000" font-family="sans-serif" font-size="7.8" font-weight="bold" lengthAdjust="spacing" textLength="8.4" x="195.6" y="347.4088">14</text><text fill="#000000" font-family="sans-serif" font-size="7.8" lengthAdjust="spacing" textLength="10.2" x="206.4" y="347.4088">job</text><polygon fill="#181818" points="20.4,366.941,14.4,369.341,20.4,371.741,18,369.341" style="stroke:#181818;stroke-width:0.6;"/><line style="stroke:#181818;stroke-width:0.6;stroke-dasharray:2.0,2.0;" x1="16.8" x2="181.8" y1="369.341" y2="369.341"/><text fill="#000000" font-family="sans-serif" font-size="7.8" font-weight="bold" lengthAdjust="spacing" textLength="8.4" x="24" y="366.1834">15</text><text fill="#000000" font-family="sans-serif" font-size="7.8" lengthAdjust="spacing" textLength="94.8" x="34.8" y="366.1834">displays operation success</text><!--SRC=[ZLJ1Rjim3BtxAuXSrXORTlTXbsB0Kcp04A-tNHIPThJOeYVApVBtevJ6aUAug2v9nFSU7oaol3TsK4xrq9CblNFK8tWtOi5JP51whrgi_B53SAYzicsN0dYdQZeOsqAZEiQYADJeoOxz5brHVDYP6g4Xyblw9o7joS7gs-R72XI3V1QYueqsWx8ULkK6MyCUtHDjdzSHyxnUXZoIzOww3bs4FlxQV9-11s8ZIGron6o-_imXBa7yjZS9rPMeP9vWnmZwazx4CisByXWBB42EV85FNwGOA0M_P_0atJmL0Wei7e96X4vagJnUX2D4eOS27nv4GZiKn2aSGX8B6KhH_3iYUuPQUHN3DSu4KpF-E21_PkpaQVbCn_h2dx6pVBoZ0uFgkaW0PUkB1KssCQvNtf1zZvLNFB-HEsz5ERLGNkJEgXu_IWxMpWmXv_r4cNJYX4pNuOIRe2VFN4ABVcrPHbpZtNq6cnJ2_6GHkOZzE1kwZ4y6IsgVIIGUgcWY6x0td5GpArNY9H_APJFLRJSP_TsjpYnUhGLS7OSDq8iimBBJgRJphZozRabwC4vTaoV8DFEkBFLYmUwf8N5AStf2lGnMjXwruQ5JHmOQqCL501wrHkPR2v7y37yS_m40]--></g></svg>