<?xml version="1.0" encoding="us-ascii" standalone="no"?><svg xmlns="http://www.w3.org/2000/svg" xmlns:xlink="http://www.w3.org/1999/xlink" contentStyleType="text/css" height="544.2px" preserveAspectRatio="none" style="width:672px;height:544px;background:#FFFFFF;" version="1.1" viewBox="0 0 672 544" width="672px" zoomAndPan="magnify"><defs/><g><rect fill="#FFFFFF" height="427.8609" style="stroke:#181818;stroke-width:0.6;" width="6" x="10.8" y="56.1727"/><rect fill="#FFFFFF" height="44.9473" style="stroke:#181818;stroke-width:0.6;" width="6" x="179.4" y="70.1473"/><rect fill="#FFFFFF" height="18.7746" style="stroke:#181818;stroke-width:0.6;" width="6" x="179.4" y="133.8691"/><rect fill="#FFFFFF" height="312.6152" style="stroke:#181818;stroke-width:0.6;" width="6" x="179.4" y="171.4184"/><rect fill="#FFFFFF" height="275.066" style="stroke:#181818;stroke-width:0.6;" width="6" x="307.8" y="190.193"/><rect fill="#FFFFFF" height="18.7746" style="stroke:#181818;stroke-width:0.6;" width="6" x="389.4" y="208.9676"/><rect fill="#FFFFFF" height="18.7746" style="stroke:#181818;stroke-width:0.6;" width="6" x="453.6" y="246.5168"/><rect fill="#FFFFFF" height="162.4184" style="stroke:#181818;stroke-width:0.6;" width="6" x="521.1" y="284.066"/><rect fill="#FFFFFF" height="78.5238" style="stroke:#181818;stroke-width:0.6;" width="6" x="524.1" y="344.9859"/><rect fill="#FFFFFF" height="25.3746" style="stroke:#181818;stroke-width:0.6;" width="6" x="527.1" y="371.5605"/><line style="stroke:#181818;stroke-width:0.3;stroke-dasharray:5.0,5.0;" x1="13.8" x2="13.8" y1="50.1727" y2="494.8336"/><line style="stroke:#181818;stroke-width:0.3;stroke-dasharray:5.0,5.0;" x1="182.1" x2="182.1" y1="50.1727" y2="494.8336"/><line style="stroke:#181818;stroke-width:0.3;stroke-dasharray:5.0,5.0;" x1="310.5" x2="310.5" y1="94.0336" y2="494.8336"/><line style="stroke:#181818;stroke-width:0.3;stroke-dasharray:5.0,5.0;" x1="392.1" x2="392.1" y1="50.1727" y2="494.8336"/><line style="stroke:#181818;stroke-width:0.3;stroke-dasharray:5.0,5.0;" x1="456.3" x2="456.3" y1="50.1727" y2="494.8336"/><line style="stroke:#181818;stroke-width:0.3;stroke-dasharray:5.0,5.0;" x1="524.1" x2="524.1" y1="50.1727" y2="494.8336"/><line style="stroke:#181818;stroke-width:0.3;stroke-dasharray:5.0,5.0;" x1="656.7" x2="656.7" y1="313.5387" y2="494.8336"/><text fill="#000000" font-family="sans-serif" font-size="8.4" lengthAdjust="spacing" textLength="18" x="3" y="48.0645">HRM</text><ellipse cx="13.8" cy="8.1" fill="#E3E3E3" rx="4.8" ry="4.8" style="stroke:#181818;stroke-width:0.3;"/><path d="M13.8,12.9 L13.8,29.1 M6,17.7 L21.6,17.7 M13.8,29.1 L6,38.1 M13.8,29.1 L21.6,38.1 " fill="none" style="stroke:#181818;stroke-width:0.3;"/><text fill="#000000" font-family="sans-serif" font-size="8.4" lengthAdjust="spacing" textLength="18" x="3" y="503.298">HRM</text><ellipse cx="13.8" cy="510.5062" fill="#E3E3E3" rx="4.8" ry="4.8" style="stroke:#181818;stroke-width:0.3;"/><path d="M13.8,515.3063 L13.8,531.5063 M6,520.1062 L21.6,520.1062 M13.8,531.5063 L6,540.5063 M13.8,531.5063 L21.6,540.5063 " fill="none" style="stroke:#181818;stroke-width:0.3;"/><rect fill="#E3E3E3" height="19.5727" rx="1.5" ry="1.5" style="stroke:#181818;stroke-width:0.3;" width="63" x="150.9" y="30"/><text fill="#000000" font-family="sans-serif" font-size="8.4" lengthAdjust="spacing" textLength="54.6" x="155.1" y="43.2645">:RegisterJobUI</text><rect fill="#E3E3E3" height="19.5727" rx="1.5" ry="1.5" style="stroke:#181818;stroke-width:0.3;" width="63" x="150.9" y="494.2336"/><text fill="#000000" font-family="sans-serif" font-size="8.4" lengthAdjust="spacing" textLength="54.6" x="155.1" y="507.498">:RegisterJobUI</text><rect fill="#E3E3E3" height="19.5727" rx="1.5" ry="1.5" style="stroke:#181818;stroke-width:0.3;" width="93" x="264.3" y="494.2336"/><text fill="#000000" font-family="sans-serif" font-size="8.4" lengthAdjust="spacing" textLength="84.6" x="268.5" y="507.498">:RegisterJobController</text><rect fill="#E3E3E3" height="19.5727" rx="1.5" ry="1.5" style="stroke:#181818;stroke-width:0.3;" width="58.2" x="363.3" y="30"/><text fill="#000000" font-family="sans-serif" font-size="8.4" lengthAdjust="spacing" textLength="49.8" x="367.5" y="43.2645">:Repositories</text><rect fill="#E3E3E3" height="19.5727" rx="1.5" ry="1.5" style="stroke:#181818;stroke-width:0.3;" width="58.2" x="363.3" y="494.2336"/><text fill="#000000" font-family="sans-serif" font-size="8.4" lengthAdjust="spacing" textLength="49.8" x="367.5" y="507.498">:Repositories</text><rect fill="#E3E3E3" height="30.7453" rx="1.5" ry="1.5" style="stroke:#181818;stroke-width:0.3;" width="58.2" x="427.5" y="18.8273"/><text fill="#000000" font-family="sans-serif" font-size="8.4" lengthAdjust="spacing" textLength="44.4" x="434.4" y="32.0918">repositories</text><text fill="#000000" font-family="sans-serif" font-size="8.4" lengthAdjust="spacing" textLength="49.8" x="431.7" y="43.2645">:Repositories</text><rect fill="#E3E3E3" height="30.7453" rx="1.5" ry="1.5" style="stroke:#181818;stroke-width:0.3;" width="58.2" x="427.5" y="494.2336"/><text fill="#000000" font-family="sans-serif" font-size="8.4" lengthAdjust="spacing" textLength="44.4" x="434.4" y="507.498">repositories</text><text fill="#000000" font-family="sans-serif" font-size="8.4" lengthAdjust="spacing" textLength="49.8" x="431.7" y="518.6707">:Repositories</text><rect fill="#E3E3E3" height="19.5727" rx="1.5" ry="1.5" style="stroke:#181818;stroke-width:0.3;" width="64.8" x="491.7" y="30"/><text fill="#000000" font-family="sans-serif" font-size="8.4" lengthAdjust="spacing" textLength="56.4" x="495.9" y="43.2645">:JobRepository</text><rect fill="#E3E3E3" height="19.5727" rx="1.5" ry="1.5" style="stroke:#181818;stroke-width:0.3;" width="64.8" x="491.7" y="494.2336"/><text fill="#000000" font-family="sans-serif" font-size="8.4" lengthAdjust="spacing" textLength="56.4" x="495.9" y="507.498">:JobRepository</text><rect fill="#E3E3E3" height="30.7453" rx="1.5" ry="1.5" style="stroke:#181818;stroke-width:0.3;" width="24" x="644.7" y="494.2336"/><text fill="#000000" font-family="sans-serif" font-size="8.4" lengthAdjust="spacing" textLength="11.4" x="651" y="507.498">job</text><text fill="#000000" font-family="sans-serif" font-size="8.4" lengthAdjust="spacing" textLength="15.6" x="648.9" y="518.6707">:Job</text><rect fill="#FFFFFF" height="427.8609" style="stroke:#181818;stroke-width:0.6;" width="6" x="10.8" y="56.1727"/><rect fill="#FFFFFF" height="44.9473" style="stroke:#181818;stroke-width:0.6;" width="6" x="179.4" y="70.1473"/><rect fill="#FFFFFF" height="18.7746" style="stroke:#181818;stroke-width:0.6;" width="6" x="179.4" y="133.8691"/><rect fill="#FFFFFF" height="312.6152" style="stroke:#181818;stroke-width:0.6;" width="6" x="179.4" y="171.4184"/><rect fill="#FFFFFF" height="275.066" style="stroke:#181818;stroke-width:0.6;" width="6" x="307.8" y="190.193"/><rect fill="#FFFFFF" height="18.7746" style="stroke:#181818;stroke-width:0.6;" width="6" x="389.4" y="208.9676"/><rect fill="#FFFFFF" height="18.7746" style="stroke:#181818;stroke-width:0.6;" width="6" x="453.6" y="246.5168"/><rect fill="#FFFFFF" height="162.4184" style="stroke:#181818;stroke-width:0.6;" width="6" x="521.1" y="284.066"/><rect fill="#FFFFFF" height="78.5238" style="stroke:#181818;stroke-width:0.6;" width="6" x="524.1" y="344.9859"/><rect fill="#FFFFFF" height="25.3746" style="stroke:#181818;stroke-width:0.6;" width="6" x="527.1" y="371.5605"/><polygon fill="#181818" points="172.2,67.7473,178.2,70.1473,172.2,72.5473,174.6,70.1473" style="stroke:#181818;stroke-width:0.6;"/><line style="stroke:#181818;stroke-width:0.6;" x1="16.8" x2="175.8" y1="70.1473" y2="70.1473"/><text fill="#000000" font-family="sans-serif" font-size="7.8" font-weight="bold" lengthAdjust="spacing" textLength="4.2" x="21" y="66.9896">1</text><text fill="#000000" font-family="sans-serif" font-size="7.8" lengthAdjust="spacing" textLength="89.4" x="27.6" y="66.9896">asks to register a new job</text><polygon fill="#181818" points="257.1,86.5219,263.1,88.9219,257.1,91.3219,259.5,88.9219" style="stroke:#181818;stroke-width:0.6;"/><line style="stroke:#181818;stroke-width:0.6;" x1="185.4" x2="260.7" y1="88.9219" y2="88.9219"/><text fill="#000000" font-family="sans-serif" font-size="7.8" font-weight="bold" lengthAdjust="spacing" textLength="4.2" x="189.6" y="85.7643">2</text><text fill="#000000" font-family="sans-serif" font-size="7.8" lengthAdjust="spacing" textLength="21.6" x="196.2" y="85.7643">create</text><rect fill="#E3E3E3" height="19.5727" rx="1.5" ry="1.5" style="stroke:#181818;stroke-width:0.3;" width="93" x="264.3" y="74.9473"/><text fill="#000000" font-family="sans-serif" font-size="8.4" lengthAdjust="spacing" textLength="84.6" x="268.5" y="88.2117">:RegisterJobController</text><polygon fill="#181818" points="23.4,112.6945,17.4,115.0945,23.4,117.4945,21,115.0945" style="stroke:#181818;stroke-width:0.6;"/><line style="stroke:#181818;stroke-width:0.6;stroke-dasharray:2.0,2.0;" x1="19.8" x2="181.8" y1="115.0945" y2="115.0945"/><text fill="#000000" font-family="sans-serif" font-size="7.8" font-weight="bold" lengthAdjust="spacing" textLength="4.2" x="27" y="111.9369">3</text><text fill="#000000" font-family="sans-serif" font-size="7.8" lengthAdjust="spacing" textLength="47.4" x="33.6" y="111.9369">requests data</text><polygon fill="#181818" points="172.2,131.4691,178.2,133.8691,172.2,136.2691,174.6,133.8691" style="stroke:#181818;stroke-width:0.6;"/><line style="stroke:#181818;stroke-width:0.6;" x1="16.8" x2="175.8" y1="133.8691" y2="133.8691"/><text fill="#000000" font-family="sans-serif" font-size="7.8" font-weight="bold" lengthAdjust="spacing" textLength="4.2" x="21" y="130.7115">4</text><text fill="#000000" font-family="sans-serif" font-size="7.8" lengthAdjust="spacing" textLength="100.8" x="27.6" y="130.7115">types/selects requested data</text><polygon fill="#181818" points="23.4,150.2438,17.4,152.6437,23.4,155.0438,21,152.6437" style="stroke:#181818;stroke-width:0.6;"/><line style="stroke:#181818;stroke-width:0.6;stroke-dasharray:2.0,2.0;" x1="19.8" x2="181.8" y1="152.6437" y2="152.6437"/><text fill="#000000" font-family="sans-serif" font-size="7.8" font-weight="bold" lengthAdjust="spacing" textLength="4.2" x="27" y="149.4861">5</text><text fill="#000000" font-family="sans-serif" font-size="7.8" lengthAdjust="spacing" textLength="141.6" x="33.6" y="149.4861">shows all data and requests confirmation</text><polygon fill="#181818" points="172.2,169.0184,178.2,171.4184,172.2,173.8184,174.6,171.4184" style="stroke:#181818;stroke-width:0.6;"/><line style="stroke:#181818;stroke-width:0.6;" x1="16.8" x2="175.8" y1="171.4184" y2="171.4184"/><text fill="#000000" font-family="sans-serif" font-size="7.8" font-weight="bold" lengthAdjust="spacing" textLength="4.2" x="21" y="168.2607">6</text><text fill="#000000" font-family="sans-serif" font-size="7.8" lengthAdjust="spacing" textLength="46.8" x="27.6" y="168.2607">confirms data</text><polygon fill="#181818" points="300.6,187.793,306.6,190.193,300.6,192.593,303,190.193" style="stroke:#181818;stroke-width:0.6;"/><line style="stroke:#181818;stroke-width:0.6;" x1="185.4" x2="304.2" y1="190.193" y2="190.193"/><text fill="#000000" font-family="sans-serif" font-size="7.8" font-weight="bold" lengthAdjust="spacing" textLength="4.2" x="189.6" y="187.0354">7</text><text fill="#000000" font-family="sans-serif" font-size="7.8" lengthAdjust="spacing" textLength="104.4" x="196.2" y="187.0354">registerJob(name, description)</text><polygon fill="#181818" points="382.2,206.5676,388.2,208.9676,382.2,211.3676,384.6,208.9676" style="stroke:#181818;stroke-width:0.6;"/><line style="stroke:#181818;stroke-width:0.6;" x1="313.8" x2="385.8" y1="208.9676" y2="208.9676"/><text fill="#000000" font-family="sans-serif" font-size="7.8" font-weight="bold" lengthAdjust="spacing" textLength="4.2" x="318" y="205.81">8</text><text fill="#000000" font-family="sans-serif" font-size="7.8" lengthAdjust="spacing" textLength="45" x="324.6" y="205.81">getInstance()</text><polygon fill="#181818" points="320.4,225.3422,314.4,227.7422,320.4,230.1422,318,227.7422" style="stroke:#181818;stroke-width:0.6;"/><line style="stroke:#181818;stroke-width:0.6;stroke-dasharray:2.0,2.0;" x1="316.8" x2="391.8" y1="227.7422" y2="227.7422"/><text fill="#000000" font-family="sans-serif" font-size="7.8" font-weight="bold" lengthAdjust="spacing" textLength="4.2" x="324" y="224.5846">9</text><text fill="#000000" font-family="sans-serif" font-size="7.8" lengthAdjust="spacing" textLength="40.2" x="330.6" y="224.5846">repositories</text><polygon fill="#181818" points="446.4,244.1168,452.4,246.5168,446.4,248.9168,448.8,246.5168" style="stroke:#181818;stroke-width:0.6;"/><line style="stroke:#181818;stroke-width:0.6;" x1="313.8" x2="450" y1="246.5168" y2="246.5168"/><text fill="#000000" font-family="sans-serif" font-size="7.8" font-weight="bold" lengthAdjust="spacing" textLength="8.4" x="318" y="243.3592">10</text><text fill="#000000" font-family="sans-serif" font-size="7.8" lengthAdjust="spacing" textLength="64.8" x="328.8" y="243.3592">getJobRepository()</text><polygon fill="#181818" points="320.4,262.8914,314.4,265.2914,320.4,267.6914,318,265.2914" style="stroke:#181818;stroke-width:0.6;"/><line style="stroke:#181818;stroke-width:0.6;stroke-dasharray:2.0,2.0;" x1="316.8" x2="456" y1="265.2914" y2="265.2914"/><text fill="#000000" font-family="sans-serif" font-size="7.8" font-weight="bold" lengthAdjust="spacing" textLength="8.4" x="324" y="262.1338">11</text><text fill="#000000" font-family="sans-serif" font-size="7.8" lengthAdjust="spacing" textLength="47.4" x="334.8" y="262.1338">jobRepository</text><polygon fill="#181818" points="513.9,281.666,519.9,284.066,513.9,286.466,516.3,284.066" style="stroke:#181818;stroke-width:0.6;"/><line style="stroke:#181818;stroke-width:0.6;" x1="313.8" x2="517.5" y1="284.066" y2="284.066"/><text fill="#000000" font-family="sans-serif" font-size="7.8" font-weight="bold" lengthAdjust="spacing" textLength="8.4" x="318" y="280.9084">12</text><text fill="#000000" font-family="sans-serif" font-size="7.8" lengthAdjust="spacing" textLength="104.4" x="328.8" y="280.9084">registerJob(name, description)</text><polygon fill="#181818" points="637.5,300.4406,643.5,302.8406,637.5,305.2406,639.9,302.8406" style="stroke:#181818;stroke-width:0.6;"/><line style="stroke:#181818;stroke-width:0.6;" x1="527.1" x2="641.1" y1="302.8406" y2="302.8406"/><text fill="#000000" font-family="sans-serif" font-size="7.8" font-weight="bold" lengthAdjust="spacing" textLength="8.4" x="531.3" y="299.683">13</text><text fill="#000000" font-family="sans-serif" font-size="7.8" lengthAdjust="spacing" textLength="92.4" x="542.1" y="299.683">register(name, description)</text><rect fill="#E3E3E3" height="30.7453" rx="1.5" ry="1.5" style="stroke:#181818;stroke-width:0.3;" width="24" x="644.7" y="288.866"/><text fill="#000000" font-family="sans-serif" font-size="8.4" lengthAdjust="spacing" textLength="11.4" x="651" y="302.1305">job</text><text fill="#000000" font-family="sans-serif" font-size="8.4" lengthAdjust="spacing" textLength="15.6" x="648.9" y="313.3031">:Job</text><line style="stroke:#181818;stroke-width:0.6;" x1="527.1" x2="555.3" y1="337.1859" y2="337.1859"/><line style="stroke:#181818;stroke-width:0.6;" x1="555.3" x2="555.3" y1="337.1859" y2="344.9859"/><line style="stroke:#181818;stroke-width:0.6;" x1="530.7" x2="555.3" y1="344.9859" y2="344.9859"/><polygon fill="#181818" points="536.7,342.5859,530.7,344.9859,536.7,347.3859,534.3,344.9859" style="stroke:#181818;stroke-width:0.6;"/><text fill="#000000" font-family="sans-serif" font-size="7.8" font-weight="bold" lengthAdjust="spacing" textLength="8.4" x="534.3" y="334.0283">14</text><text fill="#000000" font-family="sans-serif" font-size="7.8" lengthAdjust="spacing" textLength="42" x="545.1" y="334.0283">addJob (job)</text><line style="stroke:#181818;stroke-width:0.6;" x1="530.1" x2="558.3" y1="363.7605" y2="363.7605"/><line style="stroke:#181818;stroke-width:0.6;" x1="558.3" x2="558.3" y1="363.7605" y2="371.5605"/><line style="stroke:#181818;stroke-width:0.6;" x1="533.7" x2="558.3" y1="371.5605" y2="371.5605"/><polygon fill="#181818" points="539.7,369.1605,533.7,371.5605,539.7,373.9605,537.3,371.5605" style="stroke:#181818;stroke-width:0.6;"/><text fill="#000000" font-family="sans-serif" font-size="7.8" font-weight="bold" lengthAdjust="spacing" textLength="8.4" x="537.3" y="360.6029">15</text><text fill="#000000" font-family="sans-serif" font-size="7.8" lengthAdjust="spacing" textLength="55.2" x="548.1" y="360.6029">validateJob (job)</text><line style="stroke:#181818;stroke-width:0.6;stroke-dasharray:2.0,2.0;" x1="533.1" x2="558.3" y1="396.3352" y2="396.3352"/><line style="stroke:#181818;stroke-width:0.6;stroke-dasharray:2.0,2.0;" x1="558.3" x2="558.3" y1="396.3352" y2="404.1352"/><line style="stroke:#181818;stroke-width:0.6;stroke-dasharray:2.0,2.0;" x1="530.1" x2="558.3" y1="404.1352" y2="404.1352"/><polygon fill="#181818" points="536.1,401.7352,530.1,404.1352,536.1,406.5352,533.7,404.1352" style="stroke:#181818;stroke-width:0.6;"/><text fill="#000000" font-family="sans-serif" font-size="7.8" font-weight="bold" lengthAdjust="spacing" textLength="8.4" x="537.3" y="393.1775">16</text><text fill="#000000" font-family="sans-serif" font-size="7.8" lengthAdjust="spacing" textLength="2.4" x="548.1" y="393.1775">&#160;</text><line style="stroke:#181818;stroke-width:0.6;stroke-dasharray:2.0,2.0;" x1="530.1" x2="555.3" y1="422.9098" y2="422.9098"/><line style="stroke:#181818;stroke-width:0.6;stroke-dasharray:2.0,2.0;" x1="555.3" x2="555.3" y1="422.9098" y2="430.7098"/><line style="stroke:#181818;stroke-width:0.6;stroke-dasharray:2.0,2.0;" x1="527.1" x2="555.3" y1="430.7098" y2="430.7098"/><polygon fill="#181818" points="533.1,428.3098,527.1,430.7098,533.1,433.1098,530.7,430.7098" style="stroke:#181818;stroke-width:0.6;"/><text fill="#000000" font-family="sans-serif" font-size="7.8" font-weight="bold" lengthAdjust="spacing" textLength="8.4" x="534.3" y="419.7521">17</text><text fill="#000000" font-family="sans-serif" font-size="7.8" lengthAdjust="spacing" textLength="2.4" x="545.1" y="419.7521">&#160;</text><polygon fill="#181818" points="320.4,444.0844,314.4,446.4844,320.4,448.8844,318,446.4844" style="stroke:#181818;stroke-width:0.6;"/><line style="stroke:#181818;stroke-width:0.6;stroke-dasharray:2.0,2.0;" x1="316.8" x2="523.5" y1="446.4844" y2="446.4844"/><text fill="#000000" font-family="sans-serif" font-size="7.8" font-weight="bold" lengthAdjust="spacing" textLength="8.4" x="324" y="443.3268">18</text><text fill="#000000" font-family="sans-serif" font-size="7.8" lengthAdjust="spacing" textLength="10.2" x="334.8" y="443.3268">job</text><polygon fill="#181818" points="192,462.859,186,465.259,192,467.659,189.6,465.259" style="stroke:#181818;stroke-width:0.6;"/><line style="stroke:#181818;stroke-width:0.6;stroke-dasharray:2.0,2.0;" x1="188.4" x2="310.2" y1="465.259" y2="465.259"/><text fill="#000000" font-family="sans-serif" font-size="7.8" font-weight="bold" lengthAdjust="spacing" textLength="8.4" x="195.6" y="462.1014">19</text><text fill="#000000" font-family="sans-serif" font-size="7.8" lengthAdjust="spacing" textLength="10.2" x="206.4" y="462.1014">job</text><polygon fill="#181818" points="20.4,481.6336,14.4,484.0336,20.4,486.4336,18,484.0336" style="stroke:#181818;stroke-width:0.6;"/><line style="stroke:#181818;stroke-width:0.6;stroke-dasharray:2.0,2.0;" x1="16.8" x2="181.8" y1="484.0336" y2="484.0336"/><text fill="#000000" font-family="sans-serif" font-size="7.8" font-weight="bold" lengthAdjust="spacing" textLength="8.4" x="24" y="480.876">20</text><text fill="#000000" font-family="sans-serif" font-size="7.8" lengthAdjust="spacing" textLength="94.8" x="34.8" y="480.876">displays operation success</text><!--SRC=[nLJDZjCm4BxxAKQzqAv0t7FWm0g9ha2WXhrncJhJr3InWyVPqhTdxD8qRhhBWf3mfOtd-yjaRDuPsw775bfddTvwrn84tvFYeTAXtc5DPJWq19vqG5itOm1liN9xOslOOCEabC8-EDktQ_9AlTYQYc3ZN5Yx7rBImNcOlLzzd04ooAyIbM2qwT06c1KhgWq7ydTkVRzCcFlbuv1RPuDtJKC-GM-_h3vCm9rZ8wQ6E65Mxpxd43z2VBLN2UM5g3WFi4C2VHllv6WfYQnG4l3kqrkLsc0UC51gW09PyWTUlP6NXK9WEuRWfDl75mK4I_leaQ03MJgJDk8Iej1Z0svkH49x4iIn74jIYmw5Q7xlYGD3XG5JkQA9u3XCE7J4hvaQ-VHyebDrva_OcHzltPu1coOH06rrZg2TtHZVOZ3EFYVABpm_uPsteXXQAEsVMspffNYmzgQBdek1CkYa2HgsuuexKK_6e82QmjAo705DyqK66nJYV6KLsKZzE0KwZrS66xtxH6AKeKmXiW5y8aavYLAEikH3-tYOydgQZFxiLcSHymGP9gwi72tbzAJnFdbTC_gzoaLmh2h937FPNap8VntrmkG16oDZI__SwT9gWXzzo_-YF5KTfa_zcTfnyD9jaDD7rFC1pgwXod3Nu871TUJJXGFSQqtCrowUqMEwe7y2]--></g></svg>