<?xml version="1.0" encoding="us-ascii" standalone="no"?><svg xmlns="http://www.w3.org/2000/svg" xmlns:xlink="http://www.w3.org/1999/xlink" contentStyleType="text/css" height="461.7px" preserveAspectRatio="none" style="width:367px;height:461px;background:#FFFFFF;" version="1.1" viewBox="0 0 367 461" width="367.2px" zoomAndPan="magnify"><defs/><g><text fill="#000000" font-family="sans-serif" font-size="12.6" font-weight="bold" lengthAdjust="spacing" textLength="315" x="25.425" y="27.0967">System Sequence Diagram (SSD) - Alternative Two</text><rect fill="#FFFFFF" height="226.1953" style="stroke:#181818;stroke-width:0.9;" width="9" x="43.65" y="136.677"/><rect fill="#FFFFFF" height="28.1619" style="stroke:#181818;stroke-width:0.9;" width="9" x="328.95" y="157.6389"/><rect fill="#FFFFFF" height="28.1619" style="stroke:#181818;stroke-width:0.9;" width="9" x="328.95" y="213.9627"/><rect fill="#FFFFFF" height="28.1619" style="stroke:#181818;stroke-width:0.9;" width="9" x="328.95" y="270.2865"/><rect fill="#FFFFFF" height="28.1619" style="stroke:#181818;stroke-width:0.9;" width="9" x="328.95" y="326.6104"/><line style="stroke:#181818;stroke-width:0.45;stroke-dasharray:5.0,5.0;" x1="47.7" x2="47.7" y1="127.677" y2="370.9723"/><line style="stroke:#181818;stroke-width:0.45;stroke-dasharray:5.0,5.0;" x1="333.45" x2="333.45" y1="127.677" y2="370.9723"/><text fill="#000000" font-family="sans-serif" font-size="12.6" lengthAdjust="spacing" textLength="81.9" x="4.5" y="107.7557">Green Spaces</text><text fill="#000000" font-family="sans-serif" font-size="12.6" lengthAdjust="spacing" textLength="50.4" x="20.25" y="124.5146">Manager</text><ellipse cx="48.15" cy="47.809" fill="#E3E3E3" rx="7.2" ry="7.2" style="stroke:#181818;stroke-width:0.45;"/><path d="M48.15,55.009 L48.15,79.309 M36.45,62.209 L59.85,62.209 M48.15,79.309 L36.45,92.809 M48.15,79.309 L59.85,92.809 " fill="none" style="stroke:#181818;stroke-width:0.45;"/><text fill="#000000" font-family="sans-serif" font-size="12.6" lengthAdjust="spacing" textLength="81.9" x="4.5" y="383.6689">Green Spaces</text><text fill="#000000" font-family="sans-serif" font-size="12.6" lengthAdjust="spacing" textLength="50.4" x="20.25" y="400.4279">Manager</text><ellipse cx="48.15" cy="411.2402" fill="#E3E3E3" rx="7.2" ry="7.2" style="stroke:#181818;stroke-width:0.45;"/><path d="M48.15,418.4402 L48.15,442.7402 M36.45,425.6402 L59.85,425.6402 M48.15,442.7402 L36.45,456.2402 M48.15,442.7402 L59.85,456.2402 " fill="none" style="stroke:#181818;stroke-width:0.45;"/><rect fill="#E3E3E3" height="29.359" rx="2.25" ry="2.25" style="stroke:#181818;stroke-width:0.45;" width="57.6" x="304.65" y="97.418"/><text fill="#000000" font-family="sans-serif" font-size="12.6" lengthAdjust="spacing" textLength="45" x="310.95" y="117.3146">:System</text><rect fill="#E3E3E3" height="29.359" rx="2.25" ry="2.25" style="stroke:#181818;stroke-width:0.45;" width="57.6" x="304.65" y="370.0723"/><text fill="#000000" font-family="sans-serif" font-size="12.6" lengthAdjust="spacing" textLength="45" x="310.95" y="389.9689">:System</text><rect fill="#FFFFFF" height="226.1953" style="stroke:#181818;stroke-width:0.9;" width="9" x="43.65" y="136.677"/><rect fill="#FFFFFF" height="28.1619" style="stroke:#181818;stroke-width:0.9;" width="9" x="328.95" y="157.6389"/><rect fill="#FFFFFF" height="28.1619" style="stroke:#181818;stroke-width:0.9;" width="9" x="328.95" y="213.9627"/><rect fill="#FFFFFF" height="28.1619" style="stroke:#181818;stroke-width:0.9;" width="9" x="328.95" y="270.2865"/><rect fill="#FFFFFF" height="28.1619" style="stroke:#181818;stroke-width:0.9;" width="9" x="328.95" y="326.6104"/><polygon fill="#181818" points="318.15,154.0389,327.15,157.6389,318.15,161.2389,321.75,157.6389" style="stroke:#181818;stroke-width:0.9;"/><line style="stroke:#181818;stroke-width:0.9;" x1="52.65" x2="323.55" y1="157.6389" y2="157.6389"/><text fill="#000000" font-family="sans-serif" font-size="11.7" font-weight="bold" lengthAdjust="spacing" textLength="6.3" x="58.95" y="152.9024">1</text><text fill="#000000" font-family="sans-serif" font-size="11.7" lengthAdjust="spacing" textLength="249.3" x="68.85" y="152.9024">asks to assign a team to an entry in the agenda</text><polygon fill="#181818" points="62.55,182.2008,53.55,185.8008,62.55,189.4008,58.95,185.8008" style="stroke:#181818;stroke-width:0.9;"/><line style="stroke:#181818;stroke-width:0.9;stroke-dasharray:2.0,2.0;" x1="57.15" x2="332.55" y1="185.8008" y2="185.8008"/><text fill="#000000" font-family="sans-serif" font-size="11.7" font-weight="bold" lengthAdjust="spacing" textLength="6.3" x="67.95" y="181.0644">2</text><text fill="#000000" font-family="sans-serif" font-size="11.7" lengthAdjust="spacing" textLength="210.6" x="77.85" y="181.0644">shows teams list and asks to select one</text><polygon fill="#181818" points="318.15,210.3627,327.15,213.9627,318.15,217.5627,321.75,213.9627" style="stroke:#181818;stroke-width:0.9;"/><line style="stroke:#181818;stroke-width:0.9;" x1="52.65" x2="323.55" y1="213.9627" y2="213.9627"/><text fill="#000000" font-family="sans-serif" font-size="11.7" font-weight="bold" lengthAdjust="spacing" textLength="6.3" x="58.95" y="209.2263">3</text><text fill="#000000" font-family="sans-serif" font-size="11.7" lengthAdjust="spacing" textLength="77.4" x="68.85" y="209.2263">selects a team</text><polygon fill="#181818" points="62.55,238.5246,53.55,242.1246,62.55,245.7246,58.95,242.1246" style="stroke:#181818;stroke-width:0.9;"/><line style="stroke:#181818;stroke-width:0.9;stroke-dasharray:2.0,2.0;" x1="57.15" x2="332.55" y1="242.1246" y2="242.1246"/><text fill="#000000" font-family="sans-serif" font-size="11.7" font-weight="bold" lengthAdjust="spacing" textLength="6.3" x="67.95" y="237.3882">4</text><text fill="#000000" font-family="sans-serif" font-size="11.7" lengthAdjust="spacing" textLength="220.5" x="77.85" y="237.3882">shows agenda and asks to select an entry</text><polygon fill="#181818" points="318.15,266.6865,327.15,270.2865,318.15,273.8865,321.75,270.2865" style="stroke:#181818;stroke-width:0.9;"/><line style="stroke:#181818;stroke-width:0.9;" x1="52.65" x2="323.55" y1="270.2865" y2="270.2865"/><text fill="#000000" font-family="sans-serif" font-size="11.7" font-weight="bold" lengthAdjust="spacing" textLength="6.3" x="58.95" y="265.5501">5</text><text fill="#000000" font-family="sans-serif" font-size="11.7" lengthAdjust="spacing" textLength="200.7" x="68.85" y="265.5501">selects a entry and assign a team to it</text><polygon fill="#181818" points="62.55,294.8484,53.55,298.4484,62.55,302.0484,58.95,298.4484" style="stroke:#181818;stroke-width:0.9;"/><line style="stroke:#181818;stroke-width:0.9;stroke-dasharray:2.0,2.0;" x1="57.15" x2="332.55" y1="298.4484" y2="298.4484"/><text fill="#000000" font-family="sans-serif" font-size="11.7" font-weight="bold" lengthAdjust="spacing" textLength="6.3" x="67.95" y="293.712">6</text><text fill="#000000" font-family="sans-serif" font-size="11.7" lengthAdjust="spacing" textLength="212.4" x="77.85" y="293.712">shows all data and requests confirmation</text><polygon fill="#181818" points="318.15,323.0104,327.15,326.6104,318.15,330.2104,321.75,326.6104" style="stroke:#181818;stroke-width:0.9;"/><line style="stroke:#181818;stroke-width:0.9;" x1="52.65" x2="323.55" y1="326.6104" y2="326.6104"/><text fill="#000000" font-family="sans-serif" font-size="11.7" font-weight="bold" lengthAdjust="spacing" textLength="6.3" x="58.95" y="321.8739">7</text><text fill="#000000" font-family="sans-serif" font-size="11.7" lengthAdjust="spacing" textLength="70.2" x="68.85" y="321.8739">confirms data</text><polygon fill="#181818" points="62.55,351.1723,53.55,354.7723,62.55,358.3723,58.95,354.7723" style="stroke:#181818;stroke-width:0.9;"/><line style="stroke:#181818;stroke-width:0.9;stroke-dasharray:2.0,2.0;" x1="57.15" x2="332.55" y1="354.7723" y2="354.7723"/><text fill="#000000" font-family="sans-serif" font-size="11.7" font-weight="bold" lengthAdjust="spacing" textLength="6.3" x="67.95" y="350.0358">8</text><text fill="#000000" font-family="sans-serif" font-size="11.7" lengthAdjust="spacing" textLength="142.2" x="77.85" y="350.0358">displays operation success</text><!--SRC=[dP8nRiCm34LtdOB8r0wvG8O21G9awgIENLYPSOJ8b2lI2Npxqh8J544w95f4I5__Fn6KO-GU2tRGPSxXK797e6KW9zUR7iCHM_8w9e92GP7Rz5SW1spoEN8BUqn2pcbKa_fHb3hmz3CG1u9jn7QIltY_VOKrl2UbmgZnHF1vpixXe9c7xfkArK5pWTMk435uGo3vuWza0oahG86T_t0Mhp747bbXjPdpwkLSLfTuGgMgTc3B2bY_NTWs9ZuAQBPTOik0e6I8qm43iPOH8eCU22oO6wmULzTB32nhSLrRm9IpiSxairHBWHH5pRMvHWebQoPafchGq5tVM-3vbIoaJ_7CNxd7SldqSq1plsRRcsv6VOuq9MXGPzOo3P9OKiYyZwMpoSdy2EdoJghbWpnDb3xXA91xAZKPP0WsbV8FmIy0]--></g></svg>