<?xml version="1.0" encoding="us-ascii" standalone="no"?><svg xmlns="http://www.w3.org/2000/svg" xmlns:xlink="http://www.w3.org/1999/xlink" contentStyleType="text/css" height="410.4px" preserveAspectRatio="none" style="width:348px;height:410px;background:#FFFFFF;" version="1.1" viewBox="0 0 348 410" width="348.8px" zoomAndPan="magnify"><defs/><g><text fill="#000000" font-family="sans-serif" font-size="11.2" font-weight="bold" lengthAdjust="spacing" textLength="280.8" x="33.4" y="24.0859">System Sequence Diagram (SSD) - Alternative One</text><rect fill="#FFFFFF" height="201.0625" style="stroke:#181818;stroke-width:0.8000000000000002;" width="8" x="38.8" y="121.4906"/><rect fill="#FFFFFF" height="25.0328" style="stroke:#181818;stroke-width:0.8000000000000002;" width="8" x="314.8" y="140.1234"/><rect fill="#FFFFFF" height="25.0328" style="stroke:#181818;stroke-width:0.8000000000000002;" width="8" x="314.8" y="190.1891"/><rect fill="#FFFFFF" height="25.0328" style="stroke:#181818;stroke-width:0.8000000000000002;" width="8" x="314.8" y="240.2547"/><rect fill="#FFFFFF" height="25.0328" style="stroke:#181818;stroke-width:0.8000000000000002;" width="8" x="314.8" y="290.3203"/><line style="stroke:#181818;stroke-width:0.4000000000000001;stroke-dasharray:5.0,5.0;" x1="42.4" x2="42.4" y1="113.4906" y2="329.7531"/><line style="stroke:#181818;stroke-width:0.4000000000000001;stroke-dasharray:5.0,5.0;" x1="318.8" x2="318.8" y1="113.4906" y2="329.7531"/><text fill="#000000" font-family="sans-serif" font-size="11.2" lengthAdjust="spacing" textLength="72.8" x="4" y="95.7828">Green Spaces</text><text fill="#000000" font-family="sans-serif" font-size="11.2" lengthAdjust="spacing" textLength="44.8" x="18" y="110.6797">Manager</text><ellipse cx="42.8" cy="42.4969" fill="#E3E3E3" rx="6.4" ry="6.4" style="stroke:#181818;stroke-width:0.4000000000000001;"/><path d="M42.8,48.8969 L42.8,70.4969 M32.4,55.2969 L53.2,55.2969 M42.8,70.4969 L32.4,82.4969 M42.8,70.4969 L53.2,82.4969 " fill="none" style="stroke:#181818;stroke-width:0.4000000000000001;"/><text fill="#000000" font-family="sans-serif" font-size="11.2" lengthAdjust="spacing" textLength="72.8" x="4" y="341.0391">Green Spaces</text><text fill="#000000" font-family="sans-serif" font-size="11.2" lengthAdjust="spacing" textLength="44.8" x="18" y="355.9359">Manager</text><ellipse cx="42.8" cy="365.5469" fill="#E3E3E3" rx="6.4" ry="6.4" style="stroke:#181818;stroke-width:0.4000000000000001;"/><path d="M42.8,371.9469 L42.8,393.5469 M32.4,378.3469 L53.2,378.3469 M42.8,393.5469 L32.4,405.5469 M42.8,393.5469 L53.2,405.5469 " fill="none" style="stroke:#181818;stroke-width:0.4000000000000001;"/><rect fill="#E3E3E3" height="26.0969" rx="2" ry="2" style="stroke:#181818;stroke-width:0.4000000000000001;" width="51.2" x="293.2" y="86.5938"/><text fill="#000000" font-family="sans-serif" font-size="11.2" lengthAdjust="spacing" textLength="40" x="298.8" y="104.2797">:System</text><rect fill="#E3E3E3" height="26.0969" rx="2" ry="2" style="stroke:#181818;stroke-width:0.4000000000000001;" width="51.2" x="293.2" y="328.9531"/><text fill="#000000" font-family="sans-serif" font-size="11.2" lengthAdjust="spacing" textLength="40" x="298.8" y="346.6391">:System</text><rect fill="#FFFFFF" height="201.0625" style="stroke:#181818;stroke-width:0.8000000000000002;" width="8" x="38.8" y="121.4906"/><rect fill="#FFFFFF" height="25.0328" style="stroke:#181818;stroke-width:0.8000000000000002;" width="8" x="314.8" y="140.1234"/><rect fill="#FFFFFF" height="25.0328" style="stroke:#181818;stroke-width:0.8000000000000002;" width="8" x="314.8" y="190.1891"/><rect fill="#FFFFFF" height="25.0328" style="stroke:#181818;stroke-width:0.8000000000000002;" width="8" x="314.8" y="240.2547"/><rect fill="#FFFFFF" height="25.0328" style="stroke:#181818;stroke-width:0.8000000000000002;" width="8" x="314.8" y="290.3203"/><polygon fill="#181818" points="305.2,136.9234,313.2,140.1234,305.2,143.3234,308.4,140.1234" style="stroke:#181818;stroke-width:0.8000000000000002;"/><line style="stroke:#181818;stroke-width:0.8000000000000002;" x1="46.8" x2="310" y1="140.1234" y2="140.1234"/><text fill="#000000" font-family="sans-serif" font-size="10.4" font-weight="bold" lengthAdjust="spacing" textLength="5.6" x="52.4" y="135.9133">1</text><text fill="#000000" font-family="sans-serif" font-size="10.4" lengthAdjust="spacing" textLength="221.6" x="61.2" y="135.9133">asks to assign a team to an entry in the agenda</text><polygon fill="#181818" points="55.6,161.9563,47.6,165.1563,55.6,168.3563,52.4,165.1563" style="stroke:#181818;stroke-width:0.8000000000000002;"/><line style="stroke:#181818;stroke-width:0.8000000000000002;stroke-dasharray:2.0,2.0;" x1="50.8" x2="318" y1="165.1563" y2="165.1563"/><text fill="#000000" font-family="sans-serif" font-size="10.4" font-weight="bold" lengthAdjust="spacing" textLength="5.6" x="60.4" y="160.9461">2</text><text fill="#000000" font-family="sans-serif" font-size="10.4" lengthAdjust="spacing" textLength="196" x="69.2" y="160.9461">shows agenda and asks to select an entry</text><polygon fill="#181818" points="305.2,186.9891,313.2,190.1891,305.2,193.3891,308.4,190.1891" style="stroke:#181818;stroke-width:0.8000000000000002;"/><line style="stroke:#181818;stroke-width:0.8000000000000002;" x1="46.8" x2="310" y1="190.1891" y2="190.1891"/><text fill="#000000" font-family="sans-serif" font-size="10.4" font-weight="bold" lengthAdjust="spacing" textLength="5.6" x="52.4" y="185.9789">3</text><text fill="#000000" font-family="sans-serif" font-size="10.4" lengthAdjust="spacing" textLength="140" x="61.2" y="185.9789">selects an entry in the agenda</text><polygon fill="#181818" points="55.6,212.0219,47.6,215.2219,55.6,218.4219,52.4,215.2219" style="stroke:#181818;stroke-width:0.8000000000000002;"/><line style="stroke:#181818;stroke-width:0.8000000000000002;stroke-dasharray:2.0,2.0;" x1="50.8" x2="318" y1="215.2219" y2="215.2219"/><text fill="#000000" font-family="sans-serif" font-size="10.4" font-weight="bold" lengthAdjust="spacing" textLength="5.6" x="60.4" y="211.0117">4</text><text fill="#000000" font-family="sans-serif" font-size="10.4" lengthAdjust="spacing" textLength="187.2" x="69.2" y="211.0117">shows teams list and asks to select one</text><polygon fill="#181818" points="305.2,237.0547,313.2,240.2547,305.2,243.4547,308.4,240.2547" style="stroke:#181818;stroke-width:0.8000000000000002;"/><line style="stroke:#181818;stroke-width:0.8000000000000002;" x1="46.8" x2="310" y1="240.2547" y2="240.2547"/><text fill="#000000" font-family="sans-serif" font-size="10.4" font-weight="bold" lengthAdjust="spacing" textLength="5.6" x="52.4" y="236.0445">5</text><text fill="#000000" font-family="sans-serif" font-size="10.4" lengthAdjust="spacing" textLength="244" x="61.2" y="236.0445">selects a team and assign to the entry in the agenda</text><polygon fill="#181818" points="55.6,262.0875,47.6,265.2875,55.6,268.4875,52.4,265.2875" style="stroke:#181818;stroke-width:0.8000000000000002;"/><line style="stroke:#181818;stroke-width:0.8000000000000002;stroke-dasharray:2.0,2.0;" x1="50.8" x2="318" y1="265.2875" y2="265.2875"/><text fill="#000000" font-family="sans-serif" font-size="10.4" font-weight="bold" lengthAdjust="spacing" textLength="5.6" x="60.4" y="261.0773">6</text><text fill="#000000" font-family="sans-serif" font-size="10.4" lengthAdjust="spacing" textLength="188.8" x="69.2" y="261.0773">shows all data and requests confirmation</text><polygon fill="#181818" points="305.2,287.1203,313.2,290.3203,305.2,293.5203,308.4,290.3203" style="stroke:#181818;stroke-width:0.8000000000000002;"/><line style="stroke:#181818;stroke-width:0.8000000000000002;" x1="46.8" x2="310" y1="290.3203" y2="290.3203"/><text fill="#000000" font-family="sans-serif" font-size="10.4" font-weight="bold" lengthAdjust="spacing" textLength="5.6" x="52.4" y="286.1102">7</text><text fill="#000000" font-family="sans-serif" font-size="10.4" lengthAdjust="spacing" textLength="62.4" x="61.2" y="286.1102">confirms data</text><polygon fill="#181818" points="55.6,312.1531,47.6,315.3531,55.6,318.5531,52.4,315.3531" style="stroke:#181818;stroke-width:0.8000000000000002;"/><line style="stroke:#181818;stroke-width:0.8000000000000002;stroke-dasharray:2.0,2.0;" x1="50.8" x2="318" y1="315.3531" y2="315.3531"/><text fill="#000000" font-family="sans-serif" font-size="10.4" font-weight="bold" lengthAdjust="spacing" textLength="5.6" x="60.4" y="311.143">8</text><text fill="#000000" font-family="sans-serif" font-size="10.4" lengthAdjust="spacing" textLength="126.4" x="69.2" y="311.143">displays operation success</text><!--SRC=[hP8nRiCm34LtduB8r0wvG8O21G9a2ZfexSB8Z2D4fboHJk3RbvOTeoZI8KMqcB38_v-_AUV07MPieKsS_2cdba1pJvKiDntwCpRaT8W4cRmYD_5dWvomJjV03Hmn2bML1hLMDuXI2uw-Uc9Fi0tOZEqlpcrVOGtlKIapQhWGVB2DOQ-9-_P0sMglASDgbuaOd26GVF8UsK3o2b1Wv_QLsMlmeKDMM6qclt8vbKKbN52fT5TWnmfOlztODjPy5j1aJmaD0uAI8Oul68Wr3n0Oz4HWnbnZqLXKRpOmdrbrRGQZpyQIILUPHqsnNko4eWMvc1I5ckuA_oQUHkMPWECt2yGWUWyosR_v3zyKvIHOmZN94VHfiSO8DUeKR1wtJCpM9pw6tDfQ9Nu4UvwJ8laWJnsaYpW8f8voSGRflQsi_47m3G00]--></g></svg>