<?xml version="1.0" encoding="us-ascii" standalone="no"?><svg xmlns="http://www.w3.org/2000/svg" xmlns:xlink="http://www.w3.org/1999/xlink" contentStyleType="text/css" height="855px" preserveAspectRatio="none" style="width:1347px;height:855px;background:#FFFFFF;" version="1.1" viewBox="0 0 1347 855" width="1347px" zoomAndPan="magnify"><defs/><g><!--class AssignVehiclesUI--><g id="elem_AssignVehiclesUI"><rect codeLine="11" fill="#F1F1F1" height="28.8" id="AssignVehiclesUI" rx="1.5" ry="1.5" style="stroke:#181818;stroke-width:0.3;" width="83.4" x="409.5" y="4.2"/><ellipse cx="418.5" cy="13.8" fill="#ADD1B2" rx="6.6" ry="6.6" style="stroke:#181818;stroke-width:0.6;"/><path d="M420.1594,11.325 Q420.2531,11.1938 420.3656,11.1281 Q420.4781,11.0625 420.6094,11.0625 Q420.8344,11.0625 420.975,11.2219 Q421.1156,11.3719 421.1156,11.7375 L421.1156,12.6094 Q421.1156,12.975 420.975,13.1344 Q420.8344,13.2938 420.6094,13.2938 Q420.4031,13.2938 420.2813,13.1719 Q420.1594,13.0594 420.0938,12.75 Q420.0656,12.5344 419.9531,12.4219 Q419.7562,12.1969 419.3906,12.0656 Q419.025,11.9344 418.65,11.9344 Q418.1906,11.9344 417.8063,12.1313 Q417.4313,12.3281 417.1312,12.7781 Q416.8406,13.2281 416.8406,13.8469 L416.8406,14.5031 Q416.8406,15.2437 417.375,15.7406 Q417.9094,16.2281 418.8656,16.2281 Q419.4281,16.2281 419.8219,16.0781 Q420.0563,15.9844 420.3094,15.7219 Q420.4688,15.5625 420.5531,15.5156 Q420.6469,15.4688 420.7688,15.4688 Q420.9656,15.4688 421.1156,15.6281 Q421.275,15.7781 421.275,15.9844 Q421.275,16.1906 421.0687,16.4344 Q420.7688,16.7813 420.2906,16.9781 Q419.6438,17.25 418.8656,17.25 Q417.9563,17.25 417.2344,16.875 Q416.6438,16.575 416.2313,15.9375 Q415.8187,15.2906 415.8187,14.5219 L415.8187,13.8281 Q415.8187,13.0313 416.1844,12.3469 Q416.5594,11.6531 417.2156,11.2875 Q417.8719,10.9125 418.6125,10.9125 Q419.0531,10.9125 419.4375,11.0156 Q419.8313,11.1094 420.1594,11.325 Z " fill="#000000"/><text fill="#000000" font-family="sans-serif" font-size="8.4" lengthAdjust="spacing" textLength="64.2" x="426.9" y="17.2781">AssignVehiclesUI</text><line style="stroke:#181818;stroke-width:0.3;" x1="410.1" x2="492.3" y1="23.4" y2="23.4"/><line style="stroke:#181818;stroke-width:0.3;" x1="410.1" x2="492.3" y1="28.2" y2="28.2"/></g><!--class AssignVehiclesController--><g id="elem_AssignVehiclesController"><rect codeLine="14" fill="#F1F1F1" height="95.8359" id="AssignVehiclesController" rx="1.5" ry="1.5" style="stroke:#181818;stroke-width:0.3;" width="237" x="332.7" y="69.6"/><ellipse cx="401.55" cy="79.2" fill="#ADD1B2" rx="6.6" ry="6.6" style="stroke:#181818;stroke-width:0.6;"/><path d="M403.2094,76.725 Q403.3031,76.5938 403.4156,76.5281 Q403.5281,76.4625 403.6594,76.4625 Q403.8844,76.4625 404.025,76.6219 Q404.1656,76.7719 404.1656,77.1375 L404.1656,78.0094 Q404.1656,78.375 404.025,78.5344 Q403.8844,78.6938 403.6594,78.6938 Q403.4531,78.6938 403.3313,78.5719 Q403.2094,78.4594 403.1438,78.15 Q403.1156,77.9344 403.0031,77.8219 Q402.8063,77.5969 402.4406,77.4656 Q402.075,77.3344 401.7,77.3344 Q401.2406,77.3344 400.8563,77.5313 Q400.4813,77.7281 400.1813,78.1781 Q399.8906,78.6281 399.8906,79.2469 L399.8906,79.9031 Q399.8906,80.6438 400.425,81.1406 Q400.9594,81.6281 401.9156,81.6281 Q402.4781,81.6281 402.8719,81.4781 Q403.1063,81.3844 403.3594,81.1219 Q403.5188,80.9625 403.6031,80.9156 Q403.6969,80.8687 403.8187,80.8687 Q404.0156,80.8687 404.1656,81.0281 Q404.325,81.1781 404.325,81.3844 Q404.325,81.5906 404.1188,81.8344 Q403.8187,82.1812 403.3406,82.3781 Q402.6937,82.65 401.9156,82.65 Q401.0062,82.65 400.2844,82.275 Q399.6937,81.975 399.2813,81.3375 Q398.8688,80.6906 398.8688,79.9219 L398.8688,79.2281 Q398.8688,78.4312 399.2344,77.7469 Q399.6094,77.0531 400.2656,76.6875 Q400.9219,76.3125 401.6625,76.3125 Q402.1031,76.3125 402.4875,76.4156 Q402.8812,76.5094 403.2094,76.725 Z " fill="#000000"/><text fill="#000000" font-family="sans-serif" font-size="8.4" lengthAdjust="spacing" textLength="94.2" x="413.85" y="82.6781">AssignVehiclesController</text><line style="stroke:#181818;stroke-width:0.3;" x1="333.3" x2="569.1" y1="88.8" y2="88.8"/><line style="stroke:#181818;stroke-width:0.3;" x1="333.3" x2="569.1" y1="93.6" y2="93.6"/><text fill="#000000" font-family="sans-serif" font-size="8.4" lengthAdjust="spacing" textLength="205.8" x="336.3" y="105.0645">+AssignVehiclesController(agenda, vehicleRepository)</text><text fill="#000000" font-family="sans-serif" font-size="8.4" lengthAdjust="spacing" textLength="229.8" x="336.3" y="116.2371">+assignVehiclesToEntry(agendaIndex, vehiclesPlateNumber)</text><text fill="#000000" font-family="sans-serif" font-size="8.4" lengthAdjust="spacing" textLength="90" x="336.3" y="127.4098">-getEntryByIndex(index)</text><text fill="#000000" font-family="sans-serif" font-size="8.4" lengthAdjust="spacing" textLength="181.8" x="336.3" y="138.5824">-getVehicleByPlateNumber(vehiclePlateNumber)</text><text fill="#000000" font-family="sans-serif" font-size="8.4" lengthAdjust="spacing" textLength="80.4" x="336.3" y="149.7551">+getEntriesListDTO()</text><text fill="#000000" font-family="sans-serif" font-size="8.4" lengthAdjust="spacing" textLength="85.8" x="336.3" y="160.9277">+getVehiclesListDTO()</text></g><!--class Agenda--><g id="elem_Agenda"><rect codeLine="23" fill="#F1F1F1" height="39.9727" id="Agenda" rx="1.5" ry="1.5" style="stroke:#181818;stroke-width:0.3;" width="99" x="132.3" y="378.6"/><ellipse cx="164.55" cy="388.2" fill="#ADD1B2" rx="6.6" ry="6.6" style="stroke:#181818;stroke-width:0.6;"/><path d="M166.2094,385.725 Q166.3031,385.5938 166.4156,385.5281 Q166.5281,385.4625 166.6594,385.4625 Q166.8844,385.4625 167.025,385.6219 Q167.1656,385.7719 167.1656,386.1375 L167.1656,387.0094 Q167.1656,387.375 167.025,387.5344 Q166.8844,387.6937 166.6594,387.6937 Q166.4531,387.6937 166.3312,387.5719 Q166.2094,387.4594 166.1437,387.15 Q166.1156,386.9344 166.0031,386.8219 Q165.8063,386.5969 165.4406,386.4656 Q165.075,386.3344 164.7,386.3344 Q164.2406,386.3344 163.8563,386.5313 Q163.4813,386.7281 163.1813,387.1781 Q162.8906,387.6281 162.8906,388.2469 L162.8906,388.9031 Q162.8906,389.6438 163.425,390.1406 Q163.9594,390.6281 164.9156,390.6281 Q165.4781,390.6281 165.8719,390.4781 Q166.1063,390.3844 166.3594,390.1219 Q166.5187,389.9625 166.6031,389.9156 Q166.6969,389.8688 166.8188,389.8688 Q167.0156,389.8688 167.1656,390.0281 Q167.325,390.1781 167.325,390.3844 Q167.325,390.5906 167.1188,390.8344 Q166.8188,391.1813 166.3406,391.3781 Q165.6938,391.65 164.9156,391.65 Q164.0063,391.65 163.2844,391.275 Q162.6938,390.975 162.2813,390.3375 Q161.8688,389.6906 161.8688,388.9219 L161.8688,388.2281 Q161.8688,387.4313 162.2344,386.7469 Q162.6094,386.0531 163.2656,385.6875 Q163.9219,385.3125 164.6625,385.3125 Q165.1031,385.3125 165.4875,385.4156 Q165.8813,385.5094 166.2094,385.725 Z " fill="#000000"/><text fill="#000000" font-family="sans-serif" font-size="8.4" lengthAdjust="spacing" textLength="29.4" x="176.85" y="391.6781">Agenda</text><line style="stroke:#181818;stroke-width:0.3;" x1="132.9" x2="230.7" y1="397.8" y2="397.8"/><line style="stroke:#181818;stroke-width:0.3;" x1="132.9" x2="230.7" y1="402.6" y2="402.6"/><text fill="#000000" font-family="sans-serif" font-size="8.4" lengthAdjust="spacing" textLength="91.8" x="135.9" y="414.0645">+getEntryByIndex(index)</text></g><!--class Entry--><g id="elem_Entry"><rect codeLine="27" fill="#F1F1F1" height="118.1812" id="Entry" rx="1.5" ry="1.5" style="stroke:#181818;stroke-width:0.3;" width="184.8" x="110.4" y="511.2"/><ellipse cx="190.35" cy="520.8" fill="#ADD1B2" rx="6.6" ry="6.6" style="stroke:#181818;stroke-width:0.6;"/><path d="M192.0094,518.325 Q192.1031,518.1938 192.2156,518.1281 Q192.3281,518.0625 192.4594,518.0625 Q192.6844,518.0625 192.825,518.2219 Q192.9656,518.3719 192.9656,518.7375 L192.9656,519.6094 Q192.9656,519.975 192.825,520.1344 Q192.6844,520.2937 192.4594,520.2937 Q192.2531,520.2937 192.1313,520.1719 Q192.0094,520.0594 191.9438,519.75 Q191.9156,519.5344 191.8031,519.4219 Q191.6063,519.1969 191.2406,519.0656 Q190.875,518.9344 190.5,518.9344 Q190.0406,518.9344 189.6563,519.1313 Q189.2813,519.3281 188.9813,519.7781 Q188.6906,520.2281 188.6906,520.8469 L188.6906,521.5031 Q188.6906,522.2438 189.225,522.7406 Q189.7594,523.2281 190.7156,523.2281 Q191.2781,523.2281 191.6719,523.0781 Q191.9063,522.9844 192.1594,522.7219 Q192.3188,522.5625 192.4031,522.5156 Q192.4969,522.4688 192.6188,522.4688 Q192.8156,522.4688 192.9656,522.6281 Q193.125,522.7781 193.125,522.9844 Q193.125,523.1906 192.9188,523.4344 Q192.6188,523.7813 192.1406,523.9781 Q191.4938,524.25 190.7156,524.25 Q189.8063,524.25 189.0844,523.875 Q188.4938,523.575 188.0812,522.9375 Q187.6688,522.2906 187.6688,521.5219 L187.6688,520.8281 Q187.6688,520.0313 188.0344,519.3469 Q188.4094,518.6531 189.0656,518.2875 Q189.7219,517.9125 190.4625,517.9125 Q190.9031,517.9125 191.2875,518.0156 Q191.6813,518.1094 192.0094,518.325 Z " fill="#000000"/><text fill="#000000" font-family="sans-serif" font-size="8.4" lengthAdjust="spacing" textLength="19.8" x="202.65" y="524.2781">Entry</text><line style="stroke:#181818;stroke-width:0.3;" x1="111" x2="294.6" y1="530.4" y2="530.4"/><text fill="#000000" font-family="sans-serif" font-size="8.4" lengthAdjust="spacing" textLength="69.6" x="114" y="541.8645">-Date startingDate</text><text fill="#000000" font-family="sans-serif" font-size="8.4" lengthAdjust="spacing" textLength="81.6" x="114" y="553.0371">-AgendaStatus status</text><text fill="#000000" font-family="sans-serif" font-size="8.4" lengthAdjust="spacing" textLength="39.6" x="114" y="564.2098">-Task task</text><text fill="#000000" font-family="sans-serif" font-size="8.4" lengthAdjust="spacing" textLength="73.2" x="114" y="575.3824">-Team teamAssign;</text><text fill="#000000" font-family="sans-serif" font-size="8.4" lengthAdjust="spacing" textLength="177.6" x="114" y="586.5551">-GreenSpacesManager greenSpacesManager;</text><text fill="#000000" font-family="sans-serif" font-size="8.4" lengthAdjust="spacing" textLength="111.6" x="114" y="597.7277">-List&lt;Vehicle&gt; vehiclesAssign</text><line style="stroke:#181818;stroke-width:0.3;" x1="111" x2="294.6" y1="602.2359" y2="602.2359"/><text fill="#000000" font-family="sans-serif" font-size="8.4" lengthAdjust="spacing" textLength="97.2" x="114" y="613.7004">+Entry(startingDate, task)</text><text fill="#000000" font-family="sans-serif" font-size="8.4" lengthAdjust="spacing" textLength="123" x="114" y="624.873">+assignVehicles(vehiclesAssign)</text></g><!--class VehicleRepository--><g id="elem_VehicleRepository"><rect codeLine="38" fill="#F1F1F1" height="39.9727" id="VehicleRepository" rx="1.5" ry="1.5" style="stroke:#181818;stroke-width:0.3;" width="163.8" x="252.3" y="378.6"/><ellipse cx="297.45" cy="388.2" fill="#ADD1B2" rx="6.6" ry="6.6" style="stroke:#181818;stroke-width:0.6;"/><path d="M299.1094,385.725 Q299.2031,385.5938 299.3156,385.5281 Q299.4281,385.4625 299.5594,385.4625 Q299.7844,385.4625 299.925,385.6219 Q300.0656,385.7719 300.0656,386.1375 L300.0656,387.0094 Q300.0656,387.375 299.925,387.5344 Q299.7844,387.6937 299.5594,387.6937 Q299.3531,387.6937 299.2313,387.5719 Q299.1094,387.4594 299.0438,387.15 Q299.0156,386.9344 298.9031,386.8219 Q298.7063,386.5969 298.3406,386.4656 Q297.975,386.3344 297.6,386.3344 Q297.1406,386.3344 296.7562,386.5313 Q296.3812,386.7281 296.0813,387.1781 Q295.7906,387.6281 295.7906,388.2469 L295.7906,388.9031 Q295.7906,389.6438 296.325,390.1406 Q296.8594,390.6281 297.8156,390.6281 Q298.3781,390.6281 298.7719,390.4781 Q299.0062,390.3844 299.2594,390.1219 Q299.4188,389.9625 299.5031,389.9156 Q299.5969,389.8688 299.7188,389.8688 Q299.9156,389.8688 300.0656,390.0281 Q300.225,390.1781 300.225,390.3844 Q300.225,390.5906 300.0188,390.8344 Q299.7188,391.1813 299.2406,391.3781 Q298.5938,391.65 297.8156,391.65 Q296.9063,391.65 296.1844,391.275 Q295.5938,390.975 295.1813,390.3375 Q294.7688,389.6906 294.7688,388.9219 L294.7688,388.2281 Q294.7688,387.4313 295.1344,386.7469 Q295.5094,386.0531 296.1656,385.6875 Q296.8219,385.3125 297.5625,385.3125 Q298.0031,385.3125 298.3875,385.4156 Q298.7813,385.5094 299.1094,385.725 Z " fill="#000000"/><text fill="#000000" font-family="sans-serif" font-size="8.4" lengthAdjust="spacing" textLength="68.4" x="309.75" y="391.6781">VehicleRepository</text><line style="stroke:#181818;stroke-width:0.3;" x1="252.9" x2="415.5" y1="397.8" y2="397.8"/><line style="stroke:#181818;stroke-width:0.3;" x1="252.9" x2="415.5" y1="402.6" y2="402.6"/><text fill="#000000" font-family="sans-serif" font-size="8.4" lengthAdjust="spacing" textLength="156.6" x="255.9" y="414.0645">+getVehicleByPlateNumber(plateNumber)</text></g><!--class Vehicle--><g id="elem_Vehicle"><rect codeLine="42" fill="#F1F1F1" height="185.2172" id="Vehicle" rx="1.5" ry="1.5" style="stroke:#181818;stroke-width:0.3;" width="528" x="4.2" y="666"/><ellipse cx="251.85" cy="675.6" fill="#ADD1B2" rx="6.6" ry="6.6" style="stroke:#181818;stroke-width:0.6;"/><path d="M253.5094,673.125 Q253.6031,672.9938 253.7156,672.9281 Q253.8281,672.8625 253.9594,672.8625 Q254.1844,672.8625 254.325,673.0219 Q254.4656,673.1719 254.4656,673.5375 L254.4656,674.4094 Q254.4656,674.775 254.325,674.9344 Q254.1844,675.0938 253.9594,675.0938 Q253.7531,675.0938 253.6313,674.9719 Q253.5094,674.8594 253.4438,674.55 Q253.4156,674.3344 253.3031,674.2219 Q253.1063,673.9969 252.7406,673.8656 Q252.375,673.7344 252,673.7344 Q251.5406,673.7344 251.1563,673.9313 Q250.7813,674.1281 250.4813,674.5781 Q250.1906,675.0281 250.1906,675.6469 L250.1906,676.3031 Q250.1906,677.0437 250.725,677.5406 Q251.2594,678.0281 252.2156,678.0281 Q252.7781,678.0281 253.1719,677.8781 Q253.4063,677.7844 253.6594,677.5219 Q253.8188,677.3625 253.9031,677.3156 Q253.9969,677.2688 254.1187,677.2688 Q254.3156,677.2688 254.4656,677.4281 Q254.625,677.5781 254.625,677.7844 Q254.625,677.9906 254.4188,678.2344 Q254.1187,678.5813 253.6406,678.7781 Q252.9937,679.05 252.2156,679.05 Q251.3062,679.05 250.5844,678.675 Q249.9937,678.375 249.5812,677.7375 Q249.1688,677.0906 249.1688,676.3219 L249.1688,675.6281 Q249.1688,674.8313 249.5344,674.1469 Q249.9094,673.4531 250.5656,673.0875 Q251.2219,672.7125 251.9625,672.7125 Q252.4031,672.7125 252.7875,672.8156 Q253.1812,672.9094 253.5094,673.125 Z " fill="#000000"/><text fill="#000000" font-family="sans-serif" font-size="8.4" lengthAdjust="spacing" textLength="27.6" x="264.15" y="679.0781">Vehicle</text><line style="stroke:#181818;stroke-width:0.3;" x1="4.8" x2="531.6" y1="685.2" y2="685.2"/><text fill="#000000" font-family="sans-serif" font-size="8.4" lengthAdjust="spacing" textLength="49.8" x="7.8" y="696.6645">-String brand</text><text fill="#000000" font-family="sans-serif" font-size="8.4" lengthAdjust="spacing" textLength="50.4" x="7.8" y="707.8371">-String model</text><text fill="#000000" font-family="sans-serif" font-size="8.4" lengthAdjust="spacing" textLength="29.4" x="7.8" y="719.0098">-int tare</text><text fill="#000000" font-family="sans-serif" font-size="8.4" lengthAdjust="spacing" textLength="61.8" x="7.8" y="730.1824">-int grossWeight</text><text fill="#000000" font-family="sans-serif" font-size="8.4" lengthAdjust="spacing" textLength="53.4" x="7.8" y="741.3551">-int currentKm</text><text fill="#000000" font-family="sans-serif" font-size="8.4" lengthAdjust="spacing" textLength="70.2" x="7.8" y="752.5277">-Date registerDate</text><text fill="#000000" font-family="sans-serif" font-size="8.4" lengthAdjust="spacing" textLength="81.6" x="7.8" y="763.7004">-Date acquisitionDate</text><text fill="#000000" font-family="sans-serif" font-size="8.4" lengthAdjust="spacing" textLength="138" x="7.8" y="774.873">-int maintenanceCheckUpFrequency</text><text fill="#000000" font-family="sans-serif" font-size="8.4" lengthAdjust="spacing" textLength="75.6" x="7.8" y="786.0457">-String plateNumber</text><text fill="#000000" font-family="sans-serif" font-size="8.4" lengthAdjust="spacing" textLength="68.4" x="7.8" y="797.2184">-VehicleType type</text><text fill="#000000" font-family="sans-serif" font-size="8.4" lengthAdjust="spacing" textLength="97.8" x="7.8" y="808.391">-boolean occupiedVehicle</text><line style="stroke:#181818;stroke-width:0.3;" x1="4.8" x2="531.6" y1="812.8992" y2="812.8992"/><text fill="#000000" font-family="sans-serif" font-size="8.4" lengthAdjust="spacing" textLength="520.8" x="7.8" y="824.3637">+Vehicle(brand, model, tare, grossWeight, currentKm, registerDate, acquisitionDate, maintenanceCheckUpFrequency, plateNumber, type)</text><text fill="#000000" font-family="sans-serif" font-size="8.4" lengthAdjust="spacing" textLength="71.4" x="7.8" y="835.5363">+getPlateNumber()</text><text fill="#000000" font-family="sans-serif" font-size="8.4" lengthAdjust="spacing" textLength="147.6" x="7.8" y="846.709">+setOccupiedVehicle(occupiedVehicle)</text></g><!--class Repositories--><g id="elem_Repositories"><rect codeLine="59" fill="#F1F1F1" height="73.4906" id="Repositories" rx="1.5" ry="1.5" style="stroke:#181818;stroke-width:0.3;" width="116.4" x="245.4" y="213"/><ellipse cx="277.35" cy="222.6" fill="#ADD1B2" rx="6.6" ry="6.6" style="stroke:#181818;stroke-width:0.6;"/><path d="M279.0094,220.125 Q279.1031,219.9938 279.2156,219.9281 Q279.3281,219.8625 279.4594,219.8625 Q279.6844,219.8625 279.825,220.0219 Q279.9656,220.1719 279.9656,220.5375 L279.9656,221.4094 Q279.9656,221.775 279.825,221.9344 Q279.6844,222.0938 279.4594,222.0938 Q279.2531,222.0938 279.1312,221.9719 Q279.0094,221.8594 278.9437,221.55 Q278.9156,221.3344 278.8031,221.2219 Q278.6063,220.9969 278.2406,220.8656 Q277.875,220.7344 277.5,220.7344 Q277.0406,220.7344 276.6563,220.9313 Q276.2813,221.1281 275.9813,221.5781 Q275.6906,222.0281 275.6906,222.6469 L275.6906,223.3031 Q275.6906,224.0438 276.225,224.5406 Q276.7594,225.0281 277.7156,225.0281 Q278.2781,225.0281 278.6719,224.8781 Q278.9063,224.7844 279.1594,224.5219 Q279.3187,224.3625 279.4031,224.3156 Q279.4969,224.2687 279.6188,224.2687 Q279.8156,224.2687 279.9656,224.4281 Q280.125,224.5781 280.125,224.7844 Q280.125,224.9906 279.9188,225.2344 Q279.6188,225.5812 279.1406,225.7781 Q278.4938,226.05 277.7156,226.05 Q276.8063,226.05 276.0844,225.675 Q275.4938,225.375 275.0813,224.7375 Q274.6688,224.0906 274.6688,223.3219 L274.6688,222.6281 Q274.6688,221.8312 275.0344,221.1469 Q275.4094,220.4531 276.0656,220.0875 Q276.7219,219.7125 277.4625,219.7125 Q277.9031,219.7125 278.2875,219.8156 Q278.6813,219.9094 279.0094,220.125 Z " fill="#000000"/><text fill="#000000" font-family="sans-serif" font-size="8.4" lengthAdjust="spacing" textLength="47.4" x="289.65" y="226.0781">Repositories</text><line style="stroke:#181818;stroke-width:0.3;" x1="246" x2="361.2" y1="232.2" y2="232.2"/><line style="stroke:#181818;stroke-width:0.3;" x1="246" x2="361.2" y1="237" y2="237"/><text fill="#000000" font-family="sans-serif" font-size="8.4" lengthAdjust="spacing" textLength="56.4" x="249" y="248.4645">-Repositories()</text><text fill="#000000" font-family="sans-serif" font-size="8.4" lengthAdjust="spacing" textLength="109.2" x="249" y="259.6371">+getInstance() : Repositories</text><text fill="#000000" font-family="sans-serif" font-size="8.4" lengthAdjust="spacing" textLength="52.2" x="249" y="270.8098">+getAgenda()</text><text fill="#000000" font-family="sans-serif" font-size="8.4" lengthAdjust="spacing" textLength="91.2" x="249" y="281.9824">+getVehicleRepository()</text></g><!--class EntryDto--><g id="elem_EntryDto"><rect codeLine="66" fill="#F1F1F1" height="107.0086" id="EntryDto" rx="1.5" ry="1.5" style="stroke:#181818;stroke-width:0.3;" width="343.2" x="437.4" y="345.3"/><ellipse cx="589.95" cy="354.9" fill="#ADD1B2" rx="6.6" ry="6.6" style="stroke:#181818;stroke-width:0.6;"/><path d="M591.6094,352.425 Q591.7031,352.2938 591.8156,352.2281 Q591.9281,352.1625 592.0594,352.1625 Q592.2844,352.1625 592.425,352.3219 Q592.5656,352.4719 592.5656,352.8375 L592.5656,353.7094 Q592.5656,354.075 592.425,354.2344 Q592.2844,354.3938 592.0594,354.3938 Q591.8531,354.3938 591.7312,354.2719 Q591.6094,354.1594 591.5437,353.85 Q591.5156,353.6344 591.4031,353.5219 Q591.2063,353.2969 590.8406,353.1656 Q590.475,353.0344 590.1,353.0344 Q589.6406,353.0344 589.2563,353.2313 Q588.8813,353.4281 588.5813,353.8781 Q588.2906,354.3281 588.2906,354.9469 L588.2906,355.6031 Q588.2906,356.3438 588.825,356.8406 Q589.3594,357.3281 590.3156,357.3281 Q590.8781,357.3281 591.2719,357.1781 Q591.5063,357.0844 591.7594,356.8219 Q591.9187,356.6625 592.0031,356.6156 Q592.0969,356.5687 592.2188,356.5687 Q592.4156,356.5687 592.5656,356.7281 Q592.725,356.8781 592.725,357.0844 Q592.725,357.2906 592.5188,357.5344 Q592.2188,357.8812 591.7406,358.0781 Q591.0938,358.35 590.3156,358.35 Q589.4063,358.35 588.6844,357.975 Q588.0938,357.675 587.6813,357.0375 Q587.2688,356.3906 587.2688,355.6219 L587.2688,354.9281 Q587.2688,354.1312 587.6344,353.4469 Q588.0094,352.7531 588.6656,352.3875 Q589.3219,352.0125 590.0625,352.0125 Q590.5031,352.0125 590.8875,352.1156 Q591.2813,352.2094 591.6094,352.425 Z " fill="#000000"/><text fill="#000000" font-family="sans-serif" font-size="8.4" lengthAdjust="spacing" textLength="33" x="602.25" y="358.3781">EntryDto</text><line style="stroke:#181818;stroke-width:0.3;" x1="438" x2="780" y1="364.5" y2="364.5"/><text fill="#000000" font-family="sans-serif" font-size="8.4" lengthAdjust="spacing" textLength="69.6" x="441" y="375.9645">-Date startingDate</text><text fill="#000000" font-family="sans-serif" font-size="8.4" lengthAdjust="spacing" textLength="81.6" x="441" y="387.1371">-AgendaStatus status</text><text fill="#000000" font-family="sans-serif" font-size="8.4" lengthAdjust="spacing" textLength="39.6" x="441" y="398.3098">-Task task</text><text fill="#000000" font-family="sans-serif" font-size="8.4" lengthAdjust="spacing" textLength="73.2" x="441" y="409.4824">-Team teamAssign;</text><text fill="#000000" font-family="sans-serif" font-size="8.4" lengthAdjust="spacing" textLength="177.6" x="441" y="420.6551">-GreenSpacesManager greenSpacesManager;</text><text fill="#000000" font-family="sans-serif" font-size="8.4" lengthAdjust="spacing" textLength="114" x="441" y="431.8277">-List&lt;Vehicle&gt; vehiclesAssign;</text><line style="stroke:#181818;stroke-width:0.3;" x1="438" x2="780" y1="436.3359" y2="436.3359"/><text fill="#000000" font-family="sans-serif" font-size="8.4" lengthAdjust="spacing" textLength="336" x="441" y="447.8004">+EntryDto(startingDate, status, task, teamAssign, greenSpacesManager, vehiclesAssign)</text></g><!--class EntryMapper--><g id="elem_EntryMapper"><rect codeLine="76" fill="#F1F1F1" height="51.1453" id="EntryMapper" rx="1.5" ry="1.5" style="stroke:#181818;stroke-width:0.3;" width="95.4" x="539.7" y="224.1"/><ellipse cx="561.12" cy="233.7" fill="#ADD1B2" rx="6.6" ry="6.6" style="stroke:#181818;stroke-width:0.6;"/><path d="M562.7794,231.225 Q562.8731,231.0938 562.9856,231.0281 Q563.0981,230.9625 563.2294,230.9625 Q563.4544,230.9625 563.595,231.1219 Q563.7356,231.2719 563.7356,231.6375 L563.7356,232.5094 Q563.7356,232.875 563.595,233.0344 Q563.4544,233.1938 563.2294,233.1938 Q563.0231,233.1938 562.9013,233.0719 Q562.7794,232.9594 562.7138,232.65 Q562.6856,232.4344 562.5731,232.3219 Q562.3763,232.0969 562.0106,231.9656 Q561.645,231.8344 561.27,231.8344 Q560.8106,231.8344 560.4263,232.0313 Q560.0513,232.2281 559.7513,232.6781 Q559.4606,233.1281 559.4606,233.7469 L559.4606,234.4031 Q559.4606,235.1437 559.995,235.6406 Q560.5294,236.1281 561.4856,236.1281 Q562.0481,236.1281 562.4419,235.9781 Q562.6763,235.8844 562.9294,235.6219 Q563.0888,235.4625 563.1731,235.4156 Q563.2669,235.3687 563.3888,235.3687 Q563.5856,235.3687 563.7356,235.5281 Q563.895,235.6781 563.895,235.8844 Q563.895,236.0906 563.6888,236.3344 Q563.3888,236.6812 562.9106,236.8781 Q562.2638,237.15 561.4856,237.15 Q560.5763,237.15 559.8544,236.775 Q559.2638,236.475 558.8513,235.8375 Q558.4388,235.1906 558.4388,234.4219 L558.4388,233.7281 Q558.4388,232.9312 558.8044,232.2469 Q559.1794,231.5531 559.8356,231.1875 Q560.4919,230.8125 561.2325,230.8125 Q561.6731,230.8125 562.0575,230.9156 Q562.4513,231.0094 562.7794,231.225 Z " fill="#000000"/><text fill="#000000" font-family="sans-serif" font-size="8.4" lengthAdjust="spacing" textLength="48.6" x="572.28" y="237.1781">EntryMapper</text><line style="stroke:#181818;stroke-width:0.3;" x1="540.3" x2="634.5" y1="243.3" y2="243.3"/><line style="stroke:#181818;stroke-width:0.3;" x1="540.3" x2="634.5" y1="248.1" y2="248.1"/><text fill="#000000" font-family="sans-serif" font-size="8.4" lengthAdjust="spacing" textLength="88.2" x="543.3" y="259.5645">+toDTOList(entriesList)</text><text fill="#000000" font-family="sans-serif" font-size="8.4" lengthAdjust="spacing" textLength="77.4" x="543.3" y="270.7371">+entryToDTO(entry)</text></g><!--class VehicleDto--><g id="elem_VehicleDto"><rect codeLine="81" fill="#F1F1F1" height="151.6992" id="VehicleDto" rx="1.5" ry="1.5" style="stroke:#181818;stroke-width:0.3;" width="541.2" x="801.6" y="322.8"/><ellipse cx="1049.25" cy="332.4" fill="#ADD1B2" rx="6.6" ry="6.6" style="stroke:#181818;stroke-width:0.6;"/><path d="M1050.9094,329.925 Q1051.0031,329.7938 1051.1156,329.7281 Q1051.2281,329.6625 1051.3594,329.6625 Q1051.5844,329.6625 1051.725,329.8219 Q1051.8656,329.9719 1051.8656,330.3375 L1051.8656,331.2094 Q1051.8656,331.575 1051.725,331.7344 Q1051.5844,331.8938 1051.3594,331.8938 Q1051.1531,331.8938 1051.0313,331.7719 Q1050.9094,331.6594 1050.8438,331.35 Q1050.8156,331.1344 1050.7031,331.0219 Q1050.5063,330.7969 1050.1406,330.6656 Q1049.775,330.5344 1049.4,330.5344 Q1048.9406,330.5344 1048.5562,330.7313 Q1048.1812,330.9281 1047.8813,331.3781 Q1047.5906,331.8281 1047.5906,332.4469 L1047.5906,333.1031 Q1047.5906,333.8438 1048.125,334.3406 Q1048.6594,334.8281 1049.6156,334.8281 Q1050.1781,334.8281 1050.5719,334.6781 Q1050.8062,334.5844 1051.0594,334.3219 Q1051.2188,334.1625 1051.3031,334.1156 Q1051.3969,334.0687 1051.5188,334.0687 Q1051.7156,334.0687 1051.8656,334.2281 Q1052.025,334.3781 1052.025,334.5844 Q1052.025,334.7906 1051.8188,335.0344 Q1051.5188,335.3812 1051.0406,335.5781 Q1050.3938,335.85 1049.6156,335.85 Q1048.7063,335.85 1047.9844,335.475 Q1047.3938,335.175 1046.9813,334.5375 Q1046.5688,333.8906 1046.5688,333.1219 L1046.5688,332.4281 Q1046.5688,331.6312 1046.9344,330.9469 Q1047.3094,330.2531 1047.9656,329.8875 Q1048.6219,329.5125 1049.3625,329.5125 Q1049.8031,329.5125 1050.1875,329.6156 Q1050.5813,329.7094 1050.9094,329.925 Z " fill="#000000"/><text fill="#000000" font-family="sans-serif" font-size="8.4" lengthAdjust="spacing" textLength="40.8" x="1061.55" y="335.8781">VehicleDto</text><line style="stroke:#181818;stroke-width:0.3;" x1="802.2" x2="1342.2" y1="342" y2="342"/><text fill="#000000" font-family="sans-serif" font-size="8.4" lengthAdjust="spacing" textLength="49.8" x="805.2" y="353.4645">-String brand</text><text fill="#000000" font-family="sans-serif" font-size="8.4" lengthAdjust="spacing" textLength="50.4" x="805.2" y="364.6371">-String model</text><text fill="#000000" font-family="sans-serif" font-size="8.4" lengthAdjust="spacing" textLength="29.4" x="805.2" y="375.8098">-int tare</text><text fill="#000000" font-family="sans-serif" font-size="8.4" lengthAdjust="spacing" textLength="61.8" x="805.2" y="386.9824">-int grossWeight</text><text fill="#000000" font-family="sans-serif" font-size="8.4" lengthAdjust="spacing" textLength="53.4" x="805.2" y="398.1551">-int currentKm</text><text fill="#000000" font-family="sans-serif" font-size="8.4" lengthAdjust="spacing" textLength="70.2" x="805.2" y="409.3277">-Date registerDate</text><text fill="#000000" font-family="sans-serif" font-size="8.4" lengthAdjust="spacing" textLength="81.6" x="805.2" y="420.5004">-Date acquisitionDate</text><text fill="#000000" font-family="sans-serif" font-size="8.4" lengthAdjust="spacing" textLength="138" x="805.2" y="431.673">-int maintenanceCheckUpFrequency</text><text fill="#000000" font-family="sans-serif" font-size="8.4" lengthAdjust="spacing" textLength="75.6" x="805.2" y="442.8457">-String plateNumber</text><text fill="#000000" font-family="sans-serif" font-size="8.4" lengthAdjust="spacing" textLength="68.4" x="805.2" y="454.0184">-VehicleType type</text><line style="stroke:#181818;stroke-width:0.3;" x1="802.2" x2="1342.2" y1="458.5266" y2="458.5266"/><text fill="#000000" font-family="sans-serif" font-size="8.4" lengthAdjust="spacing" textLength="534" x="805.2" y="469.991">+VehicleDto(brand, model, tare, grossWeight, currentKm, registerDate, acquisitionDate, maintenanceCheckUpFrequency, plateNumber, type)</text></g><!--class VehicleMapper--><g id="elem_VehicleMapper"><rect codeLine="95" fill="#F1F1F1" height="51.1453" id="VehicleMapper" rx="1.5" ry="1.5" style="stroke:#181818;stroke-width:0.3;" width="100.2" x="891.3" y="224.1"/><ellipse cx="911.37" cy="233.7" fill="#ADD1B2" rx="6.6" ry="6.6" style="stroke:#181818;stroke-width:0.6;"/><path d="M913.0294,231.225 Q913.1231,231.0938 913.2356,231.0281 Q913.3481,230.9625 913.4794,230.9625 Q913.7044,230.9625 913.845,231.1219 Q913.9856,231.2719 913.9856,231.6375 L913.9856,232.5094 Q913.9856,232.875 913.845,233.0344 Q913.7044,233.1938 913.4794,233.1938 Q913.2731,233.1938 913.1513,233.0719 Q913.0294,232.9594 912.9638,232.65 Q912.9356,232.4344 912.8231,232.3219 Q912.6263,232.0969 912.2606,231.9656 Q911.895,231.8344 911.52,231.8344 Q911.0606,231.8344 910.6763,232.0313 Q910.3013,232.2281 910.0013,232.6781 Q909.7106,233.1281 909.7106,233.7469 L909.7106,234.4031 Q909.7106,235.1437 910.245,235.6406 Q910.7794,236.1281 911.7356,236.1281 Q912.2981,236.1281 912.6919,235.9781 Q912.9263,235.8844 913.1794,235.6219 Q913.3388,235.4625 913.4231,235.4156 Q913.5169,235.3687 913.6388,235.3687 Q913.8356,235.3687 913.9856,235.5281 Q914.145,235.6781 914.145,235.8844 Q914.145,236.0906 913.9388,236.3344 Q913.6388,236.6812 913.1606,236.8781 Q912.5138,237.15 911.7356,237.15 Q910.8263,237.15 910.1044,236.775 Q909.5138,236.475 909.1013,235.8375 Q908.6888,235.1906 908.6888,234.4219 L908.6888,233.7281 Q908.6888,232.9312 909.0544,232.2469 Q909.4294,231.5531 910.0856,231.1875 Q910.7419,230.8125 911.4825,230.8125 Q911.9231,230.8125 912.3075,230.9156 Q912.7013,231.0094 913.0294,231.225 Z " fill="#000000"/><text fill="#000000" font-family="sans-serif" font-size="8.4" lengthAdjust="spacing" textLength="56.4" x="922.23" y="237.1781">VehicleMapper</text><line style="stroke:#181818;stroke-width:0.3;" x1="891.9" x2="990.9" y1="243.3" y2="243.3"/><line style="stroke:#181818;stroke-width:0.3;" x1="891.9" x2="990.9" y1="248.1" y2="248.1"/><text fill="#000000" font-family="sans-serif" font-size="8.4" lengthAdjust="spacing" textLength="93" x="894.9" y="259.5645">+toDTOList(vehiclesList)</text><text fill="#000000" font-family="sans-serif" font-size="8.4" lengthAdjust="spacing" textLength="91.8" x="894.9" y="270.7371">+vehicleToDTO(vehicle)</text></g><!--link AssignVehiclesUI to AssignVehiclesController--><g id="link_AssignVehiclesUI_AssignVehiclesController"><path codeLine="100" d="M451.2,33.006 C451.2,42.642 451.2,52.518 451.2,65.862 " fill="none" id="AssignVehiclesUI-to-AssignVehiclesController" style="stroke:#181818;stroke-width:0.6;stroke-dasharray:7.0,7.0;"/><polygon fill="#181818" points="451.2,69.462,453.6,64.062,451.2,66.462,448.8,64.062,451.2,69.462" style="stroke:#181818;stroke-width:0.6;"/></g><!--link AssignVehiclesController to Repositories--><g id="link_AssignVehiclesController_Repositories"><path codeLine="101" d="M397.704,165.606 C380.13,181.182 363.588,195.8401 347.112,210.4441 " fill="none" id="AssignVehiclesController-to-Repositories" style="stroke:#181818;stroke-width:0.6;stroke-dasharray:7.0,7.0;"/><polygon fill="#181818" points="344.418,212.832,350.051,211.0461,346.663,210.8421,346.8671,207.4541,344.418,212.832" style="stroke:#181818;stroke-width:0.6;"/><text fill="#000000" font-family="sans-serif" font-size="7.8" lengthAdjust="spacing" textLength="40.2" x="378" y="192.617">repositories</text></g><!--link AssignVehiclesController to Agenda--><g id="link_AssignVehiclesController_Agenda"><path codeLine="102" d="M332.55,164.49 C270.864,188.556 208.2,213 208.2,213 C208.2,213 191.9021,327.264 185.1101,374.904 " fill="none" id="AssignVehiclesController-to-Agenda" style="stroke:#181818;stroke-width:0.6;stroke-dasharray:7.0,7.0;"/><polygon fill="#181818" points="184.602,378.468,187.7401,373.4608,185.0254,375.498,182.9882,372.7833,184.602,378.468" style="stroke:#181818;stroke-width:0.6;"/><text fill="#000000" font-family="sans-serif" font-size="7.8" lengthAdjust="spacing" textLength="25.2" x="208.8" y="252.917">agenda</text></g><!--link AssignVehiclesController to VehicleRepository--><g id="link_AssignVehiclesController_VehicleRepository"><path codeLine="103" d="M442.212,165.666 C432.81,215.346 419.4,286.2 419.4,286.2 C419.4,286.2 375.879,343.3659 351.417,375.4899 " fill="none" id="AssignVehiclesController-to-VehicleRepository" style="stroke:#181818;stroke-width:0.6;stroke-dasharray:7.0,7.0;"/><polygon fill="#181818" points="349.236,378.354,354.4169,375.5118,351.0535,375.9672,350.5981,372.6038,349.236,378.354" style="stroke:#181818;stroke-width:0.6;"/><text fill="#000000" font-family="sans-serif" font-size="7.8" lengthAdjust="spacing" textLength="60.6" x="433.8" y="252.917">vehicleRepository</text></g><!--link Repositories to Repositories--><g id="link_Repositories_Repositories"><path codeLine="104" d="M361.968,239.832 C374.088,240.858 382.8,244.116 382.8,249.6 C382.8,255.084 377.6752,258.0383 365.5552,259.0643 " fill="none" id="Repositories-to-Repositories" style="stroke:#181818;stroke-width:0.6;"/><polygon fill="#181818" points="361.968,259.368,367.5512,261.3039,364.9573,259.1149,367.1463,256.5211,361.968,259.368" style="stroke:#181818;stroke-width:0.6;"/><text fill="#000000" font-family="sans-serif" font-size="7.8" lengthAdjust="spacing" textLength="29.4" x="386.4" y="252.917">instance</text></g><!--link Repositories to Agenda--><g id="link_Repositories_Agenda"><path codeLine="105" d="M272.88,286.29 C257.37,304.506 241.8,322.8 241.8,322.8 C241.8,322.8 217.4276,353.3867 199.6496,375.6947 " fill="none" id="Repositories-to-Agenda" style="stroke:#181818;stroke-width:0.6;"/><polygon fill="#181818" points="197.406,378.51,202.6483,375.7828,199.2757,376.1639,198.8946,372.7912,197.406,378.51" style="stroke:#181818;stroke-width:0.6;"/><text fill="#000000" font-family="sans-serif" font-size="7.8" lengthAdjust="spacing" textLength="4.2" x="195.865" y="371.7876">1</text></g><!--link Repositories to VehicleRepository--><g id="link_Repositories_VehicleRepository"><path codeLine="106" d="M311.088,286.38 C317.1,315.456 324.5909,351.6566 329.4329,375.0686 " fill="none" id="Repositories-to-VehicleRepository" style="stroke:#181818;stroke-width:0.6;"/><polygon fill="#181818" points="330.162,378.594,331.4186,372.8198,329.5544,375.6562,326.7181,373.792,330.162,378.594" style="stroke:#181818;stroke-width:0.6;"/><text fill="#000000" font-family="sans-serif" font-size="7.8" lengthAdjust="spacing" textLength="4.2" x="324.7536" y="371.8881">1</text></g><!--link Agenda to Entry--><g id="link_Agenda_Entry"><path codeLine="107" d="M184.206,418.848 C186.966,441.228 191.1761,475.365 195.1301,507.483 " fill="none" id="Agenda-to-Entry" style="stroke:#181818;stroke-width:0.6;"/><polygon fill="#181818" points="195.57,511.056,197.2922,505.4032,195.2034,508.0785,192.5282,505.9897,195.57,511.056" style="stroke:#181818;stroke-width:0.6;"/><text fill="#000000" font-family="sans-serif" font-size="7.8" lengthAdjust="spacing" textLength="3" x="191.9016" y="504.3541">*</text></g><!--link VehicleRepository to Vehicle--><g id="link_VehicleRepository_Vehicle"><path codeLine="108" d="M331.746,418.92 C324.78,474.564 305.4,629.4 305.4,629.4 C305.4,629.4 301.8039,641.8476 295.8399,662.4756 " fill="none" id="VehicleRepository-to-Vehicle" style="stroke:#181818;stroke-width:0.6;"/><polygon fill="#181818" points="294.84,665.934,298.6454,661.4131,295.6732,663.052,294.0343,660.0799,294.84,665.934" style="stroke:#181818;stroke-width:0.6;"/><text fill="#000000" font-family="sans-serif" font-size="7.8" lengthAdjust="spacing" textLength="3" x="293.1363" y="659.114">*</text></g><!--link Entry to Vehicle--><g id="link_Entry_Vehicle"><path codeLine="109" d="M223.314,629.616 C227.358,641.196 230.5083,650.2116 234.8343,662.5896 " fill="none" id="Entry-to-Vehicle" style="stroke:#181818;stroke-width:0.6;"/><polygon fill="#181818" points="236.022,665.988,236.506,660.0985,235.0322,663.156,231.9748,661.6822,236.022,665.988" style="stroke:#181818;stroke-width:0.6;"/><text fill="#000000" font-family="sans-serif" font-size="7.8" lengthAdjust="spacing" textLength="3" x="231.2855" y="659.1708">*</text></g><!--link AssignVehiclesController to VehicleMapper--><g id="link_AssignVehiclesController_VehicleMapper"><path codeLine="110" d="M569.706,149.82 C672.486,177.246 812.7317,214.6638 887.7857,234.6918 " fill="none" id="AssignVehiclesController-to-VehicleMapper" style="stroke:#181818;stroke-width:0.6;stroke-dasharray:7.0,7.0;"/><polygon fill="#181818" points="891.264,235.62,886.6653,231.9089,888.3654,234.8465,885.4278,236.5466,891.264,235.62" style="stroke:#181818;stroke-width:0.6;"/></g><!--link VehicleMapper to VehicleDto--><g id="link_VehicleMapper_VehicleDto"><path codeLine="111" d="M963.438,275.124 C975.162,288.378 987.879,302.7574 1003.083,319.9474 " fill="none" id="VehicleMapper-to-VehicleDto" style="stroke:#181818;stroke-width:0.6;stroke-dasharray:7.0,7.0;"/><polygon fill="#181818" points="1005.468,322.644,1003.6882,317.0091,1003.4805,320.3968,1000.0927,320.1892,1005.468,322.644" style="stroke:#181818;stroke-width:0.6;"/></g><!--link AssignVehiclesController to EntryMapper--><g id="link_AssignVehiclesController_EntryMapper"><path codeLine="112" d="M500.562,165.606 C521.118,185.346 541.5497,204.9622 558.7217,221.4562 " fill="none" id="AssignVehiclesController-to-EntryMapper" style="stroke:#181818;stroke-width:0.6;stroke-dasharray:7.0,7.0;"/><polygon fill="#181818" points="561.318,223.95,559.0861,218.4784,559.1544,221.8718,555.761,221.9402,561.318,223.95" style="stroke:#181818;stroke-width:0.6;"/></g><!--link EntryMapper to EntryDto--><g id="link_EntryMapper_EntryDto"><path codeLine="113" d="M591.042,275.124 C593.838,294.264 597.2785,317.8157 600.7645,341.7197 " fill="none" id="EntryMapper-to-EntryDto" style="stroke:#181818;stroke-width:0.6;stroke-dasharray:7.0,7.0;"/><polygon fill="#181818" points="601.284,345.282,602.8796,339.5922,600.8511,342.3134,598.1299,340.2849,601.284,345.282" style="stroke:#181818;stroke-width:0.6;"/></g><!--SRC=[tLPTRzCm57tFhx3sieov4xnsQD8-05KmXcWtdjtaBhMQs9dj30BQV-SwTcidQIlU4FGXbUzNphdNn_6nNdDHCyKgKaaXivMI5H2Z6aY2fsRPcXKmDsq9H45cc2ZAE42lM2w_Sr6GHrRgs5Do0QQjWTIoREqYETxXbCh89ChAIgRrfJ6ABni3iqoAEVy9v7MI79VmQ8YHHF5YPKZEBHmkHP9qEUHIQrw81rZnh0HzFoE_afVTlcifZ99b2GfZ2FvEz_bJv2voHicpSts5Mcfkf6fFN2Bh9IxaEyniVTPCvF1Zcwg_bCp0vwPQWdB9am9C5t_LTg4fjy_WyrMlsYWpzTL6nKvzCGxw4zVcPd6N1iS6N_24pdHGDttOWsWRtJbzyEG68H1jc38uVhjmPbTnRfXfj7NZdtCic5uJWm-_11otmOTh_hcpVb00OexR3lGj4zX8HOgHoSTQEcyzjujjdrqvnyUD8yP8EmGxfvVsAqIq7uRJZ_grSqfrF9vXcKt_vZWjrCrICP7tB9NCeNGMBd3BCmLXLIYfzJUm6WZ6h54AXFbOHPDHK61_G8N9T6QMFJKSMQ1oWiVMg1W-GJ2HmVKAilLz_Lx1KmCYQtle8cxExcajh9ojffrrAMK9J12PPKtD8VTHhcz-aNRSgIDCEw8q9aW3CThZGuSqw27uDCPCEun16_7Ol5M3kUkZJWSieg5kDmKgRpFPdd5JbU3BPWBt8Y9CJyYq5nH2d7pYfD7kIuUAlC5JyLyGvNcaIiGy4AQ3vGHA8n1qnyiesIlMhlejg-jml1k9fvu5ba8u8ds7hQLTs83EsOxr6dNtlvRiQU3xDuKvRF- -KJv77pK_IszoqtoEf3gw6voTNUoz52HxRmisArRj5Bb76ZwOvnGu9UvkS3XsfFZf-0AIz0wUoMI8ZFkZPXntzER8ezdj6xqzyPU4Bk3LaLDOClueRloRezxT5eRMFs7kPfxqTq3anorwk4vq22JnWR3rsGg_0G00]--></g></svg>