<?xml version="1.0" encoding="us-ascii" standalone="no"?><svg xmlns="http://www.w3.org/2000/svg" xmlns:xlink="http://www.w3.org/1999/xlink" contentStyleType="text/css" height="200.8px" preserveAspectRatio="none" style="width:193px;height:200px;background:#FFFFFF;" version="1.1" viewBox="0 0 193 200" width="193.2px" zoomAndPan="magnify"><defs/><g><rect fill="#FFFFFF" height="135.0477" style="stroke:#181818;stroke-width:0.4000000000000001;" width="4" x="86.4" y="36.2133"/><rect fill="#FFFFFF" height="52.3492" style="stroke:#181818;stroke-width:0.4000000000000001;" width="4" x="88.4" y="72.9625"/><rect fill="#FFFFFF" height="16.9164" style="stroke:#181818;stroke-width:0.4000000000000001;" width="4" x="90.4" y="90.6789"/><rect fill="#FFFFFF" height="12.5164" style="stroke:#181818;stroke-width:0.4000000000000001;" width="4" x="168" y="140.6281"/><rect fill="none" height="116.9313" style="stroke:#000000;stroke-width:0.6000000000000001;" width="120.6" x="70.2" y="42.2133"/><rect fill="none" height="103.6148" style="stroke:#000000;stroke-width:0.6000000000000001;" width="112.6" x="74.2" y="52.7297"/><line style="stroke:#181818;stroke-width:0.20000000000000004;stroke-dasharray:5.0,5.0;" x1="88.2" x2="88.2" y1="22.8969" y2="178.4609"/><line style="stroke:#181818;stroke-width:0.20000000000000004;stroke-dasharray:5.0,5.0;" x1="170" x2="170" y1="22.8969" y2="178.4609"/><rect fill="#E3E3E3" height="20.4969" rx="1" ry="1" style="stroke:#181818;stroke-width:0.20000000000000004;" width="20.4" x="78.2" y="2"/><text fill="#000000" font-family="sans-serif" font-size="5.6" lengthAdjust="spacing" textLength="12.8" x="82" y="10.843">entry</text><text fill="#000000" font-family="sans-serif" font-size="5.6" lengthAdjust="spacing" textLength="14.8" x="81" y="18.2914">:Entry</text><rect fill="#E3E3E3" height="20.4969" rx="1" ry="1" style="stroke:#181818;stroke-width:0.20000000000000004;" width="20.4" x="78.2" y="178.0609"/><text fill="#000000" font-family="sans-serif" font-size="5.6" lengthAdjust="spacing" textLength="12.8" x="82" y="186.9039">entry</text><text fill="#000000" font-family="sans-serif" font-size="5.6" lengthAdjust="spacing" textLength="14.8" x="81" y="194.3523">:Entry</text><rect fill="#E3E3E3" height="20.4969" rx="1" ry="1" style="stroke:#181818;stroke-width:0.20000000000000004;" width="25.6" x="157.2" y="2"/><text fill="#000000" font-family="sans-serif" font-size="5.6" lengthAdjust="spacing" textLength="17.6" x="161.2" y="10.843">vehicle</text><text fill="#000000" font-family="sans-serif" font-size="5.6" lengthAdjust="spacing" textLength="20" x="160" y="18.2914">:Vehicle</text><rect fill="#E3E3E3" height="20.4969" rx="1" ry="1" style="stroke:#181818;stroke-width:0.20000000000000004;" width="25.6" x="157.2" y="178.0609"/><text fill="#000000" font-family="sans-serif" font-size="5.6" lengthAdjust="spacing" textLength="17.6" x="161.2" y="186.9039">vehicle</text><text fill="#000000" font-family="sans-serif" font-size="5.6" lengthAdjust="spacing" textLength="20" x="160" y="194.3523">:Vehicle</text><rect fill="#FFFFFF" height="135.0477" style="stroke:#181818;stroke-width:0.4000000000000001;" width="4" x="86.4" y="36.2133"/><rect fill="#FFFFFF" height="52.3492" style="stroke:#181818;stroke-width:0.4000000000000001;" width="4" x="88.4" y="72.9625"/><rect fill="#FFFFFF" height="16.9164" style="stroke:#181818;stroke-width:0.4000000000000001;" width="4" x="90.4" y="90.6789"/><rect fill="#FFFFFF" height="12.5164" style="stroke:#181818;stroke-width:0.4000000000000001;" width="4" x="168" y="140.6281"/><polygon fill="#181818" points="81.6,34.6133,85.6,36.2133,81.6,37.8133,83.2,36.2133" style="stroke:#181818;stroke-width:0.4000000000000001;"/><line style="stroke:#181818;stroke-width:0.4000000000000001;" x1="0" x2="84" y1="36.2133" y2="36.2133"/><text fill="#000000" font-family="sans-serif" font-size="5.2" font-weight="bold" lengthAdjust="spacing" textLength="5.6" x="2.8" y="34.1082">21</text><text fill="#000000" font-family="sans-serif" font-size="5.2" lengthAdjust="spacing" textLength="71.6" x="10" y="34.1082">assignVehicles(vehiclesToAdd)</text><path d="M70.2,42.2133 L166.6,42.2133 L166.6,45.9297 L162.6,49.9297 L70.2,49.9297 L70.2,42.2133 " fill="#EEEEEE" style="stroke:#000000;stroke-width:0.6000000000000001;"/><rect fill="none" height="116.9313" style="stroke:#000000;stroke-width:0.6000000000000001;" width="120.6" x="70.2" y="42.2133"/><text fill="#000000" font-family="sans-serif" font-size="5.2" font-weight="bold" lengthAdjust="spacing" textLength="78.4" x="76.2" y="48.2246">Assign Vehicles to Entry Object</text><path d="M74.2,52.7297 L103.4,52.7297 L103.4,56.4461 L99.4,60.4461 L74.2,60.4461 L74.2,52.7297 " fill="#EEEEEE" style="stroke:#000000;stroke-width:0.6000000000000001;"/><rect fill="none" height="103.6148" style="stroke:#000000;stroke-width:0.6000000000000001;" width="112.6" x="74.2" y="52.7297"/><text fill="#000000" font-family="sans-serif" font-size="5.2" font-weight="bold" lengthAdjust="spacing" textLength="11.2" x="80.2" y="58.741">loop</text><text fill="#000000" font-family="sans-serif" font-size="4.4" font-weight="bold" lengthAdjust="spacing" textLength="75.2" x="109.4" y="58.2777">[For each vehicle in vehicleToAdd]</text><line style="stroke:#181818;stroke-width:0.4000000000000001;" x1="90.4" x2="109.2" y1="67.7625" y2="67.7625"/><line style="stroke:#181818;stroke-width:0.4000000000000001;" x1="109.2" x2="109.2" y1="67.7625" y2="72.9625"/><line style="stroke:#181818;stroke-width:0.4000000000000001;" x1="92.8" x2="109.2" y1="72.9625" y2="72.9625"/><polygon fill="#181818" points="96.8,71.3625,92.8,72.9625,96.8,74.5625,95.2,72.9625" style="stroke:#181818;stroke-width:0.4000000000000001;"/><text fill="#000000" font-family="sans-serif" font-size="5.2" font-weight="bold" lengthAdjust="spacing" textLength="10" x="95.2" y="65.6574">21.1</text><text fill="#000000" font-family="sans-serif" font-size="5.2" lengthAdjust="spacing" textLength="46.4" x="106.8" y="65.6574">getVehiclesAssign()</text><line style="stroke:#181818;stroke-width:0.4000000000000001;" x1="92.4" x2="111.2" y1="85.4789" y2="85.4789"/><line style="stroke:#181818;stroke-width:0.4000000000000001;" x1="111.2" x2="111.2" y1="85.4789" y2="90.6789"/><line style="stroke:#181818;stroke-width:0.4000000000000001;" x1="94.8" x2="111.2" y1="90.6789" y2="90.6789"/><polygon fill="#181818" points="98.8,89.0789,94.8,90.6789,98.8,92.2789,97.2,90.6789" style="stroke:#181818;stroke-width:0.4000000000000001;"/><text fill="#000000" font-family="sans-serif" font-size="5.2" font-weight="bold" lengthAdjust="spacing" textLength="10" x="97.2" y="83.3738">21.2</text><text fill="#000000" font-family="sans-serif" font-size="5.2" lengthAdjust="spacing" textLength="27.2" x="108.8" y="83.3738">add(vehicle)</text><line style="stroke:#181818;stroke-width:0.4000000000000001;stroke-dasharray:2.0,2.0;" x1="94.4" x2="111.2" y1="107.1953" y2="107.1953"/><line style="stroke:#181818;stroke-width:0.4000000000000001;stroke-dasharray:2.0,2.0;" x1="111.2" x2="111.2" y1="107.1953" y2="112.3953"/><line style="stroke:#181818;stroke-width:0.4000000000000001;stroke-dasharray:2.0,2.0;" x1="92.4" x2="111.2" y1="112.3953" y2="112.3953"/><polygon fill="#181818" points="96.4,110.7953,92.4,112.3953,96.4,113.9953,94.8,112.3953" style="stroke:#181818;stroke-width:0.4000000000000001;"/><text fill="#000000" font-family="sans-serif" font-size="5.2" font-weight="bold" lengthAdjust="spacing" textLength="10" x="97.2" y="105.0902">21.3</text><text fill="#000000" font-family="sans-serif" font-size="5.2" lengthAdjust="spacing" textLength="1.6" x="108.8" y="105.0902">&#160;</text><line style="stroke:#181818;stroke-width:0.4000000000000001;stroke-dasharray:2.0,2.0;" x1="92.4" x2="109.2" y1="124.9117" y2="124.9117"/><line style="stroke:#181818;stroke-width:0.4000000000000001;stroke-dasharray:2.0,2.0;" x1="109.2" x2="109.2" y1="124.9117" y2="130.1117"/><line style="stroke:#181818;stroke-width:0.4000000000000001;stroke-dasharray:2.0,2.0;" x1="90.4" x2="109.2" y1="130.1117" y2="130.1117"/><polygon fill="#181818" points="94.4,128.5117,90.4,130.1117,94.4,131.7117,92.8,130.1117" style="stroke:#181818;stroke-width:0.4000000000000001;"/><text fill="#000000" font-family="sans-serif" font-size="5.2" font-weight="bold" lengthAdjust="spacing" textLength="10" x="95.2" y="122.8066">21.4</text><text fill="#000000" font-family="sans-serif" font-size="5.2" lengthAdjust="spacing" textLength="1.6" x="106.8" y="122.8066">&#160;</text><polygon fill="#181818" points="163.2,139.0281,167.2,140.6281,163.2,142.2281,164.8,140.6281" style="stroke:#181818;stroke-width:0.4000000000000001;"/><line style="stroke:#181818;stroke-width:0.4000000000000001;" x1="90.4" x2="165.6" y1="140.6281" y2="140.6281"/><text fill="#000000" font-family="sans-serif" font-size="5.2" font-weight="bold" lengthAdjust="spacing" textLength="10" x="93.2" y="138.523">21.5</text><text fill="#000000" font-family="sans-serif" font-size="5.2" lengthAdjust="spacing" textLength="58.4" x="104.8" y="138.523">setOccupiedVehicle(true)</text><polygon fill="#181818" points="94.8,151.5445,90.8,153.1445,94.8,154.7445,93.2,153.1445" style="stroke:#181818;stroke-width:0.4000000000000001;"/><line style="stroke:#181818;stroke-width:0.4000000000000001;stroke-dasharray:2.0,2.0;" x1="92.4" x2="169.6" y1="153.1445" y2="153.1445"/><text fill="#000000" font-family="sans-serif" font-size="5.2" font-weight="bold" lengthAdjust="spacing" textLength="10" x="97.2" y="151.0395">21.6</text><text fill="#000000" font-family="sans-serif" font-size="5.2" lengthAdjust="spacing" textLength="1.6" x="108.8" y="151.0395">&#160;</text><polygon fill="#181818" points="4.4,169.6609,0.4,171.2609,4.4,172.8609,2.8,171.2609" style="stroke:#181818;stroke-width:0.4000000000000001;"/><line style="stroke:#181818;stroke-width:0.4000000000000001;stroke-dasharray:2.0,2.0;" x1="2" x2="88" y1="171.2609" y2="171.2609"/><text fill="#000000" font-family="sans-serif" font-size="5.2" font-weight="bold" lengthAdjust="spacing" textLength="5.6" x="6.8" y="169.1559">22</text><text fill="#000000" font-family="sans-serif" font-size="5.2" lengthAdjust="spacing" textLength="11.6" x="14" y="169.1559">entry</text><!--SRC=[jL9DQyCm3BtxLuYUqaC6xJ6CGXaP6umLjb8OxABQMk8riOFjTFJVBtNihEc-s66-M4XFxptPiZkf6ZHOGwsLvgNHDO4pBJ4xL1haEopeqHqg0aFSeIggKu0jKUWtgGfumSeIOrtQIIuRL0ucf9mvFAiiFzuJG0lv_VhXQGpQKobvHHriqqSUkCblRg_kSiQmTLgrzPOCp6SiNVGKMOUnib2XnIQ1nQxrKeZfMTl5Z25tSe-EWWFeJc5qsy3Iyq0a0gV1suNLzhKRc7beF9NM3Lnh0uIyXA09KiNGguzRl1vy-2x8HQrUEfcEy6T6V-H28UBWVoQ9BAEQe7_jNCHlpS2IMt7UDf94U8xak7lVZ35imsar97ytz6KtgV1HGt2wCdEVkKpJO3q3lyliyvZl]--></g></svg>