<?xml version="1.0" encoding="us-ascii" standalone="no"?><svg xmlns="http://www.w3.org/2000/svg" xmlns:xlink="http://www.w3.org/1999/xlink" contentStyleType="text/css" height="280px" preserveAspectRatio="none" style="width:418px;height:280px;background:#FFFFFF;" version="1.1" viewBox="0 0 418 280" width="418px" zoomAndPan="magnify"><defs/><g><rect fill="#FFFFFF" height="214.243" style="stroke:#181818;stroke-width:0.4000000000000001;" width="4" x="61.2" y="36.2133"/><rect fill="#FFFFFF" height="12.5164" style="stroke:#181818;stroke-width:0.4000000000000001;" width="4" x="119.6" y="59.2461"/><rect fill="#FFFFFF" height="12.5164" style="stroke:#181818;stroke-width:0.4000000000000001;" width="4" x="162.4" y="84.2789"/><rect fill="#FFFFFF" height="12.5164" style="stroke:#181818;stroke-width:0.4000000000000001;" width="4" x="211.8" y="109.3117"/><rect fill="#FFFFFF" height="100.7953" style="stroke:#181818;stroke-width:0.4000000000000001;" width="4" x="264.2" y="134.3445"/><rect fill="#FFFFFF" height="12.5164" style="stroke:#181818;stroke-width:0.4000000000000001;" width="4" x="335" y="182.2742"/><rect fill="#FFFFFF" height="15.3164" style="stroke:#181818;stroke-width:0.4000000000000001;" width="4" x="381" y="207.307"/><rect fill="none" height="196.1266" style="stroke:#000000;stroke-width:0.6000000000000001;" width="391.6" x="24.2" y="42.2133"/><rect fill="none" height="45.2656" style="stroke:#000000;stroke-width:0.6000000000000001;" width="172" x="239.8" y="165.2414"/><line style="stroke:#181818;stroke-width:0.20000000000000004;stroke-dasharray:5.0,5.0;" x1="63" x2="63" y1="22.8969" y2="257.6563"/><line style="stroke:#181818;stroke-width:0.20000000000000004;stroke-dasharray:5.0,5.0;" x1="121.4" x2="121.4" y1="22.8969" y2="257.6563"/><line style="stroke:#181818;stroke-width:0.20000000000000004;stroke-dasharray:5.0,5.0;" x1="164.2" x2="164.2" y1="22.8969" y2="257.6563"/><line style="stroke:#181818;stroke-width:0.20000000000000004;stroke-dasharray:5.0,5.0;" x1="213.8" x2="213.8" y1="22.8969" y2="257.6563"/><line style="stroke:#181818;stroke-width:0.20000000000000004;stroke-dasharray:5.0,5.0;" x1="266.2" x2="266.2" y1="22.8969" y2="257.6563"/><line style="stroke:#181818;stroke-width:0.20000000000000004;stroke-dasharray:5.0,5.0;" x1="337" x2="337" y1="22.8969" y2="257.6563"/><line style="stroke:#181818;stroke-width:0.20000000000000004;stroke-dasharray:5.0,5.0;" x1="383" x2="383" y1="153.993" y2="257.6563"/><rect fill="#E3E3E3" height="13.0484" rx="1" ry="1" style="stroke:#181818;stroke-width:0.20000000000000004;" width="70" x="28.2" y="9.4484"/><text fill="#000000" font-family="sans-serif" font-size="5.6" lengthAdjust="spacing" textLength="64.4" x="31" y="18.2914">:AssignVehiclesController</text><rect fill="#E3E3E3" height="13.0484" rx="1" ry="1" style="stroke:#181818;stroke-width:0.20000000000000004;" width="70" x="28.2" y="257.2563"/><text fill="#000000" font-family="sans-serif" font-size="5.6" lengthAdjust="spacing" textLength="64.4" x="31" y="266.0992">:AssignVehiclesController</text><rect fill="#E3E3E3" height="13.0484" rx="1" ry="1" style="stroke:#181818;stroke-width:0.20000000000000004;" width="38.8" x="102.2" y="9.4484"/><text fill="#000000" font-family="sans-serif" font-size="5.6" lengthAdjust="spacing" textLength="33.2" x="105" y="18.2914">:Repositories</text><rect fill="#E3E3E3" height="13.0484" rx="1" ry="1" style="stroke:#181818;stroke-width:0.20000000000000004;" width="38.8" x="102.2" y="257.2563"/><text fill="#000000" font-family="sans-serif" font-size="5.6" lengthAdjust="spacing" textLength="33.2" x="105" y="266.0992">:Repositories</text><rect fill="#E3E3E3" height="20.4969" rx="1" ry="1" style="stroke:#181818;stroke-width:0.20000000000000004;" width="38.8" x="145" y="2"/><text fill="#000000" font-family="sans-serif" font-size="5.6" lengthAdjust="spacing" textLength="29.6" x="149.6" y="10.843">repositories</text><text fill="#000000" font-family="sans-serif" font-size="5.6" lengthAdjust="spacing" textLength="33.2" x="147.8" y="18.2914">:Repositories</text><rect fill="#E3E3E3" height="20.4969" rx="1" ry="1" style="stroke:#181818;stroke-width:0.20000000000000004;" width="38.8" x="145" y="257.2563"/><text fill="#000000" font-family="sans-serif" font-size="5.6" lengthAdjust="spacing" textLength="29.6" x="149.6" y="266.0992">repositories</text><text fill="#000000" font-family="sans-serif" font-size="5.6" lengthAdjust="spacing" textLength="33.2" x="147.8" y="273.5477">:Repositories</text><rect fill="#E3E3E3" height="20.4969" rx="1" ry="1" style="stroke:#181818;stroke-width:0.20000000000000004;" width="52" x="187.8" y="2"/><text fill="#000000" font-family="sans-serif" font-size="5.6" lengthAdjust="spacing" textLength="46.4" x="190.6" y="10.843">vehicleRepository:</text><text fill="#000000" font-family="sans-serif" font-size="5.6" lengthAdjust="spacing" textLength="45.6" x="191" y="18.2914">VehicleRepository</text><rect fill="#E3E3E3" height="20.4969" rx="1" ry="1" style="stroke:#181818;stroke-width:0.20000000000000004;" width="52" x="187.8" y="257.2563"/><text fill="#000000" font-family="sans-serif" font-size="5.6" lengthAdjust="spacing" textLength="46.4" x="190.6" y="266.0992">vehicleRepository:</text><text fill="#000000" font-family="sans-serif" font-size="5.6" lengthAdjust="spacing" textLength="45.6" x="191" y="273.5477">VehicleRepository</text><rect fill="#E3E3E3" height="13.0484" rx="1" ry="1" style="stroke:#181818;stroke-width:0.20000000000000004;" width="44.8" x="243.8" y="9.4484"/><text fill="#000000" font-family="sans-serif" font-size="5.6" lengthAdjust="spacing" textLength="39.2" x="246.6" y="18.2914">:VehicleMapper</text><rect fill="#E3E3E3" height="13.0484" rx="1" ry="1" style="stroke:#181818;stroke-width:0.20000000000000004;" width="44.8" x="243.8" y="257.2563"/><text fill="#000000" font-family="sans-serif" font-size="5.6" lengthAdjust="spacing" textLength="39.2" x="246.6" y="266.0992">:VehicleMapper</text><rect fill="#E3E3E3" height="20.4969" rx="1" ry="1" style="stroke:#181818;stroke-width:0.20000000000000004;" width="34.4" x="319.8" y="2"/><text fill="#000000" font-family="sans-serif" font-size="5.6" lengthAdjust="spacing" textLength="26.4" x="323.8" y="10.843">vehicleDto</text><text fill="#000000" font-family="sans-serif" font-size="5.6" lengthAdjust="spacing" textLength="28.8" x="322.6" y="18.2914">:VehicleDto</text><rect fill="#E3E3E3" height="20.4969" rx="1" ry="1" style="stroke:#181818;stroke-width:0.20000000000000004;" width="34.4" x="319.8" y="257.2563"/><text fill="#000000" font-family="sans-serif" font-size="5.6" lengthAdjust="spacing" textLength="26.4" x="323.8" y="266.0992">vehicleDto</text><text fill="#000000" font-family="sans-serif" font-size="5.6" lengthAdjust="spacing" textLength="28.8" x="322.6" y="273.5477">:VehicleDto</text><rect fill="#E3E3E3" height="20.4969" rx="1" ry="1" style="stroke:#181818;stroke-width:0.20000000000000004;" width="49.6" x="358.2" y="257.2563"/><text fill="#000000" font-family="sans-serif" font-size="5.6" lengthAdjust="spacing" textLength="35.2" x="365.4" y="266.0992">vehicleListDto</text><text fill="#000000" font-family="sans-serif" font-size="5.6" lengthAdjust="spacing" textLength="44" x="361" y="273.5477">:List&lt;VehicleDto&gt;</text><rect fill="#FFFFFF" height="214.243" style="stroke:#181818;stroke-width:0.4000000000000001;" width="4" x="61.2" y="36.2133"/><rect fill="#FFFFFF" height="12.5164" style="stroke:#181818;stroke-width:0.4000000000000001;" width="4" x="119.6" y="59.2461"/><rect fill="#FFFFFF" height="12.5164" style="stroke:#181818;stroke-width:0.4000000000000001;" width="4" x="162.4" y="84.2789"/><rect fill="#FFFFFF" height="12.5164" style="stroke:#181818;stroke-width:0.4000000000000001;" width="4" x="211.8" y="109.3117"/><rect fill="#FFFFFF" height="100.7953" style="stroke:#181818;stroke-width:0.4000000000000001;" width="4" x="264.2" y="134.3445"/><rect fill="#FFFFFF" height="12.5164" style="stroke:#181818;stroke-width:0.4000000000000001;" width="4" x="335" y="182.2742"/><rect fill="#FFFFFF" height="15.3164" style="stroke:#181818;stroke-width:0.4000000000000001;" width="4" x="381" y="207.307"/><polygon fill="#181818" points="56.4,34.6133,60.4,36.2133,56.4,37.8133,58,36.2133" style="stroke:#181818;stroke-width:0.4000000000000001;"/><line style="stroke:#181818;stroke-width:0.4000000000000001;" x1="0" x2="58.8" y1="36.2133" y2="36.2133"/><text fill="#000000" font-family="sans-serif" font-size="5.2" font-weight="bold" lengthAdjust="spacing" textLength="2.8" x="2.8" y="34.1082">7</text><text fill="#000000" font-family="sans-serif" font-size="5.2" lengthAdjust="spacing" textLength="49.2" x="7.2" y="34.1082">getVehiclesListDTO()</text><path d="M24.2,42.2133 L92.2,42.2133 L92.2,45.9297 L88.2,49.9297 L24.2,49.9297 L24.2,42.2133 " fill="#EEEEEE" style="stroke:#000000;stroke-width:0.6000000000000001;"/><rect fill="none" height="196.1266" style="stroke:#000000;stroke-width:0.6000000000000001;" width="391.6" x="24.2" y="42.2133"/><text fill="#000000" font-family="sans-serif" font-size="5.2" font-weight="bold" lengthAdjust="spacing" textLength="50" x="30.2" y="48.2246">Get Vehicle Dto List</text><polygon fill="#181818" points="114.8,57.6461,118.8,59.2461,114.8,60.8461,116.4,59.2461" style="stroke:#181818;stroke-width:0.4000000000000001;"/><line style="stroke:#181818;stroke-width:0.4000000000000001;" x1="65.2" x2="117.2" y1="59.2461" y2="59.2461"/><text fill="#000000" font-family="sans-serif" font-size="5.2" font-weight="bold" lengthAdjust="spacing" textLength="7.2" x="68" y="57.141">7.1</text><text fill="#000000" font-family="sans-serif" font-size="5.2" lengthAdjust="spacing" textLength="30" x="76.8" y="57.141">getInstance()</text><polygon fill="#181818" points="69.6,70.1625,65.6,71.7625,69.6,73.3625,68,71.7625" style="stroke:#181818;stroke-width:0.4000000000000001;"/><line style="stroke:#181818;stroke-width:0.4000000000000001;stroke-dasharray:2.0,2.0;" x1="67.2" x2="121.2" y1="71.7625" y2="71.7625"/><text fill="#000000" font-family="sans-serif" font-size="5.2" font-weight="bold" lengthAdjust="spacing" textLength="7.2" x="72" y="69.6574">7.2</text><text fill="#000000" font-family="sans-serif" font-size="5.2" lengthAdjust="spacing" textLength="26.8" x="80.8" y="69.6574">repositories</text><polygon fill="#181818" points="157.6,82.6789,161.6,84.2789,157.6,85.8789,159.2,84.2789" style="stroke:#181818;stroke-width:0.4000000000000001;"/><line style="stroke:#181818;stroke-width:0.4000000000000001;" x1="65.2" x2="160" y1="84.2789" y2="84.2789"/><text fill="#000000" font-family="sans-serif" font-size="5.2" font-weight="bold" lengthAdjust="spacing" textLength="7.2" x="68" y="82.1738">7.3</text><text fill="#000000" font-family="sans-serif" font-size="5.2" lengthAdjust="spacing" textLength="52.4" x="76.8" y="82.1738">getVehicleRepository()</text><polygon fill="#181818" points="69.6,95.1953,65.6,96.7953,69.6,98.3953,68,96.7953" style="stroke:#181818;stroke-width:0.4000000000000001;"/><line style="stroke:#181818;stroke-width:0.4000000000000001;stroke-dasharray:2.0,2.0;" x1="67.2" x2="164" y1="96.7953" y2="96.7953"/><text fill="#000000" font-family="sans-serif" font-size="5.2" font-weight="bold" lengthAdjust="spacing" textLength="7.2" x="72" y="94.6902">7.4</text><text fill="#000000" font-family="sans-serif" font-size="5.2" lengthAdjust="spacing" textLength="40.4" x="80.8" y="94.6902">vehicleRepository</text><polygon fill="#181818" points="207,107.7117,211,109.3117,207,110.9117,208.6,109.3117" style="stroke:#181818;stroke-width:0.4000000000000001;"/><line style="stroke:#181818;stroke-width:0.4000000000000001;" x1="65.2" x2="209.4" y1="109.3117" y2="109.3117"/><text fill="#000000" font-family="sans-serif" font-size="5.2" font-weight="bold" lengthAdjust="spacing" textLength="7.2" x="68" y="107.2066">7.5</text><text fill="#000000" font-family="sans-serif" font-size="5.2" lengthAdjust="spacing" textLength="38.8" x="76.8" y="107.2066">getVehiclesList()</text><polygon fill="#181818" points="69.6,120.2281,65.6,121.8281,69.6,123.4281,68,121.8281" style="stroke:#181818;stroke-width:0.4000000000000001;"/><line style="stroke:#181818;stroke-width:0.4000000000000001;stroke-dasharray:2.0,2.0;" x1="67.2" x2="213.4" y1="121.8281" y2="121.8281"/><text fill="#000000" font-family="sans-serif" font-size="5.2" font-weight="bold" lengthAdjust="spacing" textLength="7.2" x="72" y="119.723">7.6</text><text fill="#000000" font-family="sans-serif" font-size="5.2" lengthAdjust="spacing" textLength="26.8" x="80.8" y="119.723">vehiclesList</text><polygon fill="#181818" points="259.4,132.7445,263.4,134.3445,259.4,135.9445,261,134.3445" style="stroke:#181818;stroke-width:0.4000000000000001;"/><line style="stroke:#181818;stroke-width:0.4000000000000001;" x1="65.2" x2="261.8" y1="134.3445" y2="134.3445"/><text fill="#000000" font-family="sans-serif" font-size="5.2" font-weight="bold" lengthAdjust="spacing" textLength="7.2" x="68" y="132.2395">7.7</text><text fill="#000000" font-family="sans-serif" font-size="5.2" lengthAdjust="spacing" textLength="53.2" x="76.8" y="132.2395">toDTOList(vehiclesList)</text><polygon fill="#181818" points="353.4,145.2609,357.4,146.8609,353.4,148.4609,355,146.8609" style="stroke:#181818;stroke-width:0.4000000000000001;"/><line style="stroke:#181818;stroke-width:0.4000000000000001;" x1="268.2" x2="355.8" y1="146.8609" y2="146.8609"/><text fill="#000000" font-family="sans-serif" font-size="5.2" font-weight="bold" lengthAdjust="spacing" textLength="7.2" x="271" y="144.7559">7.8</text><text fill="#000000" font-family="sans-serif" font-size="5.2" lengthAdjust="spacing" textLength="17.6" x="279.8" y="144.7559">create()</text><rect fill="#E3E3E3" height="20.4969" rx="1" ry="1" style="stroke:#181818;stroke-width:0.20000000000000004;" width="49.6" x="358.2" y="137.5445"/><text fill="#000000" font-family="sans-serif" font-size="5.6" lengthAdjust="spacing" textLength="35.2" x="365.4" y="146.3875">vehicleListDto</text><text fill="#000000" font-family="sans-serif" font-size="5.6" lengthAdjust="spacing" textLength="44" x="361" y="153.8359">:List&lt;VehicleDto&gt;</text><path d="M239.8,165.2414 L269,165.2414 L269,168.9578 L265,172.9578 L239.8,172.9578 L239.8,165.2414 " fill="#EEEEEE" style="stroke:#000000;stroke-width:0.6000000000000001;"/><rect fill="none" height="45.2656" style="stroke:#000000;stroke-width:0.6000000000000001;" width="172" x="239.8" y="165.2414"/><text fill="#000000" font-family="sans-serif" font-size="5.2" font-weight="bold" lengthAdjust="spacing" textLength="11.2" x="245.8" y="171.2527">loop</text><text fill="#000000" font-family="sans-serif" font-size="4.4" font-weight="bold" lengthAdjust="spacing" textLength="72" x="275" y="170.7895">[For each vehicle in vehiclesList]</text><polygon fill="#181818" points="330.2,180.6742,334.2,182.2742,330.2,183.8742,331.8,182.2742" style="stroke:#181818;stroke-width:0.4000000000000001;"/><line style="stroke:#181818;stroke-width:0.4000000000000001;" x1="268.2" x2="332.6" y1="182.2742" y2="182.2742"/><text fill="#000000" font-family="sans-serif" font-size="5.2" font-weight="bold" lengthAdjust="spacing" textLength="7.2" x="271" y="180.1691">7.9</text><text fill="#000000" font-family="sans-serif" font-size="5.2" lengthAdjust="spacing" textLength="50.4" x="279.8" y="180.1691">vehicleToDTO(vehicle)</text><polygon fill="#181818" points="272.6,193.1906,268.6,194.7906,272.6,196.3906,271,194.7906" style="stroke:#181818;stroke-width:0.4000000000000001;"/><line style="stroke:#181818;stroke-width:0.4000000000000001;stroke-dasharray:2.0,2.0;" x1="270.2" x2="336.6" y1="194.7906" y2="194.7906"/><text fill="#000000" font-family="sans-serif" font-size="5.2" font-weight="bold" lengthAdjust="spacing" textLength="10" x="275" y="192.6855">7.10</text><text fill="#000000" font-family="sans-serif" font-size="5.2" lengthAdjust="spacing" textLength="23.6" x="286.6" y="192.6855">vehicleDto</text><polygon fill="#181818" points="376.2,205.707,380.2,207.307,376.2,208.907,377.8,207.307" style="stroke:#181818;stroke-width:0.4000000000000001;"/><line style="stroke:#181818;stroke-width:0.4000000000000001;" x1="268.2" x2="378.6" y1="207.307" y2="207.307"/><text fill="#000000" font-family="sans-serif" font-size="5.2" font-weight="bold" lengthAdjust="spacing" textLength="10" x="271" y="205.202">7.11</text><text fill="#000000" font-family="sans-serif" font-size="5.2" lengthAdjust="spacing" textLength="35.2" x="282.6" y="205.202">add(vehicleDto)</text><polygon fill="#181818" points="272.6,221.0234,268.6,222.6234,272.6,224.2234,271,222.6234" style="stroke:#181818;stroke-width:0.4000000000000001;"/><line style="stroke:#181818;stroke-width:0.4000000000000001;stroke-dasharray:2.0,2.0;" x1="270.2" x2="382.6" y1="222.6234" y2="222.6234"/><text fill="#000000" font-family="sans-serif" font-size="5.2" font-weight="bold" lengthAdjust="spacing" textLength="10" x="275" y="220.5184">7.12</text><text fill="#000000" font-family="sans-serif" font-size="5.2" lengthAdjust="spacing" textLength="34.8" x="286.6" y="220.5184">vehiclesListDto</text><polygon fill="#181818" points="69.6,233.5398,65.6,235.1398,69.6,236.7398,68,235.1398" style="stroke:#181818;stroke-width:0.4000000000000001;"/><line style="stroke:#181818;stroke-width:0.4000000000000001;stroke-dasharray:2.0,2.0;" x1="67.2" x2="265.8" y1="235.1398" y2="235.1398"/><text fill="#000000" font-family="sans-serif" font-size="5.2" font-weight="bold" lengthAdjust="spacing" textLength="10" x="72" y="233.0348">7.13</text><text fill="#000000" font-family="sans-serif" font-size="5.2" lengthAdjust="spacing" textLength="34.8" x="83.6" y="233.0348">vehiclesListDto</text><polygon fill="#181818" points="4.4,248.8563,0.4,250.4563,4.4,252.0563,2.8,250.4563" style="stroke:#181818;stroke-width:0.4000000000000001;"/><line style="stroke:#181818;stroke-width:0.4000000000000001;stroke-dasharray:2.0,2.0;" x1="2" x2="62.8" y1="250.4563" y2="250.4563"/><text fill="#000000" font-family="sans-serif" font-size="5.2" font-weight="bold" lengthAdjust="spacing" textLength="2.8" x="6.8" y="248.3512">8</text><text fill="#000000" font-family="sans-serif" font-size="5.2" lengthAdjust="spacing" textLength="40.4" x="11.2" y="248.3512">vehiclesListDTO()</text><!--SRC=[ZLJBJkGm4BpxArfSU4Y3jATTHGW9yT9Ae1rDHfoucAH9B39sP7jO-7iSnqdyI0PocechkggwErPlZBTKqXti11T5BSKEGSiz4ZMUjBHuenNc-hD1a5Xeogl61wYQbk8_unMyqaOX8NIl1T_lNb0ISbop4k5L2FqYFWWn3CqArbAkuIYxKefL_0bhLZIehWNNKZGDoYEW2gwtcuS8ly5MAAQ5PAWiPdEx3Y7IGpppMK8UCjvxzH7vcJqFZgPtbfiW8tUEzKZRraLmZCUhzVfsCojxeuMn-JJ-yMatst-pd0UcTC_hVbrCv4kVRL6cWZSD-4q8h2vjPo632lNGUWS-EGtGvxy8BJHxfnhxQO1vAYdsBToZ1aS6emnT0K8iO7YiYb4pBU_5_d9bTgT0e-BZHebkcC59nrmvlnduemrW9IwNy4paGUHfYWViv8cVt3EKxiEogtpULhfyyLIMtANY0Iuv7dt3QDpMN_ByJVqeGB_X6MXXjiZQzZKEHt1VHu3n8lJ7dfRRrRCpawIGQ2gP7YNiHeWMxeG44waUgC1u6Fx7eaPmxDks2pa4F4rAnFdiHxYWOyxiOA8sJfT3Gan7TAZ-KlCoe6LvCibydsAyJc8Wyd9Htf4EH5JkClj1pba7KSxv7O_hfxM77IH38jk2wIhyOrzSh5Pz-RY-lJczglQo95y0]--></g></svg>