<?xml version="1.0" encoding="us-ascii" standalone="no"?><svg xmlns="http://www.w3.org/2000/svg" xmlns:xlink="http://www.w3.org/1999/xlink" contentStyleType="text/css" height="280px" preserveAspectRatio="none" style="width:370px;height:280px;background:#FFFFFF;" version="1.1" viewBox="0 0 370 280" width="370.4px" zoomAndPan="magnify"><defs/><g><rect fill="#FFFFFF" height="214.243" style="stroke:#181818;stroke-width:0.4000000000000001;" width="4" x="57.6" y="36.2133"/><rect fill="#FFFFFF" height="12.5164" style="stroke:#181818;stroke-width:0.4000000000000001;" width="4" x="116" y="59.2461"/><rect fill="#FFFFFF" height="12.5164" style="stroke:#181818;stroke-width:0.4000000000000001;" width="4" x="158.8" y="84.2789"/><rect fill="#FFFFFF" height="12.5164" style="stroke:#181818;stroke-width:0.4000000000000001;" width="4" x="195.4" y="109.3117"/><rect fill="#FFFFFF" height="100.7953" style="stroke:#181818;stroke-width:0.4000000000000001;" width="4" x="232.4" y="134.3445"/><rect fill="#FFFFFF" height="12.5164" style="stroke:#181818;stroke-width:0.4000000000000001;" width="4" x="295.2" y="182.2742"/><rect fill="#FFFFFF" height="15.3164" style="stroke:#181818;stroke-width:0.4000000000000001;" width="4" x="336" y="207.307"/><rect fill="none" height="196.1266" style="stroke:#000000;stroke-width:0.6000000000000001;" width="347.6" x="20.6" y="42.2133"/><rect fill="none" height="45.2656" style="stroke:#000000;stroke-width:0.6000000000000001;" width="153.6" x="210.6" y="165.2414"/><line style="stroke:#181818;stroke-width:0.20000000000000004;stroke-dasharray:5.0,5.0;" x1="59.4" x2="59.4" y1="22.8969" y2="257.6563"/><line style="stroke:#181818;stroke-width:0.20000000000000004;stroke-dasharray:5.0,5.0;" x1="117.8" x2="117.8" y1="22.8969" y2="257.6563"/><line style="stroke:#181818;stroke-width:0.20000000000000004;stroke-dasharray:5.0,5.0;" x1="160.6" x2="160.6" y1="22.8969" y2="257.6563"/><line style="stroke:#181818;stroke-width:0.20000000000000004;stroke-dasharray:5.0,5.0;" x1="197.4" x2="197.4" y1="22.8969" y2="257.6563"/><line style="stroke:#181818;stroke-width:0.20000000000000004;stroke-dasharray:5.0,5.0;" x1="234.2" x2="234.2" y1="22.8969" y2="257.6563"/><line style="stroke:#181818;stroke-width:0.20000000000000004;stroke-dasharray:5.0,5.0;" x1="297" x2="297" y1="22.8969" y2="257.6563"/><line style="stroke:#181818;stroke-width:0.20000000000000004;stroke-dasharray:5.0,5.0;" x1="337.8" x2="337.8" y1="153.993" y2="257.6563"/><rect fill="#E3E3E3" height="13.0484" rx="1" ry="1" style="stroke:#181818;stroke-width:0.20000000000000004;" width="70" x="24.6" y="9.4484"/><text fill="#000000" font-family="sans-serif" font-size="5.6" lengthAdjust="spacing" textLength="64.4" x="27.4" y="18.2914">:AssignVehiclesController</text><rect fill="#E3E3E3" height="13.0484" rx="1" ry="1" style="stroke:#181818;stroke-width:0.20000000000000004;" width="70" x="24.6" y="257.2563"/><text fill="#000000" font-family="sans-serif" font-size="5.6" lengthAdjust="spacing" textLength="64.4" x="27.4" y="266.0992">:AssignVehiclesController</text><rect fill="#E3E3E3" height="13.0484" rx="1" ry="1" style="stroke:#181818;stroke-width:0.20000000000000004;" width="38.8" x="98.6" y="9.4484"/><text fill="#000000" font-family="sans-serif" font-size="5.6" lengthAdjust="spacing" textLength="33.2" x="101.4" y="18.2914">:Repositories</text><rect fill="#E3E3E3" height="13.0484" rx="1" ry="1" style="stroke:#181818;stroke-width:0.20000000000000004;" width="38.8" x="98.6" y="257.2563"/><text fill="#000000" font-family="sans-serif" font-size="5.6" lengthAdjust="spacing" textLength="33.2" x="101.4" y="266.0992">:Repositories</text><rect fill="#E3E3E3" height="20.4969" rx="1" ry="1" style="stroke:#181818;stroke-width:0.20000000000000004;" width="38.8" x="141.4" y="2"/><text fill="#000000" font-family="sans-serif" font-size="5.6" lengthAdjust="spacing" textLength="29.6" x="146" y="10.843">repositories</text><text fill="#000000" font-family="sans-serif" font-size="5.6" lengthAdjust="spacing" textLength="33.2" x="144.2" y="18.2914">:Repositories</text><rect fill="#E3E3E3" height="20.4969" rx="1" ry="1" style="stroke:#181818;stroke-width:0.20000000000000004;" width="38.8" x="141.4" y="257.2563"/><text fill="#000000" font-family="sans-serif" font-size="5.6" lengthAdjust="spacing" textLength="29.6" x="146" y="266.0992">repositories</text><text fill="#000000" font-family="sans-serif" font-size="5.6" lengthAdjust="spacing" textLength="33.2" x="144.2" y="273.5477">:Repositories</text><rect fill="#E3E3E3" height="20.4969" rx="1" ry="1" style="stroke:#181818;stroke-width:0.20000000000000004;" width="26.4" x="184.2" y="2"/><text fill="#000000" font-family="sans-serif" font-size="5.6" lengthAdjust="spacing" textLength="20.8" x="187" y="10.843">agenda:</text><text fill="#000000" font-family="sans-serif" font-size="5.6" lengthAdjust="spacing" textLength="19.6" x="187.6" y="18.2914">Agenda</text><rect fill="#E3E3E3" height="20.4969" rx="1" ry="1" style="stroke:#181818;stroke-width:0.20000000000000004;" width="26.4" x="184.2" y="257.2563"/><text fill="#000000" font-family="sans-serif" font-size="5.6" lengthAdjust="spacing" textLength="20.8" x="187" y="266.0992">agenda:</text><text fill="#000000" font-family="sans-serif" font-size="5.6" lengthAdjust="spacing" textLength="19.6" x="187.6" y="273.5477">Agenda</text><rect fill="#E3E3E3" height="13.0484" rx="1" ry="1" style="stroke:#181818;stroke-width:0.20000000000000004;" width="39.6" x="214.6" y="9.4484"/><text fill="#000000" font-family="sans-serif" font-size="5.6" lengthAdjust="spacing" textLength="34" x="217.4" y="18.2914">:EntryMapper</text><rect fill="#E3E3E3" height="13.0484" rx="1" ry="1" style="stroke:#181818;stroke-width:0.20000000000000004;" width="39.6" x="214.6" y="257.2563"/><text fill="#000000" font-family="sans-serif" font-size="5.6" lengthAdjust="spacing" textLength="34" x="217.4" y="266.0992">:EntryMapper</text><rect fill="#E3E3E3" height="20.4969" rx="1" ry="1" style="stroke:#181818;stroke-width:0.20000000000000004;" width="29.2" x="282.6" y="2"/><text fill="#000000" font-family="sans-serif" font-size="5.6" lengthAdjust="spacing" textLength="21.6" x="286.4" y="10.843">entryDto</text><text fill="#000000" font-family="sans-serif" font-size="5.6" lengthAdjust="spacing" textLength="23.6" x="285.4" y="18.2914">:EntryDto</text><rect fill="#E3E3E3" height="20.4969" rx="1" ry="1" style="stroke:#181818;stroke-width:0.20000000000000004;" width="29.2" x="282.6" y="257.2563"/><text fill="#000000" font-family="sans-serif" font-size="5.6" lengthAdjust="spacing" textLength="21.6" x="286.4" y="266.0992">entryDto</text><text fill="#000000" font-family="sans-serif" font-size="5.6" lengthAdjust="spacing" textLength="23.6" x="285.4" y="273.5477">:EntryDto</text><rect fill="#E3E3E3" height="20.4969" rx="1" ry="1" style="stroke:#181818;stroke-width:0.20000000000000004;" width="44.4" x="315.8" y="257.2563"/><text fill="#000000" font-family="sans-serif" font-size="5.6" lengthAdjust="spacing" textLength="34.8" x="320.6" y="266.0992">entriesListDto</text><text fill="#000000" font-family="sans-serif" font-size="5.6" lengthAdjust="spacing" textLength="38.8" x="318.6" y="273.5477">:List&lt;EntryDto&gt;</text><rect fill="#FFFFFF" height="214.243" style="stroke:#181818;stroke-width:0.4000000000000001;" width="4" x="57.6" y="36.2133"/><rect fill="#FFFFFF" height="12.5164" style="stroke:#181818;stroke-width:0.4000000000000001;" width="4" x="116" y="59.2461"/><rect fill="#FFFFFF" height="12.5164" style="stroke:#181818;stroke-width:0.4000000000000001;" width="4" x="158.8" y="84.2789"/><rect fill="#FFFFFF" height="12.5164" style="stroke:#181818;stroke-width:0.4000000000000001;" width="4" x="195.4" y="109.3117"/><rect fill="#FFFFFF" height="100.7953" style="stroke:#181818;stroke-width:0.4000000000000001;" width="4" x="232.4" y="134.3445"/><rect fill="#FFFFFF" height="12.5164" style="stroke:#181818;stroke-width:0.4000000000000001;" width="4" x="295.2" y="182.2742"/><rect fill="#FFFFFF" height="15.3164" style="stroke:#181818;stroke-width:0.4000000000000001;" width="4" x="336" y="207.307"/><polygon fill="#181818" points="52.8,34.6133,56.8,36.2133,52.8,37.8133,54.4,36.2133" style="stroke:#181818;stroke-width:0.4000000000000001;"/><line style="stroke:#181818;stroke-width:0.4000000000000001;" x1="0" x2="55.2" y1="36.2133" y2="36.2133"/><text fill="#000000" font-family="sans-serif" font-size="5.2" font-weight="bold" lengthAdjust="spacing" textLength="2.8" x="2.8" y="34.1082">3</text><text fill="#000000" font-family="sans-serif" font-size="5.2" lengthAdjust="spacing" textLength="45.6" x="7.2" y="34.1082">getEntriesListDTO()</text><path d="M20.6,42.2133 L82.2,42.2133 L82.2,45.9297 L78.2,49.9297 L20.6,49.9297 L20.6,42.2133 " fill="#EEEEEE" style="stroke:#000000;stroke-width:0.6000000000000001;"/><rect fill="none" height="196.1266" style="stroke:#000000;stroke-width:0.6000000000000001;" width="347.6" x="20.6" y="42.2133"/><text fill="#000000" font-family="sans-serif" font-size="5.2" font-weight="bold" lengthAdjust="spacing" textLength="43.6" x="26.6" y="48.2246">Get Entry Dto List</text><polygon fill="#181818" points="111.2,57.6461,115.2,59.2461,111.2,60.8461,112.8,59.2461" style="stroke:#181818;stroke-width:0.4000000000000001;"/><line style="stroke:#181818;stroke-width:0.4000000000000001;" x1="61.6" x2="113.6" y1="59.2461" y2="59.2461"/><text fill="#000000" font-family="sans-serif" font-size="5.2" font-weight="bold" lengthAdjust="spacing" textLength="7.2" x="64.4" y="57.141">3.1</text><text fill="#000000" font-family="sans-serif" font-size="5.2" lengthAdjust="spacing" textLength="30" x="73.2" y="57.141">getInstance()</text><polygon fill="#181818" points="66,70.1625,62,71.7625,66,73.3625,64.4,71.7625" style="stroke:#181818;stroke-width:0.4000000000000001;"/><line style="stroke:#181818;stroke-width:0.4000000000000001;stroke-dasharray:2.0,2.0;" x1="63.6" x2="117.6" y1="71.7625" y2="71.7625"/><text fill="#000000" font-family="sans-serif" font-size="5.2" font-weight="bold" lengthAdjust="spacing" textLength="7.2" x="68.4" y="69.6574">3.2</text><text fill="#000000" font-family="sans-serif" font-size="5.2" lengthAdjust="spacing" textLength="26.8" x="77.2" y="69.6574">repositories</text><polygon fill="#181818" points="154,82.6789,158,84.2789,154,85.8789,155.6,84.2789" style="stroke:#181818;stroke-width:0.4000000000000001;"/><line style="stroke:#181818;stroke-width:0.4000000000000001;" x1="61.6" x2="156.4" y1="84.2789" y2="84.2789"/><text fill="#000000" font-family="sans-serif" font-size="5.2" font-weight="bold" lengthAdjust="spacing" textLength="7.2" x="64.4" y="82.1738">3.3</text><text fill="#000000" font-family="sans-serif" font-size="5.2" lengthAdjust="spacing" textLength="28" x="73.2" y="82.1738">getAgenda()</text><polygon fill="#181818" points="66,95.1953,62,96.7953,66,98.3953,64.4,96.7953" style="stroke:#181818;stroke-width:0.4000000000000001;"/><line style="stroke:#181818;stroke-width:0.4000000000000001;stroke-dasharray:2.0,2.0;" x1="63.6" x2="160.4" y1="96.7953" y2="96.7953"/><text fill="#000000" font-family="sans-serif" font-size="5.2" font-weight="bold" lengthAdjust="spacing" textLength="7.2" x="68.4" y="94.6902">3.4</text><text fill="#000000" font-family="sans-serif" font-size="5.2" lengthAdjust="spacing" textLength="16.8" x="77.2" y="94.6902">agenda</text><polygon fill="#181818" points="190.6,107.7117,194.6,109.3117,190.6,110.9117,192.2,109.3117" style="stroke:#181818;stroke-width:0.4000000000000001;"/><line style="stroke:#181818;stroke-width:0.4000000000000001;" x1="61.6" x2="193" y1="109.3117" y2="109.3117"/><text fill="#000000" font-family="sans-serif" font-size="5.2" font-weight="bold" lengthAdjust="spacing" textLength="7.2" x="64.4" y="107.2066">3.5</text><text fill="#000000" font-family="sans-serif" font-size="5.2" lengthAdjust="spacing" textLength="35.2" x="73.2" y="107.2066">getEntriesList()</text><polygon fill="#181818" points="66,120.2281,62,121.8281,66,123.4281,64.4,121.8281" style="stroke:#181818;stroke-width:0.4000000000000001;"/><line style="stroke:#181818;stroke-width:0.4000000000000001;stroke-dasharray:2.0,2.0;" x1="63.6" x2="197" y1="121.8281" y2="121.8281"/><text fill="#000000" font-family="sans-serif" font-size="5.2" font-weight="bold" lengthAdjust="spacing" textLength="7.2" x="68.4" y="119.723">3.6</text><text fill="#000000" font-family="sans-serif" font-size="5.2" lengthAdjust="spacing" textLength="24" x="77.2" y="119.723">entriesList</text><polygon fill="#181818" points="227.6,132.7445,231.6,134.3445,227.6,135.9445,229.2,134.3445" style="stroke:#181818;stroke-width:0.4000000000000001;"/><line style="stroke:#181818;stroke-width:0.4000000000000001;" x1="61.6" x2="230" y1="134.3445" y2="134.3445"/><text fill="#000000" font-family="sans-serif" font-size="5.2" font-weight="bold" lengthAdjust="spacing" textLength="7.2" x="64.4" y="132.2395">3.7</text><text fill="#000000" font-family="sans-serif" font-size="5.2" lengthAdjust="spacing" textLength="50.4" x="73.2" y="132.2395">toDTOList(entriesList)</text><polygon fill="#181818" points="311,145.2609,315,146.8609,311,148.4609,312.6,146.8609" style="stroke:#181818;stroke-width:0.4000000000000001;"/><line style="stroke:#181818;stroke-width:0.4000000000000001;" x1="236.4" x2="313.4" y1="146.8609" y2="146.8609"/><text fill="#000000" font-family="sans-serif" font-size="5.2" font-weight="bold" lengthAdjust="spacing" textLength="7.2" x="239.2" y="144.7559">3.8</text><text fill="#000000" font-family="sans-serif" font-size="5.2" lengthAdjust="spacing" textLength="17.6" x="248" y="144.7559">create()</text><rect fill="#E3E3E3" height="20.4969" rx="1" ry="1" style="stroke:#181818;stroke-width:0.20000000000000004;" width="44.4" x="315.8" y="137.5445"/><text fill="#000000" font-family="sans-serif" font-size="5.6" lengthAdjust="spacing" textLength="34.8" x="320.6" y="146.3875">entriesListDto</text><text fill="#000000" font-family="sans-serif" font-size="5.6" lengthAdjust="spacing" textLength="38.8" x="318.6" y="153.8359">:List&lt;EntryDto&gt;</text><path d="M210.6,165.2414 L239.8,165.2414 L239.8,168.9578 L235.8,172.9578 L210.6,172.9578 L210.6,165.2414 " fill="#EEEEEE" style="stroke:#000000;stroke-width:0.6000000000000001;"/><rect fill="none" height="45.2656" style="stroke:#000000;stroke-width:0.6000000000000001;" width="153.6" x="210.6" y="165.2414"/><text fill="#000000" font-family="sans-serif" font-size="5.2" font-weight="bold" lengthAdjust="spacing" textLength="11.2" x="216.6" y="171.2527">loop</text><text fill="#000000" font-family="sans-serif" font-size="4.4" font-weight="bold" lengthAdjust="spacing" textLength="65.6" x="245.8" y="170.7895">[For each entry in entriesList]</text><polygon fill="#181818" points="290.4,180.6742,294.4,182.2742,290.4,183.8742,292,182.2742" style="stroke:#181818;stroke-width:0.4000000000000001;"/><line style="stroke:#181818;stroke-width:0.4000000000000001;" x1="236.4" x2="292.8" y1="182.2742" y2="182.2742"/><text fill="#000000" font-family="sans-serif" font-size="5.2" font-weight="bold" lengthAdjust="spacing" textLength="7.2" x="239.2" y="180.1691">3.9</text><text fill="#000000" font-family="sans-serif" font-size="5.2" lengthAdjust="spacing" textLength="42.4" x="248" y="180.1691">entryToDTO(entry)</text><polygon fill="#181818" points="240.8,193.1906,236.8,194.7906,240.8,196.3906,239.2,194.7906" style="stroke:#181818;stroke-width:0.4000000000000001;"/><line style="stroke:#181818;stroke-width:0.4000000000000001;stroke-dasharray:2.0,2.0;" x1="238.4" x2="296.8" y1="194.7906" y2="194.7906"/><text fill="#000000" font-family="sans-serif" font-size="5.2" font-weight="bold" lengthAdjust="spacing" textLength="10" x="243.2" y="192.6855">3.10</text><text fill="#000000" font-family="sans-serif" font-size="5.2" lengthAdjust="spacing" textLength="19.6" x="254.8" y="192.6855">entryDto</text><polygon fill="#181818" points="331.2,205.707,335.2,207.307,331.2,208.907,332.8,207.307" style="stroke:#181818;stroke-width:0.4000000000000001;"/><line style="stroke:#181818;stroke-width:0.4000000000000001;" x1="236.4" x2="333.6" y1="207.307" y2="207.307"/><text fill="#000000" font-family="sans-serif" font-size="5.2" font-weight="bold" lengthAdjust="spacing" textLength="10" x="239.2" y="205.202">3.11</text><text fill="#000000" font-family="sans-serif" font-size="5.2" lengthAdjust="spacing" textLength="31.2" x="250.8" y="205.202">add(entryDto)</text><polygon fill="#181818" points="240.8,221.0234,236.8,222.6234,240.8,224.2234,239.2,222.6234" style="stroke:#181818;stroke-width:0.4000000000000001;"/><line style="stroke:#181818;stroke-width:0.4000000000000001;stroke-dasharray:2.0,2.0;" x1="238.4" x2="337.6" y1="222.6234" y2="222.6234"/><text fill="#000000" font-family="sans-serif" font-size="5.2" font-weight="bold" lengthAdjust="spacing" textLength="10" x="243.2" y="220.5184">3.12</text><text fill="#000000" font-family="sans-serif" font-size="5.2" lengthAdjust="spacing" textLength="32" x="254.8" y="220.5184">entriesListDto</text><polygon fill="#181818" points="66,233.5398,62,235.1398,66,236.7398,64.4,235.1398" style="stroke:#181818;stroke-width:0.4000000000000001;"/><line style="stroke:#181818;stroke-width:0.4000000000000001;stroke-dasharray:2.0,2.0;" x1="63.6" x2="234" y1="235.1398" y2="235.1398"/><text fill="#000000" font-family="sans-serif" font-size="5.2" font-weight="bold" lengthAdjust="spacing" textLength="10" x="68.4" y="233.0348">3.13</text><text fill="#000000" font-family="sans-serif" font-size="5.2" lengthAdjust="spacing" textLength="32" x="80" y="233.0348">entriesListDto</text><polygon fill="#181818" points="4.4,248.8563,0.4,250.4563,4.4,252.0563,2.8,250.4563" style="stroke:#181818;stroke-width:0.4000000000000001;"/><line style="stroke:#181818;stroke-width:0.4000000000000001;stroke-dasharray:2.0,2.0;" x1="2" x2="59.2" y1="250.4563" y2="250.4563"/><text fill="#000000" font-family="sans-serif" font-size="5.2" font-weight="bold" lengthAdjust="spacing" textLength="2.8" x="6.8" y="248.3512">4</text><text fill="#000000" font-family="sans-serif" font-size="5.2" lengthAdjust="spacing" textLength="34.4" x="11.2" y="248.3512">entriesListDTO</text><!--SRC=[ZLHDQzmm4BthLmovD0bieQGd4m9BufP0GfVrqbCkYZsnHRoIaRHfzzztBDbhoH_P-YHhtfltPZIIUHUouPhlOQ-aoYkjzWXM7v2PKwJX-JilCRF76a5ZRhaiwn1WAbweFqAMyCPhWupnWrNoi7z5pTYNIXG8RqhPL_MNCM9OaOk6ImiNoTeOKShVM8cyHdElfDMghb5V03Tmlzi-ZV1RR9GHLcc1nc6swIQ6w03n8cS9MSoWqcJ1anUvTWk7ydiZyPJS7PzvqtJ-qFslDvjq6oDTuC4gqa-xvK1usFsQeidTap3MSzhLRK-yEp5x3F631iCDOx2wSys214gqQOIzl8h0NxyndblnmItw_W9zfLQ71dwY1QSA90ijdRbe_pa5Kg8EUg57QMWKSYI947VAtvvD56cPgyvh0k59HR02brC49ZBlmf_Q9nwoYOaiSD6TzB9-Dc-WcvfHmvTiT2fnqEsTh50rmIal6PfBr5iAvZ41g-ZmdQKWwuAxS90ZHFi5mLvacAxhQxATQwGiLFg4MolLm0-bWGgeV2OGCghpV_JQE-ExSzorPRcIZbSJQboGkoYpsIdYsXurhB-q4qhG_JDvbxf4KrOKbxt06T_XDP-g5FFI0sc-iE5zELVUadnKuEp8ZfEF-nOEM5k8gtnuchwxZTlLogSUvIOxGJxtSlq3]--></g></svg>