<?xml version="1.0" encoding="us-ascii" standalone="no"?><svg xmlns="http://www.w3.org/2000/svg" xmlns:xlink="http://www.w3.org/1999/xlink" contentStyleType="text/css" height="166.8px" preserveAspectRatio="none" style="width:626px;height:166px;background:#FFFFFF;" version="1.1" viewBox="0 0 626 166" width="626.4px" zoomAndPan="magnify"><defs/><g><rect fill="#FFFFFF" height="100.9313" style="stroke:#181818;stroke-width:0.4000000000000001;" width="4" x="124.4" y="36.2133"/><rect fill="#FFFFFF" height="12.5164" style="stroke:#181818;stroke-width:0.4000000000000001;" width="4" x="530.8" y="59.2461"/><rect fill="#FFFFFF" height="12.5164" style="stroke:#181818;stroke-width:0.4000000000000001;" width="4" x="553.4" y="84.2789"/><rect fill="#FFFFFF" height="12.5164" style="stroke:#181818;stroke-width:0.4000000000000001;" width="4" x="592.8" y="109.3117"/><rect fill="none" height="82.8148" style="stroke:#000000;stroke-width:0.6000000000000001;" width="532.4" x="91.6" y="42.2133"/><line style="stroke:#181818;stroke-width:0.20000000000000004;stroke-dasharray:5.0,5.0;" x1="126.4" x2="126.4" y1="22.8969" y2="144.3445"/><line style="stroke:#181818;stroke-width:0.20000000000000004;stroke-dasharray:5.0,5.0;" x1="188.4" x2="188.4" y1="22.8969" y2="144.3445"/><line style="stroke:#181818;stroke-width:0.20000000000000004;stroke-dasharray:5.0,5.0;" x1="247.2" x2="247.2" y1="22.8969" y2="144.3445"/><line style="stroke:#181818;stroke-width:0.20000000000000004;stroke-dasharray:5.0,5.0;" x1="300.4" x2="300.4" y1="22.8969" y2="144.3445"/><line style="stroke:#181818;stroke-width:0.20000000000000004;stroke-dasharray:5.0,5.0;" x1="345.6" x2="345.6" y1="22.8969" y2="144.3445"/><line style="stroke:#181818;stroke-width:0.20000000000000004;stroke-dasharray:5.0,5.0;" x1="388.4" x2="388.4" y1="22.8969" y2="144.3445"/><line style="stroke:#181818;stroke-width:0.20000000000000004;stroke-dasharray:5.0,5.0;" x1="444.4" x2="444.4" y1="22.8969" y2="144.3445"/><line style="stroke:#181818;stroke-width:0.20000000000000004;stroke-dasharray:5.0,5.0;" x1="500.8" x2="500.8" y1="22.8969" y2="144.3445"/><line style="stroke:#181818;stroke-width:0.20000000000000004;stroke-dasharray:5.0,5.0;" x1="532.8" x2="532.8" y1="22.8969" y2="144.3445"/><line style="stroke:#181818;stroke-width:0.20000000000000004;stroke-dasharray:5.0,5.0;" x1="555.2" x2="555.2" y1="22.8969" y2="144.3445"/><line style="stroke:#181818;stroke-width:0.20000000000000004;stroke-dasharray:5.0,5.0;" x1="594.8" x2="594.8" y1="22.8969" y2="144.3445"/><rect fill="#E3E3E3" height="13.0484" rx="1" ry="1" style="stroke:#181818;stroke-width:0.20000000000000004;" width="61.6" x="95.6" y="9.4484"/><text fill="#000000" font-family="sans-serif" font-size="5.6" lengthAdjust="spacing" textLength="56" x="98.4" y="18.2914">:CreateTaskController</text><rect fill="#E3E3E3" height="13.0484" rx="1" ry="1" style="stroke:#181818;stroke-width:0.20000000000000004;" width="61.6" x="95.6" y="143.9445"/><text fill="#000000" font-family="sans-serif" font-size="5.6" lengthAdjust="spacing" textLength="56" x="98.4" y="152.7875">:CreateTaskController</text><rect fill="#E3E3E3" height="13.0484" rx="1" ry="1" style="stroke:#181818;stroke-width:0.20000000000000004;" width="54.8" x="161.2" y="9.4484"/><text fill="#000000" font-family="sans-serif" font-size="5.6" lengthAdjust="spacing" textLength="49.2" x="164" y="18.2914">:ApplicationSession</text><rect fill="#E3E3E3" height="13.0484" rx="1" ry="1" style="stroke:#181818;stroke-width:0.20000000000000004;" width="54.8" x="161.2" y="143.9445"/><text fill="#000000" font-family="sans-serif" font-size="5.6" lengthAdjust="spacing" textLength="49.2" x="164" y="152.7875">:ApplicationSession</text><rect fill="#E3E3E3" height="20.4969" rx="1" ry="1" style="stroke:#181818;stroke-width:0.20000000000000004;" width="54.8" x="220" y="2"/><text fill="#000000" font-family="sans-serif" font-size="5.6" lengthAdjust="spacing" textLength="29.6" x="232.6" y="10.843">appSession</text><text fill="#000000" font-family="sans-serif" font-size="5.6" lengthAdjust="spacing" textLength="49.2" x="222.8" y="18.2914">:ApplicationSession</text><rect fill="#E3E3E3" height="20.4969" rx="1" ry="1" style="stroke:#181818;stroke-width:0.20000000000000004;" width="54.8" x="220" y="143.9445"/><text fill="#000000" font-family="sans-serif" font-size="5.6" lengthAdjust="spacing" textLength="29.6" x="232.6" y="152.7875">appSession</text><text fill="#000000" font-family="sans-serif" font-size="5.6" lengthAdjust="spacing" textLength="49.2" x="222.8" y="160.2359">:ApplicationSession</text><rect fill="#E3E3E3" height="20.4969" rx="1" ry="1" style="stroke:#181818;stroke-width:0.20000000000000004;" width="43.6" x="278.8" y="2"/><text fill="#000000" font-family="sans-serif" font-size="5.6" lengthAdjust="spacing" textLength="38" x="281.6" y="10.843">currentSession</text><text fill="#000000" font-family="sans-serif" font-size="5.6" lengthAdjust="spacing" textLength="33.2" x="284" y="18.2914">:UserSession</text><rect fill="#E3E3E3" height="20.4969" rx="1" ry="1" style="stroke:#181818;stroke-width:0.20000000000000004;" width="43.6" x="278.8" y="143.9445"/><text fill="#000000" font-family="sans-serif" font-size="5.6" lengthAdjust="spacing" textLength="38" x="281.6" y="152.7875">currentSession</text><text fill="#000000" font-family="sans-serif" font-size="5.6" lengthAdjust="spacing" textLength="33.2" x="284" y="160.2359">:UserSession</text><rect fill="#E3E3E3" height="13.0484" rx="1" ry="1" style="stroke:#181818;stroke-width:0.20000000000000004;" width="38.8" x="326.4" y="9.4484"/><text fill="#000000" font-family="sans-serif" font-size="5.6" lengthAdjust="spacing" textLength="33.2" x="329.2" y="18.2914">:Repositories</text><rect fill="#E3E3E3" height="13.0484" rx="1" ry="1" style="stroke:#181818;stroke-width:0.20000000000000004;" width="38.8" x="326.4" y="143.9445"/><text fill="#000000" font-family="sans-serif" font-size="5.6" lengthAdjust="spacing" textLength="33.2" x="329.2" y="152.7875">:Repositories</text><rect fill="#E3E3E3" height="20.4969" rx="1" ry="1" style="stroke:#181818;stroke-width:0.20000000000000004;" width="38.8" x="369.2" y="2"/><text fill="#000000" font-family="sans-serif" font-size="5.6" lengthAdjust="spacing" textLength="29.6" x="373.8" y="10.843">repositories</text><text fill="#000000" font-family="sans-serif" font-size="5.6" lengthAdjust="spacing" textLength="33.2" x="372" y="18.2914">:Repositories</text><rect fill="#E3E3E3" height="20.4969" rx="1" ry="1" style="stroke:#181818;stroke-width:0.20000000000000004;" width="38.8" x="369.2" y="143.9445"/><text fill="#000000" font-family="sans-serif" font-size="5.6" lengthAdjust="spacing" textLength="29.6" x="373.8" y="152.7875">repositories</text><text fill="#000000" font-family="sans-serif" font-size="5.6" lengthAdjust="spacing" textLength="33.2" x="372" y="160.2359">:Repositories</text><rect fill="#E3E3E3" height="20.4969" rx="1" ry="1" style="stroke:#181818;stroke-width:0.20000000000000004;" width="65.2" x="412" y="2"/><text fill="#000000" font-family="sans-serif" font-size="5.6" lengthAdjust="spacing" textLength="59.6" x="414.8" y="10.843">organizationRepository:</text><text fill="#000000" font-family="sans-serif" font-size="5.6" lengthAdjust="spacing" textLength="59.2" x="415" y="18.2914">OrganizationRepository</text><rect fill="#E3E3E3" height="20.4969" rx="1" ry="1" style="stroke:#181818;stroke-width:0.20000000000000004;" width="65.2" x="412" y="143.9445"/><text fill="#000000" font-family="sans-serif" font-size="5.6" lengthAdjust="spacing" textLength="59.6" x="414.8" y="152.7875">organizationRepository:</text><text fill="#000000" font-family="sans-serif" font-size="5.6" lengthAdjust="spacing" textLength="59.2" x="415" y="160.2359">OrganizationRepository</text><rect fill="#E3E3E3" height="20.4969" rx="1" ry="1" style="stroke:#181818;stroke-width:0.20000000000000004;" width="39.2" x="481.2" y="2"/><text fill="#000000" font-family="sans-serif" font-size="5.6" lengthAdjust="spacing" textLength="30.8" x="485.4" y="10.843">organization</text><text fill="#000000" font-family="sans-serif" font-size="5.6" lengthAdjust="spacing" textLength="33.6" x="484" y="18.2914">:Organization</text><rect fill="#E3E3E3" height="20.4969" rx="1" ry="1" style="stroke:#181818;stroke-width:0.20000000000000004;" width="39.2" x="481.2" y="143.9445"/><text fill="#000000" font-family="sans-serif" font-size="5.6" lengthAdjust="spacing" textLength="30.8" x="485.4" y="152.7875">organization</text><text fill="#000000" font-family="sans-serif" font-size="5.6" lengthAdjust="spacing" textLength="33.6" x="484" y="160.2359">:Organization</text><rect fill="#E3E3E3" height="13.0484" rx="1" ry="1" style="stroke:#181818;stroke-width:0.20000000000000004;" width="16.8" x="524.4" y="9.4484"/><text fill="#000000" font-family="sans-serif" font-size="5.6" lengthAdjust="spacing" textLength="11.2" x="527.2" y="18.2914">REP</text><rect fill="#E3E3E3" height="13.0484" rx="1" ry="1" style="stroke:#181818;stroke-width:0.20000000000000004;" width="16.8" x="524.4" y="143.9445"/><text fill="#000000" font-family="sans-serif" font-size="5.6" lengthAdjust="spacing" textLength="11.2" x="527.2" y="152.7875">REP</text><rect fill="#E3E3E3" height="13.0484" rx="1" ry="1" style="stroke:#181818;stroke-width:0.20000000000000004;" width="20.4" x="545.2" y="9.4484"/><text fill="#000000" font-family="sans-serif" font-size="5.6" lengthAdjust="spacing" textLength="14.8" x="548" y="18.2914">REPS</text><rect fill="#E3E3E3" height="13.0484" rx="1" ry="1" style="stroke:#181818;stroke-width:0.20000000000000004;" width="20.4" x="545.2" y="143.9445"/><text fill="#000000" font-family="sans-serif" font-size="5.6" lengthAdjust="spacing" textLength="14.8" x="548" y="152.7875">REPS</text><rect fill="#E3E3E3" height="13.0484" rx="1" ry="1" style="stroke:#181818;stroke-width:0.20000000000000004;" width="50.4" x="569.6" y="9.4484"/><text fill="#000000" font-family="sans-serif" font-size="5.6" lengthAdjust="spacing" textLength="44.8" x="572.4" y="18.2914">vehicleRepository</text><rect fill="#E3E3E3" height="13.0484" rx="1" ry="1" style="stroke:#181818;stroke-width:0.20000000000000004;" width="50.4" x="569.6" y="143.9445"/><text fill="#000000" font-family="sans-serif" font-size="5.6" lengthAdjust="spacing" textLength="44.8" x="572.4" y="152.7875">vehicleRepository</text><rect fill="#FFFFFF" height="100.9313" style="stroke:#181818;stroke-width:0.4000000000000001;" width="4" x="124.4" y="36.2133"/><rect fill="#FFFFFF" height="12.5164" style="stroke:#181818;stroke-width:0.4000000000000001;" width="4" x="530.8" y="59.2461"/><rect fill="#FFFFFF" height="12.5164" style="stroke:#181818;stroke-width:0.4000000000000001;" width="4" x="553.4" y="84.2789"/><rect fill="#FFFFFF" height="12.5164" style="stroke:#181818;stroke-width:0.4000000000000001;" width="4" x="592.8" y="109.3117"/><polygon fill="#181818" points="119.6,34.6133,123.6,36.2133,119.6,37.8133,121.2,36.2133" style="stroke:#181818;stroke-width:0.4000000000000001;"/><line style="stroke:#181818;stroke-width:0.4000000000000001;" x1="0" x2="122" y1="36.2133" y2="36.2133"/><text fill="#000000" font-family="sans-serif" font-size="5.2" font-weight="bold" lengthAdjust="spacing" textLength="5.6" x="2.8" y="34.1082">15</text><text fill="#000000" font-family="sans-serif" font-size="5.2" lengthAdjust="spacing" textLength="109.6" x="10" y="34.1082">getVehicleByPlateNumber(vehiclePlateNumber)</text><path d="M91.6,42.2133 L157.2,42.2133 L157.2,45.9297 L153.2,49.9297 L91.6,49.9297 L91.6,42.2133 " fill="#EEEEEE" style="stroke:#000000;stroke-width:0.6000000000000001;"/><rect fill="none" height="82.8148" style="stroke:#000000;stroke-width:0.6000000000000001;" width="532.4" x="91.6" y="42.2133"/><text fill="#000000" font-family="sans-serif" font-size="5.2" font-weight="bold" lengthAdjust="spacing" textLength="47.6" x="97.6" y="48.2246">Get Vehicle Object</text><polygon fill="#181818" points="526,57.6461,530,59.2461,526,60.8461,527.6,59.2461" style="stroke:#181818;stroke-width:0.4000000000000001;"/><line style="stroke:#181818;stroke-width:0.4000000000000001;" x1="128.4" x2="528.4" y1="59.2461" y2="59.2461"/><text fill="#000000" font-family="sans-serif" font-size="5.2" font-weight="bold" lengthAdjust="spacing" textLength="10" x="131.2" y="57.141">15.1</text><text fill="#000000" font-family="sans-serif" font-size="5.2" lengthAdjust="spacing" textLength="30" x="142.8" y="57.141">getInstance()</text><polygon fill="#181818" points="132.8,70.1625,128.8,71.7625,132.8,73.3625,131.2,71.7625" style="stroke:#181818;stroke-width:0.4000000000000001;"/><line style="stroke:#181818;stroke-width:0.4000000000000001;stroke-dasharray:2.0,2.0;" x1="130.4" x2="532.4" y1="71.7625" y2="71.7625"/><text fill="#000000" font-family="sans-serif" font-size="5.2" font-weight="bold" lengthAdjust="spacing" textLength="10" x="135.2" y="69.6574">15.2</text><text fill="#000000" font-family="sans-serif" font-size="5.2" lengthAdjust="spacing" textLength="26.8" x="146.8" y="69.6574">repositories</text><polygon fill="#181818" points="548.6,82.6789,552.6,84.2789,548.6,85.8789,550.2,84.2789" style="stroke:#181818;stroke-width:0.4000000000000001;"/><line style="stroke:#181818;stroke-width:0.4000000000000001;" x1="128.4" x2="551" y1="84.2789" y2="84.2789"/><text fill="#000000" font-family="sans-serif" font-size="5.2" font-weight="bold" lengthAdjust="spacing" textLength="10" x="131.2" y="82.1738">15.3</text><text fill="#000000" font-family="sans-serif" font-size="5.2" lengthAdjust="spacing" textLength="52.4" x="142.8" y="82.1738">getVehicleRepository()</text><polygon fill="#181818" points="132.8,95.1953,128.8,96.7953,132.8,98.3953,131.2,96.7953" style="stroke:#181818;stroke-width:0.4000000000000001;"/><line style="stroke:#181818;stroke-width:0.4000000000000001;stroke-dasharray:2.0,2.0;" x1="130.4" x2="555" y1="96.7953" y2="96.7953"/><text fill="#000000" font-family="sans-serif" font-size="5.2" font-weight="bold" lengthAdjust="spacing" textLength="10" x="135.2" y="94.6902">15.4</text><text fill="#000000" font-family="sans-serif" font-size="5.2" lengthAdjust="spacing" textLength="40.4" x="146.8" y="94.6902">vehicleRepository</text><polygon fill="#181818" points="588,107.7117,592,109.3117,588,110.9117,589.6,109.3117" style="stroke:#181818;stroke-width:0.4000000000000001;"/><line style="stroke:#181818;stroke-width:0.4000000000000001;" x1="128.4" x2="590.4" y1="109.3117" y2="109.3117"/><text fill="#000000" font-family="sans-serif" font-size="5.2" font-weight="bold" lengthAdjust="spacing" textLength="10" x="131.2" y="107.2066">15.5</text><text fill="#000000" font-family="sans-serif" font-size="5.2" lengthAdjust="spacing" textLength="109.6" x="142.8" y="107.2066">getVehicleByPlateNumber(vehiclePlateNumber)</text><polygon fill="#181818" points="132.8,120.2281,128.8,121.8281,132.8,123.4281,131.2,121.8281" style="stroke:#181818;stroke-width:0.4000000000000001;"/><line style="stroke:#181818;stroke-width:0.4000000000000001;stroke-dasharray:2.0,2.0;" x1="130.4" x2="594.4" y1="121.8281" y2="121.8281"/><text fill="#000000" font-family="sans-serif" font-size="5.2" font-weight="bold" lengthAdjust="spacing" textLength="10" x="135.2" y="119.723">15.6</text><text fill="#000000" font-family="sans-serif" font-size="5.2" lengthAdjust="spacing" textLength="15.6" x="146.8" y="119.723">vehicle</text><polygon fill="#181818" points="4.4,135.5445,0.4,137.1445,4.4,138.7445,2.8,137.1445" style="stroke:#181818;stroke-width:0.4000000000000001;"/><line style="stroke:#181818;stroke-width:0.4000000000000001;stroke-dasharray:2.0,2.0;" x1="2" x2="126" y1="137.1445" y2="137.1445"/><text fill="#000000" font-family="sans-serif" font-size="5.2" font-weight="bold" lengthAdjust="spacing" textLength="5.6" x="6.8" y="135.0395">16</text><text fill="#000000" font-family="sans-serif" font-size="5.2" lengthAdjust="spacing" textLength="15.6" x="14" y="135.0395">vehicle</text><!--SRC=[bL9BQm8n4BxdLmnUgWSB7jg3b88LaOBKnTYU2YN6SJTrJKAIjRM_lcbyPTrTeRa4vdlacypOjP2Q6RQ1ZPAAPqPj49mfaDWJeXbVinIfs-K81hbZCirZWitOKdq9cSAAvHQ9FpUPM2Aib78BzKqypGakD9CEMlsXGUPmpknwgAGpAi_Hj81P6CvdamlkGEjSSEQ4aXIjzLTWVWoIfCnaMXy8xx99LH7nmXYKxYnyjMXY1HrHEfXUP9gXLbOuPGJQm3eLTbJyVOrJiYmnaSA_KZ589eDvMQ5CogJu2IsSxVllSbeB19TwgDdN9uabUu_Pc11M-0wApG8DzEv8zp4C1lgGedl3JF0SdtP9xcVu4aZjxRuObJfbZziUOTo9hSVtGoRWJsfKeM6C3WwkC5ry-lKAuF64fts4sIW90PwbzVl7iTqfqKxsdaTAY2z0zz137-99b6XBRBQ8Cj3u5ywVV2KDhSIXKPxjfTELKBG-LSNYVuEgpLsDLU9Lu6f7JNtKDuno6UvuQ-v3vQ7RFQxVqJbo2ylq2m00]--></g></svg>