<?xml version="1.0" encoding="us-ascii" standalone="no"?><svg xmlns="http://www.w3.org/2000/svg" xmlns:xlink="http://www.w3.org/1999/xlink" contentStyleType="text/css" height="1344px" preserveAspectRatio="none" style="width:1445px;height:1344px;background:#FFFFFF;" version="1.1" viewBox="0 0 1445 1344" width="1445px" zoomAndPan="magnify"><defs/><g><rect fill="#FFFFFF" height="1112.8164" style="stroke:#181818;stroke-width:1.0;" width="10" x="48.5" y="112.2422"/><rect fill="#FFFFFF" height="185.7461" style="stroke:#181818;stroke-width:1.0;" width="10" x="479.5" y="135.5332"/><rect fill="#FFFFFF" height="142.125" style="stroke:#181818;stroke-width:1.0;" width="10" x="479.5" y="352.5703"/><rect fill="#FFFFFF" height="31.291" style="stroke:#181818;stroke-width:1.0;" width="10" x="479.5" y="525.9863"/><rect fill="#FFFFFF" height="636.4902" style="stroke:#181818;stroke-width:1.0;" width="10" x="479.5" y="588.5684"/><rect fill="#FFFFFF" height="79.543" style="stroke:#181818;stroke-width:1.0;" width="10" x="876.5" y="210.4453"/><rect fill="#FFFFFF" height="79.543" style="stroke:#181818;stroke-width:1.0;" width="10" x="876.5" y="383.8613"/><rect fill="#FFFFFF" height="573.9082" style="stroke:#181818;stroke-width:1.0;" width="10" x="876.5" y="619.8594"/><rect fill="#FFFFFF" height="90.543" style="stroke:#181818;stroke-width:1.0;" width="10" x="881.5" y="747.6836"/><rect fill="#FFFFFF" height="90.543" style="stroke:#181818;stroke-width:1.0;" width="10" x="881.5" y="954.0996"/><rect fill="#FFFFFF" height="38.291" style="stroke:#181818;stroke-width:1.0;" width="10" x="1192.5" y="876.5176"/><rect fill="#FFFFFF" height="79.543" style="stroke:#181818;stroke-width:1.0;" width="10" x="1281.5" y="1082.9336"/><rect fill="none" height="187.416" style="stroke:#000000;stroke-width:1.5;" width="477" x="784" y="697.1016"/><line style="stroke:#181818;stroke-width:0.5;stroke-dasharray:5.0,5.0;" x1="53" x2="53" y1="102.2422" y2="1243.0586"/><line style="stroke:#181818;stroke-width:0.5;stroke-dasharray:5.0,5.0;" x1="484" x2="484" y1="102.2422" y2="1243.0586"/><line style="stroke:#181818;stroke-width:0.5;stroke-dasharray:5.0,5.0;" x1="881" x2="881" y1="175.3438" y2="1243.0586"/><line style="stroke:#181818;stroke-width:0.5;stroke-dasharray:5.0,5.0;" x1="1197" x2="1197" y1="668.9805" y2="1243.0586"/><line style="stroke:#181818;stroke-width:0.5;stroke-dasharray:5.0,5.0;" x1="1286" x2="1286" y1="102.2422" y2="1243.0586"/><text fill="#000000" font-family="sans-serif" font-size="14" lengthAdjust="spacing" textLength="91" x="5" y="80.1074">Green Spaces</text><text fill="#000000" font-family="sans-serif" font-size="14" lengthAdjust="spacing" textLength="56" x="22.5" y="98.7285">Manager</text><ellipse cx="53.5" cy="13.5" fill="#E3E3E3" rx="8" ry="8" style="stroke:#181818;stroke-width:0.5;"/><path d="M53.5,21.5 L53.5,48.5 M40.5,29.5 L66.5,29.5 M53.5,48.5 L40.5,63.5 M53.5,48.5 L66.5,63.5 " fill="none" style="stroke:#181818;stroke-width:0.5;"/><text fill="#000000" font-family="sans-serif" font-size="14" lengthAdjust="spacing" textLength="91" x="5" y="1257.166">Green Spaces</text><text fill="#000000" font-family="sans-serif" font-size="14" lengthAdjust="spacing" textLength="56" x="22.5" y="1275.7871">Manager</text><ellipse cx="53.5" cy="1287.8008" fill="#E3E3E3" rx="8" ry="8" style="stroke:#181818;stroke-width:0.5;"/><path d="M53.5,1295.8008 L53.5,1322.8008 M40.5,1303.8008 L66.5,1303.8008 M53.5,1322.8008 L40.5,1337.8008 M53.5,1322.8008 L66.5,1337.8008 " fill="none" style="stroke:#181818;stroke-width:0.5;"/><rect fill="#E3E3E3" height="32.6211" rx="2.5" ry="2.5" style="stroke:#181818;stroke-width:0.5;" width="125" x="422" y="68.6211"/><text fill="#000000" font-family="sans-serif" font-size="14" lengthAdjust="spacing" textLength="111" x="429" y="90.7285">:AssignVehiclesUI</text><rect fill="#E3E3E3" height="32.6211" rx="2.5" ry="2.5" style="stroke:#181818;stroke-width:0.5;" width="125" x="422" y="1242.0586"/><text fill="#000000" font-family="sans-serif" font-size="14" lengthAdjust="spacing" textLength="111" x="429" y="1264.166">:AssignVehiclesUI</text><rect fill="#E3E3E3" height="32.6211" rx="2.5" ry="2.5" style="stroke:#181818;stroke-width:0.5;" width="175" x="794" y="1242.0586"/><text fill="#000000" font-family="sans-serif" font-size="14" lengthAdjust="spacing" textLength="161" x="801" y="1264.166">:AssignVehiclesController</text><rect fill="#E3E3E3" height="51.2422" rx="2.5" ry="2.5" style="stroke:#181818;stroke-width:0.5;" width="107" x="1144" y="1242.0586"/><text fill="#000000" font-family="sans-serif" font-size="14" lengthAdjust="spacing" textLength="93" x="1151" y="1264.166">vehiclesToAdd</text><text fill="#000000" font-family="sans-serif" font-size="14" lengthAdjust="spacing" textLength="88" x="1153.5" y="1282.7871">:List&lt;Vehicle&gt;</text><rect fill="#E3E3E3" height="51.2422" rx="2.5" ry="2.5" style="stroke:#181818;stroke-width:0.5;" width="51" x="1261" y="50"/><text fill="#000000" font-family="sans-serif" font-size="14" lengthAdjust="spacing" textLength="32" x="1270.5" y="72.1074">entry</text><text fill="#000000" font-family="sans-serif" font-size="14" lengthAdjust="spacing" textLength="37" x="1268" y="90.7285">:Entry</text><rect fill="#E3E3E3" height="51.2422" rx="2.5" ry="2.5" style="stroke:#181818;stroke-width:0.5;" width="51" x="1261" y="1242.0586"/><text fill="#000000" font-family="sans-serif" font-size="14" lengthAdjust="spacing" textLength="32" x="1270.5" y="1264.166">entry</text><text fill="#000000" font-family="sans-serif" font-size="14" lengthAdjust="spacing" textLength="37" x="1268" y="1282.7871">:Entry</text><rect fill="#FFFFFF" height="1112.8164" style="stroke:#181818;stroke-width:1.0;" width="10" x="48.5" y="112.2422"/><rect fill="#FFFFFF" height="185.7461" style="stroke:#181818;stroke-width:1.0;" width="10" x="479.5" y="135.5332"/><rect fill="#FFFFFF" height="142.125" style="stroke:#181818;stroke-width:1.0;" width="10" x="479.5" y="352.5703"/><rect fill="#FFFFFF" height="31.291" style="stroke:#181818;stroke-width:1.0;" width="10" x="479.5" y="525.9863"/><rect fill="#FFFFFF" height="636.4902" style="stroke:#181818;stroke-width:1.0;" width="10" x="479.5" y="588.5684"/><rect fill="#FFFFFF" height="79.543" style="stroke:#181818;stroke-width:1.0;" width="10" x="876.5" y="210.4453"/><rect fill="#FFFFFF" height="79.543" style="stroke:#181818;stroke-width:1.0;" width="10" x="876.5" y="383.8613"/><rect fill="#FFFFFF" height="573.9082" style="stroke:#181818;stroke-width:1.0;" width="10" x="876.5" y="619.8594"/><rect fill="#FFFFFF" height="90.543" style="stroke:#181818;stroke-width:1.0;" width="10" x="881.5" y="747.6836"/><rect fill="#FFFFFF" height="90.543" style="stroke:#181818;stroke-width:1.0;" width="10" x="881.5" y="954.0996"/><rect fill="#FFFFFF" height="38.291" style="stroke:#181818;stroke-width:1.0;" width="10" x="1192.5" y="876.5176"/><rect fill="#FFFFFF" height="79.543" style="stroke:#181818;stroke-width:1.0;" width="10" x="1281.5" y="1082.9336"/><polygon fill="#181818" points="467.5,131.5332,477.5,135.5332,467.5,139.5332,471.5,135.5332" style="stroke:#181818;stroke-width:1.0;"/><line style="stroke:#181818;stroke-width:1.0;" x1="58.5" x2="473.5" y1="135.5332" y2="135.5332"/><text fill="#000000" font-family="sans-serif" font-size="13" font-weight="bold" lengthAdjust="spacing" textLength="7" x="65.5" y="130.2705">1</text><text fill="#000000" font-family="sans-serif" font-size="13" lengthAdjust="spacing" textLength="356" x="76.5" y="130.2705">asks to assign one or more vehicles to an entry in the agenda</text><polygon fill="#181818" points="782,162.8242,792,166.8242,782,170.8242,786,166.8242" style="stroke:#181818;stroke-width:1.0;"/><line style="stroke:#181818;stroke-width:1.0;" x1="489.5" x2="788" y1="166.8242" y2="166.8242"/><text fill="#000000" font-family="sans-serif" font-size="13" font-weight="bold" lengthAdjust="spacing" textLength="7" x="496.5" y="161.5615">2</text><text fill="#000000" font-family="sans-serif" font-size="13" lengthAdjust="spacing" textLength="36" x="507.5" y="161.5615">create</text><rect fill="#E3E3E3" height="32.6211" rx="2.5" ry="2.5" style="stroke:#181818;stroke-width:0.5;" width="175" x="794" y="143.5332"/><text fill="#000000" font-family="sans-serif" font-size="14" lengthAdjust="spacing" textLength="161" x="801" y="165.6406">:AssignVehiclesController</text><polygon fill="#181818" points="864.5,206.4453,874.5,210.4453,864.5,214.4453,868.5,210.4453" style="stroke:#181818;stroke-width:1.0;"/><line style="stroke:#181818;stroke-width:1.0;" x1="489.5" x2="870.5" y1="210.4453" y2="210.4453"/><text fill="#000000" font-family="sans-serif" font-size="13" font-weight="bold" lengthAdjust="spacing" textLength="7" x="496.5" y="205.1826">3</text><text fill="#000000" font-family="sans-serif" font-size="13" lengthAdjust="spacing" textLength="114" x="507.5" y="205.1826">getEntriesListDTO()</text><rect fill="none" height="43.252" style="stroke:#000000;stroke-width:1.5;" width="181" x="791" y="218.4453"/><path d="M791,218.4453 L853,218.4453 L853,227.4453 L843,237.4453 L791,237.4453 L791,218.4453 " fill="#EEEEEE" style="stroke:#000000;stroke-width:2.0;"/><text fill="#000000" font-family="sans-serif" font-size="13" font-weight="bold" lengthAdjust="spacing" textLength="17" x="804" y="234.4736">ref</text><text fill="#000000" font-family="sans-serif" font-size="12" lengthAdjust="spacing" textLength="106" x="828.5" y="254.3945">Get Entries Dto List</text><polygon fill="#181818" points="500.5,285.9883,490.5,289.9883,500.5,293.9883,496.5,289.9883" style="stroke:#181818;stroke-width:1.0;"/><line style="stroke:#181818;stroke-width:1.0;stroke-dasharray:2.0,2.0;" x1="494.5" x2="880.5" y1="289.9883" y2="289.9883"/><text fill="#000000" font-family="sans-serif" font-size="13" font-weight="bold" lengthAdjust="spacing" textLength="7" x="506.5" y="284.7256">4</text><text fill="#000000" font-family="sans-serif" font-size="13" lengthAdjust="spacing" textLength="80" x="517.5" y="284.7256">entriesListDto</text><polygon fill="#181818" points="69.5,317.2793,59.5,321.2793,69.5,325.2793,65.5,321.2793" style="stroke:#181818;stroke-width:1.0;"/><line style="stroke:#181818;stroke-width:1.0;stroke-dasharray:2.0,2.0;" x1="63.5" x2="483.5" y1="321.2793" y2="321.2793"/><text fill="#000000" font-family="sans-serif" font-size="13" font-weight="bold" lengthAdjust="spacing" textLength="7" x="75.5" y="316.0166">5</text><text fill="#000000" font-family="sans-serif" font-size="13" lengthAdjust="spacing" textLength="245" x="86.5" y="316.0166">shows agenda and asks to select an entry</text><polygon fill="#181818" points="467.5,348.5703,477.5,352.5703,467.5,356.5703,471.5,352.5703" style="stroke:#181818;stroke-width:1.0;"/><line style="stroke:#181818;stroke-width:1.0;" x1="58.5" x2="473.5" y1="352.5703" y2="352.5703"/><text fill="#000000" font-family="sans-serif" font-size="13" font-weight="bold" lengthAdjust="spacing" textLength="7" x="65.5" y="347.3076">6</text><text fill="#000000" font-family="sans-serif" font-size="13" lengthAdjust="spacing" textLength="175" x="76.5" y="347.3076">selects an entry in the agenda</text><polygon fill="#181818" points="864.5,379.8613,874.5,383.8613,864.5,387.8613,868.5,383.8613" style="stroke:#181818;stroke-width:1.0;"/><line style="stroke:#181818;stroke-width:1.0;" x1="489.5" x2="870.5" y1="383.8613" y2="383.8613"/><text fill="#000000" font-family="sans-serif" font-size="13" font-weight="bold" lengthAdjust="spacing" textLength="7" x="496.5" y="378.5986">7</text><text fill="#000000" font-family="sans-serif" font-size="13" lengthAdjust="spacing" textLength="123" x="507.5" y="378.5986">getVehiclesListDTO()</text><rect fill="none" height="43.252" style="stroke:#000000;stroke-width:1.5;" width="181" x="791" y="391.8613"/><path d="M791,391.8613 L853,391.8613 L853,400.8613 L843,410.8613 L791,410.8613 L791,391.8613 " fill="#EEEEEE" style="stroke:#000000;stroke-width:2.0;"/><text fill="#000000" font-family="sans-serif" font-size="13" font-weight="bold" lengthAdjust="spacing" textLength="17" x="804" y="407.8896">ref</text><text fill="#000000" font-family="sans-serif" font-size="12" lengthAdjust="spacing" textLength="107" x="828" y="427.8105">Get Vehicle Dto List</text><polygon fill="#181818" points="500.5,459.4043,490.5,463.4043,500.5,467.4043,496.5,463.4043" style="stroke:#181818;stroke-width:1.0;"/><line style="stroke:#181818;stroke-width:1.0;stroke-dasharray:2.0,2.0;" x1="494.5" x2="880.5" y1="463.4043" y2="463.4043"/><text fill="#000000" font-family="sans-serif" font-size="13" font-weight="bold" lengthAdjust="spacing" textLength="7" x="506.5" y="458.1416">8</text><text fill="#000000" font-family="sans-serif" font-size="13" lengthAdjust="spacing" textLength="87" x="517.5" y="458.1416">vehiclesListDto</text><polygon fill="#181818" points="69.5,490.6953,59.5,494.6953,69.5,498.6953,65.5,494.6953" style="stroke:#181818;stroke-width:1.0;"/><line style="stroke:#181818;stroke-width:1.0;stroke-dasharray:2.0,2.0;" x1="63.5" x2="483.5" y1="494.6953" y2="494.6953"/><text fill="#000000" font-family="sans-serif" font-size="13" font-weight="bold" lengthAdjust="spacing" textLength="7" x="75.5" y="489.4326">9</text><text fill="#000000" font-family="sans-serif" font-size="13" lengthAdjust="spacing" textLength="292" x="86.5" y="489.4326">shows vehicles list and asks to select one or more</text><polygon fill="#181818" points="467.5,521.9863,477.5,525.9863,467.5,529.9863,471.5,525.9863" style="stroke:#181818;stroke-width:1.0;"/><line style="stroke:#181818;stroke-width:1.0;" x1="58.5" x2="473.5" y1="525.9863" y2="525.9863"/><text fill="#000000" font-family="sans-serif" font-size="13" font-weight="bold" lengthAdjust="spacing" textLength="14" x="65.5" y="520.7236">10</text><text fill="#000000" font-family="sans-serif" font-size="13" lengthAdjust="spacing" textLength="384" x="83.5" y="520.7236">selects one or more vehicles and assign to the entry in the agenda</text><polygon fill="#181818" points="69.5,553.2773,59.5,557.2773,69.5,561.2773,65.5,557.2773" style="stroke:#181818;stroke-width:1.0;"/><line style="stroke:#181818;stroke-width:1.0;stroke-dasharray:2.0,2.0;" x1="63.5" x2="483.5" y1="557.2773" y2="557.2773"/><text fill="#000000" font-family="sans-serif" font-size="13" font-weight="bold" lengthAdjust="spacing" textLength="14" x="75.5" y="552.0146">11</text><text fill="#000000" font-family="sans-serif" font-size="13" lengthAdjust="spacing" textLength="236" x="93.5" y="552.0146">shows all data and requests confirmation</text><polygon fill="#181818" points="467.5,584.5684,477.5,588.5684,467.5,592.5684,471.5,588.5684" style="stroke:#181818;stroke-width:1.0;"/><line style="stroke:#181818;stroke-width:1.0;" x1="58.5" x2="473.5" y1="588.5684" y2="588.5684"/><text fill="#000000" font-family="sans-serif" font-size="13" font-weight="bold" lengthAdjust="spacing" textLength="14" x="65.5" y="583.3057">12</text><text fill="#000000" font-family="sans-serif" font-size="13" lengthAdjust="spacing" textLength="78" x="83.5" y="583.3057">confirms data</text><polygon fill="#181818" points="864.5,615.8594,874.5,619.8594,864.5,623.8594,868.5,619.8594" style="stroke:#181818;stroke-width:1.0;"/><line style="stroke:#181818;stroke-width:1.0;" x1="489.5" x2="870.5" y1="619.8594" y2="619.8594"/><text fill="#000000" font-family="sans-serif" font-size="13" font-weight="bold" lengthAdjust="spacing" textLength="14" x="496.5" y="614.5967">13</text><text fill="#000000" font-family="sans-serif" font-size="13" lengthAdjust="spacing" textLength="350" x="514.5" y="614.5967">assignVehiclesToEntry(agendaIndex, vehiclesPlateNumbers)</text><polygon fill="#181818" points="1132,647.1504,1142,651.1504,1132,655.1504,1136,651.1504" style="stroke:#181818;stroke-width:1.0;"/><line style="stroke:#181818;stroke-width:1.0;" x1="886.5" x2="1138" y1="651.1504" y2="651.1504"/><text fill="#000000" font-family="sans-serif" font-size="13" font-weight="bold" lengthAdjust="spacing" textLength="14" x="893.5" y="645.8877">14</text><text fill="#000000" font-family="sans-serif" font-size="13" lengthAdjust="spacing" textLength="36" x="911.5" y="645.8877">create</text><rect fill="#E3E3E3" height="51.2422" rx="2.5" ry="2.5" style="stroke:#181818;stroke-width:0.5;" width="107" x="1144" y="627.8594"/><text fill="#000000" font-family="sans-serif" font-size="14" lengthAdjust="spacing" textLength="93" x="1151" y="649.9668">vehiclesToAdd</text><text fill="#000000" font-family="sans-serif" font-size="14" lengthAdjust="spacing" textLength="88" x="1153.5" y="668.5879">:List&lt;Vehicle&gt;</text><path d="M784,697.1016 L857,697.1016 L857,706.3926 L847,716.3926 L784,716.3926 L784,697.1016 " fill="#EEEEEE" style="stroke:#000000;stroke-width:1.5;"/><rect fill="none" height="187.416" style="stroke:#000000;stroke-width:1.5;" width="477" x="784" y="697.1016"/><text fill="#000000" font-family="sans-serif" font-size="13" font-weight="bold" lengthAdjust="spacing" textLength="28" x="799" y="712.1299">loop</text><text fill="#000000" font-family="sans-serif" font-size="11" font-weight="bold" lengthAdjust="spacing" textLength="308" x="872" y="710.9717">[For each vehiclePlateNumber in vehiclesPlateNumbers]</text><line style="stroke:#181818;stroke-width:1.0;" x1="886.5" x2="933.5" y1="734.6836" y2="734.6836"/><line style="stroke:#181818;stroke-width:1.0;" x1="933.5" x2="933.5" y1="734.6836" y2="747.6836"/><line style="stroke:#181818;stroke-width:1.0;" x1="892.5" x2="933.5" y1="747.6836" y2="747.6836"/><polygon fill="#181818" points="902.5,743.6836,892.5,747.6836,902.5,751.6836,898.5,747.6836" style="stroke:#181818;stroke-width:1.0;"/><text fill="#000000" font-family="sans-serif" font-size="13" font-weight="bold" lengthAdjust="spacing" textLength="14" x="898.5" y="729.4209">15</text><text fill="#000000" font-family="sans-serif" font-size="13" lengthAdjust="spacing" textLength="274" x="916.5" y="729.4209">getVehicleByPlateNumber(vehiclePlateNumber)</text><rect fill="none" height="43.252" style="stroke:#000000;stroke-width:1.5;" width="181" x="791" y="760.6836"/><path d="M791,760.6836 L853,760.6836 L853,769.6836 L843,779.6836 L791,779.6836 L791,760.6836 " fill="#EEEEEE" style="stroke:#000000;stroke-width:2.0;"/><text fill="#000000" font-family="sans-serif" font-size="13" font-weight="bold" lengthAdjust="spacing" textLength="17" x="804" y="776.7119">ref</text><text fill="#000000" font-family="sans-serif" font-size="12" lengthAdjust="spacing" textLength="100" x="831.5" y="796.6328">Get Vehicle Object</text><line style="stroke:#181818;stroke-width:1.0;stroke-dasharray:2.0,2.0;" x1="891.5" x2="933.5" y1="837.2266" y2="837.2266"/><line style="stroke:#181818;stroke-width:1.0;stroke-dasharray:2.0,2.0;" x1="933.5" x2="933.5" y1="837.2266" y2="850.2266"/><line style="stroke:#181818;stroke-width:1.0;stroke-dasharray:2.0,2.0;" x1="886.5" x2="933.5" y1="850.2266" y2="850.2266"/><polygon fill="#181818" points="896.5,846.2266,886.5,850.2266,896.5,854.2266,892.5,850.2266" style="stroke:#181818;stroke-width:1.0;"/><text fill="#000000" font-family="sans-serif" font-size="13" font-weight="bold" lengthAdjust="spacing" textLength="14" x="898.5" y="831.9639">16</text><text fill="#000000" font-family="sans-serif" font-size="13" lengthAdjust="spacing" textLength="39" x="916.5" y="831.9639">vehicle</text><polygon fill="#181818" points="1180.5,872.5176,1190.5,876.5176,1180.5,880.5176,1184.5,876.5176" style="stroke:#181818;stroke-width:1.0;"/><line style="stroke:#181818;stroke-width:1.0;" x1="886.5" x2="1186.5" y1="876.5176" y2="876.5176"/><text fill="#000000" font-family="sans-serif" font-size="13" font-weight="bold" lengthAdjust="spacing" textLength="14" x="893.5" y="871.2549">17</text><text fill="#000000" font-family="sans-serif" font-size="13" lengthAdjust="spacing" textLength="68" x="911.5" y="871.2549">add(vehicle)</text><polygon fill="#181818" points="897.5,910.8086,887.5,914.8086,897.5,918.8086,893.5,914.8086" style="stroke:#181818;stroke-width:1.0;"/><line style="stroke:#181818;stroke-width:1.0;stroke-dasharray:2.0,2.0;" x1="891.5" x2="1196.5" y1="914.8086" y2="914.8086"/><text fill="#000000" font-family="sans-serif" font-size="13" font-weight="bold" lengthAdjust="spacing" textLength="14" x="903.5" y="909.5459">18</text><text fill="#000000" font-family="sans-serif" font-size="13" lengthAdjust="spacing" textLength="83" x="921.5" y="909.5459">vehiclesToAdd</text><line style="stroke:#181818;stroke-width:1.0;" x1="886.5" x2="933.5" y1="941.0996" y2="941.0996"/><line style="stroke:#181818;stroke-width:1.0;" x1="933.5" x2="933.5" y1="941.0996" y2="954.0996"/><line style="stroke:#181818;stroke-width:1.0;" x1="892.5" x2="933.5" y1="954.0996" y2="954.0996"/><polygon fill="#181818" points="902.5,950.0996,892.5,954.0996,902.5,958.0996,898.5,954.0996" style="stroke:#181818;stroke-width:1.0;"/><text fill="#000000" font-family="sans-serif" font-size="13" font-weight="bold" lengthAdjust="spacing" textLength="14" x="898.5" y="935.8369">19</text><text fill="#000000" font-family="sans-serif" font-size="13" lengthAdjust="spacing" textLength="135" x="916.5" y="935.8369">getEntryByIndex(index)</text><rect fill="none" height="43.252" style="stroke:#000000;stroke-width:1.5;" width="181" x="791" y="967.0996"/><path d="M791,967.0996 L853,967.0996 L853,976.0996 L843,986.0996 L791,986.0996 L791,967.0996 " fill="#EEEEEE" style="stroke:#000000;stroke-width:2.0;"/><text fill="#000000" font-family="sans-serif" font-size="13" font-weight="bold" lengthAdjust="spacing" textLength="17" x="804" y="983.1279">ref</text><text fill="#000000" font-family="sans-serif" font-size="12" lengthAdjust="spacing" textLength="87" x="838" y="1003.0488">Get Entry Object</text><line style="stroke:#181818;stroke-width:1.0;stroke-dasharray:2.0,2.0;" x1="891.5" x2="933.5" y1="1043.6426" y2="1043.6426"/><line style="stroke:#181818;stroke-width:1.0;stroke-dasharray:2.0,2.0;" x1="933.5" x2="933.5" y1="1043.6426" y2="1056.6426"/><line style="stroke:#181818;stroke-width:1.0;stroke-dasharray:2.0,2.0;" x1="886.5" x2="933.5" y1="1056.6426" y2="1056.6426"/><polygon fill="#181818" points="896.5,1052.6426,886.5,1056.6426,896.5,1060.6426,892.5,1056.6426" style="stroke:#181818;stroke-width:1.0;"/><text fill="#000000" font-family="sans-serif" font-size="13" font-weight="bold" lengthAdjust="spacing" textLength="14" x="898.5" y="1038.3799">20</text><text fill="#000000" font-family="sans-serif" font-size="13" lengthAdjust="spacing" textLength="29" x="916.5" y="1038.3799">entry</text><polygon fill="#181818" points="1269.5,1078.9336,1279.5,1082.9336,1269.5,1086.9336,1273.5,1082.9336" style="stroke:#181818;stroke-width:1.0;"/><line style="stroke:#181818;stroke-width:1.0;" x1="886.5" x2="1275.5" y1="1082.9336" y2="1082.9336"/><text fill="#000000" font-family="sans-serif" font-size="13" font-weight="bold" lengthAdjust="spacing" textLength="14" x="893.5" y="1077.6709">21</text><text fill="#000000" font-family="sans-serif" font-size="13" lengthAdjust="spacing" textLength="179" x="911.5" y="1077.6709">assignVehicles(vehiclesToAdd)</text><rect fill="none" height="43.252" style="stroke:#000000;stroke-width:1.5;" width="181" x="1258" y="1090.9336"/><path d="M1258,1090.9336 L1320,1090.9336 L1320,1099.9336 L1310,1109.9336 L1258,1109.9336 L1258,1090.9336 " fill="#EEEEEE" style="stroke:#000000;stroke-width:2.0;"/><text fill="#000000" font-family="sans-serif" font-size="13" font-weight="bold" lengthAdjust="spacing" textLength="17" x="1271" y="1106.9619">ref</text><text fill="#000000" font-family="sans-serif" font-size="12" lengthAdjust="spacing" textLength="173" x="1262" y="1126.8828">Assign Vehicles To Entry Object</text><polygon fill="#181818" points="897.5,1158.4766,887.5,1162.4766,897.5,1166.4766,893.5,1162.4766" style="stroke:#181818;stroke-width:1.0;"/><line style="stroke:#181818;stroke-width:1.0;stroke-dasharray:2.0,2.0;" x1="891.5" x2="1285.5" y1="1162.4766" y2="1162.4766"/><text fill="#000000" font-family="sans-serif" font-size="13" font-weight="bold" lengthAdjust="spacing" textLength="14" x="903.5" y="1157.2139">22</text><text fill="#000000" font-family="sans-serif" font-size="13" lengthAdjust="spacing" textLength="29" x="921.5" y="1157.2139">entry</text><polygon fill="#181818" points="500.5,1189.7676,490.5,1193.7676,500.5,1197.7676,496.5,1193.7676" style="stroke:#181818;stroke-width:1.0;"/><line style="stroke:#181818;stroke-width:1.0;stroke-dasharray:2.0,2.0;" x1="494.5" x2="880.5" y1="1193.7676" y2="1193.7676"/><text fill="#000000" font-family="sans-serif" font-size="13" font-weight="bold" lengthAdjust="spacing" textLength="14" x="506.5" y="1188.5049">23</text><text fill="#000000" font-family="sans-serif" font-size="13" lengthAdjust="spacing" textLength="29" x="524.5" y="1188.5049">entry</text><polygon fill="#181818" points="64.5,1221.0586,54.5,1225.0586,64.5,1229.0586,60.5,1225.0586" style="stroke:#181818;stroke-width:1.0;"/><line style="stroke:#181818;stroke-width:1.0;stroke-dasharray:2.0,2.0;" x1="58.5" x2="483.5" y1="1225.0586" y2="1225.0586"/><text fill="#000000" font-family="sans-serif" font-size="13" font-weight="bold" lengthAdjust="spacing" textLength="14" x="70.5" y="1219.7959">24</text><text fill="#000000" font-family="sans-serif" font-size="13" lengthAdjust="spacing" textLength="158" x="88.5" y="1219.7959">displays operation success</text><!--SRC=[jLRRRXen47tVhnZnKeAI7rXLIBaL8ULI1HAfKbxCxW0kNdjh6nB-lcFlXRrH26dym6KzSsREcV5upOhBb6cMGAAaYfPQ9GXMhp4mvKxAeXLRuCHk1OB6o3Av45K3isInUkDo0NCc30O1MribryaCTH1yM_8OOQwKdQdtW4LMQUYDDAA42I6ZUPNtJ1A-xW4pC9hS1uHgUSHJ9YtqmajZ-4A-u9970itps9izZ_zfTQsarKg87FHw-dHNjz_aXbDr6SUlChpZndxFlOVUfsRXjki0I06sv7Zhlht3xSFqwLVW6F8Di-YP142BVi35a5A6aEnM1goYRvSkA8b0UYHAOndGRqlm0O1Bi4i4aaV6pAEL-2I1V-0MOLC4HtCme2YHHhBesgRD1LgND4VZMDrC7_jdfM49xXKh7nTBunpK1dMs3HrhX1PoTBWX8bwufX5nSL0xV9_PHQ4HLhApgZIAiICxnupydCGXzQ5wCxbM965SgcrGKDkMgWODk4B9Qg4o5_E9IcHI5ntvHLhdy2ThlQccTuBOPTCA0kZIlDBX7v6zys1ayFxWK01NZQDBqzKdGa3CRDOf6l-iqL3WICavrmcpNCbZ4ixjZOSwfYt2dC9BEL_y2EbdsOzbZE_d9UMVWe0U_2GrHtLELjrXUteD1ksnu9PGAeKV93NHN1PkbR1EtAvikiDc17TjVxMj-FJRw6SrbFzw8XvdlwcJ3f-7sfd8yi_ph9bq7eY3gbEnuxZWlOTi-w89cWcx8jMVjfpQwMTx-qWSYDegg6_IgwtlppvtdrzGEn_aCvNRZVSFrSrVtSs3sQz9j8TjVkdlfPljT_7DNbYATZKmLIVGz_37yc_aMha8ceu7fdy8CJUfO5kQqobgFol1h2DwcJDTCxForxqK_GK0]--></g></svg>