<?xml version="1.0" encoding="us-ascii" standalone="no"?><svg xmlns="http://www.w3.org/2000/svg" xmlns:xlink="http://www.w3.org/1999/xlink" contentStyleType="text/css" height="315.7px" preserveAspectRatio="none" style="width:265px;height:315px;background:#FFFFFF;" version="1.1" viewBox="0 0 265 315" width="265.3px" zoomAndPan="magnify"><defs/><g><text fill="#000000" font-family="sans-serif" font-size="9.8" font-weight="bold" lengthAdjust="spacing" textLength="245.7" x="7" y="21.0752">System Sequence Diagram (SSD) - Alternative One</text><rect fill="#FFFFFF" height="132.1223" style="stroke:#181818;stroke-width:0.6999999999999998;" width="7" x="33.6" y="106.3043"/><rect fill="#FFFFFF" height="21.9037" style="stroke:#181818;stroke-width:0.6999999999999998;" width="7" x="230.3" y="122.608"/><rect fill="#FFFFFF" height="21.9037" style="stroke:#181818;stroke-width:0.6999999999999998;" width="7" x="230.3" y="166.4154"/><rect fill="#FFFFFF" height="21.9037" style="stroke:#181818;stroke-width:0.6999999999999998;" width="7" x="230.3" y="210.2229"/><line style="stroke:#181818;stroke-width:0.3499999999999999;stroke-dasharray:5.0,5.0;" x1="37.1" x2="37.1" y1="99.3043" y2="244.7266"/><line style="stroke:#181818;stroke-width:0.3499999999999999;stroke-dasharray:5.0,5.0;" x1="233.8" x2="233.8" y1="99.3043" y2="244.7266"/><text fill="#000000" font-family="sans-serif" font-size="9.8" lengthAdjust="spacing" textLength="58.8" x="4.2" y="83.81">Green Space</text><text fill="#000000" font-family="sans-serif" font-size="9.8" lengthAdjust="spacing" textLength="39.2" x="15.4" y="96.8447">Manager</text><ellipse cx="37.1" cy="37.1848" fill="#E3E3E3" rx="5.6" ry="5.6" style="stroke:#181818;stroke-width:0.3499999999999999;"/><path d="M37.1,42.7848 L37.1,61.6848 M28,48.3848 L46.2,48.3848 M37.1,61.6848 L28,72.1848 M37.1,61.6848 L46.2,72.1848 " fill="none" style="stroke:#181818;stroke-width:0.3499999999999999;"/><text fill="#000000" font-family="sans-serif" font-size="9.8" lengthAdjust="spacing" textLength="58.8" x="4.2" y="254.6018">Green Space</text><text fill="#000000" font-family="sans-serif" font-size="9.8" lengthAdjust="spacing" textLength="39.2" x="15.4" y="267.6365">Manager</text><ellipse cx="37.1" cy="276.0461" fill="#E3E3E3" rx="5.6" ry="5.6" style="stroke:#181818;stroke-width:0.3499999999999999;"/><path d="M37.1,281.6461 L37.1,300.5461 M28,287.2461 L46.2,287.2461 M37.1,300.5461 L28,311.0461 M37.1,300.5461 L46.2,311.0461 " fill="none" style="stroke:#181818;stroke-width:0.3499999999999999;"/><rect fill="#E3E3E3" height="22.8348" rx="1.75" ry="1.75" style="stroke:#181818;stroke-width:0.3499999999999999;" width="44.8" x="211.4" y="75.7695"/><text fill="#000000" font-family="sans-serif" font-size="9.8" lengthAdjust="spacing" textLength="35" x="216.3" y="91.2447">:System</text><rect fill="#E3E3E3" height="22.8348" rx="1.75" ry="1.75" style="stroke:#181818;stroke-width:0.3499999999999999;" width="44.8" x="211.4" y="244.0266"/><text fill="#000000" font-family="sans-serif" font-size="9.8" lengthAdjust="spacing" textLength="35" x="216.3" y="259.5018">:System</text><rect fill="#FFFFFF" height="132.1223" style="stroke:#181818;stroke-width:0.6999999999999998;" width="7" x="33.6" y="106.3043"/><rect fill="#FFFFFF" height="21.9037" style="stroke:#181818;stroke-width:0.6999999999999998;" width="7" x="230.3" y="122.608"/><rect fill="#FFFFFF" height="21.9037" style="stroke:#181818;stroke-width:0.6999999999999998;" width="7" x="230.3" y="166.4154"/><rect fill="#FFFFFF" height="21.9037" style="stroke:#181818;stroke-width:0.6999999999999998;" width="7" x="230.3" y="210.2229"/><polygon fill="#181818" points="221.9,119.808,228.9,122.608,221.9,125.408,224.7,122.608" style="stroke:#181818;stroke-width:0.6999999999999998;"/><line style="stroke:#181818;stroke-width:0.6999999999999998;" x1="40.6" x2="226.1" y1="122.608" y2="122.608"/><text fill="#000000" font-family="sans-serif" font-size="9.1" font-weight="bold" lengthAdjust="spacing" textLength="4.9" x="45.5" y="118.9241">1</text><text fill="#000000" font-family="sans-serif" font-size="9.1" lengthAdjust="spacing" textLength="142.1" x="53.2" y="118.9241">asks to register a new green space</text><polygon fill="#181818" points="48.3,141.7117,41.3,144.5117,48.3,147.3117,45.5,144.5117" style="stroke:#181818;stroke-width:0.6999999999999998;"/><line style="stroke:#181818;stroke-width:0.6999999999999998;stroke-dasharray:2.0,2.0;" x1="44.1" x2="233.1" y1="144.5117" y2="144.5117"/><text fill="#000000" font-family="sans-serif" font-size="9.1" font-weight="bold" lengthAdjust="spacing" textLength="4.9" x="52.5" y="140.8278">2</text><text fill="#000000" font-family="sans-serif" font-size="9.1" lengthAdjust="spacing" textLength="55.3" x="60.2" y="140.8278">requests data</text><polygon fill="#181818" points="221.9,163.6154,228.9,166.4154,221.9,169.2154,224.7,166.4154" style="stroke:#181818;stroke-width:0.6999999999999998;"/><line style="stroke:#181818;stroke-width:0.6999999999999998;" x1="40.6" x2="226.1" y1="166.4154" y2="166.4154"/><text fill="#000000" font-family="sans-serif" font-size="9.1" font-weight="bold" lengthAdjust="spacing" textLength="4.9" x="45.5" y="162.7315">3</text><text fill="#000000" font-family="sans-serif" font-size="9.1" lengthAdjust="spacing" textLength="117.6" x="53.2" y="162.7315">types/selects requested data</text><polygon fill="#181818" points="48.3,185.5191,41.3,188.3191,48.3,191.1191,45.5,188.3191" style="stroke:#181818;stroke-width:0.6999999999999998;"/><line style="stroke:#181818;stroke-width:0.6999999999999998;stroke-dasharray:2.0,2.0;" x1="44.1" x2="233.1" y1="188.3191" y2="188.3191"/><text fill="#000000" font-family="sans-serif" font-size="9.1" font-weight="bold" lengthAdjust="spacing" textLength="4.9" x="52.5" y="184.6353">4</text><text fill="#000000" font-family="sans-serif" font-size="9.1" lengthAdjust="spacing" textLength="165.2" x="60.2" y="184.6353">shows all data and requests confirmation</text><polygon fill="#181818" points="221.9,207.4229,228.9,210.2229,221.9,213.0229,224.7,210.2229" style="stroke:#181818;stroke-width:0.6999999999999998;"/><line style="stroke:#181818;stroke-width:0.6999999999999998;" x1="40.6" x2="226.1" y1="210.2229" y2="210.2229"/><text fill="#000000" font-family="sans-serif" font-size="9.1" font-weight="bold" lengthAdjust="spacing" textLength="4.9" x="45.5" y="206.539">5</text><text fill="#000000" font-family="sans-serif" font-size="9.1" lengthAdjust="spacing" textLength="54.6" x="53.2" y="206.539">confirms data</text><polygon fill="#181818" points="48.3,229.3266,41.3,232.1266,48.3,234.9266,45.5,232.1266" style="stroke:#181818;stroke-width:0.6999999999999998;"/><line style="stroke:#181818;stroke-width:0.6999999999999998;stroke-dasharray:2.0,2.0;" x1="44.1" x2="233.1" y1="232.1266" y2="232.1266"/><text fill="#000000" font-family="sans-serif" font-size="9.1" font-weight="bold" lengthAdjust="spacing" textLength="4.9" x="52.5" y="228.4427">6</text><text fill="#000000" font-family="sans-serif" font-size="9.1" lengthAdjust="spacing" textLength="110.6" x="60.2" y="228.4427">displays operation success</text><!--SRC=[dP6nJiCm48RtFCMf4mmLUmSaf28cn92LvN2kgLNxR7oNHdbxhcxICfIXU7Bi___ysP63vum58yJ4oUrBYWHQ1chaifFH7R2dLgT0KCWfSXz-1sIFNHezzx338DGqwjMYxIHA4Lhw7eWTmTPZVue_jEts4TRm4fGAe_eZmGTR3GTDFCGlAZPtcWgitWeHGsiA19_yZcmYPGKey1fpI1DHOmxgdS_82glD-T2QE4yhoXzHwLffmCRo1UldHNLZjOE09hjcxssf00BJ27tLa9D6xLwGonamZncqDkQ5lp6QFO6eG8UADTlHJSHD9vqooPDGiAUNXKNT5NQdZUpJA80XL08WTrT1btZdIxIValXkqRai_pRhlEI0aq3ALAe3oE0SYVpXyWC0]--></g></svg>