<?xml version="1.0" encoding="us-ascii" standalone="no"?><svg xmlns="http://www.w3.org/2000/svg" xmlns:xlink="http://www.w3.org/1999/xlink" contentStyleType="text/css" height="600.5px" preserveAspectRatio="none" style="width:520px;height:600px;background:#FFFFFF;" version="1.1" viewBox="0 0 520 600" width="520.5px" zoomAndPan="magnify"><defs/><g><rect fill="#FFFFFF" height="484.5156" style="stroke:#181818;stroke-width:0.5;" width="5" x="24.25" y="56.1211"/><rect fill="#FFFFFF" height="92.873" style="stroke:#181818;stroke-width:0.5;" width="5" x="164.75" y="67.7666"/><rect fill="#FFFFFF" height="15.6455" style="stroke:#181818;stroke-width:0.5;" width="5" x="164.75" y="176.2852"/><rect fill="#FFFFFF" height="15.6455" style="stroke:#181818;stroke-width:0.5;" width="5" x="164.75" y="207.5762"/><rect fill="#FFFFFF" height="301.7695" style="stroke:#181818;stroke-width:0.5;" width="5" x="164.75" y="238.8672"/><rect fill="#FFFFFF" height="39.7715" style="stroke:#181818;stroke-width:0.5;" width="5" x="308.75" y="105.2227"/><rect fill="#FFFFFF" height="270.4785" style="stroke:#181818;stroke-width:0.5;" width="5" x="308.75" y="254.5127"/><rect fill="#FFFFFF" height="45.2715" style="stroke:#181818;stroke-width:0.5;" width="5" x="311.25" y="274.1582"/><rect fill="#FFFFFF" height="45.2715" style="stroke:#181818;stroke-width:0.5;" width="5" x="311.25" y="342.5752"/><rect fill="#FFFFFF" height="15.6455" style="stroke:#181818;stroke-width:0.5;" width="5" x="396.25" y="406.9922"/><rect fill="#FFFFFF" height="15.6455" style="stroke:#181818;stroke-width:0.5;" width="5" x="449.75" y="438.2832"/><rect fill="#FFFFFF" height="39.7715" style="stroke:#181818;stroke-width:0.5;" width="5" x="495.5" y="469.5742"/><line style="stroke:#181818;stroke-width:0.25;stroke-dasharray:5.0,5.0;" x1="26.5" x2="26.5" y1="51.1211" y2="549.6367"/><line style="stroke:#181818;stroke-width:0.25;stroke-dasharray:5.0,5.0;" x1="167" x2="167" y1="51.1211" y2="549.6367"/><line style="stroke:#181818;stroke-width:0.25;stroke-dasharray:5.0,5.0;" x1="311.25" x2="311.25" y1="87.6719" y2="549.6367"/><line style="stroke:#181818;stroke-width:0.25;stroke-dasharray:5.0,5.0;" x1="398.5" x2="398.5" y1="51.1211" y2="549.6367"/><line style="stroke:#181818;stroke-width:0.25;stroke-dasharray:5.0,5.0;" x1="452" x2="452" y1="51.1211" y2="549.6367"/><line style="stroke:#181818;stroke-width:0.25;stroke-dasharray:5.0,5.0;" x1="498" x2="498" y1="51.1211" y2="549.6367"/><text fill="#000000" font-family="sans-serif" font-size="7" lengthAdjust="spacing" textLength="45.5" x="2.5" y="40.0537">Green Spaces</text><text fill="#000000" font-family="sans-serif" font-size="7" lengthAdjust="spacing" textLength="28" x="11.25" y="49.3643">Manager</text><ellipse cx="26.75" cy="6.75" fill="#E3E3E3" rx="4" ry="4" style="stroke:#181818;stroke-width:0.25;"/><path d="M26.75,10.75 L26.75,24.25 M20.25,14.75 L33.25,14.75 M26.75,24.25 L20.25,31.75 M26.75,24.25 L33.25,31.75 " fill="none" style="stroke:#181818;stroke-width:0.25;"/><text fill="#000000" font-family="sans-serif" font-size="7" lengthAdjust="spacing" textLength="45.5" x="2.5" y="556.6904">Green Spaces</text><text fill="#000000" font-family="sans-serif" font-size="7" lengthAdjust="spacing" textLength="28" x="11.25" y="566.001">Manager</text><ellipse cx="26.75" cy="572.0078" fill="#E3E3E3" rx="4" ry="4" style="stroke:#181818;stroke-width:0.25;"/><path d="M26.75,576.0078 L26.75,589.5078 M20.25,580.0078 L33.25,580.0078 M26.75,589.5078 L20.25,597.0078 M26.75,589.5078 L33.25,597.0078 " fill="none" style="stroke:#181818;stroke-width:0.25;"/><rect fill="#E3E3E3" height="16.3105" rx="1.25" ry="1.25" style="stroke:#181818;stroke-width:0.25;" width="68.5" x="133" y="34.3105"/><text fill="#000000" font-family="sans-serif" font-size="7" lengthAdjust="spacing" textLength="61.5" x="136.5" y="45.3643">:AddEntryAgendaUI</text><rect fill="#E3E3E3" height="16.3105" rx="1.25" ry="1.25" style="stroke:#181818;stroke-width:0.25;" width="68.5" x="133" y="549.1367"/><text fill="#000000" font-family="sans-serif" font-size="7" lengthAdjust="spacing" textLength="61.5" x="136.5" y="560.1904">:AddEntryAgendaUI</text><rect fill="#E3E3E3" height="16.3105" rx="1.25" ry="1.25" style="stroke:#181818;stroke-width:0.25;" width="95" x="263.75" y="549.1367"/><text fill="#000000" font-family="sans-serif" font-size="7" lengthAdjust="spacing" textLength="88" x="267.25" y="560.1904">:AddEntryAgendaControlller</text><rect fill="#E3E3E3" height="16.3105" rx="1.25" ry="1.25" style="stroke:#181818;stroke-width:0.25;" width="48.5" x="374.5" y="34.3105"/><text fill="#000000" font-family="sans-serif" font-size="7" lengthAdjust="spacing" textLength="41.5" x="378" y="45.3643">:Repositories</text><rect fill="#E3E3E3" height="16.3105" rx="1.25" ry="1.25" style="stroke:#181818;stroke-width:0.25;" width="48.5" x="374.5" y="549.1367"/><text fill="#000000" font-family="sans-serif" font-size="7" lengthAdjust="spacing" textLength="41.5" x="378" y="560.1904">:Repositories</text><rect fill="#E3E3E3" height="25.6211" rx="1.25" ry="1.25" style="stroke:#181818;stroke-width:0.25;" width="48.5" x="428" y="25"/><text fill="#000000" font-family="sans-serif" font-size="7" lengthAdjust="spacing" textLength="37" x="433.75" y="36.0537">repositories</text><text fill="#000000" font-family="sans-serif" font-size="7" lengthAdjust="spacing" textLength="41.5" x="431.5" y="45.3643">:Repositories</text><rect fill="#E3E3E3" height="25.6211" rx="1.25" ry="1.25" style="stroke:#181818;stroke-width:0.25;" width="48.5" x="428" y="549.1367"/><text fill="#000000" font-family="sans-serif" font-size="7" lengthAdjust="spacing" textLength="37" x="433.75" y="560.1904">repositories</text><text fill="#000000" font-family="sans-serif" font-size="7" lengthAdjust="spacing" textLength="41.5" x="431.5" y="569.501">:Repositories</text><rect fill="#E3E3E3" height="25.6211" rx="1.25" ry="1.25" style="stroke:#181818;stroke-width:0.25;" width="33" x="481.5" y="25"/><text fill="#000000" font-family="sans-serif" font-size="7" lengthAdjust="spacing" textLength="26" x="485" y="36.0537">agenda:</text><text fill="#000000" font-family="sans-serif" font-size="7" lengthAdjust="spacing" textLength="24.5" x="485.75" y="45.3643">Agenda</text><rect fill="#E3E3E3" height="25.6211" rx="1.25" ry="1.25" style="stroke:#181818;stroke-width:0.25;" width="33" x="481.5" y="549.1367"/><text fill="#000000" font-family="sans-serif" font-size="7" lengthAdjust="spacing" textLength="26" x="485" y="560.1904">agenda:</text><text fill="#000000" font-family="sans-serif" font-size="7" lengthAdjust="spacing" textLength="24.5" x="485.75" y="569.501">Agenda</text><rect fill="#FFFFFF" height="484.5156" style="stroke:#181818;stroke-width:0.5;" width="5" x="24.25" y="56.1211"/><rect fill="#FFFFFF" height="92.873" style="stroke:#181818;stroke-width:0.5;" width="5" x="164.75" y="67.7666"/><rect fill="#FFFFFF" height="15.6455" style="stroke:#181818;stroke-width:0.5;" width="5" x="164.75" y="176.2852"/><rect fill="#FFFFFF" height="15.6455" style="stroke:#181818;stroke-width:0.5;" width="5" x="164.75" y="207.5762"/><rect fill="#FFFFFF" height="301.7695" style="stroke:#181818;stroke-width:0.5;" width="5" x="164.75" y="238.8672"/><rect fill="#FFFFFF" height="39.7715" style="stroke:#181818;stroke-width:0.5;" width="5" x="308.75" y="105.2227"/><rect fill="#FFFFFF" height="270.4785" style="stroke:#181818;stroke-width:0.5;" width="5" x="308.75" y="254.5127"/><rect fill="#FFFFFF" height="45.2715" style="stroke:#181818;stroke-width:0.5;" width="5" x="311.25" y="274.1582"/><rect fill="#FFFFFF" height="45.2715" style="stroke:#181818;stroke-width:0.5;" width="5" x="311.25" y="342.5752"/><rect fill="#FFFFFF" height="15.6455" style="stroke:#181818;stroke-width:0.5;" width="5" x="396.25" y="406.9922"/><rect fill="#FFFFFF" height="15.6455" style="stroke:#181818;stroke-width:0.5;" width="5" x="449.75" y="438.2832"/><rect fill="#FFFFFF" height="39.7715" style="stroke:#181818;stroke-width:0.5;" width="5" x="495.5" y="469.5742"/><polygon fill="#181818" points="158.75,65.7666,163.75,67.7666,158.75,69.7666,160.75,67.7666" style="stroke:#181818;stroke-width:0.5;"/><line style="stroke:#181818;stroke-width:0.5;" x1="29.25" x2="161.75" y1="67.7666" y2="67.7666"/><text fill="#000000" font-family="sans-serif" font-size="6.5" font-weight="bold" lengthAdjust="spacing" textLength="3.5" x="32.75" y="65.1353">1</text><text fill="#000000" font-family="sans-serif" font-size="6.5" lengthAdjust="spacing" textLength="111" x="38.25" y="65.1353">asks to add a new entry to the agenda</text><polygon fill="#181818" points="257.75,81.4121,262.75,83.4121,257.75,85.4121,259.75,83.4121" style="stroke:#181818;stroke-width:0.5;"/><line style="stroke:#181818;stroke-width:0.5;" x1="169.75" x2="260.75" y1="83.4121" y2="83.4121"/><text fill="#000000" font-family="sans-serif" font-size="6.5" font-weight="bold" lengthAdjust="spacing" textLength="3.5" x="173.25" y="80.7808">2</text><text fill="#000000" font-family="sans-serif" font-size="6.5" lengthAdjust="spacing" textLength="18" x="178.75" y="80.7808">create</text><rect fill="#E3E3E3" height="16.3105" rx="1.25" ry="1.25" style="stroke:#181818;stroke-width:0.25;" width="95" x="263.75" y="71.7666"/><text fill="#000000" font-family="sans-serif" font-size="7" lengthAdjust="spacing" textLength="88" x="267.25" y="82.8203">:AddEntryAgendaControlller</text><polygon fill="#181818" points="302.75,103.2227,307.75,105.2227,302.75,107.2227,304.75,105.2227" style="stroke:#181818;stroke-width:0.5;"/><line style="stroke:#181818;stroke-width:0.5;" x1="169.75" x2="305.75" y1="105.2227" y2="105.2227"/><text fill="#000000" font-family="sans-serif" font-size="6.5" font-weight="bold" lengthAdjust="spacing" textLength="3.5" x="173.25" y="102.5913">3</text><text fill="#000000" font-family="sans-serif" font-size="6.5" lengthAdjust="spacing" textLength="50.5" x="178.75" y="102.5913">getTaskListDTO()</text><rect fill="none" height="21.626" style="stroke:#000000;stroke-width:0.75;" width="98" x="262.25" y="109.2227"/><path d="M262.25,109.2227 L293.25,109.2227 L293.25,113.7227 L288.25,118.7227 L262.25,118.7227 L262.25,109.2227 " fill="#EEEEEE" style="stroke:#000000;stroke-width:1.0;"/><text fill="#000000" font-family="sans-serif" font-size="6.5" font-weight="bold" lengthAdjust="spacing" textLength="8.5" x="268.75" y="117.2368">ref</text><text fill="#000000" font-family="sans-serif" font-size="6" lengthAdjust="spacing" textLength="50.5" x="286" y="127.1973">Get Tasks Dto List</text><polygon fill="#181818" points="175.25,142.9941,170.25,144.9941,175.25,146.9941,173.25,144.9941" style="stroke:#181818;stroke-width:0.5;"/><line style="stroke:#181818;stroke-width:0.5;stroke-dasharray:2.0,2.0;" x1="172.25" x2="310.75" y1="144.9941" y2="144.9941"/><text fill="#000000" font-family="sans-serif" font-size="6.5" font-weight="bold" lengthAdjust="spacing" textLength="3.5" x="178.25" y="142.3628">4</text><text fill="#000000" font-family="sans-serif" font-size="6.5" lengthAdjust="spacing" textLength="36.5" x="183.75" y="142.3628">tasksListDto</text><polygon fill="#181818" points="34.75,158.6396,29.75,160.6396,34.75,162.6396,32.75,160.6396" style="stroke:#181818;stroke-width:0.5;"/><line style="stroke:#181818;stroke-width:0.5;stroke-dasharray:2.0,2.0;" x1="31.75" x2="166.75" y1="160.6396" y2="160.6396"/><text fill="#000000" font-family="sans-serif" font-size="6.5" font-weight="bold" lengthAdjust="spacing" textLength="3.5" x="37.75" y="158.0083">5</text><text fill="#000000" font-family="sans-serif" font-size="6.5" lengthAdjust="spacing" textLength="113.5" x="43.25" y="158.0083">shows to-do list and asks to select one</text><polygon fill="#181818" points="158.75,174.2852,163.75,176.2852,158.75,178.2852,160.75,176.2852" style="stroke:#181818;stroke-width:0.5;"/><line style="stroke:#181818;stroke-width:0.5;" x1="29.25" x2="161.75" y1="176.2852" y2="176.2852"/><text fill="#000000" font-family="sans-serif" font-size="6.5" font-weight="bold" lengthAdjust="spacing" textLength="3.5" x="32.75" y="173.6538">6</text><text fill="#000000" font-family="sans-serif" font-size="6.5" lengthAdjust="spacing" textLength="41" x="38.25" y="173.6538">selects a task</text><polygon fill="#181818" points="34.75,189.9307,29.75,191.9307,34.75,193.9307,32.75,191.9307" style="stroke:#181818;stroke-width:0.5;"/><line style="stroke:#181818;stroke-width:0.5;stroke-dasharray:2.0,2.0;" x1="31.75" x2="166.75" y1="191.9307" y2="191.9307"/><text fill="#000000" font-family="sans-serif" font-size="6.5" font-weight="bold" lengthAdjust="spacing" textLength="3.5" x="37.75" y="189.2993">7</text><text fill="#000000" font-family="sans-serif" font-size="6.5" lengthAdjust="spacing" textLength="94.5" x="43.25" y="189.2993">requests data (i.e. Starting Date)</text><polygon fill="#181818" points="158.75,205.5762,163.75,207.5762,158.75,209.5762,160.75,207.5762" style="stroke:#181818;stroke-width:0.5;"/><line style="stroke:#181818;stroke-width:0.5;" x1="29.25" x2="161.75" y1="207.5762" y2="207.5762"/><text fill="#000000" font-family="sans-serif" font-size="6.5" font-weight="bold" lengthAdjust="spacing" textLength="3.5" x="32.75" y="204.9448">8</text><text fill="#000000" font-family="sans-serif" font-size="6.5" lengthAdjust="spacing" textLength="61" x="38.25" y="204.9448">types requested data</text><polygon fill="#181818" points="34.75,221.2217,29.75,223.2217,34.75,225.2217,32.75,223.2217" style="stroke:#181818;stroke-width:0.5;"/><line style="stroke:#181818;stroke-width:0.5;stroke-dasharray:2.0,2.0;" x1="31.75" x2="166.75" y1="223.2217" y2="223.2217"/><text fill="#000000" font-family="sans-serif" font-size="6.5" font-weight="bold" lengthAdjust="spacing" textLength="3.5" x="37.75" y="220.5903">9</text><text fill="#000000" font-family="sans-serif" font-size="6.5" lengthAdjust="spacing" textLength="118" x="43.25" y="220.5903">shows all data and requests confirmation</text><polygon fill="#181818" points="158.75,236.8672,163.75,238.8672,158.75,240.8672,160.75,238.8672" style="stroke:#181818;stroke-width:0.5;"/><line style="stroke:#181818;stroke-width:0.5;" x1="29.25" x2="161.75" y1="238.8672" y2="238.8672"/><text fill="#000000" font-family="sans-serif" font-size="6.5" font-weight="bold" lengthAdjust="spacing" textLength="7" x="32.75" y="236.2358">10</text><text fill="#000000" font-family="sans-serif" font-size="6.5" lengthAdjust="spacing" textLength="39" x="41.75" y="236.2358">confirms data</text><polygon fill="#181818" points="302.75,252.5127,307.75,254.5127,302.75,256.5127,304.75,254.5127" style="stroke:#181818;stroke-width:0.5;"/><line style="stroke:#181818;stroke-width:0.5;" x1="169.75" x2="305.75" y1="254.5127" y2="254.5127"/><text fill="#000000" font-family="sans-serif" font-size="6.5" font-weight="bold" lengthAdjust="spacing" textLength="7" x="173.25" y="251.8813">11</text><text fill="#000000" font-family="sans-serif" font-size="6.5" lengthAdjust="spacing" textLength="120.5" x="182.25" y="251.8813">addEntryAgenda(startingDate, indexTask)</text><line style="stroke:#181818;stroke-width:0.5;" x1="313.75" x2="337.25" y1="267.6582" y2="267.6582"/><line style="stroke:#181818;stroke-width:0.5;" x1="337.25" x2="337.25" y1="267.6582" y2="274.1582"/><line style="stroke:#181818;stroke-width:0.5;" x1="316.75" x2="337.25" y1="274.1582" y2="274.1582"/><polygon fill="#181818" points="321.75,272.1582,316.75,274.1582,321.75,276.1582,319.75,274.1582" style="stroke:#181818;stroke-width:0.5;"/><text fill="#000000" font-family="sans-serif" font-size="6.5" font-weight="bold" lengthAdjust="spacing" textLength="7" x="319.75" y="265.0269">12</text><text fill="#000000" font-family="sans-serif" font-size="6.5" lengthAdjust="spacing" textLength="66" x="328.75" y="265.0269">getTaskByIndex(index)</text><rect fill="none" height="21.626" style="stroke:#000000;stroke-width:0.75;" width="98" x="262.25" y="280.6582"/><path d="M262.25,280.6582 L293.25,280.6582 L293.25,285.1582 L288.25,290.1582 L262.25,290.1582 L262.25,280.6582 " fill="#EEEEEE" style="stroke:#000000;stroke-width:1.0;"/><text fill="#000000" font-family="sans-serif" font-size="6.5" font-weight="bold" lengthAdjust="spacing" textLength="8.5" x="268.75" y="288.6724">ref</text><text fill="#000000" font-family="sans-serif" font-size="6" lengthAdjust="spacing" textLength="43.5" x="289.5" y="298.6328">Get Task Object</text><line style="stroke:#181818;stroke-width:0.5;stroke-dasharray:2.0,2.0;" x1="316.25" x2="337.25" y1="318.9297" y2="318.9297"/><line style="stroke:#181818;stroke-width:0.5;stroke-dasharray:2.0,2.0;" x1="337.25" x2="337.25" y1="318.9297" y2="325.4297"/><line style="stroke:#181818;stroke-width:0.5;stroke-dasharray:2.0,2.0;" x1="313.75" x2="337.25" y1="325.4297" y2="325.4297"/><polygon fill="#181818" points="318.75,323.4297,313.75,325.4297,318.75,327.4297,316.75,325.4297" style="stroke:#181818;stroke-width:0.5;"/><text fill="#000000" font-family="sans-serif" font-size="6.5" font-weight="bold" lengthAdjust="spacing" textLength="7" x="319.75" y="316.2983">13</text><text fill="#000000" font-family="sans-serif" font-size="6.5" lengthAdjust="spacing" textLength="12.5" x="328.75" y="316.2983">task</text><line style="stroke:#181818;stroke-width:0.5;" x1="313.75" x2="337.25" y1="336.0752" y2="336.0752"/><line style="stroke:#181818;stroke-width:0.5;" x1="337.25" x2="337.25" y1="336.0752" y2="342.5752"/><line style="stroke:#181818;stroke-width:0.5;" x1="316.75" x2="337.25" y1="342.5752" y2="342.5752"/><polygon fill="#181818" points="321.75,340.5752,316.75,342.5752,321.75,344.5752,319.75,342.5752" style="stroke:#181818;stroke-width:0.5;"/><text fill="#000000" font-family="sans-serif" font-size="6.5" font-weight="bold" lengthAdjust="spacing" textLength="7" x="319.75" y="333.4438">14</text><text fill="#000000" font-family="sans-serif" font-size="6.5" lengthAdjust="spacing" textLength="66.5" x="328.75" y="333.4438">getGSMFromSession()</text><rect fill="none" height="21.626" style="stroke:#000000;stroke-width:0.75;" width="98" x="262.25" y="349.0752"/><path d="M262.25,349.0752 L293.25,349.0752 L293.25,353.5752 L288.25,358.5752 L262.25,358.5752 L262.25,349.0752 " fill="#EEEEEE" style="stroke:#000000;stroke-width:1.0;"/><text fill="#000000" font-family="sans-serif" font-size="6.5" font-weight="bold" lengthAdjust="spacing" textLength="8.5" x="268.75" y="357.0894">ref</text><text fill="#000000" font-family="sans-serif" font-size="6" lengthAdjust="spacing" textLength="41.5" x="290.5" y="367.0498">Get GSM Email</text><line style="stroke:#181818;stroke-width:0.5;stroke-dasharray:2.0,2.0;" x1="316.25" x2="337.25" y1="387.3467" y2="387.3467"/><line style="stroke:#181818;stroke-width:0.5;stroke-dasharray:2.0,2.0;" x1="337.25" x2="337.25" y1="387.3467" y2="393.8467"/><line style="stroke:#181818;stroke-width:0.5;stroke-dasharray:2.0,2.0;" x1="313.75" x2="337.25" y1="393.8467" y2="393.8467"/><polygon fill="#181818" points="318.75,391.8467,313.75,393.8467,318.75,395.8467,316.75,393.8467" style="stroke:#181818;stroke-width:0.5;"/><text fill="#000000" font-family="sans-serif" font-size="6.5" font-weight="bold" lengthAdjust="spacing" textLength="7" x="319.75" y="384.7153">15</text><text fill="#000000" font-family="sans-serif" font-size="6.5" lengthAdjust="spacing" textLength="15.5" x="328.75" y="384.7153">email</text><polygon fill="#181818" points="390.25,404.9922,395.25,406.9922,390.25,408.9922,392.25,406.9922" style="stroke:#181818;stroke-width:0.5;"/><line style="stroke:#181818;stroke-width:0.5;" x1="313.75" x2="393.25" y1="406.9922" y2="406.9922"/><text fill="#000000" font-family="sans-serif" font-size="6.5" font-weight="bold" lengthAdjust="spacing" textLength="7" x="317.25" y="404.3608">16</text><text fill="#000000" font-family="sans-serif" font-size="6.5" lengthAdjust="spacing" textLength="37.5" x="326.25" y="404.3608">getInstance()</text><polygon fill="#181818" points="319.25,420.6377,314.25,422.6377,319.25,424.6377,317.25,422.6377" style="stroke:#181818;stroke-width:0.5;"/><line style="stroke:#181818;stroke-width:0.5;stroke-dasharray:2.0,2.0;" x1="316.25" x2="398.25" y1="422.6377" y2="422.6377"/><text fill="#000000" font-family="sans-serif" font-size="6.5" font-weight="bold" lengthAdjust="spacing" textLength="7" x="322.25" y="420.0063">17</text><text fill="#000000" font-family="sans-serif" font-size="6.5" lengthAdjust="spacing" textLength="33.5" x="331.25" y="420.0063">repositories</text><polygon fill="#181818" points="443.75,436.2832,448.75,438.2832,443.75,440.2832,445.75,438.2832" style="stroke:#181818;stroke-width:0.5;"/><line style="stroke:#181818;stroke-width:0.5;" x1="313.75" x2="446.75" y1="438.2832" y2="438.2832"/><text fill="#000000" font-family="sans-serif" font-size="6.5" font-weight="bold" lengthAdjust="spacing" textLength="7" x="317.25" y="435.6519">18</text><text fill="#000000" font-family="sans-serif" font-size="6.5" lengthAdjust="spacing" textLength="35" x="326.25" y="435.6519">getAgenda()</text><polygon fill="#181818" points="319.25,451.9287,314.25,453.9287,319.25,455.9287,317.25,453.9287" style="stroke:#181818;stroke-width:0.5;"/><line style="stroke:#181818;stroke-width:0.5;stroke-dasharray:2.0,2.0;" x1="316.25" x2="451.75" y1="453.9287" y2="453.9287"/><text fill="#000000" font-family="sans-serif" font-size="6.5" font-weight="bold" lengthAdjust="spacing" textLength="7" x="322.25" y="451.2974">19</text><text fill="#000000" font-family="sans-serif" font-size="6.5" lengthAdjust="spacing" textLength="21" x="331.25" y="451.2974">agenda</text><polygon fill="#181818" points="489.5,467.5742,494.5,469.5742,489.5,471.5742,491.5,469.5742" style="stroke:#181818;stroke-width:0.5;"/><line style="stroke:#181818;stroke-width:0.5;" x1="313.75" x2="492.5" y1="469.5742" y2="469.5742"/><text fill="#000000" font-family="sans-serif" font-size="6.5" font-weight="bold" lengthAdjust="spacing" textLength="7" x="317.25" y="466.9429">20</text><text fill="#000000" font-family="sans-serif" font-size="6.5" lengthAdjust="spacing" textLength="123" x="326.25" y="466.9429">addEntryAgenda(startingDate, task, email)</text><rect fill="none" height="21.626" style="stroke:#000000;stroke-width:0.75;" width="37.5" x="480" y="473.5742"/><path d="M480,473.5742 L511,473.5742 L511,478.0742 L506,483.0742 L480,483.0742 L480,473.5742 " fill="#EEEEEE" style="stroke:#000000;stroke-width:1.0;"/><text fill="#000000" font-family="sans-serif" font-size="6.5" font-weight="bold" lengthAdjust="spacing" textLength="8.5" x="486.5" y="481.5884">ref</text><text fill="#000000" font-family="sans-serif" font-size="6" lengthAdjust="spacing" textLength="33.5" x="482" y="491.5488">Create Entry</text><polygon fill="#181818" points="319.25,507.3457,314.25,509.3457,319.25,511.3457,317.25,509.3457" style="stroke:#181818;stroke-width:0.5;"/><line style="stroke:#181818;stroke-width:0.5;stroke-dasharray:2.0,2.0;" x1="316.25" x2="497.5" y1="509.3457" y2="509.3457"/><text fill="#000000" font-family="sans-serif" font-size="6.5" font-weight="bold" lengthAdjust="spacing" textLength="7" x="322.25" y="506.7144">21</text><text fill="#000000" font-family="sans-serif" font-size="6.5" lengthAdjust="spacing" textLength="14.5" x="331.25" y="506.7144">entry</text><polygon fill="#181818" points="175.25,522.9912,170.25,524.9912,175.25,526.9912,173.25,524.9912" style="stroke:#181818;stroke-width:0.5;"/><line style="stroke:#181818;stroke-width:0.5;stroke-dasharray:2.0,2.0;" x1="172.25" x2="310.75" y1="524.9912" y2="524.9912"/><text fill="#000000" font-family="sans-serif" font-size="6.5" font-weight="bold" lengthAdjust="spacing" textLength="7" x="178.25" y="522.3599">22</text><text fill="#000000" font-family="sans-serif" font-size="6.5" lengthAdjust="spacing" textLength="14.5" x="187.25" y="522.3599">entry</text><polygon fill="#181818" points="32.25,538.6367,27.25,540.6367,32.25,542.6367,30.25,540.6367" style="stroke:#181818;stroke-width:0.5;"/><line style="stroke:#181818;stroke-width:0.5;stroke-dasharray:2.0,2.0;" x1="29.25" x2="166.75" y1="540.6367" y2="540.6367"/><text fill="#000000" font-family="sans-serif" font-size="6.5" font-weight="bold" lengthAdjust="spacing" textLength="7" x="35.25" y="538.0054">23</text><text fill="#000000" font-family="sans-serif" font-size="6.5" lengthAdjust="spacing" textLength="79" x="44.25" y="538.0054">displays operation success</text><!--SRC=[jLPDRzim3BtxLn2vB2dQ_e0S1dHDLmHeqQ5ERxsm5fDejILFKjhctu-IFoOdTceCcq-EH3w-HprJiQzIbMYmW48hdMsDBWYSsL5YsvqIirVSKEhsEO6XpA7Qv760tQBGxr9jO8svfIJ1dTDgLxoGIP8lMoa8rbgx5_sHOEQqWScj8LAGCZBPPtMFYl7D1D32RNgVCAgJcInHEPZChuIuKSxihpQa13ujGzZJycJKjUPtdUTvZNgzUhmxI7YaKbl9R2JP4FDuywCROgA8PzMRa7OpC1IVFwkAHOYgrXAlNBwXew0m0Nxu1Iw-iXIOS-2h1QS1XG04HUz0NerVSbjgG7nMYyCj20l-OGn6yYhFpXWjCyGHVTkykI6tud9tqhh5wc4wQwDQvD2jThbv3Ar1lv6fjg7dkIK7gw1amRnzWQCmbk61_g07KXTD6vpF3ioSRaC4zJ3paZZBzt3E1jJlldqNGaFEsO1SfccffPmz2rfHSe3MT30-Y2gQZormwUzufxQXNpkod27G8Kpb9Lr2whmh-7jOSDfiJ5ctByasM2G2s8ZYbN3CywewXkxMV3Ajrj8KwAHMOoZKyVP4xQwNvjwjqKStjRLih_eSf1BquUqmoc6L3nhWsgFVzaiFCWrGiqxyFpChFBpyv1F_tAaTjrOqMukSjEgWHEx-TnwuALdBPpJz3mBz-TuKAFE_aaT7cQFqyLmCyfQA3Q4o6XBc1svdXnUYwl7u7I9n115nI0E9sfh35D8Z3cb48Xgy_UNJ_lhrJN3w2_7sEQ-wFC2lkJm6Jx-7NqibN08Goeyx_WeiDi1HRYJ-a5iqoGypFvdWSn3IbZdkBUYIJ9XOO7SP_pcmVPCh-kalqzy0]--></g></svg>