<?xml version="1.0" encoding="us-ascii" standalone="no"?><svg xmlns="http://www.w3.org/2000/svg" xmlns:xlink="http://www.w3.org/1999/xlink" contentStyleType="text/css" height="280px" preserveAspectRatio="none" style="width:365px;height:280px;background:#FFFFFF;" version="1.1" viewBox="0 0 365 280" width="365.6px" zoomAndPan="magnify"><defs/><g><rect fill="#FFFFFF" height="214.243" style="stroke:#181818;stroke-width:0.4000000000000001;" width="4" x="52.4" y="36.2133"/><rect fill="#FFFFFF" height="12.5164" style="stroke:#181818;stroke-width:0.4000000000000001;" width="4" x="113.8" y="59.2461"/><rect fill="#FFFFFF" height="12.5164" style="stroke:#181818;stroke-width:0.4000000000000001;" width="4" x="156.6" y="84.2789"/><rect fill="#FFFFFF" height="12.5164" style="stroke:#181818;stroke-width:0.4000000000000001;" width="4" x="194.2" y="109.3117"/><rect fill="#FFFFFF" height="100.7953" style="stroke:#181818;stroke-width:0.4000000000000001;" width="4" x="231.8" y="134.3445"/><rect fill="#FFFFFF" height="12.5164" style="stroke:#181818;stroke-width:0.4000000000000001;" width="4" x="291.4" y="182.2742"/><rect fill="#FFFFFF" height="15.3164" style="stroke:#181818;stroke-width:0.4000000000000001;" width="4" x="331.4" y="207.307"/><rect fill="none" height="196.1266" style="stroke:#000000;stroke-width:0.6000000000000001;" width="350.8" x="12.4" y="42.2133"/><rect fill="none" height="45.2656" style="stroke:#000000;stroke-width:0.6000000000000001;" width="148.8" x="210.4" y="165.2414"/><line style="stroke:#181818;stroke-width:0.20000000000000004;stroke-dasharray:5.0,5.0;" x1="54.4" x2="54.4" y1="22.8969" y2="257.6563"/><line style="stroke:#181818;stroke-width:0.20000000000000004;stroke-dasharray:5.0,5.0;" x1="115.6" x2="115.6" y1="22.8969" y2="257.6563"/><line style="stroke:#181818;stroke-width:0.20000000000000004;stroke-dasharray:5.0,5.0;" x1="158.4" x2="158.4" y1="22.8969" y2="257.6563"/><line style="stroke:#181818;stroke-width:0.20000000000000004;stroke-dasharray:5.0,5.0;" x1="196" x2="196" y1="22.8969" y2="257.6563"/><line style="stroke:#181818;stroke-width:0.20000000000000004;stroke-dasharray:5.0,5.0;" x1="233.6" x2="233.6" y1="22.8969" y2="257.6563"/><line style="stroke:#181818;stroke-width:0.20000000000000004;stroke-dasharray:5.0,5.0;" x1="293.2" x2="293.2" y1="22.8969" y2="257.6563"/><line style="stroke:#181818;stroke-width:0.20000000000000004;stroke-dasharray:5.0,5.0;" x1="333.2" x2="333.2" y1="153.993" y2="257.6563"/><rect fill="#E3E3E3" height="13.0484" rx="1" ry="1" style="stroke:#181818;stroke-width:0.20000000000000004;" width="76" x="16.4" y="9.4484"/><text fill="#000000" font-family="sans-serif" font-size="5.6" lengthAdjust="spacing" textLength="70.4" x="19.2" y="18.2914">:AddEntryAgendaControlller</text><rect fill="#E3E3E3" height="13.0484" rx="1" ry="1" style="stroke:#181818;stroke-width:0.20000000000000004;" width="76" x="16.4" y="257.2563"/><text fill="#000000" font-family="sans-serif" font-size="5.6" lengthAdjust="spacing" textLength="70.4" x="19.2" y="266.0992">:AddEntryAgendaControlller</text><rect fill="#E3E3E3" height="13.0484" rx="1" ry="1" style="stroke:#181818;stroke-width:0.20000000000000004;" width="38.8" x="96.4" y="9.4484"/><text fill="#000000" font-family="sans-serif" font-size="5.6" lengthAdjust="spacing" textLength="33.2" x="99.2" y="18.2914">:Repositories</text><rect fill="#E3E3E3" height="13.0484" rx="1" ry="1" style="stroke:#181818;stroke-width:0.20000000000000004;" width="38.8" x="96.4" y="257.2563"/><text fill="#000000" font-family="sans-serif" font-size="5.6" lengthAdjust="spacing" textLength="33.2" x="99.2" y="266.0992">:Repositories</text><rect fill="#E3E3E3" height="20.4969" rx="1" ry="1" style="stroke:#181818;stroke-width:0.20000000000000004;" width="38.8" x="139.2" y="2"/><text fill="#000000" font-family="sans-serif" font-size="5.6" lengthAdjust="spacing" textLength="29.6" x="143.8" y="10.843">repositories</text><text fill="#000000" font-family="sans-serif" font-size="5.6" lengthAdjust="spacing" textLength="33.2" x="142" y="18.2914">:Repositories</text><rect fill="#E3E3E3" height="20.4969" rx="1" ry="1" style="stroke:#181818;stroke-width:0.20000000000000004;" width="38.8" x="139.2" y="257.2563"/><text fill="#000000" font-family="sans-serif" font-size="5.6" lengthAdjust="spacing" textLength="29.6" x="143.8" y="266.0992">repositories</text><text fill="#000000" font-family="sans-serif" font-size="5.6" lengthAdjust="spacing" textLength="33.2" x="142" y="273.5477">:Repositories</text><rect fill="#E3E3E3" height="20.4969" rx="1" ry="1" style="stroke:#181818;stroke-width:0.20000000000000004;" width="28.4" x="182" y="2"/><text fill="#000000" font-family="sans-serif" font-size="5.6" lengthAdjust="spacing" textLength="22.4" x="185" y="10.843">toDoList:</text><text fill="#000000" font-family="sans-serif" font-size="5.6" lengthAdjust="spacing" textLength="22.8" x="184.8" y="18.2914">ToDoList</text><rect fill="#E3E3E3" height="20.4969" rx="1" ry="1" style="stroke:#181818;stroke-width:0.20000000000000004;" width="28.4" x="182" y="257.2563"/><text fill="#000000" font-family="sans-serif" font-size="5.6" lengthAdjust="spacing" textLength="22.4" x="185" y="266.0992">toDoList:</text><text fill="#000000" font-family="sans-serif" font-size="5.6" lengthAdjust="spacing" textLength="22.8" x="184.8" y="273.5477">ToDoList</text><rect fill="#E3E3E3" height="13.0484" rx="1" ry="1" style="stroke:#181818;stroke-width:0.20000000000000004;" width="38.8" x="214.4" y="9.4484"/><text fill="#000000" font-family="sans-serif" font-size="5.6" lengthAdjust="spacing" textLength="33.2" x="217.2" y="18.2914">:TaskMapper</text><rect fill="#E3E3E3" height="13.0484" rx="1" ry="1" style="stroke:#181818;stroke-width:0.20000000000000004;" width="38.8" x="214.4" y="257.2563"/><text fill="#000000" font-family="sans-serif" font-size="5.6" lengthAdjust="spacing" textLength="33.2" x="217.2" y="266.0992">:TaskMapper</text><rect fill="#E3E3E3" height="20.4969" rx="1" ry="1" style="stroke:#181818;stroke-width:0.20000000000000004;" width="28.4" x="279.2" y="2"/><text fill="#000000" font-family="sans-serif" font-size="5.6" lengthAdjust="spacing" textLength="19.2" x="283.8" y="10.843">taskDto</text><text fill="#000000" font-family="sans-serif" font-size="5.6" lengthAdjust="spacing" textLength="22.8" x="282" y="18.2914">:TaskDto</text><rect fill="#E3E3E3" height="20.4969" rx="1" ry="1" style="stroke:#181818;stroke-width:0.20000000000000004;" width="28.4" x="279.2" y="257.2563"/><text fill="#000000" font-family="sans-serif" font-size="5.6" lengthAdjust="spacing" textLength="19.2" x="283.8" y="266.0992">taskDto</text><text fill="#000000" font-family="sans-serif" font-size="5.6" lengthAdjust="spacing" textLength="22.8" x="282" y="273.5477">:TaskDto</text><rect fill="#E3E3E3" height="20.4969" rx="1" ry="1" style="stroke:#181818;stroke-width:0.20000000000000004;" width="43.6" x="311.6" y="257.2563"/><text fill="#000000" font-family="sans-serif" font-size="5.6" lengthAdjust="spacing" textLength="30.8" x="318" y="266.0992">tasksListDto</text><text fill="#000000" font-family="sans-serif" font-size="5.6" lengthAdjust="spacing" textLength="38" x="314.4" y="273.5477">:List&lt;TaskDto&gt;</text><rect fill="#FFFFFF" height="214.243" style="stroke:#181818;stroke-width:0.4000000000000001;" width="4" x="52.4" y="36.2133"/><rect fill="#FFFFFF" height="12.5164" style="stroke:#181818;stroke-width:0.4000000000000001;" width="4" x="113.8" y="59.2461"/><rect fill="#FFFFFF" height="12.5164" style="stroke:#181818;stroke-width:0.4000000000000001;" width="4" x="156.6" y="84.2789"/><rect fill="#FFFFFF" height="12.5164" style="stroke:#181818;stroke-width:0.4000000000000001;" width="4" x="194.2" y="109.3117"/><rect fill="#FFFFFF" height="100.7953" style="stroke:#181818;stroke-width:0.4000000000000001;" width="4" x="231.8" y="134.3445"/><rect fill="#FFFFFF" height="12.5164" style="stroke:#181818;stroke-width:0.4000000000000001;" width="4" x="291.4" y="182.2742"/><rect fill="#FFFFFF" height="15.3164" style="stroke:#181818;stroke-width:0.4000000000000001;" width="4" x="331.4" y="207.307"/><polygon fill="#181818" points="47.6,34.6133,51.6,36.2133,47.6,37.8133,49.2,36.2133" style="stroke:#181818;stroke-width:0.4000000000000001;"/><line style="stroke:#181818;stroke-width:0.4000000000000001;" x1="0" x2="50" y1="36.2133" y2="36.2133"/><text fill="#000000" font-family="sans-serif" font-size="5.2" font-weight="bold" lengthAdjust="spacing" textLength="2.8" x="2.8" y="34.1082">3</text><text fill="#000000" font-family="sans-serif" font-size="5.2" lengthAdjust="spacing" textLength="40.4" x="7.2" y="34.1082">getTaskListDTO()</text><path d="M12.4,42.2133 L75.2,42.2133 L75.2,45.9297 L71.2,49.9297 L12.4,49.9297 L12.4,42.2133 " fill="#EEEEEE" style="stroke:#000000;stroke-width:0.6000000000000001;"/><rect fill="none" height="196.1266" style="stroke:#000000;stroke-width:0.6000000000000001;" width="350.8" x="12.4" y="42.2133"/><text fill="#000000" font-family="sans-serif" font-size="5.2" font-weight="bold" lengthAdjust="spacing" textLength="44.8" x="18.4" y="48.2246">Get Tasks Dto List</text><polygon fill="#181818" points="109,57.6461,113,59.2461,109,60.8461,110.6,59.2461" style="stroke:#181818;stroke-width:0.4000000000000001;"/><line style="stroke:#181818;stroke-width:0.4000000000000001;" x1="56.4" x2="111.4" y1="59.2461" y2="59.2461"/><text fill="#000000" font-family="sans-serif" font-size="5.2" font-weight="bold" lengthAdjust="spacing" textLength="7.2" x="59.2" y="57.141">3.1</text><text fill="#000000" font-family="sans-serif" font-size="5.2" lengthAdjust="spacing" textLength="30" x="68" y="57.141">getInstance()</text><polygon fill="#181818" points="60.8,70.1625,56.8,71.7625,60.8,73.3625,59.2,71.7625" style="stroke:#181818;stroke-width:0.4000000000000001;"/><line style="stroke:#181818;stroke-width:0.4000000000000001;stroke-dasharray:2.0,2.0;" x1="58.4" x2="115.4" y1="71.7625" y2="71.7625"/><text fill="#000000" font-family="sans-serif" font-size="5.2" font-weight="bold" lengthAdjust="spacing" textLength="7.2" x="63.2" y="69.6574">3.2</text><text fill="#000000" font-family="sans-serif" font-size="5.2" lengthAdjust="spacing" textLength="26.8" x="72" y="69.6574">repositories</text><polygon fill="#181818" points="151.8,82.6789,155.8,84.2789,151.8,85.8789,153.4,84.2789" style="stroke:#181818;stroke-width:0.4000000000000001;"/><line style="stroke:#181818;stroke-width:0.4000000000000001;" x1="56.4" x2="154.2" y1="84.2789" y2="84.2789"/><text fill="#000000" font-family="sans-serif" font-size="5.2" font-weight="bold" lengthAdjust="spacing" textLength="7.2" x="59.2" y="82.1738">3.3</text><text fill="#000000" font-family="sans-serif" font-size="5.2" lengthAdjust="spacing" textLength="30.8" x="68" y="82.1738">getToDoList()</text><polygon fill="#181818" points="60.8,95.1953,56.8,96.7953,60.8,98.3953,59.2,96.7953" style="stroke:#181818;stroke-width:0.4000000000000001;"/><line style="stroke:#181818;stroke-width:0.4000000000000001;stroke-dasharray:2.0,2.0;" x1="58.4" x2="158.2" y1="96.7953" y2="96.7953"/><text fill="#000000" font-family="sans-serif" font-size="5.2" font-weight="bold" lengthAdjust="spacing" textLength="7.2" x="63.2" y="94.6902">3.4</text><text fill="#000000" font-family="sans-serif" font-size="5.2" lengthAdjust="spacing" textLength="19.2" x="72" y="94.6902">toDoList</text><polygon fill="#181818" points="189.4,107.7117,193.4,109.3117,189.4,110.9117,191,109.3117" style="stroke:#181818;stroke-width:0.4000000000000001;"/><line style="stroke:#181818;stroke-width:0.4000000000000001;" x1="56.4" x2="191.8" y1="109.3117" y2="109.3117"/><text fill="#000000" font-family="sans-serif" font-size="5.2" font-weight="bold" lengthAdjust="spacing" textLength="7.2" x="59.2" y="107.2066">3.5</text><text fill="#000000" font-family="sans-serif" font-size="5.2" lengthAdjust="spacing" textLength="32.8" x="68" y="107.2066">getTasksList()</text><polygon fill="#181818" points="60.8,120.2281,56.8,121.8281,60.8,123.4281,59.2,121.8281" style="stroke:#181818;stroke-width:0.4000000000000001;"/><line style="stroke:#181818;stroke-width:0.4000000000000001;stroke-dasharray:2.0,2.0;" x1="58.4" x2="195.8" y1="121.8281" y2="121.8281"/><text fill="#000000" font-family="sans-serif" font-size="5.2" font-weight="bold" lengthAdjust="spacing" textLength="7.2" x="63.2" y="119.723">3.6</text><text fill="#000000" font-family="sans-serif" font-size="5.2" lengthAdjust="spacing" textLength="21.2" x="72" y="119.723">tasksList</text><polygon fill="#181818" points="227,132.7445,231,134.3445,227,135.9445,228.6,134.3445" style="stroke:#181818;stroke-width:0.4000000000000001;"/><line style="stroke:#181818;stroke-width:0.4000000000000001;" x1="56.4" x2="229.4" y1="134.3445" y2="134.3445"/><text fill="#000000" font-family="sans-serif" font-size="5.2" font-weight="bold" lengthAdjust="spacing" textLength="7.2" x="59.2" y="132.2395">3.7</text><text fill="#000000" font-family="sans-serif" font-size="5.2" lengthAdjust="spacing" textLength="47.6" x="68" y="132.2395">toDTOList(tasksList)</text><polygon fill="#181818" points="306.8,145.2609,310.8,146.8609,306.8,148.4609,308.4,146.8609" style="stroke:#181818;stroke-width:0.4000000000000001;"/><line style="stroke:#181818;stroke-width:0.4000000000000001;" x1="235.8" x2="309.2" y1="146.8609" y2="146.8609"/><text fill="#000000" font-family="sans-serif" font-size="5.2" font-weight="bold" lengthAdjust="spacing" textLength="7.2" x="238.6" y="144.7559">3.8</text><text fill="#000000" font-family="sans-serif" font-size="5.2" lengthAdjust="spacing" textLength="17.6" x="247.4" y="144.7559">create()</text><rect fill="#E3E3E3" height="20.4969" rx="1" ry="1" style="stroke:#181818;stroke-width:0.20000000000000004;" width="43.6" x="311.6" y="137.5445"/><text fill="#000000" font-family="sans-serif" font-size="5.6" lengthAdjust="spacing" textLength="30.8" x="318" y="146.3875">tasksListDto</text><text fill="#000000" font-family="sans-serif" font-size="5.6" lengthAdjust="spacing" textLength="38" x="314.4" y="153.8359">:List&lt;TaskDto&gt;</text><path d="M210.4,165.2414 L239.6,165.2414 L239.6,168.9578 L235.6,172.9578 L210.4,172.9578 L210.4,165.2414 " fill="#EEEEEE" style="stroke:#000000;stroke-width:0.6000000000000001;"/><rect fill="none" height="45.2656" style="stroke:#000000;stroke-width:0.6000000000000001;" width="148.8" x="210.4" y="165.2414"/><text fill="#000000" font-family="sans-serif" font-size="5.2" font-weight="bold" lengthAdjust="spacing" textLength="11.2" x="216.4" y="171.2527">loop</text><text fill="#000000" font-family="sans-serif" font-size="4.4" font-weight="bold" lengthAdjust="spacing" textLength="60" x="245.6" y="170.7895">[For each task in tasksList]</text><polygon fill="#181818" points="286.6,180.6742,290.6,182.2742,286.6,183.8742,288.2,182.2742" style="stroke:#181818;stroke-width:0.4000000000000001;"/><line style="stroke:#181818;stroke-width:0.4000000000000001;" x1="235.8" x2="289" y1="182.2742" y2="182.2742"/><text fill="#000000" font-family="sans-serif" font-size="5.2" font-weight="bold" lengthAdjust="spacing" textLength="7.2" x="238.6" y="180.1691">3.9</text><text fill="#000000" font-family="sans-serif" font-size="5.2" lengthAdjust="spacing" textLength="39.2" x="247.4" y="180.1691">taskToDTO(task)</text><polygon fill="#181818" points="240.2,193.1906,236.2,194.7906,240.2,196.3906,238.6,194.7906" style="stroke:#181818;stroke-width:0.4000000000000001;"/><line style="stroke:#181818;stroke-width:0.4000000000000001;stroke-dasharray:2.0,2.0;" x1="237.8" x2="293" y1="194.7906" y2="194.7906"/><text fill="#000000" font-family="sans-serif" font-size="5.2" font-weight="bold" lengthAdjust="spacing" textLength="10" x="242.6" y="192.6855">3.10</text><text fill="#000000" font-family="sans-serif" font-size="5.2" lengthAdjust="spacing" textLength="18" x="254.2" y="192.6855">taskDto</text><polygon fill="#181818" points="326.6,205.707,330.6,207.307,326.6,208.907,328.2,207.307" style="stroke:#181818;stroke-width:0.4000000000000001;"/><line style="stroke:#181818;stroke-width:0.4000000000000001;" x1="235.8" x2="329" y1="207.307" y2="207.307"/><text fill="#000000" font-family="sans-serif" font-size="5.2" font-weight="bold" lengthAdjust="spacing" textLength="10" x="238.6" y="205.202">3.11</text><text fill="#000000" font-family="sans-serif" font-size="5.2" lengthAdjust="spacing" textLength="29.6" x="250.2" y="205.202">add(taskDto)</text><polygon fill="#181818" points="240.2,221.0234,236.2,222.6234,240.2,224.2234,238.6,222.6234" style="stroke:#181818;stroke-width:0.4000000000000001;"/><line style="stroke:#181818;stroke-width:0.4000000000000001;stroke-dasharray:2.0,2.0;" x1="237.8" x2="333" y1="222.6234" y2="222.6234"/><text fill="#000000" font-family="sans-serif" font-size="5.2" font-weight="bold" lengthAdjust="spacing" textLength="10" x="242.6" y="220.5184">3.12</text><text fill="#000000" font-family="sans-serif" font-size="5.2" lengthAdjust="spacing" textLength="29.2" x="254.2" y="220.5184">tasksListDto</text><polygon fill="#181818" points="60.8,233.5398,56.8,235.1398,60.8,236.7398,59.2,235.1398" style="stroke:#181818;stroke-width:0.4000000000000001;"/><line style="stroke:#181818;stroke-width:0.4000000000000001;stroke-dasharray:2.0,2.0;" x1="58.4" x2="233.4" y1="235.1398" y2="235.1398"/><text fill="#000000" font-family="sans-serif" font-size="5.2" font-weight="bold" lengthAdjust="spacing" textLength="10" x="63.2" y="233.0348">3.13</text><text fill="#000000" font-family="sans-serif" font-size="5.2" lengthAdjust="spacing" textLength="29.2" x="74.8" y="233.0348">tasksListDto</text><polygon fill="#181818" points="4.4,248.8563,0.4,250.4563,4.4,252.0563,2.8,250.4563" style="stroke:#181818;stroke-width:0.4000000000000001;"/><line style="stroke:#181818;stroke-width:0.4000000000000001;stroke-dasharray:2.0,2.0;" x1="2" x2="54" y1="250.4563" y2="250.4563"/><text fill="#000000" font-family="sans-serif" font-size="5.2" font-weight="bold" lengthAdjust="spacing" textLength="2.8" x="6.8" y="248.3512">4</text><text fill="#000000" font-family="sans-serif" font-size="5.2" lengthAdjust="spacing" textLength="32" x="11.2" y="248.3512">taskListDTO()</text><!--SRC=[ZLJ1Rjim3BthAuXUrXR8W68x6KM1eCcA0HqQn3xsejgg8yGH3KdPrhyVBSkAR2lfV9B5znuVAKfcBrNBDJ_00HMMEuq70LOV1JCXql9opskHsuz6W1QbvQfkOe3PyGh_I5N3Es-CO8mVBQhZuKrenhxiP2NW7T6-uL_6Y65bALkkB5nbowfQAwi_bhLG5Nz4McFJD49V0JVmM6oV9uIjQD58YreAup3RzMOCqH7YLIK9-PXXSONFqjZiLHL-wP33_iH2mSt-5szRRz9slylDPhsTgDB-oY9PAFfLGA-AbpdKT9bwVBUwzwI7m79nOaRDXM-CmUB1zGaog8KjJi3hcn7owntZfPM_kHLzNu6-MkEnXITXeICQe8JWAdRHuNFob8OwrsVvgGpDG2aeHOmB-jsPZ28TS-6DPX2Vq0XMYVCIaOdSr-gFvuABV6OZZto4yptl8K-R21CpzDnSCXBoZCB3RZ14LOL1E6SfBHLiXL5qnHKlpbKGFMVlDC0ZW3CPOeE-dwxRMx9RQa42LFQCro2sy0CraFMTuu5KKNd_aOYIz0qfkafS5JSpsgW8TpjImXHmNHxrfxzVCtpSx4kQoQvamAlgsaj_uZRSvocANi9qIiz8bZ8y7v_LaymQrvCOngdiH3AUdSwxg_Jqydnt6_UBHQ_hXK-FLAJctgL_]--></g></svg>