<?xml version="1.0" encoding="us-ascii" standalone="no"?><svg xmlns="http://www.w3.org/2000/svg" xmlns:xlink="http://www.w3.org/1999/xlink" contentStyleType="text/css" height="216.8px" preserveAspectRatio="none" style="width:394px;height:216px;background:#FFFFFF;" version="1.1" viewBox="0 0 394 216" width="394.4px" zoomAndPan="magnify"><defs/><g><rect fill="#FFFFFF" height="150.9969" style="stroke:#181818;stroke-width:0.4000000000000001;" width="4" x="81.2" y="36.2133"/><rect fill="#FFFFFF" height="12.5164" style="stroke:#181818;stroke-width:0.4000000000000001;" width="4" x="142.6" y="59.2461"/><rect fill="#FFFFFF" height="12.5164" style="stroke:#181818;stroke-width:0.4000000000000001;" width="4" x="185.4" y="84.2789"/><rect fill="#FFFFFF" height="12.5164" style="stroke:#181818;stroke-width:0.4000000000000001;" width="4" x="243.8" y="109.3117"/><rect fill="#FFFFFF" height="12.5164" style="stroke:#181818;stroke-width:0.4000000000000001;" width="4" x="313.8" y="134.3445"/><rect fill="#FFFFFF" height="12.5164" style="stroke:#181818;stroke-width:0.4000000000000001;" width="4" x="367.4" y="159.3773"/><rect fill="none" height="132.8805" style="stroke:#000000;stroke-width:0.6000000000000001;" width="350.8" x="41.2" y="42.2133"/><line style="stroke:#181818;stroke-width:0.20000000000000004;stroke-dasharray:5.0,5.0;" x1="83.2" x2="83.2" y1="22.8969" y2="194.4102"/><line style="stroke:#181818;stroke-width:0.20000000000000004;stroke-dasharray:5.0,5.0;" x1="144.4" x2="144.4" y1="22.8969" y2="194.4102"/><line style="stroke:#181818;stroke-width:0.20000000000000004;stroke-dasharray:5.0,5.0;" x1="187.2" x2="187.2" y1="22.8969" y2="194.4102"/><line style="stroke:#181818;stroke-width:0.20000000000000004;stroke-dasharray:5.0,5.0;" x1="245.6" x2="245.6" y1="22.8969" y2="194.4102"/><line style="stroke:#181818;stroke-width:0.20000000000000004;stroke-dasharray:5.0,5.0;" x1="315.6" x2="315.6" y1="22.8969" y2="194.4102"/><line style="stroke:#181818;stroke-width:0.20000000000000004;stroke-dasharray:5.0,5.0;" x1="369.2" x2="369.2" y1="22.8969" y2="194.4102"/><rect fill="#E3E3E3" height="13.0484" rx="1" ry="1" style="stroke:#181818;stroke-width:0.20000000000000004;" width="76" x="45.2" y="9.4484"/><text fill="#000000" font-family="sans-serif" font-size="5.6" lengthAdjust="spacing" textLength="70.4" x="48" y="18.2914">:AddEntryAgendaControlller</text><rect fill="#E3E3E3" height="13.0484" rx="1" ry="1" style="stroke:#181818;stroke-width:0.20000000000000004;" width="76" x="45.2" y="194.0102"/><text fill="#000000" font-family="sans-serif" font-size="5.6" lengthAdjust="spacing" textLength="70.4" x="48" y="202.8531">:AddEntryAgendaControlller</text><rect fill="#E3E3E3" height="13.0484" rx="1" ry="1" style="stroke:#181818;stroke-width:0.20000000000000004;" width="38.8" x="125.2" y="9.4484"/><text fill="#000000" font-family="sans-serif" font-size="5.6" lengthAdjust="spacing" textLength="33.2" x="128" y="18.2914">:Repositories</text><rect fill="#E3E3E3" height="13.0484" rx="1" ry="1" style="stroke:#181818;stroke-width:0.20000000000000004;" width="38.8" x="125.2" y="194.0102"/><text fill="#000000" font-family="sans-serif" font-size="5.6" lengthAdjust="spacing" textLength="33.2" x="128" y="202.8531">:Repositories</text><rect fill="#E3E3E3" height="20.4969" rx="1" ry="1" style="stroke:#181818;stroke-width:0.20000000000000004;" width="38.8" x="168" y="2"/><text fill="#000000" font-family="sans-serif" font-size="5.6" lengthAdjust="spacing" textLength="29.6" x="172.6" y="10.843">repositories</text><text fill="#000000" font-family="sans-serif" font-size="5.6" lengthAdjust="spacing" textLength="33.2" x="170.8" y="18.2914">:Repositories</text><rect fill="#E3E3E3" height="20.4969" rx="1" ry="1" style="stroke:#181818;stroke-width:0.20000000000000004;" width="38.8" x="168" y="194.0102"/><text fill="#000000" font-family="sans-serif" font-size="5.6" lengthAdjust="spacing" textLength="29.6" x="172.6" y="202.8531">repositories</text><text fill="#000000" font-family="sans-serif" font-size="5.6" lengthAdjust="spacing" textLength="33.2" x="170.8" y="210.3016">:Repositories</text><rect fill="#E3E3E3" height="20.4969" rx="1" ry="1" style="stroke:#181818;stroke-width:0.20000000000000004;" width="70" x="210.8" y="2"/><text fill="#000000" font-family="sans-serif" font-size="5.6" lengthAdjust="spacing" textLength="64.4" x="213.6" y="10.843">authenticationRepository:</text><text fill="#000000" font-family="sans-serif" font-size="5.6" lengthAdjust="spacing" textLength="63.2" x="214.2" y="18.2914">AuthenticationRepository</text><rect fill="#E3E3E3" height="20.4969" rx="1" ry="1" style="stroke:#181818;stroke-width:0.20000000000000004;" width="70" x="210.8" y="194.0102"/><text fill="#000000" font-family="sans-serif" font-size="5.6" lengthAdjust="spacing" textLength="64.4" x="213.6" y="202.8531">authenticationRepository:</text><text fill="#000000" font-family="sans-serif" font-size="5.6" lengthAdjust="spacing" textLength="63.2" x="214.2" y="210.3016">AuthenticationRepository</text><rect fill="#E3E3E3" height="20.4969" rx="1" ry="1" style="stroke:#181818;stroke-width:0.20000000000000004;" width="62" x="284.8" y="2"/><text fill="#000000" font-family="sans-serif" font-size="5.6" lengthAdjust="spacing" textLength="56.4" x="287.6" y="10.843">authenticationFacade:</text><text fill="#000000" font-family="sans-serif" font-size="5.6" lengthAdjust="spacing" textLength="30.8" x="300.4" y="18.2914">AuthFacade</text><rect fill="#E3E3E3" height="20.4969" rx="1" ry="1" style="stroke:#181818;stroke-width:0.20000000000000004;" width="62" x="284.8" y="194.0102"/><text fill="#000000" font-family="sans-serif" font-size="5.6" lengthAdjust="spacing" textLength="56.4" x="287.6" y="202.8531">authenticationFacade:</text><text fill="#000000" font-family="sans-serif" font-size="5.6" lengthAdjust="spacing" textLength="30.8" x="300.4" y="210.3016">AuthFacade</text><rect fill="#E3E3E3" height="20.4969" rx="1" ry="1" style="stroke:#181818;stroke-width:0.20000000000000004;" width="37.2" x="350.8" y="2"/><text fill="#000000" font-family="sans-serif" font-size="5.6" lengthAdjust="spacing" textLength="12.8" x="363" y="10.843">user:</text><text fill="#000000" font-family="sans-serif" font-size="5.6" lengthAdjust="spacing" textLength="31.6" x="353.6" y="18.2914">UserSession</text><rect fill="#E3E3E3" height="20.4969" rx="1" ry="1" style="stroke:#181818;stroke-width:0.20000000000000004;" width="37.2" x="350.8" y="194.0102"/><text fill="#000000" font-family="sans-serif" font-size="5.6" lengthAdjust="spacing" textLength="12.8" x="363" y="202.8531">user:</text><text fill="#000000" font-family="sans-serif" font-size="5.6" lengthAdjust="spacing" textLength="31.6" x="353.6" y="210.3016">UserSession</text><rect fill="#FFFFFF" height="150.9969" style="stroke:#181818;stroke-width:0.4000000000000001;" width="4" x="81.2" y="36.2133"/><rect fill="#FFFFFF" height="12.5164" style="stroke:#181818;stroke-width:0.4000000000000001;" width="4" x="142.6" y="59.2461"/><rect fill="#FFFFFF" height="12.5164" style="stroke:#181818;stroke-width:0.4000000000000001;" width="4" x="185.4" y="84.2789"/><rect fill="#FFFFFF" height="12.5164" style="stroke:#181818;stroke-width:0.4000000000000001;" width="4" x="243.8" y="109.3117"/><rect fill="#FFFFFF" height="12.5164" style="stroke:#181818;stroke-width:0.4000000000000001;" width="4" x="313.8" y="134.3445"/><rect fill="#FFFFFF" height="12.5164" style="stroke:#181818;stroke-width:0.4000000000000001;" width="4" x="367.4" y="159.3773"/><polygon fill="#181818" points="76.4,34.6133,80.4,36.2133,76.4,37.8133,78,36.2133" style="stroke:#181818;stroke-width:0.4000000000000001;"/><line style="stroke:#181818;stroke-width:0.4000000000000001;" x1="0" x2="78.8" y1="36.2133" y2="36.2133"/><text fill="#000000" font-family="sans-serif" font-size="5.2" font-weight="bold" lengthAdjust="spacing" textLength="5.6" x="2.8" y="34.1082">14</text><text fill="#000000" font-family="sans-serif" font-size="5.2" lengthAdjust="spacing" textLength="66.4" x="10" y="34.1082">getEmailGSMFromSession()</text><path d="M41.2,42.2133 L97.6,42.2133 L97.6,45.9297 L93.6,49.9297 L41.2,49.9297 L41.2,42.2133 " fill="#EEEEEE" style="stroke:#000000;stroke-width:0.6000000000000001;"/><rect fill="none" height="132.8805" style="stroke:#000000;stroke-width:0.6000000000000001;" width="350.8" x="41.2" y="42.2133"/><text fill="#000000" font-family="sans-serif" font-size="5.2" font-weight="bold" lengthAdjust="spacing" textLength="38.4" x="47.2" y="48.2246">Get GSM Email</text><polygon fill="#181818" points="137.8,57.6461,141.8,59.2461,137.8,60.8461,139.4,59.2461" style="stroke:#181818;stroke-width:0.4000000000000001;"/><line style="stroke:#181818;stroke-width:0.4000000000000001;" x1="85.2" x2="140.2" y1="59.2461" y2="59.2461"/><text fill="#000000" font-family="sans-serif" font-size="5.2" font-weight="bold" lengthAdjust="spacing" textLength="10" x="88" y="57.141">14.1</text><text fill="#000000" font-family="sans-serif" font-size="5.2" lengthAdjust="spacing" textLength="30" x="99.6" y="57.141">getInstance()</text><polygon fill="#181818" points="89.6,70.1625,85.6,71.7625,89.6,73.3625,88,71.7625" style="stroke:#181818;stroke-width:0.4000000000000001;"/><line style="stroke:#181818;stroke-width:0.4000000000000001;stroke-dasharray:2.0,2.0;" x1="87.2" x2="144.2" y1="71.7625" y2="71.7625"/><text fill="#000000" font-family="sans-serif" font-size="5.2" font-weight="bold" lengthAdjust="spacing" textLength="10" x="92" y="69.6574">14.2</text><text fill="#000000" font-family="sans-serif" font-size="5.2" lengthAdjust="spacing" textLength="26.8" x="103.6" y="69.6574">repositories</text><polygon fill="#181818" points="180.6,82.6789,184.6,84.2789,180.6,85.8789,182.2,84.2789" style="stroke:#181818;stroke-width:0.4000000000000001;"/><line style="stroke:#181818;stroke-width:0.4000000000000001;" x1="85.2" x2="183" y1="84.2789" y2="84.2789"/><text fill="#000000" font-family="sans-serif" font-size="5.2" font-weight="bold" lengthAdjust="spacing" textLength="10" x="88" y="82.1738">14.3</text><text fill="#000000" font-family="sans-serif" font-size="5.2" lengthAdjust="spacing" textLength="68.4" x="99.6" y="82.1738">getAuthenticationRepository()</text><polygon fill="#181818" points="89.6,95.1953,85.6,96.7953,89.6,98.3953,88,96.7953" style="stroke:#181818;stroke-width:0.4000000000000001;"/><line style="stroke:#181818;stroke-width:0.4000000000000001;stroke-dasharray:2.0,2.0;" x1="87.2" x2="187" y1="96.7953" y2="96.7953"/><text fill="#000000" font-family="sans-serif" font-size="5.2" font-weight="bold" lengthAdjust="spacing" textLength="10" x="92" y="94.6902">14.4</text><text fill="#000000" font-family="sans-serif" font-size="5.2" lengthAdjust="spacing" textLength="57.2" x="103.6" y="94.6902">authenticationRepository</text><polygon fill="#181818" points="239,107.7117,243,109.3117,239,110.9117,240.6,109.3117" style="stroke:#181818;stroke-width:0.4000000000000001;"/><line style="stroke:#181818;stroke-width:0.4000000000000001;" x1="85.2" x2="241.4" y1="109.3117" y2="109.3117"/><text fill="#000000" font-family="sans-serif" font-size="5.2" font-weight="bold" lengthAdjust="spacing" textLength="10" x="88" y="107.2066">14.5</text><text fill="#000000" font-family="sans-serif" font-size="5.2" lengthAdjust="spacing" textLength="56.8" x="99.6" y="107.2066">getCurrentUserSession()</text><polygon fill="#181818" points="89.6,120.2281,85.6,121.8281,89.6,123.4281,88,121.8281" style="stroke:#181818;stroke-width:0.4000000000000001;"/><line style="stroke:#181818;stroke-width:0.4000000000000001;stroke-dasharray:2.0,2.0;" x1="87.2" x2="245.4" y1="121.8281" y2="121.8281"/><text fill="#000000" font-family="sans-serif" font-size="5.2" font-weight="bold" lengthAdjust="spacing" textLength="10" x="92" y="119.723">14.6</text><text fill="#000000" font-family="sans-serif" font-size="5.2" lengthAdjust="spacing" textLength="49.6" x="103.6" y="119.723">authenticationFacade</text><polygon fill="#181818" points="309,132.7445,313,134.3445,309,135.9445,310.6,134.3445" style="stroke:#181818;stroke-width:0.4000000000000001;"/><line style="stroke:#181818;stroke-width:0.4000000000000001;" x1="85.2" x2="311.4" y1="134.3445" y2="134.3445"/><text fill="#000000" font-family="sans-serif" font-size="5.2" font-weight="bold" lengthAdjust="spacing" textLength="10" x="88" y="132.2395">14.7</text><text fill="#000000" font-family="sans-serif" font-size="5.2" lengthAdjust="spacing" textLength="56.8" x="99.6" y="132.2395">getCurrentUserSession()</text><polygon fill="#181818" points="89.6,145.2609,85.6,146.8609,89.6,148.4609,88,146.8609" style="stroke:#181818;stroke-width:0.4000000000000001;"/><line style="stroke:#181818;stroke-width:0.4000000000000001;stroke-dasharray:2.0,2.0;" x1="87.2" x2="315.4" y1="146.8609" y2="146.8609"/><text fill="#000000" font-family="sans-serif" font-size="5.2" font-weight="bold" lengthAdjust="spacing" textLength="10" x="92" y="144.7559">14.8</text><text fill="#000000" font-family="sans-serif" font-size="5.2" lengthAdjust="spacing" textLength="28.8" x="103.6" y="144.7559">userSession</text><polygon fill="#181818" points="362.6,157.7773,366.6,159.3773,362.6,160.9773,364.2,159.3773" style="stroke:#181818;stroke-width:0.4000000000000001;"/><line style="stroke:#181818;stroke-width:0.4000000000000001;" x1="85.2" x2="365" y1="159.3773" y2="159.3773"/><text fill="#000000" font-family="sans-serif" font-size="5.2" font-weight="bold" lengthAdjust="spacing" textLength="10" x="88" y="157.2723">14.9</text><text fill="#000000" font-family="sans-serif" font-size="5.2" lengthAdjust="spacing" textLength="25.2" x="99.6" y="157.2723">getUserId()</text><polygon fill="#181818" points="89.6,170.2938,85.6,171.8938,89.6,173.4938,88,171.8938" style="stroke:#181818;stroke-width:0.4000000000000001;"/><line style="stroke:#181818;stroke-width:0.4000000000000001;stroke-dasharray:2.0,2.0;" x1="87.2" x2="369" y1="171.8938" y2="171.8938"/><text fill="#000000" font-family="sans-serif" font-size="5.2" font-weight="bold" lengthAdjust="spacing" textLength="12.8" x="92" y="169.7887">14.10</text><text fill="#000000" font-family="sans-serif" font-size="5.2" lengthAdjust="spacing" textLength="12.4" x="106.4" y="169.7887">email</text><polygon fill="#181818" points="4.4,185.6102,0.4,187.2102,4.4,188.8102,2.8,187.2102" style="stroke:#181818;stroke-width:0.4000000000000001;"/><line style="stroke:#181818;stroke-width:0.4000000000000001;stroke-dasharray:2.0,2.0;" x1="2" x2="82.8" y1="187.2102" y2="187.2102"/><text fill="#000000" font-family="sans-serif" font-size="5.2" font-weight="bold" lengthAdjust="spacing" textLength="5.6" x="6.8" y="185.1051">15</text><text fill="#000000" font-family="sans-serif" font-size="5.2" lengthAdjust="spacing" textLength="12.4" x="14" y="185.1051">email</text><!--SRC=[bPJ1JiCm38RlUGgB2t0OqYIuJ0XfciQ4119QuSR5jAQBQ9CgIO6zFMxQbGIMIlIonVR_-slYrBvBrQ316cgjTBupkYPmfYLXnqo3-JkMbBbzHM0eTwZAAYomEopqfrGbl65bIGXidLPj_Kf6YDETB0ZUj7Ql-ai8LZYPomQLWvF5iYZMofdziYHLu4hpVrrL5PaJG0khf-tzBy6M6csbqqQIzJNRzMDSOeAA5tLKaCKAfjsHuZKwgTKes2zUr3AHyawnRihp5dCiQF3h5wD3lupLhIN3rS_yav6rxE3Bkt2ukJ2_509cDtwZO04bkNMDijfa3xTya8Fqx3oMNCm5vav-eAD-Xu6VqkYsWGqvO35u5-4JXyUtu5QyVRxHdR8y1pcnUrWsEdVd4cKu0BE1TG7XAKLb1QKj0eRCGwIEPm8g-qEL1LYfKPX0p8upnawUTjKQmw7WL5ESloOhBefoIVPXh1BSKmt2DnW6z__qG_i_v7qye6v__APWZ_aTGFrjwH0xjhiYXTNVdZ3LHG8KybEVWFXHyvTA3AypNgeh7xcUpNeeE9W51lwgVGC0]--></g></svg>