<?xml version="1.0" encoding="us-ascii" standalone="no"?><svg xmlns="http://www.w3.org/2000/svg" xmlns:xlink="http://www.w3.org/1999/xlink" contentStyleType="text/css" height="250.2px" preserveAspectRatio="none" style="width:348px;height:250px;background:#FFFFFF;" version="1.1" viewBox="0 0 348 250" width="348px" zoomAndPan="magnify"><defs/><g><rect fill="#FFFFFF" height="151.3969" style="stroke:#181818;stroke-width:0.6;" width="6" x="101.4" y="54.3199"/><rect fill="#FFFFFF" height="18.7746" style="stroke:#181818;stroke-width:0.6;" width="6" x="193.5" y="88.8691"/><rect fill="#FFFFFF" height="18.7746" style="stroke:#181818;stroke-width:0.6;" width="6" x="257.7" y="126.4184"/><rect fill="#FFFFFF" height="18.7746" style="stroke:#181818;stroke-width:0.6;" width="6" x="314.1" y="163.9676"/><rect fill="none" height="124.2223" style="stroke:#000000;stroke-width:0.8999999999999999;" width="303" x="41.4" y="63.3199"/><line style="stroke:#181818;stroke-width:0.3;stroke-dasharray:5.0,5.0;" x1="104.4" x2="104.4" y1="34.3453" y2="216.5168"/><line style="stroke:#181818;stroke-width:0.3;stroke-dasharray:5.0,5.0;" x1="196.2" x2="196.2" y1="34.3453" y2="216.5168"/><line style="stroke:#181818;stroke-width:0.3;stroke-dasharray:5.0,5.0;" x1="260.4" x2="260.4" y1="34.3453" y2="216.5168"/><line style="stroke:#181818;stroke-width:0.3;stroke-dasharray:5.0,5.0;" x1="316.8" x2="316.8" y1="34.3453" y2="216.5168"/><rect fill="#E3E3E3" height="19.5727" rx="1.5" ry="1.5" style="stroke:#181818;stroke-width:0.3;" width="114" x="47.4" y="14.1727"/><text fill="#000000" font-family="sans-serif" font-size="8.4" lengthAdjust="spacing" textLength="105.6" x="51.6" y="27.4371">:AddEntryAgendaControlller</text><rect fill="#E3E3E3" height="19.5727" rx="1.5" ry="1.5" style="stroke:#181818;stroke-width:0.3;" width="114" x="47.4" y="215.9168"/><text fill="#000000" font-family="sans-serif" font-size="8.4" lengthAdjust="spacing" textLength="105.6" x="51.6" y="229.1813">:AddEntryAgendaControlller</text><rect fill="#E3E3E3" height="19.5727" rx="1.5" ry="1.5" style="stroke:#181818;stroke-width:0.3;" width="58.2" x="167.4" y="14.1727"/><text fill="#000000" font-family="sans-serif" font-size="8.4" lengthAdjust="spacing" textLength="49.8" x="171.6" y="27.4371">:Repositories</text><rect fill="#E3E3E3" height="19.5727" rx="1.5" ry="1.5" style="stroke:#181818;stroke-width:0.3;" width="58.2" x="167.4" y="215.9168"/><text fill="#000000" font-family="sans-serif" font-size="8.4" lengthAdjust="spacing" textLength="49.8" x="171.6" y="229.1813">:Repositories</text><rect fill="#E3E3E3" height="30.7453" rx="1.5" ry="1.5" style="stroke:#181818;stroke-width:0.3;" width="58.2" x="231.6" y="3"/><text fill="#000000" font-family="sans-serif" font-size="8.4" lengthAdjust="spacing" textLength="44.4" x="238.5" y="16.2645">repositories</text><text fill="#000000" font-family="sans-serif" font-size="8.4" lengthAdjust="spacing" textLength="49.8" x="235.8" y="27.4371">:Repositories</text><rect fill="#E3E3E3" height="30.7453" rx="1.5" ry="1.5" style="stroke:#181818;stroke-width:0.3;" width="58.2" x="231.6" y="215.9168"/><text fill="#000000" font-family="sans-serif" font-size="8.4" lengthAdjust="spacing" textLength="44.4" x="238.5" y="229.1813">repositories</text><text fill="#000000" font-family="sans-serif" font-size="8.4" lengthAdjust="spacing" textLength="49.8" x="235.8" y="240.3539">:Repositories</text><rect fill="#E3E3E3" height="30.7453" rx="1.5" ry="1.5" style="stroke:#181818;stroke-width:0.3;" width="42.6" x="295.8" y="3"/><text fill="#000000" font-family="sans-serif" font-size="8.4" lengthAdjust="spacing" textLength="33.6" x="300.3" y="16.2645">toDoList:</text><text fill="#000000" font-family="sans-serif" font-size="8.4" lengthAdjust="spacing" textLength="34.2" x="300" y="27.4371">ToDoList</text><rect fill="#E3E3E3" height="30.7453" rx="1.5" ry="1.5" style="stroke:#181818;stroke-width:0.3;" width="42.6" x="295.8" y="215.9168"/><text fill="#000000" font-family="sans-serif" font-size="8.4" lengthAdjust="spacing" textLength="33.6" x="300.3" y="229.1813">toDoList:</text><text fill="#000000" font-family="sans-serif" font-size="8.4" lengthAdjust="spacing" textLength="34.2" x="300" y="240.3539">ToDoList</text><rect fill="#FFFFFF" height="151.3969" style="stroke:#181818;stroke-width:0.6;" width="6" x="101.4" y="54.3199"/><rect fill="#FFFFFF" height="18.7746" style="stroke:#181818;stroke-width:0.6;" width="6" x="193.5" y="88.8691"/><rect fill="#FFFFFF" height="18.7746" style="stroke:#181818;stroke-width:0.6;" width="6" x="257.7" y="126.4184"/><rect fill="#FFFFFF" height="18.7746" style="stroke:#181818;stroke-width:0.6;" width="6" x="314.1" y="163.9676"/><polygon fill="#181818" points="94.2,51.9199,100.2,54.3199,94.2,56.7199,96.6,54.3199" style="stroke:#181818;stroke-width:0.6;"/><line style="stroke:#181818;stroke-width:0.6;" x1="0" x2="97.8" y1="54.3199" y2="54.3199"/><text fill="#000000" font-family="sans-serif" font-size="7.8" font-weight="bold" lengthAdjust="spacing" textLength="8.4" x="4.2" y="51.1623">12</text><text fill="#000000" font-family="sans-serif" font-size="7.8" lengthAdjust="spacing" textLength="79.2" x="15" y="51.1623">getTaskByIndex(index)</text><path d="M41.4,63.3199 L128.4,63.3199 L128.4,68.8945 L122.4,74.8945 L41.4,74.8945 L41.4,63.3199 " fill="#EEEEEE" style="stroke:#000000;stroke-width:0.8999999999999999;"/><rect fill="none" height="124.2223" style="stroke:#000000;stroke-width:0.8999999999999999;" width="303" x="41.4" y="63.3199"/><text fill="#000000" font-family="sans-serif" font-size="7.8" font-weight="bold" lengthAdjust="spacing" textLength="60" x="50.4" y="72.3369">Get Task Object</text><polygon fill="#181818" points="186.3,86.4691,192.3,88.8691,186.3,91.2691,188.7,88.8691" style="stroke:#181818;stroke-width:0.6;"/><line style="stroke:#181818;stroke-width:0.6;" x1="107.4" x2="189.9" y1="88.8691" y2="88.8691"/><text fill="#000000" font-family="sans-serif" font-size="7.8" font-weight="bold" lengthAdjust="spacing" textLength="15" x="111.6" y="85.7115">12.1</text><text fill="#000000" font-family="sans-serif" font-size="7.8" lengthAdjust="spacing" textLength="45" x="129" y="85.7115">getInstance()</text><polygon fill="#181818" points="114,105.2437,108,107.6438,114,110.0438,111.6,107.6438" style="stroke:#181818;stroke-width:0.6;"/><line style="stroke:#181818;stroke-width:0.6;stroke-dasharray:2.0,2.0;" x1="110.4" x2="195.9" y1="107.6438" y2="107.6438"/><text fill="#000000" font-family="sans-serif" font-size="7.8" font-weight="bold" lengthAdjust="spacing" textLength="15" x="117.6" y="104.4861">12.2</text><text fill="#000000" font-family="sans-serif" font-size="7.8" lengthAdjust="spacing" textLength="40.2" x="135" y="104.4861">repositories</text><polygon fill="#181818" points="250.5,124.0184,256.5,126.4184,250.5,128.8184,252.9,126.4184" style="stroke:#181818;stroke-width:0.6;"/><line style="stroke:#181818;stroke-width:0.6;" x1="107.4" x2="254.1" y1="126.4184" y2="126.4184"/><text fill="#000000" font-family="sans-serif" font-size="7.8" font-weight="bold" lengthAdjust="spacing" textLength="15" x="111.6" y="123.2607">12.3</text><text fill="#000000" font-family="sans-serif" font-size="7.8" lengthAdjust="spacing" textLength="46.2" x="129" y="123.2607">getToDoList()</text><polygon fill="#181818" points="114,142.793,108,145.193,114,147.593,111.6,145.193" style="stroke:#181818;stroke-width:0.6;"/><line style="stroke:#181818;stroke-width:0.6;stroke-dasharray:2.0,2.0;" x1="110.4" x2="260.1" y1="145.193" y2="145.193"/><text fill="#000000" font-family="sans-serif" font-size="7.8" font-weight="bold" lengthAdjust="spacing" textLength="15" x="117.6" y="142.0354">12.4</text><text fill="#000000" font-family="sans-serif" font-size="7.8" lengthAdjust="spacing" textLength="28.8" x="135" y="142.0354">toDoList</text><polygon fill="#181818" points="306.9,161.5676,312.9,163.9676,306.9,166.3676,309.3,163.9676" style="stroke:#181818;stroke-width:0.6;"/><line style="stroke:#181818;stroke-width:0.6;" x1="107.4" x2="310.5" y1="163.9676" y2="163.9676"/><text fill="#000000" font-family="sans-serif" font-size="7.8" font-weight="bold" lengthAdjust="spacing" textLength="15" x="111.6" y="160.81">12.5</text><text fill="#000000" font-family="sans-serif" font-size="7.8" lengthAdjust="spacing" textLength="79.2" x="129" y="160.81">getTaskByIndex(index)</text><polygon fill="#181818" points="114,180.3422,108,182.7422,114,185.1422,111.6,182.7422" style="stroke:#181818;stroke-width:0.6;"/><line style="stroke:#181818;stroke-width:0.6;stroke-dasharray:2.0,2.0;" x1="110.4" x2="316.5" y1="182.7422" y2="182.7422"/><text fill="#000000" font-family="sans-serif" font-size="7.8" font-weight="bold" lengthAdjust="spacing" textLength="15" x="117.6" y="179.5846">12.6</text><text fill="#000000" font-family="sans-serif" font-size="7.8" lengthAdjust="spacing" textLength="15" x="135" y="179.5846">task</text><polygon fill="#181818" points="6.6,203.3168,0.6,205.7168,6.6,208.1168,4.2,205.7168" style="stroke:#181818;stroke-width:0.6;"/><line style="stroke:#181818;stroke-width:0.6;stroke-dasharray:2.0,2.0;" x1="3" x2="103.8" y1="205.7168" y2="205.7168"/><text fill="#000000" font-family="sans-serif" font-size="7.8" font-weight="bold" lengthAdjust="spacing" textLength="8.4" x="10.2" y="202.5592">13</text><text fill="#000000" font-family="sans-serif" font-size="7.8" lengthAdjust="spacing" textLength="15" x="21" y="202.5592">task</text><!--SRC=[VPB1Ri8m38RlUGgBo-3GIMotQfh469gGa3PHZbn2Qqf66rU9ky7RBuJIfOCkXpIoVpjVVjVkbQwaaIMKf2dT6IeHsDGeR9kfPBgNEIPyB10CfYnrNeG2kvCPVIkTmrOM5eMGDPEkomqQ8UvsAaFO4l663aAu2bQfggHc6CIJB9jfDiT9ZZgJKt9dAee2pG2aXUbgkVXJiCIAh68o2gtNB6SVNOa956jzio3fLZ2zqa9PZjTwrHozyX8FtmFZ1o4WUlPi44EEl99s_tASwmmFGtNQHrtz_LZ8bDMNP3o_2DpA3TKLl273gHpUDv_EL-5Jb-LlS3SvO7_FN5ldV8h3KKVMzZuvqScu04GDQWoXBnrPXlqj0eRa_DZ6atyWaYkA9C1eJUr7I6upj6FgCVqcp-yCm_Gb6dAvXdrCtIRkJ_NVSCYFFl8KHMTQQFe5FVpaVm00]--></g></svg>