<?xml version="1.0" encoding="us-ascii" standalone="no"?><svg xmlns="http://www.w3.org/2000/svg" xmlns:xlink="http://www.w3.org/1999/xlink" contentStyleType="text/css" height="1348px" preserveAspectRatio="none" style="width:1760px;height:1348px;background:#FFFFFF;" version="1.1" viewBox="0 0 1760 1348" width="1760px" zoomAndPan="magnify"><defs/><g><!--class AddEntryAgendaUI--><g id="elem_AddEntryAgendaUI"><rect codeLine="11" fill="#F1F1F1" height="48" id="AddEntryAgendaUI" rx="2.5" ry="2.5" style="stroke:#181818;stroke-width:0.5;" width="151" x="698" y="7"/><ellipse cx="713" cy="23" fill="#ADD1B2" rx="11" ry="11" style="stroke:#181818;stroke-width:1.0;"/><path d="M715.7656,18.875 Q715.9219,18.6563 716.1094,18.5469 Q716.2969,18.4375 716.5156,18.4375 Q716.8906,18.4375 717.125,18.7031 Q717.3594,18.9531 717.3594,19.5625 L717.3594,21.0156 Q717.3594,21.625 717.125,21.8906 Q716.8906,22.1563 716.5156,22.1563 Q716.1719,22.1563 715.9688,21.9531 Q715.7656,21.7656 715.6563,21.25 Q715.6094,20.8906 715.4219,20.7031 Q715.0938,20.3281 714.4844,20.1094 Q713.875,19.8906 713.25,19.8906 Q712.4844,19.8906 711.8438,20.2188 Q711.2188,20.5469 710.7188,21.2969 Q710.2344,22.0469 710.2344,23.0781 L710.2344,24.1719 Q710.2344,25.4063 711.125,26.2344 Q712.0156,27.0469 713.6094,27.0469 Q714.5469,27.0469 715.2031,26.7969 Q715.5938,26.6406 716.0156,26.2031 Q716.2813,25.9375 716.4219,25.8594 Q716.5781,25.7813 716.7813,25.7813 Q717.1094,25.7813 717.3594,26.0469 Q717.625,26.2969 717.625,26.6406 Q717.625,26.9844 717.2813,27.3906 Q716.7813,27.9688 715.9844,28.2969 Q714.9063,28.75 713.6094,28.75 Q712.0938,28.75 710.8906,28.125 Q709.9063,27.625 709.2188,26.5625 Q708.5313,25.4844 708.5313,24.2031 L708.5313,23.0469 Q708.5313,21.7188 709.1406,20.5781 Q709.7656,19.4219 710.8594,18.8125 Q711.9531,18.1875 713.1875,18.1875 Q713.9219,18.1875 714.5625,18.3594 Q715.2188,18.5156 715.7656,18.875 Z " fill="#000000"/><text fill="#000000" font-family="sans-serif" font-size="14" lengthAdjust="spacing" textLength="119" x="727" y="28.7969">AddEntryAgendaUI</text><line style="stroke:#181818;stroke-width:0.5;" x1="699" x2="848" y1="39" y2="39"/><line style="stroke:#181818;stroke-width:0.5;" x1="699" x2="848" y1="47" y2="47"/></g><!--class AddEntryAgendaController--><g id="elem_AddEntryAgendaController"><rect codeLine="14" fill="#F1F1F1" height="141.1055" id="AddEntryAgendaController" rx="2.5" ry="2.5" style="stroke:#181818;stroke-width:0.5;" width="472" x="537.5" y="116"/><ellipse cx="684.75" cy="132" fill="#ADD1B2" rx="11" ry="11" style="stroke:#181818;stroke-width:1.0;"/><path d="M687.5156,127.875 Q687.6719,127.6563 687.8594,127.5469 Q688.0469,127.4375 688.2656,127.4375 Q688.6406,127.4375 688.875,127.7031 Q689.1094,127.9531 689.1094,128.5625 L689.1094,130.0156 Q689.1094,130.625 688.875,130.8906 Q688.6406,131.1563 688.2656,131.1563 Q687.9219,131.1563 687.7188,130.9531 Q687.5156,130.7656 687.4063,130.25 Q687.3594,129.8906 687.1719,129.7031 Q686.8438,129.3281 686.2344,129.1094 Q685.625,128.8906 685,128.8906 Q684.2344,128.8906 683.5938,129.2188 Q682.9688,129.5469 682.4688,130.2969 Q681.9844,131.0469 681.9844,132.0781 L681.9844,133.1719 Q681.9844,134.4063 682.875,135.2344 Q683.7656,136.0469 685.3594,136.0469 Q686.2969,136.0469 686.9531,135.7969 Q687.3438,135.6406 687.7656,135.2031 Q688.0313,134.9375 688.1719,134.8594 Q688.3281,134.7813 688.5313,134.7813 Q688.8594,134.7813 689.1094,135.0469 Q689.375,135.2969 689.375,135.6406 Q689.375,135.9844 689.0313,136.3906 Q688.5313,136.9688 687.7344,137.2969 Q686.6563,137.75 685.3594,137.75 Q683.8438,137.75 682.6406,137.125 Q681.6563,136.625 680.9688,135.5625 Q680.2813,134.4844 680.2813,133.2031 L680.2813,132.0469 Q680.2813,130.7188 680.8906,129.5781 Q681.5156,128.4219 682.6094,127.8125 Q683.7031,127.1875 684.9375,127.1875 Q685.6719,127.1875 686.3125,127.3594 Q686.9688,127.5156 687.5156,127.875 Z " fill="#000000"/><text fill="#000000" font-family="sans-serif" font-size="14" lengthAdjust="spacing" textLength="169" x="705.25" y="137.7969">AddEntryAgendaController</text><line style="stroke:#181818;stroke-width:0.5;" x1="538.5" x2="1008.5" y1="148" y2="148"/><line style="stroke:#181818;stroke-width:0.5;" x1="538.5" x2="1008.5" y1="156" y2="156"/><text fill="#000000" font-family="sans-serif" font-size="14" lengthAdjust="spacing" textLength="460" x="543.5" y="175.1074">+AddEntryAgendaController(agenda, toDoList, authenticationRepository)</text><text fill="#000000" font-family="sans-serif" font-size="14" lengthAdjust="spacing" textLength="242" x="543.5" y="193.7285">+addEntryAgenda(startingDate, index)</text><text fill="#000000" font-family="sans-serif" font-size="14" lengthAdjust="spacing" textLength="148" x="543.5" y="212.3496">-getTaskByIndex(index)</text><text fill="#000000" font-family="sans-serif" font-size="14" lengthAdjust="spacing" textLength="149" x="543.5" y="230.9707">-getGSMFromSession()</text><text fill="#000000" font-family="sans-serif" font-size="14" lengthAdjust="spacing" textLength="128" x="543.5" y="249.5918">+getTasksListDTO()</text></g><!--class Agenda--><g id="elem_Agenda"><rect codeLine="22" fill="#F1F1F1" height="122.4844" id="Agenda" rx="2.5" ry="2.5" style="stroke:#181818;stroke-width:0.5;" width="364" x="393.5" y="585"/><ellipse cx="546.75" cy="601" fill="#ADD1B2" rx="11" ry="11" style="stroke:#181818;stroke-width:1.0;"/><path d="M549.5156,596.875 Q549.6719,596.6563 549.8594,596.5469 Q550.0469,596.4375 550.2656,596.4375 Q550.6406,596.4375 550.875,596.7031 Q551.1094,596.9531 551.1094,597.5625 L551.1094,599.0156 Q551.1094,599.625 550.875,599.8906 Q550.6406,600.1563 550.2656,600.1563 Q549.9219,600.1563 549.7188,599.9531 Q549.5156,599.7656 549.4063,599.25 Q549.3594,598.8906 549.1719,598.7031 Q548.8438,598.3281 548.2344,598.1094 Q547.625,597.8906 547,597.8906 Q546.2344,597.8906 545.5938,598.2188 Q544.9688,598.5469 544.4688,599.2969 Q543.9844,600.0469 543.9844,601.0781 L543.9844,602.1719 Q543.9844,603.4063 544.875,604.2344 Q545.7656,605.0469 547.3594,605.0469 Q548.2969,605.0469 548.9531,604.7969 Q549.3438,604.6406 549.7656,604.2031 Q550.0313,603.9375 550.1719,603.8594 Q550.3281,603.7813 550.5313,603.7813 Q550.8594,603.7813 551.1094,604.0469 Q551.375,604.2969 551.375,604.6406 Q551.375,604.9844 551.0313,605.3906 Q550.5313,605.9688 549.7344,606.2969 Q548.6563,606.75 547.3594,606.75 Q545.8438,606.75 544.6406,606.125 Q543.6563,605.625 542.9688,604.5625 Q542.2813,603.4844 542.2813,602.2031 L542.2813,601.0469 Q542.2813,599.7188 542.8906,598.5781 Q543.5156,597.4219 544.6094,596.8125 Q545.7031,596.1875 546.9375,596.1875 Q547.6719,596.1875 548.3125,596.3594 Q548.9688,596.5156 549.5156,596.875 Z " fill="#000000"/><text fill="#000000" font-family="sans-serif" font-size="14" lengthAdjust="spacing" textLength="49" x="567.25" y="606.7969">Agenda</text><line style="stroke:#181818;stroke-width:0.5;" x1="394.5" x2="756.5" y1="617" y2="617"/><line style="stroke:#181818;stroke-width:0.5;" x1="394.5" x2="756.5" y1="625" y2="625"/><text fill="#000000" font-family="sans-serif" font-size="14" lengthAdjust="spacing" textLength="352" x="399.5" y="644.1074">+addEntryAgenda(startingDate, task, gsmFromSession)</text><text fill="#000000" font-family="sans-serif" font-size="14" lengthAdjust="spacing" textLength="221" x="399.5" y="662.7285">-addEntry(gsmFromSession, entry)</text><text fill="#000000" font-family="sans-serif" font-size="14" lengthAdjust="spacing" textLength="129" x="399.5" y="681.3496">-validateEntry(entry)</text><text fill="#000000" font-family="sans-serif" font-size="14" lengthAdjust="spacing" textLength="242" x="399.5" y="699.9707">-validateUser(gsmFromSession, entry)</text></g><!--class Entry--><g id="elem_Entry"><rect codeLine="29" fill="#F1F1F1" height="122.4844" id="Entry" rx="2.5" ry="2.5" style="stroke:#181818;stroke-width:0.5;" width="202" x="477.5" y="815"/><ellipse cx="557.75" cy="831" fill="#ADD1B2" rx="11" ry="11" style="stroke:#181818;stroke-width:1.0;"/><path d="M560.5156,826.875 Q560.6719,826.6563 560.8594,826.5469 Q561.0469,826.4375 561.2656,826.4375 Q561.6406,826.4375 561.875,826.7031 Q562.1094,826.9531 562.1094,827.5625 L562.1094,829.0156 Q562.1094,829.625 561.875,829.8906 Q561.6406,830.1563 561.2656,830.1563 Q560.9219,830.1563 560.7188,829.9531 Q560.5156,829.7656 560.4063,829.25 Q560.3594,828.8906 560.1719,828.7031 Q559.8438,828.3281 559.2344,828.1094 Q558.625,827.8906 558,827.8906 Q557.2344,827.8906 556.5938,828.2188 Q555.9688,828.5469 555.4688,829.2969 Q554.9844,830.0469 554.9844,831.0781 L554.9844,832.1719 Q554.9844,833.4063 555.875,834.2344 Q556.7656,835.0469 558.3594,835.0469 Q559.2969,835.0469 559.9531,834.7969 Q560.3438,834.6406 560.7656,834.2031 Q561.0313,833.9375 561.1719,833.8594 Q561.3281,833.7813 561.5313,833.7813 Q561.8594,833.7813 562.1094,834.0469 Q562.375,834.2969 562.375,834.6406 Q562.375,834.9844 562.0313,835.3906 Q561.5313,835.9688 560.7344,836.2969 Q559.6563,836.75 558.3594,836.75 Q556.8438,836.75 555.6406,836.125 Q554.6563,835.625 553.9688,834.5625 Q553.2813,833.4844 553.2813,832.2031 L553.2813,831.0469 Q553.2813,829.7188 553.8906,828.5781 Q554.5156,827.4219 555.6094,826.8125 Q556.7031,826.1875 557.9375,826.1875 Q558.6719,826.1875 559.3125,826.3594 Q559.9688,826.5156 560.5156,826.875 Z " fill="#000000"/><text fill="#000000" font-family="sans-serif" font-size="14" lengthAdjust="spacing" textLength="33" x="578.25" y="836.7969">Entry</text><line style="stroke:#181818;stroke-width:0.5;" x1="478.5" x2="678.5" y1="847" y2="847"/><text fill="#000000" font-family="sans-serif" font-size="14" lengthAdjust="spacing" textLength="116" x="483.5" y="866.1074">-Date startingDate</text><text fill="#000000" font-family="sans-serif" font-size="14" lengthAdjust="spacing" textLength="122" x="483.5" y="884.7285">-Team teamAssign;</text><text fill="#000000" font-family="sans-serif" font-size="14" lengthAdjust="spacing" textLength="190" x="483.5" y="903.3496">-List&lt;Vehicle&gt; vehiclesAssign;</text><line style="stroke:#181818;stroke-width:0.5;" x1="478.5" x2="678.5" y1="910.8633" y2="910.8633"/><text fill="#000000" font-family="sans-serif" font-size="14" lengthAdjust="spacing" textLength="162" x="483.5" y="929.9707">+Entry(startingDate, task)</text></g><!--class ToDoList--><g id="elem_ToDoList"><rect codeLine="36" fill="#F1F1F1" height="66.6211" id="ToDoList" rx="2.5" ry="2.5" style="stroke:#181818;stroke-width:0.5;" width="163" x="195" y="612.5"/><ellipse cx="243.75" cy="628.5" fill="#ADD1B2" rx="11" ry="11" style="stroke:#181818;stroke-width:1.0;"/><path d="M246.5156,624.375 Q246.6719,624.1563 246.8594,624.0469 Q247.0469,623.9375 247.2656,623.9375 Q247.6406,623.9375 247.875,624.2031 Q248.1094,624.4531 248.1094,625.0625 L248.1094,626.5156 Q248.1094,627.125 247.875,627.3906 Q247.6406,627.6563 247.2656,627.6563 Q246.9219,627.6563 246.7188,627.4531 Q246.5156,627.2656 246.4063,626.75 Q246.3594,626.3906 246.1719,626.2031 Q245.8438,625.8281 245.2344,625.6094 Q244.625,625.3906 244,625.3906 Q243.2344,625.3906 242.5938,625.7188 Q241.9688,626.0469 241.4688,626.7969 Q240.9844,627.5469 240.9844,628.5781 L240.9844,629.6719 Q240.9844,630.9063 241.875,631.7344 Q242.7656,632.5469 244.3594,632.5469 Q245.2969,632.5469 245.9531,632.2969 Q246.3438,632.1406 246.7656,631.7031 Q247.0313,631.4375 247.1719,631.3594 Q247.3281,631.2813 247.5313,631.2813 Q247.8594,631.2813 248.1094,631.5469 Q248.375,631.7969 248.375,632.1406 Q248.375,632.4844 248.0313,632.8906 Q247.5313,633.4688 246.7344,633.7969 Q245.6563,634.25 244.3594,634.25 Q242.8438,634.25 241.6406,633.625 Q240.6563,633.125 239.9688,632.0625 Q239.2813,630.9844 239.2813,629.7031 L239.2813,628.5469 Q239.2813,627.2188 239.8906,626.0781 Q240.5156,624.9219 241.6094,624.3125 Q242.7031,623.6875 243.9375,623.6875 Q244.6719,623.6875 245.3125,623.8594 Q245.9688,624.0156 246.5156,624.375 Z " fill="#000000"/><text fill="#000000" font-family="sans-serif" font-size="14" lengthAdjust="spacing" textLength="57" x="264.25" y="634.2969">ToDoList</text><line style="stroke:#181818;stroke-width:0.5;" x1="196" x2="357" y1="644.5" y2="644.5"/><line style="stroke:#181818;stroke-width:0.5;" x1="196" x2="357" y1="652.5" y2="652.5"/><text fill="#000000" font-family="sans-serif" font-size="14" lengthAdjust="spacing" textLength="151" x="201" y="671.6074">+getTaskByIndex(index)</text></g><!--class Task--><g id="elem_Task"><rect codeLine="40" fill="#F1F1F1" height="196.9688" id="Task" rx="2.5" ry="2.5" style="stroke:#181818;stroke-width:0.5;" width="519" x="7" y="998"/><ellipse cx="246.75" cy="1014" fill="#ADD1B2" rx="11" ry="11" style="stroke:#181818;stroke-width:1.0;"/><path d="M249.5156,1009.875 Q249.6719,1009.6563 249.8594,1009.5469 Q250.0469,1009.4375 250.2656,1009.4375 Q250.6406,1009.4375 250.875,1009.7031 Q251.1094,1009.9531 251.1094,1010.5625 L251.1094,1012.0156 Q251.1094,1012.625 250.875,1012.8906 Q250.6406,1013.1563 250.2656,1013.1563 Q249.9219,1013.1563 249.7188,1012.9531 Q249.5156,1012.7656 249.4063,1012.25 Q249.3594,1011.8906 249.1719,1011.7031 Q248.8438,1011.3281 248.2344,1011.1094 Q247.625,1010.8906 247,1010.8906 Q246.2344,1010.8906 245.5938,1011.2188 Q244.9688,1011.5469 244.4688,1012.2969 Q243.9844,1013.0469 243.9844,1014.0781 L243.9844,1015.1719 Q243.9844,1016.4063 244.875,1017.2344 Q245.7656,1018.0469 247.3594,1018.0469 Q248.2969,1018.0469 248.9531,1017.7969 Q249.3438,1017.6406 249.7656,1017.2031 Q250.0313,1016.9375 250.1719,1016.8594 Q250.3281,1016.7813 250.5313,1016.7813 Q250.8594,1016.7813 251.1094,1017.0469 Q251.375,1017.2969 251.375,1017.6406 Q251.375,1017.9844 251.0313,1018.3906 Q250.5313,1018.9688 249.7344,1019.2969 Q248.6563,1019.75 247.3594,1019.75 Q245.8438,1019.75 244.6406,1019.125 Q243.6563,1018.625 242.9688,1017.5625 Q242.2813,1016.4844 242.2813,1015.2031 L242.2813,1014.0469 Q242.2813,1012.7188 242.8906,1011.5781 Q243.5156,1010.4219 244.6094,1009.8125 Q245.7031,1009.1875 246.9375,1009.1875 Q247.6719,1009.1875 248.3125,1009.3594 Q248.9688,1009.5156 249.5156,1009.875 Z " fill="#000000"/><text fill="#000000" font-family="sans-serif" font-size="14" lengthAdjust="spacing" textLength="31" x="267.25" y="1019.7969">Task</text><line style="stroke:#181818;stroke-width:0.5;" x1="8" x2="525" y1="1030" y2="1030"/><text fill="#000000" font-family="sans-serif" font-size="14" lengthAdjust="spacing" textLength="68" x="13" y="1049.1074">-String title</text><text fill="#000000" font-family="sans-serif" font-size="14" lengthAdjust="spacing" textLength="115" x="13" y="1067.7285">-String description</text><text fill="#000000" font-family="sans-serif" font-size="14" lengthAdjust="spacing" textLength="239" x="13" y="1086.3496">-EmergencyDegree degreeOfUrgency</text><text fill="#000000" font-family="sans-serif" font-size="14" lengthAdjust="spacing" textLength="135" x="13" y="1104.9707">-int expectedDuration</text><text fill="#000000" font-family="sans-serif" font-size="14" lengthAdjust="spacing" textLength="99" x="13" y="1123.5918">-TaskType type</text><text fill="#000000" font-family="sans-serif" font-size="14" lengthAdjust="spacing" textLength="166" x="13" y="1142.2129">-GreenSpace greenSpace</text><line style="stroke:#181818;stroke-width:0.5;" x1="8" x2="525" y1="1149.7266" y2="1149.7266"/><text fill="#000000" font-family="sans-serif" font-size="14" lengthAdjust="spacing" textLength="507" x="13" y="1168.834">+Task(title, description, degreeOfUrgency, expectedDuration, type, greenSpace)</text><text fill="#000000" font-family="sans-serif" font-size="14" lengthAdjust="spacing" textLength="143" x="13" y="1187.4551">+changeStatus(status)</text></g><!--class Repositories--><g id="elem_Repositories"><rect codeLine="51" fill="#F1F1F1" height="141.1055" id="Repositories" rx="2.5" ry="2.5" style="stroke:#181818;stroke-width:0.5;" width="208" x="416.5" y="336"/><ellipse cx="476.75" cy="352" fill="#ADD1B2" rx="11" ry="11" style="stroke:#181818;stroke-width:1.0;"/><path d="M479.5156,347.875 Q479.6719,347.6563 479.8594,347.5469 Q480.0469,347.4375 480.2656,347.4375 Q480.6406,347.4375 480.875,347.7031 Q481.1094,347.9531 481.1094,348.5625 L481.1094,350.0156 Q481.1094,350.625 480.875,350.8906 Q480.6406,351.1563 480.2656,351.1563 Q479.9219,351.1563 479.7188,350.9531 Q479.5156,350.7656 479.4063,350.25 Q479.3594,349.8906 479.1719,349.7031 Q478.8438,349.3281 478.2344,349.1094 Q477.625,348.8906 477,348.8906 Q476.2344,348.8906 475.5938,349.2188 Q474.9688,349.5469 474.4688,350.2969 Q473.9844,351.0469 473.9844,352.0781 L473.9844,353.1719 Q473.9844,354.4063 474.875,355.2344 Q475.7656,356.0469 477.3594,356.0469 Q478.2969,356.0469 478.9531,355.7969 Q479.3438,355.6406 479.7656,355.2031 Q480.0313,354.9375 480.1719,354.8594 Q480.3281,354.7813 480.5313,354.7813 Q480.8594,354.7813 481.1094,355.0469 Q481.375,355.2969 481.375,355.6406 Q481.375,355.9844 481.0313,356.3906 Q480.5313,356.9688 479.7344,357.2969 Q478.6563,357.75 477.3594,357.75 Q475.8438,357.75 474.6406,357.125 Q473.6563,356.625 472.9688,355.5625 Q472.2813,354.4844 472.2813,353.2031 L472.2813,352.0469 Q472.2813,350.7188 472.8906,349.5781 Q473.5156,348.4219 474.6094,347.8125 Q475.7031,347.1875 476.9375,347.1875 Q477.6719,347.1875 478.3125,347.3594 Q478.9688,347.5156 479.5156,347.875 Z " fill="#000000"/><text fill="#000000" font-family="sans-serif" font-size="14" lengthAdjust="spacing" textLength="79" x="497.25" y="357.7969">Repositories</text><line style="stroke:#181818;stroke-width:0.5;" x1="417.5" x2="623.5" y1="368" y2="368"/><line style="stroke:#181818;stroke-width:0.5;" x1="417.5" x2="623.5" y1="376" y2="376"/><text fill="#000000" font-family="sans-serif" font-size="14" lengthAdjust="spacing" textLength="94" x="422.5" y="395.1074">-Repositories()</text><text fill="#000000" font-family="sans-serif" font-size="14" lengthAdjust="spacing" textLength="182" x="422.5" y="413.7285">+getInstance() : Repositories</text><text fill="#000000" font-family="sans-serif" font-size="14" lengthAdjust="spacing" textLength="87" x="422.5" y="432.3496">+getAgenda()</text><text fill="#000000" font-family="sans-serif" font-size="14" lengthAdjust="spacing" textLength="95" x="422.5" y="450.9707">+getToDoList()</text><text fill="#000000" font-family="sans-serif" font-size="14" lengthAdjust="spacing" textLength="196" x="422.5" y="469.5918">+getAuthenticationRepository()</text></g><!--class AgendaStatus--><g id="elem_AgendaStatus"><rect codeLine="59" fill="#F1F1F1" height="122.4844" id="AgendaStatus" rx="2.5" ry="2.5" style="stroke:#181818;stroke-width:0.5;" width="121" x="633" y="1035.5"/><ellipse cx="648" cy="1051.5" fill="#EB937F" rx="11" ry="11" style="stroke:#181818;stroke-width:1.0;"/><path d="M646.8594,1052.2969 L646.8594,1054.7969 L651.1875,1054.7969 L651.1875,1053.875 Q651.1875,1053.2656 651.4219,1053 Q651.6719,1052.7344 652.0469,1052.7344 Q652.4219,1052.7344 652.6563,1053 Q652.8906,1053.2656 652.8906,1053.875 L652.8906,1056.5 L644.8906,1056.5 Q644.2656,1056.5 644,1056.2656 Q643.75,1056.0313 643.75,1055.6406 Q643.75,1055.2656 644.0156,1055.0313 Q644.2813,1054.7969 644.8906,1054.7969 L645.1563,1054.7969 L645.1563,1048.1406 L644.8906,1048.1406 Q644.2656,1048.1406 644,1047.9063 Q643.75,1047.6719 643.75,1047.2813 Q643.75,1046.9063 644,1046.6719 Q644.2656,1046.4375 644.8906,1046.4375 L652.5156,1046.4375 L652.5156,1049.0313 Q652.5156,1049.6406 652.2813,1049.9063 Q652.0625,1050.1563 651.6719,1050.1563 Q651.2969,1050.1563 651.0625,1049.9063 Q650.8281,1049.6406 650.8281,1049.0313 L650.8281,1048.1406 L646.8594,1048.1406 L646.8594,1050.5938 L648.3438,1050.5938 Q648.3438,1049.9375 648.4688,1049.75 Q648.7344,1049.3438 649.2031,1049.3438 Q649.5781,1049.3438 649.8125,1049.6094 Q650.0469,1049.8594 650.0469,1050.4688 L650.0469,1052.4375 Q650.0469,1052.9844 649.9219,1053.1719 Q649.6563,1053.5625 649.2031,1053.5625 Q648.7344,1053.5625 648.4688,1053.1563 Q648.3438,1052.9688 648.3438,1052.2969 L646.8594,1052.2969 Z " fill="#000000"/><text fill="#000000" font-family="sans-serif" font-size="14" lengthAdjust="spacing" textLength="89" x="662" y="1057.2969">AgendaStatus</text><line style="stroke:#181818;stroke-width:0.5;" x1="634" x2="753" y1="1067.5" y2="1067.5"/><text fill="#000000" font-family="sans-serif" font-size="14" lengthAdjust="spacing" textLength="63" x="639" y="1086.6074">PLANNED</text><text fill="#000000" font-family="sans-serif" font-size="14" lengthAdjust="spacing" textLength="86" x="639" y="1105.2285">POSTPONED</text><text fill="#000000" font-family="sans-serif" font-size="14" lengthAdjust="spacing" textLength="74" x="639" y="1123.8496">CANCELED</text><text fill="#000000" font-family="sans-serif" font-size="14" lengthAdjust="spacing" textLength="39" x="639" y="1142.4707">DONE</text><line style="stroke:#181818;stroke-width:0.5;" x1="634" x2="753" y1="1149.9844" y2="1149.9844"/></g><!--class TaskStatus--><g id="elem_TaskStatus"><rect codeLine="66" fill="#F1F1F1" height="85.2422" id="TaskStatus" rx="2.5" ry="2.5" style="stroke:#181818;stroke-width:0.5;" width="103" x="215" y="1256"/><ellipse cx="230" cy="1272" fill="#EB937F" rx="11" ry="11" style="stroke:#181818;stroke-width:1.0;"/><path d="M228.8594,1272.7969 L228.8594,1275.2969 L233.1875,1275.2969 L233.1875,1274.375 Q233.1875,1273.7656 233.4219,1273.5 Q233.6719,1273.2344 234.0469,1273.2344 Q234.4219,1273.2344 234.6563,1273.5 Q234.8906,1273.7656 234.8906,1274.375 L234.8906,1277 L226.8906,1277 Q226.2656,1277 226,1276.7656 Q225.75,1276.5313 225.75,1276.1406 Q225.75,1275.7656 226.0156,1275.5313 Q226.2813,1275.2969 226.8906,1275.2969 L227.1563,1275.2969 L227.1563,1268.6406 L226.8906,1268.6406 Q226.2656,1268.6406 226,1268.4063 Q225.75,1268.1719 225.75,1267.7813 Q225.75,1267.4063 226,1267.1719 Q226.2656,1266.9375 226.8906,1266.9375 L234.5156,1266.9375 L234.5156,1269.5313 Q234.5156,1270.1406 234.2813,1270.4063 Q234.0625,1270.6563 233.6719,1270.6563 Q233.2969,1270.6563 233.0625,1270.4063 Q232.8281,1270.1406 232.8281,1269.5313 L232.8281,1268.6406 L228.8594,1268.6406 L228.8594,1271.0938 L230.3438,1271.0938 Q230.3438,1270.4375 230.4688,1270.25 Q230.7344,1269.8438 231.2031,1269.8438 Q231.5781,1269.8438 231.8125,1270.1094 Q232.0469,1270.3594 232.0469,1270.9688 L232.0469,1272.9375 Q232.0469,1273.4844 231.9219,1273.6719 Q231.6563,1274.0625 231.2031,1274.0625 Q230.7344,1274.0625 230.4688,1273.6563 Q230.3438,1273.4688 230.3438,1272.7969 L228.8594,1272.7969 Z " fill="#000000"/><text fill="#000000" font-family="sans-serif" font-size="14" lengthAdjust="spacing" textLength="71" x="244" y="1277.7969">TaskStatus</text><line style="stroke:#181818;stroke-width:0.5;" x1="216" x2="317" y1="1288" y2="1288"/><text fill="#000000" font-family="sans-serif" font-size="14" lengthAdjust="spacing" textLength="60" x="221" y="1307.1074">PENDING</text><text fill="#000000" font-family="sans-serif" font-size="14" lengthAdjust="spacing" textLength="86" x="221" y="1325.7285">PROCESSED</text><line style="stroke:#181818;stroke-width:0.5;" x1="216" x2="317" y1="1333.2422" y2="1333.2422"/></g><!--class AuthenticationRepository--><g id="elem_AuthenticationRepository"><rect codeLine="71" fill="#F1F1F1" height="66.6211" id="AuthenticationRepository" rx="2.5" ry="2.5" style="stroke:#181818;stroke-width:0.5;" width="190" x="792.5" y="612.5"/><ellipse cx="807.5" cy="628.5" fill="#ADD1B2" rx="11" ry="11" style="stroke:#181818;stroke-width:1.0;"/><path d="M810.2656,624.375 Q810.4219,624.1563 810.6094,624.0469 Q810.7969,623.9375 811.0156,623.9375 Q811.3906,623.9375 811.625,624.2031 Q811.8594,624.4531 811.8594,625.0625 L811.8594,626.5156 Q811.8594,627.125 811.625,627.3906 Q811.3906,627.6563 811.0156,627.6563 Q810.6719,627.6563 810.4688,627.4531 Q810.2656,627.2656 810.1563,626.75 Q810.1094,626.3906 809.9219,626.2031 Q809.5938,625.8281 808.9844,625.6094 Q808.375,625.3906 807.75,625.3906 Q806.9844,625.3906 806.3438,625.7188 Q805.7188,626.0469 805.2188,626.7969 Q804.7344,627.5469 804.7344,628.5781 L804.7344,629.6719 Q804.7344,630.9063 805.625,631.7344 Q806.5156,632.5469 808.1094,632.5469 Q809.0469,632.5469 809.7031,632.2969 Q810.0938,632.1406 810.5156,631.7031 Q810.7813,631.4375 810.9219,631.3594 Q811.0781,631.2813 811.2813,631.2813 Q811.6094,631.2813 811.8594,631.5469 Q812.125,631.7969 812.125,632.1406 Q812.125,632.4844 811.7813,632.8906 Q811.2813,633.4688 810.4844,633.7969 Q809.4063,634.25 808.1094,634.25 Q806.5938,634.25 805.3906,633.625 Q804.4063,633.125 803.7188,632.0625 Q803.0313,630.9844 803.0313,629.7031 L803.0313,628.5469 Q803.0313,627.2188 803.6406,626.0781 Q804.2656,624.9219 805.3594,624.3125 Q806.4531,623.6875 807.6875,623.6875 Q808.4219,623.6875 809.0625,623.8594 Q809.7188,624.0156 810.2656,624.375 Z " fill="#000000"/><text fill="#000000" font-family="sans-serif" font-size="14" lengthAdjust="spacing" textLength="158" x="821.5" y="634.2969">AuthenticationRepository</text><line style="stroke:#181818;stroke-width:0.5;" x1="793.5" x2="981.5" y1="644.5" y2="644.5"/><line style="stroke:#181818;stroke-width:0.5;" x1="793.5" x2="981.5" y1="652.5" y2="652.5"/><text fill="#000000" font-family="sans-serif" font-size="14" lengthAdjust="spacing" textLength="165" x="798.5" y="671.6074">+getCurrentUserSession()</text></g><!--class UserSession--><g id="elem_UserSession"><rect codeLine="75" fill="#F1F1F1" height="66.6211" id="UserSession" rx="2.5" ry="2.5" style="stroke:#181818;stroke-width:0.5;" width="111" x="832" y="842.5"/><ellipse cx="847" cy="858.5" fill="#ADD1B2" rx="11" ry="11" style="stroke:#181818;stroke-width:1.0;"/><path d="M849.7656,854.375 Q849.9219,854.1563 850.1094,854.0469 Q850.2969,853.9375 850.5156,853.9375 Q850.8906,853.9375 851.125,854.2031 Q851.3594,854.4531 851.3594,855.0625 L851.3594,856.5156 Q851.3594,857.125 851.125,857.3906 Q850.8906,857.6563 850.5156,857.6563 Q850.1719,857.6563 849.9688,857.4531 Q849.7656,857.2656 849.6563,856.75 Q849.6094,856.3906 849.4219,856.2031 Q849.0938,855.8281 848.4844,855.6094 Q847.875,855.3906 847.25,855.3906 Q846.4844,855.3906 845.8438,855.7188 Q845.2188,856.0469 844.7188,856.7969 Q844.2344,857.5469 844.2344,858.5781 L844.2344,859.6719 Q844.2344,860.9063 845.125,861.7344 Q846.0156,862.5469 847.6094,862.5469 Q848.5469,862.5469 849.2031,862.2969 Q849.5938,862.1406 850.0156,861.7031 Q850.2813,861.4375 850.4219,861.3594 Q850.5781,861.2813 850.7813,861.2813 Q851.1094,861.2813 851.3594,861.5469 Q851.625,861.7969 851.625,862.1406 Q851.625,862.4844 851.2813,862.8906 Q850.7813,863.4688 849.9844,863.7969 Q848.9063,864.25 847.6094,864.25 Q846.0938,864.25 844.8906,863.625 Q843.9063,863.125 843.2188,862.0625 Q842.5313,860.9844 842.5313,859.7031 L842.5313,858.5469 Q842.5313,857.2188 843.1406,856.0781 Q843.7656,854.9219 844.8594,854.3125 Q845.9531,853.6875 847.1875,853.6875 Q847.9219,853.6875 848.5625,853.8594 Q849.2188,854.0156 849.7656,854.375 Z " fill="#000000"/><text fill="#000000" font-family="sans-serif" font-size="14" lengthAdjust="spacing" textLength="79" x="861" y="864.2969">UserSession</text><line style="stroke:#181818;stroke-width:0.5;" x1="833" x2="942" y1="874.5" y2="874.5"/><line style="stroke:#181818;stroke-width:0.5;" x1="833" x2="942" y1="882.5" y2="882.5"/><text fill="#000000" font-family="sans-serif" font-size="14" lengthAdjust="spacing" textLength="78" x="838" y="901.6074">+getUserId()</text></g><!--class GreenSpaceManager--><g id="elem_GreenSpaceManager"><rect codeLine="79" fill="#F1F1F1" height="85.2422" id="GreenSpaceManager" rx="2.5" ry="2.5" style="stroke:#181818;stroke-width:0.5;" width="199" x="417" y="1256"/><ellipse cx="445.95" cy="1272" fill="#ADD1B2" rx="11" ry="11" style="stroke:#181818;stroke-width:1.0;"/><path d="M448.7156,1267.875 Q448.8719,1267.6563 449.0594,1267.5469 Q449.2469,1267.4375 449.4656,1267.4375 Q449.8406,1267.4375 450.075,1267.7031 Q450.3094,1267.9531 450.3094,1268.5625 L450.3094,1270.0156 Q450.3094,1270.625 450.075,1270.8906 Q449.8406,1271.1563 449.4656,1271.1563 Q449.1219,1271.1563 448.9188,1270.9531 Q448.7156,1270.7656 448.6063,1270.25 Q448.5594,1269.8906 448.3719,1269.7031 Q448.0438,1269.3281 447.4344,1269.1094 Q446.825,1268.8906 446.2,1268.8906 Q445.4344,1268.8906 444.7938,1269.2188 Q444.1688,1269.5469 443.6688,1270.2969 Q443.1844,1271.0469 443.1844,1272.0781 L443.1844,1273.1719 Q443.1844,1274.4063 444.075,1275.2344 Q444.9656,1276.0469 446.5594,1276.0469 Q447.4969,1276.0469 448.1531,1275.7969 Q448.5438,1275.6406 448.9656,1275.2031 Q449.2313,1274.9375 449.3719,1274.8594 Q449.5281,1274.7813 449.7313,1274.7813 Q450.0594,1274.7813 450.3094,1275.0469 Q450.575,1275.2969 450.575,1275.6406 Q450.575,1275.9844 450.2313,1276.3906 Q449.7313,1276.9688 448.9344,1277.2969 Q447.8563,1277.75 446.5594,1277.75 Q445.0438,1277.75 443.8406,1277.125 Q442.8563,1276.625 442.1688,1275.5625 Q441.4813,1274.4844 441.4813,1273.2031 L441.4813,1272.0469 Q441.4813,1270.7188 442.0906,1269.5781 Q442.7156,1268.4219 443.8094,1267.8125 Q444.9031,1267.1875 446.1375,1267.1875 Q446.8719,1267.1875 447.5125,1267.3594 Q448.1688,1267.5156 448.7156,1267.875 Z " fill="#000000"/><text fill="#000000" font-family="sans-serif" font-size="14" lengthAdjust="spacing" textLength="136" x="463.05" y="1277.7969">GreenSpaceManager</text><line style="stroke:#181818;stroke-width:0.5;" x1="418" x2="615" y1="1288" y2="1288"/><text fill="#000000" font-family="sans-serif" font-size="14" lengthAdjust="spacing" textLength="79" x="423" y="1307.1074">-String email</text><line style="stroke:#181818;stroke-width:0.5;" x1="418" x2="615" y1="1314.6211" y2="1314.6211"/><text fill="#000000" font-family="sans-serif" font-size="14" lengthAdjust="spacing" textLength="187" x="423" y="1333.7285">+GreenSpaceManager(email)</text></g><!--class TaskDto--><g id="elem_TaskDto"><rect codeLine="84" fill="#F1F1F1" height="215.5898" id="TaskDto" rx="2.5" ry="2.5" style="stroke:#181818;stroke-width:0.5;" width="735" x="1018" y="538"/><ellipse cx="1354.75" cy="554" fill="#ADD1B2" rx="11" ry="11" style="stroke:#181818;stroke-width:1.0;"/><path d="M1357.5156,549.875 Q1357.6719,549.6563 1357.8594,549.5469 Q1358.0469,549.4375 1358.2656,549.4375 Q1358.6406,549.4375 1358.875,549.7031 Q1359.1094,549.9531 1359.1094,550.5625 L1359.1094,552.0156 Q1359.1094,552.625 1358.875,552.8906 Q1358.6406,553.1563 1358.2656,553.1563 Q1357.9219,553.1563 1357.7188,552.9531 Q1357.5156,552.7656 1357.4063,552.25 Q1357.3594,551.8906 1357.1719,551.7031 Q1356.8438,551.3281 1356.2344,551.1094 Q1355.625,550.8906 1355,550.8906 Q1354.2344,550.8906 1353.5938,551.2188 Q1352.9688,551.5469 1352.4688,552.2969 Q1351.9844,553.0469 1351.9844,554.0781 L1351.9844,555.1719 Q1351.9844,556.4063 1352.875,557.2344 Q1353.7656,558.0469 1355.3594,558.0469 Q1356.2969,558.0469 1356.9531,557.7969 Q1357.3438,557.6406 1357.7656,557.2031 Q1358.0313,556.9375 1358.1719,556.8594 Q1358.3281,556.7813 1358.5313,556.7813 Q1358.8594,556.7813 1359.1094,557.0469 Q1359.375,557.2969 1359.375,557.6406 Q1359.375,557.9844 1359.0313,558.3906 Q1358.5313,558.9688 1357.7344,559.2969 Q1356.6563,559.75 1355.3594,559.75 Q1353.8438,559.75 1352.6406,559.125 Q1351.6563,558.625 1350.9688,557.5625 Q1350.2813,556.4844 1350.2813,555.2031 L1350.2813,554.0469 Q1350.2813,552.7188 1350.8906,551.5781 Q1351.5156,550.4219 1352.6094,549.8125 Q1353.7031,549.1875 1354.9375,549.1875 Q1355.6719,549.1875 1356.3125,549.3594 Q1356.9688,549.5156 1357.5156,549.875 Z " fill="#000000"/><text fill="#000000" font-family="sans-serif" font-size="14" lengthAdjust="spacing" textLength="53" x="1375.25" y="559.7969">TaskDto</text><line style="stroke:#181818;stroke-width:0.5;" x1="1019" x2="1752" y1="570" y2="570"/><text fill="#000000" font-family="sans-serif" font-size="14" lengthAdjust="spacing" textLength="68" x="1024" y="589.1074">-String title</text><text fill="#000000" font-family="sans-serif" font-size="14" lengthAdjust="spacing" textLength="115" x="1024" y="607.7285">-String description</text><text fill="#000000" font-family="sans-serif" font-size="14" lengthAdjust="spacing" textLength="239" x="1024" y="626.3496">-EmergencyDegree degreeOfUrgency</text><text fill="#000000" font-family="sans-serif" font-size="14" lengthAdjust="spacing" textLength="135" x="1024" y="644.9707">-int expectedDuration</text><text fill="#000000" font-family="sans-serif" font-size="14" lengthAdjust="spacing" textLength="99" x="1024" y="663.5918">-TaskType type</text><text fill="#000000" font-family="sans-serif" font-size="14" lengthAdjust="spacing" textLength="166" x="1024" y="682.2129">-GreenSpace greenSpace</text><text fill="#000000" font-family="sans-serif" font-size="14" lengthAdjust="spacing" textLength="122" x="1024" y="700.834">-TaskStatus status;</text><text fill="#000000" font-family="sans-serif" font-size="14" lengthAdjust="spacing" textLength="296" x="1024" y="719.4551">-GreenSpacesManager greenSpacesManager;</text><line style="stroke:#181818;stroke-width:0.5;" x1="1019" x2="1752" y1="726.9688" y2="726.9688"/><text fill="#000000" font-family="sans-serif" font-size="14" lengthAdjust="spacing" textLength="723" x="1024" y="746.0762">+TaskDto(title, description, degreeOfUrgency, expectedDuration, type, greenSpace, status, greenSpacesManager)</text></g><!--class TaskMapper--><g id="elem_TaskMapper"><rect codeLine="96" fill="#F1F1F1" height="85.2422" id="TaskMapper" rx="2.5" ry="2.5" style="stroke:#181818;stroke-width:0.5;" width="149" x="1197" y="364"/><ellipse cx="1229.1" cy="380" fill="#ADD1B2" rx="11" ry="11" style="stroke:#181818;stroke-width:1.0;"/><path d="M1231.8656,375.875 Q1232.0219,375.6563 1232.2094,375.5469 Q1232.3969,375.4375 1232.6156,375.4375 Q1232.9906,375.4375 1233.225,375.7031 Q1233.4594,375.9531 1233.4594,376.5625 L1233.4594,378.0156 Q1233.4594,378.625 1233.225,378.8906 Q1232.9906,379.1563 1232.6156,379.1563 Q1232.2719,379.1563 1232.0688,378.9531 Q1231.8656,378.7656 1231.7563,378.25 Q1231.7094,377.8906 1231.5219,377.7031 Q1231.1938,377.3281 1230.5844,377.1094 Q1229.975,376.8906 1229.35,376.8906 Q1228.5844,376.8906 1227.9438,377.2188 Q1227.3188,377.5469 1226.8188,378.2969 Q1226.3344,379.0469 1226.3344,380.0781 L1226.3344,381.1719 Q1226.3344,382.4063 1227.225,383.2344 Q1228.1156,384.0469 1229.7094,384.0469 Q1230.6469,384.0469 1231.3031,383.7969 Q1231.6938,383.6406 1232.1156,383.2031 Q1232.3813,382.9375 1232.5219,382.8594 Q1232.6781,382.7813 1232.8813,382.7813 Q1233.2094,382.7813 1233.4594,383.0469 Q1233.725,383.2969 1233.725,383.6406 Q1233.725,383.9844 1233.3813,384.3906 Q1232.8813,384.9688 1232.0844,385.2969 Q1231.0063,385.75 1229.7094,385.75 Q1228.1938,385.75 1226.9906,385.125 Q1226.0063,384.625 1225.3188,383.5625 Q1224.6313,382.4844 1224.6313,381.2031 L1224.6313,380.0469 Q1224.6313,378.7188 1225.2406,377.5781 Q1225.8656,376.4219 1226.9594,375.8125 Q1228.0531,375.1875 1229.2875,375.1875 Q1230.0219,375.1875 1230.6625,375.3594 Q1231.3188,375.5156 1231.8656,375.875 Z " fill="#000000"/><text fill="#000000" font-family="sans-serif" font-size="14" lengthAdjust="spacing" textLength="79" x="1246.9" y="385.7969">TaskMapper</text><line style="stroke:#181818;stroke-width:0.5;" x1="1198" x2="1345" y1="396" y2="396"/><line style="stroke:#181818;stroke-width:0.5;" x1="1198" x2="1345" y1="404" y2="404"/><text fill="#000000" font-family="sans-serif" font-size="14" lengthAdjust="spacing" textLength="137" x="1203" y="423.1074">+toDTOList(tasksList)</text><text fill="#000000" font-family="sans-serif" font-size="14" lengthAdjust="spacing" textLength="117" x="1203" y="441.7285">+taskToDTO(task)</text></g><!--link AddEntryAgendaUI to AddEntryAgendaController--><g id="link_AddEntryAgendaUI_AddEntryAgendaController"><path codeLine="101" d="M773.5,55.31 C773.5,71.5 773.5,87.98 773.5,109.71 " fill="none" id="AddEntryAgendaUI-to-AddEntryAgendaController" style="stroke:#181818;stroke-width:1.0;stroke-dasharray:7.0,7.0;"/><polygon fill="#181818" points="773.5,115.71,777.5,106.71,773.5,110.71,769.5,106.71,773.5,115.71" style="stroke:#181818;stroke-width:1.0;"/></g><!--link AddEntryAgendaController to Repositories--><g id="link_AddEntryAgendaController_Repositories"><path codeLine="102" d="M692.75,257.08 C663.54,282.25 635.1152,306.7432 605.8952,331.9232 " fill="none" id="AddEntryAgendaController-to-Repositories" style="stroke:#181818;stroke-width:1.0;stroke-dasharray:7.0,7.0;"/><polygon fill="#181818" points="601.35,335.84,610.779,332.995,605.1377,332.576,605.5566,326.9347,601.35,335.84" style="stroke:#181818;stroke-width:1.0;"/><text fill="#000000" font-family="sans-serif" font-size="13" lengthAdjust="spacing" textLength="67" x="656.5" y="302.0283">repositories</text></g><!--link AddEntryAgendaController to Agenda--><g id="link_AddEntryAgendaController_Agenda"><path codeLine="103" d="M760.74,257.21 C745.06,342.87 720.5,477 720.5,477 C720.5,477 672.9602,532.0778 631.3602,580.2778 " fill="none" id="AddEntryAgendaController-to-Agenda" style="stroke:#181818;stroke-width:1.0;stroke-dasharray:7.0,7.0;"/><polygon fill="#181818" points="627.44,584.82,636.3485,580.6202,630.7069,581.0348,630.2922,575.3932,627.44,584.82" style="stroke:#181818;stroke-width:1.0;"/><text fill="#000000" font-family="sans-serif" font-size="13" lengthAdjust="spacing" textLength="42" x="747.5" y="412.0283">agenda</text></g><!--link AddEntryAgendaController to ToDoList--><g id="link_AddEntryAgendaController_ToDoList"><path codeLine="104" d="M574.38,257.08 C463.86,295.69 348.5,336 348.5,336 C348.5,336 304.0317,526.8566 285.5017,606.3766 " fill="none" id="AddEntryAgendaController-to-ToDoList" style="stroke:#181818;stroke-width:1.0;stroke-dasharray:7.0,7.0;"/><polygon fill="#181818" points="284.14,612.22,290.0781,604.3626,285.2747,607.3505,282.2869,602.5471,284.14,612.22" style="stroke:#181818;stroke-width:1.0;"/><text fill="#000000" font-family="sans-serif" font-size="13" lengthAdjust="spacing" textLength="48" x="349.5" y="412.0283">toDoList</text></g><!--link AddEntryAgendaController to AuthenticationRepository--><g id="link_AddEntryAgendaController_AuthenticationRepository"><path codeLine="105" d="M797.98,257.4 C811.46,295.92 825.5,336 825.5,336 C825.5,336 863.79,526.8172 879.74,606.3372 " fill="none" id="AddEntryAgendaController-to-AuthenticationRepository" style="stroke:#181818;stroke-width:1.0;stroke-dasharray:7.0,7.0;"/><polygon fill="#181818" points="880.92,612.22,883.0719,602.6091,879.9367,607.3176,875.2282,604.1824,880.92,612.22" style="stroke:#181818;stroke-width:1.0;"/><text fill="#000000" font-family="sans-serif" font-size="13" lengthAdjust="spacing" textLength="143" x="855.5" y="412.0283">authenticationRepository</text></g><!--link AuthenticationRepository to UserSession--><g id="link_AuthenticationRepository_UserSession"><path codeLine="106" d="M887.5,679.67 C887.5,723.01 887.5,793.08 887.5,836.39 " fill="none" id="AuthenticationRepository-to-UserSession" style="stroke:#181818;stroke-width:1.0;stroke-dasharray:7.0,7.0;"/><polygon fill="#181818" points="887.5,842.39,891.5,833.39,887.5,837.39,883.5,833.39,887.5,842.39" style="stroke:#181818;stroke-width:1.0;"/></g><!--link Repositories to Repositories--><g id="link_Repositories_Repositories"><path codeLine="107" d="M624.76,388.58 C645.08,390.66 659.5,396.64 659.5,406.5 C659.5,416.36 651.0488,421.729 630.7288,423.809 " fill="none" id="Repositories-to-Repositories" style="stroke:#181818;stroke-width:1.0;"/><polygon fill="#181818" points="624.76,424.42,634.1205,427.4827,629.734,423.9108,633.3059,419.5243,624.76,424.42" style="stroke:#181818;stroke-width:1.0;"/><text fill="#000000" font-family="sans-serif" font-size="13" lengthAdjust="spacing" textLength="49" x="665.5" y="412.0283">instance</text></g><!--link Repositories to Agenda--><g id="link_Repositories_Agenda"><path codeLine="108" d="M536.63,477.15 C544.52,511.23 552.5754,546.0149 560.1654,578.7649 " fill="none" id="Repositories-to-Agenda" style="stroke:#181818;stroke-width:1.0;"/><polygon fill="#181818" points="561.52,584.61,563.3848,574.9393,560.3911,579.7391,555.5913,576.7455,561.52,584.61" style="stroke:#181818;stroke-width:1.0;"/><text fill="#000000" font-family="sans-serif" font-size="13" lengthAdjust="spacing" textLength="7" x="552.4989" y="573.5461">1</text></g><!--link Repositories to ToDoList--><g id="link_Repositories_ToDoList"><path codeLine="109" d="M442.91,477.33 C408.43,508.36 375.5,538 375.5,538 C375.5,538 339.935,576.4461 310.815,607.9161 " fill="none" id="Repositories-to-ToDoList" style="stroke:#181818;stroke-width:1.0;"/><polygon fill="#181818" points="306.74,612.32,315.7885,608.4309,310.1359,608.6501,309.9166,602.9975,306.74,612.32" style="stroke:#181818;stroke-width:1.0;"/><text fill="#000000" font-family="sans-serif" font-size="13" lengthAdjust="spacing" textLength="7" x="305.0044" y="601.1101">1</text></g><!--link Repositories to AuthenticationRepository--><g id="link_Repositories_AuthenticationRepository"><path codeLine="110" d="M624.54,460.96 C694.69,497 774.5,538 774.5,538 C774.5,538 815.3936,576.7243 848.6236,608.1943 " fill="none" id="Repositories-to-AuthenticationRepository" style="stroke:#181818;stroke-width:1.0;"/><polygon fill="#181818" points="852.98,612.32,849.1958,603.2272,849.3496,608.8819,843.6949,609.0357,852.98,612.32" style="stroke:#181818;stroke-width:1.0;"/><text fill="#000000" font-family="sans-serif" font-size="13" lengthAdjust="spacing" textLength="7" x="838.4948" y="601.1101">1</text></g><!--link Agenda to Entry--><g id="link_Agenda_Entry"><path codeLine="111" d="M576.29,707.2 C576.73,740.45 577.1906,775.6205 577.6306,808.8605 " fill="none" id="Agenda-to-Entry" style="stroke:#181818;stroke-width:1.0;"/><polygon fill="#181818" points="577.71,814.86,581.5905,805.8078,577.6438,809.8604,573.5912,805.9137,577.71,814.86" style="stroke:#181818;stroke-width:1.0;"/><text fill="#000000" font-family="sans-serif" font-size="13" lengthAdjust="spacing" textLength="5" x="572.3296" y="803.825">*</text></g><!--link ToDoList to Task--><g id="link_ToDoList_Task"><path codeLine="112" d="M275.77,679.62 C274.3,745.53 271.0639,890.8915 268.8139,991.6615 " fill="none" id="ToDoList-to-Task" style="stroke:#181818;stroke-width:1.0;"/><polygon fill="#181818" points="268.68,997.66,272.8799,988.7515,268.7916,992.6612,264.8819,988.573,268.68,997.66" style="stroke:#181818;stroke-width:1.0;"/><text fill="#000000" font-family="sans-serif" font-size="13" lengthAdjust="spacing" textLength="5" x="263.6565" y="986.8174">*</text></g><!--link Entry to Task--><g id="link_Entry_Task"><path codeLine="113" d="M492.42,937.28 C465.63,956.04 440.2942,973.7875 410.8442,994.4175 " fill="none" id="Entry-to-Task" style="stroke:#181818;stroke-width:1.0;"/><polygon fill="#181818" points="405.93,997.86,415.5963,995.9725,410.0252,994.9913,411.0064,989.4202,405.93,997.86" style="stroke:#181818;stroke-width:1.0;"/><text fill="#000000" font-family="sans-serif" font-size="13" lengthAdjust="spacing" textLength="7" x="409.3371" y="986.6978">1</text></g><!--link Entry to AgendaStatus--><g id="link_Entry_AgendaStatus"><path codeLine="114" d="M610.23,937.28 C626.32,967.85 643.006,999.5602 659.076,1030.1002 " fill="none" id="Entry-to-AgendaStatus" style="stroke:#181818;stroke-width:1.0;"/><polygon fill="#181818" points="661.87,1035.41,661.2189,1025.5827,659.5417,1030.9852,654.1392,1029.308,661.87,1035.41" style="stroke:#181818;stroke-width:1.0;"/><text fill="#000000" font-family="sans-serif" font-size="13" lengthAdjust="spacing" textLength="7" x="650.8081" y="1024.3808">1</text></g><!--link Task to TaskStatus--><g id="link_Task_TaskStatus"><path codeLine="115" d="M266.5,1195.16 C266.5,1216.57 266.5,1232.14 266.5,1249.91 " fill="none" id="Task-to-TaskStatus" style="stroke:#181818;stroke-width:1.0;"/><polygon fill="#181818" points="266.5,1255.91,270.5,1246.91,266.5,1250.91,262.5,1246.91,266.5,1255.91" style="stroke:#181818;stroke-width:1.0;"/><text fill="#000000" font-family="sans-serif" font-size="13" lengthAdjust="spacing" textLength="7" x="258.9422" y="1244.7997">1</text></g><!--link Entry to GreenSpaceManager--><g id="link_Entry_GreenSpaceManager"><path codeLine="116" d="M571.88,937.19 C561.73,1029.38 543.5,1195 543.5,1195 C543.5,1195 536.4892,1221.6281 529.0092,1250.0081 " fill="none" id="Entry-to-GreenSpaceManager" style="stroke:#181818;stroke-width:1.0;"/><polygon fill="#181818" points="527.48,1255.81,533.6417,1248.1267,528.7543,1250.9751,525.9059,1246.0878,527.48,1255.81" style="stroke:#181818;stroke-width:1.0;"/><text fill="#000000" font-family="sans-serif" font-size="13" lengthAdjust="spacing" textLength="7" x="521.6721" y="1244.6838">1</text></g><!--link Task to GreenSpaceManager--><g id="link_Task_GreenSpaceManager"><path codeLine="117" d="M388.57,1195.16 C415.34,1216.57 437.615,1234.3916 459.825,1252.1616 " fill="none" id="Task-to-GreenSpaceManager" style="stroke:#181818;stroke-width:1.0;"/><polygon fill="#181818" points="464.51,1255.91,459.9814,1247.164,460.6058,1252.7863,454.9835,1253.4107,464.51,1255.91" style="stroke:#181818;stroke-width:1.0;"/><text fill="#000000" font-family="sans-serif" font-size="13" lengthAdjust="spacing" textLength="7" x="448.6663" y="1244.7997">1</text></g><!--link AddEntryAgendaController to TaskMapper--><g id="link_AddEntryAgendaController_TaskMapper"><path codeLine="118" d="M932.44,257.08 C1020.97,295.83 1121.5534,339.8643 1191.1934,370.3443 " fill="none" id="AddEntryAgendaController-to-TaskMapper" style="stroke:#181818;stroke-width:1.0;stroke-dasharray:7.0,7.0;"/><polygon fill="#181818" points="1196.69,372.75,1190.049,365.477,1192.1095,370.7452,1186.8413,372.8058,1196.69,372.75" style="stroke:#181818;stroke-width:1.0;"/></g><!--link TaskMapper to TaskDto--><g id="link_TaskMapper_TaskDto"><path codeLine="119" d="M1291.49,449.14 C1303.33,473.82 1316.3445,500.9104 1331.4245,532.3404 " fill="none" id="TaskMapper-to-TaskDto" style="stroke:#181818;stroke-width:1.0;stroke-dasharray:7.0,7.0;"/><polygon fill="#181818" points="1334.02,537.75,1333.7331,527.9053,1331.8571,533.242,1326.5204,531.366,1334.02,537.75" style="stroke:#181818;stroke-width:1.0;"/></g><!--SRC=[pLNFRvim5Bxxhx1wALr9jLtJgL8MiYfIcrI5xEx1Ax5A3BAThjcq_ttFs8098Rlii1uQytw_v-_pkrIlN5HCiXtTbQ9CjxBS0TLo3wJJL2nzPJd4-b00bP1g9lB2Dr1RbfK_kCZf2okKhocu07seW5PbSJ0VvFA4ifIw99vNMZ2bPbfB_dslOPcM8kO_WNuavBA05qrrIINFjvfct9J3Iq58xKDdMROGMXvcEOYCRPRq5_bzMZSlyLmM1KYqeVXtFQOFM2q8CMrKFd2bGyhsUWj2yvIPvCzGbOhhKXwkR2JMYnGepQJ6wKHCGqYvoE3T6avoq0bJhryEIoCCZbJtyUDNl8yObC8iWGlkV9If94hMAEuwhFCr_PojGcE8aEPgvsLmcHk_eAyDAHYfCtfZ1SymahKyfTae7Dr8YBRYsjqLF36LKRzCAqu08Q7ntmo3vEBMIatxdx_1bgS5tD4tUr2-oRMjRTYtbpznLzhCxFI5TEQeQwgD4Pw8UCrr0Jr91YgLlAfXMSiNEv1u1-aXWbm2e87vMRzihDGQSQ4fl5S8PyYYlMITkqcQ69eOhbZHFVgB67a9D6-FjWDZ7TH5XNubuN7MS90jh1E4NaI7k7IBX4VwCxrNPfpuuysaHJy7vKRJapMufJZRfK1taK9mHQSzeyx4eTLpQkx8byr626ZP06A_SsImLRixUtgOhLQBo9xNSVAqRhxcizLyyU0-8XItOSmy-q4MgsYvkhVdv_Ly4SVert5mf38FOVEzb6XY2D9nkmtWYJqV8rrclbs7WKScy8cIHy247UE5zH-O1hNo2DWHFgl_DROdtbrO6DuUkwXc5lb0TDln0plzLnG9NINXYOn7ytraLTLj6rmcoRg6jMvUSuTlyvqORT0-LeErTdDpDxhFoEYYCru-wwQupJqEdlMpmYcro_2yRSFOQRio_n9xX3FJqKLBHcbcudaK8dw_T38v7W1tBzBGxkBJXMlwjAvfSiHpj72xeskx3nTs0P9s3JLYWnTYbsERRoZodpXIxoRVsCdxBeEdeEytL9-_w1RMn4Dueq6QaJy0]--></g></svg>