<?xml version="1.0" encoding="us-ascii" standalone="no"?><svg xmlns="http://www.w3.org/2000/svg" xmlns:xlink="http://www.w3.org/1999/xlink" contentStyleType="text/css" height="322.8px" preserveAspectRatio="none" style="width:317px;height:322px;background:#FFFFFF;" version="1.1" viewBox="0 0 317 322" width="317.6px" zoomAndPan="magnify"><defs/><g><rect fill="#FFFFFF" height="257.1594" style="stroke:#181818;stroke-width:0.4000000000000001;" width="4" x="113.2" y="36.2133"/><rect fill="#FFFFFF" height="187.9133" style="stroke:#181818;stroke-width:0.4000000000000001;" width="4" x="115.2" y="87.343"/><rect fill="#FFFFFF" height="16.9164" style="stroke:#181818;stroke-width:0.4000000000000001;" width="4" x="117.2" y="105.0594"/><rect fill="#FFFFFF" height="66.982" style="stroke:#181818;stroke-width:0.4000000000000001;" width="4" x="117.2" y="140.4922"/><rect fill="#FFFFFF" height="12.5164" style="stroke:#181818;stroke-width:0.4000000000000001;" width="4" x="205.4" y="155.0086"/><rect fill="#FFFFFF" height="12.5164" style="stroke:#181818;stroke-width:0.4000000000000001;" width="4" x="205.4" y="222.7906"/><rect fill="#FFFFFF" height="12.5164" style="stroke:#181818;stroke-width:0.4000000000000001;" width="4" x="252.6" y="180.0414"/><rect fill="#FFFFFF" height="12.5164" style="stroke:#181818;stroke-width:0.4000000000000001;" width="4" x="299.4" y="247.8234"/><rect fill="none" height="239.043" style="stroke:#000000;stroke-width:0.6000000000000001;" width="217.2" x="98" y="42.2133"/><line style="stroke:#181818;stroke-width:0.20000000000000004;stroke-dasharray:5.0,5.0;" x1="115.2" x2="115.2" y1="22.8969" y2="300.5727"/><line style="stroke:#181818;stroke-width:0.20000000000000004;stroke-dasharray:5.0,5.0;" x1="207.2" x2="207.2" y1="66.3781" y2="300.5727"/><line style="stroke:#181818;stroke-width:0.20000000000000004;stroke-dasharray:5.0,5.0;" x1="254.4" x2="254.4" y1="22.8969" y2="300.5727"/><line style="stroke:#181818;stroke-width:0.20000000000000004;stroke-dasharray:5.0,5.0;" x1="301.2" x2="301.2" y1="22.8969" y2="300.5727"/><rect fill="#E3E3E3" height="20.4969" rx="1" ry="1" style="stroke:#181818;stroke-width:0.20000000000000004;" width="26.4" x="102" y="2"/><text fill="#000000" font-family="sans-serif" font-size="5.6" lengthAdjust="spacing" textLength="20.8" x="104.8" y="10.843">agenda:</text><text fill="#000000" font-family="sans-serif" font-size="5.6" lengthAdjust="spacing" textLength="19.6" x="105.4" y="18.2914">Agenda</text><rect fill="#E3E3E3" height="20.4969" rx="1" ry="1" style="stroke:#181818;stroke-width:0.20000000000000004;" width="26.4" x="102" y="300.1727"/><text fill="#000000" font-family="sans-serif" font-size="5.6" lengthAdjust="spacing" textLength="20.8" x="104.8" y="309.0156">agenda:</text><text fill="#000000" font-family="sans-serif" font-size="5.6" lengthAdjust="spacing" textLength="19.6" x="105.4" y="316.4641">Agenda</text><rect fill="#E3E3E3" height="20.4969" rx="1" ry="1" style="stroke:#181818;stroke-width:0.20000000000000004;" width="20.4" x="197.2" y="300.1727"/><text fill="#000000" font-family="sans-serif" font-size="5.6" lengthAdjust="spacing" textLength="12.8" x="201" y="309.0156">entry</text><text fill="#000000" font-family="sans-serif" font-size="5.6" lengthAdjust="spacing" textLength="14.8" x="200" y="316.4641">:Entry</text><rect fill="#E3E3E3" height="20.4969" rx="1" ry="1" style="stroke:#181818;stroke-width:0.20000000000000004;" width="66" x="221.6" y="2"/><text fill="#000000" font-family="sans-serif" font-size="5.6" lengthAdjust="spacing" textLength="57.6" x="225.8" y="10.843">greenSpacesManager:</text><text fill="#000000" font-family="sans-serif" font-size="5.6" lengthAdjust="spacing" textLength="60.4" x="224.4" y="18.2914">Green Spaces Manager</text><rect fill="#E3E3E3" height="20.4969" rx="1" ry="1" style="stroke:#181818;stroke-width:0.20000000000000004;" width="66" x="221.6" y="300.1727"/><text fill="#000000" font-family="sans-serif" font-size="5.6" lengthAdjust="spacing" textLength="57.6" x="225.8" y="309.0156">greenSpacesManager:</text><text fill="#000000" font-family="sans-serif" font-size="5.6" lengthAdjust="spacing" textLength="60.4" x="224.4" y="316.4641">Green Spaces Manager</text><rect fill="#E3E3E3" height="20.4969" rx="1" ry="1" style="stroke:#181818;stroke-width:0.20000000000000004;" width="19.6" x="291.6" y="2"/><text fill="#000000" font-family="sans-serif" font-size="5.6" lengthAdjust="spacing" textLength="10.4" x="296.2" y="10.843">task</text><text fill="#000000" font-family="sans-serif" font-size="5.6" lengthAdjust="spacing" textLength="14" x="294.4" y="18.2914">:Task</text><rect fill="#E3E3E3" height="20.4969" rx="1" ry="1" style="stroke:#181818;stroke-width:0.20000000000000004;" width="19.6" x="291.6" y="300.1727"/><text fill="#000000" font-family="sans-serif" font-size="5.6" lengthAdjust="spacing" textLength="10.4" x="296.2" y="309.0156">task</text><text fill="#000000" font-family="sans-serif" font-size="5.6" lengthAdjust="spacing" textLength="14" x="294.4" y="316.4641">:Task</text><rect fill="#FFFFFF" height="257.1594" style="stroke:#181818;stroke-width:0.4000000000000001;" width="4" x="113.2" y="36.2133"/><rect fill="#FFFFFF" height="187.9133" style="stroke:#181818;stroke-width:0.4000000000000001;" width="4" x="115.2" y="87.343"/><rect fill="#FFFFFF" height="16.9164" style="stroke:#181818;stroke-width:0.4000000000000001;" width="4" x="117.2" y="105.0594"/><rect fill="#FFFFFF" height="66.982" style="stroke:#181818;stroke-width:0.4000000000000001;" width="4" x="117.2" y="140.4922"/><rect fill="#FFFFFF" height="12.5164" style="stroke:#181818;stroke-width:0.4000000000000001;" width="4" x="205.4" y="155.0086"/><rect fill="#FFFFFF" height="12.5164" style="stroke:#181818;stroke-width:0.4000000000000001;" width="4" x="205.4" y="222.7906"/><rect fill="#FFFFFF" height="12.5164" style="stroke:#181818;stroke-width:0.4000000000000001;" width="4" x="252.6" y="180.0414"/><rect fill="#FFFFFF" height="12.5164" style="stroke:#181818;stroke-width:0.4000000000000001;" width="4" x="299.4" y="247.8234"/><polygon fill="#181818" points="108.4,34.6133,112.4,36.2133,108.4,37.8133,110,36.2133" style="stroke:#181818;stroke-width:0.4000000000000001;"/><line style="stroke:#181818;stroke-width:0.4000000000000001;" x1="0" x2="110.8" y1="36.2133" y2="36.2133"/><text fill="#000000" font-family="sans-serif" font-size="5.2" font-weight="bold" lengthAdjust="spacing" textLength="5.6" x="2.8" y="34.1082">20</text><text fill="#000000" font-family="sans-serif" font-size="5.2" lengthAdjust="spacing" textLength="98.4" x="10" y="34.1082">addEntryAgenda(startingDate, task, email)</text><path d="M98,42.2133 L147.2,42.2133 L147.2,45.9297 L143.2,49.9297 L98,49.9297 L98,42.2133 " fill="#EEEEEE" style="stroke:#000000;stroke-width:0.6000000000000001;"/><rect fill="none" height="239.043" style="stroke:#000000;stroke-width:0.6000000000000001;" width="217.2" x="98" y="42.2133"/><text fill="#000000" font-family="sans-serif" font-size="5.2" font-weight="bold" lengthAdjust="spacing" textLength="31.2" x="104" y="48.2246">Create Entry</text><polygon fill="#181818" points="192.4,57.6461,196.4,59.2461,192.4,60.8461,194,59.2461" style="stroke:#181818;stroke-width:0.4000000000000001;"/><line style="stroke:#181818;stroke-width:0.4000000000000001;" x1="117.2" x2="194.8" y1="59.2461" y2="59.2461"/><text fill="#000000" font-family="sans-serif" font-size="5.2" font-weight="bold" lengthAdjust="spacing" textLength="10" x="120" y="57.141">20.1</text><text fill="#000000" font-family="sans-serif" font-size="5.2" lengthAdjust="spacing" textLength="58.8" x="131.6" y="57.141">create(startingDate, task)</text><rect fill="#E3E3E3" height="20.4969" rx="1" ry="1" style="stroke:#181818;stroke-width:0.20000000000000004;" width="20.4" x="197.2" y="49.9297"/><text fill="#000000" font-family="sans-serif" font-size="5.6" lengthAdjust="spacing" textLength="12.8" x="201" y="58.7727">entry</text><text fill="#000000" font-family="sans-serif" font-size="5.6" lengthAdjust="spacing" textLength="14.8" x="200" y="66.2211">:Entry</text><line style="stroke:#181818;stroke-width:0.4000000000000001;" x1="117.2" x2="136" y1="82.143" y2="82.143"/><line style="stroke:#181818;stroke-width:0.4000000000000001;" x1="136" x2="136" y1="82.143" y2="87.343"/><line style="stroke:#181818;stroke-width:0.4000000000000001;" x1="119.6" x2="136" y1="87.343" y2="87.343"/><polygon fill="#181818" points="123.6,85.743,119.6,87.343,123.6,88.943,122,87.343" style="stroke:#181818;stroke-width:0.4000000000000001;"/><text fill="#000000" font-family="sans-serif" font-size="5.2" font-weight="bold" lengthAdjust="spacing" textLength="10" x="122" y="80.0379">20.2</text><text fill="#000000" font-family="sans-serif" font-size="5.2" lengthAdjust="spacing" textLength="52.8" x="133.6" y="80.0379">addEntry (email, entry)</text><line style="stroke:#181818;stroke-width:0.4000000000000001;" x1="119.2" x2="138" y1="99.8594" y2="99.8594"/><line style="stroke:#181818;stroke-width:0.4000000000000001;" x1="138" x2="138" y1="99.8594" y2="105.0594"/><line style="stroke:#181818;stroke-width:0.4000000000000001;" x1="121.6" x2="138" y1="105.0594" y2="105.0594"/><polygon fill="#181818" points="125.6,103.4594,121.6,105.0594,125.6,106.6594,124,105.0594" style="stroke:#181818;stroke-width:0.4000000000000001;"/><text fill="#000000" font-family="sans-serif" font-size="5.2" font-weight="bold" lengthAdjust="spacing" textLength="10" x="124" y="97.7543">20.3</text><text fill="#000000" font-family="sans-serif" font-size="5.2" lengthAdjust="spacing" textLength="46" x="135.6" y="97.7543">validateEntry (entry)</text><line style="stroke:#181818;stroke-width:0.4000000000000001;stroke-dasharray:2.0,2.0;" x1="121.2" x2="138" y1="121.5758" y2="121.5758"/><line style="stroke:#181818;stroke-width:0.4000000000000001;stroke-dasharray:2.0,2.0;" x1="138" x2="138" y1="121.5758" y2="126.7758"/><line style="stroke:#181818;stroke-width:0.4000000000000001;stroke-dasharray:2.0,2.0;" x1="119.2" x2="138" y1="126.7758" y2="126.7758"/><polygon fill="#181818" points="123.2,125.1758,119.2,126.7758,123.2,128.3758,121.6,126.7758" style="stroke:#181818;stroke-width:0.4000000000000001;"/><text fill="#000000" font-family="sans-serif" font-size="5.2" font-weight="bold" lengthAdjust="spacing" textLength="10" x="124" y="119.4707">20.4</text><text fill="#000000" font-family="sans-serif" font-size="5.2" lengthAdjust="spacing" textLength="1.6" x="135.6" y="119.4707">&#160;</text><line style="stroke:#181818;stroke-width:0.4000000000000001;" x1="119.2" x2="138" y1="135.2922" y2="135.2922"/><line style="stroke:#181818;stroke-width:0.4000000000000001;" x1="138" x2="138" y1="135.2922" y2="140.4922"/><line style="stroke:#181818;stroke-width:0.4000000000000001;" x1="121.6" x2="138" y1="140.4922" y2="140.4922"/><polygon fill="#181818" points="125.6,138.8922,121.6,140.4922,125.6,142.0922,124,140.4922" style="stroke:#181818;stroke-width:0.4000000000000001;"/><text fill="#000000" font-family="sans-serif" font-size="5.2" font-weight="bold" lengthAdjust="spacing" textLength="10" x="124" y="133.1871">20.5</text><text fill="#000000" font-family="sans-serif" font-size="5.2" lengthAdjust="spacing" textLength="60" x="135.6" y="133.1871">validateUser (email, entry)</text><polygon fill="#181818" points="200.6,153.4086,204.6,155.0086,200.6,156.6086,202.2,155.0086" style="stroke:#181818;stroke-width:0.4000000000000001;"/><line style="stroke:#181818;stroke-width:0.4000000000000001;" x1="121.2" x2="203" y1="155.0086" y2="155.0086"/><text fill="#000000" font-family="sans-serif" font-size="5.2" font-weight="bold" lengthAdjust="spacing" textLength="10" x="124" y="152.9035">20.6</text><text fill="#000000" font-family="sans-serif" font-size="5.2" lengthAdjust="spacing" textLength="62" x="135.6" y="152.9035">getGreenSpacesManager()</text><polygon fill="#181818" points="125.6,165.925,121.6,167.525,125.6,169.125,124,167.525" style="stroke:#181818;stroke-width:0.4000000000000001;"/><line style="stroke:#181818;stroke-width:0.4000000000000001;stroke-dasharray:2.0,2.0;" x1="123.2" x2="207" y1="167.525" y2="167.525"/><text fill="#000000" font-family="sans-serif" font-size="5.2" font-weight="bold" lengthAdjust="spacing" textLength="10" x="128" y="165.4199">20.7</text><text fill="#000000" font-family="sans-serif" font-size="5.2" lengthAdjust="spacing" textLength="50.4" x="139.6" y="165.4199">greenSpacesManager</text><polygon fill="#181818" points="247.8,178.4414,251.8,180.0414,247.8,181.6414,249.4,180.0414" style="stroke:#181818;stroke-width:0.4000000000000001;"/><line style="stroke:#181818;stroke-width:0.4000000000000001;" x1="121.2" x2="250.2" y1="180.0414" y2="180.0414"/><text fill="#000000" font-family="sans-serif" font-size="5.2" font-weight="bold" lengthAdjust="spacing" textLength="10" x="124" y="177.9363">20.8</text><text fill="#000000" font-family="sans-serif" font-size="5.2" lengthAdjust="spacing" textLength="23.6" x="135.6" y="177.9363">getEmail()</text><polygon fill="#181818" points="125.6,190.9578,121.6,192.5578,125.6,194.1578,124,192.5578" style="stroke:#181818;stroke-width:0.4000000000000001;"/><line style="stroke:#181818;stroke-width:0.4000000000000001;stroke-dasharray:2.0,2.0;" x1="123.2" x2="254.2" y1="192.5578" y2="192.5578"/><text fill="#000000" font-family="sans-serif" font-size="5.2" font-weight="bold" lengthAdjust="spacing" textLength="10" x="128" y="190.4527">20.9</text><text fill="#000000" font-family="sans-serif" font-size="5.2" lengthAdjust="spacing" textLength="12.4" x="139.6" y="190.4527">email</text><line style="stroke:#181818;stroke-width:0.4000000000000001;stroke-dasharray:2.0,2.0;" x1="121.2" x2="138" y1="207.0742" y2="207.0742"/><line style="stroke:#181818;stroke-width:0.4000000000000001;stroke-dasharray:2.0,2.0;" x1="138" x2="138" y1="207.0742" y2="212.2742"/><line style="stroke:#181818;stroke-width:0.4000000000000001;stroke-dasharray:2.0,2.0;" x1="119.2" x2="138" y1="212.2742" y2="212.2742"/><polygon fill="#181818" points="123.2,210.6742,119.2,212.2742,123.2,213.8742,121.6,212.2742" style="stroke:#181818;stroke-width:0.4000000000000001;"/><text fill="#000000" font-family="sans-serif" font-size="5.2" font-weight="bold" lengthAdjust="spacing" textLength="12.8" x="124" y="204.9691">20.10</text><text fill="#000000" font-family="sans-serif" font-size="5.2" lengthAdjust="spacing" textLength="1.6" x="138.4" y="204.9691">&#160;</text><polygon fill="#181818" points="200.6,221.1906,204.6,222.7906,200.6,224.3906,202.2,222.7906" style="stroke:#181818;stroke-width:0.4000000000000001;"/><line style="stroke:#181818;stroke-width:0.4000000000000001;" x1="119.2" x2="203" y1="222.7906" y2="222.7906"/><text fill="#000000" font-family="sans-serif" font-size="5.2" font-weight="bold" lengthAdjust="spacing" textLength="12.8" x="122" y="220.6855">20.11</text><text fill="#000000" font-family="sans-serif" font-size="5.2" lengthAdjust="spacing" textLength="21.6" x="136.4" y="220.6855">getTask()</text><polygon fill="#181818" points="123.6,233.707,119.6,235.307,123.6,236.907,122,235.307" style="stroke:#181818;stroke-width:0.4000000000000001;"/><line style="stroke:#181818;stroke-width:0.4000000000000001;stroke-dasharray:2.0,2.0;" x1="121.2" x2="207" y1="235.307" y2="235.307"/><text fill="#000000" font-family="sans-serif" font-size="5.2" font-weight="bold" lengthAdjust="spacing" textLength="12.8" x="126" y="233.202">20.12</text><text fill="#000000" font-family="sans-serif" font-size="5.2" lengthAdjust="spacing" textLength="10" x="140.4" y="233.202">task</text><polygon fill="#181818" points="294.6,246.2234,298.6,247.8234,294.6,249.4234,296.2,247.8234" style="stroke:#181818;stroke-width:0.4000000000000001;"/><line style="stroke:#181818;stroke-width:0.4000000000000001;" x1="119.2" x2="297" y1="247.8234" y2="247.8234"/><text fill="#000000" font-family="sans-serif" font-size="5.2" font-weight="bold" lengthAdjust="spacing" textLength="12.8" x="122" y="245.7184">20.13</text><text fill="#000000" font-family="sans-serif" font-size="5.2" lengthAdjust="spacing" textLength="96" x="136.4" y="245.7184">changeStatus(TaskStatus.PROCESSED)</text><polygon fill="#181818" points="123.6,258.7398,119.6,260.3398,123.6,261.9398,122,260.3398" style="stroke:#181818;stroke-width:0.4000000000000001;"/><line style="stroke:#181818;stroke-width:0.4000000000000001;stroke-dasharray:2.0,2.0;" x1="121.2" x2="301" y1="260.3398" y2="260.3398"/><text fill="#000000" font-family="sans-serif" font-size="5.2" font-weight="bold" lengthAdjust="spacing" textLength="12.8" x="126" y="258.2348">20.14</text><text fill="#000000" font-family="sans-serif" font-size="5.2" lengthAdjust="spacing" textLength="1.6" x="140.4" y="258.2348">&#160;</text><line style="stroke:#181818;stroke-width:0.4000000000000001;stroke-dasharray:2.0,2.0;" x1="119.2" x2="136" y1="274.8563" y2="274.8563"/><line style="stroke:#181818;stroke-width:0.4000000000000001;stroke-dasharray:2.0,2.0;" x1="136" x2="136" y1="274.8563" y2="280.0563"/><line style="stroke:#181818;stroke-width:0.4000000000000001;stroke-dasharray:2.0,2.0;" x1="117.2" x2="136" y1="280.0563" y2="280.0563"/><polygon fill="#181818" points="121.2,278.4563,117.2,280.0563,121.2,281.6563,119.6,280.0563" style="stroke:#181818;stroke-width:0.4000000000000001;"/><text fill="#000000" font-family="sans-serif" font-size="5.2" font-weight="bold" lengthAdjust="spacing" textLength="12.8" x="122" y="272.7512">20.15</text><text fill="#000000" font-family="sans-serif" font-size="5.2" lengthAdjust="spacing" textLength="1.6" x="136.4" y="272.7512">&#160;</text><polygon fill="#181818" points="4.4,291.7727,0.4,293.3727,4.4,294.9727,2.8,293.3727" style="stroke:#181818;stroke-width:0.4000000000000001;"/><line style="stroke:#181818;stroke-width:0.4000000000000001;stroke-dasharray:2.0,2.0;" x1="2" x2="114.8" y1="293.3727" y2="293.3727"/><text fill="#000000" font-family="sans-serif" font-size="5.2" font-weight="bold" lengthAdjust="spacing" textLength="5.6" x="6.8" y="291.2676">21</text><text fill="#000000" font-family="sans-serif" font-size="5.2" lengthAdjust="spacing" textLength="11.6" x="14" y="291.2676">entry</text><!--SRC=[hLHDRy8m3BttLrYS2W8qTgocIOXL7APzYC9X4XUlpKf5cw8aPUBVpqaB51e-DjPBqXVx-SMEBPS9Nw703BASv-52v1a39GhcoDt92iCbnYnGcvI1OA527gTr0xd0AFzEU0nVc4hcE0Ih94nMo1Mqo9L7wCtvq6nQW19AxD2ESIKsS-xvUZLM_kjqyd5e50l6U42Ac7n1JZI2YCSQX1A52ZO4iy2V7Fehb4kACQN5M4o7mRFZOA5oNcIVJC3zdTDxhFI11nX5Ha-ftPLAa_7u2HNhWYRh0iimITj79Fq10Q5ArcIulItG5ukyMC58C8qRPWFNloesgJ3txtH8HcWSBE4fxcd_AlExIu1hj99a_TTkUXu9le9wZMaIaSkM_qRY7NF38c8tg9j9AigjbxVKneEOgN7ZIRfjk_CsGlckhJRcg9O7Yj2WjphMydE6VgzVjuQHx-kiN59i6ibgeayEz9eiNv9ev_ldLx0laMvtzqp9JsIiMGpTSixlKx_NfESDjVE2HYWDL5I5TBMuSjj_dxoD_23mdyveBIVMyR56hqoSdU0lkTSeRSgXLbBMX-3080-ztdwScjvpB5Ny0G00]--></g></svg>