<?xml version="1.0" encoding="us-ascii" standalone="no"?><svg xmlns="http://www.w3.org/2000/svg" xmlns:xlink="http://www.w3.org/1999/xlink" contentStyleType="text/css" height="922px" preserveAspectRatio="none" style="width:503px;height:922px;background:#FFFFFF;" version="1.1" viewBox="0 0 503 922" width="503px" zoomAndPan="magnify"><defs/><g><!--class Agenda--><g id="elem_Agenda"><rect codeLine="7" fill="#F1F1F1" height="103.8633" id="Agenda" rx="2.5" ry="2.5" style="stroke:#181818;stroke-width:0.5;" width="266" x="14.5" y="482"/><ellipse cx="118.75" cy="498" fill="#ADD1B2" rx="11" ry="11" style="stroke:#181818;stroke-width:1.0;"/><path d="M121.5156,493.875 Q121.6719,493.6563 121.8594,493.5469 Q122.0469,493.4375 122.2656,493.4375 Q122.6406,493.4375 122.875,493.7031 Q123.1094,493.9531 123.1094,494.5625 L123.1094,496.0156 Q123.1094,496.625 122.875,496.8906 Q122.6406,497.1563 122.2656,497.1563 Q121.9219,497.1563 121.7188,496.9531 Q121.5156,496.7656 121.4063,496.25 Q121.3594,495.8906 121.1719,495.7031 Q120.8438,495.3281 120.2344,495.1094 Q119.625,494.8906 119,494.8906 Q118.2344,494.8906 117.5938,495.2188 Q116.9688,495.5469 116.4688,496.2969 Q115.9844,497.0469 115.9844,498.0781 L115.9844,499.1719 Q115.9844,500.4063 116.875,501.2344 Q117.7656,502.0469 119.3594,502.0469 Q120.2969,502.0469 120.9531,501.7969 Q121.3438,501.6406 121.7656,501.2031 Q122.0313,500.9375 122.1719,500.8594 Q122.3281,500.7813 122.5313,500.7813 Q122.8594,500.7813 123.1094,501.0469 Q123.375,501.2969 123.375,501.6406 Q123.375,501.9844 123.0313,502.3906 Q122.5313,502.9688 121.7344,503.2969 Q120.6563,503.75 119.3594,503.75 Q117.8438,503.75 116.6406,503.125 Q115.6563,502.625 114.9688,501.5625 Q114.2813,500.4844 114.2813,499.2031 L114.2813,498.0469 Q114.2813,496.7188 114.8906,495.5781 Q115.5156,494.4219 116.6094,493.8125 Q117.7031,493.1875 118.9375,493.1875 Q119.6719,493.1875 120.3125,493.3594 Q120.9688,493.5156 121.5156,493.875 Z " fill="#000000"/><text fill="#000000" font-family="sans-serif" font-size="14" lengthAdjust="spacing" textLength="49" x="139.25" y="503.7969">Agenda</text><line style="stroke:#181818;stroke-width:0.5;" x1="15.5" x2="279.5" y1="514" y2="514"/><line style="stroke:#181818;stroke-width:0.5;" x1="15.5" x2="279.5" y1="522" y2="522"/><text fill="#000000" font-family="sans-serif" font-size="14" lengthAdjust="spacing" textLength="129" x="20.5" y="541.1074">-validateEntry(entry)</text><text fill="#000000" font-family="sans-serif" font-size="14" lengthAdjust="spacing" textLength="254" x="20.5" y="559.7285">+postponeEntry(entry, newStartingDate)</text><text fill="#000000" font-family="sans-serif" font-size="14" lengthAdjust="spacing" textLength="104" x="20.5" y="578.3496">+getEntriesList()</text></g><!--class Entry--><g id="elem_Entry"><rect codeLine="13" fill="#F1F1F1" height="85.2422" id="Entry" rx="2.5" ry="2.5" style="stroke:#181818;stroke-width:0.5;" width="174" x="60.5" y="647"/><ellipse cx="126.75" cy="663" fill="#ADD1B2" rx="11" ry="11" style="stroke:#181818;stroke-width:1.0;"/><path d="M129.5156,658.875 Q129.6719,658.6563 129.8594,658.5469 Q130.0469,658.4375 130.2656,658.4375 Q130.6406,658.4375 130.875,658.7031 Q131.1094,658.9531 131.1094,659.5625 L131.1094,661.0156 Q131.1094,661.625 130.875,661.8906 Q130.6406,662.1563 130.2656,662.1563 Q129.9219,662.1563 129.7188,661.9531 Q129.5156,661.7656 129.4063,661.25 Q129.3594,660.8906 129.1719,660.7031 Q128.8438,660.3281 128.2344,660.1094 Q127.625,659.8906 127,659.8906 Q126.2344,659.8906 125.5938,660.2188 Q124.9688,660.5469 124.4688,661.2969 Q123.9844,662.0469 123.9844,663.0781 L123.9844,664.1719 Q123.9844,665.4063 124.875,666.2344 Q125.7656,667.0469 127.3594,667.0469 Q128.2969,667.0469 128.9531,666.7969 Q129.3438,666.6406 129.7656,666.2031 Q130.0313,665.9375 130.1719,665.8594 Q130.3281,665.7813 130.5313,665.7813 Q130.8594,665.7813 131.1094,666.0469 Q131.375,666.2969 131.375,666.6406 Q131.375,666.9844 131.0313,667.3906 Q130.5313,667.9688 129.7344,668.2969 Q128.6563,668.75 127.3594,668.75 Q125.8438,668.75 124.6406,668.125 Q123.6563,667.625 122.9688,666.5625 Q122.2813,665.4844 122.2813,664.2031 L122.2813,663.0469 Q122.2813,661.7188 122.8906,660.5781 Q123.5156,659.4219 124.6094,658.8125 Q125.7031,658.1875 126.9375,658.1875 Q127.6719,658.1875 128.3125,658.3594 Q128.9688,658.5156 129.5156,658.875 Z " fill="#000000"/><text fill="#000000" font-family="sans-serif" font-size="14" lengthAdjust="spacing" textLength="33" x="147.25" y="668.7969">Entry</text><line style="stroke:#181818;stroke-width:0.5;" x1="61.5" x2="233.5" y1="679" y2="679"/><text fill="#000000" font-family="sans-serif" font-size="14" lengthAdjust="spacing" textLength="120" x="66.5" y="698.1074">-Date: startingDate</text><line style="stroke:#181818;stroke-width:0.5;" x1="61.5" x2="233.5" y1="705.6211" y2="705.6211"/><text fill="#000000" font-family="sans-serif" font-size="14" lengthAdjust="spacing" textLength="162" x="66.5" y="724.7285">+Entry(startingDate, task)</text></g><!--class Repositories--><g id="elem_Repositories"><rect codeLine="19" fill="#F1F1F1" height="122.4844" id="Repositories" rx="2.5" ry="2.5" style="stroke:#181818;stroke-width:0.5;" width="194" x="206.5" y="299"/><ellipse cx="259.75" cy="315" fill="#ADD1B2" rx="11" ry="11" style="stroke:#181818;stroke-width:1.0;"/><path d="M262.5156,310.875 Q262.6719,310.6563 262.8594,310.5469 Q263.0469,310.4375 263.2656,310.4375 Q263.6406,310.4375 263.875,310.7031 Q264.1094,310.9531 264.1094,311.5625 L264.1094,313.0156 Q264.1094,313.625 263.875,313.8906 Q263.6406,314.1563 263.2656,314.1563 Q262.9219,314.1563 262.7188,313.9531 Q262.5156,313.7656 262.4063,313.25 Q262.3594,312.8906 262.1719,312.7031 Q261.8438,312.3281 261.2344,312.1094 Q260.625,311.8906 260,311.8906 Q259.2344,311.8906 258.5938,312.2188 Q257.9688,312.5469 257.4688,313.2969 Q256.9844,314.0469 256.9844,315.0781 L256.9844,316.1719 Q256.9844,317.4063 257.875,318.2344 Q258.7656,319.0469 260.3594,319.0469 Q261.2969,319.0469 261.9531,318.7969 Q262.3438,318.6406 262.7656,318.2031 Q263.0313,317.9375 263.1719,317.8594 Q263.3281,317.7813 263.5313,317.7813 Q263.8594,317.7813 264.1094,318.0469 Q264.375,318.2969 264.375,318.6406 Q264.375,318.9844 264.0313,319.3906 Q263.5313,319.9688 262.7344,320.2969 Q261.6563,320.75 260.3594,320.75 Q258.8438,320.75 257.6406,320.125 Q256.6563,319.625 255.9688,318.5625 Q255.2813,317.4844 255.2813,316.2031 L255.2813,315.0469 Q255.2813,313.7188 255.8906,312.5781 Q256.5156,311.4219 257.6094,310.8125 Q258.7031,310.1875 259.9375,310.1875 Q260.6719,310.1875 261.3125,310.3594 Q261.9688,310.5156 262.5156,310.875 Z " fill="#000000"/><text fill="#000000" font-family="sans-serif" font-size="14" lengthAdjust="spacing" textLength="79" x="280.25" y="320.7969">Repositories</text><line style="stroke:#181818;stroke-width:0.5;" x1="207.5" x2="399.5" y1="331" y2="331"/><line style="stroke:#181818;stroke-width:0.5;" x1="207.5" x2="399.5" y1="339" y2="339"/><text fill="#000000" font-family="sans-serif" font-size="14" lengthAdjust="spacing" textLength="94" x="212.5" y="358.1074">-Repositories()</text><text fill="#000000" font-family="sans-serif" font-size="14" lengthAdjust="spacing" textLength="182" x="212.5" y="376.7285">+getInstance() : Repositories</text><text fill="#000000" font-family="sans-serif" font-size="14" lengthAdjust="spacing" textLength="87" x="212.5" y="395.3496">+getAgenda()</text><text fill="#000000" font-family="sans-serif" font-size="14" lengthAdjust="spacing" textLength="95" x="212.5" y="413.9707">+getToDoList()</text></g><!--class AgendaStatus--><g id="elem_AgendaStatus"><rect codeLine="26" fill="#F1F1F1" height="122.4844" id="AgendaStatus" rx="2.5" ry="2.5" style="stroke:#181818;stroke-width:0.5;" width="121" x="87" y="793"/><ellipse cx="102" cy="809" fill="#EB937F" rx="11" ry="11" style="stroke:#181818;stroke-width:1.0;"/><path d="M100.8594,809.7969 L100.8594,812.2969 L105.1875,812.2969 L105.1875,811.375 Q105.1875,810.7656 105.4219,810.5 Q105.6719,810.2344 106.0469,810.2344 Q106.4219,810.2344 106.6563,810.5 Q106.8906,810.7656 106.8906,811.375 L106.8906,814 L98.8906,814 Q98.2656,814 98,813.7656 Q97.75,813.5313 97.75,813.1406 Q97.75,812.7656 98.0156,812.5313 Q98.2813,812.2969 98.8906,812.2969 L99.1563,812.2969 L99.1563,805.6406 L98.8906,805.6406 Q98.2656,805.6406 98,805.4063 Q97.75,805.1719 97.75,804.7813 Q97.75,804.4063 98,804.1719 Q98.2656,803.9375 98.8906,803.9375 L106.5156,803.9375 L106.5156,806.5313 Q106.5156,807.1406 106.2813,807.4063 Q106.0625,807.6563 105.6719,807.6563 Q105.2969,807.6563 105.0625,807.4063 Q104.8281,807.1406 104.8281,806.5313 L104.8281,805.6406 L100.8594,805.6406 L100.8594,808.0938 L102.3438,808.0938 Q102.3438,807.4375 102.4688,807.25 Q102.7344,806.8438 103.2031,806.8438 Q103.5781,806.8438 103.8125,807.1094 Q104.0469,807.3594 104.0469,807.9688 L104.0469,809.9375 Q104.0469,810.4844 103.9219,810.6719 Q103.6563,811.0625 103.2031,811.0625 Q102.7344,811.0625 102.4688,810.6563 Q102.3438,810.4688 102.3438,809.7969 L100.8594,809.7969 Z " fill="#000000"/><text fill="#000000" font-family="sans-serif" font-size="14" lengthAdjust="spacing" textLength="89" x="116" y="814.7969">AgendaStatus</text><line style="stroke:#181818;stroke-width:0.5;" x1="88" x2="207" y1="825" y2="825"/><text fill="#000000" font-family="sans-serif" font-size="14" lengthAdjust="spacing" textLength="63" x="93" y="844.1074">PLANNED</text><text fill="#000000" font-family="sans-serif" font-size="14" lengthAdjust="spacing" textLength="86" x="93" y="862.7285">POSTPONED</text><text fill="#000000" font-family="sans-serif" font-size="14" lengthAdjust="spacing" textLength="74" x="93" y="881.3496">CANCELED</text><text fill="#000000" font-family="sans-serif" font-size="14" lengthAdjust="spacing" textLength="39" x="93" y="899.9707">DONE</text><line style="stroke:#181818;stroke-width:0.5;" x1="88" x2="207" y1="907.4844" y2="907.4844"/></g><!--class PostponeEntryController--><g id="elem_PostponeEntryController"><rect codeLine="33" fill="#F1F1F1" height="103.8633" id="PostponeEntryController" rx="2.5" ry="2.5" style="stroke:#181818;stroke-width:0.5;" width="299" x="7" y="116"/><ellipse cx="74.75" cy="132" fill="#ADD1B2" rx="11" ry="11" style="stroke:#181818;stroke-width:1.0;"/><path d="M77.5156,127.875 Q77.6719,127.6563 77.8594,127.5469 Q78.0469,127.4375 78.2656,127.4375 Q78.6406,127.4375 78.875,127.7031 Q79.1094,127.9531 79.1094,128.5625 L79.1094,130.0156 Q79.1094,130.625 78.875,130.8906 Q78.6406,131.1563 78.2656,131.1563 Q77.9219,131.1563 77.7188,130.9531 Q77.5156,130.7656 77.4063,130.25 Q77.3594,129.8906 77.1719,129.7031 Q76.8438,129.3281 76.2344,129.1094 Q75.625,128.8906 75,128.8906 Q74.2344,128.8906 73.5938,129.2188 Q72.9688,129.5469 72.4688,130.2969 Q71.9844,131.0469 71.9844,132.0781 L71.9844,133.1719 Q71.9844,134.4063 72.875,135.2344 Q73.7656,136.0469 75.3594,136.0469 Q76.2969,136.0469 76.9531,135.7969 Q77.3438,135.6406 77.7656,135.2031 Q78.0313,134.9375 78.1719,134.8594 Q78.3281,134.7813 78.5313,134.7813 Q78.8594,134.7813 79.1094,135.0469 Q79.375,135.2969 79.375,135.6406 Q79.375,135.9844 79.0313,136.3906 Q78.5313,136.9688 77.7344,137.2969 Q76.6563,137.75 75.3594,137.75 Q73.8438,137.75 72.6406,137.125 Q71.6563,136.625 70.9688,135.5625 Q70.2813,134.4844 70.2813,133.2031 L70.2813,132.0469 Q70.2813,130.7188 70.8906,129.5781 Q71.5156,128.4219 72.6094,127.8125 Q73.7031,127.1875 74.9375,127.1875 Q75.6719,127.1875 76.3125,127.3594 Q76.9688,127.5156 77.5156,127.875 Z " fill="#000000"/><text fill="#000000" font-family="sans-serif" font-size="14" lengthAdjust="spacing" textLength="155" x="95.25" y="137.7969">PostponeEntryController</text><line style="stroke:#181818;stroke-width:0.5;" x1="8" x2="305" y1="148" y2="148"/><line style="stroke:#181818;stroke-width:0.5;" x1="8" x2="305" y1="156" y2="156"/><text fill="#000000" font-family="sans-serif" font-size="14" lengthAdjust="spacing" textLength="150" x="13" y="175.1074">-getEntryByIndex(index)</text><text fill="#000000" font-family="sans-serif" font-size="14" lengthAdjust="spacing" textLength="287" x="13" y="193.7285">+postponeEntry(entryindex, newStartingDate)</text><text fill="#000000" font-family="sans-serif" font-size="14" lengthAdjust="spacing" textLength="104" x="13" y="212.3496">+getEntriesList()</text></g><!--class PostponeEntryUI--><g id="elem_PostponeEntryUI"><rect codeLine="39" fill="#F1F1F1" height="48" id="PostponeEntryUI" rx="2.5" ry="2.5" style="stroke:#181818;stroke-width:0.5;" width="137" x="88" y="7"/><ellipse cx="103" cy="23" fill="#ADD1B2" rx="11" ry="11" style="stroke:#181818;stroke-width:1.0;"/><path d="M105.7656,18.875 Q105.9219,18.6563 106.1094,18.5469 Q106.2969,18.4375 106.5156,18.4375 Q106.8906,18.4375 107.125,18.7031 Q107.3594,18.9531 107.3594,19.5625 L107.3594,21.0156 Q107.3594,21.625 107.125,21.8906 Q106.8906,22.1563 106.5156,22.1563 Q106.1719,22.1563 105.9688,21.9531 Q105.7656,21.7656 105.6563,21.25 Q105.6094,20.8906 105.4219,20.7031 Q105.0938,20.3281 104.4844,20.1094 Q103.875,19.8906 103.25,19.8906 Q102.4844,19.8906 101.8438,20.2188 Q101.2188,20.5469 100.7188,21.2969 Q100.2344,22.0469 100.2344,23.0781 L100.2344,24.1719 Q100.2344,25.4063 101.125,26.2344 Q102.0156,27.0469 103.6094,27.0469 Q104.5469,27.0469 105.2031,26.7969 Q105.5938,26.6406 106.0156,26.2031 Q106.2813,25.9375 106.4219,25.8594 Q106.5781,25.7813 106.7813,25.7813 Q107.1094,25.7813 107.3594,26.0469 Q107.625,26.2969 107.625,26.6406 Q107.625,26.9844 107.2813,27.3906 Q106.7813,27.9688 105.9844,28.2969 Q104.9063,28.75 103.6094,28.75 Q102.0938,28.75 100.8906,28.125 Q99.9063,27.625 99.2188,26.5625 Q98.5313,25.4844 98.5313,24.2031 L98.5313,23.0469 Q98.5313,21.7188 99.1406,20.5781 Q99.7656,19.4219 100.8594,18.8125 Q101.9531,18.1875 103.1875,18.1875 Q103.9219,18.1875 104.5625,18.3594 Q105.2188,18.5156 105.7656,18.875 Z " fill="#000000"/><text fill="#000000" font-family="sans-serif" font-size="14" lengthAdjust="spacing" textLength="105" x="117" y="28.7969">PostponeEntryUI</text><line style="stroke:#181818;stroke-width:0.5;" x1="89" x2="224" y1="39" y2="39"/><line style="stroke:#181818;stroke-width:0.5;" x1="89" x2="224" y1="47" y2="47"/></g><!--link PostponeEntryUI to PostponeEntryController--><g id="link_PostponeEntryUI_PostponeEntryController"><path codeLine="43" d="M156.5,55.21 C156.5,71.87 156.5,88.97 156.5,109.86 " fill="none" id="PostponeEntryUI-to-PostponeEntryController" style="stroke:#181818;stroke-width:1.0;stroke-dasharray:7.0,7.0;"/><polygon fill="#181818" points="156.5,115.86,160.5,106.86,156.5,110.86,152.5,106.86,156.5,115.86" style="stroke:#181818;stroke-width:1.0;"/></g><!--link PostponeEntryController to Repositories--><g id="link_PostponeEntryController_Repositories"><path codeLine="45" d="M196.09,220.17 C214.88,244.46 233.7891,268.894 253.3891,294.234 " fill="none" id="PostponeEntryController-to-Repositories" style="stroke:#181818;stroke-width:1.0;stroke-dasharray:7.0,7.0;"/><polygon fill="#181818" points="257.06,298.98,254.7176,289.4137,254.0009,295.025,248.3896,294.3083,257.06,298.98" style="stroke:#181818;stroke-width:1.0;"/><text fill="#000000" font-family="sans-serif" font-size="13" lengthAdjust="spacing" textLength="67" x="230.5" y="265.0283">repositories</text></g><!--link PostponeEntryController to Agenda--><g id="link_PostponeEntryController_Agenda"><path codeLine="47" d="M152.18,220.01 C149.1,256.43 145.5,299 145.5,299 C145.5,299 145.5,421 145.5,421 C145.5,421 145.9524,446.381 146.4824,475.921 " fill="none" id="PostponeEntryController-to-Agenda" style="stroke:#181818;stroke-width:1.0;stroke-dasharray:7.0,7.0;"/><polygon fill="#181818" points="146.59,481.92,150.4279,472.8497,146.5003,476.9208,142.4292,472.9932,146.59,481.92" style="stroke:#181818;stroke-width:1.0;"/><text fill="#000000" font-family="sans-serif" font-size="13" lengthAdjust="spacing" textLength="42" x="146.5" y="365.5283">agenda</text></g><!--link Repositories to Repositories--><g id="link_Repositories_Repositories"><path codeLine="49" d="M400.78,343.72 C420.98,345.43 435.5,350.86 435.5,360 C435.5,369.14 426.9586,374.0639 406.7586,375.7739 " fill="none" id="Repositories-to-Repositories" style="stroke:#181818;stroke-width:1.0;"/><polygon fill="#181818" points="400.78,376.28,410.0853,379.5066,405.7622,375.8582,409.4105,371.5351,400.78,376.28" style="stroke:#181818;stroke-width:1.0;"/><text fill="#000000" font-family="sans-serif" font-size="13" lengthAdjust="spacing" textLength="49" x="441.5" y="365.5283">instance</text></g><!--link Repositories to Agenda--><g id="link_Repositories_Agenda"><path codeLine="51" d="M248.94,421.16 C231.01,440.92 215.301,458.2458 198.031,477.2858 " fill="none" id="Repositories-to-Agenda" style="stroke:#181818;stroke-width:1.0;"/><polygon fill="#181818" points="194,481.73,203.0093,477.7511,197.3592,478.0265,197.0838,472.3764,194,481.73" style="stroke:#181818;stroke-width:1.0;"/><text fill="#000000" font-family="sans-serif" font-size="13" lengthAdjust="spacing" textLength="7" x="192.7781" y="470.6211">1</text></g><!--link Agenda to Entry--><g id="link_Agenda_Entry"><path codeLine="53" d="M147.5,586.11 C147.5,605.82 147.5,622.08 147.5,640.8 " fill="none" id="Agenda-to-Entry" style="stroke:#181818;stroke-width:1.0;"/><polygon fill="#181818" points="147.5,646.8,151.5,637.8,147.5,641.8,143.5,637.8,147.5,646.8" style="stroke:#181818;stroke-width:1.0;"/><text fill="#000000" font-family="sans-serif" font-size="13" lengthAdjust="spacing" textLength="5" x="142.1016" y="635.6722">*</text></g><!--link Entry to AgendaStatus--><g id="link_Entry_AgendaStatus"><path codeLine="55" d="M147.5,732.35 C147.5,750.78 147.5,766.78 147.5,786.92 " fill="none" id="Entry-to-AgendaStatus" style="stroke:#181818;stroke-width:1.0;"/><polygon fill="#181818" points="147.5,792.92,151.5,783.92,147.5,787.92,143.5,783.92,147.5,792.92" style="stroke:#181818;stroke-width:1.0;"/><text fill="#000000" font-family="sans-serif" font-size="13" lengthAdjust="spacing" textLength="7" x="140.0953" y="781.892">1</text></g><!--SRC=[bLB1Ri8m3BtdAo9EPGEqNNkOn2Y7IWZGoZuWQxqk8YHLOyOwj7zVcgHhYiQazP0sVk_PxhFrdikArUn0AvRlMGaPDW9e3JaoMGeW-eUWtrYXJboMz9K97IA2Iy2c0befqRGN4e2vO5hF4Ml-SaH8SoKp_WdqZX2Bq7a9ic3qJAXvfkzCy88XB2NMJGJjERR8RQKqLag6o8HAE6N8QZHT9KRbgILWo-AWLrnZD2PVNJ4hxcgrYfZgGE_aha8Odr1aUc_p-4HFOFhXgDeYNRv1CFAzKDDCAaqocKCqfl60r5ES2w5efnBLjm_oUF1McH_6OrTqkvglryl4VM-otNRJtHRpzMAvyfV4X7iNjg6L2sLE9GJK_ZUyUyrZaye2FYBUdjU7OE7_JsBGmtDw9Yrq4QIpsSErPY_8FM15eScnsUR0yZzrpk6OClicP33cwVGoCVU3_OKukX_vR8Ju5RVXcv5RGaBSBWwvRhRV]--></g></svg>