<?xml version="1.0" encoding="us-ascii" standalone="no"?><svg xmlns="http://www.w3.org/2000/svg" xmlns:xlink="http://www.w3.org/1999/xlink" contentStyleType="text/css" height="576px" preserveAspectRatio="none" style="width:609px;height:576px;background:#FFFFFF;" version="1.1" viewBox="0 0 609 576" width="609px" zoomAndPan="magnify"><defs/><g><rect fill="#FFFFFF" height="379.416" style="stroke:#181818;stroke-width:1.0;" width="10" x="223" y="84.2871"/><rect fill="#FFFFFF" height="29.3105" style="stroke:#181818;stroke-width:1.0;" width="10" x="440" y="238.8398"/><rect fill="#FFFFFF" height="29.3105" style="stroke:#181818;stroke-width:1.0;" width="10" x="561.5" y="180.2188"/><rect fill="#FFFFFF" height="29.3105" style="stroke:#181818;stroke-width:1.0;" width="10" x="561.5" y="339.7715"/><rect fill="#FFFFFF" height="30" style="stroke:#181818;stroke-width:1.0;" width="10" x="561.5" y="398.3926"/><rect fill="none" height="379.416" style="stroke:#000000;stroke-width:1.5;" width="419.5" x="183.5" y="99.2871"/><line style="stroke:#181818;stroke-width:0.5;stroke-dasharray:5.0,5.0;" x1="227.5" x2="227.5" y1="52.9766" y2="525.0137"/><line style="stroke:#181818;stroke-width:0.5;stroke-dasharray:5.0,5.0;" x1="445" x2="445" y1="52.9766" y2="525.0137"/><line style="stroke:#181818;stroke-width:0.5;stroke-dasharray:5.0,5.0;" x1="566" x2="566" y1="52.9766" y2="525.0137"/><rect fill="#E3E3E3" height="46.9766" rx="2.5" ry="2.5" style="stroke:#181818;stroke-width:0.5;" width="69" x="193.5" y="5"/><text fill="#000000" font-family="sans-serif" font-size="14" lengthAdjust="spacing" textLength="55" x="200.5" y="25.5352">agenda:</text><text fill="#000000" font-family="sans-serif" font-size="14" lengthAdjust="spacing" textLength="53" x="201.5" y="42.0234">Agenda</text><rect fill="#E3E3E3" height="46.9766" rx="2.5" ry="2.5" style="stroke:#181818;stroke-width:0.5;" width="69" x="193.5" y="524.0137"/><text fill="#000000" font-family="sans-serif" font-size="14" lengthAdjust="spacing" textLength="55" x="200.5" y="544.5488">agenda:</text><text fill="#000000" font-family="sans-serif" font-size="14" lengthAdjust="spacing" textLength="53" x="201.5" y="561.0371">Agenda</text><rect fill="#E3E3E3" height="46.9766" rx="2.5" ry="2.5" style="stroke:#181818;stroke-width:0.5;" width="170" x="360" y="5"/><text fill="#000000" font-family="sans-serif" font-size="14" lengthAdjust="spacing" textLength="151" x="369.5" y="25.5352">greenSpacesManager:</text><text fill="#000000" font-family="sans-serif" font-size="14" lengthAdjust="spacing" textLength="156" x="367" y="42.0234">Green Spaces Manager</text><rect fill="#E3E3E3" height="46.9766" rx="2.5" ry="2.5" style="stroke:#181818;stroke-width:0.5;" width="170" x="360" y="524.0137"/><text fill="#000000" font-family="sans-serif" font-size="14" lengthAdjust="spacing" textLength="151" x="369.5" y="544.5488">greenSpacesManager:</text><text fill="#000000" font-family="sans-serif" font-size="14" lengthAdjust="spacing" textLength="156" x="367" y="561.0371">Green Spaces Manager</text><rect fill="#E3E3E3" height="46.9766" rx="2.5" ry="2.5" style="stroke:#181818;stroke-width:0.5;" width="53" x="540" y="5"/><text fill="#000000" font-family="sans-serif" font-size="14" lengthAdjust="spacing" textLength="35" x="549" y="25.5352">entry</text><text fill="#000000" font-family="sans-serif" font-size="14" lengthAdjust="spacing" textLength="39" x="547" y="42.0234">:Entry</text><rect fill="#E3E3E3" height="46.9766" rx="2.5" ry="2.5" style="stroke:#181818;stroke-width:0.5;" width="53" x="540" y="524.0137"/><text fill="#000000" font-family="sans-serif" font-size="14" lengthAdjust="spacing" textLength="35" x="549" y="544.5488">entry</text><text fill="#000000" font-family="sans-serif" font-size="14" lengthAdjust="spacing" textLength="39" x="547" y="561.0371">:Entry</text><rect fill="#FFFFFF" height="379.416" style="stroke:#181818;stroke-width:1.0;" width="10" x="223" y="84.2871"/><rect fill="#FFFFFF" height="29.3105" style="stroke:#181818;stroke-width:1.0;" width="10" x="440" y="238.8398"/><rect fill="#FFFFFF" height="29.3105" style="stroke:#181818;stroke-width:1.0;" width="10" x="561.5" y="180.2188"/><rect fill="#FFFFFF" height="29.3105" style="stroke:#181818;stroke-width:1.0;" width="10" x="561.5" y="339.7715"/><rect fill="#FFFFFF" height="30" style="stroke:#181818;stroke-width:1.0;" width="10" x="561.5" y="398.3926"/><polygon fill="#181818" points="211,80.2871,221,84.2871,211,88.2871,215,84.2871" style="stroke:#181818;stroke-width:1.0;"/><line style="stroke:#181818;stroke-width:1.0;" x1="0" x2="217" y1="84.2871" y2="84.2871"/><text fill="#000000" font-family="sans-serif" font-size="13" font-weight="bold" lengthAdjust="spacing" textLength="18" x="7" y="79.5449">18</text><text fill="#000000" font-family="sans-serif" font-size="13" lengthAdjust="spacing" textLength="182" x="29" y="79.5449">postponeEntry(i.e., new date)</text><path d="M183.5,99.2871 L330.5,99.2871 L330.5,106.5977 L320.5,116.5977 L183.5,116.5977 L183.5,99.2871 " fill="#EEEEEE" style="stroke:#000000;stroke-width:1.5;"/><rect fill="none" height="379.416" style="stroke:#000000;stroke-width:1.5;" width="419.5" x="183.5" y="99.2871"/><text fill="#000000" font-family="sans-serif" font-size="13" font-weight="bold" lengthAdjust="spacing" textLength="102" x="198.5" y="112.8555">Postpone Entry</text><line style="stroke:#181818;stroke-width:1.0;" x1="233" x2="275" y1="137.9082" y2="137.9082"/><line style="stroke:#181818;stroke-width:1.0;" x1="275" x2="275" y1="137.9082" y2="150.9082"/><line style="stroke:#181818;stroke-width:1.0;" x1="234" x2="275" y1="150.9082" y2="150.9082"/><polygon fill="#181818" points="244,146.9082,234,150.9082,244,154.9082,240,150.9082" style="stroke:#181818;stroke-width:1.0;"/><text fill="#000000" font-family="sans-serif" font-size="13" font-weight="bold" lengthAdjust="spacing" textLength="30" x="240" y="133.166">18.1</text><text fill="#000000" font-family="sans-serif" font-size="13" lengthAdjust="spacing" textLength="159" x="274" y="133.166">validateUser(email, entry)</text><polygon fill="#181818" points="549.5,176.2188,559.5,180.2188,549.5,184.2188,553.5,180.2188" style="stroke:#181818;stroke-width:1.0;"/><line style="stroke:#181818;stroke-width:1.0;" x1="233" x2="555.5" y1="180.2188" y2="180.2188"/><text fill="#000000" font-family="sans-serif" font-size="13" font-weight="bold" lengthAdjust="spacing" textLength="30" x="240" y="175.4766">18.2</text><text fill="#000000" font-family="sans-serif" font-size="13" lengthAdjust="spacing" textLength="160" x="274" y="175.4766">getGreenSpacesManager()</text><polygon fill="#181818" points="244,205.5293,234,209.5293,244,213.5293,240,209.5293" style="stroke:#181818;stroke-width:1.0;"/><line style="stroke:#181818;stroke-width:1.0;stroke-dasharray:2.0,2.0;" x1="238" x2="565.5" y1="209.5293" y2="209.5293"/><text fill="#000000" font-family="sans-serif" font-size="13" font-weight="bold" lengthAdjust="spacing" textLength="30" x="250" y="204.7871">18.3</text><text fill="#000000" font-family="sans-serif" font-size="13" lengthAdjust="spacing" textLength="131" x="284" y="204.7871">greenSpacesManager</text><polygon fill="#181818" points="428,234.8398,438,238.8398,428,242.8398,432,238.8398" style="stroke:#181818;stroke-width:1.0;"/><line style="stroke:#181818;stroke-width:1.0;" x1="233" x2="434" y1="238.8398" y2="238.8398"/><text fill="#000000" font-family="sans-serif" font-size="13" font-weight="bold" lengthAdjust="spacing" textLength="30" x="240" y="234.0977">18.4</text><text fill="#000000" font-family="sans-serif" font-size="13" lengthAdjust="spacing" textLength="62" x="274" y="234.0977">getEmail()</text><polygon fill="#181818" points="244,264.1504,234,268.1504,244,272.1504,240,268.1504" style="stroke:#181818;stroke-width:1.0;"/><line style="stroke:#181818;stroke-width:1.0;stroke-dasharray:2.0,2.0;" x1="238" x2="444" y1="268.1504" y2="268.1504"/><text fill="#000000" font-family="sans-serif" font-size="13" font-weight="bold" lengthAdjust="spacing" textLength="30" x="250" y="263.4082">18.5</text><text fill="#000000" font-family="sans-serif" font-size="13" lengthAdjust="spacing" textLength="34" x="284" y="263.4082">email</text><line style="stroke:#181818;stroke-width:1.0;stroke-dasharray:2.0,2.0;" x1="233" x2="275" y1="297.4609" y2="297.4609"/><line style="stroke:#181818;stroke-width:1.0;stroke-dasharray:2.0,2.0;" x1="275" x2="275" y1="297.4609" y2="310.4609"/><line style="stroke:#181818;stroke-width:1.0;stroke-dasharray:2.0,2.0;" x1="234" x2="275" y1="310.4609" y2="310.4609"/><polygon fill="#181818" points="244,306.4609,234,310.4609,244,314.4609,240,310.4609" style="stroke:#181818;stroke-width:1.0;"/><text fill="#000000" font-family="sans-serif" font-size="13" font-weight="bold" lengthAdjust="spacing" textLength="30" x="240" y="292.7188">18.6</text><text fill="#000000" font-family="sans-serif" font-size="13" lengthAdjust="spacing" textLength="4" x="274" y="292.7188">&#160;</text><polygon fill="#181818" points="549.5,335.7715,559.5,339.7715,549.5,343.7715,553.5,339.7715" style="stroke:#181818;stroke-width:1.0;"/><line style="stroke:#181818;stroke-width:1.0;" x1="233" x2="555.5" y1="339.7715" y2="339.7715"/><text fill="#000000" font-family="sans-serif" font-size="13" font-weight="bold" lengthAdjust="spacing" textLength="30" x="240" y="335.0293">18.7</text><text fill="#000000" font-family="sans-serif" font-size="13" lengthAdjust="spacing" textLength="208" x="274" y="335.0293">setStartingDate(newStartingDate)</text><polygon fill="#181818" points="244,365.082,234,369.082,244,373.082,240,369.082" style="stroke:#181818;stroke-width:1.0;"/><line style="stroke:#181818;stroke-width:1.0;stroke-dasharray:2.0,2.0;" x1="238" x2="565.5" y1="369.082" y2="369.082"/><text fill="#000000" font-family="sans-serif" font-size="13" font-weight="bold" lengthAdjust="spacing" textLength="30" x="250" y="364.3398">18.8</text><text fill="#000000" font-family="sans-serif" font-size="13" lengthAdjust="spacing" textLength="4" x="284" y="364.3398">&#160;</text><polygon fill="#181818" points="549.5,394.3926,559.5,398.3926,549.5,402.3926,553.5,398.3926" style="stroke:#181818;stroke-width:1.0;"/><line style="stroke:#181818;stroke-width:1.0;" x1="233" x2="555.5" y1="398.3926" y2="398.3926"/><text fill="#000000" font-family="sans-serif" font-size="13" font-weight="bold" lengthAdjust="spacing" textLength="30" x="240" y="393.6504">18.9</text><text fill="#000000" font-family="sans-serif" font-size="13" lengthAdjust="spacing" textLength="168" x="274" y="393.6504">changeStatus(POSTPONED)</text><line style="stroke:#181818;stroke-width:1.0;stroke-dasharray:2.0,2.0;" x1="233" x2="275" y1="462.7031" y2="462.7031"/><line style="stroke:#181818;stroke-width:1.0;stroke-dasharray:2.0,2.0;" x1="275" x2="275" y1="462.7031" y2="475.7031"/><line style="stroke:#181818;stroke-width:1.0;stroke-dasharray:2.0,2.0;" x1="228" x2="275" y1="475.7031" y2="475.7031"/><polygon fill="#181818" points="238,471.7031,228,475.7031,238,479.7031,234,475.7031" style="stroke:#181818;stroke-width:1.0;"/><text fill="#000000" font-family="sans-serif" font-size="13" font-weight="bold" lengthAdjust="spacing" textLength="39" x="240" y="457.9609">18.10</text><text fill="#000000" font-family="sans-serif" font-size="13" lengthAdjust="spacing" textLength="4" x="283" y="457.9609">&#160;</text><polygon fill="#181818" points="11,503.0137,1,507.0137,11,511.0137,7,507.0137" style="stroke:#181818;stroke-width:1.0;"/><line style="stroke:#181818;stroke-width:1.0;stroke-dasharray:2.0,2.0;" x1="5" x2="227" y1="507.0137" y2="507.0137"/><text fill="#000000" font-family="sans-serif" font-size="13" font-weight="bold" lengthAdjust="spacing" textLength="18" x="17" y="502.2715">19</text><text fill="#000000" font-family="sans-serif" font-size="13" lengthAdjust="spacing" textLength="32" x="39" y="502.2715">entry</text><!--SRC=[hLHDRy8m3BtdLrXSLYH0uhPLqoGaAau3HE4mYOjfJObeaof9OVpxfLbXhOhua9PBMyVlsSzshVTSvAWmWqmA6UsKp0YCAeZfoqsEqHuJ2iqf9L0K6HH9MdVGEupbaOi4jfXgOWmB8qMHRKWnzhBZCS5MIhEHtunPXE4Hpr4Ow5XM4QE_5YFtqW7KC9e4q_6ewPSe8X7QF4X_eh0ePJ6JqWY_LgZCZc4L1eicdeHHfxNmW_BfV8BfSl5LJnI6hun1_wEA3pxaKfjS2d8WZmzeq0D1HuZHKBU970mPHeOVxCqvVx0dKRB8OLxnW2DYxkPygc2Ni3uSCELbX9KcvL66FEs1Ix_RH3RHJeuF2Pb9grHUjmMidqlYLKbk-JeNwDVIRNVc9a5CpuJxqrUsrCaBoeeygiWDmatNqgEXnrNyKGdt-UigBb4UXrIDjSEeoOIc76cHZ6repmvY_Rjxb_APkbzhzLt0SwszhZBQsTLY5msQGdlpMRYSpwR1-7_5jV9yhdSFKjSxRLURUzPNnfkplFVxvn1MlVlDMPla1m00]--></g></svg>