<?xml version="1.0" encoding="us-ascii" standalone="no"?><svg xmlns="http://www.w3.org/2000/svg" xmlns:xlink="http://www.w3.org/1999/xlink" contentStyleType="text/css" height="524px" preserveAspectRatio="none" style="width:848px;height:524px;background:#FFFFFF;" version="1.1" viewBox="0 0 848 524" width="848px" zoomAndPan="magnify"><defs/><g><rect fill="#FFFFFF" height="401.3078" style="stroke:#181818;stroke-width:0.8000000000000002;" width="8" x="108" y="67.4297"/><rect fill="#FFFFFF" height="23.4484" style="stroke:#181818;stroke-width:0.8000000000000002;" width="8" x="253.2" y="110.3266"/><rect fill="#FFFFFF" height="23.4484" style="stroke:#181818;stroke-width:0.8000000000000002;" width="8" x="343.6" y="157.2234"/><rect fill="#FFFFFF" height="23.4484" style="stroke:#181818;stroke-width:0.8000000000000002;" width="8" x="420.4" y="204.1203"/><rect fill="#FFFFFF" height="188.6719" style="stroke:#181818;stroke-width:0.8000000000000002;" width="8" x="498" y="251.0172"/><rect fill="#FFFFFF" height="23.4484" style="stroke:#181818;stroke-width:0.8000000000000002;" width="8" x="634" y="340.2953"/><rect fill="#FFFFFF" height="29.0484" style="stroke:#181818;stroke-width:0.8000000000000002;" width="8" x="721.6" y="387.1922"/><rect fill="none" height="366.6594" style="stroke:#000000;stroke-width:1.2000000000000002;" width="782.4" x="8" y="79.4297"/><rect fill="none" height="84.1938" style="stroke:#000000;stroke-width:1.2000000000000002;" width="330.4" x="452" y="309.3984"/><line style="stroke:#181818;stroke-width:0.4000000000000001;stroke-dasharray:5.0,5.0;" x1="112" x2="112" y1="42.3813" y2="483.1375"/><line style="stroke:#181818;stroke-width:0.4000000000000001;stroke-dasharray:5.0,5.0;" x1="256.8" x2="256.8" y1="42.3813" y2="483.1375"/><line style="stroke:#181818;stroke-width:0.4000000000000001;stroke-dasharray:5.0,5.0;" x1="347.2" x2="347.2" y1="42.3813" y2="483.1375"/><line style="stroke:#181818;stroke-width:0.4000000000000001;stroke-dasharray:5.0,5.0;" x1="424" x2="424" y1="42.3813" y2="483.1375"/><line style="stroke:#181818;stroke-width:0.4000000000000001;stroke-dasharray:5.0,5.0;" x1="501.6" x2="501.6" y1="42.3813" y2="483.1375"/><line style="stroke:#181818;stroke-width:0.4000000000000001;stroke-dasharray:5.0,5.0;" x1="637.6" x2="637.6" y1="42.3813" y2="483.1375"/><line style="stroke:#181818;stroke-width:0.4000000000000001;stroke-dasharray:5.0,5.0;" x1="725.6" x2="725.6" y1="288.6078" y2="483.1375"/><line style="stroke:#181818;stroke-width:0.4000000000000001;stroke-dasharray:5.0,5.0;" x1="812.8" x2="812.8" y1="42.3813" y2="483.1375"/><rect fill="#E3E3E3" height="24.3906" rx="2" ry="2" style="stroke:#181818;stroke-width:0.4000000000000001;" width="192" x="16" y="17.1906"/><text fill="#000000" font-family="sans-serif" font-size="11.2" lengthAdjust="spacing" textLength="180.8" x="21.6" y="33.6188">:PostponeEntryAgendaController</text><rect fill="#E3E3E3" height="24.3906" rx="2" ry="2" style="stroke:#181818;stroke-width:0.4000000000000001;" width="192" x="16" y="482.3375"/><text fill="#000000" font-family="sans-serif" font-size="11.2" lengthAdjust="spacing" textLength="180.8" x="21.6" y="498.7656">:PostponeEntryAgendaController</text><rect fill="#E3E3E3" height="24.3906" rx="2" ry="2" style="stroke:#181818;stroke-width:0.4000000000000001;" width="82.4" x="216" y="17.1906"/><text fill="#000000" font-family="sans-serif" font-size="11.2" lengthAdjust="spacing" textLength="71.2" x="221.6" y="33.6188">:Repositories</text><rect fill="#E3E3E3" height="24.3906" rx="2" ry="2" style="stroke:#181818;stroke-width:0.4000000000000001;" width="82.4" x="216" y="482.3375"/><text fill="#000000" font-family="sans-serif" font-size="11.2" lengthAdjust="spacing" textLength="71.2" x="221.6" y="498.7656">:Repositories</text><rect fill="#E3E3E3" height="37.5813" rx="2" ry="2" style="stroke:#181818;stroke-width:0.4000000000000001;" width="82.4" x="306.4" y="4"/><text fill="#000000" font-family="sans-serif" font-size="11.2" lengthAdjust="spacing" textLength="65.6" x="314.8" y="20.4281">repositories</text><text fill="#000000" font-family="sans-serif" font-size="11.2" lengthAdjust="spacing" textLength="71.2" x="312" y="33.6188">:Repositories</text><rect fill="#E3E3E3" height="37.5813" rx="2" ry="2" style="stroke:#181818;stroke-width:0.4000000000000001;" width="82.4" x="306.4" y="482.3375"/><text fill="#000000" font-family="sans-serif" font-size="11.2" lengthAdjust="spacing" textLength="65.6" x="314.8" y="498.7656">repositories</text><text fill="#000000" font-family="sans-serif" font-size="11.2" lengthAdjust="spacing" textLength="71.2" x="312" y="511.9563">:Repositories</text><rect fill="#E3E3E3" height="37.5813" rx="2" ry="2" style="stroke:#181818;stroke-width:0.4000000000000001;" width="55.2" x="396.8" y="4"/><text fill="#000000" font-family="sans-serif" font-size="11.2" lengthAdjust="spacing" textLength="44" x="402.4" y="20.4281">agenda:</text><text fill="#000000" font-family="sans-serif" font-size="11.2" lengthAdjust="spacing" textLength="42.4" x="403.2" y="33.6188">Agenda</text><rect fill="#E3E3E3" height="37.5813" rx="2" ry="2" style="stroke:#181818;stroke-width:0.4000000000000001;" width="55.2" x="396.8" y="482.3375"/><text fill="#000000" font-family="sans-serif" font-size="11.2" lengthAdjust="spacing" textLength="44" x="402.4" y="498.7656">agenda:</text><text fill="#000000" font-family="sans-serif" font-size="11.2" lengthAdjust="spacing" textLength="42.4" x="403.2" y="511.9563">Agenda</text><rect fill="#E3E3E3" height="24.3906" rx="2" ry="2" style="stroke:#181818;stroke-width:0.4000000000000001;" width="84" x="460" y="17.1906"/><text fill="#000000" font-family="sans-serif" font-size="11.2" lengthAdjust="spacing" textLength="72.8" x="465.6" y="33.6188">:EntryMapper</text><rect fill="#E3E3E3" height="24.3906" rx="2" ry="2" style="stroke:#181818;stroke-width:0.4000000000000001;" width="84" x="460" y="482.3375"/><text fill="#000000" font-family="sans-serif" font-size="11.2" lengthAdjust="spacing" textLength="72.8" x="465.6" y="498.7656">:EntryMapper</text><rect fill="#E3E3E3" height="37.5813" rx="2" ry="2" style="stroke:#181818;stroke-width:0.4000000000000001;" width="61.6" x="607.2" y="4"/><text fill="#000000" font-family="sans-serif" font-size="11.2" lengthAdjust="spacing" textLength="47.2" x="614.4" y="20.4281">entryDto</text><text fill="#000000" font-family="sans-serif" font-size="11.2" lengthAdjust="spacing" textLength="50.4" x="612.8" y="33.6188">:EntryDto</text><rect fill="#E3E3E3" height="37.5813" rx="2" ry="2" style="stroke:#181818;stroke-width:0.4000000000000001;" width="61.6" x="607.2" y="482.3375"/><text fill="#000000" font-family="sans-serif" font-size="11.2" lengthAdjust="spacing" textLength="47.2" x="614.4" y="498.7656">entryDto</text><text fill="#000000" font-family="sans-serif" font-size="11.2" lengthAdjust="spacing" textLength="50.4" x="612.8" y="511.9563">:EntryDto</text><rect fill="#E3E3E3" height="37.5813" rx="2" ry="2" style="stroke:#181818;stroke-width:0.4000000000000001;" width="97.6" x="676.8" y="482.3375"/><text fill="#000000" font-family="sans-serif" font-size="11.2" lengthAdjust="spacing" textLength="65.6" x="692.8" y="498.7656">entryListDto</text><text fill="#000000" font-family="sans-serif" font-size="11.2" lengthAdjust="spacing" textLength="86.4" x="682.4" y="511.9563">:List&lt;entryDto&gt;</text><rect fill="#E3E3E3" height="37.5813" rx="2" ry="2" style="stroke:#181818;stroke-width:0.4000000000000001;" width="60.8" x="782.4" y="4"/><text fill="#000000" font-family="sans-serif" font-size="11.2" lengthAdjust="spacing" textLength="49.6" x="788" y="20.4281">entryList:</text><text fill="#000000" font-family="sans-serif" font-size="11.2" lengthAdjust="spacing" textLength="46.4" x="789.6" y="33.6188">EntryList</text><rect fill="#E3E3E3" height="37.5813" rx="2" ry="2" style="stroke:#181818;stroke-width:0.4000000000000001;" width="60.8" x="782.4" y="482.3375"/><text fill="#000000" font-family="sans-serif" font-size="11.2" lengthAdjust="spacing" textLength="49.6" x="788" y="498.7656">entryList:</text><text fill="#000000" font-family="sans-serif" font-size="11.2" lengthAdjust="spacing" textLength="46.4" x="789.6" y="511.9563">EntryList</text><rect fill="#FFFFFF" height="401.3078" style="stroke:#181818;stroke-width:0.8000000000000002;" width="8" x="108" y="67.4297"/><rect fill="#FFFFFF" height="23.4484" style="stroke:#181818;stroke-width:0.8000000000000002;" width="8" x="253.2" y="110.3266"/><rect fill="#FFFFFF" height="23.4484" style="stroke:#181818;stroke-width:0.8000000000000002;" width="8" x="343.6" y="157.2234"/><rect fill="#FFFFFF" height="23.4484" style="stroke:#181818;stroke-width:0.8000000000000002;" width="8" x="420.4" y="204.1203"/><rect fill="#FFFFFF" height="188.6719" style="stroke:#181818;stroke-width:0.8000000000000002;" width="8" x="498" y="251.0172"/><rect fill="#FFFFFF" height="23.4484" style="stroke:#181818;stroke-width:0.8000000000000002;" width="8" x="634" y="340.2953"/><rect fill="#FFFFFF" height="29.0484" style="stroke:#181818;stroke-width:0.8000000000000002;" width="8" x="721.6" y="387.1922"/><polygon fill="#181818" points="98.4,64.2297,106.4,67.4297,98.4,70.6297,101.6,67.4297" style="stroke:#181818;stroke-width:0.8000000000000002;"/><line style="stroke:#181818;stroke-width:0.8000000000000002;" x1="0" x2="103.2" y1="67.4297" y2="67.4297"/><text fill="#000000" font-family="sans-serif" font-size="10.4" font-weight="bold" lengthAdjust="spacing" textLength="7.2" x="5.6" y="63.6359">3</text><text fill="#000000" font-family="sans-serif" font-size="10.4" lengthAdjust="spacing" textLength="79.2" x="16" y="63.6359">getEntriesDTO()</text><path d="M8,79.4297 L147.2,79.4297 L147.2,85.2781 L139.2,93.2781 L8,93.2781 L8,79.4297 " fill="#EEEEEE" style="stroke:#000000;stroke-width:1.2000000000000002;"/><rect fill="none" height="366.6594" style="stroke:#000000;stroke-width:1.2000000000000002;" width="782.4" x="8" y="79.4297"/><text fill="#000000" font-family="sans-serif" font-size="10.4" font-weight="bold" lengthAdjust="spacing" textLength="103.2" x="20" y="90.2844">Get Entries Dto List</text><polygon fill="#181818" points="243.6,107.1266,251.6,110.3266,243.6,113.5266,246.8,110.3266" style="stroke:#181818;stroke-width:0.8000000000000002;"/><line style="stroke:#181818;stroke-width:0.8000000000000002;" x1="116" x2="248.4" y1="110.3266" y2="110.3266"/><text fill="#000000" font-family="sans-serif" font-size="10.4" font-weight="bold" lengthAdjust="spacing" textLength="16.8" x="121.6" y="106.5328">3.1</text><text fill="#000000" font-family="sans-serif" font-size="10.4" lengthAdjust="spacing" textLength="64.8" x="141.6" y="106.5328">getInstance()</text><polygon fill="#181818" points="124.8,130.575,116.8,133.775,124.8,136.975,121.6,133.775" style="stroke:#181818;stroke-width:0.8000000000000002;"/><line style="stroke:#181818;stroke-width:0.8000000000000002;stroke-dasharray:2.0,2.0;" x1="120" x2="256.4" y1="133.775" y2="133.775"/><text fill="#000000" font-family="sans-serif" font-size="10.4" font-weight="bold" lengthAdjust="spacing" textLength="16.8" x="129.6" y="129.9813">3.2</text><text fill="#000000" font-family="sans-serif" font-size="10.4" lengthAdjust="spacing" textLength="60" x="149.6" y="129.9813">repositories</text><polygon fill="#181818" points="334,154.0234,342,157.2234,334,160.4234,337.2,157.2234" style="stroke:#181818;stroke-width:0.8000000000000002;"/><line style="stroke:#181818;stroke-width:0.8000000000000002;" x1="116" x2="338.8" y1="157.2234" y2="157.2234"/><text fill="#000000" font-family="sans-serif" font-size="10.4" font-weight="bold" lengthAdjust="spacing" textLength="16.8" x="121.6" y="153.4297">3.3</text><text fill="#000000" font-family="sans-serif" font-size="10.4" lengthAdjust="spacing" textLength="60" x="141.6" y="153.4297">getAgenda()</text><polygon fill="#181818" points="124.8,177.4719,116.8,180.6719,124.8,183.8719,121.6,180.6719" style="stroke:#181818;stroke-width:0.8000000000000002;"/><line style="stroke:#181818;stroke-width:0.8000000000000002;stroke-dasharray:2.0,2.0;" x1="120" x2="346.8" y1="180.6719" y2="180.6719"/><text fill="#000000" font-family="sans-serif" font-size="10.4" font-weight="bold" lengthAdjust="spacing" textLength="16.8" x="129.6" y="176.8781">3.4</text><text fill="#000000" font-family="sans-serif" font-size="10.4" lengthAdjust="spacing" textLength="36" x="149.6" y="176.8781">agenda</text><polygon fill="#181818" points="410.8,200.9203,418.8,204.1203,410.8,207.3203,414,204.1203" style="stroke:#181818;stroke-width:0.8000000000000002;"/><line style="stroke:#181818;stroke-width:0.8000000000000002;" x1="116" x2="415.6" y1="204.1203" y2="204.1203"/><text fill="#000000" font-family="sans-serif" font-size="10.4" font-weight="bold" lengthAdjust="spacing" textLength="16.8" x="121.6" y="200.3266">3.5</text><text fill="#000000" font-family="sans-serif" font-size="10.4" lengthAdjust="spacing" textLength="75.2" x="141.6" y="200.3266">getEntriesList()</text><polygon fill="#181818" points="124.8,224.3688,116.8,227.5688,124.8,230.7688,121.6,227.5688" style="stroke:#181818;stroke-width:0.8000000000000002;"/><line style="stroke:#181818;stroke-width:0.8000000000000002;stroke-dasharray:2.0,2.0;" x1="120" x2="423.6" y1="227.5688" y2="227.5688"/><text fill="#000000" font-family="sans-serif" font-size="10.4" font-weight="bold" lengthAdjust="spacing" textLength="16.8" x="129.6" y="223.775">3.6</text><text fill="#000000" font-family="sans-serif" font-size="10.4" lengthAdjust="spacing" textLength="52.8" x="149.6" y="223.775">entriesList</text><polygon fill="#181818" points="488.4,247.8172,496.4,251.0172,488.4,254.2172,491.6,251.0172" style="stroke:#181818;stroke-width:0.8000000000000002;"/><line style="stroke:#181818;stroke-width:0.8000000000000002;" x1="116" x2="493.2" y1="251.0172" y2="251.0172"/><text fill="#000000" font-family="sans-serif" font-size="10.4" font-weight="bold" lengthAdjust="spacing" textLength="16.8" x="121.6" y="247.2234">3.7</text><text fill="#000000" font-family="sans-serif" font-size="10.4" lengthAdjust="spacing" textLength="110.4" x="141.6" y="247.2234">toDTOList(entriesList)</text><polygon fill="#181818" points="667.2,271.2656,675.2,274.4656,667.2,277.6656,670.4,274.4656" style="stroke:#181818;stroke-width:0.8000000000000002;"/><line style="stroke:#181818;stroke-width:0.8000000000000002;" x1="506" x2="672" y1="274.4656" y2="274.4656"/><text fill="#000000" font-family="sans-serif" font-size="10.4" font-weight="bold" lengthAdjust="spacing" textLength="16.8" x="511.6" y="270.6719">3.8</text><text fill="#000000" font-family="sans-serif" font-size="10.4" lengthAdjust="spacing" textLength="36.8" x="531.6" y="270.6719">create()</text><rect fill="#E3E3E3" height="37.5813" rx="2" ry="2" style="stroke:#181818;stroke-width:0.4000000000000001;" width="97.6" x="676.8" y="257.4172"/><text fill="#000000" font-family="sans-serif" font-size="11.2" lengthAdjust="spacing" textLength="65.6" x="692.8" y="273.8453">entryListDto</text><text fill="#000000" font-family="sans-serif" font-size="11.2" lengthAdjust="spacing" textLength="86.4" x="682.4" y="287.0359">:List&lt;entryDto&gt;</text><path d="M452,309.3984 L511.2,309.3984 L511.2,315.2469 L503.2,323.2469 L452,323.2469 L452,309.3984 " fill="#EEEEEE" style="stroke:#000000;stroke-width:1.2000000000000002;"/><rect fill="none" height="84.1938" style="stroke:#000000;stroke-width:1.2000000000000002;" width="330.4" x="452" y="309.3984"/><text fill="#000000" font-family="sans-serif" font-size="10.4" font-weight="bold" lengthAdjust="spacing" textLength="23.2" x="464" y="320.2531">loop</text><text fill="#000000" font-family="sans-serif" font-size="8.8" font-weight="bold" lengthAdjust="spacing" textLength="131.2" x="523.2" y="319.5063">[For each entry in entriesList]</text><polygon fill="#181818" points="624.4,337.0953,632.4,340.2953,624.4,343.4953,627.6,340.2953" style="stroke:#181818;stroke-width:0.8000000000000002;"/><line style="stroke:#181818;stroke-width:0.8000000000000002;" x1="506" x2="629.2" y1="340.2953" y2="340.2953"/><text fill="#000000" font-family="sans-serif" font-size="10.4" font-weight="bold" lengthAdjust="spacing" textLength="16.8" x="511.6" y="336.5016">3.9</text><text fill="#000000" font-family="sans-serif" font-size="10.4" lengthAdjust="spacing" textLength="92.8" x="531.6" y="336.5016">entryToDTO(entry)</text><polygon fill="#181818" points="514.8,360.5438,506.8,363.7438,514.8,366.9438,511.6,363.7438" style="stroke:#181818;stroke-width:0.8000000000000002;"/><line style="stroke:#181818;stroke-width:0.8000000000000002;stroke-dasharray:2.0,2.0;" x1="510" x2="637.2" y1="363.7438" y2="363.7438"/><text fill="#000000" font-family="sans-serif" font-size="10.4" font-weight="bold" lengthAdjust="spacing" textLength="24" x="519.6" y="359.95">3.10</text><text fill="#000000" font-family="sans-serif" font-size="10.4" lengthAdjust="spacing" textLength="44" x="546.8" y="359.95">entryDto</text><polygon fill="#181818" points="712,383.9922,720,387.1922,712,390.3922,715.2,387.1922" style="stroke:#181818;stroke-width:0.8000000000000002;"/><line style="stroke:#181818;stroke-width:0.8000000000000002;" x1="506" x2="716.8" y1="387.1922" y2="387.1922"/><text fill="#000000" font-family="sans-serif" font-size="10.4" font-weight="bold" lengthAdjust="spacing" textLength="24" x="511.6" y="383.3984">3.11</text><text fill="#000000" font-family="sans-serif" font-size="10.4" lengthAdjust="spacing" textLength="68.8" x="538.8" y="383.3984">add(entryDto)</text><polygon fill="#181818" points="514.8,413.0406,506.8,416.2406,514.8,419.4406,511.6,416.2406" style="stroke:#181818;stroke-width:0.8000000000000002;"/><line style="stroke:#181818;stroke-width:0.8000000000000002;stroke-dasharray:2.0,2.0;" x1="510" x2="724.8" y1="416.2406" y2="416.2406"/><text fill="#000000" font-family="sans-serif" font-size="10.4" font-weight="bold" lengthAdjust="spacing" textLength="24" x="519.6" y="412.4469">3.12</text><text fill="#000000" font-family="sans-serif" font-size="10.4" lengthAdjust="spacing" textLength="71.2" x="546.8" y="412.4469">entriesListDto</text><polygon fill="#181818" points="124.8,436.4891,116.8,439.6891,124.8,442.8891,121.6,439.6891" style="stroke:#181818;stroke-width:0.8000000000000002;"/><line style="stroke:#181818;stroke-width:0.8000000000000002;stroke-dasharray:2.0,2.0;" x1="120" x2="501.2" y1="439.6891" y2="439.6891"/><text fill="#000000" font-family="sans-serif" font-size="10.4" font-weight="bold" lengthAdjust="spacing" textLength="24" x="129.6" y="435.8953">3.13</text><text fill="#000000" font-family="sans-serif" font-size="10.4" lengthAdjust="spacing" textLength="71.2" x="156.8" y="435.8953">entriesListDto</text><polygon fill="#181818" points="8.8,465.5375,0.8,468.7375,8.8,471.9375,5.6,468.7375" style="stroke:#181818;stroke-width:0.8000000000000002;"/><line style="stroke:#181818;stroke-width:0.8000000000000002;stroke-dasharray:2.0,2.0;" x1="4" x2="111.2" y1="468.7375" y2="468.7375"/><text fill="#000000" font-family="sans-serif" font-size="10.4" font-weight="bold" lengthAdjust="spacing" textLength="7.2" x="13.6" y="464.9438">4</text><text fill="#000000" font-family="sans-serif" font-size="10.4" lengthAdjust="spacing" textLength="71.2" x="24" y="464.9438">entriesListDto</text><!--SRC=[VLFDRjim3BxhAOXUrXR8W64x1KM1eF6A0TqMn3dsejgi8zGH3KdPbhSV9TcEvBhnIPQ-Fv6KVLEwaqOUu42QghsX0u8pHnHsFEbazIORBDsfHJ1OEQcRDWNOlQpfhz8DlChMeX3ow4WV3ozeXFYqLpN2Av5xeNz2CCEfIdLIExXQRiYwZZGMsfdJga5TomVYDRKjcYkG5XvsswS9QOiTMUN8ABG1ioqsESGaY6SzIoXpXWpUosSTGmJKwh7ujLvDp4FIdxBh-dmO_bURJR7DaU5WxOZzYtvv9gntlsVGJygwoF2hkq7X_imBY0-v7ByOrZadRGby5G8Mzw6oi8G6dITnQLZu-YO3VluYPENK7-amDWBuQmmTEtX41pqFE2D45tyUT5cVYnpbVsZB8rCXY_lpKT6tBUpupwCNVQebf0qCa1hVqnAZCZh5vitub9bHcJZ5nizubBb978QqNFx6Kwj-P4Qp-3_QSKeyawUcANcmJSPh2OwuHS4sKPaaIETnZ95iZgBzADtUSgZA87FvCYEZ9UhWEndWUFj80ANVfRzamEBnkgUTpnqodsuoMfxQ3tPsF2hpIQXXLetXUMIKf9ppcXTAmSDGrzU3xAMampDC2bnFgjr3vcFt9Hp2JqDdybdWsJdoCbE9T09ykEHLVmkRTuj5bBge5HxzVm00]--></g></svg>