<?xml version="1.0" encoding="us-ascii" standalone="no"?><svg xmlns="http://www.w3.org/2000/svg" xmlns:xlink="http://www.w3.org/1999/xlink" contentStyleType="text/css" height="1072px" preserveAspectRatio="none" style="width:1070px;height:1072px;background:#FFFFFF;" version="1.1" viewBox="0 0 1070 1072" width="1070px" zoomAndPan="magnify"><defs/><g><rect fill="#FFFFFF" height="849.4727" style="stroke:#181818;stroke-width:1.0;" width="10" x="49" y="107.9766"/><rect fill="#FFFFFF" height="173.8633" style="stroke:#181818;stroke-width:1.0;" width="10" x="348" y="129.2871"/><rect fill="#FFFFFF" height="29.3105" style="stroke:#181818;stroke-width:1.0;" width="10" x="348" y="332.4609"/><rect fill="#FFFFFF" height="566.3672" style="stroke:#181818;stroke-width:1.0;" width="10" x="348" y="391.082"/><rect fill="#FFFFFF" height="73.7539" style="stroke:#181818;stroke-width:1.0;" width="10" x="572" y="200.0859"/><rect fill="#FFFFFF" height="507.7461" style="stroke:#181818;stroke-width:1.0;" width="10" x="572" y="420.3926"/><rect fill="#FFFFFF" height="84.7539" style="stroke:#181818;stroke-width:1.0;" width="10" x="577" y="457.7031"/><rect fill="#FFFFFF" height="84.7539" style="stroke:#181818;stroke-width:1.0;" width="10" x="577" y="586.7676"/><rect fill="#FFFFFF" height="29.3105" style="stroke:#181818;stroke-width:1.0;" width="10" x="794" y="707.832"/><rect fill="#FFFFFF" height="29.3105" style="stroke:#181818;stroke-width:1.0;" width="10" x="907" y="766.4531"/><rect fill="#FFFFFF" height="73.7539" style="stroke:#181818;stroke-width:1.0;" width="10" x="1003" y="825.0742"/><line style="stroke:#181818;stroke-width:0.5;stroke-dasharray:5.0,5.0;" x1="54" x2="54" y1="97.9766" y2="975.4492"/><line style="stroke:#181818;stroke-width:0.5;stroke-dasharray:5.0,5.0;" x1="353" x2="353" y1="97.9766" y2="975.4492"/><line style="stroke:#181818;stroke-width:0.5;stroke-dasharray:5.0,5.0;" x1="577" x2="577" y1="168.0313" y2="975.4492"/><line style="stroke:#181818;stroke-width:0.5;stroke-dasharray:5.0,5.0;" x1="798.5" x2="798.5" y1="97.9766" y2="975.4492"/><line style="stroke:#181818;stroke-width:0.5;stroke-dasharray:5.0,5.0;" x1="911.5" x2="911.5" y1="97.9766" y2="975.4492"/><line style="stroke:#181818;stroke-width:0.5;stroke-dasharray:5.0,5.0;" x1="1007.5" x2="1007.5" y1="97.9766" y2="975.4492"/><text fill="#000000" font-family="sans-serif" font-size="14" lengthAdjust="spacing" textLength="92" x="5" y="78.5352">Green Spaces</text><text fill="#000000" font-family="sans-serif" font-size="14" lengthAdjust="spacing" textLength="60" x="21" y="95.0234">Manager</text><ellipse cx="54" cy="13.5" fill="#E3E3E3" rx="8" ry="8" style="stroke:#181818;stroke-width:0.5;"/><path d="M54,21.5 L54,48.5 M41,29.5 L67,29.5 M54,48.5 L41,63.5 M54,48.5 L67,63.5 " fill="none" style="stroke:#181818;stroke-width:0.5;"/><text fill="#000000" font-family="sans-serif" font-size="14" lengthAdjust="spacing" textLength="92" x="5" y="987.9844">Green Spaces</text><text fill="#000000" font-family="sans-serif" font-size="14" lengthAdjust="spacing" textLength="60" x="21" y="1004.4727">Manager</text><ellipse cx="54" cy="1015.9258" fill="#E3E3E3" rx="8" ry="8" style="stroke:#181818;stroke-width:0.5;"/><path d="M54,1023.9258 L54,1050.9258 M41,1031.9258 L67,1031.9258 M54,1050.9258 L41,1065.9258 M54,1050.9258 L67,1065.9258 " fill="none" style="stroke:#181818;stroke-width:0.5;"/><rect fill="#E3E3E3" height="30.4883" rx="2.5" ry="2.5" style="stroke:#181818;stroke-width:0.5;" width="184" x="261" y="66.4883"/><text fill="#000000" font-family="sans-serif" font-size="14" lengthAdjust="spacing" textLength="170" x="268" y="87.0234">:PostponeEntryAgendaUI</text><rect fill="#E3E3E3" height="30.4883" rx="2.5" ry="2.5" style="stroke:#181818;stroke-width:0.5;" width="184" x="261" y="974.4492"/><text fill="#000000" font-family="sans-serif" font-size="14" lengthAdjust="spacing" textLength="170" x="268" y="994.9844">:PostponeEntryAgendaUI</text><rect fill="#E3E3E3" height="30.4883" rx="2.5" ry="2.5" style="stroke:#181818;stroke-width:0.5;" width="240" x="457" y="974.4492"/><text fill="#000000" font-family="sans-serif" font-size="14" lengthAdjust="spacing" textLength="226" x="464" y="994.9844">:PostponeEntryAgendaController</text><rect fill="#E3E3E3" height="30.4883" rx="2.5" ry="2.5" style="stroke:#181818;stroke-width:0.5;" width="103" x="747.5" y="66.4883"/><text fill="#000000" font-family="sans-serif" font-size="14" lengthAdjust="spacing" textLength="89" x="754.5" y="87.0234">:Repositories</text><rect fill="#E3E3E3" height="30.4883" rx="2.5" ry="2.5" style="stroke:#181818;stroke-width:0.5;" width="103" x="747.5" y="974.4492"/><text fill="#000000" font-family="sans-serif" font-size="14" lengthAdjust="spacing" textLength="89" x="754.5" y="994.9844">:Repositories</text><rect fill="#E3E3E3" height="46.9766" rx="2.5" ry="2.5" style="stroke:#181818;stroke-width:0.5;" width="103" x="860.5" y="50"/><text fill="#000000" font-family="sans-serif" font-size="14" lengthAdjust="spacing" textLength="82" x="871" y="70.5352">repositories</text><text fill="#000000" font-family="sans-serif" font-size="14" lengthAdjust="spacing" textLength="89" x="867.5" y="87.0234">:Repositories</text><rect fill="#E3E3E3" height="46.9766" rx="2.5" ry="2.5" style="stroke:#181818;stroke-width:0.5;" width="103" x="860.5" y="974.4492"/><text fill="#000000" font-family="sans-serif" font-size="14" lengthAdjust="spacing" textLength="82" x="871" y="994.9844">repositories</text><text fill="#000000" font-family="sans-serif" font-size="14" lengthAdjust="spacing" textLength="89" x="867.5" y="1011.4727">:Repositories</text><rect fill="#E3E3E3" height="46.9766" rx="2.5" ry="2.5" style="stroke:#181818;stroke-width:0.5;" width="69" x="973.5" y="50"/><text fill="#000000" font-family="sans-serif" font-size="14" lengthAdjust="spacing" textLength="55" x="980.5" y="70.5352">agenda:</text><text fill="#000000" font-family="sans-serif" font-size="14" lengthAdjust="spacing" textLength="53" x="981.5" y="87.0234">Agenda</text><rect fill="#E3E3E3" height="46.9766" rx="2.5" ry="2.5" style="stroke:#181818;stroke-width:0.5;" width="69" x="973.5" y="974.4492"/><text fill="#000000" font-family="sans-serif" font-size="14" lengthAdjust="spacing" textLength="55" x="980.5" y="994.9844">agenda:</text><text fill="#000000" font-family="sans-serif" font-size="14" lengthAdjust="spacing" textLength="53" x="981.5" y="1011.4727">Agenda</text><rect fill="#FFFFFF" height="849.4727" style="stroke:#181818;stroke-width:1.0;" width="10" x="49" y="107.9766"/><rect fill="#FFFFFF" height="173.8633" style="stroke:#181818;stroke-width:1.0;" width="10" x="348" y="129.2871"/><rect fill="#FFFFFF" height="29.3105" style="stroke:#181818;stroke-width:1.0;" width="10" x="348" y="332.4609"/><rect fill="#FFFFFF" height="566.3672" style="stroke:#181818;stroke-width:1.0;" width="10" x="348" y="391.082"/><rect fill="#FFFFFF" height="73.7539" style="stroke:#181818;stroke-width:1.0;" width="10" x="572" y="200.0859"/><rect fill="#FFFFFF" height="507.7461" style="stroke:#181818;stroke-width:1.0;" width="10" x="572" y="420.3926"/><rect fill="#FFFFFF" height="84.7539" style="stroke:#181818;stroke-width:1.0;" width="10" x="577" y="457.7031"/><rect fill="#FFFFFF" height="84.7539" style="stroke:#181818;stroke-width:1.0;" width="10" x="577" y="586.7676"/><rect fill="#FFFFFF" height="29.3105" style="stroke:#181818;stroke-width:1.0;" width="10" x="794" y="707.832"/><rect fill="#FFFFFF" height="29.3105" style="stroke:#181818;stroke-width:1.0;" width="10" x="907" y="766.4531"/><rect fill="#FFFFFF" height="73.7539" style="stroke:#181818;stroke-width:1.0;" width="10" x="1003" y="825.0742"/><polygon fill="#181818" points="336,125.2871,346,129.2871,336,133.2871,340,129.2871" style="stroke:#181818;stroke-width:1.0;"/><line style="stroke:#181818;stroke-width:1.0;" x1="59" x2="342" y1="129.2871" y2="129.2871"/><text fill="#000000" font-family="sans-serif" font-size="13" font-weight="bold" lengthAdjust="spacing" textLength="9" x="66" y="124.5449">1</text><text fill="#000000" font-family="sans-serif" font-size="13" lengthAdjust="spacing" textLength="257" x="79" y="124.5449">Asks to postpone an entry in the Agenda</text><polygon fill="#181818" points="445,154.5977,455,158.5977,445,162.5977,449,158.5977" style="stroke:#181818;stroke-width:1.0;"/><line style="stroke:#181818;stroke-width:1.0;" x1="358" x2="451" y1="158.5977" y2="158.5977"/><text fill="#000000" font-family="sans-serif" font-size="13" font-weight="bold" lengthAdjust="spacing" textLength="9" x="365" y="153.8555">2</text><text fill="#000000" font-family="sans-serif" font-size="13" lengthAdjust="spacing" textLength="38" x="378" y="153.8555">create</text><rect fill="#E3E3E3" height="30.4883" rx="2.5" ry="2.5" style="stroke:#181818;stroke-width:0.5;" width="240" x="457" y="137.2871"/><text fill="#000000" font-family="sans-serif" font-size="14" lengthAdjust="spacing" textLength="226" x="464" y="157.8223">:PostponeEntryAgendaController</text><polygon fill="#181818" points="560,196.0859,570,200.0859,560,204.0859,564,200.0859" style="stroke:#181818;stroke-width:1.0;"/><line style="stroke:#181818;stroke-width:1.0;" x1="358" x2="566" y1="200.0859" y2="200.0859"/><text fill="#000000" font-family="sans-serif" font-size="13" font-weight="bold" lengthAdjust="spacing" textLength="9" x="365" y="195.3438">3</text><text fill="#000000" font-family="sans-serif" font-size="13" lengthAdjust="spacing" textLength="99" x="378" y="195.3438">getEntriesDTO()</text><rect fill="none" height="39.4434" style="stroke:#000000;stroke-width:1.5;" width="246" x="454" y="208.0859"/><path d="M454,208.0859 L518,208.0859 L518,215.0859 L508,225.0859 L454,225.0859 L454,208.0859 " fill="#EEEEEE" style="stroke:#000000;stroke-width:2.0;"/><text fill="#000000" font-family="sans-serif" font-size="13" font-weight="bold" lengthAdjust="spacing" textLength="19" x="467" y="222.6543">ref</text><text fill="#000000" font-family="sans-serif" font-size="12" lengthAdjust="spacing" textLength="110" x="522" y="240.6875">Get Entries Dto List</text><polygon fill="#181818" points="369,269.8398,359,273.8398,369,277.8398,365,273.8398" style="stroke:#181818;stroke-width:1.0;"/><line style="stroke:#181818;stroke-width:1.0;stroke-dasharray:2.0,2.0;" x1="363" x2="576" y1="273.8398" y2="273.8398"/><text fill="#000000" font-family="sans-serif" font-size="13" font-weight="bold" lengthAdjust="spacing" textLength="9" x="375" y="269.0977">4</text><text fill="#000000" font-family="sans-serif" font-size="13" lengthAdjust="spacing" textLength="89" x="388" y="269.0977">entriesListDto</text><polygon fill="#181818" points="70,299.1504,60,303.1504,70,307.1504,66,303.1504" style="stroke:#181818;stroke-width:1.0;"/><line style="stroke:#181818;stroke-width:1.0;stroke-dasharray:2.0,2.0;" x1="64" x2="352" y1="303.1504" y2="303.1504"/><text fill="#000000" font-family="sans-serif" font-size="13" font-weight="bold" lengthAdjust="spacing" textLength="9" x="76" y="298.4082">5</text><text fill="#000000" font-family="sans-serif" font-size="13" lengthAdjust="spacing" textLength="128" x="89" y="298.4082">Shows list of entries</text><polygon fill="#181818" points="336,328.4609,346,332.4609,336,336.4609,340,332.4609" style="stroke:#181818;stroke-width:1.0;"/><line style="stroke:#181818;stroke-width:1.0;" x1="59" x2="342" y1="332.4609" y2="332.4609"/><text fill="#000000" font-family="sans-serif" font-size="13" font-weight="bold" lengthAdjust="spacing" textLength="9" x="66" y="327.7188">6</text><text fill="#000000" font-family="sans-serif" font-size="13" lengthAdjust="spacing" textLength="179" x="79" y="327.7188">selects an entry to postpone</text><polygon fill="#181818" points="70,357.7715,60,361.7715,70,365.7715,66,361.7715" style="stroke:#181818;stroke-width:1.0;"/><line style="stroke:#181818;stroke-width:1.0;stroke-dasharray:2.0,2.0;" x1="64" x2="352" y1="361.7715" y2="361.7715"/><text fill="#000000" font-family="sans-serif" font-size="13" font-weight="bold" lengthAdjust="spacing" textLength="9" x="76" y="357.0293">7</text><text fill="#000000" font-family="sans-serif" font-size="13" lengthAdjust="spacing" textLength="180" x="89" y="357.0293">requests data (i.e., new date)</text><polygon fill="#181818" points="336,387.082,346,391.082,336,395.082,340,391.082" style="stroke:#181818;stroke-width:1.0;"/><line style="stroke:#181818;stroke-width:1.0;" x1="59" x2="342" y1="391.082" y2="391.082"/><text fill="#000000" font-family="sans-serif" font-size="13" font-weight="bold" lengthAdjust="spacing" textLength="9" x="66" y="386.3398">8</text><text fill="#000000" font-family="sans-serif" font-size="13" lengthAdjust="spacing" textLength="226" x="79" y="386.3398">types requested data (i.e., new date)</text><polygon fill="#181818" points="560,416.3926,570,420.3926,560,424.3926,564,420.3926" style="stroke:#181818;stroke-width:1.0;"/><line style="stroke:#181818;stroke-width:1.0;" x1="358" x2="566" y1="420.3926" y2="420.3926"/><text fill="#000000" font-family="sans-serif" font-size="13" font-weight="bold" lengthAdjust="spacing" textLength="9" x="365" y="415.6504">9</text><text fill="#000000" font-family="sans-serif" font-size="13" lengthAdjust="spacing" textLength="182" x="378" y="415.6504">postponeEntry(i.e., new date)</text><line style="stroke:#181818;stroke-width:1.0;" x1="582" x2="629" y1="444.7031" y2="444.7031"/><line style="stroke:#181818;stroke-width:1.0;" x1="629" x2="629" y1="444.7031" y2="457.7031"/><line style="stroke:#181818;stroke-width:1.0;" x1="588" x2="629" y1="457.7031" y2="457.7031"/><polygon fill="#181818" points="598,453.7031,588,457.7031,598,461.7031,594,457.7031" style="stroke:#181818;stroke-width:1.0;"/><text fill="#000000" font-family="sans-serif" font-size="13" font-weight="bold" lengthAdjust="spacing" textLength="18" x="594" y="439.9609">10</text><text fill="#000000" font-family="sans-serif" font-size="13" lengthAdjust="spacing" textLength="176" x="616" y="439.9609">getEntryByIndex(entryIndex)</text><rect fill="none" height="39.4434" style="stroke:#000000;stroke-width:1.5;" width="246" x="454" y="470.7031"/><path d="M454,470.7031 L518,470.7031 L518,477.7031 L508,487.7031 L454,487.7031 L454,470.7031 " fill="#EEEEEE" style="stroke:#000000;stroke-width:2.0;"/><text fill="#000000" font-family="sans-serif" font-size="13" font-weight="bold" lengthAdjust="spacing" textLength="19" x="467" y="485.2715">ref</text><text fill="#000000" font-family="sans-serif" font-size="12" lengthAdjust="spacing" textLength="106" x="524" y="503.3047">Get Entry By Index</text><line style="stroke:#181818;stroke-width:1.0;stroke-dasharray:2.0,2.0;" x1="587" x2="629" y1="541.457" y2="541.457"/><line style="stroke:#181818;stroke-width:1.0;stroke-dasharray:2.0,2.0;" x1="629" x2="629" y1="541.457" y2="554.457"/><line style="stroke:#181818;stroke-width:1.0;stroke-dasharray:2.0,2.0;" x1="582" x2="629" y1="554.457" y2="554.457"/><polygon fill="#181818" points="592,550.457,582,554.457,592,558.457,588,554.457" style="stroke:#181818;stroke-width:1.0;"/><text fill="#000000" font-family="sans-serif" font-size="13" font-weight="bold" lengthAdjust="spacing" textLength="18" x="594" y="536.7148">11</text><text fill="#000000" font-family="sans-serif" font-size="13" lengthAdjust="spacing" textLength="32" x="616" y="536.7148">entry</text><line style="stroke:#181818;stroke-width:1.0;" x1="582" x2="629" y1="573.7676" y2="573.7676"/><line style="stroke:#181818;stroke-width:1.0;" x1="629" x2="629" y1="573.7676" y2="586.7676"/><line style="stroke:#181818;stroke-width:1.0;" x1="588" x2="629" y1="586.7676" y2="586.7676"/><polygon fill="#181818" points="598,582.7676,588,586.7676,598,590.7676,594,586.7676" style="stroke:#181818;stroke-width:1.0;"/><text fill="#000000" font-family="sans-serif" font-size="13" font-weight="bold" lengthAdjust="spacing" textLength="18" x="594" y="569.0254">12</text><text fill="#000000" font-family="sans-serif" font-size="13" lengthAdjust="spacing" textLength="135" x="616" y="569.0254">getGSMFromSession()</text><rect fill="none" height="39.4434" style="stroke:#000000;stroke-width:1.5;" width="246" x="454" y="599.7676"/><path d="M454,599.7676 L518,599.7676 L518,606.7676 L508,616.7676 L454,616.7676 L454,599.7676 " fill="#EEEEEE" style="stroke:#000000;stroke-width:2.0;"/><text fill="#000000" font-family="sans-serif" font-size="13" font-weight="bold" lengthAdjust="spacing" textLength="19" x="467" y="614.3359">ref</text><text fill="#000000" font-family="sans-serif" font-size="12" lengthAdjust="spacing" textLength="84" x="535" y="632.3691">Get GSM email</text><line style="stroke:#181818;stroke-width:1.0;stroke-dasharray:2.0,2.0;" x1="587" x2="629" y1="670.5215" y2="670.5215"/><line style="stroke:#181818;stroke-width:1.0;stroke-dasharray:2.0,2.0;" x1="629" x2="629" y1="670.5215" y2="683.5215"/><line style="stroke:#181818;stroke-width:1.0;stroke-dasharray:2.0,2.0;" x1="582" x2="629" y1="683.5215" y2="683.5215"/><polygon fill="#181818" points="592,679.5215,582,683.5215,592,687.5215,588,683.5215" style="stroke:#181818;stroke-width:1.0;"/><text fill="#000000" font-family="sans-serif" font-size="13" font-weight="bold" lengthAdjust="spacing" textLength="18" x="594" y="665.7793">13</text><text fill="#000000" font-family="sans-serif" font-size="13" lengthAdjust="spacing" textLength="34" x="616" y="665.7793">email</text><polygon fill="#181818" points="782,703.832,792,707.832,782,711.832,786,707.832" style="stroke:#181818;stroke-width:1.0;"/><line style="stroke:#181818;stroke-width:1.0;" x1="582" x2="788" y1="707.832" y2="707.832"/><text fill="#000000" font-family="sans-serif" font-size="13" font-weight="bold" lengthAdjust="spacing" textLength="18" x="589" y="703.0898">14</text><text fill="#000000" font-family="sans-serif" font-size="13" lengthAdjust="spacing" textLength="81" x="611" y="703.0898">getInstance()</text><polygon fill="#181818" points="593,733.1426,583,737.1426,593,741.1426,589,737.1426" style="stroke:#181818;stroke-width:1.0;"/><line style="stroke:#181818;stroke-width:1.0;stroke-dasharray:2.0,2.0;" x1="587" x2="798" y1="737.1426" y2="737.1426"/><text fill="#000000" font-family="sans-serif" font-size="13" font-weight="bold" lengthAdjust="spacing" textLength="18" x="599" y="732.4004">15</text><text fill="#000000" font-family="sans-serif" font-size="13" lengthAdjust="spacing" textLength="75" x="621" y="732.4004">repositories</text><polygon fill="#181818" points="895,762.4531,905,766.4531,895,770.4531,899,766.4531" style="stroke:#181818;stroke-width:1.0;"/><line style="stroke:#181818;stroke-width:1.0;" x1="582" x2="901" y1="766.4531" y2="766.4531"/><text fill="#000000" font-family="sans-serif" font-size="13" font-weight="bold" lengthAdjust="spacing" textLength="18" x="589" y="761.7109">16</text><text fill="#000000" font-family="sans-serif" font-size="13" lengthAdjust="spacing" textLength="75" x="611" y="761.7109">getAgenda()</text><polygon fill="#181818" points="593,791.7637,583,795.7637,593,799.7637,589,795.7637" style="stroke:#181818;stroke-width:1.0;"/><line style="stroke:#181818;stroke-width:1.0;stroke-dasharray:2.0,2.0;" x1="587" x2="911" y1="795.7637" y2="795.7637"/><text fill="#000000" font-family="sans-serif" font-size="13" font-weight="bold" lengthAdjust="spacing" textLength="18" x="599" y="791.0215">17</text><text fill="#000000" font-family="sans-serif" font-size="13" lengthAdjust="spacing" textLength="45" x="621" y="791.0215">agenda</text><polygon fill="#181818" points="991,821.0742,1001,825.0742,991,829.0742,995,825.0742" style="stroke:#181818;stroke-width:1.0;"/><line style="stroke:#181818;stroke-width:1.0;" x1="582" x2="997" y1="825.0742" y2="825.0742"/><text fill="#000000" font-family="sans-serif" font-size="13" font-weight="bold" lengthAdjust="spacing" textLength="18" x="589" y="820.332">18</text><text fill="#000000" font-family="sans-serif" font-size="13" lengthAdjust="spacing" textLength="182" x="611" y="820.332">postponeEntry(i.e., new date)</text><rect fill="none" height="39.4434" style="stroke:#000000;stroke-width:1.5;" width="94" x="970.5" y="833.0742"/><path d="M970.5,833.0742 L1034.5,833.0742 L1034.5,840.0742 L1024.5,850.0742 L970.5,850.0742 L970.5,833.0742 " fill="#EEEEEE" style="stroke:#000000;stroke-width:2.0;"/><text fill="#000000" font-family="sans-serif" font-size="13" font-weight="bold" lengthAdjust="spacing" textLength="19" x="983.5" y="847.6426">ref</text><text fill="#000000" font-family="sans-serif" font-size="12" lengthAdjust="spacing" textLength="86" x="974.5" y="865.6758">Postpone Entry</text><polygon fill="#181818" points="593,894.8281,583,898.8281,593,902.8281,589,898.8281" style="stroke:#181818;stroke-width:1.0;"/><line style="stroke:#181818;stroke-width:1.0;stroke-dasharray:2.0,2.0;" x1="587" x2="1007" y1="898.8281" y2="898.8281"/><text fill="#000000" font-family="sans-serif" font-size="13" font-weight="bold" lengthAdjust="spacing" textLength="18" x="599" y="894.0859">19</text><text fill="#000000" font-family="sans-serif" font-size="13" lengthAdjust="spacing" textLength="32" x="621" y="894.0859">entry</text><polygon fill="#181818" points="369,924.1387,359,928.1387,369,932.1387,365,928.1387" style="stroke:#181818;stroke-width:1.0;"/><line style="stroke:#181818;stroke-width:1.0;stroke-dasharray:2.0,2.0;" x1="363" x2="576" y1="928.1387" y2="928.1387"/><text fill="#000000" font-family="sans-serif" font-size="13" font-weight="bold" lengthAdjust="spacing" textLength="18" x="375" y="923.3965">20</text><text fill="#000000" font-family="sans-serif" font-size="13" lengthAdjust="spacing" textLength="32" x="397" y="923.3965">entry</text><polygon fill="#181818" points="65,953.4492,55,957.4492,65,961.4492,61,957.4492" style="stroke:#181818;stroke-width:1.0;"/><line style="stroke:#181818;stroke-width:1.0;stroke-dasharray:2.0,2.0;" x1="59" x2="352" y1="957.4492" y2="957.4492"/><text fill="#000000" font-family="sans-serif" font-size="13" font-weight="bold" lengthAdjust="spacing" textLength="18" x="71" y="952.707">21</text><text fill="#000000" font-family="sans-serif" font-size="13" lengthAdjust="spacing" textLength="231" x="93" y="952.707">displays operation success or failure</text><!--SRC=[fLPDSzem4BthL-nmAMIQ_00EdI61CimaRGOdDowAlO068xcI7E9_tvNyWMsCyRG-6VJswRtLxihc86J2DJ_2KKaLxhKw8bYT8ZFLIiB30zzXOBCOGMDekTp5TO3PyqYTXDp1biS66UEfLJ8zVg1cxDjUH0XRfUo7-c8yj4h3QAaH9GJ4Z6OZNxWaVZq2Rc0Pl31YjI8K2PSMHjDNPMoY92warTbiXpBYxokFVL_TXZufUbTnND0_lQsVMq5hJ9GH94kWyPZruhK9qJN4HdO61Cq8xlUURcGkmgDcoyMl-OmnbmFnoIrwhmpeeHUu_q5-O0epSp1W5II55-0IqFa18S7k4N9A7rSnKIRy7-uX5k9oHk_kY2_KI8YkPLhSeNMv8YFpjz_ZIGMgY7s-eEFHk0NrYVewmXj32yK6C2TJpyBORZ1vSfoKdchTQxmlyu8vZMCWfWeKOLChAprId4lh58AzEXc8AGxKjgHXhTWoWVMJC1XJiPlp0THEfJlzZNqr_adHK7p4BOUnUC27xo3nv7xZP8W0coMKju87enwY6uKmhNJxpkYak3psna7bXr7I5NMJFMOh6U7NsEV7lquQKJs4_rPGxSBAu343lt5loBcwBZrLfho91g2pkAvcX8xk9ytF08qHIexxCZ7Sh3FgQWAFNCJiFmrUS0moIEFD-rj9GwC_n9QpJfTkXbv5qM9DLNswNWsf2UsbhcaElEXyMWwK7FHg3cgY-Na8tvORtDQRNmv3-_IgX_AE6THe1VXMgvMNQjvlmzgi3vHlszjtFUbiEwnT4csc6rV3529XafXd1bI2cbjgMZ1fI9yaz8-cRnaHfngx1dNjfxl3_m80]--></g></svg>