<?xml version="1.0" encoding="us-ascii" standalone="no"?><svg xmlns="http://www.w3.org/2000/svg" xmlns:xlink="http://www.w3.org/1999/xlink" contentStyleType="text/css" height="450px" preserveAspectRatio="none" style="width:876px;height:450px;background:#FFFFFF;" version="1.1" viewBox="0 0 876 450" width="876px" zoomAndPan="magnify"><defs/><g><rect fill="#FFFFFF" height="285.2793" style="stroke:#181818;stroke-width:1.0;" width="10" x="285" y="90.5332"/><rect fill="#FFFFFF" height="31.291" style="stroke:#181818;stroke-width:1.0;" width="10" x="533" y="236.6484"/><rect fill="#FFFFFF" height="38.291" style="stroke:#181818;stroke-width:1.0;" width="10" x="726" y="299.2305"/><rect fill="none" height="239.9883" style="stroke:#000000;stroke-width:1.5;" width="673" x="197" y="105.5332"/><rect fill="none" height="113.1641" style="stroke:#000000;stroke-width:1.5;" width="653" x="207" y="194.0664"/><line style="stroke:#181818;stroke-width:0.5;stroke-dasharray:5.0,5.0;" x1="290" x2="290" y1="57.2422" y2="393.8125"/><line style="stroke:#181818;stroke-width:0.5;stroke-dasharray:5.0,5.0;" x1="538" x2="538" y1="57.2422" y2="393.8125"/><line style="stroke:#181818;stroke-width:0.5;stroke-dasharray:5.0,5.0;" x1="731" x2="731" y1="165.9453" y2="393.8125"/><rect fill="#E3E3E3" height="32.6211" rx="2.5" ry="2.5" style="stroke:#181818;stroke-width:0.5;" width="146" x="217" y="23.6211"/><text fill="#000000" font-family="sans-serif" font-size="14" lengthAdjust="spacing" textLength="132" x="224" y="45.7285">:GreenSpaceMapper</text><rect fill="#E3E3E3" height="32.6211" rx="2.5" ry="2.5" style="stroke:#181818;stroke-width:0.5;" width="146" x="217" y="392.8125"/><text fill="#000000" font-family="sans-serif" font-size="14" lengthAdjust="spacing" textLength="132" x="224" y="414.9199">:GreenSpaceMapper</text><rect fill="#E3E3E3" height="51.2422" rx="2.5" ry="2.5" style="stroke:#181818;stroke-width:0.5;" width="128" x="474" y="5"/><text fill="#000000" font-family="sans-serif" font-size="14" lengthAdjust="spacing" textLength="107" x="484.5" y="27.1074">greenSpaceDTO</text><text fill="#000000" font-family="sans-serif" font-size="14" lengthAdjust="spacing" textLength="114" x="481" y="45.7285">:GreenSpaceDTO</text><rect fill="#E3E3E3" height="51.2422" rx="2.5" ry="2.5" style="stroke:#181818;stroke-width:0.5;" width="128" x="474" y="392.8125"/><text fill="#000000" font-family="sans-serif" font-size="14" lengthAdjust="spacing" textLength="107" x="484.5" y="414.9199">greenSpaceDTO</text><text fill="#000000" font-family="sans-serif" font-size="14" lengthAdjust="spacing" textLength="114" x="481" y="433.541">:GreenSpaceDTO</text><rect fill="#E3E3E3" height="51.2422" rx="2.5" ry="2.5" style="stroke:#181818;stroke-width:0.5;" width="238" x="612" y="392.8125"/><text fill="#000000" font-family="sans-serif" font-size="14" lengthAdjust="spacing" textLength="224" x="619" y="414.9199">sortedGreenSpacesListByGsmDTO</text><text fill="#000000" font-family="sans-serif" font-size="14" lengthAdjust="spacing" textLength="122" x="670" y="433.541">:List&lt;GreenSpace&gt;</text><rect fill="#FFFFFF" height="285.2793" style="stroke:#181818;stroke-width:1.0;" width="10" x="285" y="90.5332"/><rect fill="#FFFFFF" height="31.291" style="stroke:#181818;stroke-width:1.0;" width="10" x="533" y="236.6484"/><rect fill="#FFFFFF" height="38.291" style="stroke:#181818;stroke-width:1.0;" width="10" x="726" y="299.2305"/><polygon fill="#181818" points="273,86.5332,283,90.5332,273,94.5332,277,90.5332" style="stroke:#181818;stroke-width:1.0;"/><line style="stroke:#181818;stroke-width:1.0;" x1="0" x2="279" y1="90.5332" y2="90.5332"/><text fill="#000000" font-family="sans-serif" font-size="13" font-weight="bold" lengthAdjust="spacing" textLength="14" x="7" y="85.2705">11</text><text fill="#000000" font-family="sans-serif" font-size="13" lengthAdjust="spacing" textLength="248" x="25" y="85.2705">toDTOList(sortedGreenSpacesListByGSM)</text><path d="M197,105.5332 L502,105.5332 L502,114.8242 L492,124.8242 L197,124.8242 L197,105.5332 " fill="#EEEEEE" style="stroke:#000000;stroke-width:1.5;"/><rect fill="none" height="239.9883" style="stroke:#000000;stroke-width:1.5;" width="673" x="197" y="105.5332"/><text fill="#000000" font-family="sans-serif" font-size="13" font-weight="bold" lengthAdjust="spacing" textLength="260" x="212" y="120.5615">Get Sorted Green Space By GSM Dto List</text><polygon fill="#181818" points="600,144.1152,610,148.1152,600,152.1152,604,148.1152" style="stroke:#181818;stroke-width:1.0;"/><line style="stroke:#181818;stroke-width:1.0;" x1="295" x2="606" y1="148.1152" y2="148.1152"/><text fill="#000000" font-family="sans-serif" font-size="13" font-weight="bold" lengthAdjust="spacing" textLength="25" x="302" y="142.8525">11.1</text><text fill="#000000" font-family="sans-serif" font-size="13" lengthAdjust="spacing" textLength="44" x="331" y="142.8525">create()</text><rect fill="#E3E3E3" height="51.2422" rx="2.5" ry="2.5" style="stroke:#181818;stroke-width:0.5;" width="238" x="612" y="124.8242"/><text fill="#000000" font-family="sans-serif" font-size="14" lengthAdjust="spacing" textLength="224" x="619" y="146.9316">sortedGreenSpacesListByGsmDTO</text><text fill="#000000" font-family="sans-serif" font-size="14" lengthAdjust="spacing" textLength="122" x="670" y="165.5527">:List&lt;GreenSpace&gt;</text><path d="M207,194.0664 L280,194.0664 L280,203.3574 L270,213.3574 L207,213.3574 L207,194.0664 " fill="#EEEEEE" style="stroke:#000000;stroke-width:1.5;"/><rect fill="none" height="113.1641" style="stroke:#000000;stroke-width:1.5;" width="653" x="207" y="194.0664"/><text fill="#000000" font-family="sans-serif" font-size="13" font-weight="bold" lengthAdjust="spacing" textLength="28" x="222" y="209.0947">loop</text><text fill="#000000" font-family="sans-serif" font-size="11" font-weight="bold" lengthAdjust="spacing" textLength="310" x="295" y="207.9365">[For each greenSpace in sortedGreenSpacesListByGSM]</text><polygon fill="#181818" points="521,232.6484,531,236.6484,521,240.6484,525,236.6484" style="stroke:#181818;stroke-width:1.0;"/><line style="stroke:#181818;stroke-width:1.0;" x1="295" x2="527" y1="236.6484" y2="236.6484"/><text fill="#000000" font-family="sans-serif" font-size="13" font-weight="bold" lengthAdjust="spacing" textLength="25" x="302" y="231.3857">11.2</text><text fill="#000000" font-family="sans-serif" font-size="13" lengthAdjust="spacing" textLength="190" x="331" y="231.3857">greenSpaceToDTO(greenSpace))</text><polygon fill="#181818" points="306,263.9395,296,267.9395,306,271.9395,302,267.9395" style="stroke:#181818;stroke-width:1.0;"/><line style="stroke:#181818;stroke-width:1.0;stroke-dasharray:2.0,2.0;" x1="300" x2="537" y1="267.9395" y2="267.9395"/><text fill="#000000" font-family="sans-serif" font-size="13" font-weight="bold" lengthAdjust="spacing" textLength="25" x="312" y="262.6768">11.3</text><text fill="#000000" font-family="sans-serif" font-size="13" lengthAdjust="spacing" textLength="89" x="341" y="262.6768">greenSpaceDto</text><polygon fill="#181818" points="714,295.2305,724,299.2305,714,303.2305,718,299.2305" style="stroke:#181818;stroke-width:1.0;"/><line style="stroke:#181818;stroke-width:1.0;" x1="295" x2="720" y1="299.2305" y2="299.2305"/><text fill="#000000" font-family="sans-serif" font-size="13" font-weight="bold" lengthAdjust="spacing" textLength="25" x="302" y="293.9678">11.4</text><text fill="#000000" font-family="sans-serif" font-size="13" lengthAdjust="spacing" textLength="118" x="331" y="293.9678">add(greenSpaceDto)</text><polygon fill="#181818" points="306,333.5215,296,337.5215,306,341.5215,302,337.5215" style="stroke:#181818;stroke-width:1.0;"/><line style="stroke:#181818;stroke-width:1.0;stroke-dasharray:2.0,2.0;" x1="300" x2="730" y1="337.5215" y2="337.5215"/><text fill="#000000" font-family="sans-serif" font-size="13" font-weight="bold" lengthAdjust="spacing" textLength="25" x="312" y="332.2588">11.5</text><text fill="#000000" font-family="sans-serif" font-size="13" lengthAdjust="spacing" textLength="206" x="341" y="332.2588">sortedGreenSpacesListByGsmDTO</text><polygon fill="#181818" points="11,371.8125,1,375.8125,11,379.8125,7,375.8125" style="stroke:#181818;stroke-width:1.0;"/><line style="stroke:#181818;stroke-width:1.0;stroke-dasharray:2.0,2.0;" x1="5" x2="289" y1="375.8125" y2="375.8125"/><text fill="#000000" font-family="sans-serif" font-size="13" font-weight="bold" lengthAdjust="spacing" textLength="14" x="17" y="370.5498">12</text><text fill="#000000" font-family="sans-serif" font-size="13" lengthAdjust="spacing" textLength="206" x="35" y="370.5498">sortedGreenSpacesListByGsmDTO</text><!--SRC=[fLCzRuCm4DtzAqvP2f6eb8ueoX15pTAe0ncxNE12h82DRDCs_xx6_G02SP3gxUnxxzwz9-ip5nKgBA6KGgOd9Ki2esfY-k-bmlICEINcKX0eIWsAlEWsw1DcyeEB78vOQ68CQoD5NHv8CVPmuXd1KKfpa9-CMOJXAQzG69Z5MqKa4Zk0TbXLf6Q06lAhopwcVTtiNzz4XyBMLtXxqmThgGnbBKI_S6tMbwqklycQSja-hnoV5zHT5XOBnY1Q3JQ068oqpGqmk4MNxC8-r-E2OMhuEneQUWBsv4hM5Mp9GE8umP62QuFr1ImbR8o4PW1pYDyp46X5UzUSp-qEgIAh9GZxNDUdaBA2Pwc0C3rr9W4NS7jtF-UOtbxCSQVSDrO7RHs6NkuHZrskq_JOLeX68kyAiXbusJBwduQ96SQ0MHRqP4rqviuFy76GoFmDNkuRrlhrJBHwmbADU6T4vri-kPjb50q3W7lAHeF- -T1V]--></g></svg>