<?xml version="1.0" encoding="us-ascii" standalone="no"?><svg xmlns="http://www.w3.org/2000/svg" xmlns:xlink="http://www.w3.org/1999/xlink" contentStyleType="text/css" height="936px" preserveAspectRatio="none" style="width:1419px;height:936px;background:#FFFFFF;" version="1.1" viewBox="0 0 1419 936" width="1419px" zoomAndPan="magnify"><defs/><g><rect fill="#FFFFFF" height="772.0625" style="stroke:#181818;stroke-width:1.0;" width="10" x="254" y="90.5332"/><rect fill="#FFFFFF" height="262.9883" style="stroke:#181818;stroke-width:1.0;" width="10" x="259" y="156.1152"/><rect fill="#FFFFFF" height="38.291" style="stroke:#181818;stroke-width:1.0;" width="10" x="567" y="343.5215"/><rect fill="#FFFFFF" height="31.291" style="stroke:#181818;stroke-width:1.0;" width="10" x="741" y="254.6484"/><rect fill="#FFFFFF" height="119.873" style="stroke:#181818;stroke-width:1.0;" width="10" x="874" y="697.4316"/><rect fill="#FFFFFF" height="42.291" style="stroke:#181818;stroke-width:1.0;" width="10" x="879" y="736.7227"/><rect fill="#FFFFFF" height="182.4551" style="stroke:#181818;stroke-width:1.0;" width="10" x="1121" y="457.3945"/><rect fill="#FFFFFF" height="104.873" style="stroke:#181818;stroke-width:1.0;" width="10" x="1126" y="496.6855"/><rect fill="#FFFFFF" height="31.291" style="stroke:#181818;stroke-width:1.0;" width="10" x="1359" y="532.9766"/><rect fill="none" height="726.7715" style="stroke:#000000;stroke-width:1.5;" width="1256" x="157.5" y="105.5332"/><rect fill="none" height="50.582" style="stroke:#000000;stroke-width:1.5;" width="498" x="167.5" y="300.9395"/><rect fill="none" height="170.4551" style="stroke:#000000;stroke-width:1.5;" width="963.5" x="167.5" y="654.8496"/><line style="stroke:#181818;stroke-width:0.5;stroke-dasharray:5.0,5.0;" x1="258.5" x2="258.5" y1="57.2422" y2="880.5957"/><line style="stroke:#181818;stroke-width:0.5;stroke-dasharray:5.0,5.0;" x1="571.5" x2="571.5" y1="210.2363" y2="880.5957"/><line style="stroke:#181818;stroke-width:0.5;stroke-dasharray:5.0,5.0;" x1="745.5" x2="745.5" y1="57.2422" y2="880.5957"/><line style="stroke:#181818;stroke-width:0.5;stroke-dasharray:5.0,5.0;" x1="878.5" x2="878.5" y1="57.2422" y2="880.5957"/><line style="stroke:#181818;stroke-width:0.5;stroke-dasharray:5.0,5.0;" x1="1125.5" x2="1125.5" y1="57.2422" y2="880.5957"/><line style="stroke:#181818;stroke-width:0.5;stroke-dasharray:5.0,5.0;" x1="1363.5" x2="1363.5" y1="57.2422" y2="880.5957"/><rect fill="#E3E3E3" height="51.2422" rx="2.5" ry="2.5" style="stroke:#181818;stroke-width:0.5;" width="163" x="177.5" y="5"/><text fill="#000000" font-family="sans-serif" font-size="14" lengthAdjust="spacing" textLength="149" x="184.5" y="27.1074">greenSpaceRepository:</text><text fill="#000000" font-family="sans-serif" font-size="14" lengthAdjust="spacing" textLength="148" x="185" y="45.7285">GreenSpaceRepository</text><rect fill="#E3E3E3" height="51.2422" rx="2.5" ry="2.5" style="stroke:#181818;stroke-width:0.5;" width="163" x="177.5" y="879.5957"/><text fill="#000000" font-family="sans-serif" font-size="14" lengthAdjust="spacing" textLength="149" x="184.5" y="901.7031">greenSpaceRepository:</text><text fill="#000000" font-family="sans-serif" font-size="14" lengthAdjust="spacing" textLength="148" x="185" y="920.3242">GreenSpaceRepository</text><rect fill="#E3E3E3" height="51.2422" rx="2.5" ry="2.5" style="stroke:#181818;stroke-width:0.5;" width="167" x="488.5" y="879.5957"/><text fill="#000000" font-family="sans-serif" font-size="14" lengthAdjust="spacing" textLength="153" x="495.5" y="901.7031">greenSpacesListByGSM</text><text fill="#000000" font-family="sans-serif" font-size="14" lengthAdjust="spacing" textLength="122" x="511" y="920.3242">:List&lt;GreenSpace&gt;</text><rect fill="#E3E3E3" height="32.6211" rx="2.5" ry="2.5" style="stroke:#181818;stroke-width:0.5;" width="161" x="665.5" y="23.6211"/><text fill="#000000" font-family="sans-serif" font-size="14" lengthAdjust="spacing" textLength="147" x="672.5" y="45.7285">:GreenSpacesManager</text><rect fill="#E3E3E3" height="32.6211" rx="2.5" ry="2.5" style="stroke:#181818;stroke-width:0.5;" width="161" x="665.5" y="879.5957"/><text fill="#000000" font-family="sans-serif" font-size="14" lengthAdjust="spacing" textLength="147" x="672.5" y="901.7031">:GreenSpacesManager</text><rect fill="#E3E3E3" height="32.6211" rx="2.5" ry="2.5" style="stroke:#181818;stroke-width:0.5;" width="85" x="836.5" y="23.6211"/><text fill="#000000" font-family="sans-serif" font-size="14" lengthAdjust="spacing" textLength="71" x="843.5" y="45.7285">:Algorithm1</text><rect fill="#E3E3E3" height="32.6211" rx="2.5" ry="2.5" style="stroke:#181818;stroke-width:0.5;" width="85" x="836.5" y="879.5957"/><text fill="#000000" font-family="sans-serif" font-size="14" lengthAdjust="spacing" textLength="71" x="843.5" y="901.7031">:Algorithm1</text><rect fill="#E3E3E3" height="32.6211" rx="2.5" ry="2.5" style="stroke:#181818;stroke-width:0.5;" width="133" x="1059.5" y="23.6211"/><text fill="#000000" font-family="sans-serif" font-size="14" lengthAdjust="spacing" textLength="119" x="1066.5" y="45.7285">ApplicationSession</text><rect fill="#E3E3E3" height="32.6211" rx="2.5" ry="2.5" style="stroke:#181818;stroke-width:0.5;" width="133" x="1059.5" y="879.5957"/><text fill="#000000" font-family="sans-serif" font-size="14" lengthAdjust="spacing" textLength="119" x="1066.5" y="901.7031">ApplicationSession</text><rect fill="#E3E3E3" height="32.6211" rx="2.5" ry="2.5" style="stroke:#181818;stroke-width:0.5;" width="79" x="1324.5" y="23.6211"/><text fill="#000000" font-family="sans-serif" font-size="14" lengthAdjust="spacing" textLength="65" x="1331.5" y="45.7285">Properties</text><rect fill="#E3E3E3" height="32.6211" rx="2.5" ry="2.5" style="stroke:#181818;stroke-width:0.5;" width="79" x="1324.5" y="879.5957"/><text fill="#000000" font-family="sans-serif" font-size="14" lengthAdjust="spacing" textLength="65" x="1331.5" y="901.7031">Properties</text><rect fill="#FFFFFF" height="772.0625" style="stroke:#181818;stroke-width:1.0;" width="10" x="254" y="90.5332"/><rect fill="#FFFFFF" height="262.9883" style="stroke:#181818;stroke-width:1.0;" width="10" x="259" y="156.1152"/><rect fill="#FFFFFF" height="38.291" style="stroke:#181818;stroke-width:1.0;" width="10" x="567" y="343.5215"/><rect fill="#FFFFFF" height="31.291" style="stroke:#181818;stroke-width:1.0;" width="10" x="741" y="254.6484"/><rect fill="#FFFFFF" height="119.873" style="stroke:#181818;stroke-width:1.0;" width="10" x="874" y="697.4316"/><rect fill="#FFFFFF" height="42.291" style="stroke:#181818;stroke-width:1.0;" width="10" x="879" y="736.7227"/><rect fill="#FFFFFF" height="182.4551" style="stroke:#181818;stroke-width:1.0;" width="10" x="1121" y="457.3945"/><rect fill="#FFFFFF" height="104.873" style="stroke:#181818;stroke-width:1.0;" width="10" x="1126" y="496.6855"/><rect fill="#FFFFFF" height="31.291" style="stroke:#181818;stroke-width:1.0;" width="10" x="1359" y="532.9766"/><polygon fill="#181818" points="242,86.5332,252,90.5332,242,94.5332,246,90.5332" style="stroke:#181818;stroke-width:1.0;"/><line style="stroke:#181818;stroke-width:1.0;" x1="0" x2="248" y1="90.5332" y2="90.5332"/><text fill="#000000" font-family="sans-serif" font-size="13" font-weight="bold" lengthAdjust="spacing" textLength="7" x="7" y="85.2705">9</text><text fill="#000000" font-family="sans-serif" font-size="13" lengthAdjust="spacing" textLength="224" x="18" y="85.2705">sortListByAlgorithm(gsmFromSession)</text><path d="M157.5,105.5332 L340.5,105.5332 L340.5,114.8242 L330.5,124.8242 L157.5,124.8242 L157.5,105.5332 " fill="#EEEEEE" style="stroke:#000000;stroke-width:1.5;"/><rect fill="none" height="726.7715" style="stroke:#000000;stroke-width:1.5;" width="1256" x="157.5" y="105.5332"/><text fill="#000000" font-family="sans-serif" font-size="13" font-weight="bold" lengthAdjust="spacing" textLength="138" x="172.5" y="120.5615">Sort List By Algorithm</text><line style="stroke:#181818;stroke-width:1.0;" x1="264" x2="311" y1="143.1152" y2="143.1152"/><line style="stroke:#181818;stroke-width:1.0;" x1="311" x2="311" y1="143.1152" y2="156.1152"/><line style="stroke:#181818;stroke-width:1.0;" x1="270" x2="311" y1="156.1152" y2="156.1152"/><polygon fill="#181818" points="280,152.1152,270,156.1152,280,160.1152,276,156.1152" style="stroke:#181818;stroke-width:1.0;"/><text fill="#000000" font-family="sans-serif" font-size="13" font-weight="bold" lengthAdjust="spacing" textLength="18" x="276" y="137.8525">9.1</text><text fill="#000000" font-family="sans-serif" font-size="13" lengthAdjust="spacing" textLength="267" x="298" y="137.8525">getGreenSpaceListByGSM(gsmFromSession)</text><polygon fill="#181818" points="476.5,188.4063,486.5,192.4063,476.5,196.4063,480.5,192.4063" style="stroke:#181818;stroke-width:1.0;"/><line style="stroke:#181818;stroke-width:1.0;" x1="269" x2="482.5" y1="192.4063" y2="192.4063"/><text fill="#000000" font-family="sans-serif" font-size="13" font-weight="bold" lengthAdjust="spacing" textLength="18" x="276" y="187.1436">9.2</text><text fill="#000000" font-family="sans-serif" font-size="13" lengthAdjust="spacing" textLength="36" x="298" y="187.1436">create</text><rect fill="#E3E3E3" height="51.2422" rx="2.5" ry="2.5" style="stroke:#181818;stroke-width:0.5;" width="167" x="488.5" y="169.1152"/><text fill="#000000" font-family="sans-serif" font-size="14" lengthAdjust="spacing" textLength="153" x="495.5" y="191.2227">greenSpacesListByGSM</text><text fill="#000000" font-family="sans-serif" font-size="14" lengthAdjust="spacing" textLength="122" x="511" y="209.8438">:List&lt;GreenSpace&gt;</text><polygon fill="#181818" points="729,250.6484,739,254.6484,729,258.6484,733,254.6484" style="stroke:#181818;stroke-width:1.0;"/><line style="stroke:#181818;stroke-width:1.0;" x1="269" x2="735" y1="254.6484" y2="254.6484"/><text fill="#000000" font-family="sans-serif" font-size="13" font-weight="bold" lengthAdjust="spacing" textLength="18" x="276" y="249.3857">9.3</text><text fill="#000000" font-family="sans-serif" font-size="13" lengthAdjust="spacing" textLength="155" x="298" y="249.3857">getGreenSpacesManager()</text><polygon fill="#181818" points="280,281.9395,270,285.9395,280,289.9395,276,285.9395" style="stroke:#181818;stroke-width:1.0;"/><line style="stroke:#181818;stroke-width:1.0;" x1="274" x2="745" y1="285.9395" y2="285.9395"/><text fill="#000000" font-family="sans-serif" font-size="13" font-weight="bold" lengthAdjust="spacing" textLength="18" x="286" y="280.6768">9.4</text><text fill="#000000" font-family="sans-serif" font-size="13" lengthAdjust="spacing" textLength="126" x="308" y="280.6768">greenSpacesManager</text><path d="M167.5,300.9395 L232.5,300.9395 L232.5,310.2305 L222.5,320.2305 L167.5,320.2305 L167.5,300.9395 " fill="#EEEEEE" style="stroke:#000000;stroke-width:1.5;"/><rect fill="none" height="50.582" style="stroke:#000000;stroke-width:1.5;" width="498" x="167.5" y="300.9395"/><text fill="#000000" font-family="sans-serif" font-size="13" font-weight="bold" lengthAdjust="spacing" textLength="20" x="182.5" y="315.9678">opt</text><text fill="#000000" font-family="sans-serif" font-size="11" font-weight="bold" lengthAdjust="spacing" textLength="247" x="247.5" y="314.8096">[GreenSpacesManager == gsmFromSession]</text><polygon fill="#181818" points="555,339.5215,565,343.5215,555,347.5215,559,343.5215" style="stroke:#181818;stroke-width:1.0;"/><line style="stroke:#181818;stroke-width:1.0;" x1="269" x2="561" y1="343.5215" y2="343.5215"/><text fill="#000000" font-family="sans-serif" font-size="13" font-weight="bold" lengthAdjust="spacing" textLength="18" x="276" y="338.2588">9.5</text><text fill="#000000" font-family="sans-serif" font-size="13" lengthAdjust="spacing" textLength="98" x="298" y="338.2588">add(greenSpace)</text><polygon fill="#181818" points="280,377.8125,270,381.8125,280,385.8125,276,381.8125" style="stroke:#181818;stroke-width:1.0;"/><line style="stroke:#181818;stroke-width:1.0;stroke-dasharray:2.0,2.0;" x1="274" x2="571" y1="381.8125" y2="381.8125"/><text fill="#000000" font-family="sans-serif" font-size="13" font-weight="bold" lengthAdjust="spacing" textLength="18" x="286" y="376.5498">9.6</text><text fill="#000000" font-family="sans-serif" font-size="13" lengthAdjust="spacing" textLength="143" x="308" y="376.5498">greenSpacesListByGSM</text><line style="stroke:#181818;stroke-width:1.0;stroke-dasharray:2.0,2.0;" x1="269" x2="311" y1="418.1035" y2="418.1035"/><line style="stroke:#181818;stroke-width:1.0;stroke-dasharray:2.0,2.0;" x1="311" x2="311" y1="418.1035" y2="431.1035"/><line style="stroke:#181818;stroke-width:1.0;stroke-dasharray:2.0,2.0;" x1="264" x2="311" y1="431.1035" y2="431.1035"/><polygon fill="#181818" points="274,427.1035,264,431.1035,274,435.1035,270,431.1035" style="stroke:#181818;stroke-width:1.0;"/><text fill="#000000" font-family="sans-serif" font-size="13" font-weight="bold" lengthAdjust="spacing" textLength="18" x="276" y="412.8408">9.7</text><text fill="#000000" font-family="sans-serif" font-size="13" lengthAdjust="spacing" textLength="143" x="298" y="412.8408">greenSpacesListByGSM</text><polygon fill="#181818" points="1109,453.3945,1119,457.3945,1109,461.3945,1113,457.3945" style="stroke:#181818;stroke-width:1.0;"/><line style="stroke:#181818;stroke-width:1.0;" x1="264" x2="1115" y1="457.3945" y2="457.3945"/><text fill="#000000" font-family="sans-serif" font-size="13" font-weight="bold" lengthAdjust="spacing" textLength="18" x="271" y="452.1318">9.8</text><text fill="#000000" font-family="sans-serif" font-size="13" lengthAdjust="spacing" textLength="122" x="293" y="452.1318">getSortingAlgorithm()</text><line style="stroke:#181818;stroke-width:1.0;" x1="1131" x2="1178" y1="483.6855" y2="483.6855"/><line style="stroke:#181818;stroke-width:1.0;" x1="1178" x2="1178" y1="483.6855" y2="496.6855"/><line style="stroke:#181818;stroke-width:1.0;" x1="1137" x2="1178" y1="496.6855" y2="496.6855"/><polygon fill="#181818" points="1147,492.6855,1137,496.6855,1147,500.6855,1143,496.6855" style="stroke:#181818;stroke-width:1.0;"/><text fill="#000000" font-family="sans-serif" font-size="13" font-weight="bold" lengthAdjust="spacing" textLength="18" x="1143" y="478.4229">9.9</text><text fill="#000000" font-family="sans-serif" font-size="13" lengthAdjust="spacing" textLength="81" x="1165" y="478.4229">getAlgorithm()</text><polygon fill="#181818" points="1347,528.9766,1357,532.9766,1347,536.9766,1351,532.9766" style="stroke:#181818;stroke-width:1.0;"/><line style="stroke:#181818;stroke-width:1.0;" x1="1136" x2="1353" y1="532.9766" y2="532.9766"/><text fill="#000000" font-family="sans-serif" font-size="13" font-weight="bold" lengthAdjust="spacing" textLength="25" x="1143" y="527.7139">9.10</text><text fill="#000000" font-family="sans-serif" font-size="13" lengthAdjust="spacing" textLength="175" x="1172" y="527.7139">getProperty(key, defaultValue)</text><polygon fill="#181818" points="1147,560.2676,1137,564.2676,1147,568.2676,1143,564.2676" style="stroke:#181818;stroke-width:1.0;"/><line style="stroke:#181818;stroke-width:1.0;stroke-dasharray:2.0,2.0;" x1="1141" x2="1363" y1="564.2676" y2="564.2676"/><text fill="#000000" font-family="sans-serif" font-size="13" font-weight="bold" lengthAdjust="spacing" textLength="25" x="1153" y="559.0049">9.11</text><text fill="#000000" font-family="sans-serif" font-size="13" lengthAdjust="spacing" textLength="53" x="1182" y="559.0049">algorithm</text><line style="stroke:#181818;stroke-width:1.0;stroke-dasharray:2.0,2.0;" x1="1136" x2="1178" y1="600.5586" y2="600.5586"/><line style="stroke:#181818;stroke-width:1.0;stroke-dasharray:2.0,2.0;" x1="1178" x2="1178" y1="600.5586" y2="613.5586"/><line style="stroke:#181818;stroke-width:1.0;stroke-dasharray:2.0,2.0;" x1="1131" x2="1178" y1="613.5586" y2="613.5586"/><polygon fill="#181818" points="1141,609.5586,1131,613.5586,1141,617.5586,1137,613.5586" style="stroke:#181818;stroke-width:1.0;"/><text fill="#000000" font-family="sans-serif" font-size="13" font-weight="bold" lengthAdjust="spacing" textLength="25" x="1143" y="595.2959">9.12</text><text fill="#000000" font-family="sans-serif" font-size="13" lengthAdjust="spacing" textLength="53" x="1172" y="595.2959">algorithm</text><polygon fill="#181818" points="275,635.8496,265,639.8496,275,643.8496,271,639.8496" style="stroke:#181818;stroke-width:1.0;"/><line style="stroke:#181818;stroke-width:1.0;stroke-dasharray:2.0,2.0;" x1="269" x2="1125" y1="639.8496" y2="639.8496"/><text fill="#000000" font-family="sans-serif" font-size="13" font-weight="bold" lengthAdjust="spacing" textLength="25" x="281" y="634.5869">9.13</text><text fill="#000000" font-family="sans-serif" font-size="13" lengthAdjust="spacing" textLength="53" x="310" y="634.5869">algorithm</text><path d="M167.5,654.8496 L232.5,654.8496 L232.5,664.1406 L222.5,674.1406 L167.5,674.1406 L167.5,654.8496 " fill="#EEEEEE" style="stroke:#000000;stroke-width:1.5;"/><rect fill="none" height="170.4551" style="stroke:#000000;stroke-width:1.5;" width="963.5" x="167.5" y="654.8496"/><text fill="#000000" font-family="sans-serif" font-size="13" font-weight="bold" lengthAdjust="spacing" textLength="20" x="182.5" y="669.8779">opt</text><text fill="#000000" font-family="sans-serif" font-size="11" font-weight="bold" lengthAdjust="spacing" textLength="140" x="247.5" y="668.7197">[Algorithm is Algoritmo1]</text><polygon fill="#181818" points="862,693.4316,872,697.4316,862,701.4316,866,697.4316" style="stroke:#181818;stroke-width:1.0;"/><line style="stroke:#181818;stroke-width:1.0;" x1="264" x2="868" y1="697.4316" y2="697.4316"/><text fill="#000000" font-family="sans-serif" font-size="13" font-weight="bold" lengthAdjust="spacing" textLength="25" x="271" y="692.1689">9.14</text><text fill="#000000" font-family="sans-serif" font-size="13" lengthAdjust="spacing" textLength="177" x="300" y="692.1689">sort (greenSpacesListByGSM)</text><line style="stroke:#181818;stroke-width:1.0;" x1="884" x2="931" y1="723.7227" y2="723.7227"/><line style="stroke:#181818;stroke-width:1.0;" x1="931" x2="931" y1="723.7227" y2="736.7227"/><line style="stroke:#181818;stroke-width:1.0;" x1="890" x2="931" y1="736.7227" y2="736.7227"/><polygon fill="#181818" points="900,732.7227,890,736.7227,900,740.7227,896,736.7227" style="stroke:#181818;stroke-width:1.0;"/><text fill="#000000" font-family="sans-serif" font-size="13" font-weight="bold" lengthAdjust="spacing" textLength="25" x="896" y="718.46">9.15</text><text fill="#000000" font-family="sans-serif" font-size="13" lengthAdjust="spacing" textLength="194" x="925" y="718.46">sortList(greenSpacesListByGSM)</text><line style="stroke:#181818;stroke-width:1.0;stroke-dasharray:2.0,2.0;" x1="889" x2="931" y1="778.0137" y2="778.0137"/><line style="stroke:#181818;stroke-width:1.0;stroke-dasharray:2.0,2.0;" x1="931" x2="931" y1="778.0137" y2="791.0137"/><line style="stroke:#181818;stroke-width:1.0;stroke-dasharray:2.0,2.0;" x1="884" x2="931" y1="791.0137" y2="791.0137"/><polygon fill="#181818" points="894,787.0137,884,791.0137,894,795.0137,890,791.0137" style="stroke:#181818;stroke-width:1.0;"/><text fill="#000000" font-family="sans-serif" font-size="13" font-weight="bold" lengthAdjust="spacing" textLength="25" x="896" y="772.751">9.16</text><text fill="#000000" font-family="sans-serif" font-size="13" lengthAdjust="spacing" textLength="4" x="925" y="772.751">&#160;</text><polygon fill="#181818" points="275,813.3047,265,817.3047,275,821.3047,271,817.3047" style="stroke:#181818;stroke-width:1.0;"/><line style="stroke:#181818;stroke-width:1.0;stroke-dasharray:2.0,2.0;" x1="269" x2="878" y1="817.3047" y2="817.3047"/><text fill="#000000" font-family="sans-serif" font-size="13" font-weight="bold" lengthAdjust="spacing" textLength="25" x="281" y="812.042">9.17</text><text fill="#000000" font-family="sans-serif" font-size="13" lengthAdjust="spacing" textLength="182" x="310" y="812.042">sortedGreenSpacesListByGSM</text><polygon fill="#181818" points="11,858.5957,1,862.5957,11,866.5957,7,862.5957" style="stroke:#181818;stroke-width:1.0;"/><line style="stroke:#181818;stroke-width:1.0;stroke-dasharray:2.0,2.0;" x1="5" x2="258" y1="862.5957" y2="862.5957"/><text fill="#000000" font-family="sans-serif" font-size="13" font-weight="bold" lengthAdjust="spacing" textLength="14" x="17" y="857.333">10</text><text fill="#000000" font-family="sans-serif" font-size="13" lengthAdjust="spacing" textLength="180" x="35" y="857.333">sortedGreenSpacesListByGsm</text><!--SRC=[jLP1Rvim6BtxLtpgfQngfkKur5PA3yrbbQOXxTIB2r-85R0jsspZty-G14Di9xJhE87jxxtdzym7UiUuf8hMK0ikygqIDO9H3H8zp4YQxsY9cMah18MveRoinWlqbXRYD-CbR6YbaH3Q6C6R-XKL8TTRLY1iX32luWyXjiAmd4dA3LoL2f5d5Xz_e1IQ6Q7Qz8Ml0yDNG3M4riSGzJUcpMExpfvVUDhTtpdOXnCqjtQAbheI_KovDK7rbVxmITsgAeLYPbil-_Nq-3Ys1huI0ek7uAOW1IsKsSiQm99IrqyseGorPe9_ce1zNXAQ6_QB6Wpx1FOgbMWaP1OQEcnuR67bjC7X2YgAA4sXHEFy68pqjCBeEY_qBK9SSZStAUGABIgPSCKm_0nFjd8SJYBQ0uTWij2VF-EXZpM6Ad0sgv0cn7n_3zD0vfaKCZe5MXI9cxaOxUZjcYn5Na0bX8n9SNMmcEESeubuTrbIs8SF9XyVzKi1hAIiM4wDJUmGN7zAkpVOzblN6I8X-ENJ_VhpPqZ_4zjt9IJQxQ3kMGwFRRB3zjOQkA5DPNxIgeaTD5S_PNFZVOAXJRc-70ajXXtQoNivtkDQz4J-CrlNFuQWWUdZGosMyrh6e63_2OCaz994egJ-jwYV7_Ju-1tanrACEM8kpa899zI9ncBzXiuH8RFjSp_GtVJixczW-QKVkLiimZb1N8UkoQMkzHS0]--></g></svg>