<?xml version="1.0" encoding="us-ascii" standalone="no"?><svg xmlns="http://www.w3.org/2000/svg" xmlns:xlink="http://www.w3.org/1999/xlink" contentStyleType="text/css" height="620.4px" preserveAspectRatio="none" style="width:867px;height:620px;background:#FFFFFF;" version="1.1" viewBox="0 0 867 620" width="867.6px" zoomAndPan="magnify"><defs/><g><!--class ListGreenSpacesByGSMUI--><g id="elem_ListGreenSpacesByGSMUI"><rect codeLine="9" fill="#F1F1F1" height="28.8" id="ListGreenSpacesByGSMUI" rx="1.5" ry="1.5" style="stroke:#181818;stroke-width:0.3;" width="120" x="453.9" y="4.2"/><ellipse cx="462.9" cy="13.8" fill="#ADD1B2" rx="6.6" ry="6.6" style="stroke:#181818;stroke-width:0.6;"/><path d="M464.5594,11.325 Q464.6531,11.1938 464.7656,11.1281 Q464.8781,11.0625 465.0094,11.0625 Q465.2344,11.0625 465.375,11.2219 Q465.5156,11.3719 465.5156,11.7375 L465.5156,12.6094 Q465.5156,12.975 465.375,13.1344 Q465.2344,13.2938 465.0094,13.2938 Q464.8031,13.2938 464.6813,13.1719 Q464.5594,13.0594 464.4938,12.75 Q464.4656,12.5344 464.3531,12.4219 Q464.1563,12.1969 463.7906,12.0656 Q463.425,11.9344 463.05,11.9344 Q462.5906,11.9344 462.2062,12.1313 Q461.8312,12.3281 461.5313,12.7781 Q461.2406,13.2281 461.2406,13.8469 L461.2406,14.5031 Q461.2406,15.2437 461.775,15.7406 Q462.3094,16.2281 463.2656,16.2281 Q463.8281,16.2281 464.2219,16.0781 Q464.4562,15.9844 464.7094,15.7219 Q464.8688,15.5625 464.9531,15.5156 Q465.0469,15.4688 465.1688,15.4688 Q465.3656,15.4688 465.5156,15.6281 Q465.675,15.7781 465.675,15.9844 Q465.675,16.1906 465.4688,16.4344 Q465.1688,16.7813 464.6906,16.9781 Q464.0438,17.25 463.2656,17.25 Q462.3563,17.25 461.6344,16.875 Q461.0438,16.575 460.6312,15.9375 Q460.2188,15.2906 460.2188,14.5219 L460.2188,13.8281 Q460.2188,13.0313 460.5844,12.3469 Q460.9594,11.6531 461.6156,11.2875 Q462.2719,10.9125 463.0125,10.9125 Q463.4531,10.9125 463.8375,11.0156 Q464.2313,11.1094 464.5594,11.325 Z " fill="#000000"/><text fill="#000000" font-family="sans-serif" font-size="8.4" lengthAdjust="spacing" textLength="100.8" x="471.3" y="17.2781">ListGreenSpacesByGSMUI</text><line style="stroke:#181818;stroke-width:0.3;" x1="454.5" x2="573.3" y1="23.4" y2="23.4"/><line style="stroke:#181818;stroke-width:0.3;" x1="454.5" x2="573.3" y1="28.2" y2="28.2"/></g><!--class ListGreenSpacesByGSMController--><g id="elem_ListGreenSpacesByGSMController"><rect codeLine="12" fill="#F1F1F1" height="62.318" id="ListGreenSpacesByGSMController" rx="1.5" ry="1.5" style="stroke:#181818;stroke-width:0.3;" width="334.8" x="346.5" y="69.6"/><ellipse cx="445.95" cy="79.2" fill="#ADD1B2" rx="6.6" ry="6.6" style="stroke:#181818;stroke-width:0.6;"/><path d="M447.6094,76.725 Q447.7031,76.5938 447.8156,76.5281 Q447.9281,76.4625 448.0594,76.4625 Q448.2844,76.4625 448.425,76.6219 Q448.5656,76.7719 448.5656,77.1375 L448.5656,78.0094 Q448.5656,78.375 448.425,78.5344 Q448.2844,78.6938 448.0594,78.6938 Q447.8531,78.6938 447.7313,78.5719 Q447.6094,78.4594 447.5438,78.15 Q447.5156,77.9344 447.4031,77.8219 Q447.2063,77.5969 446.8406,77.4656 Q446.475,77.3344 446.1,77.3344 Q445.6406,77.3344 445.2562,77.5313 Q444.8812,77.7281 444.5813,78.1781 Q444.2906,78.6281 444.2906,79.2469 L444.2906,79.9031 Q444.2906,80.6438 444.825,81.1406 Q445.3594,81.6281 446.3156,81.6281 Q446.8781,81.6281 447.2719,81.4781 Q447.5062,81.3844 447.7594,81.1219 Q447.9188,80.9625 448.0031,80.9156 Q448.0969,80.8687 448.2188,80.8687 Q448.4156,80.8687 448.5656,81.0281 Q448.725,81.1781 448.725,81.3844 Q448.725,81.5906 448.5188,81.8344 Q448.2188,82.1812 447.7406,82.3781 Q447.0938,82.65 446.3156,82.65 Q445.4063,82.65 444.6844,82.275 Q444.0938,81.975 443.6813,81.3375 Q443.2688,80.6906 443.2688,79.9219 L443.2688,79.2281 Q443.2688,78.4312 443.6344,77.7469 Q444.0094,77.0531 444.6656,76.6875 Q445.3219,76.3125 446.0625,76.3125 Q446.5031,76.3125 446.8875,76.4156 Q447.2813,76.5094 447.6094,76.725 Z " fill="#000000"/><text fill="#000000" font-family="sans-serif" font-size="8.4" lengthAdjust="spacing" textLength="130.8" x="458.25" y="82.6781">ListGreenSpacesByGSMController</text><line style="stroke:#181818;stroke-width:0.3;" x1="347.1" x2="680.7" y1="88.8" y2="88.8"/><line style="stroke:#181818;stroke-width:0.3;" x1="347.1" x2="680.7" y1="93.6" y2="93.6"/><text fill="#000000" font-family="sans-serif" font-size="8.4" lengthAdjust="spacing" textLength="327.6" x="350.1" y="105.0645">+ListGreenSpacesByGSMController(authenticationRepository, greenSpaceRepository)</text><text fill="#000000" font-family="sans-serif" font-size="8.4" lengthAdjust="spacing" textLength="89.4" x="350.1" y="116.2371">-getGSMFromSession()</text><text fill="#000000" font-family="sans-serif" font-size="8.4" lengthAdjust="spacing" textLength="101.4" x="350.1" y="127.4098">+sortListDTOByAlgorithm()</text></g><!--class GreenSpaceRepository--><g id="elem_GreenSpaceRepository"><rect codeLine="18" fill="#F1F1F1" height="51.1453" id="GreenSpaceRepository" rx="1.5" ry="1.5" style="stroke:#181818;stroke-width:0.3;" width="184.8" x="198.9" y="289.5"/><ellipse cx="244.35" cy="299.1" fill="#ADD1B2" rx="6.6" ry="6.6" style="stroke:#181818;stroke-width:0.6;"/><path d="M246.0094,296.625 Q246.1031,296.4938 246.2156,296.4281 Q246.3281,296.3625 246.4594,296.3625 Q246.6844,296.3625 246.825,296.5219 Q246.9656,296.6719 246.9656,297.0375 L246.9656,297.9094 Q246.9656,298.275 246.825,298.4344 Q246.6844,298.5938 246.4594,298.5938 Q246.2531,298.5938 246.1313,298.4719 Q246.0094,298.3594 245.9438,298.05 Q245.9156,297.8344 245.8031,297.7219 Q245.6063,297.4969 245.2406,297.3656 Q244.875,297.2344 244.5,297.2344 Q244.0406,297.2344 243.6563,297.4313 Q243.2813,297.6281 242.9813,298.0781 Q242.6906,298.5281 242.6906,299.1469 L242.6906,299.8031 Q242.6906,300.5438 243.225,301.0406 Q243.7594,301.5281 244.7156,301.5281 Q245.2781,301.5281 245.6719,301.3781 Q245.9063,301.2844 246.1594,301.0219 Q246.3188,300.8625 246.4031,300.8156 Q246.4969,300.7688 246.6187,300.7688 Q246.8156,300.7688 246.9656,300.9281 Q247.125,301.0781 247.125,301.2844 Q247.125,301.4906 246.9188,301.7344 Q246.6187,302.0813 246.1406,302.2781 Q245.4937,302.55 244.7156,302.55 Q243.8062,302.55 243.0844,302.175 Q242.4937,301.875 242.0812,301.2375 Q241.6688,300.5906 241.6688,299.8219 L241.6688,299.1281 Q241.6688,298.3313 242.0344,297.6469 Q242.4094,296.9531 243.0656,296.5875 Q243.7219,296.2125 244.4625,296.2125 Q244.9031,296.2125 245.2875,296.3156 Q245.6812,296.4094 246.0094,296.625 Z " fill="#000000"/><text fill="#000000" font-family="sans-serif" font-size="8.4" lengthAdjust="spacing" textLength="88.8" x="256.65" y="302.5781">GreenSpaceRepository</text><line style="stroke:#181818;stroke-width:0.3;" x1="199.5" x2="383.1" y1="308.7" y2="308.7"/><line style="stroke:#181818;stroke-width:0.3;" x1="199.5" x2="383.1" y1="313.5" y2="313.5"/><text fill="#000000" font-family="sans-serif" font-size="8.4" lengthAdjust="spacing" textLength="177.6" x="202.5" y="324.9645">+getGreenSpaceListByGSM(gsmFromSession)</text><text fill="#000000" font-family="sans-serif" font-size="8.4" lengthAdjust="spacing" textLength="148.8" x="202.5" y="336.1371">+sortListByAlgorithm(gsmFromSession)</text></g><!--class GreenSpace--><g id="elem_GreenSpace"><rect codeLine="23" fill="#F1F1F1" height="95.8359" id="GreenSpace" rx="1.5" ry="1.5" style="stroke:#181818;stroke-width:0.3;" width="254.4" x="67.5" y="399.6"/><ellipse cx="168.15" cy="409.2" fill="#ADD1B2" rx="6.6" ry="6.6" style="stroke:#181818;stroke-width:0.6;"/><path d="M169.8094,406.725 Q169.9031,406.5938 170.0156,406.5281 Q170.1281,406.4625 170.2594,406.4625 Q170.4844,406.4625 170.625,406.6219 Q170.7656,406.7719 170.7656,407.1375 L170.7656,408.0094 Q170.7656,408.375 170.625,408.5344 Q170.4844,408.6937 170.2594,408.6937 Q170.0531,408.6937 169.9313,408.5719 Q169.8094,408.4594 169.7438,408.15 Q169.7156,407.9344 169.6031,407.8219 Q169.4063,407.5969 169.0406,407.4656 Q168.675,407.3344 168.3,407.3344 Q167.8406,407.3344 167.4562,407.5313 Q167.0812,407.7281 166.7813,408.1781 Q166.4906,408.6281 166.4906,409.2469 L166.4906,409.9031 Q166.4906,410.6438 167.025,411.1406 Q167.5594,411.6281 168.5156,411.6281 Q169.0781,411.6281 169.4719,411.4781 Q169.7062,411.3844 169.9594,411.1219 Q170.1188,410.9625 170.2031,410.9156 Q170.2969,410.8688 170.4188,410.8688 Q170.6156,410.8688 170.7656,411.0281 Q170.925,411.1781 170.925,411.3844 Q170.925,411.5906 170.7188,411.8344 Q170.4188,412.1813 169.9406,412.3781 Q169.2938,412.65 168.5156,412.65 Q167.6063,412.65 166.8844,412.275 Q166.2938,411.975 165.8813,411.3375 Q165.4688,410.6906 165.4688,409.9219 L165.4688,409.2281 Q165.4688,408.4313 165.8344,407.7469 Q166.2094,407.0531 166.8656,406.6875 Q167.5219,406.3125 168.2625,406.3125 Q168.7031,406.3125 169.0875,406.4156 Q169.4813,406.5094 169.8094,406.725 Z " fill="#000000"/><text fill="#000000" font-family="sans-serif" font-size="8.4" lengthAdjust="spacing" textLength="48" x="180.45" y="412.6781">GreenSpace</text><line style="stroke:#181818;stroke-width:0.3;" x1="68.1" x2="321.3" y1="418.8" y2="418.8"/><text fill="#000000" font-family="sans-serif" font-size="8.4" lengthAdjust="spacing" textLength="48.6" x="71.1" y="430.2645">-String name</text><text fill="#000000" font-family="sans-serif" font-size="8.4" lengthAdjust="spacing" textLength="67.2" x="71.1" y="441.4371">-Address address</text><text fill="#000000" font-family="sans-serif" font-size="8.4" lengthAdjust="spacing" textLength="88.8" x="71.1" y="452.6098">-GreenSpaceType type</text><text fill="#000000" font-family="sans-serif" font-size="8.4" lengthAdjust="spacing" textLength="48.6" x="71.1" y="463.7824">-double area</text><text fill="#000000" font-family="sans-serif" font-size="8.4" lengthAdjust="spacing" textLength="175.2" x="71.1" y="474.9551">-GreenSpacesManager greenSpacesManager</text><line style="stroke:#181818;stroke-width:0.3;" x1="68.1" x2="321.3" y1="479.4633" y2="479.4633"/><text fill="#000000" font-family="sans-serif" font-size="8.4" lengthAdjust="spacing" textLength="247.2" x="71.1" y="490.9277">+GreenSpace(name, address, type, area, greenSpacesManager)</text></g><!--class GreenSpaceManager--><g id="elem_GreenSpaceManager"><rect codeLine="32" fill="#F1F1F1" height="51.1453" id="GreenSpaceManager" rx="1.5" ry="1.5" style="stroke:#181818;stroke-width:0.3;" width="119.4" x="4.2" y="554.1"/><ellipse cx="21.57" cy="563.7" fill="#ADD1B2" rx="6.6" ry="6.6" style="stroke:#181818;stroke-width:0.6;"/><path d="M23.2294,561.225 Q23.3231,561.0938 23.4356,561.0281 Q23.5481,560.9625 23.6794,560.9625 Q23.9044,560.9625 24.045,561.1219 Q24.1856,561.2719 24.1856,561.6375 L24.1856,562.5094 Q24.1856,562.875 24.045,563.0344 Q23.9044,563.1938 23.6794,563.1938 Q23.4731,563.1938 23.3513,563.0719 Q23.2294,562.9594 23.1638,562.65 Q23.1356,562.4344 23.0231,562.3219 Q22.8263,562.0969 22.4606,561.9656 Q22.095,561.8344 21.72,561.8344 Q21.2606,561.8344 20.8763,562.0313 Q20.5013,562.2281 20.2013,562.6781 Q19.9106,563.1281 19.9106,563.7469 L19.9106,564.4031 Q19.9106,565.1438 20.445,565.6406 Q20.9794,566.1281 21.9356,566.1281 Q22.4981,566.1281 22.8919,565.9781 Q23.1263,565.8844 23.3794,565.6219 Q23.5388,565.4625 23.6231,565.4156 Q23.7169,565.3688 23.8388,565.3688 Q24.0356,565.3688 24.1856,565.5281 Q24.345,565.6781 24.345,565.8844 Q24.345,566.0906 24.1388,566.3344 Q23.8388,566.6813 23.3606,566.8781 Q22.7138,567.15 21.9356,567.15 Q21.0263,567.15 20.3044,566.775 Q19.7138,566.475 19.3013,565.8375 Q18.8888,565.1906 18.8888,564.4219 L18.8888,563.7281 Q18.8888,562.9313 19.2544,562.2469 Q19.6294,561.5531 20.2856,561.1875 Q20.9419,560.8125 21.6825,560.8125 Q22.1231,560.8125 22.5075,560.9156 Q22.9013,561.0094 23.2294,561.225 Z " fill="#000000"/><text fill="#000000" font-family="sans-serif" font-size="8.4" lengthAdjust="spacing" textLength="81.6" x="31.83" y="567.1781">GreenSpaceManager</text><line style="stroke:#181818;stroke-width:0.3;" x1="4.8" x2="123" y1="573.3" y2="573.3"/><text fill="#000000" font-family="sans-serif" font-size="8.4" lengthAdjust="spacing" textLength="47.4" x="7.8" y="584.7645">-String email</text><line style="stroke:#181818;stroke-width:0.3;" x1="4.8" x2="123" y1="589.2727" y2="589.2727"/><text fill="#000000" font-family="sans-serif" font-size="8.4" lengthAdjust="spacing" textLength="112.2" x="7.8" y="600.7371">+GreenSpaceManager(email)</text></g><!--class Address--><g id="elem_Address"><rect codeLine="37" fill="#F1F1F1" height="73.4906" id="Address" rx="1.5" ry="1.5" style="stroke:#181818;stroke-width:0.3;" width="100.2" x="144.6" y="543"/><ellipse cx="176.55" cy="552.6" fill="#ADD1B2" rx="6.6" ry="6.6" style="stroke:#181818;stroke-width:0.6;"/><path d="M178.2094,550.125 Q178.3031,549.9938 178.4156,549.9281 Q178.5281,549.8625 178.6594,549.8625 Q178.8844,549.8625 179.025,550.0219 Q179.1656,550.1719 179.1656,550.5375 L179.1656,551.4094 Q179.1656,551.775 179.025,551.9344 Q178.8844,552.0938 178.6594,552.0938 Q178.4531,552.0938 178.3312,551.9719 Q178.2094,551.8594 178.1437,551.55 Q178.1156,551.3344 178.0031,551.2219 Q177.8063,550.9969 177.4406,550.8656 Q177.075,550.7344 176.7,550.7344 Q176.2406,550.7344 175.8563,550.9313 Q175.4813,551.1281 175.1813,551.5781 Q174.8906,552.0281 174.8906,552.6469 L174.8906,553.3031 Q174.8906,554.0437 175.425,554.5406 Q175.9594,555.0281 176.9156,555.0281 Q177.4781,555.0281 177.8719,554.8781 Q178.1063,554.7844 178.3594,554.5219 Q178.5187,554.3625 178.6031,554.3156 Q178.6969,554.2688 178.8188,554.2688 Q179.0156,554.2688 179.1656,554.4281 Q179.325,554.5781 179.325,554.7844 Q179.325,554.9906 179.1188,555.2344 Q178.8188,555.5813 178.3406,555.7781 Q177.6938,556.05 176.9156,556.05 Q176.0063,556.05 175.2844,555.675 Q174.6938,555.375 174.2813,554.7375 Q173.8688,554.0906 173.8688,553.3219 L173.8688,552.6281 Q173.8688,551.8313 174.2344,551.1469 Q174.6094,550.4531 175.2656,550.0875 Q175.9219,549.7125 176.6625,549.7125 Q177.1031,549.7125 177.4875,549.8156 Q177.8813,549.9094 178.2094,550.125 Z " fill="#000000"/><text fill="#000000" font-family="sans-serif" font-size="8.4" lengthAdjust="spacing" textLength="31.2" x="188.85" y="556.0781">Address</text><line style="stroke:#181818;stroke-width:0.3;" x1="145.2" x2="244.2" y1="562.2" y2="562.2"/><text fill="#000000" font-family="sans-serif" font-size="8.4" lengthAdjust="spacing" textLength="49.2" x="148.2" y="573.6645">-String street</text><text fill="#000000" font-family="sans-serif" font-size="8.4" lengthAdjust="spacing" textLength="56.4" x="148.2" y="584.8371">-String zipcode</text><text fill="#000000" font-family="sans-serif" font-size="8.4" lengthAdjust="spacing" textLength="40.2" x="148.2" y="596.0098">-String city</text><line style="stroke:#181818;stroke-width:0.3;" x1="145.2" x2="244.2" y1="600.518" y2="600.518"/><text fill="#000000" font-family="sans-serif" font-size="8.4" lengthAdjust="spacing" textLength="93" x="148.2" y="611.9824">+Address(addressArray)</text></g><!--class GreenSpaceType--><g id="elem_GreenSpaceType"><rect codeLine="44" fill="#F1F1F1" height="62.318" id="GreenSpaceType" rx="1.5" ry="1.5" style="stroke:#181818;stroke-width:0.3;" width="94.2" x="265.8" y="548.4"/><ellipse cx="278.31" cy="558" fill="#EB937F" rx="6.6" ry="6.6" style="stroke:#181818;stroke-width:0.6;"/><path d="M277.6256,558.4781 L277.6256,559.9781 L280.2225,559.9781 L280.2225,559.425 Q280.2225,559.0594 280.3631,558.9 Q280.5131,558.7406 280.7381,558.7406 Q280.9631,558.7406 281.1038,558.9 Q281.2444,559.0594 281.2444,559.425 L281.2444,561 L276.4444,561 Q276.0694,561 275.91,560.8594 Q275.76,560.7188 275.76,560.4844 Q275.76,560.2594 275.9194,560.1188 Q276.0788,559.9781 276.4444,559.9781 L276.6038,559.9781 L276.6038,555.9844 L276.4444,555.9844 Q276.0694,555.9844 275.91,555.8438 Q275.76,555.7031 275.76,555.4688 Q275.76,555.2438 275.91,555.1031 Q276.0694,554.9625 276.4444,554.9625 L281.0194,554.9625 L281.0194,556.5188 Q281.0194,556.8844 280.8788,557.0437 Q280.7475,557.1938 280.5131,557.1938 Q280.2881,557.1938 280.1475,557.0437 Q280.0069,556.8844 280.0069,556.5188 L280.0069,555.9844 L277.6256,555.9844 L277.6256,557.4563 L278.5163,557.4563 Q278.5163,557.0625 278.5913,556.95 Q278.7506,556.7063 279.0319,556.7063 Q279.2569,556.7063 279.3975,556.8656 Q279.5381,557.0156 279.5381,557.3813 L279.5381,558.5625 Q279.5381,558.8906 279.4631,559.0031 Q279.3038,559.2375 279.0319,559.2375 Q278.7506,559.2375 278.5913,558.9938 Q278.5163,558.8813 278.5163,558.4781 L277.6256,558.4781 Z " fill="#000000"/><text fill="#000000" font-family="sans-serif" font-size="8.4" lengthAdjust="spacing" textLength="67.2" x="287.49" y="561.4781">GreenSpaceType</text><line style="stroke:#181818;stroke-width:0.3;" x1="266.4" x2="359.4" y1="567.6" y2="567.6"/><text fill="#000000" font-family="sans-serif" font-size="8.4" lengthAdjust="spacing" textLength="34.8" x="269.4" y="579.0645">GARDEN</text><text fill="#000000" font-family="sans-serif" font-size="8.4" lengthAdjust="spacing" textLength="87" x="269.4" y="590.2371">MEDIUM_SIZED_PARK</text><text fill="#000000" font-family="sans-serif" font-size="8.4" lengthAdjust="spacing" textLength="83.4" x="269.4" y="601.4098">LARGE_SIZED_PARK</text><line style="stroke:#181818;stroke-width:0.3;" x1="266.4" x2="359.4" y1="605.918" y2="605.918"/></g><!--class Repositories--><g id="elem_Repositories"><rect codeLine="50" fill="#F1F1F1" height="51.1453" id="Repositories" rx="1.5" ry="1.5" style="stroke:#181818;stroke-width:0.3;" width="127.2" x="335.7" y="179.4"/><ellipse cx="373.05" cy="189" fill="#ADD1B2" rx="6.6" ry="6.6" style="stroke:#181818;stroke-width:0.6;"/><path d="M374.7094,186.525 Q374.8031,186.3937 374.9156,186.3281 Q375.0281,186.2625 375.1594,186.2625 Q375.3844,186.2625 375.525,186.4219 Q375.6656,186.5719 375.6656,186.9375 L375.6656,187.8094 Q375.6656,188.175 375.525,188.3344 Q375.3844,188.4938 375.1594,188.4938 Q374.9531,188.4938 374.8313,188.3719 Q374.7094,188.2594 374.6438,187.95 Q374.6156,187.7344 374.5031,187.6219 Q374.3063,187.3969 373.9406,187.2656 Q373.575,187.1344 373.2,187.1344 Q372.7406,187.1344 372.3563,187.3312 Q371.9813,187.5281 371.6813,187.9781 Q371.3906,188.4281 371.3906,189.0469 L371.3906,189.7031 Q371.3906,190.4438 371.925,190.9406 Q372.4594,191.4281 373.4156,191.4281 Q373.9781,191.4281 374.3719,191.2781 Q374.6063,191.1844 374.8594,190.9219 Q375.0188,190.7625 375.1031,190.7156 Q375.1969,190.6688 375.3187,190.6688 Q375.5156,190.6688 375.6656,190.8281 Q375.825,190.9781 375.825,191.1844 Q375.825,191.3906 375.6188,191.6344 Q375.3187,191.9813 374.8406,192.1781 Q374.1937,192.45 373.4156,192.45 Q372.5062,192.45 371.7844,192.075 Q371.1937,191.775 370.7813,191.1375 Q370.3688,190.4906 370.3688,189.7219 L370.3688,189.0281 Q370.3688,188.2313 370.7344,187.5469 Q371.1094,186.8531 371.7656,186.4875 Q372.4219,186.1125 373.1625,186.1125 Q373.6031,186.1125 373.9875,186.2156 Q374.3812,186.3094 374.7094,186.525 Z " fill="#000000"/><text fill="#000000" font-family="sans-serif" font-size="8.4" lengthAdjust="spacing" textLength="47.4" x="385.35" y="192.4781">Repositories</text><line style="stroke:#181818;stroke-width:0.3;" x1="336.3" x2="462.3" y1="198.6" y2="198.6"/><line style="stroke:#181818;stroke-width:0.3;" x1="336.3" x2="462.3" y1="203.4" y2="203.4"/><text fill="#000000" font-family="sans-serif" font-size="8.4" lengthAdjust="spacing" textLength="114" x="339.3" y="214.8645">+getGreenSpaceRepository();</text><text fill="#000000" font-family="sans-serif" font-size="8.4" lengthAdjust="spacing" textLength="120" x="339.3" y="226.0371">+getAuthenticationRepository();</text></g><!--class AuthenticationRepository--><g id="elem_AuthenticationRepository"><rect codeLine="55" fill="#F1F1F1" height="39.9727" id="AuthenticationRepository" rx="1.5" ry="1.5" style="stroke:#181818;stroke-width:0.3;" width="114" x="432.9" y="294.9"/><ellipse cx="441.9" cy="304.5" fill="#ADD1B2" rx="6.6" ry="6.6" style="stroke:#181818;stroke-width:0.6;"/><path d="M443.5594,302.025 Q443.6531,301.8938 443.7656,301.8281 Q443.8781,301.7625 444.0094,301.7625 Q444.2344,301.7625 444.375,301.9219 Q444.5156,302.0719 444.5156,302.4375 L444.5156,303.3094 Q444.5156,303.675 444.375,303.8344 Q444.2344,303.9938 444.0094,303.9938 Q443.8031,303.9938 443.6813,303.8719 Q443.5594,303.7594 443.4938,303.45 Q443.4656,303.2344 443.3531,303.1219 Q443.1563,302.8969 442.7906,302.7656 Q442.425,302.6344 442.05,302.6344 Q441.5906,302.6344 441.2063,302.8313 Q440.8313,303.0281 440.5313,303.4781 Q440.2406,303.9281 440.2406,304.5469 L440.2406,305.2031 Q440.2406,305.9437 440.775,306.4406 Q441.3094,306.9281 442.2656,306.9281 Q442.8281,306.9281 443.2219,306.7781 Q443.4563,306.6844 443.7094,306.4219 Q443.8688,306.2625 443.9531,306.2156 Q444.0469,306.1688 444.1688,306.1688 Q444.3656,306.1688 444.5156,306.3281 Q444.675,306.4781 444.675,306.6844 Q444.675,306.8906 444.4688,307.1344 Q444.1688,307.4813 443.6906,307.6781 Q443.0438,307.95 442.2656,307.95 Q441.3563,307.95 440.6344,307.575 Q440.0438,307.275 439.6312,306.6375 Q439.2188,305.9906 439.2188,305.2219 L439.2188,304.5281 Q439.2188,303.7313 439.5844,303.0469 Q439.9594,302.3531 440.6156,301.9875 Q441.2719,301.6125 442.0125,301.6125 Q442.4531,301.6125 442.8375,301.7156 Q443.2313,301.8094 443.5594,302.025 Z " fill="#000000"/><text fill="#000000" font-family="sans-serif" font-size="8.4" lengthAdjust="spacing" textLength="94.8" x="450.3" y="307.9781">AuthenticationRepository</text><line style="stroke:#181818;stroke-width:0.3;" x1="433.5" x2="546.3" y1="314.1" y2="314.1"/><line style="stroke:#181818;stroke-width:0.3;" x1="433.5" x2="546.3" y1="318.9" y2="318.9"/><text fill="#000000" font-family="sans-serif" font-size="8.4" lengthAdjust="spacing" textLength="99" x="436.5" y="330.3645">+getCurrentUserSession()</text></g><!--class UserSession--><g id="elem_UserSession"><rect codeLine="59" fill="#F1F1F1" height="39.9727" id="UserSession" rx="1.5" ry="1.5" style="stroke:#181818;stroke-width:0.3;" width="66.6" x="456.6" y="427.5"/><ellipse cx="465.6" cy="437.1" fill="#ADD1B2" rx="6.6" ry="6.6" style="stroke:#181818;stroke-width:0.6;"/><path d="M467.2594,434.625 Q467.3531,434.4938 467.4656,434.4281 Q467.5781,434.3625 467.7094,434.3625 Q467.9344,434.3625 468.075,434.5219 Q468.2156,434.6719 468.2156,435.0375 L468.2156,435.9094 Q468.2156,436.275 468.075,436.4344 Q467.9344,436.5938 467.7094,436.5938 Q467.5031,436.5938 467.3812,436.4719 Q467.2594,436.3594 467.1937,436.05 Q467.1656,435.8344 467.0531,435.7219 Q466.8563,435.4969 466.4906,435.3656 Q466.125,435.2344 465.75,435.2344 Q465.2906,435.2344 464.9063,435.4313 Q464.5313,435.6281 464.2313,436.0781 Q463.9406,436.5281 463.9406,437.1469 L463.9406,437.8031 Q463.9406,438.5438 464.475,439.0406 Q465.0094,439.5281 465.9656,439.5281 Q466.5281,439.5281 466.9219,439.3781 Q467.1563,439.2844 467.4094,439.0219 Q467.5687,438.8625 467.6531,438.8156 Q467.7469,438.7688 467.8688,438.7688 Q468.0656,438.7688 468.2156,438.9281 Q468.375,439.0781 468.375,439.2844 Q468.375,439.4906 468.1688,439.7344 Q467.8688,440.0813 467.3906,440.2781 Q466.7438,440.55 465.9656,440.55 Q465.0563,440.55 464.3344,440.175 Q463.7438,439.875 463.3312,439.2375 Q462.9188,438.5906 462.9188,437.8219 L462.9188,437.1281 Q462.9188,436.3313 463.2844,435.6469 Q463.6594,434.9531 464.3156,434.5875 Q464.9719,434.2125 465.7125,434.2125 Q466.1531,434.2125 466.5375,434.3156 Q466.9313,434.4094 467.2594,434.625 Z " fill="#000000"/><text fill="#000000" font-family="sans-serif" font-size="8.4" lengthAdjust="spacing" textLength="47.4" x="474" y="440.5781">UserSession</text><line style="stroke:#181818;stroke-width:0.3;" x1="457.2" x2="522.6" y1="446.7" y2="446.7"/><line style="stroke:#181818;stroke-width:0.3;" x1="457.2" x2="522.6" y1="451.5" y2="451.5"/><text fill="#000000" font-family="sans-serif" font-size="8.4" lengthAdjust="spacing" textLength="46.8" x="460.2" y="462.9645">+getUserId()</text></g><!--class GreenSpaceDTO--><g id="elem_GreenSpaceDTO"><rect codeLine="63" fill="#F1F1F1" height="95.8359" id="GreenSpaceDTO" rx="1.5" ry="1.5" style="stroke:#181818;stroke-width:0.3;" width="267.6" x="596.1" y="267"/><ellipse cx="694.35" cy="276.6" fill="#ADD1B2" rx="6.6" ry="6.6" style="stroke:#181818;stroke-width:0.6;"/><path d="M696.0094,274.125 Q696.1031,273.9938 696.2156,273.9281 Q696.3281,273.8625 696.4594,273.8625 Q696.6844,273.8625 696.825,274.0219 Q696.9656,274.1719 696.9656,274.5375 L696.9656,275.4094 Q696.9656,275.775 696.825,275.9344 Q696.6844,276.0938 696.4594,276.0938 Q696.2531,276.0938 696.1313,275.9719 Q696.0094,275.8594 695.9438,275.55 Q695.9156,275.3344 695.8031,275.2219 Q695.6062,274.9969 695.2406,274.8656 Q694.875,274.7344 694.5,274.7344 Q694.0406,274.7344 693.6563,274.9313 Q693.2813,275.1281 692.9812,275.5781 Q692.6906,276.0281 692.6906,276.6469 L692.6906,277.3031 Q692.6906,278.0438 693.225,278.5406 Q693.7594,279.0281 694.7156,279.0281 Q695.2781,279.0281 695.6719,278.8781 Q695.9063,278.7844 696.1594,278.5219 Q696.3188,278.3625 696.4031,278.3156 Q696.4969,278.2688 696.6188,278.2688 Q696.8156,278.2688 696.9656,278.4281 Q697.125,278.5781 697.125,278.7844 Q697.125,278.9906 696.9187,279.2344 Q696.6188,279.5813 696.1406,279.7781 Q695.4938,280.05 694.7156,280.05 Q693.8063,280.05 693.0844,279.675 Q692.4938,279.375 692.0813,278.7375 Q691.6687,278.0906 691.6687,277.3219 L691.6687,276.6281 Q691.6687,275.8313 692.0344,275.1469 Q692.4094,274.4531 693.0656,274.0875 Q693.7219,273.7125 694.4625,273.7125 Q694.9031,273.7125 695.2875,273.8156 Q695.6813,273.9094 696.0094,274.125 Z " fill="#000000"/><text fill="#000000" font-family="sans-serif" font-size="8.4" lengthAdjust="spacing" textLength="66" x="706.65" y="280.0781">GreenSpaceDTO</text><line style="stroke:#181818;stroke-width:0.3;" x1="596.7" x2="863.1" y1="286.2" y2="286.2"/><text fill="#000000" font-family="sans-serif" font-size="8.4" lengthAdjust="spacing" textLength="48.6" x="599.7" y="297.6645">-String name</text><text fill="#000000" font-family="sans-serif" font-size="8.4" lengthAdjust="spacing" textLength="57.6" x="599.7" y="308.8371">-Adress adress</text><text fill="#000000" font-family="sans-serif" font-size="8.4" lengthAdjust="spacing" textLength="88.8" x="599.7" y="320.0098">-GreenSpaceType type</text><text fill="#000000" font-family="sans-serif" font-size="8.4" lengthAdjust="spacing" textLength="48.6" x="599.7" y="331.1824">-double area</text><text fill="#000000" font-family="sans-serif" font-size="8.4" lengthAdjust="spacing" textLength="175.2" x="599.7" y="342.3551">-GreenSpacesManager greenSpacesManager</text><line style="stroke:#181818;stroke-width:0.3;" x1="596.7" x2="863.1" y1="346.8633" y2="346.8633"/><text fill="#000000" font-family="sans-serif" font-size="8.4" lengthAdjust="spacing" textLength="260.4" x="599.7" y="358.3277">+GreenSpaceDTO(name, adress, type, area, greenSpacesManager)</text></g><!--class GreenSpaceMapper--><g id="elem_GreenSpaceMapper"><rect codeLine="72" fill="#F1F1F1" height="51.1453" id="GreenSpaceMapper" rx="1.5" ry="1.5" style="stroke:#181818;stroke-width:0.3;" width="138.6" x="660.6" y="179.4"/><ellipse cx="688.95" cy="189" fill="#ADD1B2" rx="6.6" ry="6.6" style="stroke:#181818;stroke-width:0.6;"/><path d="M690.6094,186.525 Q690.7031,186.3937 690.8156,186.3281 Q690.9281,186.2625 691.0594,186.2625 Q691.2844,186.2625 691.425,186.4219 Q691.5656,186.5719 691.5656,186.9375 L691.5656,187.8094 Q691.5656,188.175 691.425,188.3344 Q691.2844,188.4938 691.0594,188.4938 Q690.8531,188.4938 690.7312,188.3719 Q690.6094,188.2594 690.5437,187.95 Q690.5156,187.7344 690.4031,187.6219 Q690.2063,187.3969 689.8406,187.2656 Q689.475,187.1344 689.1,187.1344 Q688.6406,187.1344 688.2563,187.3312 Q687.8813,187.5281 687.5813,187.9781 Q687.2906,188.4281 687.2906,189.0469 L687.2906,189.7031 Q687.2906,190.4438 687.825,190.9406 Q688.3594,191.4281 689.3156,191.4281 Q689.8781,191.4281 690.2719,191.2781 Q690.5063,191.1844 690.7594,190.9219 Q690.9187,190.7625 691.0031,190.7156 Q691.0969,190.6688 691.2188,190.6688 Q691.4156,190.6688 691.5656,190.8281 Q691.725,190.9781 691.725,191.1844 Q691.725,191.3906 691.5188,191.6344 Q691.2188,191.9813 690.7406,192.1781 Q690.0938,192.45 689.3156,192.45 Q688.4063,192.45 687.6844,192.075 Q687.0938,191.775 686.6813,191.1375 Q686.2688,190.4906 686.2688,189.7219 L686.2688,189.0281 Q686.2688,188.2313 686.6344,187.5469 Q687.0094,186.8531 687.6656,186.4875 Q688.3219,186.1125 689.0625,186.1125 Q689.5031,186.1125 689.8875,186.2156 Q690.2813,186.3094 690.6094,186.525 Z " fill="#000000"/><text fill="#000000" font-family="sans-serif" font-size="8.4" lengthAdjust="spacing" textLength="76.8" x="701.25" y="192.4781">GreenSpaceMapper</text><line style="stroke:#181818;stroke-width:0.3;" x1="661.2" x2="798.6" y1="198.6" y2="198.6"/><line style="stroke:#181818;stroke-width:0.3;" x1="661.2" x2="798.6" y1="203.4" y2="203.4"/><text fill="#000000" font-family="sans-serif" font-size="8.4" lengthAdjust="spacing" textLength="112.8" x="664.2" y="214.8645">+toDTOList(greenSpacesList)</text><text fill="#000000" font-family="sans-serif" font-size="8.4" lengthAdjust="spacing" textLength="131.4" x="664.2" y="226.0371">+greenSpaceToDTO(greenSpace)</text></g><!--class ApplicationSession--><g id="elem_ApplicationSession"><rect codeLine="77" fill="#F1F1F1" height="51.1453" id="ApplicationSession" rx="1.5" ry="1.5" style="stroke:#181818;stroke-width:0.3;" width="92.4" x="342.9" y="422.1"/><ellipse cx="352.71" cy="431.7" fill="#ADD1B2" rx="6.6" ry="6.6" style="stroke:#181818;stroke-width:0.6;"/><path d="M354.3694,429.225 Q354.4631,429.0938 354.5756,429.0281 Q354.6881,428.9625 354.8194,428.9625 Q355.0444,428.9625 355.185,429.1219 Q355.3256,429.2719 355.3256,429.6375 L355.3256,430.5094 Q355.3256,430.875 355.185,431.0344 Q355.0444,431.1937 354.8194,431.1937 Q354.6131,431.1937 354.4913,431.0719 Q354.3694,430.9594 354.3038,430.65 Q354.2756,430.4344 354.1631,430.3219 Q353.9663,430.0969 353.6006,429.9656 Q353.235,429.8344 352.86,429.8344 Q352.4006,429.8344 352.0163,430.0313 Q351.6413,430.2281 351.3413,430.6781 Q351.0506,431.1281 351.0506,431.7469 L351.0506,432.4031 Q351.0506,433.1438 351.585,433.6406 Q352.1194,434.1281 353.0756,434.1281 Q353.6381,434.1281 354.0319,433.9781 Q354.2663,433.8844 354.5194,433.6219 Q354.6788,433.4625 354.7631,433.4156 Q354.8569,433.3688 354.9788,433.3688 Q355.1756,433.3688 355.3256,433.5281 Q355.485,433.6781 355.485,433.8844 Q355.485,434.0906 355.2788,434.3344 Q354.9788,434.6813 354.5006,434.8781 Q353.8538,435.15 353.0756,435.15 Q352.1663,435.15 351.4444,434.775 Q350.8538,434.475 350.4413,433.8375 Q350.0288,433.1906 350.0288,432.4219 L350.0288,431.7281 Q350.0288,430.9313 350.3944,430.2469 Q350.7694,429.5531 351.4256,429.1875 Q352.0819,428.8125 352.8225,428.8125 Q353.2631,428.8125 353.6475,428.9156 Q354.0413,429.0094 354.3694,429.225 Z " fill="#000000"/><text fill="#000000" font-family="sans-serif" font-size="8.4" lengthAdjust="spacing" textLength="71.4" x="361.29" y="435.1781">ApplicationSession</text><line style="stroke:#181818;stroke-width:0.3;" x1="343.5" x2="434.7" y1="441.3" y2="441.3"/><line style="stroke:#181818;stroke-width:0.3;" x1="343.5" x2="434.7" y1="446.1" y2="446.1"/><text fill="#000000" font-family="sans-serif" font-size="8.4" lengthAdjust="spacing" textLength="56.4" x="346.5" y="457.5645">-getAlgorithm()</text><text fill="#000000" font-family="sans-serif" font-size="8.4" lengthAdjust="spacing" textLength="85.2" x="346.5" y="468.7371">+getSortingAlgorithm()</text></g><!--class SortingAlgorithm--><g id="elem_SortingAlgorithm"><rect codeLine="82" fill="#F1F1F1" height="39.9727" id="SortingAlgorithm" rx="1.5" ry="1.5" style="stroke:#181818;stroke-width:0.3;" width="133.2" x="549.9" y="559.5"/><ellipse cx="582.75" cy="569.1" fill="#B4A7E5" rx="6.6" ry="6.6" style="stroke:#181818;stroke-width:0.6;"/><path d="M583.3219,567.0844 L583.3219,571.0781 L584.3531,571.0781 Q584.7188,571.0781 584.8781,571.2188 Q585.0375,571.3594 585.0375,571.5938 Q585.0375,571.8188 584.8781,571.9594 Q584.7188,572.1 584.3531,572.1 L581.2688,572.1 Q580.9031,572.1 580.7438,571.9594 Q580.5844,571.8188 580.5844,571.5844 Q580.5844,571.3594 580.7438,571.2188 Q580.9031,571.0781 581.2688,571.0781 L582.3,571.0781 L582.3,567.0844 L581.2688,567.0844 Q580.9031,567.0844 580.7438,566.9438 Q580.5844,566.8031 580.5844,566.5688 Q580.5844,566.3438 580.7438,566.2031 Q580.9031,566.0625 581.2688,566.0625 L584.3531,566.0625 Q584.7188,566.0625 584.8781,566.2031 Q585.0375,566.3438 585.0375,566.5688 Q585.0375,566.8031 584.8781,566.9438 Q584.7188,567.0844 584.3531,567.0844 L583.3219,567.0844 Z " fill="#000000"/><text fill="#000000" font-family="sans-serif" font-size="8.4" font-style="italic" lengthAdjust="spacing" textLength="62.4" x="595.05" y="572.5781">SortingAlgorithm</text><line style="stroke:#181818;stroke-width:0.3;" x1="550.5" x2="682.5" y1="578.7" y2="578.7"/><line style="stroke:#181818;stroke-width:0.3;" x1="550.5" x2="682.5" y1="583.5" y2="583.5"/><text fill="#000000" font-family="sans-serif" font-size="8.4" lengthAdjust="spacing" textLength="126" x="553.5" y="594.9645">+sort(managedGreenSpacesList)</text></g><!--class Algoritmo1--><g id="elem_Algoritmo1"><rect codeLine="86" fill="#F1F1F1" height="51.1453" id="Algoritmo1" rx="1.5" ry="1.5" style="stroke:#181818;stroke-width:0.3;" width="144.6" x="544.2" y="422.1"/><ellipse cx="593.85" cy="431.7" fill="#ADD1B2" rx="6.6" ry="6.6" style="stroke:#181818;stroke-width:0.6;"/><path d="M595.5094,429.225 Q595.6031,429.0938 595.7156,429.0281 Q595.8281,428.9625 595.9594,428.9625 Q596.1844,428.9625 596.325,429.1219 Q596.4656,429.2719 596.4656,429.6375 L596.4656,430.5094 Q596.4656,430.875 596.325,431.0344 Q596.1844,431.1937 595.9594,431.1937 Q595.7531,431.1937 595.6313,431.0719 Q595.5094,430.9594 595.4438,430.65 Q595.4156,430.4344 595.3031,430.3219 Q595.1062,430.0969 594.7406,429.9656 Q594.375,429.8344 594,429.8344 Q593.5406,429.8344 593.1563,430.0313 Q592.7813,430.2281 592.4812,430.6781 Q592.1906,431.1281 592.1906,431.7469 L592.1906,432.4031 Q592.1906,433.1438 592.725,433.6406 Q593.2594,434.1281 594.2156,434.1281 Q594.7781,434.1281 595.1719,433.9781 Q595.4063,433.8844 595.6594,433.6219 Q595.8188,433.4625 595.9031,433.4156 Q595.9969,433.3688 596.1188,433.3688 Q596.3156,433.3688 596.4656,433.5281 Q596.625,433.6781 596.625,433.8844 Q596.625,434.0906 596.4187,434.3344 Q596.1188,434.6813 595.6406,434.8781 Q594.9938,435.15 594.2156,435.15 Q593.3063,435.15 592.5844,434.775 Q591.9938,434.475 591.5813,433.8375 Q591.1687,433.1906 591.1687,432.4219 L591.1687,431.7281 Q591.1687,430.9313 591.5344,430.2469 Q591.9094,429.5531 592.5656,429.1875 Q593.2219,428.8125 593.9625,428.8125 Q594.4031,428.8125 594.7875,428.9156 Q595.1813,429.0094 595.5094,429.225 Z " fill="#000000"/><text fill="#000000" font-family="sans-serif" font-size="8.4" lengthAdjust="spacing" textLength="40.2" x="606.15" y="435.1781">Algoritmo1</text><line style="stroke:#181818;stroke-width:0.3;" x1="544.8" x2="688.2" y1="441.3" y2="441.3"/><line style="stroke:#181818;stroke-width:0.3;" x1="544.8" x2="688.2" y1="446.1" y2="446.1"/><text fill="#000000" font-family="sans-serif" font-size="8.4" lengthAdjust="spacing" textLength="126" x="547.8" y="457.5645">+sort(managedGreenSpacesList)</text><text fill="#000000" font-family="sans-serif" font-size="8.4" lengthAdjust="spacing" textLength="137.4" x="547.8" y="468.7371">-sortList(managedGreenSpacesList)</text></g><!--class Algoritmo2--><g id="elem_Algoritmo2"><rect codeLine="91" fill="#F1F1F1" height="51.1453" id="Algoritmo2" rx="1.5" ry="1.5" style="stroke:#181818;stroke-width:0.3;" width="144.6" x="709.8" y="422.1"/><ellipse cx="759.45" cy="431.7" fill="#ADD1B2" rx="6.6" ry="6.6" style="stroke:#181818;stroke-width:0.6;"/><path d="M761.1094,429.225 Q761.2031,429.0938 761.3156,429.0281 Q761.4281,428.9625 761.5594,428.9625 Q761.7844,428.9625 761.925,429.1219 Q762.0656,429.2719 762.0656,429.6375 L762.0656,430.5094 Q762.0656,430.875 761.925,431.0344 Q761.7844,431.1937 761.5594,431.1937 Q761.3531,431.1937 761.2312,431.0719 Q761.1094,430.9594 761.0437,430.65 Q761.0156,430.4344 760.9031,430.3219 Q760.7063,430.0969 760.3406,429.9656 Q759.975,429.8344 759.6,429.8344 Q759.1406,429.8344 758.7563,430.0313 Q758.3813,430.2281 758.0813,430.6781 Q757.7906,431.1281 757.7906,431.7469 L757.7906,432.4031 Q757.7906,433.1438 758.325,433.6406 Q758.8594,434.1281 759.8156,434.1281 Q760.3781,434.1281 760.7719,433.9781 Q761.0063,433.8844 761.2594,433.6219 Q761.4187,433.4625 761.5031,433.4156 Q761.5969,433.3688 761.7188,433.3688 Q761.9156,433.3688 762.0656,433.5281 Q762.225,433.6781 762.225,433.8844 Q762.225,434.0906 762.0188,434.3344 Q761.7188,434.6813 761.2406,434.8781 Q760.5938,435.15 759.8156,435.15 Q758.9063,435.15 758.1844,434.775 Q757.5938,434.475 757.1813,433.8375 Q756.7688,433.1906 756.7688,432.4219 L756.7688,431.7281 Q756.7688,430.9313 757.1344,430.2469 Q757.5094,429.5531 758.1656,429.1875 Q758.8219,428.8125 759.5625,428.8125 Q760.0031,428.8125 760.3875,428.9156 Q760.7813,429.0094 761.1094,429.225 Z " fill="#000000"/><text fill="#000000" font-family="sans-serif" font-size="8.4" lengthAdjust="spacing" textLength="40.2" x="771.75" y="435.1781">Algoritmo2</text><line style="stroke:#181818;stroke-width:0.3;" x1="710.4" x2="853.8" y1="441.3" y2="441.3"/><line style="stroke:#181818;stroke-width:0.3;" x1="710.4" x2="853.8" y1="446.1" y2="446.1"/><text fill="#000000" font-family="sans-serif" font-size="8.4" lengthAdjust="spacing" textLength="126" x="713.4" y="457.5645">+sort(managedGreenSpacesList)</text><text fill="#000000" font-family="sans-serif" font-size="8.4" lengthAdjust="spacing" textLength="137.4" x="713.4" y="468.7371">-sortList(managedGreenSpacesList)</text></g><!--link ListGreenSpacesByGSMUI to ListGreenSpacesByGSMController--><g id="link_ListGreenSpacesByGSMUI_ListGreenSpacesByGSMController"><path codeLine="97" d="M513.9,33.126 C513.9,43.122 513.9,53.382 513.9,65.916 " fill="none" id="ListGreenSpacesByGSMUI-to-ListGreenSpacesByGSMController" style="stroke:#181818;stroke-width:0.6;stroke-dasharray:7.0,7.0;"/><polygon fill="#181818" points="513.9,69.516,516.3,64.116,513.9,66.516,511.5,64.116,513.9,69.516" style="stroke:#181818;stroke-width:0.6;"/></g><!--link ListGreenSpacesByGSMController to Repositories--><g id="link_ListGreenSpacesByGSMController_Repositories"><path codeLine="98" d="M479.67,132.132 C462.918,147.174 445.6891,162.6493 429.8731,176.8453 " fill="none" id="ListGreenSpacesByGSMController-to-Repositories" style="stroke:#181818;stroke-width:0.6;stroke-dasharray:7.0,7.0;"/><polygon fill="#181818" points="427.194,179.25,432.8158,177.429,429.4266,177.2461,429.6095,173.8569,427.194,179.25" style="stroke:#181818;stroke-width:0.6;"/><text fill="#000000" font-family="sans-serif" font-size="7.8" lengthAdjust="spacing" textLength="40.2" x="457.5" y="159.017">repositories</text></g><!--link ListGreenSpacesByGSMController to GreenSpaceRepository--><g id="link_ListGreenSpacesByGSMController_GreenSpaceRepository"><path codeLine="99" d="M408.432,132.006 C333.126,153.858 245.1,179.4 245.1,179.4 C245.1,179.4 245.1,230.4 245.1,230.4 C245.1,230.4 262.2107,261.5118 275.8307,286.2678 " fill="none" id="ListGreenSpacesByGSMController-to-GreenSpaceRepository" style="stroke:#181818;stroke-width:0.6;stroke-dasharray:7.0,7.0;"/><polygon fill="#181818" points="277.566,289.422,277.0658,283.5339,276.1199,286.7935,272.8603,285.8477,277.566,289.422" style="stroke:#181818;stroke-width:0.6;"/><text fill="#000000" font-family="sans-serif" font-size="7.8" lengthAdjust="spacing" textLength="78.6" x="245.7" y="208.217">greenSpaceRepository</text></g><!--link ListGreenSpacesByGSMController to AuthenticationRepository--><g id="link_ListGreenSpacesByGSMController_AuthenticationRepository"><path codeLine="100" d="M516.492,132.006 C518.34,153.858 520.5,179.4 520.5,179.4 C520.5,179.4 520.5,230.4 520.5,230.4 C520.5,230.4 507.3499,266.4973 498.3079,291.3253 " fill="none" id="ListGreenSpacesByGSMController-to-AuthenticationRepository" style="stroke:#181818;stroke-width:0.6;stroke-dasharray:7.0,7.0;"/><polygon fill="#181818" points="497.076,294.708,501.179,290.4553,498.1026,291.8891,496.6688,288.8127,497.076,294.708" style="stroke:#181818;stroke-width:0.6;"/><text fill="#000000" font-family="sans-serif" font-size="7.8" lengthAdjust="spacing" textLength="85.8" x="521.1" y="208.217">authenticationRepository</text></g><!--link AuthenticationRepository to UserSession--><g id="link_AuthenticationRepository_UserSession"><path codeLine="101" d="M489.9,335.274 C489.9,360.114 489.9,399.006 489.9,423.81 " fill="none" id="AuthenticationRepository-to-UserSession" style="stroke:#181818;stroke-width:0.6;stroke-dasharray:7.0,7.0;"/><polygon fill="#181818" points="489.9,427.41,492.3,422.01,489.9,424.41,487.5,422.01,489.9,427.41" style="stroke:#181818;stroke-width:0.6;"/></g><!--link Repositories to Repositories--><g id="link_Repositories_Repositories"><path codeLine="102" d="M462.942,197.172 C475.206,198.084 483.9,200.658 483.9,204.9 C483.9,209.142 478.7961,211.449 466.5321,212.361 " fill="none" id="Repositories-to-Repositories" style="stroke:#181818;stroke-width:0.6;"/><polygon fill="#181818" points="462.942,212.628,468.5051,214.6209,465.9337,212.4055,468.1491,209.8341,462.942,212.628" style="stroke:#181818;stroke-width:0.6;"/><text fill="#000000" font-family="sans-serif" font-size="7.8" lengthAdjust="spacing" textLength="29.4" x="487.5" y="208.217">instance</text></g><!--link Repositories to GreenSpaceRepository--><g id="link_Repositories_GreenSpaceRepository"><path codeLine="103" d="M374.52,230.484 C357.024,248.13 336.2011,269.124 318.6811,286.788 " fill="none" id="Repositories-to-GreenSpaceRepository" style="stroke:#181818;stroke-width:0.6;"/><polygon fill="#181818" points="316.146,289.344,321.6527,287.2001,318.2586,287.214,318.2447,283.8199,316.146,289.344" style="stroke:#181818;stroke-width:0.6;"/><text fill="#000000" font-family="sans-serif" font-size="7.8" lengthAdjust="spacing" textLength="4.2" x="315.5711" y="282.6616">1</text></g><!--link Repositories to AuthenticationRepository--><g id="link_Repositories_AuthenticationRepository"><path codeLine="104" d="M420.084,230.484 C436.332,250.014 456.302,274.0122 471.278,292.0182 " fill="none" id="Repositories-to-AuthenticationRepository" style="stroke:#181818;stroke-width:0.6;"/><polygon fill="#181818" points="473.58,294.786,471.9721,289.0996,471.6616,292.4795,468.2818,292.169,473.58,294.786" style="stroke:#181818;stroke-width:0.6;"/><text fill="#000000" font-family="sans-serif" font-size="7.8" lengthAdjust="spacing" textLength="4.2" x="465.8687" y="288.2158">1</text></g><!--link GreenSpaceRepository to GreenSpace--><g id="link_GreenSpaceRepository_GreenSpace"><path codeLine="105" d="M272.904,340.626 C260.694,357.228 246.4162,376.6474 231.7822,396.5554 " fill="none" id="GreenSpaceRepository-to-GreenSpace" style="stroke:#181818;stroke-width:0.6;"/><polygon fill="#181818" points="229.65,399.456,234.7821,396.5265,231.4268,397.0388,230.9145,393.6836,229.65,399.456" style="stroke:#181818;stroke-width:0.6;"/><text fill="#000000" font-family="sans-serif" font-size="7.8" lengthAdjust="spacing" textLength="3" x="229.7337" y="392.7802">*</text></g><!--link GreenSpace to GreenSpaceManager--><g id="link_GreenSpace_GreenSpaceManager"><path codeLine="106" d="M147.294,495.606 C127.554,515.346 107.9896,534.9104 91.4956,551.4044 " fill="none" id="GreenSpace-to-GreenSpaceManager" style="stroke:#181818;stroke-width:0.6;"/><polygon fill="#181818" points="88.95,553.95,94.4654,551.8287,91.0713,551.8287,91.0713,548.4346,88.95,553.95" style="stroke:#181818;stroke-width:0.6;"/><text fill="#000000" font-family="sans-serif" font-size="7.8" lengthAdjust="spacing" textLength="4.2" x="88.4077" y="547.2685">1</text></g><!--link GreenSpace to Address--><g id="link_GreenSpace_Address"><path codeLine="107" d="M194.7,495.606 C194.7,511.182 194.7,524.628 194.7,539.232 " fill="none" id="GreenSpace-to-Address" style="stroke:#181818;stroke-width:0.6;"/><polygon fill="#181818" points="194.7,542.832,197.1,537.432,194.7,539.832,192.3,537.432,194.7,542.832" style="stroke:#181818;stroke-width:0.6;"/><text fill="#000000" font-family="sans-serif" font-size="7.8" lengthAdjust="spacing" textLength="4.2" x="190.2572" y="536.2013">1</text></g><!--link GreenSpace to GreenSpaceType--><g id="link_GreenSpace_GreenSpaceType"><path codeLine="108" d="M237.54,495.606 C253.398,513.156 268.5344,529.9009 282.7064,545.5849 " fill="none" id="GreenSpace-to-GreenSpaceType" style="stroke:#181818;stroke-width:0.6;"/><polygon fill="#181818" points="285.12,548.256,283.2804,542.6403,283.1087,546.0301,279.7189,545.8584,285.12,548.256" style="stroke:#181818;stroke-width:0.6;"/><text fill="#000000" font-family="sans-serif" font-size="7.8" lengthAdjust="spacing" textLength="4.2" x="276.9049" y="541.5931">1</text></g><!--link GreenSpaceRepository to ApplicationSession--><g id="link_GreenSpaceRepository_ApplicationSession"><path codeLine="109" d="M309.924,340.626 C327.33,364.008 351.0169,395.8298 368.3929,419.1818 " fill="none" id="GreenSpaceRepository-to-ApplicationSession" style="stroke:#181818;stroke-width:0.6;stroke-dasharray:7.0,7.0;"/><polygon fill="#181818" points="370.542,422.07,369.2439,416.305,368.7511,419.6632,365.393,419.1704,370.542,422.07" style="stroke:#181818;stroke-width:0.6;"/></g><!--link ApplicationSession to SortingAlgorithm--><g id="link_ApplicationSession_SortingAlgorithm"><path codeLine="110" d="M419.1,473.148 C432.834,484.566 446.1,495.6 446.1,495.6 C446.1,495.6 522.9485,533.2155 573.3125,557.8635 " fill="none" id="ApplicationSession-to-SortingAlgorithm" style="stroke:#181818;stroke-width:0.6;"/><polygon fill="#181818" points="576.546,559.446,572.7507,554.9166,573.8514,558.1273,570.6407,559.228,576.546,559.446" style="stroke:#181818;stroke-width:0.6;"/><text fill="#000000" font-family="sans-serif" font-size="7.8" lengthAdjust="spacing" textLength="29.4" x="506.7" y="522.617">instance</text></g><!--link Algoritmo1 to SortingAlgorithm--><g id="link_Algoritmo1_SortingAlgorithm"><path codeLine="111" d="M616.5,473.112 C616.5,498.162 616.5,532.686 616.5,555.702 " fill="none" id="Algoritmo1-to-SortingAlgorithm" style="stroke:#181818;stroke-width:0.6;stroke-dasharray:7.0,7.0;"/><polygon fill="#181818" points="616.5,559.302,618.9,553.902,616.5,556.302,614.1,553.902,616.5,559.302" style="stroke:#181818;stroke-width:0.6;"/></g><!--link Algoritmo2 to SortingAlgorithm--><g id="link_Algoritmo2_SortingAlgorithm"><path codeLine="112" d="M750.564,473.112 C718.842,498.162 673.4031,534.0547 644.2611,557.0707 " fill="none" id="Algoritmo2-to-SortingAlgorithm" style="stroke:#181818;stroke-width:0.6;stroke-dasharray:7.0,7.0;"/><polygon fill="#181818" points="641.436,559.302,647.1612,557.8385,643.7903,557.4426,644.1862,554.0717,641.436,559.302" style="stroke:#181818;stroke-width:0.6;"/></g><!--link ListGreenSpacesByGSMController to GreenSpaceMapper--><g id="link_ListGreenSpacesByGSMController_GreenSpaceMapper"><path codeLine="113" d="M578.412,132.132 C610.05,147.204 644.4138,163.578 674.2458,177.786 " fill="none" id="ListGreenSpacesByGSMController-to-GreenSpaceMapper" style="stroke:#181818;stroke-width:0.6;stroke-dasharray:7.0,7.0;"/><polygon fill="#181818" points="677.496,179.334,673.6527,174.8453,674.7875,178.044,671.5887,179.1789,677.496,179.334" style="stroke:#181818;stroke-width:0.6;"/></g><!--link GreenSpaceMapper to GreenSpaceDTO--><g id="link_GreenSpaceMapper_GreenSpaceDTO"><path codeLine="114" d="M729.9,230.484 C729.9,241.284 729.9,250.698 729.9,263.22 " fill="none" id="GreenSpaceMapper-to-GreenSpaceDTO" style="stroke:#181818;stroke-width:0.6;stroke-dasharray:7.0,7.0;"/><polygon fill="#181818" points="729.9,266.82,732.3,261.42,729.9,263.82,727.5,261.42,729.9,266.82" style="stroke:#181818;stroke-width:0.6;"/></g><!--SRC=[lLPBRzim3BxhLmYzp5sJOjqn1GQuJHO4QxOXRY-x5AhDE49joP0K3Ewm_pv9VicEdAROi5mIaHy_FaHIaS-K5KIG71SaVYOfHAhC00k85M5f1aYs0BaZ2Vz9MOgt99Ek9gCCL5a0BdXMcWDob756f0oL4lHfhs0LSnRH5y0V47gNmLPXnR6WwKxXX1glb3E4h0s-er8j1G2BT6mWRyfbj7vOuL_ezp74BMTAy2m3eP5OVowEemAoLpjWYiR4EDz0mILLN9GJdBP6dVJSSavJK9hbi-1v159gkw1IN4Wkb74ul_zsKuPPoWLLkrnhsw2N7jOcL4FRgWsD3JP8PUwu6dXotGo17gUrgscaRqJV9ICvL88mIOIsmwJwheITtRsvO7FBbIBX-oVTA4G06IBbcZ3TISAfNoEg8k-WWN4_QLnEBF_4aauyrjvyQbq_AyW9pOREQcHWbGvNdNYVGIfjftgY5rh4F86UBAQghFpKB46TIoW4AQqJOFiSz-jOkLg6c_dYg_svNinN3-l7QFLZCN_y7cw-MEbTk5akN64RSjiv5AIlTRhE2iwlMtquqka6qrLZ1EIqwErU20rva22wxcy97B5ZOwIhn3y7UbQET6NTbF-j9tKqRLl-HLSMHRU15DUaPbO3nzoSwr7kfFS6wQ3SDYsAhBwLVddDCd8tJLFoI2y8NSp14g9CWTYQHJ3KDz6QnHBaDhbaEOot2wSoo_dLINOsq6PblO7zuxzbHoEFokNbfrTU4_JAOsCOtB6SwKUqEvrYxHlVcVSHEeLjR8vdUEp1GwEZR_YSiKPkddWw7IPEcTJ_7c8un9rTdNdJz2F7ua7U9zHQlNVv7Pp7UpF-7b2zou_Rc-NZZyIM_s1QaMU03Ujm39twEJDcE8T8v4o9L_-cfgjM5ZhOONsKNa_e3m00]--></g></svg>