<?xml version="1.0" encoding="us-ascii" standalone="no"?><svg xmlns="http://www.w3.org/2000/svg" xmlns:xlink="http://www.w3.org/1999/xlink" contentStyleType="text/css" height="582.4px" preserveAspectRatio="none" style="width:975px;height:582px;background:#FFFFFF;" version="1.1" viewBox="0 0 975 582" width="975.1px" zoomAndPan="magnify"><defs/><g><rect fill="#FFFFFF" height="420.5811" style="stroke:#181818;stroke-width:0.6999999999999998;" width="7" x="33.95" y="78.5695"/><rect fill="#FFFFFF" height="404.2773" style="stroke:#181818;stroke-width:0.6999999999999998;" width="7" x="267.05" y="94.8732"/><rect fill="#FFFFFF" height="360.4699" style="stroke:#181818;stroke-width:0.6999999999999998;" width="7" x="447.65" y="116.777"/><rect fill="#FFFFFF" height="63.3801" style="stroke:#181818;stroke-width:0.6999999999999998;" width="7" x="451.15" y="144.2807"/><rect fill="#FFFFFF" height="21.9037" style="stroke:#181818;stroke-width:0.6999999999999998;" width="7" x="571.2" y="234.4645"/><rect fill="#FFFFFF" height="21.9037" style="stroke:#181818;stroke-width:0.6999999999999998;" width="7" x="646.1" y="278.2719"/><rect fill="#FFFFFF" height="55.6801" style="stroke:#181818;stroke-width:0.6999999999999998;" width="7" x="744.1" y="322.0793"/><rect fill="#FFFFFF" height="55.6801" style="stroke:#181818;stroke-width:0.6999999999999998;" width="7" x="859.25" y="399.6631"/><line style="stroke:#181818;stroke-width:0.3499999999999999;stroke-dasharray:5.0,5.0;" x1="37.1" x2="37.1" y1="71.5695" y2="511.7506"/><line style="stroke:#181818;stroke-width:0.3499999999999999;stroke-dasharray:5.0,5.0;" x1="270.55" x2="270.55" y1="71.5695" y2="511.7506"/><line style="stroke:#181818;stroke-width:0.3499999999999999;stroke-dasharray:5.0,5.0;" x1="451.15" x2="451.15" y1="71.5695" y2="511.7506"/><line style="stroke:#181818;stroke-width:0.3499999999999999;stroke-dasharray:5.0,5.0;" x1="574.35" x2="574.35" y1="71.5695" y2="511.7506"/><line style="stroke:#181818;stroke-width:0.3499999999999999;stroke-dasharray:5.0,5.0;" x1="649.25" x2="649.25" y1="71.5695" y2="511.7506"/><line style="stroke:#181818;stroke-width:0.3499999999999999;stroke-dasharray:5.0,5.0;" x1="747.25" x2="747.25" y1="71.5695" y2="511.7506"/><line style="stroke:#181818;stroke-width:0.3499999999999999;stroke-dasharray:5.0,5.0;" x1="862.75" x2="862.75" y1="71.5695" y2="511.7506"/><text fill="#000000" font-family="sans-serif" font-size="9.8" lengthAdjust="spacing" textLength="63.7" x="3.5" y="56.0752">Green Spaces</text><text fill="#000000" font-family="sans-serif" font-size="9.8" lengthAdjust="spacing" textLength="39.2" x="15.75" y="69.11">Manager</text><ellipse cx="37.45" cy="9.45" fill="#E3E3E3" rx="5.6" ry="5.6" style="stroke:#181818;stroke-width:0.3499999999999999;"/><path d="M37.45,15.05 L37.45,33.95 M28.35,20.65 L46.55,20.65 M37.45,33.95 L28.35,44.45 M37.45,33.95 L46.55,44.45 " fill="none" style="stroke:#181818;stroke-width:0.3499999999999999;"/><text fill="#000000" font-family="sans-serif" font-size="9.8" lengthAdjust="spacing" textLength="63.7" x="3.5" y="521.6258">Green Spaces</text><text fill="#000000" font-family="sans-serif" font-size="9.8" lengthAdjust="spacing" textLength="39.2" x="15.75" y="534.6605">Manager</text><ellipse cx="37.45" cy="543.0701" fill="#E3E3E3" rx="5.6" ry="5.6" style="stroke:#181818;stroke-width:0.3499999999999999;"/><path d="M37.45,548.6701 L37.45,567.5701 M28.35,554.2701 L46.55,554.2701 M37.45,567.5701 L28.35,578.0701 M37.45,567.5701 L46.55,578.0701 " fill="none" style="stroke:#181818;stroke-width:0.3499999999999999;"/><rect fill="#E3E3E3" height="22.8348" rx="1.75" ry="1.75" style="stroke:#181818;stroke-width:0.3499999999999999;" width="130.2" x="205.45" y="48.0348"/><text fill="#000000" font-family="sans-serif" font-size="9.8" lengthAdjust="spacing" textLength="120.4" x="210.35" y="63.51">:ListGreenSpacesByGSMUI</text><rect fill="#E3E3E3" height="22.8348" rx="1.75" ry="1.75" style="stroke:#181818;stroke-width:0.3499999999999999;" width="130.2" x="205.45" y="511.0506"/><text fill="#000000" font-family="sans-serif" font-size="9.8" lengthAdjust="spacing" textLength="120.4" x="210.35" y="526.5258">:ListGreenSpacesByGSMUI</text><rect fill="#E3E3E3" height="22.8348" rx="1.75" ry="1.75" style="stroke:#181818;stroke-width:0.3499999999999999;" width="165.2" x="368.55" y="48.0348"/><text fill="#000000" font-family="sans-serif" font-size="9.8" lengthAdjust="spacing" textLength="155.4" x="373.45" y="63.51">:ListGreenSpacesByGSMController</text><rect fill="#E3E3E3" height="22.8348" rx="1.75" ry="1.75" style="stroke:#181818;stroke-width:0.3499999999999999;" width="165.2" x="368.55" y="511.0506"/><text fill="#000000" font-family="sans-serif" font-size="9.8" lengthAdjust="spacing" textLength="155.4" x="373.45" y="526.5258">:ListGreenSpacesByGSMController</text><rect fill="#E3E3E3" height="22.8348" rx="1.75" ry="1.75" style="stroke:#181818;stroke-width:0.3499999999999999;" width="67.9" x="540.75" y="48.0348"/><text fill="#000000" font-family="sans-serif" font-size="9.8" lengthAdjust="spacing" textLength="58.1" x="545.65" y="63.51">:Repositories</text><rect fill="#E3E3E3" height="22.8348" rx="1.75" ry="1.75" style="stroke:#181818;stroke-width:0.3499999999999999;" width="67.9" x="540.75" y="511.0506"/><text fill="#000000" font-family="sans-serif" font-size="9.8" lengthAdjust="spacing" textLength="58.1" x="545.65" y="526.5258">:Repositories</text><rect fill="#E3E3E3" height="35.8695" rx="1.75" ry="1.75" style="stroke:#181818;stroke-width:0.3499999999999999;" width="67.9" x="615.65" y="35"/><text fill="#000000" font-family="sans-serif" font-size="9.8" lengthAdjust="spacing" textLength="51.8" x="623.7" y="50.4752">repositories</text><text fill="#000000" font-family="sans-serif" font-size="9.8" lengthAdjust="spacing" textLength="58.1" x="620.55" y="63.51">:Repositories</text><rect fill="#E3E3E3" height="35.8695" rx="1.75" ry="1.75" style="stroke:#181818;stroke-width:0.3499999999999999;" width="67.9" x="615.65" y="511.0506"/><text fill="#000000" font-family="sans-serif" font-size="9.8" lengthAdjust="spacing" textLength="51.8" x="623.7" y="526.5258">repositories</text><text fill="#000000" font-family="sans-serif" font-size="9.8" lengthAdjust="spacing" textLength="58.1" x="620.55" y="539.5605">:Repositories</text><rect fill="#E3E3E3" height="35.8695" rx="1.75" ry="1.75" style="stroke:#181818;stroke-width:0.3499999999999999;" width="114.1" x="690.55" y="35"/><text fill="#000000" font-family="sans-serif" font-size="9.8" lengthAdjust="spacing" textLength="104.3" x="695.45" y="50.4752">greenSpaceRepository:</text><text fill="#000000" font-family="sans-serif" font-size="9.8" lengthAdjust="spacing" textLength="103.6" x="695.8" y="63.51">GreenSpaceRepository</text><rect fill="#E3E3E3" height="35.8695" rx="1.75" ry="1.75" style="stroke:#181818;stroke-width:0.3499999999999999;" width="114.1" x="690.55" y="511.0506"/><text fill="#000000" font-family="sans-serif" font-size="9.8" lengthAdjust="spacing" textLength="104.3" x="695.45" y="526.5258">greenSpaceRepository:</text><text fill="#000000" font-family="sans-serif" font-size="9.8" lengthAdjust="spacing" textLength="103.6" x="695.8" y="539.5605">GreenSpaceRepository</text><rect fill="#E3E3E3" height="22.8348" rx="1.75" ry="1.75" style="stroke:#181818;stroke-width:0.3499999999999999;" width="102.2" x="811.65" y="48.0348"/><text fill="#000000" font-family="sans-serif" font-size="9.8" lengthAdjust="spacing" textLength="92.4" x="816.55" y="63.51">:GreenSpaceMapper</text><rect fill="#E3E3E3" height="22.8348" rx="1.75" ry="1.75" style="stroke:#181818;stroke-width:0.3499999999999999;" width="102.2" x="811.65" y="511.0506"/><text fill="#000000" font-family="sans-serif" font-size="9.8" lengthAdjust="spacing" textLength="92.4" x="816.55" y="526.5258">:GreenSpaceMapper</text><rect fill="#FFFFFF" height="420.5811" style="stroke:#181818;stroke-width:0.6999999999999998;" width="7" x="33.95" y="78.5695"/><rect fill="#FFFFFF" height="404.2773" style="stroke:#181818;stroke-width:0.6999999999999998;" width="7" x="267.05" y="94.8732"/><rect fill="#FFFFFF" height="360.4699" style="stroke:#181818;stroke-width:0.6999999999999998;" width="7" x="447.65" y="116.777"/><rect fill="#FFFFFF" height="63.3801" style="stroke:#181818;stroke-width:0.6999999999999998;" width="7" x="451.15" y="144.2807"/><rect fill="#FFFFFF" height="21.9037" style="stroke:#181818;stroke-width:0.6999999999999998;" width="7" x="571.2" y="234.4645"/><rect fill="#FFFFFF" height="21.9037" style="stroke:#181818;stroke-width:0.6999999999999998;" width="7" x="646.1" y="278.2719"/><rect fill="#FFFFFF" height="55.6801" style="stroke:#181818;stroke-width:0.6999999999999998;" width="7" x="744.1" y="322.0793"/><rect fill="#FFFFFF" height="55.6801" style="stroke:#181818;stroke-width:0.6999999999999998;" width="7" x="859.25" y="399.6631"/><polygon fill="#181818" points="258.65,92.0732,265.65,94.8732,258.65,97.6732,261.45,94.8732" style="stroke:#181818;stroke-width:0.6999999999999998;"/><line style="stroke:#181818;stroke-width:0.6999999999999998;" x1="40.95" x2="262.85" y1="94.8732" y2="94.8732"/><text fill="#000000" font-family="sans-serif" font-size="9.1" font-weight="bold" lengthAdjust="spacing" textLength="4.9" x="45.85" y="91.1894">1</text><text fill="#000000" font-family="sans-serif" font-size="9.1" lengthAdjust="spacing" textLength="205.1" x="53.55" y="91.1894">requests to consult green spaces managed by him</text><polygon fill="#181818" points="439.25,113.977,446.25,116.777,439.25,119.577,442.05,116.777" style="stroke:#181818;stroke-width:0.6999999999999998;"/><line style="stroke:#181818;stroke-width:0.6999999999999998;" x1="274.05" x2="443.45" y1="116.777" y2="116.777"/><text fill="#000000" font-family="sans-serif" font-size="9.1" font-weight="bold" lengthAdjust="spacing" textLength="4.9" x="278.95" y="113.0931">2</text><text fill="#000000" font-family="sans-serif" font-size="9.1" lengthAdjust="spacing" textLength="103.6" x="286.65" y="113.0931">sortListDTOByAlgorithm()</text><line style="stroke:#181818;stroke-width:0.6999999999999998;" x1="454.65" x2="487.55" y1="135.1807" y2="135.1807"/><line style="stroke:#181818;stroke-width:0.6999999999999998;" x1="487.55" x2="487.55" y1="135.1807" y2="144.2807"/><line style="stroke:#181818;stroke-width:0.6999999999999998;" x1="458.85" x2="487.55" y1="144.2807" y2="144.2807"/><polygon fill="#181818" points="465.85,141.4807,458.85,144.2807,465.85,147.0807,463.05,144.2807" style="stroke:#181818;stroke-width:0.6999999999999998;"/><text fill="#000000" font-family="sans-serif" font-size="9.1" font-weight="bold" lengthAdjust="spacing" textLength="4.9" x="463.05" y="131.4968">3</text><text fill="#000000" font-family="sans-serif" font-size="9.1" lengthAdjust="spacing" textLength="93.1" x="470.75" y="131.4968">getGSMFromSession()</text><rect fill="none" height="30.2764" style="stroke:#000000;stroke-width:1.0499999999999998;" width="169.4" x="366.45" y="153.3807"/><path d="M366.45,153.3807 L409.85,153.3807 L409.85,159.6807 L402.85,166.6807 L366.45,166.6807 L366.45,153.3807 " fill="#EEEEEE" style="stroke:#000000;stroke-width:1.3999999999999997;"/><text fill="#000000" font-family="sans-serif" font-size="9.1" font-weight="bold" lengthAdjust="spacing" textLength="11.9" x="375.55" y="164.6005">ref</text><text fill="#000000" font-family="sans-serif" font-size="8.4" lengthAdjust="spacing" textLength="86.8" x="407.75" y="178.5451">Get GSM from session</text><line style="stroke:#181818;stroke-width:0.6999999999999998;stroke-dasharray:2.0,2.0;" x1="458.15" x2="487.55" y1="206.9607" y2="206.9607"/><line style="stroke:#181818;stroke-width:0.6999999999999998;stroke-dasharray:2.0,2.0;" x1="487.55" x2="487.55" y1="206.9607" y2="216.0607"/><line style="stroke:#181818;stroke-width:0.6999999999999998;stroke-dasharray:2.0,2.0;" x1="454.65" x2="487.55" y1="216.0607" y2="216.0607"/><polygon fill="#181818" points="461.65,213.2607,454.65,216.0607,461.65,218.8607,458.85,216.0607" style="stroke:#181818;stroke-width:0.6999999999999998;"/><text fill="#000000" font-family="sans-serif" font-size="9.1" font-weight="bold" lengthAdjust="spacing" textLength="4.9" x="463.05" y="203.2769">4</text><text fill="#000000" font-family="sans-serif" font-size="9.1" lengthAdjust="spacing" textLength="71.4" x="470.75" y="203.2769">gsmFromSession</text><polygon fill="#181818" points="562.8,231.6645,569.8,234.4645,562.8,237.2645,565.6,234.4645" style="stroke:#181818;stroke-width:0.6999999999999998;"/><line style="stroke:#181818;stroke-width:0.6999999999999998;" x1="454.65" x2="567" y1="234.4645" y2="234.4645"/><text fill="#000000" font-family="sans-serif" font-size="9.1" font-weight="bold" lengthAdjust="spacing" textLength="4.9" x="459.55" y="230.7806">5</text><text fill="#000000" font-family="sans-serif" font-size="9.1" lengthAdjust="spacing" textLength="52.5" x="467.25" y="230.7806">getInstance()</text><polygon fill="#181818" points="462.35,253.5682,455.35,256.3682,462.35,259.1682,459.55,256.3682" style="stroke:#181818;stroke-width:0.6999999999999998;"/><line style="stroke:#181818;stroke-width:0.6999999999999998;stroke-dasharray:2.0,2.0;" x1="458.15" x2="574" y1="256.3682" y2="256.3682"/><text fill="#000000" font-family="sans-serif" font-size="9.1" font-weight="bold" lengthAdjust="spacing" textLength="4.9" x="466.55" y="252.6843">6</text><text fill="#000000" font-family="sans-serif" font-size="9.1" lengthAdjust="spacing" textLength="46.9" x="474.25" y="252.6843">repositories</text><polygon fill="#181818" points="637.7,275.4719,644.7,278.2719,637.7,281.0719,640.5,278.2719" style="stroke:#181818;stroke-width:0.6999999999999998;"/><line style="stroke:#181818;stroke-width:0.6999999999999998;" x1="454.65" x2="641.9" y1="278.2719" y2="278.2719"/><text fill="#000000" font-family="sans-serif" font-size="9.1" font-weight="bold" lengthAdjust="spacing" textLength="4.9" x="459.55" y="274.588">7</text><text fill="#000000" font-family="sans-serif" font-size="9.1" lengthAdjust="spacing" textLength="112" x="467.25" y="274.588">getGreenSpaceRepository()</text><polygon fill="#181818" points="462.35,297.3756,455.35,300.1756,462.35,302.9756,459.55,300.1756" style="stroke:#181818;stroke-width:0.6999999999999998;"/><line style="stroke:#181818;stroke-width:0.6999999999999998;stroke-dasharray:2.0,2.0;" x1="458.15" x2="648.9" y1="300.1756" y2="300.1756"/><text fill="#000000" font-family="sans-serif" font-size="9.1" font-weight="bold" lengthAdjust="spacing" textLength="4.9" x="466.55" y="296.4917">8</text><text fill="#000000" font-family="sans-serif" font-size="9.1" lengthAdjust="spacing" textLength="91.7" x="474.25" y="296.4917">greenSpaceRepository</text><polygon fill="#181818" points="735.7,319.2793,742.7,322.0793,735.7,324.8793,738.5,322.0793" style="stroke:#181818;stroke-width:0.6999999999999998;"/><line style="stroke:#181818;stroke-width:0.6999999999999998;" x1="454.65" x2="739.9" y1="322.0793" y2="322.0793"/><text fill="#000000" font-family="sans-serif" font-size="9.1" font-weight="bold" lengthAdjust="spacing" textLength="4.9" x="459.55" y="318.3954">9</text><text fill="#000000" font-family="sans-serif" font-size="9.1" lengthAdjust="spacing" textLength="156.8" x="467.25" y="318.3954">sortListByAlgorithm(gsmFromSession)</text><rect fill="none" height="30.2764" style="stroke:#000000;stroke-width:1.0499999999999998;" width="118.3" x="688.45" y="327.6793"/><path d="M688.45,327.6793 L731.85,327.6793 L731.85,333.9793 L724.85,340.9793 L688.45,340.9793 L688.45,327.6793 " fill="#EEEEEE" style="stroke:#000000;stroke-width:1.3999999999999997;"/><text fill="#000000" font-family="sans-serif" font-size="9.1" font-weight="bold" lengthAdjust="spacing" textLength="11.9" x="697.55" y="338.8991">ref</text><text fill="#000000" font-family="sans-serif" font-size="8.4" lengthAdjust="spacing" textLength="81.2" x="707" y="352.8437">Sort List By Algorithm</text><polygon fill="#181818" points="462.35,374.9594,455.35,377.7594,462.35,380.5594,459.55,377.7594" style="stroke:#181818;stroke-width:0.6999999999999998;"/><line style="stroke:#181818;stroke-width:0.6999999999999998;stroke-dasharray:2.0,2.0;" x1="458.15" x2="746.9" y1="377.7594" y2="377.7594"/><text fill="#000000" font-family="sans-serif" font-size="9.1" font-weight="bold" lengthAdjust="spacing" textLength="9.8" x="466.55" y="374.0755">10</text><text fill="#000000" font-family="sans-serif" font-size="9.1" lengthAdjust="spacing" textLength="127.4" x="479.15" y="374.0755">sortedGreenSpacesListByGSM</text><polygon fill="#181818" points="850.85,396.8631,857.85,399.6631,850.85,402.4631,853.65,399.6631" style="stroke:#181818;stroke-width:0.6999999999999998;"/><line style="stroke:#181818;stroke-width:0.6999999999999998;" x1="454.65" x2="855.05" y1="399.6631" y2="399.6631"/><text fill="#000000" font-family="sans-serif" font-size="9.1" font-weight="bold" lengthAdjust="spacing" textLength="9.8" x="459.55" y="395.9792">11</text><text fill="#000000" font-family="sans-serif" font-size="9.1" lengthAdjust="spacing" textLength="173.6" x="472.15" y="395.9792">toDTOList(sortedGreenSpacesListByGSM)</text><rect fill="none" height="30.2764" style="stroke:#000000;stroke-width:1.0499999999999998;" width="161.7" x="809.55" y="405.2631"/><path d="M809.55,405.2631 L852.95,405.2631 L852.95,411.5631 L845.95,418.5631 L809.55,418.5631 L809.55,405.2631 " fill="#EEEEEE" style="stroke:#000000;stroke-width:1.3999999999999997;"/><text fill="#000000" font-family="sans-serif" font-size="9.1" font-weight="bold" lengthAdjust="spacing" textLength="11.9" x="818.65" y="416.4829">ref</text><text fill="#000000" font-family="sans-serif" font-size="8.4" lengthAdjust="spacing" textLength="156.1" x="812.35" y="430.4275">Get Sorted Green Space By GSM Dto List</text><polygon fill="#181818" points="462.35,452.5432,455.35,455.3432,462.35,458.1432,459.55,455.3432" style="stroke:#181818;stroke-width:0.6999999999999998;"/><line style="stroke:#181818;stroke-width:0.6999999999999998;stroke-dasharray:2.0,2.0;" x1="458.15" x2="862.05" y1="455.3432" y2="455.3432"/><text fill="#000000" font-family="sans-serif" font-size="9.1" font-weight="bold" lengthAdjust="spacing" textLength="9.8" x="466.55" y="451.6593">12</text><text fill="#000000" font-family="sans-serif" font-size="9.1" lengthAdjust="spacing" textLength="144.2" x="479.15" y="451.6593">sortedGreenSpacesListByGsmDTO</text><polygon fill="#181818" points="281.75,474.4469,274.75,477.2469,281.75,480.0469,278.95,477.2469" style="stroke:#181818;stroke-width:0.6999999999999998;"/><line style="stroke:#181818;stroke-width:0.6999999999999998;stroke-dasharray:2.0,2.0;" x1="277.55" x2="450.45" y1="477.2469" y2="477.2469"/><text fill="#000000" font-family="sans-serif" font-size="9.1" font-weight="bold" lengthAdjust="spacing" textLength="9.8" x="285.95" y="473.563">13</text><text fill="#000000" font-family="sans-serif" font-size="9.1" lengthAdjust="spacing" textLength="144.2" x="298.55" y="473.563">sortedGreenSpacesListByGsmDTO</text><polygon fill="#181818" points="45.15,496.3506,38.15,499.1506,45.15,501.9506,42.35,499.1506" style="stroke:#181818;stroke-width:0.6999999999999998;"/><line style="stroke:#181818;stroke-width:0.6999999999999998;stroke-dasharray:2.0,2.0;" x1="40.95" x2="269.85" y1="499.1506" y2="499.1506"/><text fill="#000000" font-family="sans-serif" font-size="9.1" font-weight="bold" lengthAdjust="spacing" textLength="9.8" x="49.35" y="495.4667">14</text><text fill="#000000" font-family="sans-serif" font-size="9.1" lengthAdjust="spacing" textLength="63.7" x="61.95" y="495.4667">displays the list</text><!--SRC=[bLN1ZjiW4BtxAqQvT7le3_XGgTbjeqWRjGgxjro8FR7Hsk02sTP_tm4d12TudN9AXiURDuzXRDw4xBZcBRHAggBMgaMm-eYP2JiTBzvuXSps3OB6md9PDJ70rBnKVuIiuC0RWrd6ZrR9Oxj7dMMVQb4Y79IoU_KtuuLL6XOhZIY14JEQdTnmIVnw0Tp0YcqoOhMY41sN5XRvip3MumVuiYV8wzg3NzTtO1-Lj5erpId1uyls-UhK5Zjb10aJQ3nc-_tN6A8Zn4uc3x3nYIge2E0-tybL8kmPKlWhcPUp6zvrftAggs3cB1RltAAtCWDQz0E-V2Mt8AVx-tr4OmrO1OMIvjZOWGECjmnQVnabx7keHUlF1qRosmVS8ZRYT6xcO9Isplgdbv_B_bjJaJ6sRXy-1t1WyEw7i5ikSc6gq9BQ7zI638qHIaOaCqHkQJo0UaSzR4DYhT1wFmwK0ioGumQ8idHKAQ4NfQQDP8wG9TvHBxMCBtSj3Jse0gSATRqusg5092Fkp2aHDnIH1ZPudkY-3mIn6qKiTYRLojFIM5fRyW65JelRR7mJ4wgJegRxPxQ6ys8a29mYMFOGDDtNKQaaaO-kLYoZSJOKxfxrX9lpHTwwEuoDdEO1lLwNuM4wxwotvnbqXwydwDGRPLu4H1yAPx1xkKyqkPoY__LuI1ZyXMc3JKjMp7jyNMmO47xGtaUU71Lkj1ADApQ7KfYkuJqDx1gXETSTdND3EVhhskCV]--></g></svg>