<?xml version="1.0" encoding="us-ascii" standalone="no"?><svg xmlns="http://www.w3.org/2000/svg" xmlns:xlink="http://www.w3.org/1999/xlink" contentStyleType="text/css" height="491px" preserveAspectRatio="none" style="width:1219px;height:491px;background:#FFFFFF;" version="1.1" viewBox="0 0 1219 491" width="1219px" zoomAndPan="magnify"><defs/><g><rect fill="#FFFFFF" height="330.416" style="stroke:#181818;stroke-width:1.0;" width="10" x="400" y="84.2871"/><rect fill="#FFFFFF" height="29.3105" style="stroke:#181818;stroke-width:1.0;" width="10" x="551.5" y="137.9082"/><rect fill="#FFFFFF" height="58.3105" style="stroke:#181818;stroke-width:1.0;" width="10" x="661.5" y="372.3926"/><rect fill="#FFFFFF" height="29.3105" style="stroke:#181818;stroke-width:1.0;" width="10" x="771.5" y="196.5293"/><rect fill="#FFFFFF" height="29.3105" style="stroke:#181818;stroke-width:1.0;" width="10" x="928" y="255.1504"/><rect fill="#FFFFFF" height="29.3105" style="stroke:#181818;stroke-width:1.0;" width="10" x="1115.5" y="313.7715"/><rect fill="none" height="281.1055" style="stroke:#000000;stroke-width:1.5;" width="908" x="305" y="99.2871"/><line style="stroke:#181818;stroke-width:0.5;stroke-dasharray:5.0,5.0;" x1="405" x2="405" y1="52.9766" y2="439.7031"/><line style="stroke:#181818;stroke-width:0.5;stroke-dasharray:5.0,5.0;" x1="556" x2="556" y1="52.9766" y2="439.7031"/><line style="stroke:#181818;stroke-width:0.5;stroke-dasharray:5.0,5.0;" x1="666" x2="666" y1="52.9766" y2="439.7031"/><line style="stroke:#181818;stroke-width:0.5;stroke-dasharray:5.0,5.0;" x1="776" x2="776" y1="52.9766" y2="439.7031"/><line style="stroke:#181818;stroke-width:0.5;stroke-dasharray:5.0,5.0;" x1="933" x2="933" y1="52.9766" y2="439.7031"/><line style="stroke:#181818;stroke-width:0.5;stroke-dasharray:5.0,5.0;" x1="1120" x2="1120" y1="52.9766" y2="439.7031"/><rect fill="#E3E3E3" height="30.4883" rx="2.5" ry="2.5" style="stroke:#181818;stroke-width:0.5;" width="180" x="315" y="21.4883"/><text fill="#000000" font-family="sans-serif" font-size="14" lengthAdjust="spacing" textLength="166" x="322" y="42.0234">:ConsultTasksController</text><rect fill="#E3E3E3" height="30.4883" rx="2.5" ry="2.5" style="stroke:#181818;stroke-width:0.5;" width="180" x="315" y="438.7031"/><text fill="#000000" font-family="sans-serif" font-size="14" lengthAdjust="spacing" textLength="166" x="322" y="459.2383">:ConsultTasksController</text><rect fill="#E3E3E3" height="30.4883" rx="2.5" ry="2.5" style="stroke:#181818;stroke-width:0.5;" width="103" x="505" y="21.4883"/><text fill="#000000" font-family="sans-serif" font-size="14" lengthAdjust="spacing" textLength="89" x="512" y="42.0234">:Repositories</text><rect fill="#E3E3E3" height="30.4883" rx="2.5" ry="2.5" style="stroke:#181818;stroke-width:0.5;" width="103" x="505" y="438.7031"/><text fill="#000000" font-family="sans-serif" font-size="14" lengthAdjust="spacing" textLength="89" x="512" y="459.2383">:Repositories</text><rect fill="#E3E3E3" height="46.9766" rx="2.5" ry="2.5" style="stroke:#181818;stroke-width:0.5;" width="97" x="618" y="5"/><text fill="#000000" font-family="sans-serif" font-size="14" lengthAdjust="spacing" textLength="34" x="649.5" y="25.5352">user:</text><text fill="#000000" font-family="sans-serif" font-size="14" lengthAdjust="spacing" textLength="83" x="625" y="42.0234">UserSession</text><rect fill="#E3E3E3" height="46.9766" rx="2.5" ry="2.5" style="stroke:#181818;stroke-width:0.5;" width="97" x="618" y="438.7031"/><text fill="#000000" font-family="sans-serif" font-size="14" lengthAdjust="spacing" textLength="34" x="649.5" y="459.2383">user:</text><text fill="#000000" font-family="sans-serif" font-size="14" lengthAdjust="spacing" textLength="83" x="625" y="475.7266">UserSession</text><rect fill="#E3E3E3" height="46.9766" rx="2.5" ry="2.5" style="stroke:#181818;stroke-width:0.5;" width="103" x="725" y="5"/><text fill="#000000" font-family="sans-serif" font-size="14" lengthAdjust="spacing" textLength="82" x="735.5" y="25.5352">repositories</text><text fill="#000000" font-family="sans-serif" font-size="14" lengthAdjust="spacing" textLength="89" x="732" y="42.0234">:Repositories</text><rect fill="#E3E3E3" height="46.9766" rx="2.5" ry="2.5" style="stroke:#181818;stroke-width:0.5;" width="103" x="725" y="438.7031"/><text fill="#000000" font-family="sans-serif" font-size="14" lengthAdjust="spacing" textLength="82" x="735.5" y="459.2383">repositories</text><text fill="#000000" font-family="sans-serif" font-size="14" lengthAdjust="spacing" textLength="89" x="732" y="475.7266">:Repositories</text><rect fill="#E3E3E3" height="46.9766" rx="2.5" ry="2.5" style="stroke:#181818;stroke-width:0.5;" width="190" x="838" y="5"/><text fill="#000000" font-family="sans-serif" font-size="14" lengthAdjust="spacing" textLength="176" x="845" y="25.5352">authenticationRepository:</text><text fill="#000000" font-family="sans-serif" font-size="14" lengthAdjust="spacing" textLength="174" x="846" y="42.0234">AuthenticationRepository</text><rect fill="#E3E3E3" height="46.9766" rx="2.5" ry="2.5" style="stroke:#181818;stroke-width:0.5;" width="190" x="838" y="438.7031"/><text fill="#000000" font-family="sans-serif" font-size="14" lengthAdjust="spacing" textLength="176" x="845" y="459.2383">authenticationRepository:</text><text fill="#000000" font-family="sans-serif" font-size="14" lengthAdjust="spacing" textLength="174" x="846" y="475.7266">AuthenticationRepository</text><rect fill="#E3E3E3" height="46.9766" rx="2.5" ry="2.5" style="stroke:#181818;stroke-width:0.5;" width="165" x="1038" y="5"/><text fill="#000000" font-family="sans-serif" font-size="14" lengthAdjust="spacing" textLength="151" x="1045" y="25.5352">authenticationFacade:</text><text fill="#000000" font-family="sans-serif" font-size="14" lengthAdjust="spacing" textLength="81" x="1080" y="42.0234">AuthFacade</text><rect fill="#E3E3E3" height="46.9766" rx="2.5" ry="2.5" style="stroke:#181818;stroke-width:0.5;" width="165" x="1038" y="438.7031"/><text fill="#000000" font-family="sans-serif" font-size="14" lengthAdjust="spacing" textLength="151" x="1045" y="459.2383">authenticationFacade:</text><text fill="#000000" font-family="sans-serif" font-size="14" lengthAdjust="spacing" textLength="81" x="1080" y="475.7266">AuthFacade</text><rect fill="#FFFFFF" height="330.416" style="stroke:#181818;stroke-width:1.0;" width="10" x="400" y="84.2871"/><rect fill="#FFFFFF" height="29.3105" style="stroke:#181818;stroke-width:1.0;" width="10" x="551.5" y="137.9082"/><rect fill="#FFFFFF" height="58.3105" style="stroke:#181818;stroke-width:1.0;" width="10" x="661.5" y="372.3926"/><rect fill="#FFFFFF" height="29.3105" style="stroke:#181818;stroke-width:1.0;" width="10" x="771.5" y="196.5293"/><rect fill="#FFFFFF" height="29.3105" style="stroke:#181818;stroke-width:1.0;" width="10" x="928" y="255.1504"/><rect fill="#FFFFFF" height="29.3105" style="stroke:#181818;stroke-width:1.0;" width="10" x="1115.5" y="313.7715"/><polygon fill="#181818" points="388,80.2871,398,84.2871,388,88.2871,392,84.2871" style="stroke:#181818;stroke-width:1.0;"/><line style="stroke:#181818;stroke-width:1.0;" x1="0" x2="394" y1="84.2871" y2="84.2871"/><text fill="#000000" font-family="sans-serif" font-size="13" font-weight="bold" lengthAdjust="spacing" textLength="9" x="7" y="79.5449">3</text><text fill="#000000" font-family="sans-serif" font-size="13" lengthAdjust="spacing" textLength="368" x="20" y="79.5449">getTasksForCollaboratorBetweenDates(startDate, endDate)</text><path d="M305,99.2871 L550,99.2871 L550,106.5977 L540,116.5977 L305,116.5977 L305,99.2871 " fill="#EEEEEE" style="stroke:#000000;stroke-width:1.5;"/><rect fill="none" height="281.1055" style="stroke:#000000;stroke-width:1.5;" width="908" x="305" y="99.2871"/><text fill="#000000" font-family="sans-serif" font-size="13" font-weight="bold" lengthAdjust="spacing" textLength="200" x="320" y="112.8555">Get Collaborator from session</text><polygon fill="#181818" points="539.5,133.9082,549.5,137.9082,539.5,141.9082,543.5,137.9082" style="stroke:#181818;stroke-width:1.0;"/><line style="stroke:#181818;stroke-width:1.0;" x1="410" x2="545.5" y1="137.9082" y2="137.9082"/><text fill="#000000" font-family="sans-serif" font-size="13" font-weight="bold" lengthAdjust="spacing" textLength="21" x="417" y="133.166">3.1</text><text fill="#000000" font-family="sans-serif" font-size="13" lengthAdjust="spacing" textLength="81" x="442" y="133.166">getInstance()</text><polygon fill="#181818" points="421,163.2188,411,167.2188,421,171.2188,417,167.2188" style="stroke:#181818;stroke-width:1.0;"/><line style="stroke:#181818;stroke-width:1.0;stroke-dasharray:2.0,2.0;" x1="415" x2="555.5" y1="167.2188" y2="167.2188"/><text fill="#000000" font-family="sans-serif" font-size="13" font-weight="bold" lengthAdjust="spacing" textLength="21" x="427" y="162.4766">3.2</text><text fill="#000000" font-family="sans-serif" font-size="13" lengthAdjust="spacing" textLength="75" x="452" y="162.4766">repositories</text><polygon fill="#181818" points="759.5,192.5293,769.5,196.5293,759.5,200.5293,763.5,196.5293" style="stroke:#181818;stroke-width:1.0;"/><line style="stroke:#181818;stroke-width:1.0;" x1="410" x2="765.5" y1="196.5293" y2="196.5293"/><text fill="#000000" font-family="sans-serif" font-size="13" font-weight="bold" lengthAdjust="spacing" textLength="21" x="417" y="191.7871">3.3</text><text fill="#000000" font-family="sans-serif" font-size="13" lengthAdjust="spacing" textLength="188" x="442" y="191.7871">getAuthenticationRepository()</text><polygon fill="#181818" points="421,221.8398,411,225.8398,421,229.8398,417,225.8398" style="stroke:#181818;stroke-width:1.0;"/><line style="stroke:#181818;stroke-width:1.0;stroke-dasharray:2.0,2.0;" x1="415" x2="775.5" y1="225.8398" y2="225.8398"/><text fill="#000000" font-family="sans-serif" font-size="13" font-weight="bold" lengthAdjust="spacing" textLength="21" x="427" y="221.0977">3.4</text><text fill="#000000" font-family="sans-serif" font-size="13" lengthAdjust="spacing" textLength="158" x="452" y="221.0977">authenticationRepository</text><polygon fill="#181818" points="916,251.1504,926,255.1504,916,259.1504,920,255.1504" style="stroke:#181818;stroke-width:1.0;"/><line style="stroke:#181818;stroke-width:1.0;" x1="410" x2="922" y1="255.1504" y2="255.1504"/><text fill="#000000" font-family="sans-serif" font-size="13" font-weight="bold" lengthAdjust="spacing" textLength="21" x="417" y="250.4082">3.5</text><text fill="#000000" font-family="sans-serif" font-size="13" lengthAdjust="spacing" textLength="151" x="442" y="250.4082">getCurrentUserSession()</text><polygon fill="#181818" points="421,280.4609,411,284.4609,421,288.4609,417,284.4609" style="stroke:#181818;stroke-width:1.0;"/><line style="stroke:#181818;stroke-width:1.0;stroke-dasharray:2.0,2.0;" x1="415" x2="932" y1="284.4609" y2="284.4609"/><text fill="#000000" font-family="sans-serif" font-size="13" font-weight="bold" lengthAdjust="spacing" textLength="21" x="427" y="279.7188">3.6</text><text fill="#000000" font-family="sans-serif" font-size="13" lengthAdjust="spacing" textLength="134" x="452" y="279.7188">authenticationFacade</text><polygon fill="#181818" points="1103.5,309.7715,1113.5,313.7715,1103.5,317.7715,1107.5,313.7715" style="stroke:#181818;stroke-width:1.0;"/><line style="stroke:#181818;stroke-width:1.0;" x1="410" x2="1109.5" y1="313.7715" y2="313.7715"/><text fill="#000000" font-family="sans-serif" font-size="13" font-weight="bold" lengthAdjust="spacing" textLength="21" x="417" y="309.0293">3.7</text><text fill="#000000" font-family="sans-serif" font-size="13" lengthAdjust="spacing" textLength="151" x="442" y="309.0293">getCurrentUserSession()</text><polygon fill="#181818" points="421,339.082,411,343.082,421,347.082,417,343.082" style="stroke:#181818;stroke-width:1.0;"/><line style="stroke:#181818;stroke-width:1.0;stroke-dasharray:2.0,2.0;" x1="415" x2="1119.5" y1="343.082" y2="343.082"/><text fill="#000000" font-family="sans-serif" font-size="13" font-weight="bold" lengthAdjust="spacing" textLength="21" x="427" y="338.3398">3.8</text><text fill="#000000" font-family="sans-serif" font-size="13" lengthAdjust="spacing" textLength="75" x="452" y="338.3398">userSession</text><polygon fill="#181818" points="649.5,368.3926,659.5,372.3926,649.5,376.3926,653.5,372.3926" style="stroke:#181818;stroke-width:1.0;"/><line style="stroke:#181818;stroke-width:1.0;" x1="410" x2="655.5" y1="372.3926" y2="372.3926"/><text fill="#000000" font-family="sans-serif" font-size="13" font-weight="bold" lengthAdjust="spacing" textLength="21" x="417" y="367.6504">3.9</text><text fill="#000000" font-family="sans-serif" font-size="13" lengthAdjust="spacing" textLength="68" x="442" y="367.6504">getUserId()</text><line style="stroke:#181818;stroke-width:1.0;stroke-dasharray:2.0,2.0;" x1="368" x2="410" y1="413.7031" y2="413.7031"/><line style="stroke:#181818;stroke-width:1.0;stroke-dasharray:2.0,2.0;" x1="368" x2="368" y1="413.7031" y2="426.7031"/><line style="stroke:#181818;stroke-width:1.0;stroke-dasharray:2.0,2.0;" x1="368" x2="415" y1="426.7031" y2="426.7031"/><polygon fill="#181818" points="395,422.7031,405,426.7031,395,430.7031,399,426.7031" style="stroke:#181818;stroke-width:1.0;"/><text fill="#000000" font-family="sans-serif" font-size="13" font-weight="bold" lengthAdjust="spacing" textLength="9" x="363" y="408.9609">4</text><text fill="#000000" font-family="sans-serif" font-size="13" lengthAdjust="spacing" textLength="34" x="376" y="408.9609">email</text><!--SRC=[ZLHDJ-Cm4BtxLuou0D86QSMUAhGIsnKh90uhMcvSfiaqjPhOaUt0ykztOZUftTPGN-AFcJVlpKViLgeE3RRGQgNBZT4jWJCz2JkzT5XkiQQ5-sW839KELTt41dQ3bNwNgeOrDfQ4mDvfrRShCa9SRcH5iDRQhVG_8TZ3oL9sg1nSpEPQsRvnIxHRotjdTDEGkG2qC5y-FnrOFrEdhNJQIBBUPhhuMCY14qTDNNfBPlQgNlYp86kbLjvlk4uDJGJzgeuZ_NswNwOUh753Yi_e67RFXCFTPvuyKkht6UO3bbZH3YyS9eHm576guLO8A7xwnC4CQWffVT1cpbd5bJR897wHUoTIlz6HlRAEem_RRq2g6ZRN2U3DTu6bas_y4Ee1l6gZ-mx-a8CO5zRSEc13aeKt79SdnCHEL2lmV5HCH9LqTPtuJQ5FbJcn7DOfz6ANZXd4zKrSApe_p2XaQ8R0F5Vfd1BVHaVKFTwUQwwpShoFGKUYALAWFE-DuRje979a3phrYFO1Uh7llLDzd6F_MPHOnsuQpfAGbJEEJTPuiedgqU_ZP1qF17qLPnJc_q-3f47BOtME3F_l6cvuOiMEypYmFyG4VbSKOSFbe1Pb8oAAVfR5Vm00]--></g></svg>