<?xml version="1.0" encoding="us-ascii" standalone="no"?><svg xmlns="http://www.w3.org/2000/svg" xmlns:xlink="http://www.w3.org/1999/xlink" contentStyleType="text/css" height="525.6px" preserveAspectRatio="none" style="width:1225px;height:525px;background:#FFFFFF;" version="1.1" viewBox="0 0 1225 525" width="1225.6px" zoomAndPan="magnify"><defs/><g><rect fill="#FFFFFF" height="409.575" style="stroke:#181818;stroke-width:0.8000000000000002;" width="8" x="311.2" y="67.4297"/><rect fill="#FFFFFF" height="32.2484" style="stroke:#181818;stroke-width:0.8000000000000002;" width="8" x="315.2" y="206.5203"/><rect fill="#FFFFFF" height="23.4484" style="stroke:#181818;stroke-width:0.8000000000000002;" width="8" x="904.8" y="334.1625"/><rect fill="#FFFFFF" height="313.6297" style="stroke:#181818;stroke-width:0.8000000000000002;" width="8" x="1096.4" y="110.3266"/><rect fill="#FFFFFF" height="23.4484" style="stroke:#181818;stroke-width:0.8000000000000002;" width="8" x="1180" y="153.2234"/><rect fill="#FFFFFF" height="23.4484" style="stroke:#181818;stroke-width:0.8000000000000002;" width="8" x="1180" y="267.8172"/><rect fill="none" height="367.7266" style="stroke:#000000;stroke-width:1.2000000000000002;" width="965.6" x="255.6" y="79.4297"/><rect fill="none" height="319.2297" style="stroke:#000000;stroke-width:1.2000000000000002;" width="949.6" x="263.6" y="122.3266"/><rect fill="none" height="132.6906" style="stroke:#000000;stroke-width:1.2000000000000002;" width="899.2" x="271.6" y="303.2656"/><rect fill="none" height="60.7453" style="stroke:#000000;stroke-width:1.2000000000000002;" width="883.2" x="279.6" y="369.6109"/><line style="stroke:#181818;stroke-width:0.4000000000000001;stroke-dasharray:5.0,5.0;" x1="103.2" x2="103.2" y1="42.3813" y2="484.2047"/><line style="stroke:#181818;stroke-width:0.4000000000000001;stroke-dasharray:5.0,5.0;" x1="314.8" x2="314.8" y1="42.3813" y2="484.2047"/><line style="stroke:#181818;stroke-width:0.4000000000000001;stroke-dasharray:5.0,5.0;" x1="638.8" x2="638.8" y1="42.3813" y2="484.2047"/><line style="stroke:#181818;stroke-width:0.4000000000000001;stroke-dasharray:5.0,5.0;" x1="730" x2="730" y1="42.3813" y2="484.2047"/><line style="stroke:#181818;stroke-width:0.4000000000000001;stroke-dasharray:5.0,5.0;" x1="820.4" x2="820.4" y1="42.3813" y2="484.2047"/><line style="stroke:#181818;stroke-width:0.4000000000000001;stroke-dasharray:5.0,5.0;" x1="908.4" x2="908.4" y1="42.3813" y2="484.2047"/><line style="stroke:#181818;stroke-width:0.4000000000000001;stroke-dasharray:5.0,5.0;" x1="996.4" x2="996.4" y1="42.3813" y2="484.2047"/><line style="stroke:#181818;stroke-width:0.4000000000000001;stroke-dasharray:5.0,5.0;" x1="1100.4" x2="1100.4" y1="42.3813" y2="484.2047"/><line style="stroke:#181818;stroke-width:0.4000000000000001;stroke-dasharray:5.0,5.0;" x1="1183.6" x2="1183.6" y1="42.3813" y2="484.2047"/><rect fill="#E3E3E3" height="24.3906" rx="2" ry="2" style="stroke:#181818;stroke-width:0.4000000000000001;" width="144" x="31.2" y="17.1906"/><text fill="#000000" font-family="sans-serif" font-size="11.2" lengthAdjust="spacing" textLength="132.8" x="36.8" y="33.6188">:ConsultTasksController</text><rect fill="#E3E3E3" height="24.3906" rx="2" ry="2" style="stroke:#181818;stroke-width:0.4000000000000001;" width="144" x="31.2" y="483.4047"/><text fill="#000000" font-family="sans-serif" font-size="11.2" lengthAdjust="spacing" textLength="132.8" x="36.8" y="499.8328">:ConsultTasksController</text><rect fill="#E3E3E3" height="37.5813" rx="2" ry="2" style="stroke:#181818;stroke-width:0.4000000000000001;" width="55.2" x="287.6" y="4"/><text fill="#000000" font-family="sans-serif" font-size="11.2" lengthAdjust="spacing" textLength="44" x="293.2" y="20.4281">agenda:</text><text fill="#000000" font-family="sans-serif" font-size="11.2" lengthAdjust="spacing" textLength="42.4" x="294" y="33.6188">Agenda</text><rect fill="#E3E3E3" height="37.5813" rx="2" ry="2" style="stroke:#181818;stroke-width:0.4000000000000001;" width="55.2" x="287.6" y="483.4047"/><text fill="#000000" font-family="sans-serif" font-size="11.2" lengthAdjust="spacing" textLength="44" x="293.2" y="499.8328">agenda:</text><text fill="#000000" font-family="sans-serif" font-size="11.2" lengthAdjust="spacing" textLength="42.4" x="294" y="513.0234">Agenda</text><rect fill="#E3E3E3" height="24.3906" rx="2" ry="2" style="stroke:#181818;stroke-width:0.4000000000000001;" width="84" x="597.2" y="17.1906"/><text fill="#000000" font-family="sans-serif" font-size="11.2" lengthAdjust="spacing" textLength="72.8" x="602.8" y="33.6188">:EntryMapper</text><rect fill="#E3E3E3" height="24.3906" rx="2" ry="2" style="stroke:#181818;stroke-width:0.4000000000000001;" width="84" x="597.2" y="483.4047"/><text fill="#000000" font-family="sans-serif" font-size="11.2" lengthAdjust="spacing" textLength="72.8" x="602.8" y="499.8328">:EntryMapper</text><rect fill="#E3E3E3" height="24.3906" rx="2" ry="2" style="stroke:#181818;stroke-width:0.4000000000000001;" width="82.4" x="689.2" y="17.1906"/><text fill="#000000" font-family="sans-serif" font-size="11.2" lengthAdjust="spacing" textLength="71.2" x="694.8" y="33.6188">:Repositories</text><rect fill="#E3E3E3" height="24.3906" rx="2" ry="2" style="stroke:#181818;stroke-width:0.4000000000000001;" width="82.4" x="689.2" y="483.4047"/><text fill="#000000" font-family="sans-serif" font-size="11.2" lengthAdjust="spacing" textLength="71.2" x="694.8" y="499.8328">:Repositories</text><rect fill="#E3E3E3" height="24.3906" rx="2" ry="2" style="stroke:#181818;stroke-width:0.4000000000000001;" width="82.4" x="779.6" y="17.1906"/><text fill="#000000" font-family="sans-serif" font-size="11.2" lengthAdjust="spacing" textLength="71.2" x="785.2" y="33.6188">:Repositories</text><rect fill="#E3E3E3" height="24.3906" rx="2" ry="2" style="stroke:#181818;stroke-width:0.4000000000000001;" width="82.4" x="779.6" y="483.4047"/><text fill="#000000" font-family="sans-serif" font-size="11.2" lengthAdjust="spacing" textLength="71.2" x="785.2" y="499.8328">:Repositories</text><rect fill="#E3E3E3" height="37.5813" rx="2" ry="2" style="stroke:#181818;stroke-width:0.4000000000000001;" width="77.6" x="870" y="4"/><text fill="#000000" font-family="sans-serif" font-size="11.2" lengthAdjust="spacing" textLength="27.2" x="895.2" y="20.4281">user:</text><text fill="#000000" font-family="sans-serif" font-size="11.2" lengthAdjust="spacing" textLength="66.4" x="875.6" y="33.6188">UserSession</text><rect fill="#E3E3E3" height="37.5813" rx="2" ry="2" style="stroke:#181818;stroke-width:0.4000000000000001;" width="77.6" x="870" y="483.4047"/><text fill="#000000" font-family="sans-serif" font-size="11.2" lengthAdjust="spacing" textLength="27.2" x="895.2" y="499.8328">user:</text><text fill="#000000" font-family="sans-serif" font-size="11.2" lengthAdjust="spacing" textLength="66.4" x="875.6" y="513.0234">UserSession</text><rect fill="#E3E3E3" height="37.5813" rx="2" ry="2" style="stroke:#181818;stroke-width:0.4000000000000001;" width="82.4" x="955.6" y="4"/><text fill="#000000" font-family="sans-serif" font-size="11.2" lengthAdjust="spacing" textLength="65.6" x="964" y="20.4281">repositories</text><text fill="#000000" font-family="sans-serif" font-size="11.2" lengthAdjust="spacing" textLength="71.2" x="961.2" y="33.6188">:Repositories</text><rect fill="#E3E3E3" height="37.5813" rx="2" ry="2" style="stroke:#181818;stroke-width:0.4000000000000001;" width="82.4" x="955.6" y="483.4047"/><text fill="#000000" font-family="sans-serif" font-size="11.2" lengthAdjust="spacing" textLength="65.6" x="964" y="499.8328">repositories</text><text fill="#000000" font-family="sans-serif" font-size="11.2" lengthAdjust="spacing" textLength="71.2" x="961.2" y="513.0234">:Repositories</text><rect fill="#E3E3E3" height="37.5813" rx="2" ry="2" style="stroke:#181818;stroke-width:0.4000000000000001;" width="108.8" x="1046" y="4"/><text fill="#000000" font-family="sans-serif" font-size="11.2" lengthAdjust="spacing" textLength="97.6" x="1051.6" y="20.4281">tasksCollaborator</text><text fill="#000000" font-family="sans-serif" font-size="11.2" lengthAdjust="spacing" textLength="67.2" x="1066.8" y="33.6188">:List&lt;Entry&gt;</text><rect fill="#E3E3E3" height="37.5813" rx="2" ry="2" style="stroke:#181818;stroke-width:0.4000000000000001;" width="108.8" x="1046" y="483.4047"/><text fill="#000000" font-family="sans-serif" font-size="11.2" lengthAdjust="spacing" textLength="97.6" x="1051.6" y="499.8328">tasksCollaborator</text><text fill="#000000" font-family="sans-serif" font-size="11.2" lengthAdjust="spacing" textLength="67.2" x="1066.8" y="513.0234">:List&lt;Entry&gt;</text><rect fill="#E3E3E3" height="37.5813" rx="2" ry="2" style="stroke:#181818;stroke-width:0.4000000000000001;" width="42.4" x="1162.8" y="4"/><text fill="#000000" font-family="sans-serif" font-size="11.2" lengthAdjust="spacing" textLength="31.2" x="1168.4" y="20.4281">entry:</text><text fill="#000000" font-family="sans-serif" font-size="11.2" lengthAdjust="spacing" textLength="28" x="1170" y="33.6188">Entry</text><rect fill="#E3E3E3" height="37.5813" rx="2" ry="2" style="stroke:#181818;stroke-width:0.4000000000000001;" width="42.4" x="1162.8" y="483.4047"/><text fill="#000000" font-family="sans-serif" font-size="11.2" lengthAdjust="spacing" textLength="31.2" x="1168.4" y="499.8328">entry:</text><text fill="#000000" font-family="sans-serif" font-size="11.2" lengthAdjust="spacing" textLength="28" x="1170" y="513.0234">Entry</text><rect fill="#FFFFFF" height="409.575" style="stroke:#181818;stroke-width:0.8000000000000002;" width="8" x="311.2" y="67.4297"/><rect fill="#FFFFFF" height="32.2484" style="stroke:#181818;stroke-width:0.8000000000000002;" width="8" x="315.2" y="206.5203"/><rect fill="#FFFFFF" height="23.4484" style="stroke:#181818;stroke-width:0.8000000000000002;" width="8" x="904.8" y="334.1625"/><rect fill="#FFFFFF" height="313.6297" style="stroke:#181818;stroke-width:0.8000000000000002;" width="8" x="1096.4" y="110.3266"/><rect fill="#FFFFFF" height="23.4484" style="stroke:#181818;stroke-width:0.8000000000000002;" width="8" x="1180" y="153.2234"/><rect fill="#FFFFFF" height="23.4484" style="stroke:#181818;stroke-width:0.8000000000000002;" width="8" x="1180" y="267.8172"/><polygon fill="#181818" points="301.6,64.2297,309.6,67.4297,301.6,70.6297,304.8,67.4297" style="stroke:#181818;stroke-width:0.8000000000000002;"/><line style="stroke:#181818;stroke-width:0.8000000000000002;" x1="0" x2="306.4" y1="67.4297" y2="67.4297"/><text fill="#000000" font-family="sans-serif" font-size="10.4" font-weight="bold" lengthAdjust="spacing" textLength="7.2" x="5.6" y="63.6359">9</text><text fill="#000000" font-family="sans-serif" font-size="10.4" lengthAdjust="spacing" textLength="285.6" x="16" y="63.6359">getTaskCategoryByDescription(taskCategoryDescription)</text><path d="M255.6,79.4297 L416.4,79.4297 L416.4,85.2781 L408.4,93.2781 L255.6,93.2781 L255.6,79.4297 " fill="#EEEEEE" style="stroke:#000000;stroke-width:1.2000000000000002;"/><rect fill="none" height="367.7266" style="stroke:#000000;stroke-width:1.2000000000000002;" width="965.6" x="255.6" y="79.4297"/><text fill="#000000" font-family="sans-serif" font-size="10.4" font-weight="bold" lengthAdjust="spacing" textLength="124.8" x="267.6" y="90.2844">Get Sorted Task Spaces</text><polygon fill="#181818" points="1086.8,107.1266,1094.8,110.3266,1086.8,113.5266,1090,110.3266" style="stroke:#181818;stroke-width:0.8000000000000002;"/><line style="stroke:#181818;stroke-width:0.8000000000000002;" x1="319.2" x2="1091.6" y1="110.3266" y2="110.3266"/><text fill="#000000" font-family="sans-serif" font-size="10.4" font-weight="bold" lengthAdjust="spacing" textLength="16.8" x="324.8" y="106.5328">9.1</text><text fill="#000000" font-family="sans-serif" font-size="10.4" lengthAdjust="spacing" textLength="30.4" x="344.8" y="106.5328">create</text><path d="M263.6,122.3266 L322.8,122.3266 L322.8,128.175 L314.8,136.175 L263.6,136.175 L263.6,122.3266 " fill="#EEEEEE" style="stroke:#000000;stroke-width:1.2000000000000002;"/><rect fill="none" height="319.2297" style="stroke:#000000;stroke-width:1.2000000000000002;" width="949.6" x="263.6" y="122.3266"/><text fill="#000000" font-family="sans-serif" font-size="10.4" font-weight="bold" lengthAdjust="spacing" textLength="23.2" x="275.6" y="133.1813">loop</text><text fill="#000000" font-family="sans-serif" font-size="8.8" font-weight="bold" lengthAdjust="spacing" textLength="116" x="334.8" y="132.4344">[For each entry in agenda]</text><polygon fill="#181818" points="1170.4,150.0234,1178.4,153.2234,1170.4,156.4234,1173.6,153.2234" style="stroke:#181818;stroke-width:0.8000000000000002;"/><line style="stroke:#181818;stroke-width:0.8000000000000002;" x1="319.2" x2="1175.2" y1="153.2234" y2="153.2234"/><text fill="#000000" font-family="sans-serif" font-size="10.4" font-weight="bold" lengthAdjust="spacing" textLength="16.8" x="324.8" y="149.4297">9.2</text><text fill="#000000" font-family="sans-serif" font-size="10.4" lengthAdjust="spacing" textLength="84.8" x="344.8" y="149.4297">getStartingDate()</text><polygon fill="#181818" points="328,173.4719,320,176.6719,328,179.8719,324.8,176.6719" style="stroke:#181818;stroke-width:0.8000000000000002;"/><line style="stroke:#181818;stroke-width:0.8000000000000002;stroke-dasharray:2.0,2.0;" x1="323.2" x2="1183.2" y1="176.6719" y2="176.6719"/><text fill="#000000" font-family="sans-serif" font-size="10.4" font-weight="bold" lengthAdjust="spacing" textLength="16.8" x="332.8" y="172.8781">9.3</text><text fill="#000000" font-family="sans-serif" font-size="10.4" lengthAdjust="spacing" textLength="62.4" x="352.8" y="172.8781">startingDate</text><line style="stroke:#181818;stroke-width:0.8000000000000002;" x1="319.2" x2="356.8" y1="196.1203" y2="196.1203"/><line style="stroke:#181818;stroke-width:0.8000000000000002;" x1="356.8" x2="356.8" y1="196.1203" y2="206.5203"/><line style="stroke:#181818;stroke-width:0.8000000000000002;" x1="324" x2="356.8" y1="206.5203" y2="206.5203"/><polygon fill="#181818" points="332,203.3203,324,206.5203,332,209.7203,328.8,206.5203" style="stroke:#181818;stroke-width:0.8000000000000002;"/><text fill="#000000" font-family="sans-serif" font-size="10.4" font-weight="bold" lengthAdjust="spacing" textLength="16.8" x="328.8" y="192.3266">9.4</text><text fill="#000000" font-family="sans-serif" font-size="10.4" lengthAdjust="spacing" textLength="284.8" x="348.8" y="192.3266">checkDateWithinRange(startingDate, startDate, endDate)</text><line style="stroke:#181818;stroke-width:0.8000000000000002;stroke-dasharray:2.0,2.0;" x1="323.2" x2="356.8" y1="237.9688" y2="237.9688"/><line style="stroke:#181818;stroke-width:0.8000000000000002;stroke-dasharray:2.0,2.0;" x1="356.8" x2="356.8" y1="237.9688" y2="248.3688"/><line style="stroke:#181818;stroke-width:0.8000000000000002;stroke-dasharray:2.0,2.0;" x1="319.2" x2="356.8" y1="248.3688" y2="248.3688"/><polygon fill="#181818" points="327.2,245.1688,319.2,248.3688,327.2,251.5688,324,248.3688" style="stroke:#181818;stroke-width:0.8000000000000002;"/><text fill="#000000" font-family="sans-serif" font-size="10.4" font-weight="bold" lengthAdjust="spacing" textLength="16.8" x="328.8" y="234.175">9.5</text><text fill="#000000" font-family="sans-serif" font-size="10.4" lengthAdjust="spacing" textLength="3.2" x="348.8" y="234.175">&#160;</text><polygon fill="#181818" points="1170.4,264.6172,1178.4,267.8172,1170.4,271.0172,1173.6,267.8172" style="stroke:#181818;stroke-width:0.8000000000000002;"/><line style="stroke:#181818;stroke-width:0.8000000000000002;" x1="319.2" x2="1175.2" y1="267.8172" y2="267.8172"/><text fill="#000000" font-family="sans-serif" font-size="10.4" font-weight="bold" lengthAdjust="spacing" textLength="16.8" x="324.8" y="264.0234">9.6</text><text fill="#000000" font-family="sans-serif" font-size="10.4" lengthAdjust="spacing" textLength="84" x="344.8" y="264.0234">getTeamAssign()</text><polygon fill="#181818" points="328,288.0656,320,291.2656,328,294.4656,324.8,291.2656" style="stroke:#181818;stroke-width:0.8000000000000002;"/><line style="stroke:#181818;stroke-width:0.8000000000000002;stroke-dasharray:2.0,2.0;" x1="323.2" x2="1183.2" y1="291.2656" y2="291.2656"/><text fill="#000000" font-family="sans-serif" font-size="10.4" font-weight="bold" lengthAdjust="spacing" textLength="16.8" x="332.8" y="287.4719">9.7</text><text fill="#000000" font-family="sans-serif" font-size="10.4" lengthAdjust="spacing" textLength="59.2" x="352.8" y="287.4719">teamAssign</text><path d="M271.6,303.2656 L330.8,303.2656 L330.8,309.1141 L322.8,317.1141 L271.6,317.1141 L271.6,303.2656 " fill="#EEEEEE" style="stroke:#000000;stroke-width:1.2000000000000002;"/><rect fill="none" height="132.6906" style="stroke:#000000;stroke-width:1.2000000000000002;" width="899.2" x="271.6" y="303.2656"/><text fill="#000000" font-family="sans-serif" font-size="10.4" font-weight="bold" lengthAdjust="spacing" textLength="23.2" x="283.6" y="314.1203">loop</text><text fill="#000000" font-family="sans-serif" font-size="8.8" font-weight="bold" lengthAdjust="spacing" textLength="168.8" x="342.8" y="313.3734">[For each collaborator in teamAssign]</text><polygon fill="#181818" points="895.2,330.9625,903.2,334.1625,895.2,337.3625,898.4,334.1625" style="stroke:#181818;stroke-width:0.8000000000000002;"/><line style="stroke:#181818;stroke-width:0.8000000000000002;" x1="319.2" x2="900" y1="334.1625" y2="334.1625"/><text fill="#000000" font-family="sans-serif" font-size="10.4" font-weight="bold" lengthAdjust="spacing" textLength="16.8" x="324.8" y="330.3688">9.8</text><text fill="#000000" font-family="sans-serif" font-size="10.4" lengthAdjust="spacing" textLength="49.6" x="344.8" y="330.3688">getEmail()</text><polygon fill="#181818" points="328,354.4109,320,357.6109,328,360.8109,324.8,357.6109" style="stroke:#181818;stroke-width:0.8000000000000002;"/><line style="stroke:#181818;stroke-width:0.8000000000000002;stroke-dasharray:2.0,2.0;" x1="323.2" x2="908" y1="357.6109" y2="357.6109"/><text fill="#000000" font-family="sans-serif" font-size="10.4" font-weight="bold" lengthAdjust="spacing" textLength="16.8" x="332.8" y="353.8172">9.9</text><text fill="#000000" font-family="sans-serif" font-size="10.4" lengthAdjust="spacing" textLength="27.2" x="352.8" y="353.8172">email</text><path d="M279.6,369.6109 L329.2,369.6109 L329.2,375.4594 L321.2,383.4594 L279.6,383.4594 L279.6,369.6109 " fill="#EEEEEE" style="stroke:#000000;stroke-width:1.2000000000000002;"/><rect fill="none" height="60.7453" style="stroke:#000000;stroke-width:1.2000000000000002;" width="883.2" x="279.6" y="369.6109"/><text fill="#000000" font-family="sans-serif" font-size="10.4" font-weight="bold" lengthAdjust="spacing" textLength="13.6" x="291.6" y="380.4656">alt</text><text fill="#000000" font-family="sans-serif" font-size="8.8" font-weight="bold" lengthAdjust="spacing" textLength="132" x="341.2" y="379.7188">[email == collaboratorEmail]</text><polygon fill="#181818" points="1086.8,397.3078,1094.8,400.5078,1086.8,403.7078,1090,400.5078" style="stroke:#181818;stroke-width:0.8000000000000002;"/><line style="stroke:#181818;stroke-width:0.8000000000000002;" x1="319.2" x2="1091.6" y1="400.5078" y2="400.5078"/><text fill="#000000" font-family="sans-serif" font-size="10.4" font-weight="bold" lengthAdjust="spacing" textLength="24" x="324.8" y="396.7141">9.10</text><text fill="#000000" font-family="sans-serif" font-size="10.4" lengthAdjust="spacing" textLength="50.4" x="352" y="396.7141">add(entry)</text><polygon fill="#181818" points="328,420.7563,320,423.9563,328,427.1563,324.8,423.9563" style="stroke:#181818;stroke-width:0.8000000000000002;"/><line style="stroke:#181818;stroke-width:0.8000000000000002;stroke-dasharray:2.0,2.0;" x1="323.2" x2="1099.6" y1="423.9563" y2="423.9563"/><text fill="#000000" font-family="sans-serif" font-size="10.4" font-weight="bold" lengthAdjust="spacing" textLength="24" x="332.8" y="420.1625">9.11</text><text fill="#000000" font-family="sans-serif" font-size="10.4" lengthAdjust="spacing" textLength="3.2" x="360" y="420.1625">&#160;</text><polygon fill="#181818" points="8.8,466.6047,0.8,469.8047,8.8,473.0047,5.6,469.8047" style="stroke:#181818;stroke-width:0.8000000000000002;"/><line style="stroke:#181818;stroke-width:0.8000000000000002;stroke-dasharray:2.0,2.0;" x1="4" x2="102.4" y1="469.8047" y2="469.8047"/><text fill="#000000" font-family="sans-serif" font-size="10.4" font-weight="bold" lengthAdjust="spacing" textLength="14.4" x="13.6" y="466.0109">10</text><text fill="#000000" font-family="sans-serif" font-size="10.4" lengthAdjust="spacing" textLength="66.4" x="31.2" y="466.0109">taskCategory</text><!--SRC=[hLLDRzim3BthLmWv9S0ohCS5RO4iyNhfYi3EC0peHPLPHuWi6PAy8Vz-b9muSfB6xb1Th8_7H_A9ekrMg8ePLj9IAyqtHfT0dQc1sFQaOdpB2iZSJW8rm1rJXOm1TiDo_LUeWhuoQO4Gt7Q2YuefHqUpXLQsbcxDxDRYt1aj9PWHPPOkrkbZ5usELCvcpseU9W4rVqYUblCJrWI9TZzOLUsf8ApdgrMIdY1JgBGLJXi1Da3JP4LwCOUDNIPykawhhabjmM2OF_6JWRL2gs3djxj04r4_gulHP5qBroWb9NlHXY4KpHw5TRSXv_jH5nqInqZ2OM1CdjRfRq9OZK7NvGiO-fLCx_SoqXaj85p6WZaeCC5lkoLORaJbC8cnYqwY_KcNx_CDhhaJVn1vk1-Aep2whkW3E9ffuo2dtX7Di8J01e0V-q0mfDvKCLfk09sqngtNVfbQ6wbrHRzhGu7nJLCfL2ZQrDeHTXvVKB9HB7DUT5KiqVTuScRJXhKN__IyOPh6rs0ZnZDy3dsCnoXRHhu1llLqluJR29NYGuLnxEPJuxIPOl9-SYMN_SM-wRhrVItyFfAEocjWvHnVKw4-HcFNyls7mkUbmwDgynKKqL-qVZjdtoUQb9EI2NaXsqkZZJYqcK4cmL574_0E1zb64WrtoAHhND2xkuvW8T7twZIaGx0y7uT7FHd6tizvfR9xT7f7Lxesy6qE1eOQFQAFE-Im35svMKPD_EPBsBcTJiD_sB-MgFSJ4cKL_jFa7m00]--></g></svg>