<?xml version="1.0" encoding="us-ascii" standalone="no"?><svg xmlns="http://www.w3.org/2000/svg" xmlns:xlink="http://www.w3.org/1999/xlink" contentStyleType="text/css" height="953.4px" preserveAspectRatio="none" style="width:1613px;height:953px;background:#FFFFFF;" version="1.1" viewBox="0 0 1613 953" width="1613.4px" zoomAndPan="magnify"><defs/><g><rect fill="#FFFFFF" height="839.3977" style="stroke:#181818;stroke-width:0.6;" width="6" x="27.9" y="54.893"/><rect fill="#FFFFFF" height="826.6113" style="stroke:#181818;stroke-width:0.6;" width="6" x="209.7" y="67.6793"/><rect fill="#FFFFFF" height="791.4387" style="stroke:#181818;stroke-width:0.6;" width="6" x="455.7" y="85.2656"/><rect fill="#FFFFFF" height="17.5863" style="stroke:#181818;stroke-width:0.6;" width="6" x="609.9" y="128.2383"/><rect fill="#FFFFFF" height="17.5863" style="stroke:#181818;stroke-width:0.6;" width="6" x="609.9" y="329.4879"/><rect fill="#FFFFFF" height="17.5863" style="stroke:#181818;stroke-width:0.6;" width="6" x="677.7" y="163.4109"/><rect fill="#FFFFFF" height="17.5863" style="stroke:#181818;stroke-width:0.6;" width="6" x="677.7" y="364.6605"/><rect fill="#FFFFFF" height="300.1945" style="stroke:#181818;stroke-width:0.6;" width="6" x="780.3" y="399.8332"/><rect fill="#FFFFFF" height="24.1863" style="stroke:#181818;stroke-width:0.6;" width="6" x="783.3" y="506.7645"/><rect fill="#FFFFFF" height="141.5039" style="stroke:#181818;stroke-width:0.6;" width="6" x="1021.5" y="717.6141"/><rect fill="#FFFFFF" height="17.5863" style="stroke:#181818;stroke-width:0.6;" width="6" x="1137.9" y="784.5727"/><rect fill="#FFFFFF" height="17.5863" style="stroke:#181818;stroke-width:0.6;" width="6" x="1237.5" y="198.5836"/><rect fill="#FFFFFF" height="17.5863" style="stroke:#181818;stroke-width:0.6;" width="6" x="1350" y="233.7563"/><rect fill="#FFFFFF" height="17.5863" style="stroke:#181818;stroke-width:0.6;" width="6" x="1434.6" y="268.9289"/><rect fill="#FFFFFF" height="17.5863" style="stroke:#181818;stroke-width:0.6;" width="6" x="1434.6" y="602.4961"/><rect fill="#FFFFFF" height="17.5863" style="stroke:#181818;stroke-width:0.6;" width="6" x="1485.6" y="466.7918"/><rect fill="#FFFFFF" height="17.5863" style="stroke:#181818;stroke-width:0.6;" width="6" x="1485.6" y="552.7371"/><rect fill="#FFFFFF" height="17.5863" style="stroke:#181818;stroke-width:0.6;" width="6" x="1548.3" y="652.2551"/><rect fill="#FFFFFF" height="21.7863" style="stroke:#181818;stroke-width:0.6;" width="6" x="1548.3" y="819.7453"/><rect fill="none" height="239.4223" style="stroke:#000000;stroke-width:0.8999999999999999;" width="865.5" x="744.6" y="443.6191"/><rect fill="none" height="99.518" style="stroke:#000000;stroke-width:0.8999999999999999;" width="853.5" x="750.6" y="579.3234"/><rect fill="none" height="45.559" style="stroke:#000000;stroke-width:0.8999999999999999;" width="841.5" x="756.6" y="629.0824"/><rect fill="none" height="63.1453" style="stroke:#000000;stroke-width:0.8999999999999999;" width="611.1" x="987" y="761.4"/><line style="stroke:#181818;stroke-width:0.3;stroke-dasharray:5.0,5.0;" x1="30.6" x2="30.6" y1="48.893" y2="905.0906"/><line style="stroke:#181818;stroke-width:0.3;stroke-dasharray:5.0,5.0;" x1="212.7" x2="212.7" y1="48.893" y2="905.0906"/><line style="stroke:#181818;stroke-width:0.3;stroke-dasharray:5.0,5.0;" x1="458.7" x2="458.7" y1="48.893" y2="905.0906"/><line style="stroke:#181818;stroke-width:0.3;stroke-dasharray:5.0,5.0;" x1="612.6" x2="612.6" y1="48.893" y2="905.0906"/><line style="stroke:#181818;stroke-width:0.3;stroke-dasharray:5.0,5.0;" x1="680.4" x2="680.4" y1="48.893" y2="905.0906"/><line style="stroke:#181818;stroke-width:0.3;stroke-dasharray:5.0,5.0;" x1="783" x2="783" y1="48.893" y2="905.0906"/><line style="stroke:#181818;stroke-width:0.3;stroke-dasharray:5.0,5.0;" x1="1024.2" x2="1024.2" y1="48.893" y2="905.0906"/><line style="stroke:#181818;stroke-width:0.3;stroke-dasharray:5.0,5.0;" x1="1140.9" x2="1140.9" y1="48.893" y2="905.0906"/><line style="stroke:#181818;stroke-width:0.3;stroke-dasharray:5.0,5.0;" x1="1240.5" x2="1240.5" y1="48.893" y2="905.0906"/><line style="stroke:#181818;stroke-width:0.3;stroke-dasharray:5.0,5.0;" x1="1352.7" x2="1352.7" y1="48.893" y2="905.0906"/><line style="stroke:#181818;stroke-width:0.3;stroke-dasharray:5.0,5.0;" x1="1437.3" x2="1437.3" y1="48.893" y2="905.0906"/><line style="stroke:#181818;stroke-width:0.3;stroke-dasharray:5.0,5.0;" x1="1488.3" x2="1488.3" y1="48.893" y2="905.0906"/><line style="stroke:#181818;stroke-width:0.3;stroke-dasharray:5.0,5.0;" x1="1551.3" x2="1551.3" y1="745.807" y2="905.0906"/><text fill="#000000" font-family="sans-serif" font-size="8.4" lengthAdjust="spacing" textLength="52.2" x="3" y="47.1211">Collaborator</text><ellipse cx="30.9" cy="8.1" fill="#E3E3E3" rx="4.8" ry="4.8" style="stroke:#181818;stroke-width:0.3;"/><path d="M30.9,12.9 L30.9,29.1 M23.1,17.7 L38.7,17.7 M30.9,29.1 L23.1,38.1 M30.9,29.1 L38.7,38.1 " fill="none" style="stroke:#181818;stroke-width:0.3;"/><text fill="#000000" font-family="sans-serif" font-size="8.4" lengthAdjust="spacing" textLength="52.2" x="3" y="912.6117">Collaborator</text><ellipse cx="30.9" cy="919.4836" fill="#E3E3E3" rx="4.8" ry="4.8" style="stroke:#181818;stroke-width:0.3;"/><path d="M30.9,924.2836 L30.9,940.4836 M23.1,929.0836 L38.7,929.0836 M30.9,940.4836 L23.1,949.4836 M30.9,940.4836 L38.7,949.4836 " fill="none" style="stroke:#181818;stroke-width:0.3;"/><rect fill="#E3E3E3" height="18.293" rx="1.5" ry="1.5" style="stroke:#181818;stroke-width:0.3;" width="74.4" x="175.5" y="30"/><text fill="#000000" font-family="sans-serif" font-size="8.4" lengthAdjust="spacing" textLength="66" x="179.7" y="42.3211">:ConsultTasksUI</text><rect fill="#E3E3E3" height="18.293" rx="1.5" ry="1.5" style="stroke:#181818;stroke-width:0.3;" width="74.4" x="175.5" y="904.4906"/><text fill="#000000" font-family="sans-serif" font-size="8.4" lengthAdjust="spacing" textLength="66" x="179.7" y="916.8117">:ConsultTasksUI</text><rect fill="#E3E3E3" height="18.293" rx="1.5" ry="1.5" style="stroke:#181818;stroke-width:0.3;" width="108" x="404.7" y="30"/><text fill="#000000" font-family="sans-serif" font-size="8.4" lengthAdjust="spacing" textLength="99.6" x="408.9" y="42.3211">:ConsultTasksController</text><rect fill="#E3E3E3" height="18.293" rx="1.5" ry="1.5" style="stroke:#181818;stroke-width:0.3;" width="108" x="404.7" y="904.4906"/><text fill="#000000" font-family="sans-serif" font-size="8.4" lengthAdjust="spacing" textLength="99.6" x="408.9" y="916.8117">:ConsultTasksController</text><rect fill="#E3E3E3" height="18.293" rx="1.5" ry="1.5" style="stroke:#181818;stroke-width:0.3;" width="61.8" x="582" y="30"/><text fill="#000000" font-family="sans-serif" font-size="8.4" lengthAdjust="spacing" textLength="53.4" x="586.2" y="42.3211">:Repositories</text><rect fill="#E3E3E3" height="18.293" rx="1.5" ry="1.5" style="stroke:#181818;stroke-width:0.3;" width="61.8" x="582" y="904.4906"/><text fill="#000000" font-family="sans-serif" font-size="8.4" lengthAdjust="spacing" textLength="53.4" x="586.2" y="916.8117">:Repositories</text><rect fill="#E3E3E3" height="28.1859" rx="1.5" ry="1.5" style="stroke:#181818;stroke-width:0.3;" width="61.8" x="649.8" y="20.107"/><text fill="#000000" font-family="sans-serif" font-size="8.4" lengthAdjust="spacing" textLength="49.2" x="656.1" y="32.4281">repositories</text><text fill="#000000" font-family="sans-serif" font-size="8.4" lengthAdjust="spacing" textLength="53.4" x="654" y="42.3211">:Repositories</text><rect fill="#E3E3E3" height="28.1859" rx="1.5" ry="1.5" style="stroke:#181818;stroke-width:0.3;" width="61.8" x="649.8" y="904.4906"/><text fill="#000000" font-family="sans-serif" font-size="8.4" lengthAdjust="spacing" textLength="49.2" x="656.1" y="916.8117">repositories</text><text fill="#000000" font-family="sans-serif" font-size="8.4" lengthAdjust="spacing" textLength="53.4" x="654" y="926.7047">:Repositories</text><rect fill="#E3E3E3" height="28.1859" rx="1.5" ry="1.5" style="stroke:#181818;stroke-width:0.3;" width="41.4" x="762.6" y="20.107"/><text fill="#000000" font-family="sans-serif" font-size="8.4" lengthAdjust="spacing" textLength="33" x="766.8" y="32.4281">agenda:</text><text fill="#000000" font-family="sans-serif" font-size="8.4" lengthAdjust="spacing" textLength="31.8" x="767.4" y="42.3211">Agenda</text><rect fill="#E3E3E3" height="28.1859" rx="1.5" ry="1.5" style="stroke:#181818;stroke-width:0.3;" width="41.4" x="762.6" y="904.4906"/><text fill="#000000" font-family="sans-serif" font-size="8.4" lengthAdjust="spacing" textLength="33" x="766.8" y="916.8117">agenda:</text><text fill="#000000" font-family="sans-serif" font-size="8.4" lengthAdjust="spacing" textLength="31.8" x="767.4" y="926.7047">Agenda</text><rect fill="#E3E3E3" height="18.293" rx="1.5" ry="1.5" style="stroke:#181818;stroke-width:0.3;" width="63" x="993" y="30"/><text fill="#000000" font-family="sans-serif" font-size="8.4" lengthAdjust="spacing" textLength="54.6" x="997.2" y="42.3211">:EntryMapper</text><rect fill="#E3E3E3" height="18.293" rx="1.5" ry="1.5" style="stroke:#181818;stroke-width:0.3;" width="63" x="993" y="904.4906"/><text fill="#000000" font-family="sans-serif" font-size="8.4" lengthAdjust="spacing" textLength="54.6" x="997.2" y="916.8117">:EntryMapper</text><rect fill="#E3E3E3" height="28.1859" rx="1.5" ry="1.5" style="stroke:#181818;stroke-width:0.3;" width="73.2" x="1104.3" y="20.107"/><text fill="#000000" font-family="sans-serif" font-size="8.4" lengthAdjust="spacing" textLength="49.2" x="1116.3" y="32.4281">entryListDto</text><text fill="#000000" font-family="sans-serif" font-size="8.4" lengthAdjust="spacing" textLength="64.8" x="1108.5" y="42.3211">:List&lt;entryDto&gt;</text><rect fill="#E3E3E3" height="28.1859" rx="1.5" ry="1.5" style="stroke:#181818;stroke-width:0.3;" width="73.2" x="1104.3" y="904.4906"/><text fill="#000000" font-family="sans-serif" font-size="8.4" lengthAdjust="spacing" textLength="49.2" x="1116.3" y="916.8117">entryListDto</text><text fill="#000000" font-family="sans-serif" font-size="8.4" lengthAdjust="spacing" textLength="64.8" x="1108.5" y="926.7047">:List&lt;entryDto&gt;</text><rect fill="#E3E3E3" height="28.1859" rx="1.5" ry="1.5" style="stroke:#181818;stroke-width:0.3;" width="114" x="1183.5" y="20.107"/><text fill="#000000" font-family="sans-serif" font-size="8.4" lengthAdjust="spacing" textLength="105.6" x="1187.7" y="32.4281">authenticationRepository:</text><text fill="#000000" font-family="sans-serif" font-size="8.4" lengthAdjust="spacing" textLength="104.4" x="1188.3" y="42.3211">AuthenticationRepository</text><rect fill="#E3E3E3" height="28.1859" rx="1.5" ry="1.5" style="stroke:#181818;stroke-width:0.3;" width="114" x="1183.5" y="904.4906"/><text fill="#000000" font-family="sans-serif" font-size="8.4" lengthAdjust="spacing" textLength="105.6" x="1187.7" y="916.8117">authenticationRepository:</text><text fill="#000000" font-family="sans-serif" font-size="8.4" lengthAdjust="spacing" textLength="104.4" x="1188.3" y="926.7047">AuthenticationRepository</text><rect fill="#E3E3E3" height="28.1859" rx="1.5" ry="1.5" style="stroke:#181818;stroke-width:0.3;" width="99" x="1303.5" y="20.107"/><text fill="#000000" font-family="sans-serif" font-size="8.4" lengthAdjust="spacing" textLength="90.6" x="1307.7" y="32.4281">authenticationFacade:</text><text fill="#000000" font-family="sans-serif" font-size="8.4" lengthAdjust="spacing" textLength="48.6" x="1328.7" y="42.3211">AuthFacade</text><rect fill="#E3E3E3" height="28.1859" rx="1.5" ry="1.5" style="stroke:#181818;stroke-width:0.3;" width="99" x="1303.5" y="904.4906"/><text fill="#000000" font-family="sans-serif" font-size="8.4" lengthAdjust="spacing" textLength="90.6" x="1307.7" y="916.8117">authenticationFacade:</text><text fill="#000000" font-family="sans-serif" font-size="8.4" lengthAdjust="spacing" textLength="48.6" x="1328.7" y="926.7047">AuthFacade</text><rect fill="#E3E3E3" height="28.1859" rx="1.5" ry="1.5" style="stroke:#181818;stroke-width:0.3;" width="58.2" x="1408.5" y="20.107"/><text fill="#000000" font-family="sans-serif" font-size="8.4" lengthAdjust="spacing" textLength="20.4" x="1427.4" y="32.4281">user:</text><text fill="#000000" font-family="sans-serif" font-size="8.4" lengthAdjust="spacing" textLength="49.8" x="1412.7" y="42.3211">UserSession</text><rect fill="#E3E3E3" height="28.1859" rx="1.5" ry="1.5" style="stroke:#181818;stroke-width:0.3;" width="58.2" x="1408.5" y="904.4906"/><text fill="#000000" font-family="sans-serif" font-size="8.4" lengthAdjust="spacing" textLength="20.4" x="1427.4" y="916.8117">user:</text><text fill="#000000" font-family="sans-serif" font-size="8.4" lengthAdjust="spacing" textLength="49.8" x="1412.7" y="926.7047">UserSession</text><rect fill="#E3E3E3" height="28.1859" rx="1.5" ry="1.5" style="stroke:#181818;stroke-width:0.3;" width="31.8" x="1472.7" y="20.107"/><text fill="#000000" font-family="sans-serif" font-size="8.4" lengthAdjust="spacing" textLength="23.4" x="1476.9" y="32.4281">entry:</text><text fill="#000000" font-family="sans-serif" font-size="8.4" lengthAdjust="spacing" textLength="21" x="1478.1" y="42.3211">Entry</text><rect fill="#E3E3E3" height="28.1859" rx="1.5" ry="1.5" style="stroke:#181818;stroke-width:0.3;" width="31.8" x="1472.7" y="904.4906"/><text fill="#000000" font-family="sans-serif" font-size="8.4" lengthAdjust="spacing" textLength="23.4" x="1476.9" y="916.8117">entry:</text><text fill="#000000" font-family="sans-serif" font-size="8.4" lengthAdjust="spacing" textLength="21" x="1478.1" y="926.7047">Entry</text><rect fill="#E3E3E3" height="28.1859" rx="1.5" ry="1.5" style="stroke:#181818;stroke-width:0.3;" width="81.6" x="1510.5" y="904.4906"/><text fill="#000000" font-family="sans-serif" font-size="8.4" lengthAdjust="spacing" textLength="73.2" x="1514.7" y="916.8117">tasksCollaborator</text><text fill="#000000" font-family="sans-serif" font-size="8.4" lengthAdjust="spacing" textLength="50.4" x="1526.1" y="926.7047">:List&lt;Entry&gt;</text><rect fill="#FFFFFF" height="839.3977" style="stroke:#181818;stroke-width:0.6;" width="6" x="27.9" y="54.893"/><rect fill="#FFFFFF" height="826.6113" style="stroke:#181818;stroke-width:0.6;" width="6" x="209.7" y="67.6793"/><rect fill="#FFFFFF" height="791.4387" style="stroke:#181818;stroke-width:0.6;" width="6" x="455.7" y="85.2656"/><rect fill="#FFFFFF" height="17.5863" style="stroke:#181818;stroke-width:0.6;" width="6" x="609.9" y="128.2383"/><rect fill="#FFFFFF" height="17.5863" style="stroke:#181818;stroke-width:0.6;" width="6" x="609.9" y="329.4879"/><rect fill="#FFFFFF" height="17.5863" style="stroke:#181818;stroke-width:0.6;" width="6" x="677.7" y="163.4109"/><rect fill="#FFFFFF" height="17.5863" style="stroke:#181818;stroke-width:0.6;" width="6" x="677.7" y="364.6605"/><rect fill="#FFFFFF" height="300.1945" style="stroke:#181818;stroke-width:0.6;" width="6" x="780.3" y="399.8332"/><rect fill="#FFFFFF" height="24.1863" style="stroke:#181818;stroke-width:0.6;" width="6" x="783.3" y="506.7645"/><rect fill="#FFFFFF" height="141.5039" style="stroke:#181818;stroke-width:0.6;" width="6" x="1021.5" y="717.6141"/><rect fill="#FFFFFF" height="17.5863" style="stroke:#181818;stroke-width:0.6;" width="6" x="1137.9" y="784.5727"/><rect fill="#FFFFFF" height="17.5863" style="stroke:#181818;stroke-width:0.6;" width="6" x="1237.5" y="198.5836"/><rect fill="#FFFFFF" height="17.5863" style="stroke:#181818;stroke-width:0.6;" width="6" x="1350" y="233.7563"/><rect fill="#FFFFFF" height="17.5863" style="stroke:#181818;stroke-width:0.6;" width="6" x="1434.6" y="268.9289"/><rect fill="#FFFFFF" height="17.5863" style="stroke:#181818;stroke-width:0.6;" width="6" x="1434.6" y="602.4961"/><rect fill="#FFFFFF" height="17.5863" style="stroke:#181818;stroke-width:0.6;" width="6" x="1485.6" y="466.7918"/><rect fill="#FFFFFF" height="17.5863" style="stroke:#181818;stroke-width:0.6;" width="6" x="1485.6" y="552.7371"/><rect fill="#FFFFFF" height="17.5863" style="stroke:#181818;stroke-width:0.6;" width="6" x="1548.3" y="652.2551"/><rect fill="#FFFFFF" height="21.7863" style="stroke:#181818;stroke-width:0.6;" width="6" x="1548.3" y="819.7453"/><polygon fill="#181818" points="202.5,65.2793,208.5,67.6793,202.5,70.0793,204.9,67.6793" style="stroke:#181818;stroke-width:0.6;"/><line style="stroke:#181818;stroke-width:0.6;" x1="33.9" x2="206.1" y1="67.6793" y2="67.6793"/><text fill="#000000" font-family="sans-serif" font-size="7.8" font-weight="bold" lengthAdjust="spacing" textLength="5.4" x="38.1" y="64.834">1</text><text fill="#000000" font-family="sans-serif" font-size="7.8" lengthAdjust="spacing" textLength="156.6" x="45.9" y="64.834">Requests to consult tasks between a date</text><polygon fill="#181818" points="448.5,82.8656,454.5,85.2656,448.5,87.6656,450.9,85.2656" style="stroke:#181818;stroke-width:0.6;"/><line style="stroke:#181818;stroke-width:0.6;" x1="215.7" x2="452.1" y1="85.2656" y2="85.2656"/><text fill="#000000" font-family="sans-serif" font-size="7.8" font-weight="bold" lengthAdjust="spacing" textLength="5.4" x="219.9" y="82.4203">2</text><text fill="#000000" font-family="sans-serif" font-size="7.8" lengthAdjust="spacing" textLength="220.8" x="227.7" y="82.4203">getTasksForCollaboratorBetweenDates(startDate, endDate)</text><line style="stroke:#181818;stroke-width:0.6;" x1="461.7" x2="486.9" y1="102.852" y2="102.852"/><line style="stroke:#181818;stroke-width:0.6;" x1="486.9" x2="486.9" y1="102.852" y2="110.652"/><line style="stroke:#181818;stroke-width:0.6;" x1="462.3" x2="486.9" y1="110.652" y2="110.652"/><polygon fill="#181818" points="468.3,108.252,462.3,110.652,468.3,113.052,465.9,110.652" style="stroke:#181818;stroke-width:0.6;"/><text fill="#000000" font-family="sans-serif" font-size="7.8" font-weight="bold" lengthAdjust="spacing" textLength="5.4" x="465.9" y="100.0066">3</text><text fill="#000000" font-family="sans-serif" font-size="7.8" lengthAdjust="spacing" textLength="132" x="473.7" y="100.0066">getEmailCollaboratorFromSession()</text><polygon fill="#181818" points="602.7,125.8383,608.7,128.2383,602.7,130.6383,605.1,128.2383" style="stroke:#181818;stroke-width:0.6;"/><line style="stroke:#181818;stroke-width:0.6;" x1="461.7" x2="606.3" y1="128.2383" y2="128.2383"/><text fill="#000000" font-family="sans-serif" font-size="7.8" font-weight="bold" lengthAdjust="spacing" textLength="5.4" x="465.9" y="125.393">4</text><text fill="#000000" font-family="sans-serif" font-size="7.8" lengthAdjust="spacing" textLength="48.6" x="473.7" y="125.393">getInstance()</text><polygon fill="#181818" points="468.3,143.4246,462.3,145.8246,468.3,148.2246,465.9,145.8246" style="stroke:#181818;stroke-width:0.6;"/><line style="stroke:#181818;stroke-width:0.6;stroke-dasharray:2.0,2.0;" x1="464.7" x2="612.3" y1="145.8246" y2="145.8246"/><text fill="#000000" font-family="sans-serif" font-size="7.8" font-weight="bold" lengthAdjust="spacing" textLength="5.4" x="471.9" y="142.9793">5</text><text fill="#000000" font-family="sans-serif" font-size="7.8" lengthAdjust="spacing" textLength="45" x="479.7" y="142.9793">repositories</text><polygon fill="#181818" points="670.5,161.0109,676.5,163.4109,670.5,165.8109,672.9,163.4109" style="stroke:#181818;stroke-width:0.6;"/><line style="stroke:#181818;stroke-width:0.6;" x1="461.7" x2="674.1" y1="163.4109" y2="163.4109"/><text fill="#000000" font-family="sans-serif" font-size="7.8" font-weight="bold" lengthAdjust="spacing" textLength="5.4" x="465.9" y="160.5656">6</text><text fill="#000000" font-family="sans-serif" font-size="7.8" lengthAdjust="spacing" textLength="112.8" x="473.7" y="160.5656">getAuthenticationRepository()</text><polygon fill="#181818" points="468.3,178.5973,462.3,180.9973,468.3,183.3973,465.9,180.9973" style="stroke:#181818;stroke-width:0.6;"/><line style="stroke:#181818;stroke-width:0.6;stroke-dasharray:2.0,2.0;" x1="464.7" x2="680.1" y1="180.9973" y2="180.9973"/><text fill="#000000" font-family="sans-serif" font-size="7.8" font-weight="bold" lengthAdjust="spacing" textLength="5.4" x="471.9" y="178.152">7</text><text fill="#000000" font-family="sans-serif" font-size="7.8" lengthAdjust="spacing" textLength="94.8" x="479.7" y="178.152">authenticationRepository</text><polygon fill="#181818" points="1230.3,196.1836,1236.3,198.5836,1230.3,200.9836,1232.7,198.5836" style="stroke:#181818;stroke-width:0.6;"/><line style="stroke:#181818;stroke-width:0.6;" x1="461.7" x2="1233.9" y1="198.5836" y2="198.5836"/><text fill="#000000" font-family="sans-serif" font-size="7.8" font-weight="bold" lengthAdjust="spacing" textLength="5.4" x="465.9" y="195.7383">8</text><text fill="#000000" font-family="sans-serif" font-size="7.8" lengthAdjust="spacing" textLength="90.6" x="473.7" y="195.7383">getCurrentUserSession()</text><polygon fill="#181818" points="468.3,213.7699,462.3,216.1699,468.3,218.5699,465.9,216.1699" style="stroke:#181818;stroke-width:0.6;"/><line style="stroke:#181818;stroke-width:0.6;stroke-dasharray:2.0,2.0;" x1="464.7" x2="1239.9" y1="216.1699" y2="216.1699"/><text fill="#000000" font-family="sans-serif" font-size="7.8" font-weight="bold" lengthAdjust="spacing" textLength="5.4" x="471.9" y="213.3246">9</text><text fill="#000000" font-family="sans-serif" font-size="7.8" lengthAdjust="spacing" textLength="80.4" x="479.7" y="213.3246">authenticationFacade</text><polygon fill="#181818" points="1342.8,231.3563,1348.8,233.7563,1342.8,236.1563,1345.2,233.7563" style="stroke:#181818;stroke-width:0.6;"/><line style="stroke:#181818;stroke-width:0.6;" x1="461.7" x2="1346.4" y1="233.7563" y2="233.7563"/><text fill="#000000" font-family="sans-serif" font-size="7.8" font-weight="bold" lengthAdjust="spacing" textLength="10.8" x="465.9" y="230.9109">10</text><text fill="#000000" font-family="sans-serif" font-size="7.8" lengthAdjust="spacing" textLength="90.6" x="479.1" y="230.9109">getCurrentUserSession()</text><polygon fill="#181818" points="468.3,248.9426,462.3,251.3426,468.3,253.7426,465.9,251.3426" style="stroke:#181818;stroke-width:0.6;"/><line style="stroke:#181818;stroke-width:0.6;stroke-dasharray:2.0,2.0;" x1="464.7" x2="1352.4" y1="251.3426" y2="251.3426"/><text fill="#000000" font-family="sans-serif" font-size="7.8" font-weight="bold" lengthAdjust="spacing" textLength="10.8" x="471.9" y="248.4973">11</text><text fill="#000000" font-family="sans-serif" font-size="7.8" lengthAdjust="spacing" textLength="45" x="485.1" y="248.4973">userSession</text><polygon fill="#181818" points="1427.4,266.5289,1433.4,268.9289,1427.4,271.3289,1429.8,268.9289" style="stroke:#181818;stroke-width:0.6;"/><line style="stroke:#181818;stroke-width:0.6;" x1="461.7" x2="1431" y1="268.9289" y2="268.9289"/><text fill="#000000" font-family="sans-serif" font-size="7.8" font-weight="bold" lengthAdjust="spacing" textLength="10.8" x="465.9" y="266.0836">12</text><text fill="#000000" font-family="sans-serif" font-size="7.8" lengthAdjust="spacing" textLength="40.8" x="479.1" y="266.0836">getUserId()</text><polygon fill="#181818" points="468.3,284.1152,462.3,286.5152,468.3,288.9152,465.9,286.5152" style="stroke:#181818;stroke-width:0.6;"/><line style="stroke:#181818;stroke-width:0.6;stroke-dasharray:2.0,2.0;" x1="464.7" x2="1437" y1="286.5152" y2="286.5152"/><text fill="#000000" font-family="sans-serif" font-size="7.8" font-weight="bold" lengthAdjust="spacing" textLength="10.8" x="471.9" y="283.6699">13</text><text fill="#000000" font-family="sans-serif" font-size="7.8" lengthAdjust="spacing" textLength="20.4" x="485.1" y="283.6699">email</text><line style="stroke:#181818;stroke-width:0.6;stroke-dasharray:2.0,2.0;" x1="461.7" x2="486.9" y1="304.1016" y2="304.1016"/><line style="stroke:#181818;stroke-width:0.6;stroke-dasharray:2.0,2.0;" x1="486.9" x2="486.9" y1="304.1016" y2="311.9016"/><line style="stroke:#181818;stroke-width:0.6;stroke-dasharray:2.0,2.0;" x1="462.3" x2="486.9" y1="311.9016" y2="311.9016"/><polygon fill="#181818" points="468.3,309.5016,462.3,311.9016,468.3,314.3016,465.9,311.9016" style="stroke:#181818;stroke-width:0.6;"/><text fill="#000000" font-family="sans-serif" font-size="7.8" font-weight="bold" lengthAdjust="spacing" textLength="10.8" x="465.9" y="301.2562">14</text><text fill="#000000" font-family="sans-serif" font-size="7.8" lengthAdjust="spacing" textLength="20.4" x="479.1" y="301.2562">email</text><polygon fill="#181818" points="602.7,327.0879,608.7,329.4879,602.7,331.8879,605.1,329.4879" style="stroke:#181818;stroke-width:0.6;"/><line style="stroke:#181818;stroke-width:0.6;" x1="461.7" x2="606.3" y1="329.4879" y2="329.4879"/><text fill="#000000" font-family="sans-serif" font-size="7.8" font-weight="bold" lengthAdjust="spacing" textLength="10.8" x="465.9" y="326.6426">15</text><text fill="#000000" font-family="sans-serif" font-size="7.8" lengthAdjust="spacing" textLength="48.6" x="479.1" y="326.6426">getInstance()</text><polygon fill="#181818" points="468.3,344.6742,462.3,347.0742,468.3,349.4742,465.9,347.0742" style="stroke:#181818;stroke-width:0.6;"/><line style="stroke:#181818;stroke-width:0.6;stroke-dasharray:2.0,2.0;" x1="464.7" x2="612.3" y1="347.0742" y2="347.0742"/><text fill="#000000" font-family="sans-serif" font-size="7.8" font-weight="bold" lengthAdjust="spacing" textLength="10.8" x="471.9" y="344.2289">16</text><text fill="#000000" font-family="sans-serif" font-size="7.8" lengthAdjust="spacing" textLength="45" x="485.1" y="344.2289">repositories</text><polygon fill="#181818" points="670.5,362.2605,676.5,364.6605,670.5,367.0605,672.9,364.6605" style="stroke:#181818;stroke-width:0.6;"/><line style="stroke:#181818;stroke-width:0.6;" x1="461.7" x2="674.1" y1="364.6605" y2="364.6605"/><text fill="#000000" font-family="sans-serif" font-size="7.8" font-weight="bold" lengthAdjust="spacing" textLength="10.8" x="465.9" y="361.8152">17</text><text fill="#000000" font-family="sans-serif" font-size="7.8" lengthAdjust="spacing" textLength="45" x="479.1" y="361.8152">getAgenda()</text><polygon fill="#181818" points="468.3,379.8469,462.3,382.2469,468.3,384.6469,465.9,382.2469" style="stroke:#181818;stroke-width:0.6;"/><line style="stroke:#181818;stroke-width:0.6;stroke-dasharray:2.0,2.0;" x1="464.7" x2="680.1" y1="382.2469" y2="382.2469"/><text fill="#000000" font-family="sans-serif" font-size="7.8" font-weight="bold" lengthAdjust="spacing" textLength="10.8" x="471.9" y="379.4016">18</text><text fill="#000000" font-family="sans-serif" font-size="7.8" lengthAdjust="spacing" textLength="27" x="485.1" y="379.4016">agenda</text><polygon fill="#181818" points="773.1,397.4332,779.1,399.8332,773.1,402.2332,775.5,399.8332" style="stroke:#181818;stroke-width:0.6;"/><line style="stroke:#181818;stroke-width:0.6;" x1="461.7" x2="776.7" y1="399.8332" y2="399.8332"/><text fill="#000000" font-family="sans-serif" font-size="7.8" font-weight="bold" lengthAdjust="spacing" textLength="10.8" x="465.9" y="396.9879">19</text><text fill="#000000" font-family="sans-serif" font-size="7.8" lengthAdjust="spacing" textLength="294" x="479.1" y="396.9879">getTasksForCollaboratorBetweenDates (collaboratorEmail, startDate, endDate)</text><polygon fill="#181818" points="1503.3,415.0195,1509.3,417.4195,1503.3,419.8195,1505.7,417.4195" style="stroke:#181818;stroke-width:0.6;"/><line style="stroke:#181818;stroke-width:0.6;" x1="786.3" x2="1506.9" y1="417.4195" y2="417.4195"/><text fill="#000000" font-family="sans-serif" font-size="7.8" font-weight="bold" lengthAdjust="spacing" textLength="10.8" x="790.5" y="414.5742">20</text><text fill="#000000" font-family="sans-serif" font-size="7.8" lengthAdjust="spacing" textLength="22.8" x="803.7" y="414.5742">create</text><rect fill="#E3E3E3" height="28.1859" rx="1.5" ry="1.5" style="stroke:#181818;stroke-width:0.3;" width="81.6" x="1510.5" y="404.6332"/><text fill="#000000" font-family="sans-serif" font-size="8.4" lengthAdjust="spacing" textLength="73.2" x="1514.7" y="416.9543">tasksCollaborator</text><text fill="#000000" font-family="sans-serif" font-size="8.4" lengthAdjust="spacing" textLength="50.4" x="1526.1" y="426.8473">:List&lt;Entry&gt;</text><path d="M744.6,443.6191 L789,443.6191 L789,448.0055 L783,454.0055 L744.6,454.0055 L744.6,443.6191 " fill="#EEEEEE" style="stroke:#000000;stroke-width:0.8999999999999999;"/><rect fill="none" height="239.4223" style="stroke:#000000;stroke-width:0.8999999999999999;" width="865.5" x="744.6" y="443.6191"/><text fill="#000000" font-family="sans-serif" font-size="7.8" font-weight="bold" lengthAdjust="spacing" textLength="17.4" x="753.6" y="451.7602">loop</text><text fill="#000000" font-family="sans-serif" font-size="6.6" font-weight="bold" lengthAdjust="spacing" textLength="87" x="798" y="451.2">[For each entry in agenda]</text><polygon fill="#181818" points="1478.4,464.3918,1484.4,466.7918,1478.4,469.1918,1480.8,466.7918" style="stroke:#181818;stroke-width:0.6;"/><line style="stroke:#181818;stroke-width:0.6;" x1="786.3" x2="1482" y1="466.7918" y2="466.7918"/><text fill="#000000" font-family="sans-serif" font-size="7.8" font-weight="bold" lengthAdjust="spacing" textLength="10.8" x="790.5" y="463.9465">21</text><text fill="#000000" font-family="sans-serif" font-size="7.8" lengthAdjust="spacing" textLength="63.6" x="803.7" y="463.9465">getStartingDate()</text><polygon fill="#181818" points="792.9,481.9781,786.9,484.3781,792.9,486.7781,790.5,484.3781" style="stroke:#181818;stroke-width:0.6;"/><line style="stroke:#181818;stroke-width:0.6;stroke-dasharray:2.0,2.0;" x1="789.3" x2="1488" y1="484.3781" y2="484.3781"/><text fill="#000000" font-family="sans-serif" font-size="7.8" font-weight="bold" lengthAdjust="spacing" textLength="10.8" x="796.5" y="481.5328">22</text><text fill="#000000" font-family="sans-serif" font-size="7.8" lengthAdjust="spacing" textLength="46.8" x="809.7" y="481.5328">startingDate</text><line style="stroke:#181818;stroke-width:0.6;" x1="786.3" x2="814.5" y1="498.9645" y2="498.9645"/><line style="stroke:#181818;stroke-width:0.6;" x1="814.5" x2="814.5" y1="498.9645" y2="506.7645"/><line style="stroke:#181818;stroke-width:0.6;" x1="789.9" x2="814.5" y1="506.7645" y2="506.7645"/><polygon fill="#181818" points="795.9,504.3645,789.9,506.7645,795.9,509.1645,793.5,506.7645" style="stroke:#181818;stroke-width:0.6;"/><text fill="#000000" font-family="sans-serif" font-size="7.8" font-weight="bold" lengthAdjust="spacing" textLength="10.8" x="793.5" y="496.1191">23</text><text fill="#000000" font-family="sans-serif" font-size="7.8" lengthAdjust="spacing" textLength="213.6" x="806.7" y="496.1191">checkDateWithinRange(startingDate, startDate, endDate)</text><line style="stroke:#181818;stroke-width:0.6;stroke-dasharray:2.0,2.0;" x1="789.3" x2="814.5" y1="530.3508" y2="530.3508"/><line style="stroke:#181818;stroke-width:0.6;stroke-dasharray:2.0,2.0;" x1="814.5" x2="814.5" y1="530.3508" y2="538.1508"/><line style="stroke:#181818;stroke-width:0.6;stroke-dasharray:2.0,2.0;" x1="786.3" x2="814.5" y1="538.1508" y2="538.1508"/><polygon fill="#181818" points="792.3,535.7508,786.3,538.1508,792.3,540.5508,789.9,538.1508" style="stroke:#181818;stroke-width:0.6;"/><text fill="#000000" font-family="sans-serif" font-size="7.8" font-weight="bold" lengthAdjust="spacing" textLength="10.8" x="793.5" y="527.5055">24</text><text fill="#000000" font-family="sans-serif" font-size="7.8" lengthAdjust="spacing" textLength="2.4" x="806.7" y="527.5055">&#160;</text><polygon fill="#181818" points="1478.4,550.3371,1484.4,552.7371,1478.4,555.1371,1480.8,552.7371" style="stroke:#181818;stroke-width:0.6;"/><line style="stroke:#181818;stroke-width:0.6;" x1="786.3" x2="1482" y1="552.7371" y2="552.7371"/><text fill="#000000" font-family="sans-serif" font-size="7.8" font-weight="bold" lengthAdjust="spacing" textLength="10.8" x="790.5" y="549.8918">25</text><text fill="#000000" font-family="sans-serif" font-size="7.8" lengthAdjust="spacing" textLength="63" x="803.7" y="549.8918">getTeamAssign()</text><polygon fill="#181818" points="792.9,567.9234,786.9,570.3234,792.9,572.7234,790.5,570.3234" style="stroke:#181818;stroke-width:0.6;"/><line style="stroke:#181818;stroke-width:0.6;stroke-dasharray:2.0,2.0;" x1="789.3" x2="1488" y1="570.3234" y2="570.3234"/><text fill="#000000" font-family="sans-serif" font-size="7.8" font-weight="bold" lengthAdjust="spacing" textLength="10.8" x="796.5" y="567.4781">26</text><text fill="#000000" font-family="sans-serif" font-size="7.8" lengthAdjust="spacing" textLength="44.4" x="809.7" y="567.4781">teamAssign</text><path d="M750.6,579.3234 L795,579.3234 L795,583.7098 L789,589.7098 L750.6,589.7098 L750.6,579.3234 " fill="#EEEEEE" style="stroke:#000000;stroke-width:0.8999999999999999;"/><rect fill="none" height="99.518" style="stroke:#000000;stroke-width:0.8999999999999999;" width="853.5" x="750.6" y="579.3234"/><text fill="#000000" font-family="sans-serif" font-size="7.8" font-weight="bold" lengthAdjust="spacing" textLength="17.4" x="759.6" y="587.4645">loop</text><text fill="#000000" font-family="sans-serif" font-size="6.6" font-weight="bold" lengthAdjust="spacing" textLength="126.6" x="804" y="586.9043">[For each collaborator in teamAssign]</text><polygon fill="#181818" points="1427.4,600.0961,1433.4,602.4961,1427.4,604.8961,1429.8,602.4961" style="stroke:#181818;stroke-width:0.6;"/><line style="stroke:#181818;stroke-width:0.6;" x1="786.3" x2="1431" y1="602.4961" y2="602.4961"/><text fill="#000000" font-family="sans-serif" font-size="7.8" font-weight="bold" lengthAdjust="spacing" textLength="10.8" x="790.5" y="599.6508">27</text><text fill="#000000" font-family="sans-serif" font-size="7.8" lengthAdjust="spacing" textLength="37.2" x="803.7" y="599.6508">getEmail()</text><polygon fill="#181818" points="792.9,617.6824,786.9,620.0824,792.9,622.4824,790.5,620.0824" style="stroke:#181818;stroke-width:0.6;"/><line style="stroke:#181818;stroke-width:0.6;stroke-dasharray:2.0,2.0;" x1="789.3" x2="1437" y1="620.0824" y2="620.0824"/><text fill="#000000" font-family="sans-serif" font-size="7.8" font-weight="bold" lengthAdjust="spacing" textLength="10.8" x="796.5" y="617.2371">28</text><text fill="#000000" font-family="sans-serif" font-size="7.8" lengthAdjust="spacing" textLength="20.4" x="809.7" y="617.2371">email</text><path d="M756.6,629.0824 L793.8,629.0824 L793.8,633.4688 L787.8,639.4688 L756.6,639.4688 L756.6,629.0824 " fill="#EEEEEE" style="stroke:#000000;stroke-width:0.8999999999999999;"/><rect fill="none" height="45.559" style="stroke:#000000;stroke-width:0.8999999999999999;" width="841.5" x="756.6" y="629.0824"/><text fill="#000000" font-family="sans-serif" font-size="7.8" font-weight="bold" lengthAdjust="spacing" textLength="10.2" x="765.6" y="637.2234">alt</text><text fill="#000000" font-family="sans-serif" font-size="6.6" font-weight="bold" lengthAdjust="spacing" textLength="99" x="802.8" y="636.6633">[email == collaboratorEmail]</text><polygon fill="#181818" points="1541.1,649.8551,1547.1,652.2551,1541.1,654.6551,1543.5,652.2551" style="stroke:#181818;stroke-width:0.6;"/><line style="stroke:#181818;stroke-width:0.6;" x1="786.3" x2="1544.7" y1="652.2551" y2="652.2551"/><text fill="#000000" font-family="sans-serif" font-size="7.8" font-weight="bold" lengthAdjust="spacing" textLength="10.8" x="790.5" y="649.4098">29</text><text fill="#000000" font-family="sans-serif" font-size="7.8" lengthAdjust="spacing" textLength="37.8" x="803.7" y="649.4098">add(entry)</text><polygon fill="#181818" points="792.9,667.4414,786.9,669.8414,792.9,672.2414,790.5,669.8414" style="stroke:#181818;stroke-width:0.6;"/><line style="stroke:#181818;stroke-width:0.6;stroke-dasharray:2.0,2.0;" x1="789.3" x2="1550.7" y1="669.8414" y2="669.8414"/><text fill="#000000" font-family="sans-serif" font-size="7.8" font-weight="bold" lengthAdjust="spacing" textLength="10.8" x="796.5" y="666.9961">30</text><text fill="#000000" font-family="sans-serif" font-size="7.8" lengthAdjust="spacing" textLength="2.4" x="809.7" y="666.9961">&#160;</text><polygon fill="#181818" points="468.3,697.6277,462.3,700.0277,468.3,702.4277,465.9,700.0277" style="stroke:#181818;stroke-width:0.6;"/><line style="stroke:#181818;stroke-width:0.6;stroke-dasharray:2.0,2.0;" x1="464.7" x2="782.7" y1="700.0277" y2="700.0277"/><text fill="#000000" font-family="sans-serif" font-size="7.8" font-weight="bold" lengthAdjust="spacing" textLength="10.8" x="471.9" y="697.1824">31</text><text fill="#000000" font-family="sans-serif" font-size="7.8" lengthAdjust="spacing" textLength="67.2" x="485.1" y="697.1824">tasksCollaborator</text><polygon fill="#181818" points="1014.3,715.2141,1020.3,717.6141,1014.3,720.0141,1016.7,717.6141" style="stroke:#181818;stroke-width:0.6;"/><line style="stroke:#181818;stroke-width:0.6;" x1="461.7" x2="1017.9" y1="717.6141" y2="717.6141"/><text fill="#000000" font-family="sans-serif" font-size="7.8" font-weight="bold" lengthAdjust="spacing" textLength="10.8" x="465.9" y="714.7688">32</text><text fill="#000000" font-family="sans-serif" font-size="7.8" lengthAdjust="spacing" textLength="93" x="479.1" y="714.7688">toDTOList(entryListDTO)</text><polygon fill="#181818" points="1503.3,732.8004,1509.3,735.2004,1503.3,737.6004,1505.7,735.2004" style="stroke:#181818;stroke-width:0.6;"/><line style="stroke:#181818;stroke-width:0.6;" x1="1027.5" x2="1506.9" y1="735.2004" y2="735.2004"/><text fill="#000000" font-family="sans-serif" font-size="7.8" font-weight="bold" lengthAdjust="spacing" textLength="10.8" x="1031.7" y="732.3551">33</text><text fill="#000000" font-family="sans-serif" font-size="7.8" lengthAdjust="spacing" textLength="27.6" x="1044.9" y="732.3551">create()</text><rect fill="#E3E3E3" height="28.1859" rx="1.5" ry="1.5" style="stroke:#181818;stroke-width:0.3;" width="81.6" x="1510.5" y="722.4141"/><text fill="#000000" font-family="sans-serif" font-size="8.4" lengthAdjust="spacing" textLength="73.2" x="1514.7" y="734.7352">tasksCollaborator</text><text fill="#000000" font-family="sans-serif" font-size="8.4" lengthAdjust="spacing" textLength="50.4" x="1526.1" y="744.6281">:List&lt;Entry&gt;</text><path d="M987,761.4 L1031.4,761.4 L1031.4,765.7863 L1025.4,771.7863 L987,771.7863 L987,761.4 " fill="#EEEEEE" style="stroke:#000000;stroke-width:0.8999999999999999;"/><rect fill="none" height="63.1453" style="stroke:#000000;stroke-width:0.8999999999999999;" width="611.1" x="987" y="761.4"/><text fill="#000000" font-family="sans-serif" font-size="7.8" font-weight="bold" lengthAdjust="spacing" textLength="17.4" x="996" y="769.541">loop</text><text fill="#000000" font-family="sans-serif" font-size="6.6" font-weight="bold" lengthAdjust="spacing" textLength="126" x="1040.4" y="768.9809">[For each task space in entryListDTO]</text><polygon fill="#181818" points="1130.7,782.1727,1136.7,784.5727,1130.7,786.9727,1133.1,784.5727" style="stroke:#181818;stroke-width:0.6;"/><line style="stroke:#181818;stroke-width:0.6;" x1="1027.5" x2="1134.3" y1="784.5727" y2="784.5727"/><text fill="#000000" font-family="sans-serif" font-size="7.8" font-weight="bold" lengthAdjust="spacing" textLength="10.8" x="1031.7" y="781.7273">34</text><text fill="#000000" font-family="sans-serif" font-size="7.8" lengthAdjust="spacing" textLength="85.8" x="1044.9" y="781.7273">entryListToDTO(entry))</text><polygon fill="#181818" points="1034.1,799.759,1028.1,802.159,1034.1,804.559,1031.7,802.159" style="stroke:#181818;stroke-width:0.6;"/><line style="stroke:#181818;stroke-width:0.6;stroke-dasharray:2.0,2.0;" x1="1030.5" x2="1140.3" y1="802.159" y2="802.159"/><text fill="#000000" font-family="sans-serif" font-size="7.8" font-weight="bold" lengthAdjust="spacing" textLength="10.8" x="1037.7" y="799.3137">35</text><text fill="#000000" font-family="sans-serif" font-size="7.8" lengthAdjust="spacing" textLength="49.8" x="1050.9" y="799.3137">entryListDTO</text><polygon fill="#181818" points="1541.1,817.3453,1547.1,819.7453,1541.1,822.1453,1543.5,819.7453" style="stroke:#181818;stroke-width:0.6;"/><line style="stroke:#181818;stroke-width:0.6;" x1="1027.5" x2="1544.7" y1="819.7453" y2="819.7453"/><text fill="#000000" font-family="sans-serif" font-size="7.8" font-weight="bold" lengthAdjust="spacing" textLength="10.8" x="1031.7" y="816.9">36</text><text fill="#000000" font-family="sans-serif" font-size="7.8" lengthAdjust="spacing" textLength="34.8" x="1044.9" y="816.9">add(task)</text><polygon fill="#181818" points="1034.1,839.1316,1028.1,841.5316,1034.1,843.9316,1031.7,841.5316" style="stroke:#181818;stroke-width:0.6;"/><line style="stroke:#181818;stroke-width:0.6;stroke-dasharray:2.0,2.0;" x1="1030.5" x2="1550.7" y1="841.5316" y2="841.5316"/><text fill="#000000" font-family="sans-serif" font-size="7.8" font-weight="bold" lengthAdjust="spacing" textLength="10.8" x="1037.7" y="838.6863">37</text><text fill="#000000" font-family="sans-serif" font-size="7.8" lengthAdjust="spacing" textLength="67.2" x="1050.9" y="838.6863">tasksCollaborator</text><polygon fill="#181818" points="468.3,856.718,462.3,859.118,468.3,861.518,465.9,859.118" style="stroke:#181818;stroke-width:0.6;"/><line style="stroke:#181818;stroke-width:0.6;stroke-dasharray:2.0,2.0;" x1="464.7" x2="1023.9" y1="859.118" y2="859.118"/><text fill="#000000" font-family="sans-serif" font-size="7.8" font-weight="bold" lengthAdjust="spacing" textLength="10.8" x="471.9" y="856.2727">38</text><text fill="#000000" font-family="sans-serif" font-size="7.8" lengthAdjust="spacing" textLength="67.2" x="485.1" y="856.2727">tasksCollaborator</text><polygon fill="#181818" points="222.3,874.3043,216.3,876.7043,222.3,879.1043,219.9,876.7043" style="stroke:#181818;stroke-width:0.6;"/><line style="stroke:#181818;stroke-width:0.6;stroke-dasharray:2.0,2.0;" x1="218.7" x2="458.1" y1="876.7043" y2="876.7043"/><text fill="#000000" font-family="sans-serif" font-size="7.8" font-weight="bold" lengthAdjust="spacing" textLength="10.8" x="225.9" y="873.859">39</text><text fill="#000000" font-family="sans-serif" font-size="7.8" lengthAdjust="spacing" textLength="67.2" x="239.1" y="873.859">tasksCollaborator</text><polygon fill="#181818" points="37.5,891.8906,31.5,894.2906,37.5,896.6906,35.1,894.2906" style="stroke:#181818;stroke-width:0.6;"/><line style="stroke:#181818;stroke-width:0.6;stroke-dasharray:2.0,2.0;" x1="33.9" x2="212.1" y1="894.2906" y2="894.2906"/><text fill="#000000" font-family="sans-serif" font-size="7.8" font-weight="bold" lengthAdjust="spacing" textLength="10.8" x="41.1" y="891.4453">40</text><text fill="#000000" font-family="sans-serif" font-size="7.8" lengthAdjust="spacing" textLength="71.4" x="54.3" y="891.4453">Shows list of tasks</text><!--SRC=[hLVRRk8m47ttLrYyB5srFu2sbIYbAoIshHAgrKfzCObB8eBDnivs-_Sx7eV4pWrebnTYU-RC6VkCBsgRYZtBsOxkf91HaiiTfpelE57Lo9v5MxRXeNxFECrvf9dOPAw1IbWitrAneQyiKvmGLcWfYjsQvuHyITAOqrSfzLh-9IpICgUZcSmojfOvWzQ8CaLdZylbzFOncAuU0mAeEetIFHEQZYOpALIHwHLJM_MyGEldnO0DVEiSy7c9l0gM3Uk0xwLA8NJA5Te4yoVV97SiNaIdG-Xxm0I9c4rUn1G_q6hwVVvmDsq4dmExznzilo_vSMnFdvxcZSHnO9agVQSbS31Vtx0FsZUrArgi7Xji2ft0Q1endKfHqNyt_7g64D7t6yAyPn6BUObd6nM2RVhUXU8vM3_3NyYL0WGqDzqTQOCbpXFQp1zMmIzYf9F-OPhxMY5kYrxTW3ReX0RyTy6LLbHB6bbjK6t4GTTSlt4kAACnO14AlmeOP4Mm1p00oIW7i3RSwkfUvgviRotG7JYgiTAGWlcyX4M9pSS50ddmgCIgs_mmGXa90yrtBCtSAFTGaELyZI-wdK6BwBiGm494V7pXcLNXZSYz4UYWLrLqL_AUMSpx8HmE8PBeKzS0gR35AdHezIbvW6BOpT57GhQp8i-Xon5b7yz6OVX6tbWlzx8gUdWF1N0pAElkVFPb-1Pps- -mBcgy8R9TU0UYMEo6ek6sYFjeOV5xGwR7eS9DEVIHQ7lRy0rlKjiuQgLz9TEjzHDAfQzCt1AnKUq9qHCpz89wbO1kvAZc3m7jwNFQ1aR7aJE2kz0bFMbJAyyuRntChumEF4RQdier_k4qmot-PlJrAv2CScxsunPE9kMU0dCAwIRsnAEfE4p6G5WyDMpseKa4hYScXOOMlLpAWwOvRf6kt2bL3cBBtbcP7iIQPOKO9JpQ6hYVgKvI4S0TYu_TCCFhSVQwLB67w1zVN6UMLvpjfh1jRCJ_cMDTuNrWXdtPkE8swd6W1tB3pQW-beUoQkz5tcvMvTJUq8vkQXW7hY_eIg-lQQjIFrLyG8h5yHWBQo31epXj4iT3doR23uI6ykZiH5aCZVXZJgsKTy4M5N96vHmsPkV63uWIBkyccx5xc-yvCDst0l4pg0REtNARrqg_SWmGLV02vAPkl0T7npHw95pZITrQcOHBlGq8xeHGvIYkZpUddk-0iivAv-YSsa8oLf-gewCwFgskV94DolPpzUPDqmSgfLFJrKqENtFzM0vE_ReohpT3n7qOJcYOo3T5CyY3obSBIHeG-Fvp8Hs4Vm00]--></g></svg>