<?xml version="1.0" encoding="us-ascii" standalone="no"?><svg xmlns="http://www.w3.org/2000/svg" xmlns:xlink="http://www.w3.org/1999/xlink" contentStyleType="text/css" height="721px" preserveAspectRatio="none" style="width:532px;height:721px;background:#FFFFFF;" version="1.1" viewBox="0 0 532 721" width="532px" zoomAndPan="magnify"><defs/><g><!--class ConsultTasksUI--><g id="elem_ConsultTasksUI"><rect codeLine="8" fill="#F1F1F1" height="48" id="ConsultTasksUI" rx="2.5" ry="2.5" style="stroke:#181818;stroke-width:0.5;" width="130" x="261" y="7"/><ellipse cx="276" cy="23" fill="#ADD1B2" rx="11" ry="11" style="stroke:#181818;stroke-width:1.0;"/><path d="M278.7656,18.875 Q278.9219,18.6563 279.1094,18.5469 Q279.2969,18.4375 279.5156,18.4375 Q279.8906,18.4375 280.125,18.7031 Q280.3594,18.9531 280.3594,19.5625 L280.3594,21.0156 Q280.3594,21.625 280.125,21.8906 Q279.8906,22.1563 279.5156,22.1563 Q279.1719,22.1563 278.9688,21.9531 Q278.7656,21.7656 278.6563,21.25 Q278.6094,20.8906 278.4219,20.7031 Q278.0938,20.3281 277.4844,20.1094 Q276.875,19.8906 276.25,19.8906 Q275.4844,19.8906 274.8438,20.2188 Q274.2188,20.5469 273.7188,21.2969 Q273.2344,22.0469 273.2344,23.0781 L273.2344,24.1719 Q273.2344,25.4063 274.125,26.2344 Q275.0156,27.0469 276.6094,27.0469 Q277.5469,27.0469 278.2031,26.7969 Q278.5938,26.6406 279.0156,26.2031 Q279.2813,25.9375 279.4219,25.8594 Q279.5781,25.7813 279.7813,25.7813 Q280.1094,25.7813 280.3594,26.0469 Q280.625,26.2969 280.625,26.6406 Q280.625,26.9844 280.2813,27.3906 Q279.7813,27.9688 278.9844,28.2969 Q277.9063,28.75 276.6094,28.75 Q275.0938,28.75 273.8906,28.125 Q272.9063,27.625 272.2188,26.5625 Q271.5313,25.4844 271.5313,24.2031 L271.5313,23.0469 Q271.5313,21.7188 272.1406,20.5781 Q272.7656,19.4219 273.8594,18.8125 Q274.9531,18.1875 276.1875,18.1875 Q276.9219,18.1875 277.5625,18.3594 Q278.2188,18.5156 278.7656,18.875 Z " fill="#000000"/><text fill="#000000" font-family="sans-serif" font-size="14" lengthAdjust="spacing" textLength="98" x="290" y="28.7969">ConsultTasksUI</text><line style="stroke:#181818;stroke-width:0.5;" x1="262" x2="390" y1="39" y2="39"/><line style="stroke:#181818;stroke-width:0.5;" x1="262" x2="390" y1="47" y2="47"/></g><!--class ConsultTasksController--><g id="elem_ConsultTasksController"><rect codeLine="10" fill="#F1F1F1" height="103.8633" id="ConsultTasksController" rx="2.5" ry="2.5" style="stroke:#181818;stroke-width:0.5;" width="399" x="126.5" y="116"/><ellipse cx="247.75" cy="132" fill="#ADD1B2" rx="11" ry="11" style="stroke:#181818;stroke-width:1.0;"/><path d="M250.5156,127.875 Q250.6719,127.6563 250.8594,127.5469 Q251.0469,127.4375 251.2656,127.4375 Q251.6406,127.4375 251.875,127.7031 Q252.1094,127.9531 252.1094,128.5625 L252.1094,130.0156 Q252.1094,130.625 251.875,130.8906 Q251.6406,131.1563 251.2656,131.1563 Q250.9219,131.1563 250.7188,130.9531 Q250.5156,130.7656 250.4063,130.25 Q250.3594,129.8906 250.1719,129.7031 Q249.8438,129.3281 249.2344,129.1094 Q248.625,128.8906 248,128.8906 Q247.2344,128.8906 246.5938,129.2188 Q245.9688,129.5469 245.4688,130.2969 Q244.9844,131.0469 244.9844,132.0781 L244.9844,133.1719 Q244.9844,134.4063 245.875,135.2344 Q246.7656,136.0469 248.3594,136.0469 Q249.2969,136.0469 249.9531,135.7969 Q250.3438,135.6406 250.7656,135.2031 Q251.0313,134.9375 251.1719,134.8594 Q251.3281,134.7813 251.5313,134.7813 Q251.8594,134.7813 252.1094,135.0469 Q252.375,135.2969 252.375,135.6406 Q252.375,135.9844 252.0313,136.3906 Q251.5313,136.9688 250.7344,137.2969 Q249.6563,137.75 248.3594,137.75 Q246.8438,137.75 245.6406,137.125 Q244.6563,136.625 243.9688,135.5625 Q243.2813,134.4844 243.2813,133.2031 L243.2813,132.0469 Q243.2813,130.7188 243.8906,129.5781 Q244.5156,128.4219 245.6094,127.8125 Q246.7031,127.1875 247.9375,127.1875 Q248.6719,127.1875 249.3125,127.3594 Q249.9688,127.5156 250.5156,127.875 Z " fill="#000000"/><text fill="#000000" font-family="sans-serif" font-size="14" lengthAdjust="spacing" textLength="148" x="268.25" y="137.7969">ConsultTasksController</text><line style="stroke:#181818;stroke-width:0.5;" x1="127.5" x2="524.5" y1="148" y2="148"/><line style="stroke:#181818;stroke-width:0.5;" x1="127.5" x2="524.5" y1="156" y2="156"/><text fill="#000000" font-family="sans-serif" font-size="14" lengthAdjust="spacing" textLength="193" x="132.5" y="175.1074">-getAuthenticationRepository()</text><text fill="#000000" font-family="sans-serif" font-size="14" lengthAdjust="spacing" textLength="230" x="132.5" y="193.7285">-getEmailCollaboratorFromSession()</text><text fill="#000000" font-family="sans-serif" font-size="14" lengthAdjust="spacing" textLength="387" x="132.5" y="212.3496">+getTasksForCollaboratorBetweenDates(startDate, endDate)</text></g><!--class Repositories--><g id="elem_Repositories"><rect codeLine="16" fill="#F1F1F1" height="103.8633" id="Repositories" rx="2.5" ry="2.5" style="stroke:#181818;stroke-width:0.5;" width="190" x="48" y="281"/><ellipse cx="99.25" cy="297" fill="#ADD1B2" rx="11" ry="11" style="stroke:#181818;stroke-width:1.0;"/><path d="M102.0156,292.875 Q102.1719,292.6563 102.3594,292.5469 Q102.5469,292.4375 102.7656,292.4375 Q103.1406,292.4375 103.375,292.7031 Q103.6094,292.9531 103.6094,293.5625 L103.6094,295.0156 Q103.6094,295.625 103.375,295.8906 Q103.1406,296.1563 102.7656,296.1563 Q102.4219,296.1563 102.2188,295.9531 Q102.0156,295.7656 101.9063,295.25 Q101.8594,294.8906 101.6719,294.7031 Q101.3438,294.3281 100.7344,294.1094 Q100.125,293.8906 99.5,293.8906 Q98.7344,293.8906 98.0938,294.2188 Q97.4688,294.5469 96.9688,295.2969 Q96.4844,296.0469 96.4844,297.0781 L96.4844,298.1719 Q96.4844,299.4063 97.375,300.2344 Q98.2656,301.0469 99.8594,301.0469 Q100.7969,301.0469 101.4531,300.7969 Q101.8438,300.6406 102.2656,300.2031 Q102.5313,299.9375 102.6719,299.8594 Q102.8281,299.7813 103.0313,299.7813 Q103.3594,299.7813 103.6094,300.0469 Q103.875,300.2969 103.875,300.6406 Q103.875,300.9844 103.5313,301.3906 Q103.0313,301.9688 102.2344,302.2969 Q101.1563,302.75 99.8594,302.75 Q98.3438,302.75 97.1406,302.125 Q96.1563,301.625 95.4688,300.5625 Q94.7813,299.4844 94.7813,298.2031 L94.7813,297.0469 Q94.7813,295.7188 95.3906,294.5781 Q96.0156,293.4219 97.1094,292.8125 Q98.2031,292.1875 99.4375,292.1875 Q100.1719,292.1875 100.8125,292.3594 Q101.4688,292.5156 102.0156,292.875 Z " fill="#000000"/><text fill="#000000" font-family="sans-serif" font-size="14" lengthAdjust="spacing" textLength="79" x="119.75" y="302.7969">Repositories</text><line style="stroke:#181818;stroke-width:0.5;" x1="49" x2="237" y1="313" y2="313"/><line style="stroke:#181818;stroke-width:0.5;" x1="49" x2="237" y1="321" y2="321"/><text fill="#000000" font-family="sans-serif" font-size="14" lengthAdjust="spacing" textLength="94" x="54" y="340.1074">-Repositories()</text><text fill="#000000" font-family="sans-serif" font-size="14" lengthAdjust="spacing" textLength="178" x="54" y="358.7285">+getInstance(): Repositories</text><text fill="#000000" font-family="sans-serif" font-size="14" lengthAdjust="spacing" textLength="95" x="54" y="377.3496">+getToDoList()</text></g><!--class Agenda--><g id="elem_Agenda"><rect codeLine="22" fill="#F1F1F1" height="85.2422" id="Agenda" rx="2.5" ry="2.5" style="stroke:#181818;stroke-width:0.5;" width="516" x="7" y="446"/><ellipse cx="236.25" cy="462" fill="#ADD1B2" rx="11" ry="11" style="stroke:#181818;stroke-width:1.0;"/><path d="M239.0156,457.875 Q239.1719,457.6563 239.3594,457.5469 Q239.5469,457.4375 239.7656,457.4375 Q240.1406,457.4375 240.375,457.7031 Q240.6094,457.9531 240.6094,458.5625 L240.6094,460.0156 Q240.6094,460.625 240.375,460.8906 Q240.1406,461.1563 239.7656,461.1563 Q239.4219,461.1563 239.2188,460.9531 Q239.0156,460.7656 238.9063,460.25 Q238.8594,459.8906 238.6719,459.7031 Q238.3438,459.3281 237.7344,459.1094 Q237.125,458.8906 236.5,458.8906 Q235.7344,458.8906 235.0938,459.2188 Q234.4688,459.5469 233.9688,460.2969 Q233.4844,461.0469 233.4844,462.0781 L233.4844,463.1719 Q233.4844,464.4063 234.375,465.2344 Q235.2656,466.0469 236.8594,466.0469 Q237.7969,466.0469 238.4531,465.7969 Q238.8438,465.6406 239.2656,465.2031 Q239.5313,464.9375 239.6719,464.8594 Q239.8281,464.7813 240.0313,464.7813 Q240.3594,464.7813 240.6094,465.0469 Q240.875,465.2969 240.875,465.6406 Q240.875,465.9844 240.5313,466.3906 Q240.0313,466.9688 239.2344,467.2969 Q238.1563,467.75 236.8594,467.75 Q235.3438,467.75 234.1406,467.125 Q233.1563,466.625 232.4688,465.5625 Q231.7813,464.4844 231.7813,463.2031 L231.7813,462.0469 Q231.7813,460.7188 232.3906,459.5781 Q233.0156,458.4219 234.1094,457.8125 Q235.2031,457.1875 236.4375,457.1875 Q237.1719,457.1875 237.8125,457.3594 Q238.4688,457.5156 239.0156,457.875 Z " fill="#000000"/><text fill="#000000" font-family="sans-serif" font-size="14" lengthAdjust="spacing" textLength="49" x="256.75" y="467.7969">Agenda</text><line style="stroke:#181818;stroke-width:0.5;" x1="8" x2="522" y1="478" y2="478"/><line style="stroke:#181818;stroke-width:0.5;" x1="8" x2="522" y1="486" y2="486"/><text fill="#000000" font-family="sans-serif" font-size="14" lengthAdjust="spacing" textLength="504" x="13" y="505.1074">+getTasksForCollaboratorBetweenDates(collaboratorEmail, startDate, endDate)</text><text fill="#000000" font-family="sans-serif" font-size="14" lengthAdjust="spacing" textLength="328" x="13" y="523.7285">+verifyCollaborator(entry, collaboratorFromSession)</text></g><!--class AgendaStatus--><g id="elem_AgendaStatus"><rect codeLine="27" fill="#F1F1F1" height="122.4844" id="AgendaStatus" rx="2.5" ry="2.5" style="stroke:#181818;stroke-width:0.5;" width="121" x="204.5" y="592"/><ellipse cx="219.5" cy="608" fill="#EB937F" rx="11" ry="11" style="stroke:#181818;stroke-width:1.0;"/><path d="M218.3594,608.7969 L218.3594,611.2969 L222.6875,611.2969 L222.6875,610.375 Q222.6875,609.7656 222.9219,609.5 Q223.1719,609.2344 223.5469,609.2344 Q223.9219,609.2344 224.1563,609.5 Q224.3906,609.7656 224.3906,610.375 L224.3906,613 L216.3906,613 Q215.7656,613 215.5,612.7656 Q215.25,612.5313 215.25,612.1406 Q215.25,611.7656 215.5156,611.5313 Q215.7813,611.2969 216.3906,611.2969 L216.6563,611.2969 L216.6563,604.6406 L216.3906,604.6406 Q215.7656,604.6406 215.5,604.4063 Q215.25,604.1719 215.25,603.7813 Q215.25,603.4063 215.5,603.1719 Q215.7656,602.9375 216.3906,602.9375 L224.0156,602.9375 L224.0156,605.5313 Q224.0156,606.1406 223.7813,606.4063 Q223.5625,606.6563 223.1719,606.6563 Q222.7969,606.6563 222.5625,606.4063 Q222.3281,606.1406 222.3281,605.5313 L222.3281,604.6406 L218.3594,604.6406 L218.3594,607.0938 L219.8438,607.0938 Q219.8438,606.4375 219.9688,606.25 Q220.2344,605.8438 220.7031,605.8438 Q221.0781,605.8438 221.3125,606.1094 Q221.5469,606.3594 221.5469,606.9688 L221.5469,608.9375 Q221.5469,609.4844 221.4219,609.6719 Q221.1563,610.0625 220.7031,610.0625 Q220.2344,610.0625 219.9688,609.6563 Q219.8438,609.4688 219.8438,608.7969 L218.3594,608.7969 Z " fill="#000000"/><text fill="#000000" font-family="sans-serif" font-size="14" lengthAdjust="spacing" textLength="89" x="233.5" y="613.7969">AgendaStatus</text><line style="stroke:#181818;stroke-width:0.5;" x1="205.5" x2="324.5" y1="624" y2="624"/><text fill="#000000" font-family="sans-serif" font-size="14" lengthAdjust="spacing" textLength="63" x="210.5" y="643.1074">PLANNED</text><text fill="#000000" font-family="sans-serif" font-size="14" lengthAdjust="spacing" textLength="86" x="210.5" y="661.7285">POSTPONED</text><text fill="#000000" font-family="sans-serif" font-size="14" lengthAdjust="spacing" textLength="74" x="210.5" y="680.3496">CANCELED</text><text fill="#000000" font-family="sans-serif" font-size="14" lengthAdjust="spacing" textLength="39" x="210.5" y="698.9707">DONE</text><line style="stroke:#181818;stroke-width:0.5;" x1="205.5" x2="324.5" y1="706.4844" y2="706.4844"/></g><!--link ConsultTasksUI to ConsultTasksController--><g id="link_ConsultTasksUI_ConsultTasksController"><path codeLine="34" d="M326,55.21 C326,71.87 326,88.97 326,109.86 " fill="none" id="ConsultTasksUI-to-ConsultTasksController" style="stroke:#181818;stroke-width:1.0;stroke-dasharray:7.0,7.0;"/><polygon fill="#181818" points="326,115.86,330,106.86,326,110.86,322,106.86,326,115.86" style="stroke:#181818;stroke-width:1.0;"/></g><!--link ConsultTasksController to Repositories--><g id="link_ConsultTasksController_Repositories"><path codeLine="36" d="M268.6,220.13 C246.9,239.45 226.7012,257.4501 204.9912,276.7801 " fill="none" id="ConsultTasksController-to-Repositories" style="stroke:#181818;stroke-width:1.0;stroke-dasharray:7.0,7.0;"/><polygon fill="#181818" points="200.51,280.77,209.8917,277.7726,204.2443,277.4451,204.5718,271.7977,200.51,280.77" style="stroke:#181818;stroke-width:1.0;"/></g><!--link ConsultTasksController to Agenda--><g id="link_ConsultTasksController_Agenda"><path codeLine="38" d="M338.31,220.08 C345.44,249.62 353,281 353,281 C353,281 353,385 353,385 C353,385 329.0688,412.878 304.6988,441.258 " fill="none" id="ConsultTasksController-to-Agenda" style="stroke:#181818;stroke-width:1.0;stroke-dasharray:7.0,7.0;"/><polygon fill="#181818" points="300.79,445.81,309.6879,441.5879,304.0474,442.0166,303.6186,436.3761,300.79,445.81" style="stroke:#181818;stroke-width:1.0;"/></g><!--link Repositories to Repositories--><g id="link_Repositories_Repositories"><path codeLine="40" d="M238.23,318.12 C258.42,319.63 273,324.59 273,333 C273,341.41 264.4033,345.9225 244.2133,347.4325 " fill="none" id="Repositories-to-Repositories" style="stroke:#181818;stroke-width:1.0;"/><polygon fill="#181818" points="238.23,347.88,247.5033,351.1976,243.2161,347.5071,246.9066,343.2199,238.23,347.88" style="stroke:#181818;stroke-width:1.0;"/><text fill="#000000" font-family="sans-serif" font-size="13" lengthAdjust="spacing" textLength="67" x="279" y="338.5283">repositories</text></g><!--link Repositories to Agenda--><g id="link_Repositories_Agenda"><path codeLine="42" d="M183.62,385.11 C199.29,404.82 213.2465,422.3831 228.1265,441.1031 " fill="none" id="Repositories-to-Agenda" style="stroke:#181818;stroke-width:1.0;"/><polygon fill="#181818" points="231.86,445.8,229.3911,436.2656,228.7488,441.8859,223.1285,441.2436,231.86,445.8" style="stroke:#181818;stroke-width:1.0;"/><text fill="#000000" font-family="sans-serif" font-size="13" lengthAdjust="spacing" textLength="7" x="219.0205" y="434.6722">1</text></g><!--link Agenda to AgendaStatus--><g id="link_Agenda_AgendaStatus"><path codeLine="44" d="M265,531.35 C265,549.78 265,565.78 265,585.92 " fill="none" id="Agenda-to-AgendaStatus" style="stroke:#181818;stroke-width:1.0;"/><polygon fill="#181818" points="265,591.92,269,582.92,265,586.92,261,582.92,265,591.92" style="stroke:#181818;stroke-width:1.0;"/></g><!--SRC=[bLD1Ri8m4Bpd5HQde09ghnmgfGb8I0XGGn-mc2LOE7PaRufIrB_N2MbmL5gfliIUcPqThnnx4ge00pahW9yWmvGgYSmW9r2PnC1s0dk4lJuBbR43IEipKYYaga1MQ5dLXy0ZkGHh8o8ZTYNXWckLYWzaZq7GC2pMofQIjc1Fzcrn-Ro7kpqPBIMQIy3S6hCCAIhfY8e41n9QlMAXhI1jgd1uqyno439sbR3J1XmxDpfFqLfNqUeUQbtJPQwDBtr1EYEg10XjQ0aCrTiHGxMlDyEWYzhr5cZRW3xqtSZrMIXdf3Y6msclgXDiTQANmbBesKUPQmcNVwJb7j6COCJkNU1g-8v672hVAtHZDTM8yVk3QwAXAlCsMKf0PNlnUcsMqMerIsxdTRhTh7qaZbRnREa1YQDhr_vZO9F9yo_le2-zuKr9Rx9_2Q_vWy0lOEDnts7g_WRVxuTuy3JedAxV1lQ7ymK0]--></g></svg>