<?xml version="1.0" encoding="us-ascii" standalone="no"?><svg xmlns="http://www.w3.org/2000/svg" xmlns:xlink="http://www.w3.org/1999/xlink" contentStyleType="text/css" height="300.8px" preserveAspectRatio="none" style="width:605px;height:300px;background:#FFFFFF;" version="1.1" viewBox="0 0 605 300" width="605.2px" zoomAndPan="magnify"><defs/><g><rect fill="#FFFFFF" height="224.6711" style="stroke:#181818;stroke-width:0.4000000000000001;" width="4" x="18.6" y="36.5953"/><rect fill="#FFFFFF" height="216.1469" style="stroke:#181818;stroke-width:0.4000000000000001;" width="4" x="139.8" y="45.1195"/><rect fill="#FFFFFF" height="192.6984" style="stroke:#181818;stroke-width:0.4000000000000001;" width="4" x="303.8" y="56.8438"/><rect fill="#FFFFFF" height="11.7242" style="stroke:#181818;stroke-width:0.4000000000000001;" width="4" x="406.6" y="120.1938"/><rect fill="#FFFFFF" height="11.7242" style="stroke:#181818;stroke-width:0.4000000000000001;" width="4" x="451.8" y="143.6422"/><rect fill="#FFFFFF" height="29.5016" style="stroke:#181818;stroke-width:0.4000000000000001;" width="4" x="516.6" y="167.0906"/><rect fill="#FFFFFF" height="29.5016" style="stroke:#181818;stroke-width:0.4000000000000001;" width="4" x="555.4" y="208.3164"/><line style="stroke:#181818;stroke-width:0.20000000000000004;stroke-dasharray:5.0,5.0;" x1="20.4" x2="20.4" y1="32.5953" y2="268.4664"/><line style="stroke:#181818;stroke-width:0.20000000000000004;stroke-dasharray:5.0,5.0;" x1="141.8" x2="141.8" y1="32.5953" y2="268.4664"/><line style="stroke:#181818;stroke-width:0.20000000000000004;stroke-dasharray:5.0,5.0;" x1="305.8" x2="305.8" y1="32.5953" y2="268.4664"/><line style="stroke:#181818;stroke-width:0.20000000000000004;stroke-dasharray:5.0,5.0;" x1="408.4" x2="408.4" y1="32.5953" y2="268.4664"/><line style="stroke:#181818;stroke-width:0.20000000000000004;stroke-dasharray:5.0,5.0;" x1="453.6" x2="453.6" y1="32.5953" y2="268.4664"/><line style="stroke:#181818;stroke-width:0.20000000000000004;stroke-dasharray:5.0,5.0;" x1="518.4" x2="518.4" y1="32.5953" y2="268.4664"/><line style="stroke:#181818;stroke-width:0.20000000000000004;stroke-dasharray:5.0,5.0;" x1="557.2" x2="557.2" y1="32.5953" y2="268.4664"/><text fill="#000000" font-family="sans-serif" font-size="5.6" lengthAdjust="spacing" textLength="34.8" x="2" y="31.4141">Collaborator</text><ellipse cx="20.6" cy="5.4" fill="#E3E3E3" rx="3.2" ry="3.2" style="stroke:#181818;stroke-width:0.20000000000000004;"/><path d="M20.6,8.6 L20.6,19.4 M15.4,11.8 L25.8,11.8 M20.6,19.4 L15.4,25.4 M20.6,19.4 L25.8,25.4 " fill="none" style="stroke:#181818;stroke-width:0.20000000000000004;"/><text fill="#000000" font-family="sans-serif" font-size="5.6" lengthAdjust="spacing" textLength="34.8" x="2" y="273.4805">Collaborator</text><ellipse cx="20.6" cy="278.0617" fill="#E3E3E3" rx="3.2" ry="3.2" style="stroke:#181818;stroke-width:0.20000000000000004;"/><path d="M20.6,281.2617 L20.6,292.0617 M15.4,284.4617 L25.8,284.4617 M20.6,292.0617 L15.4,298.0617 M20.6,292.0617 L25.8,298.0617 " fill="none" style="stroke:#181818;stroke-width:0.20000000000000004;"/><rect fill="#E3E3E3" height="12.1953" rx="1" ry="1" style="stroke:#181818;stroke-width:0.20000000000000004;" width="49.6" x="117" y="20"/><text fill="#000000" font-family="sans-serif" font-size="5.6" lengthAdjust="spacing" textLength="44" x="119.8" y="28.2141">:ConsultTasksUI</text><rect fill="#E3E3E3" height="12.1953" rx="1" ry="1" style="stroke:#181818;stroke-width:0.20000000000000004;" width="49.6" x="117" y="268.0664"/><text fill="#000000" font-family="sans-serif" font-size="5.6" lengthAdjust="spacing" textLength="44" x="119.8" y="276.2805">:ConsultTasksUI</text><rect fill="#E3E3E3" height="12.1953" rx="1" ry="1" style="stroke:#181818;stroke-width:0.20000000000000004;" width="72" x="269.8" y="20"/><text fill="#000000" font-family="sans-serif" font-size="5.6" lengthAdjust="spacing" textLength="66.4" x="272.6" y="28.2141">:ConsultTasksController</text><rect fill="#E3E3E3" height="12.1953" rx="1" ry="1" style="stroke:#181818;stroke-width:0.20000000000000004;" width="72" x="269.8" y="268.0664"/><text fill="#000000" font-family="sans-serif" font-size="5.6" lengthAdjust="spacing" textLength="66.4" x="272.6" y="276.2805">:ConsultTasksController</text><rect fill="#E3E3E3" height="12.1953" rx="1" ry="1" style="stroke:#181818;stroke-width:0.20000000000000004;" width="41.2" x="388" y="20"/><text fill="#000000" font-family="sans-serif" font-size="5.6" lengthAdjust="spacing" textLength="35.6" x="390.8" y="28.2141">:Repositories</text><rect fill="#E3E3E3" height="12.1953" rx="1" ry="1" style="stroke:#181818;stroke-width:0.20000000000000004;" width="41.2" x="388" y="268.0664"/><text fill="#000000" font-family="sans-serif" font-size="5.6" lengthAdjust="spacing" textLength="35.6" x="390.8" y="276.2805">:Repositories</text><rect fill="#E3E3E3" height="18.7906" rx="1" ry="1" style="stroke:#181818;stroke-width:0.20000000000000004;" width="41.2" x="433.2" y="13.4047"/><text fill="#000000" font-family="sans-serif" font-size="5.6" lengthAdjust="spacing" textLength="32.8" x="437.4" y="21.6188">repositories</text><text fill="#000000" font-family="sans-serif" font-size="5.6" lengthAdjust="spacing" textLength="35.6" x="436" y="28.2141">:Repositories</text><rect fill="#E3E3E3" height="18.7906" rx="1" ry="1" style="stroke:#181818;stroke-width:0.20000000000000004;" width="41.2" x="433.2" y="268.0664"/><text fill="#000000" font-family="sans-serif" font-size="5.6" lengthAdjust="spacing" textLength="32.8" x="437.4" y="276.2805">repositories</text><text fill="#000000" font-family="sans-serif" font-size="5.6" lengthAdjust="spacing" textLength="35.6" x="436" y="282.8758">:Repositories</text><rect fill="#E3E3E3" height="18.7906" rx="1" ry="1" style="stroke:#181818;stroke-width:0.20000000000000004;" width="27.6" x="504.8" y="13.4047"/><text fill="#000000" font-family="sans-serif" font-size="5.6" lengthAdjust="spacing" textLength="22" x="507.6" y="21.6188">agenda:</text><text fill="#000000" font-family="sans-serif" font-size="5.6" lengthAdjust="spacing" textLength="21.2" x="508" y="28.2141">Agenda</text><rect fill="#E3E3E3" height="18.7906" rx="1" ry="1" style="stroke:#181818;stroke-width:0.20000000000000004;" width="27.6" x="504.8" y="268.0664"/><text fill="#000000" font-family="sans-serif" font-size="5.6" lengthAdjust="spacing" textLength="22" x="507.6" y="276.2805">agenda:</text><text fill="#000000" font-family="sans-serif" font-size="5.6" lengthAdjust="spacing" textLength="21.2" x="508" y="282.8758">Agenda</text><rect fill="#E3E3E3" height="12.1953" rx="1" ry="1" style="stroke:#181818;stroke-width:0.20000000000000004;" width="42" x="536.4" y="20"/><text fill="#000000" font-family="sans-serif" font-size="5.6" lengthAdjust="spacing" textLength="36.4" x="539.2" y="28.2141">:EntryMapper</text><rect fill="#E3E3E3" height="12.1953" rx="1" ry="1" style="stroke:#181818;stroke-width:0.20000000000000004;" width="42" x="536.4" y="268.0664"/><text fill="#000000" font-family="sans-serif" font-size="5.6" lengthAdjust="spacing" textLength="36.4" x="539.2" y="276.2805">:EntryMapper</text><rect fill="#FFFFFF" height="224.6711" style="stroke:#181818;stroke-width:0.4000000000000001;" width="4" x="18.6" y="36.5953"/><rect fill="#FFFFFF" height="216.1469" style="stroke:#181818;stroke-width:0.4000000000000001;" width="4" x="139.8" y="45.1195"/><rect fill="#FFFFFF" height="192.6984" style="stroke:#181818;stroke-width:0.4000000000000001;" width="4" x="303.8" y="56.8438"/><rect fill="#FFFFFF" height="11.7242" style="stroke:#181818;stroke-width:0.4000000000000001;" width="4" x="406.6" y="120.1938"/><rect fill="#FFFFFF" height="11.7242" style="stroke:#181818;stroke-width:0.4000000000000001;" width="4" x="451.8" y="143.6422"/><rect fill="#FFFFFF" height="29.5016" style="stroke:#181818;stroke-width:0.4000000000000001;" width="4" x="516.6" y="167.0906"/><rect fill="#FFFFFF" height="29.5016" style="stroke:#181818;stroke-width:0.4000000000000001;" width="4" x="555.4" y="208.3164"/><polygon fill="#181818" points="135,43.5195,139,45.1195,135,46.7195,136.6,45.1195" style="stroke:#181818;stroke-width:0.4000000000000001;"/><line style="stroke:#181818;stroke-width:0.4000000000000001;" x1="22.6" x2="137.4" y1="45.1195" y2="45.1195"/><text fill="#000000" font-family="sans-serif" font-size="5.2" font-weight="bold" lengthAdjust="spacing" textLength="3.6" x="25.4" y="43.2227">1</text><text fill="#000000" font-family="sans-serif" font-size="5.2" lengthAdjust="spacing" textLength="104.4" x="30.6" y="43.2227">Requests to consult tasks between a date</text><polygon fill="#181818" points="299,55.2438,303,56.8438,299,58.4438,300.6,56.8438" style="stroke:#181818;stroke-width:0.4000000000000001;"/><line style="stroke:#181818;stroke-width:0.4000000000000001;" x1="143.8" x2="301.4" y1="56.8438" y2="56.8438"/><text fill="#000000" font-family="sans-serif" font-size="5.2" font-weight="bold" lengthAdjust="spacing" textLength="3.6" x="146.6" y="54.9469">2</text><text fill="#000000" font-family="sans-serif" font-size="5.2" lengthAdjust="spacing" textLength="147.2" x="151.8" y="54.9469">getTasksForCollaboratorBetweenDates(startDate, endDate)</text><line style="stroke:#181818;stroke-width:0.4000000000000001;" x1="307.8" x2="324.6" y1="68.568" y2="68.568"/><line style="stroke:#181818;stroke-width:0.4000000000000001;" x1="324.6" x2="324.6" y1="68.568" y2="73.768"/><line style="stroke:#181818;stroke-width:0.4000000000000001;" x1="308.2" x2="324.6" y1="73.768" y2="73.768"/><polygon fill="#181818" points="312.2,72.168,308.2,73.768,312.2,75.368,310.6,73.768" style="stroke:#181818;stroke-width:0.4000000000000001;"/><text fill="#000000" font-family="sans-serif" font-size="5.2" font-weight="bold" lengthAdjust="spacing" textLength="3.6" x="310.6" y="66.6711">3</text><text fill="#000000" font-family="sans-serif" font-size="5.2" lengthAdjust="spacing" textLength="88" x="315.8" y="66.6711">getEmailCollaboratorFromSession()</text><rect fill="none" height="15.7773" style="stroke:#000000;stroke-width:0.6000000000000001;" width="74.4" x="268.6" y="76.968"/><path d="M268.6,76.968 L294.2,76.968 L294.2,79.768 L290.2,83.768 L268.6,83.768 L268.6,76.968 " fill="#EEEEEE" style="stroke:#000000;stroke-width:0.8000000000000002;"/><text fill="#000000" font-family="sans-serif" font-size="5.2" font-weight="bold" lengthAdjust="spacing" textLength="7.6" x="273.8" y="82.7953">ref</text><text fill="#000000" font-family="sans-serif" font-size="4.8" lengthAdjust="spacing" textLength="68.8" x="271.4" y="90.0086">Get Collaborator from session</text><line style="stroke:#181818;stroke-width:0.4000000000000001;stroke-dasharray:2.0,2.0;" x1="307.8" x2="324.6" y1="103.2695" y2="103.2695"/><line style="stroke:#181818;stroke-width:0.4000000000000001;stroke-dasharray:2.0,2.0;" x1="324.6" x2="324.6" y1="103.2695" y2="108.4695"/><line style="stroke:#181818;stroke-width:0.4000000000000001;stroke-dasharray:2.0,2.0;" x1="308.2" x2="324.6" y1="108.4695" y2="108.4695"/><polygon fill="#181818" points="312.2,106.8695,308.2,108.4695,312.2,110.0695,310.6,108.4695" style="stroke:#181818;stroke-width:0.4000000000000001;"/><text fill="#000000" font-family="sans-serif" font-size="5.2" font-weight="bold" lengthAdjust="spacing" textLength="3.6" x="310.6" y="101.3727">4</text><text fill="#000000" font-family="sans-serif" font-size="5.2" lengthAdjust="spacing" textLength="13.6" x="315.8" y="101.3727">email</text><polygon fill="#181818" points="401.8,118.5938,405.8,120.1938,401.8,121.7938,403.4,120.1938" style="stroke:#181818;stroke-width:0.4000000000000001;"/><line style="stroke:#181818;stroke-width:0.4000000000000001;" x1="307.8" x2="404.2" y1="120.1938" y2="120.1938"/><text fill="#000000" font-family="sans-serif" font-size="5.2" font-weight="bold" lengthAdjust="spacing" textLength="3.6" x="310.6" y="118.2969">5</text><text fill="#000000" font-family="sans-serif" font-size="5.2" lengthAdjust="spacing" textLength="32.4" x="315.8" y="118.2969">getInstance()</text><polygon fill="#181818" points="312.2,130.318,308.2,131.918,312.2,133.518,310.6,131.918" style="stroke:#181818;stroke-width:0.4000000000000001;"/><line style="stroke:#181818;stroke-width:0.4000000000000001;stroke-dasharray:2.0,2.0;" x1="309.8" x2="408.2" y1="131.918" y2="131.918"/><text fill="#000000" font-family="sans-serif" font-size="5.2" font-weight="bold" lengthAdjust="spacing" textLength="3.6" x="314.6" y="130.0211">6</text><text fill="#000000" font-family="sans-serif" font-size="5.2" lengthAdjust="spacing" textLength="30" x="319.8" y="130.0211">repositories</text><polygon fill="#181818" points="447,142.0422,451,143.6422,447,145.2422,448.6,143.6422" style="stroke:#181818;stroke-width:0.4000000000000001;"/><line style="stroke:#181818;stroke-width:0.4000000000000001;" x1="307.8" x2="449.4" y1="143.6422" y2="143.6422"/><text fill="#000000" font-family="sans-serif" font-size="5.2" font-weight="bold" lengthAdjust="spacing" textLength="3.6" x="310.6" y="141.7453">7</text><text fill="#000000" font-family="sans-serif" font-size="5.2" lengthAdjust="spacing" textLength="30" x="315.8" y="141.7453">getAgenda()</text><polygon fill="#181818" points="312.2,153.7664,308.2,155.3664,312.2,156.9664,310.6,155.3664" style="stroke:#181818;stroke-width:0.4000000000000001;"/><line style="stroke:#181818;stroke-width:0.4000000000000001;stroke-dasharray:2.0,2.0;" x1="309.8" x2="453.4" y1="155.3664" y2="155.3664"/><text fill="#000000" font-family="sans-serif" font-size="5.2" font-weight="bold" lengthAdjust="spacing" textLength="3.6" x="314.6" y="153.4695">8</text><text fill="#000000" font-family="sans-serif" font-size="5.2" lengthAdjust="spacing" textLength="18" x="319.8" y="153.4695">agenda</text><polygon fill="#181818" points="511.8,165.4906,515.8,167.0906,511.8,168.6906,513.4,167.0906" style="stroke:#181818;stroke-width:0.4000000000000001;"/><line style="stroke:#181818;stroke-width:0.4000000000000001;" x1="307.8" x2="514.2" y1="167.0906" y2="167.0906"/><text fill="#000000" font-family="sans-serif" font-size="5.2" font-weight="bold" lengthAdjust="spacing" textLength="3.6" x="310.6" y="165.1938">9</text><text fill="#000000" font-family="sans-serif" font-size="5.2" lengthAdjust="spacing" textLength="196" x="315.8" y="165.1938">getTasksForCollaboratorBetweenDates (collaboratorEmail, startDate, endDate)</text><rect fill="none" height="15.7773" style="stroke:#000000;stroke-width:0.6000000000000001;" width="30" x="503.6" y="170.2906"/><path d="M503.6,170.2906 L529.2,170.2906 L529.2,173.0906 L525.2,177.0906 L503.6,177.0906 L503.6,170.2906 " fill="#EEEEEE" style="stroke:#000000;stroke-width:0.8000000000000002;"/><text fill="#000000" font-family="sans-serif" font-size="5.2" font-weight="bold" lengthAdjust="spacing" textLength="7.6" x="508.8" y="176.118">ref</text><text fill="#000000" font-family="sans-serif" font-size="4.8" lengthAdjust="spacing" textLength="24" x="506.6" y="183.3313">Sort Tasks</text><polygon fill="#181818" points="312.2,194.9922,308.2,196.5922,312.2,198.1922,310.6,196.5922" style="stroke:#181818;stroke-width:0.4000000000000001;"/><line style="stroke:#181818;stroke-width:0.4000000000000001;stroke-dasharray:2.0,2.0;" x1="309.8" x2="518.2" y1="196.5922" y2="196.5922"/><text fill="#000000" font-family="sans-serif" font-size="5.2" font-weight="bold" lengthAdjust="spacing" textLength="7.2" x="314.6" y="194.6953">10</text><text fill="#000000" font-family="sans-serif" font-size="5.2" lengthAdjust="spacing" textLength="44.8" x="323.4" y="194.6953">tasksCollaborator</text><polygon fill="#181818" points="550.6,206.7164,554.6,208.3164,550.6,209.9164,552.2,208.3164" style="stroke:#181818;stroke-width:0.4000000000000001;"/><line style="stroke:#181818;stroke-width:0.4000000000000001;" x1="307.8" x2="553" y1="208.3164" y2="208.3164"/><text fill="#000000" font-family="sans-serif" font-size="5.2" font-weight="bold" lengthAdjust="spacing" textLength="7.2" x="310.6" y="206.4195">11</text><text fill="#000000" font-family="sans-serif" font-size="5.2" lengthAdjust="spacing" textLength="62" x="319.4" y="206.4195">toDTOList(entryListDTO)</text><rect fill="none" height="15.7773" style="stroke:#000000;stroke-width:0.6000000000000001;" width="67.6" x="535.2" y="211.5164"/><path d="M535.2,211.5164 L560.8,211.5164 L560.8,214.3164 L556.8,218.3164 L535.2,218.3164 L535.2,211.5164 " fill="#EEEEEE" style="stroke:#000000;stroke-width:0.8000000000000002;"/><text fill="#000000" font-family="sans-serif" font-size="5.2" font-weight="bold" lengthAdjust="spacing" textLength="7.6" x="540.4" y="217.3438">ref</text><text fill="#000000" font-family="sans-serif" font-size="4.8" lengthAdjust="spacing" textLength="64.4" x="536.8" y="224.557">Get Sorted Entry Spaces List</text><polygon fill="#181818" points="312.2,236.218,308.2,237.818,312.2,239.418,310.6,237.818" style="stroke:#181818;stroke-width:0.4000000000000001;"/><line style="stroke:#181818;stroke-width:0.4000000000000001;stroke-dasharray:2.0,2.0;" x1="309.8" x2="557" y1="237.818" y2="237.818"/><text fill="#000000" font-family="sans-serif" font-size="5.2" font-weight="bold" lengthAdjust="spacing" textLength="7.2" x="314.6" y="235.9211">12</text><text fill="#000000" font-family="sans-serif" font-size="5.2" lengthAdjust="spacing" textLength="44.8" x="323.4" y="235.9211">tasksCollaborator</text><polygon fill="#181818" points="148.2,247.9422,144.2,249.5422,148.2,251.1422,146.6,249.5422" style="stroke:#181818;stroke-width:0.4000000000000001;"/><line style="stroke:#181818;stroke-width:0.4000000000000001;stroke-dasharray:2.0,2.0;" x1="145.8" x2="305.4" y1="249.5422" y2="249.5422"/><text fill="#000000" font-family="sans-serif" font-size="5.2" font-weight="bold" lengthAdjust="spacing" textLength="7.2" x="150.6" y="247.6453">13</text><text fill="#000000" font-family="sans-serif" font-size="5.2" lengthAdjust="spacing" textLength="44.8" x="159.4" y="247.6453">tasksCollaborator</text><polygon fill="#181818" points="25,259.6664,21,261.2664,25,262.8664,23.4,261.2664" style="stroke:#181818;stroke-width:0.4000000000000001;"/><line style="stroke:#181818;stroke-width:0.4000000000000001;stroke-dasharray:2.0,2.0;" x1="22.6" x2="141.4" y1="261.2664" y2="261.2664"/><text fill="#000000" font-family="sans-serif" font-size="5.2" font-weight="bold" lengthAdjust="spacing" textLength="7.2" x="27.4" y="259.3695">14</text><text fill="#000000" font-family="sans-serif" font-size="5.2" lengthAdjust="spacing" textLength="47.6" x="36.2" y="259.3695">Shows list of tasks</text><!--SRC=[dLHDR-8m4BtxLuou5AJs3t1OAGLQ8R4BIkYj5vCCO17ih6tAzj_ls4w3JSDkLP_yCVFUp9lnc8EG3TVy24SbLRdNweXWzGcPwLuQNXxu3WlxNYDeB2sNkpesC7jUgREGEzZosY1Z_6ILF1qtg1cxsuiAOQkKtQW_Z9TMQHXCL5tpZTASJWFW1YRBnI9xNERPUfapGhMY50sN5WRZYPBcLDirDmVpClVMB_D_sD3UQiB75dcTBwwiSsoK4KGjq7YRVBPAJNHayIfx7OhKWmII5H-_oinll5NsFFirpQx8PnJT-q_UD6rywC_PQZNBcPD7l76BgHuiFi733yeVnf3ZxnCQQy0gA4F-O9q0i45xHfJ0eI8i1hGwO9AE-Hl282Id3c7jC6Ztf7HSciS0D2L7CpIMyd3RUugvSfkH1qhWlThTjLkUeMNoHBCZ5tNCyaHDLw0nGidXA7NMk0NrXZhWmjLwHWin46m92Ko0IgmfO8VL5raN6hgu6BlOV4HEnGuIpILf84iSzYJkMgYxTHuNuBYPEfCA-rqZqYAmXeQwmLaaf4N46Xho1b_ncJ0qwzTw0OPbzE8BUWzVwe_sI_GNkNsyBdEXj0KVKdzDazisZOTBRzim52xn9lQHBdsnVQWJ_L92LDFrSY6C7VfhjwEBKUBOeIR_kpVjsAAlnLt-M84V753GDAO2ECx_TtY4_2r5UcFllesVGhUn8fpBL71JnmKI3xGn57jrDb1JJg2s0P9TGVYv5KD627y1]--></g></svg>