<?xml version="1.0" encoding="us-ascii" standalone="no"?><svg xmlns="http://www.w3.org/2000/svg" xmlns:xlink="http://www.w3.org/1999/xlink" contentStyleType="text/css" height="385px" preserveAspectRatio="none" style="width:748px;height:385px;background:#FFFFFF;" version="1.1" viewBox="0 0 748 385" width="748px" zoomAndPan="magnify"><defs/><g><rect fill="#FFFFFF" height="240.4844" style="stroke:#181818;stroke-width:1.0;" width="10" x="314" y="84.2871"/><rect fill="#FFFFFF" height="29.3105" style="stroke:#181818;stroke-width:1.0;" width="10" x="520" y="191.5293"/><rect fill="#FFFFFF" height="53.6211" style="stroke:#181818;stroke-width:1.0;" width="10" x="659" y="137.9082"/><rect fill="#FFFFFF" height="36.3105" style="stroke:#181818;stroke-width:1.0;" width="10" x="659" y="250.1504"/><rect fill="none" height="105.2422" style="stroke:#000000;stroke-width:1.5;" width="485.5" x="256.5" y="152.9082"/><line style="stroke:#181818;stroke-width:0.5;stroke-dasharray:5.0,5.0;" x1="110" x2="110" y1="52.9766" y2="333.7715"/><line style="stroke:#181818;stroke-width:0.5;stroke-dasharray:5.0,5.0;" x1="318.5" x2="318.5" y1="52.9766" y2="333.7715"/><line style="stroke:#181818;stroke-width:0.5;stroke-dasharray:5.0,5.0;" x1="525" x2="525" y1="52.9766" y2="333.7715"/><line style="stroke:#181818;stroke-width:0.5;stroke-dasharray:5.0,5.0;" x1="664" x2="664" y1="52.9766" y2="333.7715"/><rect fill="#E3E3E3" height="30.4883" rx="2.5" ry="2.5" style="stroke:#181818;stroke-width:0.5;" width="180" x="20" y="21.4883"/><text fill="#000000" font-family="sans-serif" font-size="14" lengthAdjust="spacing" textLength="166" x="27" y="42.0234">:ConsultTasksController</text><rect fill="#E3E3E3" height="30.4883" rx="2.5" ry="2.5" style="stroke:#181818;stroke-width:0.5;" width="180" x="20" y="332.7715"/><text fill="#000000" font-family="sans-serif" font-size="14" lengthAdjust="spacing" textLength="166" x="27" y="353.3066">:ConsultTasksController</text><rect fill="#E3E3E3" height="30.4883" rx="2.5" ry="2.5" style="stroke:#181818;stroke-width:0.5;" width="105" x="266.5" y="21.4883"/><text fill="#000000" font-family="sans-serif" font-size="14" lengthAdjust="spacing" textLength="91" x="273.5" y="42.0234">:EntryMapper</text><rect fill="#E3E3E3" height="30.4883" rx="2.5" ry="2.5" style="stroke:#181818;stroke-width:0.5;" width="105" x="266.5" y="332.7715"/><text fill="#000000" font-family="sans-serif" font-size="14" lengthAdjust="spacing" textLength="91" x="273.5" y="353.3066">:EntryMapper</text><rect fill="#E3E3E3" height="46.9766" rx="2.5" ry="2.5" style="stroke:#181818;stroke-width:0.5;" width="122" x="464" y="5"/><text fill="#000000" font-family="sans-serif" font-size="14" lengthAdjust="spacing" textLength="82" x="484" y="25.5352">entryListDto</text><text fill="#000000" font-family="sans-serif" font-size="14" lengthAdjust="spacing" textLength="108" x="471" y="42.0234">:List&lt;entryDto&gt;</text><rect fill="#E3E3E3" height="46.9766" rx="2.5" ry="2.5" style="stroke:#181818;stroke-width:0.5;" width="122" x="464" y="332.7715"/><text fill="#000000" font-family="sans-serif" font-size="14" lengthAdjust="spacing" textLength="82" x="484" y="353.3066">entryListDto</text><text fill="#000000" font-family="sans-serif" font-size="14" lengthAdjust="spacing" textLength="108" x="471" y="369.7949">:List&lt;entryDto&gt;</text><rect fill="#E3E3E3" height="46.9766" rx="2.5" ry="2.5" style="stroke:#181818;stroke-width:0.5;" width="136" x="596" y="5"/><text fill="#000000" font-family="sans-serif" font-size="14" lengthAdjust="spacing" textLength="122" x="603" y="25.5352">tasksCollaborator</text><text fill="#000000" font-family="sans-serif" font-size="14" lengthAdjust="spacing" textLength="84" x="622" y="42.0234">:List&lt;Entry&gt;</text><rect fill="#E3E3E3" height="46.9766" rx="2.5" ry="2.5" style="stroke:#181818;stroke-width:0.5;" width="136" x="596" y="332.7715"/><text fill="#000000" font-family="sans-serif" font-size="14" lengthAdjust="spacing" textLength="122" x="603" y="353.3066">tasksCollaborator</text><text fill="#000000" font-family="sans-serif" font-size="14" lengthAdjust="spacing" textLength="84" x="622" y="369.7949">:List&lt;Entry&gt;</text><rect fill="#FFFFFF" height="240.4844" style="stroke:#181818;stroke-width:1.0;" width="10" x="314" y="84.2871"/><rect fill="#FFFFFF" height="29.3105" style="stroke:#181818;stroke-width:1.0;" width="10" x="520" y="191.5293"/><rect fill="#FFFFFF" height="53.6211" style="stroke:#181818;stroke-width:1.0;" width="10" x="659" y="137.9082"/><rect fill="#FFFFFF" height="36.3105" style="stroke:#181818;stroke-width:1.0;" width="10" x="659" y="250.1504"/><polygon fill="#181818" points="302,80.2871,312,84.2871,302,88.2871,306,84.2871" style="stroke:#181818;stroke-width:1.0;"/><line style="stroke:#181818;stroke-width:1.0;" x1="110" x2="308" y1="84.2871" y2="84.2871"/><text fill="#000000" font-family="sans-serif" font-size="13" font-weight="bold" lengthAdjust="spacing" textLength="18" x="117" y="79.5449">11</text><text fill="#000000" font-family="sans-serif" font-size="13" lengthAdjust="spacing" textLength="163" x="139" y="79.5449">toDTOList(entryListDTO)()</text><polygon fill="#181818" points="647,133.9082,657,137.9082,647,141.9082,651,137.9082" style="stroke:#181818;stroke-width:1.0;"/><line style="stroke:#181818;stroke-width:1.0;" x1="324" x2="653" y1="137.9082" y2="137.9082"/><text fill="#000000" font-family="sans-serif" font-size="13" font-weight="bold" lengthAdjust="spacing" textLength="30" x="331" y="133.166">11.1</text><text fill="#000000" font-family="sans-serif" font-size="13" lengthAdjust="spacing" textLength="46" x="365" y="133.166">create()</text><path d="M256.5,152.9082 L330.5,152.9082 L330.5,160.2188 L320.5,170.2188 L256.5,170.2188 L256.5,152.9082 " fill="#EEEEEE" style="stroke:#000000;stroke-width:1.5;"/><rect fill="none" height="105.2422" style="stroke:#000000;stroke-width:1.5;" width="485.5" x="256.5" y="152.9082"/><text fill="#000000" font-family="sans-serif" font-size="13" font-weight="bold" lengthAdjust="spacing" textLength="29" x="271.5" y="166.4766">loop</text><text fill="#000000" font-family="sans-serif" font-size="11" font-weight="bold" lengthAdjust="spacing" textLength="210" x="345.5" y="165.543">[For each task space in entryListDTO]</text><polygon fill="#181818" points="508,187.5293,518,191.5293,508,195.5293,512,191.5293" style="stroke:#181818;stroke-width:1.0;"/><line style="stroke:#181818;stroke-width:1.0;" x1="324" x2="514" y1="191.5293" y2="191.5293"/><text fill="#000000" font-family="sans-serif" font-size="13" font-weight="bold" lengthAdjust="spacing" textLength="30" x="331" y="186.7871">11.2</text><text fill="#000000" font-family="sans-serif" font-size="13" lengthAdjust="spacing" textLength="143" x="365" y="186.7871">entryListToDTO(entry))</text><polygon fill="#181818" points="335,216.8398,325,220.8398,335,224.8398,331,220.8398" style="stroke:#181818;stroke-width:1.0;"/><line style="stroke:#181818;stroke-width:1.0;stroke-dasharray:2.0,2.0;" x1="329" x2="524" y1="220.8398" y2="220.8398"/><text fill="#000000" font-family="sans-serif" font-size="13" font-weight="bold" lengthAdjust="spacing" textLength="30" x="341" y="216.0977">11.3</text><text fill="#000000" font-family="sans-serif" font-size="13" lengthAdjust="spacing" textLength="83" x="375" y="216.0977">entryListDTO</text><polygon fill="#181818" points="647,246.1504,657,250.1504,647,254.1504,651,250.1504" style="stroke:#181818;stroke-width:1.0;"/><line style="stroke:#181818;stroke-width:1.0;" x1="324" x2="653" y1="250.1504" y2="250.1504"/><text fill="#000000" font-family="sans-serif" font-size="13" font-weight="bold" lengthAdjust="spacing" textLength="30" x="331" y="245.4082">11.4</text><text fill="#000000" font-family="sans-serif" font-size="13" lengthAdjust="spacing" textLength="58" x="365" y="245.4082">add(task)</text><polygon fill="#181818" points="335,282.4609,325,286.4609,335,290.4609,331,286.4609" style="stroke:#181818;stroke-width:1.0;"/><line style="stroke:#181818;stroke-width:1.0;stroke-dasharray:2.0,2.0;" x1="329" x2="663" y1="286.4609" y2="286.4609"/><text fill="#000000" font-family="sans-serif" font-size="13" font-weight="bold" lengthAdjust="spacing" textLength="30" x="341" y="281.7188">11.5</text><text fill="#000000" font-family="sans-serif" font-size="13" lengthAdjust="spacing" textLength="112" x="375" y="281.7188">tasksCollaborator</text><polygon fill="#181818" points="121,311.7715,111,315.7715,121,319.7715,117,315.7715" style="stroke:#181818;stroke-width:1.0;"/><line style="stroke:#181818;stroke-width:1.0;stroke-dasharray:2.0,2.0;" x1="115" x2="313" y1="315.7715" y2="315.7715"/><text fill="#000000" font-family="sans-serif" font-size="13" font-weight="bold" lengthAdjust="spacing" textLength="18" x="127" y="311.0293">12</text><text fill="#000000" font-family="sans-serif" font-size="13" lengthAdjust="spacing" textLength="112" x="149" y="311.0293">tasksCollaborator</text><!--SRC=[fLJBRi8m4BpxArPSIWvKeiUeGgfQsWjL4N3iPKaMY72yaRrfoz_NCQy4452w9pkUMS-CxRXbPWgqc4FEXfE5vPn0R4dAxLOAJ9Oufx6iD86bHD3CTHtW5fZoTsRcC4FjIFcwMsGfmOnPfloZF4oo92lG2BJYPpQkr391jtH-B9Qr9ji2TF0y6GqEq7qFMBrZKMmW5EPFms5_r4I6XK7cv4NuqyJLw35yy_FUdXeGam-bi1GsPJub2zskgdQ6Jg_U7c8Gzj2AqQvpetRKPDzt5IQIVQ5GGvy2NtFBPG5l931cAvH2S0HZ7oivg5e6sBRg0hoUbgnZqXgdR57ORhs5DjvO38ablxCNLU-p4tInWshmD7C1hso1C5b0nGLNIONC70G8P-h0HPqOxsUJAjvrj55qjbzAV_1phb7pdAxtia52ftb7ucQVAotSdED5xp5WchOhL7HT3BUdIIOzrdxvkXu5UCHG_phymAw_pWTrCaml8xpvKm9g6uO_qYy0]--></g></svg>