<?xml version="1.0" encoding="us-ascii" standalone="no"?><svg xmlns="http://www.w3.org/2000/svg" xmlns:xlink="http://www.w3.org/1999/xlink" contentStyleType="text/css" height="534px" preserveAspectRatio="none" style="width:1696px;height:534px;background:#FFFFFF;" version="1.1" viewBox="0 0 1696 534" width="1696px" zoomAndPan="magnify"><defs/><g><rect fill="#FFFFFF" height="302.9102" style="stroke:#181818;stroke-width:1.0;" width="10" x="75.5" y="112.2422"/><rect fill="#FFFFFF" height="288.6191" style="stroke:#181818;stroke-width:1.0;" width="10" x="403.5" y="135.5332"/><rect fill="#FFFFFF" height="207.0371" style="stroke:#181818;stroke-width:1.0;" width="10" x="649.5" y="176.8242"/><rect fill="#FFFFFF" height="31.291" style="stroke:#181818;stroke-width:1.0;" width="10" x="1323.5" y="258.6973"/><rect fill="#FFFFFF" height="31.291" style="stroke:#181818;stroke-width:1.0;" width="10" x="1575.5" y="321.2793"/><line style="stroke:#181818;stroke-width:0.5;stroke-dasharray:5.0,5.0;" x1="80" x2="80" y1="102.2422" y2="433.1523"/><line style="stroke:#181818;stroke-width:0.5;stroke-dasharray:5.0,5.0;" x1="408" x2="408" y1="102.2422" y2="433.1523"/><line style="stroke:#181818;stroke-width:0.5;stroke-dasharray:5.0,5.0;" x1="654" x2="654" y1="175.3438" y2="433.1523"/><line style="stroke:#181818;stroke-width:0.5;stroke-dasharray:5.0,5.0;" x1="842" x2="842" y1="102.2422" y2="433.1523"/><line style="stroke:#181818;stroke-width:0.5;stroke-dasharray:5.0,5.0;" x1="972" x2="972" y1="102.2422" y2="433.1523"/><line style="stroke:#181818;stroke-width:0.5;stroke-dasharray:5.0,5.0;" x1="1120" x2="1120" y1="102.2422" y2="433.1523"/><line style="stroke:#181818;stroke-width:0.5;stroke-dasharray:5.0,5.0;" x1="1328" x2="1328" y1="102.2422" y2="433.1523"/><line style="stroke:#181818;stroke-width:0.5;stroke-dasharray:5.0,5.0;" x1="1580" x2="1580" y1="102.2422" y2="433.1523"/><text fill="#000000" font-family="sans-serif" font-size="14" lengthAdjust="spacing" textLength="145" x="5" y="80.1074">Vehicle and Equipment</text><text fill="#000000" font-family="sans-serif" font-size="14" lengthAdjust="spacing" textLength="92" x="33.5" y="98.7285">Fleet Manager</text><ellipse cx="80.5" cy="13.5" fill="#E3E3E3" rx="8" ry="8" style="stroke:#181818;stroke-width:0.5;"/><path d="M80.5,21.5 L80.5,48.5 M67.5,29.5 L93.5,29.5 M80.5,48.5 L67.5,63.5 M80.5,48.5 L93.5,63.5 " fill="none" style="stroke:#181818;stroke-width:0.5;"/><text fill="#000000" font-family="sans-serif" font-size="14" lengthAdjust="spacing" textLength="145" x="5" y="447.2598">Vehicle and Equipment</text><text fill="#000000" font-family="sans-serif" font-size="14" lengthAdjust="spacing" textLength="92" x="33.5" y="465.8809">Fleet Manager</text><ellipse cx="80.5" cy="477.8945" fill="#E3E3E3" rx="8" ry="8" style="stroke:#181818;stroke-width:0.5;"/><path d="M80.5,485.8945 L80.5,512.8945 M67.5,493.8945 L93.5,493.8945 M80.5,512.8945 L67.5,527.8945 M80.5,512.8945 L93.5,527.8945 " fill="none" style="stroke:#181818;stroke-width:0.5;"/><rect fill="#E3E3E3" height="32.6211" rx="2.5" ry="2.5" style="stroke:#181818;stroke-width:0.5;" width="213" x="302" y="68.6211"/><text fill="#000000" font-family="sans-serif" font-size="14" lengthAdjust="spacing" textLength="195" x="309" y="90.7285">:VehicleNeedingMaintenanceUI</text><rect fill="#E3E3E3" height="32.6211" rx="2.5" ry="2.5" style="stroke:#181818;stroke-width:0.5;" width="213" x="302" y="432.1523"/><text fill="#000000" font-family="sans-serif" font-size="14" lengthAdjust="spacing" textLength="195" x="309" y="454.2598">:VehicleNeedingMaintenanceUI</text><rect fill="#E3E3E3" height="32.6211" rx="2.5" ry="2.5" style="stroke:#181818;stroke-width:0.5;" width="259" x="525" y="432.1523"/><text fill="#000000" font-family="sans-serif" font-size="14" lengthAdjust="spacing" textLength="245" x="532" y="454.2598">:VehicleNeedingMaintenanceController</text><rect fill="#E3E3E3" height="32.6211" rx="2.5" ry="2.5" style="stroke:#181818;stroke-width:0.5;" width="97" x="794" y="68.6211"/><text fill="#000000" font-family="sans-serif" font-size="14" lengthAdjust="spacing" textLength="83" x="801" y="90.7285">:Repositories</text><rect fill="#E3E3E3" height="32.6211" rx="2.5" ry="2.5" style="stroke:#181818;stroke-width:0.5;" width="97" x="794" y="432.1523"/><text fill="#000000" font-family="sans-serif" font-size="14" lengthAdjust="spacing" textLength="83" x="801" y="454.2598">:Repositories</text><rect fill="#E3E3E3" height="32.6211" rx="2.5" ry="2.5" style="stroke:#181818;stroke-width:0.5;" width="143" x="901" y="68.6211"/><text fill="#000000" font-family="sans-serif" font-size="14" lengthAdjust="spacing" textLength="129" x="908" y="90.7285">:CheckUpRepository</text><rect fill="#E3E3E3" height="32.6211" rx="2.5" ry="2.5" style="stroke:#181818;stroke-width:0.5;" width="143" x="901" y="432.1523"/><text fill="#000000" font-family="sans-serif" font-size="14" lengthAdjust="spacing" textLength="129" x="908" y="454.2598">:CheckUpRepository</text><rect fill="#E3E3E3" height="32.6211" rx="2.5" ry="2.5" style="stroke:#181818;stroke-width:0.5;" width="132" x="1054" y="68.6211"/><text fill="#000000" font-family="sans-serif" font-size="14" lengthAdjust="spacing" textLength="118" x="1061" y="90.7285">:VehicleRepository</text><rect fill="#E3E3E3" height="32.6211" rx="2.5" ry="2.5" style="stroke:#181818;stroke-width:0.5;" width="132" x="1054" y="432.1523"/><text fill="#000000" font-family="sans-serif" font-size="14" lengthAdjust="spacing" textLength="118" x="1061" y="454.2598">:VehicleRepository</text><rect fill="#E3E3E3" height="32.6211" rx="2.5" ry="2.5" style="stroke:#181818;stroke-width:0.5;" width="265" x="1196" y="68.6211"/><text fill="#000000" font-family="sans-serif" font-size="14" lengthAdjust="spacing" textLength="251" x="1203" y="90.7285">:VehicleNeedingMaintenanceRepository</text><rect fill="#E3E3E3" height="32.6211" rx="2.5" ry="2.5" style="stroke:#181818;stroke-width:0.5;" width="265" x="1196" y="432.1523"/><text fill="#000000" font-family="sans-serif" font-size="14" lengthAdjust="spacing" textLength="251" x="1203" y="454.2598">:VehicleNeedingMaintenanceRepository</text><rect fill="#E3E3E3" height="32.6211" rx="2.5" ry="2.5" style="stroke:#181818;stroke-width:0.5;" width="219" x="1471" y="68.6211"/><text fill="#000000" font-family="sans-serif" font-size="14" lengthAdjust="spacing" textLength="205" x="1478" y="90.7285">:VehicleNeedingMaintenanceList</text><rect fill="#E3E3E3" height="32.6211" rx="2.5" ry="2.5" style="stroke:#181818;stroke-width:0.5;" width="219" x="1471" y="432.1523"/><text fill="#000000" font-family="sans-serif" font-size="14" lengthAdjust="spacing" textLength="205" x="1478" y="454.2598">:VehicleNeedingMaintenanceList</text><rect fill="#FFFFFF" height="302.9102" style="stroke:#181818;stroke-width:1.0;" width="10" x="75.5" y="112.2422"/><rect fill="#FFFFFF" height="288.6191" style="stroke:#181818;stroke-width:1.0;" width="10" x="403.5" y="135.5332"/><rect fill="#FFFFFF" height="207.0371" style="stroke:#181818;stroke-width:1.0;" width="10" x="649.5" y="176.8242"/><rect fill="#FFFFFF" height="31.291" style="stroke:#181818;stroke-width:1.0;" width="10" x="1323.5" y="258.6973"/><rect fill="#FFFFFF" height="31.291" style="stroke:#181818;stroke-width:1.0;" width="10" x="1575.5" y="321.2793"/><polygon fill="#181818" points="391.5,131.5332,401.5,135.5332,391.5,139.5332,395.5,135.5332" style="stroke:#181818;stroke-width:1.0;"/><line style="stroke:#181818;stroke-width:1.0;" x1="85.5" x2="397.5" y1="135.5332" y2="135.5332"/><text fill="#000000" font-family="sans-serif" font-size="13" font-weight="bold" lengthAdjust="spacing" textLength="7" x="92.5" y="130.2705">1</text><text fill="#000000" font-family="sans-serif" font-size="13" lengthAdjust="spacing" textLength="213" x="103.5" y="130.2705">ask to list vehicles needing check-up</text><polygon fill="#181818" points="513,162.8242,523,166.8242,513,170.8242,517,166.8242" style="stroke:#181818;stroke-width:1.0;"/><line style="stroke:#181818;stroke-width:1.0;" x1="413.5" x2="519" y1="166.8242" y2="166.8242"/><text fill="#000000" font-family="sans-serif" font-size="13" font-weight="bold" lengthAdjust="spacing" textLength="7" x="420.5" y="161.5615">2</text><text fill="#000000" font-family="sans-serif" font-size="13" lengthAdjust="spacing" textLength="36" x="431.5" y="161.5615">create</text><rect fill="#E3E3E3" height="32.6211" rx="2.5" ry="2.5" style="stroke:#181818;stroke-width:0.5;" width="259" x="525" y="143.5332"/><text fill="#000000" font-family="sans-serif" font-size="14" lengthAdjust="spacing" textLength="245" x="532" y="165.6406">:VehicleNeedingMaintenanceController</text><rect fill="none" height="43.252" style="stroke:#000000;stroke-width:1.5;" width="265" x="522" y="187.1543"/><path d="M522,187.1543 L584,187.1543 L584,196.1543 L574,206.1543 L522,206.1543 L522,187.1543 " fill="#EEEEEE" style="stroke:#000000;stroke-width:2.0;"/><text fill="#000000" font-family="sans-serif" font-size="13" font-weight="bold" lengthAdjust="spacing" textLength="17" x="535" y="203.1826">ref</text><text fill="#000000" font-family="sans-serif" font-size="12" lengthAdjust="spacing" textLength="163" x="573" y="223.1035">Get CheckUp and Vehicle List</text><polygon fill="#181818" points="1311.5,254.6973,1321.5,258.6973,1311.5,262.6973,1315.5,258.6973" style="stroke:#181818;stroke-width:1.0;"/><line style="stroke:#181818;stroke-width:1.0;" x1="659.5" x2="1317.5" y1="258.6973" y2="258.6973"/><text fill="#000000" font-family="sans-serif" font-size="13" font-weight="bold" lengthAdjust="spacing" textLength="7" x="666.5" y="253.4346">3</text><text fill="#000000" font-family="sans-serif" font-size="13" lengthAdjust="spacing" textLength="251" x="677.5" y="253.4346">getVehiclesNeedingMaintenanceRepository</text><polygon fill="#181818" points="670.5,285.9883,660.5,289.9883,670.5,293.9883,666.5,289.9883" style="stroke:#181818;stroke-width:1.0;"/><line style="stroke:#181818;stroke-width:1.0;stroke-dasharray:2.0,2.0;" x1="664.5" x2="1327.5" y1="289.9883" y2="289.9883"/><text fill="#000000" font-family="sans-serif" font-size="13" font-weight="bold" lengthAdjust="spacing" textLength="7" x="676.5" y="284.7256">4</text><text fill="#000000" font-family="sans-serif" font-size="13" lengthAdjust="spacing" textLength="229" x="687.5" y="284.7256">vehiclesNeedingMaintenanceRepository</text><polygon fill="#181818" points="1563.5,317.2793,1573.5,321.2793,1563.5,325.2793,1567.5,321.2793" style="stroke:#181818;stroke-width:1.0;"/><line style="stroke:#181818;stroke-width:1.0;" x1="659.5" x2="1569.5" y1="321.2793" y2="321.2793"/><text fill="#000000" font-family="sans-serif" font-size="13" font-weight="bold" lengthAdjust="spacing" textLength="7" x="666.5" y="316.0166">5</text><text fill="#000000" font-family="sans-serif" font-size="13" lengthAdjust="spacing" textLength="369" x="677.5" y="316.0166">getVehiclesNeedingMaintenanceList (vehiclesList, checkUpList)</text><polygon fill="#181818" points="670.5,348.5703,660.5,352.5703,670.5,356.5703,666.5,352.5703" style="stroke:#181818;stroke-width:1.0;"/><line style="stroke:#181818;stroke-width:1.0;stroke-dasharray:2.0,2.0;" x1="664.5" x2="1579.5" y1="352.5703" y2="352.5703"/><text fill="#000000" font-family="sans-serif" font-size="13" font-weight="bold" lengthAdjust="spacing" textLength="7" x="676.5" y="347.3076">6</text><text fill="#000000" font-family="sans-serif" font-size="13" lengthAdjust="spacing" textLength="188" x="687.5" y="347.3076">vehiclesNeedingMaintenanceList</text><polygon fill="#181818" points="424.5,379.8613,414.5,383.8613,424.5,387.8613,420.5,383.8613" style="stroke:#181818;stroke-width:1.0;"/><line style="stroke:#181818;stroke-width:1.0;" x1="418.5" x2="653.5" y1="383.8613" y2="383.8613"/><text fill="#000000" font-family="sans-serif" font-size="13" font-weight="bold" lengthAdjust="spacing" textLength="7" x="430.5" y="378.5986">7</text><text fill="#000000" font-family="sans-serif" font-size="13" lengthAdjust="spacing" textLength="188" x="441.5" y="378.5986">vehiclesNeedingMaintenanceList</text><polygon fill="#181818" points="91.5,411.1523,81.5,415.1523,91.5,419.1523,87.5,415.1523" style="stroke:#181818;stroke-width:1.0;"/><line style="stroke:#181818;stroke-width:1.0;" x1="85.5" x2="402.5" y1="415.1523" y2="415.1523"/><text fill="#000000" font-family="sans-serif" font-size="13" font-weight="bold" lengthAdjust="spacing" textLength="7" x="97.5" y="409.8896">8</text><text fill="#000000" font-family="sans-serif" font-size="13" lengthAdjust="spacing" textLength="283" x="108.5" y="409.8896">displays the list of vehicles needing the check-up</text><!--SRC=[hLHDKy8m4BttL-nmKaR-G0zU676S0GyWdBp4TA4PsYGcAGx_tarQ2YsjLCSzjTbzRpzUidOlf6Q6vP0hgNXgL8xWJ86HhJsQyJtRuSeTCmI3t36voou3RCeIzINa3hOiinX5h71A5la76lhcJXaORJ0LdF1C9l3qMGYTetJl4cOPeeC5avJ1Z81PsCmM4V4wmOLcqi4ehh2lY0abMJ0X7KecEQvV843MBqCHKoMTKLbMvPg-BUSjw1Arie9g5cX3J7rmN0dVEBNMWanJvFkrFWUMtEtJxXfRgCroQ2ijODCpb6Gkh6l3_LdGJHoOmw1719NH3qmUQU0G4seFJa56uN0e4rYGPGhWllj9eS_Gcf3KgW-z4HbHUYd6OwBb1Ycg6L9ZWs0DLp23Mr07DAKVUkoPRbgbIhY7fpiP6hwAHeeWtkjiFeUlk3dn67ReAaRxarfHRtqzLZVValYNF4qqJAgPnxLs_req9DXRzosoZW5xYMvCs8V0tQaP__TGtiArzZ_tjx9sbLi-XS5p3IKC6UmGtku13a6UvXTUwT-Bk2YW-zcL3zUlX1WIONN6ZXPSYkLAKDlhhU2TvyrmaS0lcMy0]--></g></svg>