<?xml version="1.0" encoding="us-ascii" standalone="no"?><svg xmlns="http://www.w3.org/2000/svg" xmlns:xlink="http://www.w3.org/1999/xlink" contentStyleType="text/css" height="630px" preserveAspectRatio="none" style="width:1273px;height:630px;background:#FFFFFF;" version="1.1" viewBox="0 0 1273 630" width="1273px" zoomAndPan="magnify"><defs/><g><rect fill="#FFFFFF" height="501.6563" style="stroke:#181818;stroke-width:1.0;" width="10" x="223" y="81.9121"/><rect fill="#FFFFFF" height="492.6563" style="stroke:#181818;stroke-width:1.0;" width="10" x="223" y="81.9121"/><rect fill="#FFFFFF" height="31.291" style="stroke:#181818;stroke-width:1.0;" width="10" x="415" y="129.4941"/><rect fill="#FFFFFF" height="31.291" style="stroke:#181818;stroke-width:1.0;" width="10" x="415" y="192.0762"/><rect fill="#FFFFFF" height="31.291" style="stroke:#181818;stroke-width:1.0;" width="10" x="415" y="317.2402"/><rect fill="#FFFFFF" height="31.291" style="stroke:#181818;stroke-width:1.0;" width="10" x="545" y="254.6582"/><rect fill="#FFFFFF" height="31.291" style="stroke:#181818;stroke-width:1.0;" width="10" x="692.5" y="379.8223"/><rect fill="#FFFFFF" height="31.291" style="stroke:#181818;stroke-width:1.0;" width="10" x="901" y="449.4043"/><rect fill="#FFFFFF" height="31.291" style="stroke:#181818;stroke-width:1.0;" width="10" x="1153" y="511.9863"/><rect fill="none" height="332.2012" style="stroke:#000000;stroke-width:1.5;" width="690" x="83.5" y="86.9121"/><line style="stroke:#181818;stroke-width:0.5;stroke-dasharray:5.0,5.0;" x1="222.5" x2="222.5" y1="38.6211" y2="592.5684"/><line style="stroke:#181818;stroke-width:0.5;stroke-dasharray:5.0,5.0;" x1="419.5" x2="419.5" y1="38.6211" y2="592.5684"/><line style="stroke:#181818;stroke-width:0.5;stroke-dasharray:5.0,5.0;" x1="549.5" x2="549.5" y1="38.6211" y2="592.5684"/><line style="stroke:#181818;stroke-width:0.5;stroke-dasharray:5.0,5.0;" x1="697.5" x2="697.5" y1="38.6211" y2="592.5684"/><line style="stroke:#181818;stroke-width:0.5;stroke-dasharray:5.0,5.0;" x1="905.5" x2="905.5" y1="38.6211" y2="592.5684"/><line style="stroke:#181818;stroke-width:0.5;stroke-dasharray:5.0,5.0;" x1="1157.5" x2="1157.5" y1="38.6211" y2="592.5684"/><rect fill="#E3E3E3" height="32.6211" rx="2.5" ry="2.5" style="stroke:#181818;stroke-width:0.5;" width="259" x="93.5" y="5"/><text fill="#000000" font-family="sans-serif" font-size="14" lengthAdjust="spacing" textLength="245" x="100.5" y="27.1074">:VehicleNeedingMaintenanceController</text><rect fill="#E3E3E3" height="32.6211" rx="2.5" ry="2.5" style="stroke:#181818;stroke-width:0.5;" width="259" x="93.5" y="591.5684"/><text fill="#000000" font-family="sans-serif" font-size="14" lengthAdjust="spacing" textLength="245" x="100.5" y="613.6758">:VehicleNeedingMaintenanceController</text><rect fill="#E3E3E3" height="32.6211" rx="2.5" ry="2.5" style="stroke:#181818;stroke-width:0.5;" width="97" x="371.5" y="5"/><text fill="#000000" font-family="sans-serif" font-size="14" lengthAdjust="spacing" textLength="83" x="378.5" y="27.1074">:Repositories</text><rect fill="#E3E3E3" height="32.6211" rx="2.5" ry="2.5" style="stroke:#181818;stroke-width:0.5;" width="97" x="371.5" y="591.5684"/><text fill="#000000" font-family="sans-serif" font-size="14" lengthAdjust="spacing" textLength="83" x="378.5" y="613.6758">:Repositories</text><rect fill="#E3E3E3" height="32.6211" rx="2.5" ry="2.5" style="stroke:#181818;stroke-width:0.5;" width="143" x="478.5" y="5"/><text fill="#000000" font-family="sans-serif" font-size="14" lengthAdjust="spacing" textLength="129" x="485.5" y="27.1074">:CheckUpRepository</text><rect fill="#E3E3E3" height="32.6211" rx="2.5" ry="2.5" style="stroke:#181818;stroke-width:0.5;" width="143" x="478.5" y="591.5684"/><text fill="#000000" font-family="sans-serif" font-size="14" lengthAdjust="spacing" textLength="129" x="485.5" y="613.6758">:CheckUpRepository</text><rect fill="#E3E3E3" height="32.6211" rx="2.5" ry="2.5" style="stroke:#181818;stroke-width:0.5;" width="132" x="631.5" y="5"/><text fill="#000000" font-family="sans-serif" font-size="14" lengthAdjust="spacing" textLength="118" x="638.5" y="27.1074">:VehicleRepository</text><rect fill="#E3E3E3" height="32.6211" rx="2.5" ry="2.5" style="stroke:#181818;stroke-width:0.5;" width="132" x="631.5" y="591.5684"/><text fill="#000000" font-family="sans-serif" font-size="14" lengthAdjust="spacing" textLength="118" x="638.5" y="613.6758">:VehicleRepository</text><rect fill="#E3E3E3" height="32.6211" rx="2.5" ry="2.5" style="stroke:#181818;stroke-width:0.5;" width="265" x="773.5" y="5"/><text fill="#000000" font-family="sans-serif" font-size="14" lengthAdjust="spacing" textLength="251" x="780.5" y="27.1074">:VehicleNeedingMaintenanceRepository</text><rect fill="#E3E3E3" height="32.6211" rx="2.5" ry="2.5" style="stroke:#181818;stroke-width:0.5;" width="265" x="773.5" y="591.5684"/><text fill="#000000" font-family="sans-serif" font-size="14" lengthAdjust="spacing" textLength="251" x="780.5" y="613.6758">:VehicleNeedingMaintenanceRepository</text><rect fill="#E3E3E3" height="32.6211" rx="2.5" ry="2.5" style="stroke:#181818;stroke-width:0.5;" width="219" x="1048.5" y="5"/><text fill="#000000" font-family="sans-serif" font-size="14" lengthAdjust="spacing" textLength="205" x="1055.5" y="27.1074">:VehicleNeedingMaintenanceList</text><rect fill="#E3E3E3" height="32.6211" rx="2.5" ry="2.5" style="stroke:#181818;stroke-width:0.5;" width="219" x="1048.5" y="591.5684"/><text fill="#000000" font-family="sans-serif" font-size="14" lengthAdjust="spacing" textLength="205" x="1055.5" y="613.6758">:VehicleNeedingMaintenanceList</text><rect fill="#FFFFFF" height="501.6563" style="stroke:#181818;stroke-width:1.0;" width="10" x="223" y="81.9121"/><rect fill="#FFFFFF" height="492.6563" style="stroke:#181818;stroke-width:1.0;" width="10" x="223" y="81.9121"/><rect fill="#FFFFFF" height="31.291" style="stroke:#181818;stroke-width:1.0;" width="10" x="415" y="129.4941"/><rect fill="#FFFFFF" height="31.291" style="stroke:#181818;stroke-width:1.0;" width="10" x="415" y="192.0762"/><rect fill="#FFFFFF" height="31.291" style="stroke:#181818;stroke-width:1.0;" width="10" x="415" y="317.2402"/><rect fill="#FFFFFF" height="31.291" style="stroke:#181818;stroke-width:1.0;" width="10" x="545" y="254.6582"/><rect fill="#FFFFFF" height="31.291" style="stroke:#181818;stroke-width:1.0;" width="10" x="692.5" y="379.8223"/><rect fill="#FFFFFF" height="31.291" style="stroke:#181818;stroke-width:1.0;" width="10" x="901" y="449.4043"/><rect fill="#FFFFFF" height="31.291" style="stroke:#181818;stroke-width:1.0;" width="10" x="1153" y="511.9863"/><polygon fill="#181818" points="211,67.9121,221,71.9121,211,75.9121,215,71.9121" style="stroke:#181818;stroke-width:1.0;"/><line style="stroke:#181818;stroke-width:1.0;" x1="0" x2="217" y1="71.9121" y2="71.9121"/><text fill="#000000" font-family="sans-serif" font-size="13" font-weight="bold" lengthAdjust="spacing" textLength="7" x="7" y="66.6494">2</text><text fill="#000000" font-family="sans-serif" font-size="13" lengthAdjust="spacing" textLength="36" x="18" y="66.6494">create</text><path d="M83.5,86.9121 L312.5,86.9121 L312.5,96.2031 L302.5,106.2031 L83.5,106.2031 L83.5,86.9121 " fill="#EEEEEE" style="stroke:#000000;stroke-width:1.5;"/><rect fill="none" height="332.2012" style="stroke:#000000;stroke-width:1.5;" width="690" x="83.5" y="86.9121"/><text fill="#000000" font-family="sans-serif" font-size="13" font-weight="bold" lengthAdjust="spacing" textLength="184" x="98.5" y="101.9404">get checkUp and Vehicle List</text><polygon fill="#181818" points="403,125.4941,413,129.4941,403,133.4941,407,129.4941" style="stroke:#181818;stroke-width:1.0;"/><line style="stroke:#181818;stroke-width:1.0;" x1="233" x2="409" y1="129.4941" y2="129.4941"/><text fill="#000000" font-family="sans-serif" font-size="13" font-weight="bold" lengthAdjust="spacing" textLength="18" x="240" y="124.2314">2.1</text><text fill="#000000" font-family="sans-serif" font-size="13" lengthAdjust="spacing" textLength="75" x="262" y="124.2314">getInstance()</text><polygon fill="#181818" points="244,156.7852,234,160.7852,244,164.7852,240,160.7852" style="stroke:#181818;stroke-width:1.0;"/><line style="stroke:#181818;stroke-width:1.0;stroke-dasharray:2.0,2.0;" x1="238" x2="419" y1="160.7852" y2="160.7852"/><text fill="#000000" font-family="sans-serif" font-size="13" font-weight="bold" lengthAdjust="spacing" textLength="18" x="250" y="155.5225">2.2</text><text fill="#000000" font-family="sans-serif" font-size="13" lengthAdjust="spacing" textLength="67" x="272" y="155.5225">repositories</text><polygon fill="#181818" points="403,188.0762,413,192.0762,403,196.0762,407,192.0762" style="stroke:#181818;stroke-width:1.0;"/><line style="stroke:#181818;stroke-width:1.0;" x1="233" x2="409" y1="192.0762" y2="192.0762"/><text fill="#000000" font-family="sans-serif" font-size="13" font-weight="bold" lengthAdjust="spacing" textLength="18" x="240" y="186.8135">2.3</text><text fill="#000000" font-family="sans-serif" font-size="13" lengthAdjust="spacing" textLength="141" x="262" y="186.8135">getCheckUpRepository()</text><polygon fill="#181818" points="244,219.3672,234,223.3672,244,227.3672,240,223.3672" style="stroke:#181818;stroke-width:1.0;"/><line style="stroke:#181818;stroke-width:1.0;stroke-dasharray:2.0,2.0;" x1="238" x2="419" y1="223.3672" y2="223.3672"/><text fill="#000000" font-family="sans-serif" font-size="13" font-weight="bold" lengthAdjust="spacing" textLength="18" x="250" y="218.1045">2.4</text><text fill="#000000" font-family="sans-serif" font-size="13" lengthAdjust="spacing" textLength="115" x="272" y="218.1045">CheckUpRepository</text><polygon fill="#181818" points="533,250.6582,543,254.6582,533,258.6582,537,254.6582" style="stroke:#181818;stroke-width:1.0;"/><line style="stroke:#181818;stroke-width:1.0;" x1="233" x2="539" y1="254.6582" y2="254.6582"/><text fill="#000000" font-family="sans-serif" font-size="13" font-weight="bold" lengthAdjust="spacing" textLength="18" x="240" y="249.3955">2.5</text><text fill="#000000" font-family="sans-serif" font-size="13" lengthAdjust="spacing" textLength="107" x="262" y="249.3955">getCheckUpsList()</text><polygon fill="#181818" points="244,281.9492,234,285.9492,244,289.9492,240,285.9492" style="stroke:#181818;stroke-width:1.0;"/><line style="stroke:#181818;stroke-width:1.0;stroke-dasharray:2.0,2.0;" x1="238" x2="549" y1="285.9492" y2="285.9492"/><text fill="#000000" font-family="sans-serif" font-size="13" font-weight="bold" lengthAdjust="spacing" textLength="18" x="250" y="280.6865">2.6</text><text fill="#000000" font-family="sans-serif" font-size="13" lengthAdjust="spacing" textLength="74" x="272" y="280.6865">CheckUpList</text><polygon fill="#181818" points="403,313.2402,413,317.2402,403,321.2402,407,317.2402" style="stroke:#181818;stroke-width:1.0;"/><line style="stroke:#181818;stroke-width:1.0;" x1="233" x2="409" y1="317.2402" y2="317.2402"/><text fill="#000000" font-family="sans-serif" font-size="13" font-weight="bold" lengthAdjust="spacing" textLength="18" x="240" y="311.9775">2.7</text><text fill="#000000" font-family="sans-serif" font-size="13" lengthAdjust="spacing" textLength="131" x="262" y="311.9775">getVehicleRepository()</text><polygon fill="#181818" points="244,344.5313,234,348.5313,244,352.5313,240,348.5313" style="stroke:#181818;stroke-width:1.0;"/><line style="stroke:#181818;stroke-width:1.0;stroke-dasharray:2.0,2.0;" x1="238" x2="419" y1="348.5313" y2="348.5313"/><text fill="#000000" font-family="sans-serif" font-size="13" font-weight="bold" lengthAdjust="spacing" textLength="18" x="250" y="343.2686">2.8</text><text fill="#000000" font-family="sans-serif" font-size="13" lengthAdjust="spacing" textLength="105" x="272" y="343.2686">VehicleRepository</text><polygon fill="#181818" points="680.5,375.8223,690.5,379.8223,680.5,383.8223,684.5,379.8223" style="stroke:#181818;stroke-width:1.0;"/><line style="stroke:#181818;stroke-width:1.0;" x1="233" x2="686.5" y1="379.8223" y2="379.8223"/><text fill="#000000" font-family="sans-serif" font-size="13" font-weight="bold" lengthAdjust="spacing" textLength="18" x="240" y="374.5596">2.9</text><text fill="#000000" font-family="sans-serif" font-size="13" lengthAdjust="spacing" textLength="97" x="262" y="374.5596">getVehiclesList()</text><polygon fill="#181818" points="244,407.1133,234,411.1133,244,415.1133,240,411.1133" style="stroke:#181818;stroke-width:1.0;"/><line style="stroke:#181818;stroke-width:1.0;stroke-dasharray:2.0,2.0;" x1="238" x2="696.5" y1="411.1133" y2="411.1133"/><text fill="#000000" font-family="sans-serif" font-size="13" font-weight="bold" lengthAdjust="spacing" textLength="25" x="250" y="405.8506">2.10</text><text fill="#000000" font-family="sans-serif" font-size="13" lengthAdjust="spacing" textLength="71" x="279" y="405.8506">VehiclesList</text><polygon fill="#181818" points="889,445.4043,899,449.4043,889,453.4043,893,449.4043" style="stroke:#181818;stroke-width:1.0;"/><line style="stroke:#181818;stroke-width:1.0;" x1="233" x2="895" y1="449.4043" y2="449.4043"/><text fill="#000000" font-family="sans-serif" font-size="13" font-weight="bold" lengthAdjust="spacing" textLength="7" x="240" y="444.1416">3</text><text fill="#000000" font-family="sans-serif" font-size="13" lengthAdjust="spacing" textLength="251" x="251" y="444.1416">getVehiclesNeedingMaintenanceRepository</text><polygon fill="#181818" points="244,476.6953,234,480.6953,244,484.6953,240,480.6953" style="stroke:#181818;stroke-width:1.0;"/><line style="stroke:#181818;stroke-width:1.0;stroke-dasharray:2.0,2.0;" x1="238" x2="905" y1="480.6953" y2="480.6953"/><text fill="#000000" font-family="sans-serif" font-size="13" font-weight="bold" lengthAdjust="spacing" textLength="7" x="250" y="475.4326">4</text><text fill="#000000" font-family="sans-serif" font-size="13" lengthAdjust="spacing" textLength="229" x="261" y="475.4326">vehiclesNeedingMaintenanceRepository</text><polygon fill="#181818" points="1141,507.9863,1151,511.9863,1141,515.9863,1145,511.9863" style="stroke:#181818;stroke-width:1.0;"/><line style="stroke:#181818;stroke-width:1.0;" x1="233" x2="1147" y1="511.9863" y2="511.9863"/><text fill="#000000" font-family="sans-serif" font-size="13" font-weight="bold" lengthAdjust="spacing" textLength="7" x="240" y="506.7236">5</text><text fill="#000000" font-family="sans-serif" font-size="13" lengthAdjust="spacing" textLength="369" x="251" y="506.7236">getVehiclesNeedingMaintenanceList (vehiclesList, checkUpList)</text><polygon fill="#181818" points="244,539.2773,234,543.2773,244,547.2773,240,543.2773" style="stroke:#181818;stroke-width:1.0;"/><line style="stroke:#181818;stroke-width:1.0;stroke-dasharray:2.0,2.0;" x1="238" x2="1157" y1="543.2773" y2="543.2773"/><text fill="#000000" font-family="sans-serif" font-size="13" font-weight="bold" lengthAdjust="spacing" textLength="7" x="250" y="538.0146">6</text><text fill="#000000" font-family="sans-serif" font-size="13" lengthAdjust="spacing" textLength="188" x="261" y="538.0146">vehiclesNeedingMaintenanceList</text><polygon fill="#181818" points="11,570.5684,1,574.5684,11,578.5684,7,574.5684" style="stroke:#181818;stroke-width:1.0;"/><line style="stroke:#181818;stroke-width:1.0;stroke-dasharray:2.0,2.0;" x1="5" x2="217" y1="574.5684" y2="574.5684"/><text fill="#000000" font-family="sans-serif" font-size="13" font-weight="bold" lengthAdjust="spacing" textLength="7" x="17" y="569.3057">7</text><text fill="#000000" font-family="sans-serif" font-size="13" lengthAdjust="spacing" textLength="188" x="28" y="569.3057">vehiclesNeedingMaintenanceList</text><!--SRC=[pPPDRm8X48Rl_8f9JzRK9hKtq_JYgOdjGLllb9tk4bVO0Dhuxmj-xRAxTa5hKcx2pF3op8kBNd1HK4MNi9H2iap99O9HAoJwk59Gjg0fpimcHr3831LfNWtG6KtaDnSfVD5S8o5qPQHOBJzH4M9336UyeCB0pMYE6MSvlY4cDlwLSc5GKC5mB8LHCizHtG3LC7wVJcgfKooavaOgZdeRSvpOpBXJPFUifOmpP8kFeWpSrQxFjckiPSsdeKUf9VeheKKcN9jwkfiZ1FQZX3mi9zqOF6_nzVim0gQG6lJNKoLN1QHeWEr801K9x9N0TfDgE6M6hssHNK-yfQ1rJoeCxnz8Uv0tN2rta9OUsrDPxIz26yUaTzjTxAYmpJ7TwMwqwHZiGO_ifIYj6L0mmGiLTT9fMDnY-WUScZUFN9rLbLTZVu-MTjOF0LKwFluyJGaDFFur3m1pXenBqw_Gf0XxD_wXW-pzvsQFiNv3SkmULs8ydtf8W-_0APhsCncRQoKqEEcmIt2QqHawK2Jnvow_R8-noOSM-0y4hnk_FIxExr7jHH9Pny-kj6vz3T7LdiRfRi7hJDN1ruL0RrrnuTtXcUH-TDwCDh4XNgvB2C4QKhSTNqZcqs2mOtYUXEe7Plim_040]--></g></svg>