<?xml version="1.0" encoding="us-ascii" standalone="no"?><svg xmlns="http://www.w3.org/2000/svg" xmlns:xlink="http://www.w3.org/1999/xlink" contentStyleType="text/css" height="775px" preserveAspectRatio="none" style="width:1025px;height:775px;background:#FFFFFF;" version="1.1" viewBox="0 0 1025 775" width="1025px" zoomAndPan="magnify"><defs/><g><!--class CheckUpRepository--><g id="elem_CheckUpRepository"><rect codeLine="11" fill="#F1F1F1" height="66.6211" id="CheckUpRepository" rx="2.5" ry="2.5" style="stroke:#181818;stroke-width:0.5;" width="196" x="313" y="702"/><ellipse cx="345.55" cy="718" fill="#ADD1B2" rx="11" ry="11" style="stroke:#181818;stroke-width:1.0;"/><path d="M348.3156,713.875 Q348.4719,713.6563 348.6594,713.5469 Q348.8469,713.4375 349.0656,713.4375 Q349.4406,713.4375 349.675,713.7031 Q349.9094,713.9531 349.9094,714.5625 L349.9094,716.0156 Q349.9094,716.625 349.675,716.8906 Q349.4406,717.1563 349.0656,717.1563 Q348.7219,717.1563 348.5188,716.9531 Q348.3156,716.7656 348.2063,716.25 Q348.1594,715.8906 347.9719,715.7031 Q347.6438,715.3281 347.0344,715.1094 Q346.425,714.8906 345.8,714.8906 Q345.0344,714.8906 344.3938,715.2188 Q343.7688,715.5469 343.2688,716.2969 Q342.7844,717.0469 342.7844,718.0781 L342.7844,719.1719 Q342.7844,720.4063 343.675,721.2344 Q344.5656,722.0469 346.1594,722.0469 Q347.0969,722.0469 347.7531,721.7969 Q348.1438,721.6406 348.5656,721.2031 Q348.8313,720.9375 348.9719,720.8594 Q349.1281,720.7813 349.3313,720.7813 Q349.6594,720.7813 349.9094,721.0469 Q350.175,721.2969 350.175,721.6406 Q350.175,721.9844 349.8313,722.3906 Q349.3313,722.9688 348.5344,723.2969 Q347.4563,723.75 346.1594,723.75 Q344.6438,723.75 343.4406,723.125 Q342.4563,722.625 341.7688,721.5625 Q341.0813,720.4844 341.0813,719.2031 L341.0813,718.0469 Q341.0813,716.7188 341.6906,715.5781 Q342.3156,714.4219 343.4094,713.8125 Q344.5031,713.1875 345.7375,713.1875 Q346.4719,713.1875 347.1125,713.3594 Q347.7688,713.5156 348.3156,713.875 Z " fill="#000000"/><text fill="#000000" font-family="sans-serif" font-size="14" lengthAdjust="spacing" textLength="125" x="363.45" y="723.7969">CheckUpRepository</text><line style="stroke:#181818;stroke-width:0.5;" x1="314" x2="508" y1="734" y2="734"/><text fill="#000000" font-family="sans-serif" font-size="14" lengthAdjust="spacing" textLength="184" x="319" y="753.1074">-List&lt;CheckUp&gt; checkUpList;</text><line style="stroke:#181818;stroke-width:0.5;" x1="314" x2="508" y1="760.6211" y2="760.6211"/></g><!--class VehicleRepository--><g id="elem_VehicleRepository"><rect codeLine="15" fill="#F1F1F1" height="66.6211" id="VehicleRepository" rx="2.5" ry="2.5" style="stroke:#181818;stroke-width:0.5;" width="182" x="650" y="702"/><ellipse cx="681.2" cy="718" fill="#ADD1B2" rx="11" ry="11" style="stroke:#181818;stroke-width:1.0;"/><path d="M683.9656,713.875 Q684.1219,713.6563 684.3094,713.5469 Q684.4969,713.4375 684.7156,713.4375 Q685.0906,713.4375 685.325,713.7031 Q685.5594,713.9531 685.5594,714.5625 L685.5594,716.0156 Q685.5594,716.625 685.325,716.8906 Q685.0906,717.1563 684.7156,717.1563 Q684.3719,717.1563 684.1688,716.9531 Q683.9656,716.7656 683.8563,716.25 Q683.8094,715.8906 683.6219,715.7031 Q683.2938,715.3281 682.6844,715.1094 Q682.075,714.8906 681.45,714.8906 Q680.6844,714.8906 680.0438,715.2188 Q679.4188,715.5469 678.9188,716.2969 Q678.4344,717.0469 678.4344,718.0781 L678.4344,719.1719 Q678.4344,720.4063 679.325,721.2344 Q680.2156,722.0469 681.8094,722.0469 Q682.7469,722.0469 683.4031,721.7969 Q683.7938,721.6406 684.2156,721.2031 Q684.4813,720.9375 684.6219,720.8594 Q684.7781,720.7813 684.9813,720.7813 Q685.3094,720.7813 685.5594,721.0469 Q685.825,721.2969 685.825,721.6406 Q685.825,721.9844 685.4813,722.3906 Q684.9813,722.9688 684.1844,723.2969 Q683.1063,723.75 681.8094,723.75 Q680.2938,723.75 679.0906,723.125 Q678.1063,722.625 677.4188,721.5625 Q676.7313,720.4844 676.7313,719.2031 L676.7313,718.0469 Q676.7313,716.7188 677.3406,715.5781 Q677.9656,714.4219 679.0594,713.8125 Q680.1531,713.1875 681.3875,713.1875 Q682.1219,713.1875 682.7625,713.3594 Q683.4188,713.5156 683.9656,713.875 Z " fill="#000000"/><text fill="#000000" font-family="sans-serif" font-size="14" lengthAdjust="spacing" textLength="114" x="698.8" y="723.7969">VehicleRepository</text><line style="stroke:#181818;stroke-width:0.5;" x1="651" x2="831" y1="734" y2="734"/><text fill="#000000" font-family="sans-serif" font-size="14" lengthAdjust="spacing" textLength="170" x="656" y="753.1074">-List&lt;Vehicle&gt; vehiclesList;</text><line style="stroke:#181818;stroke-width:0.5;" x1="651" x2="831" y1="760.6211" y2="760.6211"/></g><!--class VehicleNeedingMaintenanceRepository--><g id="elem_VehicleNeedingMaintenanceRepository"><rect codeLine="19" fill="#F1F1F1" height="103.8633" id="VehicleNeedingMaintenanceRepository" rx="2.5" ry="2.5" style="stroke:#181818;stroke-width:0.5;" width="411" x="205.5" y="537"/><ellipse cx="283.25" cy="553" fill="#ADD1B2" rx="11" ry="11" style="stroke:#181818;stroke-width:1.0;"/><path d="M286.0156,548.875 Q286.1719,548.6563 286.3594,548.5469 Q286.5469,548.4375 286.7656,548.4375 Q287.1406,548.4375 287.375,548.7031 Q287.6094,548.9531 287.6094,549.5625 L287.6094,551.0156 Q287.6094,551.625 287.375,551.8906 Q287.1406,552.1563 286.7656,552.1563 Q286.4219,552.1563 286.2188,551.9531 Q286.0156,551.7656 285.9063,551.25 Q285.8594,550.8906 285.6719,550.7031 Q285.3438,550.3281 284.7344,550.1094 Q284.125,549.8906 283.5,549.8906 Q282.7344,549.8906 282.0938,550.2188 Q281.4688,550.5469 280.9688,551.2969 Q280.4844,552.0469 280.4844,553.0781 L280.4844,554.1719 Q280.4844,555.4063 281.375,556.2344 Q282.2656,557.0469 283.8594,557.0469 Q284.7969,557.0469 285.4531,556.7969 Q285.8438,556.6406 286.2656,556.2031 Q286.5313,555.9375 286.6719,555.8594 Q286.8281,555.7813 287.0313,555.7813 Q287.3594,555.7813 287.6094,556.0469 Q287.875,556.2969 287.875,556.6406 Q287.875,556.9844 287.5313,557.3906 Q287.0313,557.9688 286.2344,558.2969 Q285.1563,558.75 283.8594,558.75 Q282.3438,558.75 281.1406,558.125 Q280.1563,557.625 279.4688,556.5625 Q278.7813,555.4844 278.7813,554.2031 L278.7813,553.0469 Q278.7813,551.7188 279.3906,550.5781 Q280.0156,549.4219 281.1094,548.8125 Q282.2031,548.1875 283.4375,548.1875 Q284.1719,548.1875 284.8125,548.3594 Q285.4688,548.5156 286.0156,548.875 Z " fill="#000000"/><text fill="#000000" font-family="sans-serif" font-size="14" lengthAdjust="spacing" textLength="247" x="303.75" y="558.7969">VehicleNeedingMaintenanceRepository</text><line style="stroke:#181818;stroke-width:0.5;" x1="206.5" x2="615.5" y1="569" y2="569"/><line style="stroke:#181818;stroke-width:0.5;" x1="206.5" x2="615.5" y1="577" y2="577"/><text fill="#000000" font-family="sans-serif" font-size="14" lengthAdjust="spacing" textLength="399" x="211.5" y="596.1074">+getVehiclesNeedingMaintenanceList(allVehicles, allCheckUps)</text><text fill="#000000" font-family="sans-serif" font-size="14" lengthAdjust="spacing" textLength="241" x="211.5" y="614.7285">-needsCheckUp(vehicle, allCheckUps)</text><text fill="#000000" font-family="sans-serif" font-size="14" lengthAdjust="spacing" textLength="276" x="211.5" y="633.3496">-getLastCheckUpKms(vehicle, allCheckUps)</text></g><!--class Repositories--><g id="elem_Repositories"><rect codeLine="25" fill="#F1F1F1" height="141.1055" id="Repositories" rx="2.5" ry="2.5" style="stroke:#181818;stroke-width:0.5;" width="297" x="538.5" y="317"/><ellipse cx="643.25" cy="333" fill="#ADD1B2" rx="11" ry="11" style="stroke:#181818;stroke-width:1.0;"/><path d="M646.0156,328.875 Q646.1719,328.6563 646.3594,328.5469 Q646.5469,328.4375 646.7656,328.4375 Q647.1406,328.4375 647.375,328.7031 Q647.6094,328.9531 647.6094,329.5625 L647.6094,331.0156 Q647.6094,331.625 647.375,331.8906 Q647.1406,332.1563 646.7656,332.1563 Q646.4219,332.1563 646.2188,331.9531 Q646.0156,331.7656 645.9063,331.25 Q645.8594,330.8906 645.6719,330.7031 Q645.3438,330.3281 644.7344,330.1094 Q644.125,329.8906 643.5,329.8906 Q642.7344,329.8906 642.0938,330.2188 Q641.4688,330.5469 640.9688,331.2969 Q640.4844,332.0469 640.4844,333.0781 L640.4844,334.1719 Q640.4844,335.4063 641.375,336.2344 Q642.2656,337.0469 643.8594,337.0469 Q644.7969,337.0469 645.4531,336.7969 Q645.8438,336.6406 646.2656,336.2031 Q646.5313,335.9375 646.6719,335.8594 Q646.8281,335.7813 647.0313,335.7813 Q647.3594,335.7813 647.6094,336.0469 Q647.875,336.2969 647.875,336.6406 Q647.875,336.9844 647.5313,337.3906 Q647.0313,337.9688 646.2344,338.2969 Q645.1563,338.75 643.8594,338.75 Q642.3438,338.75 641.1406,338.125 Q640.1563,337.625 639.4688,336.5625 Q638.7813,335.4844 638.7813,334.2031 L638.7813,333.0469 Q638.7813,331.7188 639.3906,330.5781 Q640.0156,329.4219 641.1094,328.8125 Q642.2031,328.1875 643.4375,328.1875 Q644.1719,328.1875 644.8125,328.3594 Q645.4688,328.5156 646.0156,328.875 Z " fill="#000000"/><text fill="#000000" font-family="sans-serif" font-size="14" lengthAdjust="spacing" textLength="79" x="663.75" y="338.7969">Repositories</text><line style="stroke:#181818;stroke-width:0.5;" x1="539.5" x2="834.5" y1="349" y2="349"/><line style="stroke:#181818;stroke-width:0.5;" x1="539.5" x2="834.5" y1="357" y2="357"/><text fill="#000000" font-family="sans-serif" font-size="14" lengthAdjust="spacing" textLength="94" x="544.5" y="376.1074">-Repositories()</text><text fill="#000000" font-family="sans-serif" font-size="14" lengthAdjust="spacing" textLength="182" x="544.5" y="394.7285">+getInstance() : Repositories</text><text fill="#000000" font-family="sans-serif" font-size="14" lengthAdjust="spacing" textLength="152" x="544.5" y="413.3496">+getVehicleRepository()</text><text fill="#000000" font-family="sans-serif" font-size="14" lengthAdjust="spacing" textLength="163" x="544.5" y="431.9707">+getCheckUpRepository()</text><text fill="#000000" font-family="sans-serif" font-size="14" lengthAdjust="spacing" textLength="285" x="544.5" y="450.5918">+getVehicleNeedingMaintenanceRepository()</text></g><!--class VehicleNeedingMaintenanceController--><g id="elem_VehicleNeedingMaintenanceController"><rect codeLine="33" fill="#F1F1F1" height="122.4844" id="VehicleNeedingMaintenanceController" rx="2.5" ry="2.5" style="stroke:#181818;stroke-width:0.5;" width="770" x="7" y="116"/><ellipse cx="267.25" cy="132" fill="#ADD1B2" rx="11" ry="11" style="stroke:#181818;stroke-width:1.0;"/><path d="M270.0156,127.875 Q270.1719,127.6563 270.3594,127.5469 Q270.5469,127.4375 270.7656,127.4375 Q271.1406,127.4375 271.375,127.7031 Q271.6094,127.9531 271.6094,128.5625 L271.6094,130.0156 Q271.6094,130.625 271.375,130.8906 Q271.1406,131.1563 270.7656,131.1563 Q270.4219,131.1563 270.2188,130.9531 Q270.0156,130.7656 269.9063,130.25 Q269.8594,129.8906 269.6719,129.7031 Q269.3438,129.3281 268.7344,129.1094 Q268.125,128.8906 267.5,128.8906 Q266.7344,128.8906 266.0938,129.2188 Q265.4688,129.5469 264.9688,130.2969 Q264.4844,131.0469 264.4844,132.0781 L264.4844,133.1719 Q264.4844,134.4063 265.375,135.2344 Q266.2656,136.0469 267.8594,136.0469 Q268.7969,136.0469 269.4531,135.7969 Q269.8438,135.6406 270.2656,135.2031 Q270.5313,134.9375 270.6719,134.8594 Q270.8281,134.7813 271.0313,134.7813 Q271.3594,134.7813 271.6094,135.0469 Q271.875,135.2969 271.875,135.6406 Q271.875,135.9844 271.5313,136.3906 Q271.0313,136.9688 270.2344,137.2969 Q269.1563,137.75 267.8594,137.75 Q266.3438,137.75 265.1406,137.125 Q264.1563,136.625 263.4688,135.5625 Q262.7813,134.4844 262.7813,133.2031 L262.7813,132.0469 Q262.7813,130.7188 263.3906,129.5781 Q264.0156,128.4219 265.1094,127.8125 Q266.2031,127.1875 267.4375,127.1875 Q268.1719,127.1875 268.8125,127.3594 Q269.4688,127.5156 270.0156,127.875 Z " fill="#000000"/><text fill="#000000" font-family="sans-serif" font-size="14" lengthAdjust="spacing" textLength="241" x="287.75" y="137.7969">VehicleNeedingMaintenanceController</text><line style="stroke:#181818;stroke-width:0.5;" x1="8" x2="776" y1="148" y2="148"/><line style="stroke:#181818;stroke-width:0.5;" x1="8" x2="776" y1="156" y2="156"/><text fill="#000000" font-family="sans-serif" font-size="14" lengthAdjust="spacing" textLength="758" x="13" y="175.1074">+VehicleNeedingMaintenanceController( vehicleNeedingMaintenanceRepository, checkUpRepository, vehicleRepository)</text><text fill="#000000" font-family="sans-serif" font-size="14" lengthAdjust="spacing" textLength="149" x="13" y="193.7285">-getVehicleRepository()</text><text fill="#000000" font-family="sans-serif" font-size="14" lengthAdjust="spacing" textLength="160" x="13" y="212.3496">-getCheckUpRepository()</text><text fill="#000000" font-family="sans-serif" font-size="14" lengthAdjust="spacing" textLength="246" x="13" y="230.9707">+getVehiclesNeedingMaintenanceList()</text></g><!--class VehicleNeedingMaintenanceUI--><g id="elem_VehicleNeedingMaintenanceUI"><rect codeLine="40" fill="#F1F1F1" height="48" id="VehicleNeedingMaintenanceUI" rx="2.5" ry="2.5" style="stroke:#181818;stroke-width:0.5;" width="223" x="280.5" y="7"/><ellipse cx="295.5" cy="23" fill="#ADD1B2" rx="11" ry="11" style="stroke:#181818;stroke-width:1.0;"/><path d="M298.2656,18.875 Q298.4219,18.6563 298.6094,18.5469 Q298.7969,18.4375 299.0156,18.4375 Q299.3906,18.4375 299.625,18.7031 Q299.8594,18.9531 299.8594,19.5625 L299.8594,21.0156 Q299.8594,21.625 299.625,21.8906 Q299.3906,22.1563 299.0156,22.1563 Q298.6719,22.1563 298.4688,21.9531 Q298.2656,21.7656 298.1563,21.25 Q298.1094,20.8906 297.9219,20.7031 Q297.5938,20.3281 296.9844,20.1094 Q296.375,19.8906 295.75,19.8906 Q294.9844,19.8906 294.3438,20.2188 Q293.7188,20.5469 293.2188,21.2969 Q292.7344,22.0469 292.7344,23.0781 L292.7344,24.1719 Q292.7344,25.4063 293.625,26.2344 Q294.5156,27.0469 296.1094,27.0469 Q297.0469,27.0469 297.7031,26.7969 Q298.0938,26.6406 298.5156,26.2031 Q298.7813,25.9375 298.9219,25.8594 Q299.0781,25.7813 299.2813,25.7813 Q299.6094,25.7813 299.8594,26.0469 Q300.125,26.2969 300.125,26.6406 Q300.125,26.9844 299.7813,27.3906 Q299.2813,27.9688 298.4844,28.2969 Q297.4063,28.75 296.1094,28.75 Q294.5938,28.75 293.3906,28.125 Q292.4063,27.625 291.7188,26.5625 Q291.0313,25.4844 291.0313,24.2031 L291.0313,23.0469 Q291.0313,21.7188 291.6406,20.5781 Q292.2656,19.4219 293.3594,18.8125 Q294.4531,18.1875 295.6875,18.1875 Q296.4219,18.1875 297.0625,18.3594 Q297.7188,18.5156 298.2656,18.875 Z " fill="#000000"/><text fill="#000000" font-family="sans-serif" font-size="14" lengthAdjust="spacing" textLength="191" x="309.5" y="28.7969">VehicleNeedingMaintenanceUI</text><line style="stroke:#181818;stroke-width:0.5;" x1="281.5" x2="502.5" y1="39" y2="39"/><line style="stroke:#181818;stroke-width:0.5;" x1="281.5" x2="502.5" y1="47" y2="47"/></g><!--link VehicleNeedingMaintenanceUI to VehicleNeedingMaintenanceController--><g id="link_VehicleNeedingMaintenanceUI_VehicleNeedingMaintenanceController"><path codeLine="43" d="M392,55.14 C392,71.59 392,88.5 392,109.95 " fill="none" id="VehicleNeedingMaintenanceUI-to-VehicleNeedingMaintenanceController" style="stroke:#181818;stroke-width:1.0;stroke-dasharray:7.0,7.0;"/><polygon fill="#181818" points="392,115.95,396,106.95,392,110.95,388,106.95,392,115.95" style="stroke:#181818;stroke-width:1.0;"/></g><!--link VehicleNeedingMaintenanceController to Repositories--><g id="link_VehicleNeedingMaintenanceController_Repositories"><path codeLine="45" d="M476.93,238.03 C511.82,262.69 547.5502,287.9371 583.7302,313.5071 " fill="none" id="VehicleNeedingMaintenanceController-to-Repositories" style="stroke:#181818;stroke-width:1.0;stroke-dasharray:7.0,7.0;"/><polygon fill="#181818" points="588.63,316.97,583.5889,308.5091,584.5468,314.0842,578.9717,315.0422,588.63,316.97" style="stroke:#181818;stroke-width:1.0;"/><text fill="#000000" font-family="sans-serif" font-size="13" lengthAdjust="spacing" textLength="67" x="540" y="283.0283">repositories</text></g><!--link VehicleNeedingMaintenanceController to CheckUpRepository--><g id="link_VehicleNeedingMaintenanceController_CheckUpRepository"><path codeLine="46" d="M335.3,238.03 C319.71,254.54 307,268 307,268 C307,268 197,488 197,488 C197,488 188,537 188,537 C188,537 188,641 188,641 C188,641 263.4265,672.6303 327.7865,699.6103 " fill="none" id="VehicleNeedingMaintenanceController-to-CheckUpRepository" style="stroke:#181818;stroke-width:1.0;stroke-dasharray:7.0,7.0;"/><polygon fill="#181818" points="333.32,701.93,326.5662,694.7615,328.7088,699.997,323.4734,702.1395,333.32,701.93" style="stroke:#181818;stroke-width:1.0;"/><text fill="#000000" font-family="sans-serif" font-size="13" lengthAdjust="spacing" textLength="115" x="198" y="503.0283">CheckUpRepository</text></g><!--link VehicleNeedingMaintenanceController to VehicleRepository--><g id="link_VehicleNeedingMaintenanceController_VehicleRepository"><path codeLine="47" d="M625.32,238.06 C771.36,275.65 932,317 932,317 C932,317 932,458 932,458 C932,458 817.3702,623.9433 766.8802,697.0333 " fill="none" id="VehicleNeedingMaintenanceController-to-VehicleRepository" style="stroke:#181818;stroke-width:1.0;stroke-dasharray:7.0,7.0;"/><polygon fill="#181818" points="763.47,701.97,771.8764,696.8385,766.3118,697.8561,765.2942,692.2916,763.47,701.97" style="stroke:#181818;stroke-width:1.0;"/><text fill="#000000" font-family="sans-serif" font-size="13" lengthAdjust="spacing" textLength="105" x="912" y="503.0283">VehicleRepository</text></g><!--link VehicleNeedingMaintenanceController to VehicleNeedingMaintenanceRepository--><g id="link_VehicleNeedingMaintenanceController_VehicleNeedingMaintenanceRepository"><path codeLine="48" d="M349.15,238.16 C322.4,275.73 293,317 293,317 C293,317 293,458 293,458 C293,458 327.6072,496.1274 360.6672,532.5474 " fill="none" id="VehicleNeedingMaintenanceController-to-VehicleNeedingMaintenanceRepository" style="stroke:#181818;stroke-width:1.0;stroke-dasharray:7.0,7.0;"/><polygon fill="#181818" points="364.7,536.99,361.6126,527.6376,361.3394,533.2878,355.6891,533.0146,364.7,536.99" style="stroke:#181818;stroke-width:1.0;"/><text fill="#000000" font-family="sans-serif" font-size="13" lengthAdjust="spacing" textLength="226" x="294" y="393.0283">VehicleNeedingMaintenanceRepository</text></g><!--link Repositories to CheckUpRepository--><g id="link_Repositories_CheckUpRepository"><path codeLine="50" d="M672.38,458.17 C656.69,532.9 634,641 634,641 C634,641 558.5735,672.6303 494.2135,699.6103 " fill="none" id="Repositories-to-CheckUpRepository" style="stroke:#181818;stroke-width:1.0;"/><polygon fill="#181818" points="488.68,701.93,498.5266,702.1395,493.2912,699.997,495.4338,694.7615,488.68,701.93" style="stroke:#181818;stroke-width:1.0;"/><text fill="#000000" font-family="sans-serif" font-size="13" lengthAdjust="spacing" textLength="7" x="496.2842" y="690.7417">1</text></g><!--link Repositories to VehicleRepository--><g id="link_Repositories_VehicleRepository"><path codeLine="51" d="M697.86,458.1 C709.41,532.1 726.2541,640.0519 734.9441,695.6919 " fill="none" id="Repositories-to-VehicleRepository" style="stroke:#181818;stroke-width:1.0;"/><polygon fill="#181818" points="735.87,701.62,738.4333,692.1106,735.0984,696.6799,730.5291,693.345,735.87,701.62" style="stroke:#181818;stroke-width:1.0;"/><text fill="#000000" font-family="sans-serif" font-size="13" lengthAdjust="spacing" textLength="7" x="727.2249" y="690.6335">1</text></g><!--link Repositories to VehicleNeedingMaintenanceRepository--><g id="link_Repositories_VehicleNeedingMaintenanceRepository"><path codeLine="52" d="M590.47,458.28 C554.72,484.12 519.7326,509.4051 486.6826,533.2951 " fill="none" id="Repositories-to-VehicleNeedingMaintenanceRepository" style="stroke:#181818;stroke-width:1.0;"/><polygon fill="#181818" points="481.82,536.81,491.4572,534.7794,485.8722,533.8809,486.7707,528.2958,481.82,536.81" style="stroke:#181818;stroke-width:1.0;"/><text fill="#000000" font-family="sans-serif" font-size="13" lengthAdjust="spacing" textLength="7" x="483.8661" y="525.7118">1</text></g><!--link Repositories to Repositories--><g id="link_Repositories_Repositories"><path codeLine="53" d="M835.68,369.04 C856.53,372.06 870.5,378.21 870.5,387.5 C870.5,396.79 862.468,402.0799 841.618,405.0999 " fill="none" id="Repositories-to-Repositories" style="stroke:#181818;stroke-width:1.0;"/><polygon fill="#181818" points="835.68,405.96,845.1604,408.6286,840.6284,405.2433,844.0137,400.7112,835.68,405.96" style="stroke:#181818;stroke-width:1.0;"/><text fill="#000000" font-family="sans-serif" font-size="13" lengthAdjust="spacing" textLength="49" x="876.5" y="393.0283">instance</text></g><!--link VehicleNeedingMaintenanceRepository to CheckUpRepository--><g id="link_VehicleNeedingMaintenanceRepository_CheckUpRepository"><path codeLine="55" d="M411,641.35 C411,661.47 411,677.95 411,695.79 " fill="none" id="VehicleNeedingMaintenanceRepository-to-CheckUpRepository" style="stroke:#181818;stroke-width:1.0;"/><polygon fill="#181818" points="411,701.79,415,692.79,411,696.79,407,692.79,411,701.79" style="stroke:#181818;stroke-width:1.0;"/><text fill="#000000" font-family="sans-serif" font-size="13" lengthAdjust="spacing" textLength="7" x="403.3328" y="690.8359">1</text></g><!--link VehicleNeedingMaintenanceRepository to VehicleRepository--><g id="link_VehicleNeedingMaintenanceRepository_VehicleRepository"><path codeLine="56" d="M527.81,641.15 C573.98,661.36 620.1634,681.5942 661.0834,699.5042 " fill="none" id="VehicleNeedingMaintenanceRepository-to-VehicleRepository" style="stroke:#181818;stroke-width:1.0;"/><polygon fill="#181818" points="666.58,701.91,659.939,694.637,661.9995,699.9052,656.7313,701.9657,666.58,701.91" style="stroke:#181818;stroke-width:1.0;"/><text fill="#000000" font-family="sans-serif" font-size="13" lengthAdjust="spacing" textLength="7" x="644.2395" y="690.7178">1</text></g><!--SRC=[bLJ1JiCm3BtdAwnTreaDmRMWIOZJnE00Wdl8l3PQbbI91ng8VwVTCfgH4hgUKlizn-_PxT2jfAwuvMjO6sr4QSqQWUm6MPkfk5Zn0fzegn0i2kAwK270bNnXtgKkOCcL2pDAQgHjXL0PjMrUsB0ZQImP5h24uixT45dvkY6S2QEVv0V21MD3XKi2Cc1bKH8iPDEED9gn7GTkInIhv-eHA-Ca6RlzP50_axbqTEsJKn3xGnEyOby7xWkMKYZivlha5Dxs1zTDVa1Sr3xSSwa9DTSYAdS61P97knZUbCsuKWV46EeNtxWRxHi2NTES3sQ-eKvWVTMSE_BXkxNx0_qZuwTRYSxBFufberR4J3jgMiv6a1-18fsj1o4_cbMOxE5dDkfX_wtHP8rIQFTouAm7D3jCENNz-B16OUZjjs0_YOGNavGL_-zA7nEUPvyDAf67y_Df7nCJHLhGhbYu47dzrmZMes-9o9Ky3lKk5jcVnw5JYwNM8-y3OYoq2IQJAGmk1x78BbJSVGALR2BY7SzE-kyyCVkssDyQJY37qhu1]--></g></svg>