<?xml version="1.0" encoding="us-ascii" standalone="no"?><svg xmlns="http://www.w3.org/2000/svg" xmlns:xlink="http://www.w3.org/1999/xlink" contentStyleType="text/css" height="350px" preserveAspectRatio="none" style="width:608px;height:350px;background:#FFFFFF;" version="1.1" viewBox="0 0 608 350" width="608px" zoomAndPan="magnify"><defs/><g><rect fill="#FFFFFF" height="267.8037" style="stroke:#181818;stroke-width:0.5;" width="5" x="80.5" y="45.2666"/><rect fill="#FFFFFF" height="15.6455" style="stroke:#181818;stroke-width:0.5;" width="5" x="158.75" y="74.0576"/><rect fill="#FFFFFF" height="15.6455" style="stroke:#181818;stroke-width:0.5;" width="5" x="212.25" y="105.3486"/><rect fill="#FFFFFF" height="15.6455" style="stroke:#181818;stroke-width:0.5;" width="5" x="282.25" y="136.6396"/><rect fill="#FFFFFF" height="125.9941" style="stroke:#181818;stroke-width:0.5;" width="5" x="364.5" y="167.9307"/><rect fill="#FFFFFF" height="15.6455" style="stroke:#181818;stroke-width:0.5;" width="5" x="485" y="227.8428"/><rect fill="#FFFFFF" height="19.1455" style="stroke:#181818;stroke-width:0.5;" width="5" x="556.25" y="259.1338"/><rect fill="none" height="245.1582" style="stroke:#000000;stroke-width:0.75;" width="576" x="29" y="52.7666"/><rect fill="none" height="56.582" style="stroke:#000000;stroke-width:0.75;" width="274.5" x="325.5" y="206.5518"/><line style="stroke:#181818;stroke-width:0.25;stroke-dasharray:5.0,5.0;" x1="83" x2="83" y1="28.6211" y2="322.0703"/><line style="stroke:#181818;stroke-width:0.25;stroke-dasharray:5.0,5.0;" x1="161" x2="161" y1="28.6211" y2="322.0703"/><line style="stroke:#181818;stroke-width:0.25;stroke-dasharray:5.0,5.0;" x1="214.5" x2="214.5" y1="28.6211" y2="322.0703"/><line style="stroke:#181818;stroke-width:0.25;stroke-dasharray:5.0,5.0;" x1="284.5" x2="284.5" y1="28.6211" y2="322.0703"/><line style="stroke:#181818;stroke-width:0.25;stroke-dasharray:5.0,5.0;" x1="367" x2="367" y1="28.6211" y2="322.0703"/><line style="stroke:#181818;stroke-width:0.25;stroke-dasharray:5.0,5.0;" x1="487.5" x2="487.5" y1="28.6211" y2="322.0703"/><line style="stroke:#181818;stroke-width:0.25;stroke-dasharray:5.0,5.0;" x1="558.5" x2="558.5" y1="192.4912" y2="322.0703"/><rect fill="#E3E3E3" height="16.3105" rx="1.25" ry="1.25" style="stroke:#181818;stroke-width:0.25;" width="98" x="34" y="11.8105"/><text fill="#000000" font-family="sans-serif" font-size="7" lengthAdjust="spacing" textLength="91" x="37.5" y="22.8643">:AddTaskToDoListControlller</text><rect fill="#E3E3E3" height="16.3105" rx="1.25" ry="1.25" style="stroke:#181818;stroke-width:0.25;" width="98" x="34" y="321.5703"/><text fill="#000000" font-family="sans-serif" font-size="7" lengthAdjust="spacing" textLength="91" x="37.5" y="332.624">:AddTaskToDoListControlller</text><rect fill="#E3E3E3" height="16.3105" rx="1.25" ry="1.25" style="stroke:#181818;stroke-width:0.25;" width="48.5" x="137" y="11.8105"/><text fill="#000000" font-family="sans-serif" font-size="7" lengthAdjust="spacing" textLength="41.5" x="140.5" y="22.8643">:Repositories</text><rect fill="#E3E3E3" height="16.3105" rx="1.25" ry="1.25" style="stroke:#181818;stroke-width:0.25;" width="48.5" x="137" y="321.5703"/><text fill="#000000" font-family="sans-serif" font-size="7" lengthAdjust="spacing" textLength="41.5" x="140.5" y="332.624">:Repositories</text><rect fill="#E3E3E3" height="25.6211" rx="1.25" ry="1.25" style="stroke:#181818;stroke-width:0.25;" width="48.5" x="190.5" y="2.5"/><text fill="#000000" font-family="sans-serif" font-size="7" lengthAdjust="spacing" textLength="37" x="196.25" y="13.5537">repositories</text><text fill="#000000" font-family="sans-serif" font-size="7" lengthAdjust="spacing" textLength="41.5" x="194" y="22.8643">:Repositories</text><rect fill="#E3E3E3" height="25.6211" rx="1.25" ry="1.25" style="stroke:#181818;stroke-width:0.25;" width="48.5" x="190.5" y="321.5703"/><text fill="#000000" font-family="sans-serif" font-size="7" lengthAdjust="spacing" textLength="37" x="196.25" y="332.624">repositories</text><text fill="#000000" font-family="sans-serif" font-size="7" lengthAdjust="spacing" textLength="41.5" x="194" y="341.9346">:Repositories</text><rect fill="#E3E3E3" height="25.6211" rx="1.25" ry="1.25" style="stroke:#181818;stroke-width:0.25;" width="81.5" x="244" y="2.5"/><text fill="#000000" font-family="sans-serif" font-size="7" lengthAdjust="spacing" textLength="74.5" x="247.5" y="13.5537">greenSpaceRepository:</text><text fill="#000000" font-family="sans-serif" font-size="7" lengthAdjust="spacing" textLength="74" x="247.75" y="22.8643">GreenSpaceRepository</text><rect fill="#E3E3E3" height="25.6211" rx="1.25" ry="1.25" style="stroke:#181818;stroke-width:0.25;" width="81.5" x="244" y="321.5703"/><text fill="#000000" font-family="sans-serif" font-size="7" lengthAdjust="spacing" textLength="74.5" x="247.5" y="332.624">greenSpaceRepository:</text><text fill="#000000" font-family="sans-serif" font-size="7" lengthAdjust="spacing" textLength="74" x="247.75" y="341.9346">GreenSpaceRepository</text><rect fill="#E3E3E3" height="16.3105" rx="1.25" ry="1.25" style="stroke:#181818;stroke-width:0.25;" width="73" x="330.5" y="11.8105"/><text fill="#000000" font-family="sans-serif" font-size="7" lengthAdjust="spacing" textLength="66" x="334" y="22.8643">:GreenSpaceMapper</text><rect fill="#E3E3E3" height="16.3105" rx="1.25" ry="1.25" style="stroke:#181818;stroke-width:0.25;" width="73" x="330.5" y="321.5703"/><text fill="#000000" font-family="sans-serif" font-size="7" lengthAdjust="spacing" textLength="66" x="334" y="332.624">:GreenSpaceMapper</text><rect fill="#E3E3E3" height="25.6211" rx="1.25" ry="1.25" style="stroke:#181818;stroke-width:0.25;" width="60" x="457.5" y="2.5"/><text fill="#000000" font-family="sans-serif" font-size="7" lengthAdjust="spacing" textLength="51" x="462" y="13.5537">GreenSpaceDto</text><text fill="#000000" font-family="sans-serif" font-size="7" lengthAdjust="spacing" textLength="53" x="461" y="22.8643">:GreenSpaceDto</text><rect fill="#E3E3E3" height="25.6211" rx="1.25" ry="1.25" style="stroke:#181818;stroke-width:0.25;" width="60" x="457.5" y="321.5703"/><text fill="#000000" font-family="sans-serif" font-size="7" lengthAdjust="spacing" textLength="51" x="462" y="332.624">GreenSpaceDto</text><text fill="#000000" font-family="sans-serif" font-size="7" lengthAdjust="spacing" textLength="53" x="461" y="341.9346">:GreenSpaceDto</text><rect fill="#E3E3E3" height="25.6211" rx="1.25" ry="1.25" style="stroke:#181818;stroke-width:0.25;" width="72.5" x="522.5" y="321.5703"/><text fill="#000000" font-family="sans-serif" font-size="7" lengthAdjust="spacing" textLength="65.5" x="526" y="332.624">GreenSpacesListDto</text><text fill="#000000" font-family="sans-serif" font-size="7" lengthAdjust="spacing" textLength="47.5" x="535" y="341.9346">:List&lt;TaskDto&gt;</text><rect fill="#FFFFFF" height="267.8037" style="stroke:#181818;stroke-width:0.5;" width="5" x="80.5" y="45.2666"/><rect fill="#FFFFFF" height="15.6455" style="stroke:#181818;stroke-width:0.5;" width="5" x="158.75" y="74.0576"/><rect fill="#FFFFFF" height="15.6455" style="stroke:#181818;stroke-width:0.5;" width="5" x="212.25" y="105.3486"/><rect fill="#FFFFFF" height="15.6455" style="stroke:#181818;stroke-width:0.5;" width="5" x="282.25" y="136.6396"/><rect fill="#FFFFFF" height="125.9941" style="stroke:#181818;stroke-width:0.5;" width="5" x="364.5" y="167.9307"/><rect fill="#FFFFFF" height="15.6455" style="stroke:#181818;stroke-width:0.5;" width="5" x="485" y="227.8428"/><rect fill="#FFFFFF" height="19.1455" style="stroke:#181818;stroke-width:0.5;" width="5" x="556.25" y="259.1338"/><polygon fill="#181818" points="74.5,43.2666,79.5,45.2666,74.5,47.2666,76.5,45.2666" style="stroke:#181818;stroke-width:0.5;"/><line style="stroke:#181818;stroke-width:0.5;" x1="0" x2="77.5" y1="45.2666" y2="45.2666"/><text fill="#000000" font-family="sans-serif" font-size="6.5" font-weight="bold" lengthAdjust="spacing" textLength="3.5" x="3.5" y="42.6353">3</text><text fill="#000000" font-family="sans-serif" font-size="6.5" lengthAdjust="spacing" textLength="65.5" x="9" y="42.6353">getGreenSpacesDTO()</text><path d="M29,52.7666 L137.5,52.7666 L137.5,57.4121 L132.5,62.4121 L29,62.4121 L29,52.7666 " fill="#EEEEEE" style="stroke:#000000;stroke-width:0.75;"/><rect fill="none" height="245.1582" style="stroke:#000000;stroke-width:0.75;" width="576" x="29" y="52.7666"/><text fill="#000000" font-family="sans-serif" font-size="6.5" font-weight="bold" lengthAdjust="spacing" textLength="86" x="36.5" y="60.2808">Get Green Spaces DTO List</text><polygon fill="#181818" points="152.75,72.0576,157.75,74.0576,152.75,76.0576,154.75,74.0576" style="stroke:#181818;stroke-width:0.5;"/><line style="stroke:#181818;stroke-width:0.5;" x1="85.5" x2="155.75" y1="74.0576" y2="74.0576"/><text fill="#000000" font-family="sans-serif" font-size="6.5" font-weight="bold" lengthAdjust="spacing" textLength="9" x="89" y="71.4263">3.1</text><text fill="#000000" font-family="sans-serif" font-size="6.5" lengthAdjust="spacing" textLength="37.5" x="100" y="71.4263">getInstance()</text><polygon fill="#181818" points="91,87.7031,86,89.7031,91,91.7031,89,89.7031" style="stroke:#181818;stroke-width:0.5;"/><line style="stroke:#181818;stroke-width:0.5;stroke-dasharray:2.0,2.0;" x1="88" x2="160.75" y1="89.7031" y2="89.7031"/><text fill="#000000" font-family="sans-serif" font-size="6.5" font-weight="bold" lengthAdjust="spacing" textLength="9" x="94" y="87.0718">3.2</text><text fill="#000000" font-family="sans-serif" font-size="6.5" lengthAdjust="spacing" textLength="33.5" x="105" y="87.0718">repositories</text><polygon fill="#181818" points="206.25,103.3486,211.25,105.3486,206.25,107.3486,208.25,105.3486" style="stroke:#181818;stroke-width:0.5;"/><line style="stroke:#181818;stroke-width:0.5;" x1="85.5" x2="209.25" y1="105.3486" y2="105.3486"/><text fill="#000000" font-family="sans-serif" font-size="6.5" font-weight="bold" lengthAdjust="spacing" textLength="9" x="89" y="102.7173">3.3</text><text fill="#000000" font-family="sans-serif" font-size="6.5" lengthAdjust="spacing" textLength="80" x="100" y="102.7173">getGreenSpaceRepository()</text><polygon fill="#181818" points="91,118.9941,86,120.9941,91,122.9941,89,120.9941" style="stroke:#181818;stroke-width:0.5;"/><line style="stroke:#181818;stroke-width:0.5;stroke-dasharray:2.0,2.0;" x1="88" x2="214.25" y1="120.9941" y2="120.9941"/><text fill="#000000" font-family="sans-serif" font-size="6.5" font-weight="bold" lengthAdjust="spacing" textLength="9" x="94" y="118.3628">3.4</text><text fill="#000000" font-family="sans-serif" font-size="6.5" lengthAdjust="spacing" textLength="65.5" x="105" y="118.3628">greenSpaceRepository</text><polygon fill="#181818" points="276.25,134.6396,281.25,136.6396,276.25,138.6396,278.25,136.6396" style="stroke:#181818;stroke-width:0.5;"/><line style="stroke:#181818;stroke-width:0.5;" x1="85.5" x2="279.25" y1="136.6396" y2="136.6396"/><text fill="#000000" font-family="sans-serif" font-size="6.5" font-weight="bold" lengthAdjust="spacing" textLength="9" x="89" y="134.0083">3.5</text><text fill="#000000" font-family="sans-serif" font-size="6.5" lengthAdjust="spacing" textLength="63" x="100" y="134.0083">getGreenSpacesList()</text><polygon fill="#181818" points="91,150.2852,86,152.2852,91,154.2852,89,152.2852" style="stroke:#181818;stroke-width:0.5;"/><line style="stroke:#181818;stroke-width:0.5;stroke-dasharray:2.0,2.0;" x1="88" x2="284.25" y1="152.2852" y2="152.2852"/><text fill="#000000" font-family="sans-serif" font-size="6.5" font-weight="bold" lengthAdjust="spacing" textLength="9" x="94" y="149.6538">3.6</text><text fill="#000000" font-family="sans-serif" font-size="6.5" lengthAdjust="spacing" textLength="48.5" x="105" y="149.6538">greenSpacesList</text><polygon fill="#181818" points="358.5,165.9307,363.5,167.9307,358.5,169.9307,360.5,167.9307" style="stroke:#181818;stroke-width:0.5;"/><line style="stroke:#181818;stroke-width:0.5;" x1="85.5" x2="361.5" y1="167.9307" y2="167.9307"/><text fill="#000000" font-family="sans-serif" font-size="6.5" font-weight="bold" lengthAdjust="spacing" textLength="9" x="89" y="165.2993">3.7</text><text fill="#000000" font-family="sans-serif" font-size="6.5" lengthAdjust="spacing" textLength="81.5" x="100" y="165.2993">toDTOList(greenSpacesList)</text><polygon fill="#181818" points="516.5,181.5762,521.5,183.5762,516.5,185.5762,518.5,183.5762" style="stroke:#181818;stroke-width:0.5;"/><line style="stroke:#181818;stroke-width:0.5;" x1="369.5" x2="519.5" y1="183.5762" y2="183.5762"/><text fill="#000000" font-family="sans-serif" font-size="6.5" font-weight="bold" lengthAdjust="spacing" textLength="9" x="373" y="180.9448">3.8</text><text fill="#000000" font-family="sans-serif" font-size="6.5" lengthAdjust="spacing" textLength="22" x="384" y="180.9448">create()</text><rect fill="#E3E3E3" height="25.6211" rx="1.25" ry="1.25" style="stroke:#181818;stroke-width:0.25;" width="72.5" x="522.5" y="171.9307"/><text fill="#000000" font-family="sans-serif" font-size="7" lengthAdjust="spacing" textLength="65.5" x="526" y="182.9844">GreenSpacesListDto</text><text fill="#000000" font-family="sans-serif" font-size="7" lengthAdjust="spacing" textLength="47.5" x="535" y="192.2949">:List&lt;TaskDto&gt;</text><path d="M325.5,206.5518 L362,206.5518 L362,211.1973 L357,216.1973 L325.5,216.1973 L325.5,206.5518 " fill="#EEEEEE" style="stroke:#000000;stroke-width:0.75;"/><rect fill="none" height="56.582" style="stroke:#000000;stroke-width:0.75;" width="274.5" x="325.5" y="206.5518"/><text fill="#000000" font-family="sans-serif" font-size="6.5" font-weight="bold" lengthAdjust="spacing" textLength="14" x="333" y="214.0659">loop</text><text fill="#000000" font-family="sans-serif" font-size="5.5" font-weight="bold" lengthAdjust="spacing" textLength="96" x="369.5" y="213.4868">[For each task in greenSpacesList]</text><polygon fill="#181818" points="479,225.8428,484,227.8428,479,229.8428,481,227.8428" style="stroke:#181818;stroke-width:0.5;"/><line style="stroke:#181818;stroke-width:0.5;" x1="369.5" x2="482" y1="227.8428" y2="227.8428"/><text fill="#000000" font-family="sans-serif" font-size="6.5" font-weight="bold" lengthAdjust="spacing" textLength="9" x="373" y="225.2114">3.9</text><text fill="#000000" font-family="sans-serif" font-size="6.5" lengthAdjust="spacing" textLength="95" x="384" y="225.2114">tgreenSpaceToDTO(greenSpace)</text><polygon fill="#181818" points="375,241.4883,370,243.4883,375,245.4883,373,243.4883" style="stroke:#181818;stroke-width:0.5;"/><line style="stroke:#181818;stroke-width:0.5;stroke-dasharray:2.0,2.0;" x1="372" x2="487" y1="243.4883" y2="243.4883"/><text fill="#000000" font-family="sans-serif" font-size="6.5" font-weight="bold" lengthAdjust="spacing" textLength="12.5" x="378" y="240.8569">3.10</text><text fill="#000000" font-family="sans-serif" font-size="6.5" lengthAdjust="spacing" textLength="47.5" x="392.5" y="240.8569">greenSpaceDTO</text><polygon fill="#181818" points="550.25,257.1338,555.25,259.1338,550.25,261.1338,552.25,259.1338" style="stroke:#181818;stroke-width:0.5;"/><line style="stroke:#181818;stroke-width:0.5;" x1="369.5" x2="553.25" y1="259.1338" y2="259.1338"/><text fill="#000000" font-family="sans-serif" font-size="6.5" font-weight="bold" lengthAdjust="spacing" textLength="12.5" x="373" y="256.5024">3.11</text><text fill="#000000" font-family="sans-serif" font-size="6.5" lengthAdjust="spacing" textLength="59" x="387.5" y="256.5024">add(greenSpaceDto)</text><polygon fill="#181818" points="375,276.2793,370,278.2793,375,280.2793,373,278.2793" style="stroke:#181818;stroke-width:0.5;"/><line style="stroke:#181818;stroke-width:0.5;stroke-dasharray:2.0,2.0;" x1="372" x2="558.25" y1="278.2793" y2="278.2793"/><text fill="#000000" font-family="sans-serif" font-size="6.5" font-weight="bold" lengthAdjust="spacing" textLength="12.5" x="378" y="275.6479">3.12</text><text fill="#000000" font-family="sans-serif" font-size="6.5" lengthAdjust="spacing" textLength="58.5" x="392.5" y="275.6479">greenSpacesListDto</text><polygon fill="#181818" points="91,291.9248,86,293.9248,91,295.9248,89,293.9248" style="stroke:#181818;stroke-width:0.5;"/><line style="stroke:#181818;stroke-width:0.5;stroke-dasharray:2.0,2.0;" x1="88" x2="366.5" y1="293.9248" y2="293.9248"/><text fill="#000000" font-family="sans-serif" font-size="6.5" font-weight="bold" lengthAdjust="spacing" textLength="12.5" x="94" y="291.2935">3.13</text><text fill="#000000" font-family="sans-serif" font-size="6.5" lengthAdjust="spacing" textLength="58.5" x="108.5" y="291.2935">greenSpacesListDto</text><polygon fill="#181818" points="5.5,311.0703,0.5,313.0703,5.5,315.0703,3.5,313.0703" style="stroke:#181818;stroke-width:0.5;"/><line style="stroke:#181818;stroke-width:0.5;stroke-dasharray:2.0,2.0;" x1="2.5" x2="82.5" y1="313.0703" y2="313.0703"/><text fill="#000000" font-family="sans-serif" font-size="6.5" font-weight="bold" lengthAdjust="spacing" textLength="3.5" x="8.5" y="310.439">4</text><text fill="#000000" font-family="sans-serif" font-size="6.5" lengthAdjust="spacing" textLength="62.5" x="14" y="310.439">greenSpacesListDto()</text><!--SRC=[bLJBRjim4BppAnQvj0cW0a5x4e80GPm60HBKi7pCXP4sCc6P54YwRVw-IygsIEhXL2T9dDcPMIvfjaAsNFCTx9HKvKQh7OBLUsJcjDBoSijhBEn7Ww2nj5pMJGWm6rwfFqBMyCuRWupnlLLoltj3pTYNZQWGtfMoR-elOyImeXGjbnOkyhkgMdEpNQk5UXR6tYjfjMgQ1lK5S0FtwzLpmbXXguomIWiq7hDwMCOG7I1UvIYXY1crHfG5nSGJ-2D_bOyZlts509-AvptfXRVj8KTFUBbRBXzMCQUdBAmYnz5tmb-iVqsHZUjWLy6ztRZ6qkTjKg63KPbWb-0xOv3T-dv33ZNQe2nXlrv6u6_NZ9TM_EOMkoq2UcgjzYqyeWNFXOuCn0Qdo3pe-7WX4gJ-TNfFqj1ObKXA8UuauneThJXcTh2SGxZd4Qp2wHA1YI9DtU_uZADYOAa8F8rDrOotOjnSD6lfrhZ6JlcBXpJ2H4idnv2dKpBbTgRqq7OtyJbOHQFW3ISgP_qVpam4YsDqY5ZtEETNLnIir4WrgLM38erIBVnK6YZU1YoT6H1oq8Z_r2PP2jn_hrts8FVbeDv8R7z6ftNTmSf6EnsNI2kCxkCPhRd-vi2hAiX6LywdulNtK0f6MSsPEHBFfZzUY9zhmRYVOGycJqkgDAeIphBBwPlJNwq__8-RBEiqHaLeYeFI_lxz1m00]--></g></svg>