<?xml version="1.0" encoding="us-ascii" standalone="no"?><svg xmlns="http://www.w3.org/2000/svg" xmlns:xlink="http://www.w3.org/1999/xlink" contentStyleType="text/css" height="638px" preserveAspectRatio="none" style="width:1203px;height:638px;background:#FFFFFF;" version="1.1" viewBox="0 0 1203 638" width="1203px" zoomAndPan="magnify"><defs/><g><rect fill="#FFFFFF" height="482.4434" style="stroke:#181818;stroke-width:1.0;" width="10" x="556" y="90.5332"/><rect fill="#FFFFFF" height="345.6191" style="stroke:#181818;stroke-width:1.0;" width="10" x="561" y="218.3574"/><rect fill="#FFFFFF" height="42.291" style="stroke:#181818;stroke-width:1.0;" width="10" x="566" y="262.6484"/><rect fill="#FFFFFF" height="167.4551" style="stroke:#181818;stroke-width:1.0;" width="10" x="566" y="351.2305"/><rect fill="#FFFFFF" height="31.291" style="stroke:#181818;stroke-width:1.0;" width="10" x="901.5" y="450.1035"/><rect fill="#FFFFFF" height="31.291" style="stroke:#181818;stroke-width:1.0;" width="10" x="1157.5" y="387.5215"/><rect fill="none" height="428.1523" style="stroke:#000000;stroke-width:1.5;" width="681.5" x="515.5" y="105.5332"/><line style="stroke:#181818;stroke-width:0.5;stroke-dasharray:5.0,5.0;" x1="560.5" x2="560.5" y1="57.2422" y2="581.9766"/><line style="stroke:#181818;stroke-width:0.5;stroke-dasharray:5.0,5.0;" x1="765" x2="765" y1="57.2422" y2="581.9766"/><line style="stroke:#181818;stroke-width:0.5;stroke-dasharray:5.0,5.0;" x1="906" x2="906" y1="57.2422" y2="581.9766"/><line style="stroke:#181818;stroke-width:0.5;stroke-dasharray:5.0,5.0;" x1="1162" x2="1162" y1="165.9453" y2="581.9766"/><rect fill="#E3E3E3" height="51.2422" rx="2.5" ry="2.5" style="stroke:#181818;stroke-width:0.5;" width="71" x="525.5" y="5"/><text fill="#000000" font-family="sans-serif" font-size="14" lengthAdjust="spacing" textLength="56" x="533" y="27.1074">toDoList:</text><text fill="#000000" font-family="sans-serif" font-size="14" lengthAdjust="spacing" textLength="57" x="532.5" y="45.7285">ToDoList</text><rect fill="#E3E3E3" height="51.2422" rx="2.5" ry="2.5" style="stroke:#181818;stroke-width:0.5;" width="71" x="525.5" y="580.9766"/><text fill="#000000" font-family="sans-serif" font-size="14" lengthAdjust="spacing" textLength="56" x="533" y="603.084">toDoList:</text><text fill="#000000" font-family="sans-serif" font-size="14" lengthAdjust="spacing" textLength="57" x="532.5" y="621.7051">ToDoList</text><rect fill="#E3E3E3" height="51.2422" rx="2.5" ry="2.5" style="stroke:#181818;stroke-width:0.5;" width="98" x="716" y="5"/><text fill="#000000" font-family="sans-serif" font-size="14" lengthAdjust="spacing" textLength="84" x="723" y="27.1074">GreenSpace:</text><text fill="#000000" font-family="sans-serif" font-size="14" lengthAdjust="spacing" textLength="80" x="725" y="45.7285">GreenSpace</text><rect fill="#E3E3E3" height="51.2422" rx="2.5" ry="2.5" style="stroke:#181818;stroke-width:0.5;" width="98" x="716" y="580.9766"/><text fill="#000000" font-family="sans-serif" font-size="14" lengthAdjust="spacing" textLength="84" x="723" y="603.084">GreenSpace:</text><text fill="#000000" font-family="sans-serif" font-size="14" lengthAdjust="spacing" textLength="80" x="725" y="621.7051">GreenSpace</text><rect fill="#E3E3E3" height="51.2422" rx="2.5" ry="2.5" style="stroke:#181818;stroke-width:0.5;" width="165" x="824" y="5"/><text fill="#000000" font-family="sans-serif" font-size="14" lengthAdjust="spacing" textLength="144" x="834.5" y="27.1074">greenSpacesManager:</text><text fill="#000000" font-family="sans-serif" font-size="14" lengthAdjust="spacing" textLength="151" x="831" y="45.7285">Green Spaces Manager</text><rect fill="#E3E3E3" height="51.2422" rx="2.5" ry="2.5" style="stroke:#181818;stroke-width:0.5;" width="165" x="824" y="580.9766"/><text fill="#000000" font-family="sans-serif" font-size="14" lengthAdjust="spacing" textLength="144" x="834.5" y="603.084">greenSpacesManager:</text><text fill="#000000" font-family="sans-serif" font-size="14" lengthAdjust="spacing" textLength="151" x="831" y="621.7051">Green Spaces Manager</text><rect fill="#E3E3E3" height="51.2422" rx="2.5" ry="2.5" style="stroke:#181818;stroke-width:0.5;" width="49" x="1138" y="580.9766"/><text fill="#000000" font-family="sans-serif" font-size="14" lengthAdjust="spacing" textLength="26" x="1149.5" y="603.084">task</text><text fill="#000000" font-family="sans-serif" font-size="14" lengthAdjust="spacing" textLength="35" x="1145" y="621.7051">:Task</text><rect fill="#FFFFFF" height="482.4434" style="stroke:#181818;stroke-width:1.0;" width="10" x="556" y="90.5332"/><rect fill="#FFFFFF" height="345.6191" style="stroke:#181818;stroke-width:1.0;" width="10" x="561" y="218.3574"/><rect fill="#FFFFFF" height="42.291" style="stroke:#181818;stroke-width:1.0;" width="10" x="566" y="262.6484"/><rect fill="#FFFFFF" height="167.4551" style="stroke:#181818;stroke-width:1.0;" width="10" x="566" y="351.2305"/><rect fill="#FFFFFF" height="31.291" style="stroke:#181818;stroke-width:1.0;" width="10" x="901.5" y="450.1035"/><rect fill="#FFFFFF" height="31.291" style="stroke:#181818;stroke-width:1.0;" width="10" x="1157.5" y="387.5215"/><polygon fill="#181818" points="544,86.5332,554,90.5332,544,94.5332,548,90.5332" style="stroke:#181818;stroke-width:1.0;"/><line style="stroke:#181818;stroke-width:1.0;" x1="0" x2="550" y1="90.5332" y2="90.5332"/><text fill="#000000" font-family="sans-serif" font-size="13" font-weight="bold" lengthAdjust="spacing" textLength="14" x="7" y="85.2705">20</text><text fill="#000000" font-family="sans-serif" font-size="13" lengthAdjust="spacing" textLength="519" x="25" y="85.2705">create(title, description, degreeOfUrgency, expectedDurationTime, taskType, greenSpace)</text><path d="M515.5,105.5332 L635.5,105.5332 L635.5,114.8242 L625.5,124.8242 L515.5,124.8242 L515.5,105.5332 " fill="#EEEEEE" style="stroke:#000000;stroke-width:1.5;"/><rect fill="none" height="428.1523" style="stroke:#000000;stroke-width:1.5;" width="681.5" x="515.5" y="105.5332"/><text fill="#000000" font-family="sans-serif" font-size="13" font-weight="bold" lengthAdjust="spacing" textLength="75" x="530.5" y="120.5615">Create Task</text><polygon fill="#181818" points="1126,144.1152,1136,148.1152,1126,152.1152,1130,148.1152" style="stroke:#181818;stroke-width:1.0;"/><line style="stroke:#181818;stroke-width:1.0;" x1="566" x2="1132" y1="148.1152" y2="148.1152"/><text fill="#000000" font-family="sans-serif" font-size="13" font-weight="bold" lengthAdjust="spacing" textLength="25" x="573" y="142.8525">20.1</text><text fill="#000000" font-family="sans-serif" font-size="13" lengthAdjust="spacing" textLength="519" x="602" y="142.8525">create(title, description, degreeOfUrgency, expectedDurationTime, taskType, greenSpace)</text><rect fill="#E3E3E3" height="51.2422" rx="2.5" ry="2.5" style="stroke:#181818;stroke-width:0.5;" width="49" x="1138" y="124.8242"/><text fill="#000000" font-family="sans-serif" font-size="14" lengthAdjust="spacing" textLength="26" x="1149.5" y="146.9316">task</text><text fill="#000000" font-family="sans-serif" font-size="14" lengthAdjust="spacing" textLength="35" x="1145" y="165.5527">:Task</text><line style="stroke:#181818;stroke-width:1.0;" x1="566" x2="613" y1="205.3574" y2="205.3574"/><line style="stroke:#181818;stroke-width:1.0;" x1="613" x2="613" y1="205.3574" y2="218.3574"/><line style="stroke:#181818;stroke-width:1.0;" x1="572" x2="613" y1="218.3574" y2="218.3574"/><polygon fill="#181818" points="582,214.3574,572,218.3574,582,222.3574,578,218.3574" style="stroke:#181818;stroke-width:1.0;"/><text fill="#000000" font-family="sans-serif" font-size="13" font-weight="bold" lengthAdjust="spacing" textLength="25" x="578" y="200.0947">20.2</text><text fill="#000000" font-family="sans-serif" font-size="13" lengthAdjust="spacing" textLength="125" x="607" y="200.0947">addTask (email, task)</text><line style="stroke:#181818;stroke-width:1.0;" x1="571" x2="618" y1="249.6484" y2="249.6484"/><line style="stroke:#181818;stroke-width:1.0;" x1="618" x2="618" y1="249.6484" y2="262.6484"/><line style="stroke:#181818;stroke-width:1.0;" x1="577" x2="618" y1="262.6484" y2="262.6484"/><polygon fill="#181818" points="587,258.6484,577,262.6484,587,266.6484,583,262.6484" style="stroke:#181818;stroke-width:1.0;"/><text fill="#000000" font-family="sans-serif" font-size="13" font-weight="bold" lengthAdjust="spacing" textLength="25" x="583" y="244.3857">20.3</text><text fill="#000000" font-family="sans-serif" font-size="13" lengthAdjust="spacing" textLength="111" x="612" y="244.3857">validateEntry (task)</text><line style="stroke:#181818;stroke-width:1.0;stroke-dasharray:2.0,2.0;" x1="576" x2="618" y1="303.9395" y2="303.9395"/><line style="stroke:#181818;stroke-width:1.0;stroke-dasharray:2.0,2.0;" x1="618" x2="618" y1="303.9395" y2="316.9395"/><line style="stroke:#181818;stroke-width:1.0;stroke-dasharray:2.0,2.0;" x1="571" x2="618" y1="316.9395" y2="316.9395"/><polygon fill="#181818" points="581,312.9395,571,316.9395,581,320.9395,577,316.9395" style="stroke:#181818;stroke-width:1.0;"/><text fill="#000000" font-family="sans-serif" font-size="13" font-weight="bold" lengthAdjust="spacing" textLength="25" x="583" y="298.6768">20.4</text><text fill="#000000" font-family="sans-serif" font-size="13" lengthAdjust="spacing" textLength="4" x="612" y="298.6768">&#160;</text><line style="stroke:#181818;stroke-width:1.0;" x1="571" x2="618" y1="338.2305" y2="338.2305"/><line style="stroke:#181818;stroke-width:1.0;" x1="618" x2="618" y1="338.2305" y2="351.2305"/><line style="stroke:#181818;stroke-width:1.0;" x1="577" x2="618" y1="351.2305" y2="351.2305"/><polygon fill="#181818" points="587,347.2305,577,351.2305,587,355.2305,583,351.2305" style="stroke:#181818;stroke-width:1.0;"/><text fill="#000000" font-family="sans-serif" font-size="13" font-weight="bold" lengthAdjust="spacing" textLength="25" x="583" y="332.9678">20.5</text><text fill="#000000" font-family="sans-serif" font-size="13" lengthAdjust="spacing" textLength="146" x="612" y="332.9678">validateUser (email, task)</text><polygon fill="#181818" points="1145.5,383.5215,1155.5,387.5215,1145.5,391.5215,1149.5,387.5215" style="stroke:#181818;stroke-width:1.0;"/><line style="stroke:#181818;stroke-width:1.0;" x1="576" x2="1151.5" y1="387.5215" y2="387.5215"/><text fill="#000000" font-family="sans-serif" font-size="13" font-weight="bold" lengthAdjust="spacing" textLength="25" x="583" y="382.2588">20.6</text><text fill="#000000" font-family="sans-serif" font-size="13" lengthAdjust="spacing" textLength="155" x="612" y="382.2588">getGreenSpacesManager()</text><polygon fill="#181818" points="587,414.8125,577,418.8125,587,422.8125,583,418.8125" style="stroke:#181818;stroke-width:1.0;"/><line style="stroke:#181818;stroke-width:1.0;stroke-dasharray:2.0,2.0;" x1="581" x2="1161.5" y1="418.8125" y2="418.8125"/><text fill="#000000" font-family="sans-serif" font-size="13" font-weight="bold" lengthAdjust="spacing" textLength="25" x="593" y="413.5498">20.7</text><text fill="#000000" font-family="sans-serif" font-size="13" lengthAdjust="spacing" textLength="126" x="622" y="413.5498">greenSpacesManager</text><polygon fill="#181818" points="889.5,446.1035,899.5,450.1035,889.5,454.1035,893.5,450.1035" style="stroke:#181818;stroke-width:1.0;"/><line style="stroke:#181818;stroke-width:1.0;" x1="576" x2="895.5" y1="450.1035" y2="450.1035"/><text fill="#000000" font-family="sans-serif" font-size="13" font-weight="bold" lengthAdjust="spacing" textLength="25" x="583" y="444.8408">20.8</text><text fill="#000000" font-family="sans-serif" font-size="13" lengthAdjust="spacing" textLength="59" x="612" y="444.8408">getEmail()</text><polygon fill="#181818" points="587,477.3945,577,481.3945,587,485.3945,583,481.3945" style="stroke:#181818;stroke-width:1.0;"/><line style="stroke:#181818;stroke-width:1.0;stroke-dasharray:2.0,2.0;" x1="581" x2="905.5" y1="481.3945" y2="481.3945"/><text fill="#000000" font-family="sans-serif" font-size="13" font-weight="bold" lengthAdjust="spacing" textLength="25" x="593" y="476.1318">20.9</text><text fill="#000000" font-family="sans-serif" font-size="13" lengthAdjust="spacing" textLength="31" x="622" y="476.1318">email</text><line style="stroke:#181818;stroke-width:1.0;stroke-dasharray:2.0,2.0;" x1="576" x2="618" y1="517.6855" y2="517.6855"/><line style="stroke:#181818;stroke-width:1.0;stroke-dasharray:2.0,2.0;" x1="618" x2="618" y1="517.6855" y2="530.6855"/><line style="stroke:#181818;stroke-width:1.0;stroke-dasharray:2.0,2.0;" x1="571" x2="618" y1="530.6855" y2="530.6855"/><polygon fill="#181818" points="581,526.6855,571,530.6855,581,534.6855,577,530.6855" style="stroke:#181818;stroke-width:1.0;"/><text fill="#000000" font-family="sans-serif" font-size="13" font-weight="bold" lengthAdjust="spacing" textLength="32" x="583" y="512.4229">20.10</text><text fill="#000000" font-family="sans-serif" font-size="13" lengthAdjust="spacing" textLength="4" x="619" y="512.4229">&#160;</text><polygon fill="#181818" points="11,559.9766,1,563.9766,11,567.9766,7,563.9766" style="stroke:#181818;stroke-width:1.0;"/><line style="stroke:#181818;stroke-width:1.0;stroke-dasharray:2.0,2.0;" x1="5" x2="555" y1="563.9766" y2="563.9766"/><text fill="#000000" font-family="sans-serif" font-size="13" font-weight="bold" lengthAdjust="spacing" textLength="14" x="17" y="558.7139">21</text><text fill="#000000" font-family="sans-serif" font-size="13" lengthAdjust="spacing" textLength="25" x="35" y="558.7139">task</text><!--SRC=[jLHDJyCm3BtdLrXSsD26W6E5a12RTW24nBeR5zDuNRGsgP8KsBydoLW_DhGojENIndtsUyzrOfP25gWnXrn9bIoqoWciBecPwak1oH9JcjfLHg0fiIZJh0am2-JgKyWKvfWPOWnBgsIPlvDcx7mXEC5SAVkklXXp6LOaea1fuSogaNeInaPlClvvFGCqi8ctqHDD9ATE3JbylGaPQRLjvzHnyupIkT2RN5X7uISSgiocuzSjXMYMRpAAtICWullfOzCVt5mn1iExIZ94a6X2IpqhR4O3u6GIBGehbFGRB-XbFjCfoMGr0FegN4E9ZqgD7XABtELurdXLkBTQVx_DUddDCB7Ymp7LxGAtKgtA0Xw21l2wMGXlLgNJQVPcBYvEgBZ5lBsQIgf10EJSYuOUvIYoTU7-tZgxRVW7xGTcWhiYOsdr2dedP6tGxitWT5HZC-F6vcHD_Mso8aZ9JdRENw_VMQaYNv-sBhX7jVeQmUwnxwpIwFVVQ9j-_SKH_8vzWm-n6AwSJhX7RLaCl_8GLzrCHnnIaZmyctVMTOZS3eSraRjx_2oot-fy0m00]--></g></svg>