<?xml version="1.0" encoding="us-ascii" standalone="no"?><svg xmlns="http://www.w3.org/2000/svg" xmlns:xlink="http://www.w3.org/1999/xlink" contentStyleType="text/css" height="1014.3px" preserveAspectRatio="none" style="width:1552px;height:1014px;background:#FFFFFF;" version="1.1" viewBox="0 0 1552 1014" width="1552.5px" zoomAndPan="magnify"><defs/><g><!--class AddTaskToDoListUI--><g id="elem_AddTaskToDoListUI"><rect codeLine="11" fill="#F1F1F1" height="43.2" id="AddTaskToDoListUI" rx="2.25" ry="2.25" style="stroke:#181818;stroke-width:0.45;" width="141.3" x="774.9" y="6.3"/><ellipse cx="788.4" cy="20.7" fill="#ADD1B2" rx="9.9" ry="9.9" style="stroke:#181818;stroke-width:0.9;"/><path d="M790.8891,16.9875 Q791.0297,16.7906 791.1984,16.6922 Q791.3672,16.5938 791.5641,16.5938 Q791.9016,16.5938 792.1125,16.8328 Q792.3234,17.0578 792.3234,17.6063 L792.3234,18.9141 Q792.3234,19.4625 792.1125,19.7016 Q791.9016,19.9406 791.5641,19.9406 Q791.2547,19.9406 791.0719,19.7578 Q790.8891,19.5891 790.7906,19.125 Q790.7484,18.8016 790.5797,18.6328 Q790.2844,18.2953 789.7359,18.0984 Q789.1875,17.9016 788.625,17.9016 Q787.9359,17.9016 787.3594,18.1969 Q786.7969,18.4922 786.3469,19.1672 Q785.9109,19.8422 785.9109,20.7703 L785.9109,21.7547 Q785.9109,22.8656 786.7125,23.6109 Q787.5141,24.3422 788.9484,24.3422 Q789.7922,24.3422 790.3828,24.1172 Q790.7344,23.9766 791.1141,23.5828 Q791.3531,23.3438 791.4797,23.2734 Q791.6203,23.2031 791.8031,23.2031 Q792.0984,23.2031 792.3234,23.4422 Q792.5625,23.6672 792.5625,23.9766 Q792.5625,24.2859 792.2531,24.6516 Q791.8031,25.1719 791.0859,25.4672 Q790.1156,25.875 788.9484,25.875 Q787.5844,25.875 786.5016,25.3125 Q785.6156,24.8625 784.9969,23.9063 Q784.3781,22.9359 784.3781,21.7828 L784.3781,20.7422 Q784.3781,19.5469 784.9266,18.5203 Q785.4891,17.4797 786.4734,16.9313 Q787.4578,16.3688 788.5688,16.3688 Q789.2297,16.3688 789.8063,16.5234 Q790.3969,16.6641 790.8891,16.9875 Z " fill="#000000"/><text fill="#000000" font-family="sans-serif" font-size="12.6" lengthAdjust="spacing" textLength="112.5" x="801" y="25.9172">AddTaskToDoListUI</text><line style="stroke:#181818;stroke-width:0.45;" x1="775.8" x2="915.3" y1="35.1" y2="35.1"/><line style="stroke:#181818;stroke-width:0.45;" x1="775.8" x2="915.3" y1="42.3" y2="42.3"/></g><!--class AddTaskToDoListController--><g id="elem_AddTaskToDoListController"><rect codeLine="14" fill="#F1F1F1" height="126.9949" id="AddTaskToDoListController" rx="2.25" ry="2.25" style="stroke:#181818;stroke-width:0.45;" width="567.9" x="561.6" y="104.4"/><ellipse cx="762.975" cy="118.8" fill="#ADD1B2" rx="9.9" ry="9.9" style="stroke:#181818;stroke-width:0.9;"/><path d="M765.4641,115.0875 Q765.6047,114.8906 765.7734,114.7922 Q765.9422,114.6938 766.1391,114.6938 Q766.4766,114.6938 766.6875,114.9328 Q766.8984,115.1578 766.8984,115.7063 L766.8984,117.0141 Q766.8984,117.5625 766.6875,117.8016 Q766.4766,118.0406 766.1391,118.0406 Q765.8297,118.0406 765.6469,117.8578 Q765.4641,117.6891 765.3656,117.225 Q765.3234,116.9016 765.1547,116.7328 Q764.8594,116.3953 764.3109,116.1984 Q763.7625,116.0016 763.2,116.0016 Q762.5109,116.0016 761.9344,116.2969 Q761.3719,116.5922 760.9219,117.2672 Q760.4859,117.9422 760.4859,118.8703 L760.4859,119.8547 Q760.4859,120.9656 761.2875,121.7109 Q762.0891,122.4422 763.5234,122.4422 Q764.3672,122.4422 764.9578,122.2172 Q765.3094,122.0766 765.6891,121.6828 Q765.9281,121.4438 766.0547,121.3734 Q766.1953,121.3031 766.3781,121.3031 Q766.6734,121.3031 766.8984,121.5422 Q767.1375,121.7672 767.1375,122.0766 Q767.1375,122.3859 766.8281,122.7516 Q766.3781,123.2719 765.6609,123.5672 Q764.6906,123.975 763.5234,123.975 Q762.1594,123.975 761.0766,123.4125 Q760.1906,122.9625 759.5719,122.0063 Q758.9531,121.0359 758.9531,119.8828 L758.9531,118.8422 Q758.9531,117.6469 759.5016,116.6203 Q760.0641,115.5797 761.0484,115.0313 Q762.0328,114.4688 763.1438,114.4688 Q763.8047,114.4688 764.3813,114.6234 Q764.9719,114.7641 765.4641,115.0875 Z " fill="#000000"/><text fill="#000000" font-family="sans-serif" font-size="12.6" lengthAdjust="spacing" textLength="157.5" x="781.425" y="124.0172">AddTaskToDoListController</text><line style="stroke:#181818;stroke-width:0.45;" x1="562.5" x2="1128.6" y1="133.2" y2="133.2"/><line style="stroke:#181818;stroke-width:0.45;" x1="562.5" x2="1128.6" y1="140.4" y2="140.4"/><text fill="#000000" font-family="sans-serif" font-size="12.6" lengthAdjust="spacing" textLength="506.7" x="567" y="157.5967">+AddTaskToDoListController(greenSpaceRepository, toDoList, authenticationRepository)</text><text fill="#000000" font-family="sans-serif" font-size="12.6" lengthAdjust="spacing" textLength="557.1" x="567" y="174.3557">+addTaskToDoList(title, description, degreeOfUrgency, expectedDuration, taskType, greenSpace)</text><text fill="#000000" font-family="sans-serif" font-size="12.6" lengthAdjust="spacing" textLength="181.8" x="567" y="191.1146">-getGreenSpaceByName(name)</text><text fill="#000000" font-family="sans-serif" font-size="12.6" lengthAdjust="spacing" textLength="134.1" x="567" y="207.8736">-getGSMFromSession()</text><text fill="#000000" font-family="sans-serif" font-size="12.6" lengthAdjust="spacing" textLength="159.3" x="567" y="224.6326">+getGreenSpacesListDTO()</text></g><!--class ToDoList--><g id="elem_ToDoList"><rect codeLine="22" fill="#F1F1F1" height="76.718" id="ToDoList" rx="2.25" ry="2.25" style="stroke:#181818;stroke-width:0.45;" width="677.7" x="6.3" y="517.95"/><ellipse cx="315.675" cy="532.35" fill="#ADD1B2" rx="9.9" ry="9.9" style="stroke:#181818;stroke-width:0.9;"/><path d="M318.1641,528.6375 Q318.3047,528.4406 318.4734,528.3422 Q318.6422,528.2438 318.8391,528.2438 Q319.1766,528.2438 319.3875,528.4828 Q319.5984,528.7078 319.5984,529.2563 L319.5984,530.5641 Q319.5984,531.1125 319.3875,531.3516 Q319.1766,531.5906 318.8391,531.5906 Q318.5297,531.5906 318.3469,531.4078 Q318.1641,531.2391 318.0656,530.775 Q318.0234,530.4516 317.8547,530.2828 Q317.5594,529.9453 317.0109,529.7484 Q316.4625,529.5516 315.9,529.5516 Q315.2109,529.5516 314.6344,529.8469 Q314.0719,530.1422 313.6219,530.8172 Q313.1859,531.4922 313.1859,532.4203 L313.1859,533.4047 Q313.1859,534.5156 313.9875,535.2609 Q314.7891,535.9922 316.2234,535.9922 Q317.0672,535.9922 317.6578,535.7672 Q318.0094,535.6266 318.3891,535.2328 Q318.6281,534.9938 318.7547,534.9234 Q318.8953,534.8531 319.0781,534.8531 Q319.3734,534.8531 319.5984,535.0922 Q319.8375,535.3172 319.8375,535.6266 Q319.8375,535.9359 319.5281,536.3016 Q319.0781,536.8219 318.3609,537.1172 Q317.3906,537.525 316.2234,537.525 Q314.8594,537.525 313.7766,536.9625 Q312.8906,536.5125 312.2719,535.5563 Q311.6531,534.5859 311.6531,533.4328 L311.6531,532.3922 Q311.6531,531.1969 312.2016,530.1703 Q312.7641,529.1297 313.7484,528.5813 Q314.7328,528.0188 315.8438,528.0188 Q316.5047,528.0188 317.0813,528.1734 Q317.6719,528.3141 318.1641,528.6375 Z " fill="#000000"/><text fill="#000000" font-family="sans-serif" font-size="12.6" lengthAdjust="spacing" textLength="51.3" x="334.125" y="537.5672">ToDoList</text><line style="stroke:#181818;stroke-width:0.45;" x1="7.2" x2="683.1" y1="546.75" y2="546.75"/><line style="stroke:#181818;stroke-width:0.45;" x1="7.2" x2="683.1" y1="553.95" y2="553.95"/><text fill="#000000" font-family="sans-serif" font-size="12.6" lengthAdjust="spacing" textLength="666.9" x="11.7" y="571.1467">+addTaskToDoList(title, description, emergencyDegree, expectedDuration, taskType, greenSpace, gsmFromSession)</text><text fill="#000000" font-family="sans-serif" font-size="12.6" lengthAdjust="spacing" textLength="194.4" x="11.7" y="587.9057">+addTask(gsmFromSession, task)</text></g><!--class GreenSpace--><g id="elem_GreenSpace"><rect codeLine="27" fill="#F1F1F1" height="143.7539" id="GreenSpace" rx="2.25" ry="2.25" style="stroke:#181818;stroke-width:0.45;" width="374.4" x="617.85" y="699.75"/><ellipse cx="765.225" cy="714.15" fill="#ADD1B2" rx="9.9" ry="9.9" style="stroke:#181818;stroke-width:0.9;"/><path d="M767.7141,710.4375 Q767.8547,710.2406 768.0234,710.1422 Q768.1922,710.0438 768.3891,710.0438 Q768.7266,710.0438 768.9375,710.2828 Q769.1484,710.5078 769.1484,711.0563 L769.1484,712.3641 Q769.1484,712.9125 768.9375,713.1516 Q768.7266,713.3906 768.3891,713.3906 Q768.0797,713.3906 767.8969,713.2078 Q767.7141,713.0391 767.6156,712.575 Q767.5734,712.2516 767.4047,712.0828 Q767.1094,711.7453 766.5609,711.5484 Q766.0125,711.3516 765.45,711.3516 Q764.7609,711.3516 764.1844,711.6469 Q763.6219,711.9422 763.1719,712.6172 Q762.7359,713.2922 762.7359,714.2203 L762.7359,715.2047 Q762.7359,716.3156 763.5375,717.0609 Q764.3391,717.7922 765.7734,717.7922 Q766.6172,717.7922 767.2078,717.5672 Q767.5594,717.4266 767.9391,717.0328 Q768.1781,716.7938 768.3047,716.7234 Q768.4453,716.6531 768.6281,716.6531 Q768.9234,716.6531 769.1484,716.8922 Q769.3875,717.1172 769.3875,717.4266 Q769.3875,717.7359 769.0781,718.1016 Q768.6281,718.6219 767.9109,718.9172 Q766.9406,719.325 765.7734,719.325 Q764.4094,719.325 763.3266,718.7625 Q762.4406,718.3125 761.8219,717.3563 Q761.2031,716.3859 761.2031,715.2328 L761.2031,714.1922 Q761.2031,712.9969 761.7516,711.9703 Q762.3141,710.9297 763.2984,710.3813 Q764.2828,709.8188 765.3938,709.8188 Q766.0547,709.8188 766.6313,709.9734 Q767.2219,710.1141 767.7141,710.4375 Z " fill="#000000"/><text fill="#000000" font-family="sans-serif" font-size="12.6" lengthAdjust="spacing" textLength="72" x="783.675" y="719.3672">GreenSpace</text><line style="stroke:#181818;stroke-width:0.45;" x1="618.75" x2="991.35" y1="728.55" y2="728.55"/><text fill="#000000" font-family="sans-serif" font-size="12.6" lengthAdjust="spacing" textLength="72.9" x="623.25" y="745.7467">-String name</text><text fill="#000000" font-family="sans-serif" font-size="12.6" lengthAdjust="spacing" textLength="86.4" x="623.25" y="762.5057">-Adress adress</text><text fill="#000000" font-family="sans-serif" font-size="12.6" lengthAdjust="spacing" textLength="133.2" x="623.25" y="779.2646">-GreenSpaceType type</text><text fill="#000000" font-family="sans-serif" font-size="12.6" lengthAdjust="spacing" textLength="72.9" x="623.25" y="796.0236">-double area</text><text fill="#000000" font-family="sans-serif" font-size="12.6" lengthAdjust="spacing" textLength="262.8" x="623.25" y="812.7826">-GreenSpacesManager greenSpacesManager</text><line style="stroke:#181818;stroke-width:0.45;" x1="618.75" x2="991.35" y1="819.5449" y2="819.5449"/><text fill="#000000" font-family="sans-serif" font-size="12.6" lengthAdjust="spacing" textLength="363.6" x="623.25" y="836.7416">+GreenSpace(name, adress, type, area, greenSpacesManager)</text></g><!--class Repositories--><g id="elem_Repositories"><rect codeLine="36" fill="#F1F1F1" height="126.9949" id="Repositories" rx="2.25" ry="2.25" style="stroke:#181818;stroke-width:0.45;" width="187.2" x="524.25" y="302.4"/><ellipse cx="578.475" cy="316.8" fill="#ADD1B2" rx="9.9" ry="9.9" style="stroke:#181818;stroke-width:0.9;"/><path d="M580.9641,313.0875 Q581.1047,312.8906 581.2734,312.7922 Q581.4422,312.6938 581.6391,312.6938 Q581.9766,312.6938 582.1875,312.9328 Q582.3984,313.1578 582.3984,313.7063 L582.3984,315.0141 Q582.3984,315.5625 582.1875,315.8016 Q581.9766,316.0406 581.6391,316.0406 Q581.3297,316.0406 581.1469,315.8578 Q580.9641,315.6891 580.8656,315.225 Q580.8234,314.9016 580.6547,314.7328 Q580.3594,314.3953 579.8109,314.1984 Q579.2625,314.0016 578.7,314.0016 Q578.0109,314.0016 577.4344,314.2969 Q576.8719,314.5922 576.4219,315.2672 Q575.9859,315.9422 575.9859,316.8703 L575.9859,317.8547 Q575.9859,318.9656 576.7875,319.7109 Q577.5891,320.4422 579.0234,320.4422 Q579.8672,320.4422 580.4578,320.2172 Q580.8094,320.0766 581.1891,319.6828 Q581.4281,319.4438 581.5547,319.3734 Q581.6953,319.3031 581.8781,319.3031 Q582.1734,319.3031 582.3984,319.5422 Q582.6375,319.7672 582.6375,320.0766 Q582.6375,320.3859 582.3281,320.7516 Q581.8781,321.2719 581.1609,321.5672 Q580.1906,321.975 579.0234,321.975 Q577.6594,321.975 576.5766,321.4125 Q575.6906,320.9625 575.0719,320.0063 Q574.4531,319.0359 574.4531,317.8828 L574.4531,316.8422 Q574.4531,315.6469 575.0016,314.6203 Q575.5641,313.5797 576.5484,313.0313 Q577.5328,312.4688 578.6438,312.4688 Q579.3047,312.4688 579.8813,312.6234 Q580.4719,312.7641 580.9641,313.0875 Z " fill="#000000"/><text fill="#000000" font-family="sans-serif" font-size="12.6" lengthAdjust="spacing" textLength="71.1" x="596.925" y="322.0172">Repositories</text><line style="stroke:#181818;stroke-width:0.45;" x1="525.15" x2="710.55" y1="331.2" y2="331.2"/><line style="stroke:#181818;stroke-width:0.45;" x1="525.15" x2="710.55" y1="338.4" y2="338.4"/><text fill="#000000" font-family="sans-serif" font-size="12.6" lengthAdjust="spacing" textLength="84.6" x="529.65" y="355.5967">-Repositories()</text><text fill="#000000" font-family="sans-serif" font-size="12.6" lengthAdjust="spacing" textLength="163.8" x="529.65" y="372.3557">+getInstance() : Repositories</text><text fill="#000000" font-family="sans-serif" font-size="12.6" lengthAdjust="spacing" textLength="85.5" x="529.65" y="389.1146">+getToDoList()</text><text fill="#000000" font-family="sans-serif" font-size="12.6" lengthAdjust="spacing" textLength="167.4" x="529.65" y="405.8736">+getGreenSpaceRepository()</text><text fill="#000000" font-family="sans-serif" font-size="12.6" lengthAdjust="spacing" textLength="176.4" x="529.65" y="422.6326">+getAuthenticationRepository()</text></g><!--class TaskStatus--><g id="elem_TaskStatus"><rect codeLine="44" fill="#F1F1F1" height="76.718" id="TaskStatus" rx="2.25" ry="2.25" style="stroke:#181818;stroke-width:0.45;" width="92.7" x="48.6" y="923.85"/><ellipse cx="62.1" cy="938.25" fill="#EB937F" rx="9.9" ry="9.9" style="stroke:#181818;stroke-width:0.9;"/><path d="M61.0734,938.9672 L61.0734,941.2172 L64.9688,941.2172 L64.9688,940.3875 Q64.9688,939.8391 65.1797,939.6 Q65.4047,939.3609 65.7422,939.3609 Q66.0797,939.3609 66.2906,939.6 Q66.5016,939.8391 66.5016,940.3875 L66.5016,942.75 L59.3016,942.75 Q58.7391,942.75 58.5,942.5391 Q58.275,942.3281 58.275,941.9766 Q58.275,941.6391 58.5141,941.4281 Q58.7531,941.2172 59.3016,941.2172 L59.5406,941.2172 L59.5406,935.2266 L59.3016,935.2266 Q58.7391,935.2266 58.5,935.0156 Q58.275,934.8047 58.275,934.4531 Q58.275,934.1156 58.5,933.9047 Q58.7391,933.6938 59.3016,933.6938 L66.1641,933.6938 L66.1641,936.0281 Q66.1641,936.5766 65.9531,936.8156 Q65.7563,937.0406 65.4047,937.0406 Q65.0672,937.0406 64.8563,936.8156 Q64.6453,936.5766 64.6453,936.0281 L64.6453,935.2266 L61.0734,935.2266 L61.0734,937.4344 L62.4094,937.4344 Q62.4094,936.8438 62.5219,936.675 Q62.7609,936.3094 63.1828,936.3094 Q63.5203,936.3094 63.7313,936.5484 Q63.9422,936.7734 63.9422,937.3219 L63.9422,939.0938 Q63.9422,939.5859 63.8297,939.7547 Q63.5906,940.1063 63.1828,940.1063 Q62.7609,940.1063 62.5219,939.7406 Q62.4094,939.5719 62.4094,938.9672 L61.0734,938.9672 Z " fill="#000000"/><text fill="#000000" font-family="sans-serif" font-size="12.6" lengthAdjust="spacing" textLength="63.9" x="74.7" y="943.4672">TaskStatus</text><line style="stroke:#181818;stroke-width:0.45;" x1="49.5" x2="140.4" y1="952.65" y2="952.65"/><text fill="#000000" font-family="sans-serif" font-size="12.6" lengthAdjust="spacing" textLength="54" x="54" y="969.8467">PENDING</text><text fill="#000000" font-family="sans-serif" font-size="12.6" lengthAdjust="spacing" textLength="77.4" x="54" y="986.6057">PROCESSED</text><line style="stroke:#181818;stroke-width:0.45;" x1="49.5" x2="140.4" y1="993.368" y2="993.368"/></g><!--class Task--><g id="elem_Task"><rect codeLine="49" fill="#F1F1F1" height="177.2719" id="Task" rx="2.25" ry="2.25" style="stroke:#181818;stroke-width:0.45;" width="467.1" x="111.6" y="683.1"/><ellipse cx="327.375" cy="697.5" fill="#ADD1B2" rx="9.9" ry="9.9" style="stroke:#181818;stroke-width:0.9;"/><path d="M329.8641,693.7875 Q330.0047,693.5906 330.1734,693.4922 Q330.3422,693.3938 330.5391,693.3938 Q330.8766,693.3938 331.0875,693.6328 Q331.2984,693.8578 331.2984,694.4063 L331.2984,695.7141 Q331.2984,696.2625 331.0875,696.5016 Q330.8766,696.7406 330.5391,696.7406 Q330.2297,696.7406 330.0469,696.5578 Q329.8641,696.3891 329.7656,695.925 Q329.7234,695.6016 329.5547,695.4328 Q329.2594,695.0953 328.7109,694.8984 Q328.1625,694.7016 327.6,694.7016 Q326.9109,694.7016 326.3344,694.9969 Q325.7719,695.2922 325.3219,695.9672 Q324.8859,696.6422 324.8859,697.5703 L324.8859,698.5547 Q324.8859,699.6656 325.6875,700.4109 Q326.4891,701.1422 327.9234,701.1422 Q328.7672,701.1422 329.3578,700.9172 Q329.7094,700.7766 330.0891,700.3828 Q330.3281,700.1438 330.4547,700.0734 Q330.5953,700.0031 330.7781,700.0031 Q331.0734,700.0031 331.2984,700.2422 Q331.5375,700.4672 331.5375,700.7766 Q331.5375,701.0859 331.2281,701.4516 Q330.7781,701.9719 330.0609,702.2672 Q329.0906,702.675 327.9234,702.675 Q326.5594,702.675 325.4766,702.1125 Q324.5906,701.6625 323.9719,700.7063 Q323.3531,699.7359 323.3531,698.5828 L323.3531,697.5422 Q323.3531,696.3469 323.9016,695.3203 Q324.4641,694.2797 325.4484,693.7313 Q326.4328,693.1688 327.5438,693.1688 Q328.2047,693.1688 328.7813,693.3234 Q329.3719,693.4641 329.8641,693.7875 Z " fill="#000000"/><text fill="#000000" font-family="sans-serif" font-size="12.6" lengthAdjust="spacing" textLength="27.9" x="345.825" y="702.7172">Task</text><line style="stroke:#181818;stroke-width:0.45;" x1="112.5" x2="577.8" y1="711.9" y2="711.9"/><text fill="#000000" font-family="sans-serif" font-size="12.6" lengthAdjust="spacing" textLength="61.2" x="117" y="729.0967">-String title</text><text fill="#000000" font-family="sans-serif" font-size="12.6" lengthAdjust="spacing" textLength="103.5" x="117" y="745.8557">-String description</text><text fill="#000000" font-family="sans-serif" font-size="12.6" lengthAdjust="spacing" textLength="215.1" x="117" y="762.6146">-EmergencyDegree degreeOfUrgency</text><text fill="#000000" font-family="sans-serif" font-size="12.6" lengthAdjust="spacing" textLength="121.5" x="117" y="779.3736">-int expectedDuration</text><text fill="#000000" font-family="sans-serif" font-size="12.6" lengthAdjust="spacing" textLength="89.1" x="117" y="796.1326">-TaskType type</text><text fill="#000000" font-family="sans-serif" font-size="12.6" lengthAdjust="spacing" textLength="149.4" x="117" y="812.8916">-GreenSpace greenSpace</text><line style="stroke:#181818;stroke-width:0.45;" x1="112.5" x2="577.8" y1="819.6539" y2="819.6539"/><text fill="#000000" font-family="sans-serif" font-size="12.6" lengthAdjust="spacing" textLength="456.3" x="117" y="836.8506">+Task(title, description, degreeOfUrgency, expectedDuration, type, greenSpace)</text><text fill="#000000" font-family="sans-serif" font-size="12.6" lengthAdjust="spacing" textLength="128.7" x="117" y="853.6096">+changeStatus(status)</text></g><!--class GreenSpaceRepository--><g id="elem_GreenSpaceRepository"><rect codeLine="60" fill="#F1F1F1" height="76.718" id="GreenSpaceRepository" rx="2.25" ry="2.25" style="stroke:#181818;stroke-width:0.45;" width="195.3" x="715.5" y="517.95"/><ellipse cx="743.985" cy="532.35" fill="#ADD1B2" rx="9.9" ry="9.9" style="stroke:#181818;stroke-width:0.9;"/><path d="M746.4741,528.6375 Q746.6147,528.4406 746.7834,528.3422 Q746.9522,528.2438 747.1491,528.2438 Q747.4866,528.2438 747.6975,528.4828 Q747.9084,528.7078 747.9084,529.2563 L747.9084,530.5641 Q747.9084,531.1125 747.6975,531.3516 Q747.4866,531.5906 747.1491,531.5906 Q746.8397,531.5906 746.6569,531.4078 Q746.4741,531.2391 746.3756,530.775 Q746.3334,530.4516 746.1647,530.2828 Q745.8694,529.9453 745.3209,529.7484 Q744.7725,529.5516 744.21,529.5516 Q743.5209,529.5516 742.9444,529.8469 Q742.3819,530.1422 741.9319,530.8172 Q741.4959,531.4922 741.4959,532.4203 L741.4959,533.4047 Q741.4959,534.5156 742.2975,535.2609 Q743.0991,535.9922 744.5334,535.9922 Q745.3772,535.9922 745.9678,535.7672 Q746.3194,535.6266 746.6991,535.2328 Q746.9381,534.9938 747.0647,534.9234 Q747.2053,534.8531 747.3881,534.8531 Q747.6834,534.8531 747.9084,535.0922 Q748.1475,535.3172 748.1475,535.6266 Q748.1475,535.9359 747.8381,536.3016 Q747.3881,536.8219 746.6709,537.1172 Q745.7006,537.525 744.5334,537.525 Q743.1694,537.525 742.0866,536.9625 Q741.2006,536.5125 740.5819,535.5563 Q739.9631,534.5859 739.9631,533.4328 L739.9631,532.3922 Q739.9631,531.1969 740.5116,530.1703 Q741.0741,529.1297 742.0584,528.5813 Q743.0428,528.0188 744.1538,528.0188 Q744.8147,528.0188 745.3913,528.1734 Q745.9819,528.3141 746.4741,528.6375 Z " fill="#000000"/><text fill="#000000" font-family="sans-serif" font-size="12.6" lengthAdjust="spacing" textLength="133.2" x="759.915" y="537.5672">GreenSpaceRepository</text><line style="stroke:#181818;stroke-width:0.45;" x1="716.4" x2="909.9" y1="546.75" y2="546.75"/><line style="stroke:#181818;stroke-width:0.45;" x1="716.4" x2="909.9" y1="553.95" y2="553.95"/><text fill="#000000" font-family="sans-serif" font-size="12.6" lengthAdjust="spacing" textLength="132.3" x="720.9" y="571.1467">+getGreenSpacesList()</text><text fill="#000000" font-family="sans-serif" font-size="12.6" lengthAdjust="spacing" textLength="184.5" x="720.9" y="587.9057">+getGreenSpaceByName(name)</text></g><!--class AuthenticationRepository--><g id="elem_AuthenticationRepository"><rect codeLine="65" fill="#F1F1F1" height="59.959" id="AuthenticationRepository" rx="2.25" ry="2.25" style="stroke:#181818;stroke-width:0.45;" width="171" x="942.75" y="526.05"/><ellipse cx="956.25" cy="540.45" fill="#ADD1B2" rx="9.9" ry="9.9" style="stroke:#181818;stroke-width:0.9;"/><path d="M958.7391,536.7375 Q958.8797,536.5406 959.0484,536.4422 Q959.2172,536.3438 959.4141,536.3438 Q959.7516,536.3438 959.9625,536.5828 Q960.1734,536.8078 960.1734,537.3563 L960.1734,538.6641 Q960.1734,539.2125 959.9625,539.4516 Q959.7516,539.6906 959.4141,539.6906 Q959.1047,539.6906 958.9219,539.5078 Q958.7391,539.3391 958.6406,538.875 Q958.5984,538.5516 958.4297,538.3828 Q958.1344,538.0453 957.5859,537.8484 Q957.0375,537.6516 956.475,537.6516 Q955.7859,537.6516 955.2094,537.9469 Q954.6469,538.2422 954.1969,538.9172 Q953.7609,539.5922 953.7609,540.5203 L953.7609,541.5047 Q953.7609,542.6156 954.5625,543.3609 Q955.3641,544.0922 956.7984,544.0922 Q957.6422,544.0922 958.2328,543.8672 Q958.5844,543.7266 958.9641,543.3328 Q959.2031,543.0938 959.3297,543.0234 Q959.4703,542.9531 959.6531,542.9531 Q959.9484,542.9531 960.1734,543.1922 Q960.4125,543.4172 960.4125,543.7266 Q960.4125,544.0359 960.1031,544.4016 Q959.6531,544.9219 958.9359,545.2172 Q957.9656,545.625 956.7984,545.625 Q955.4344,545.625 954.3516,545.0625 Q953.4656,544.6125 952.8469,543.6563 Q952.2281,542.6859 952.2281,541.5328 L952.2281,540.4922 Q952.2281,539.2969 952.7766,538.2703 Q953.3391,537.2297 954.3234,536.6813 Q955.3078,536.1188 956.4188,536.1188 Q957.0797,536.1188 957.6563,536.2734 Q958.2469,536.4141 958.7391,536.7375 Z " fill="#000000"/><text fill="#000000" font-family="sans-serif" font-size="12.6" lengthAdjust="spacing" textLength="142.2" x="968.85" y="545.6672">AuthenticationRepository</text><line style="stroke:#181818;stroke-width:0.45;" x1="943.65" x2="1112.85" y1="554.85" y2="554.85"/><line style="stroke:#181818;stroke-width:0.45;" x1="943.65" x2="1112.85" y1="562.05" y2="562.05"/><text fill="#000000" font-family="sans-serif" font-size="12.6" lengthAdjust="spacing" textLength="148.5" x="948.15" y="579.2467">+getCurrentUserSession()</text></g><!--class UserSession--><g id="elem_UserSession"><rect codeLine="69" fill="#F1F1F1" height="59.959" id="UserSession" rx="2.25" ry="2.25" style="stroke:#181818;stroke-width:0.45;" width="99.9" x="1024.2" y="741.6"/><ellipse cx="1037.7" cy="756" fill="#ADD1B2" rx="9.9" ry="9.9" style="stroke:#181818;stroke-width:0.9;"/><path d="M1040.1891,752.2875 Q1040.3297,752.0906 1040.4984,751.9922 Q1040.6672,751.8938 1040.8641,751.8938 Q1041.2016,751.8938 1041.4125,752.1328 Q1041.6234,752.3578 1041.6234,752.9063 L1041.6234,754.2141 Q1041.6234,754.7625 1041.4125,755.0016 Q1041.2016,755.2406 1040.8641,755.2406 Q1040.5547,755.2406 1040.3719,755.0578 Q1040.1891,754.8891 1040.0906,754.425 Q1040.0484,754.1016 1039.8797,753.9328 Q1039.5844,753.5953 1039.0359,753.3984 Q1038.4875,753.2016 1037.925,753.2016 Q1037.2359,753.2016 1036.6594,753.4969 Q1036.0969,753.7922 1035.6469,754.4672 Q1035.2109,755.1422 1035.2109,756.0703 L1035.2109,757.0547 Q1035.2109,758.1656 1036.0125,758.9109 Q1036.8141,759.6422 1038.2484,759.6422 Q1039.0922,759.6422 1039.6828,759.4172 Q1040.0344,759.2766 1040.4141,758.8828 Q1040.6531,758.6438 1040.7797,758.5734 Q1040.9203,758.5031 1041.1031,758.5031 Q1041.3984,758.5031 1041.6234,758.7422 Q1041.8625,758.9672 1041.8625,759.2766 Q1041.8625,759.5859 1041.5531,759.9516 Q1041.1031,760.4719 1040.3859,760.7672 Q1039.4156,761.175 1038.2484,761.175 Q1036.8844,761.175 1035.8016,760.6125 Q1034.9156,760.1625 1034.2969,759.2063 Q1033.6781,758.2359 1033.6781,757.0828 L1033.6781,756.0422 Q1033.6781,754.8469 1034.2266,753.8203 Q1034.7891,752.7797 1035.7734,752.2313 Q1036.7578,751.6688 1037.8688,751.6688 Q1038.5297,751.6688 1039.1063,751.8234 Q1039.6969,751.9641 1040.1891,752.2875 Z " fill="#000000"/><text fill="#000000" font-family="sans-serif" font-size="12.6" lengthAdjust="spacing" textLength="71.1" x="1050.3" y="761.2172">UserSession</text><line style="stroke:#181818;stroke-width:0.45;" x1="1025.1" x2="1123.2" y1="770.4" y2="770.4"/><line style="stroke:#181818;stroke-width:0.45;" x1="1025.1" x2="1123.2" y1="777.6" y2="777.6"/><text fill="#000000" font-family="sans-serif" font-size="12.6" lengthAdjust="spacing" textLength="70.2" x="1029.6" y="794.7967">+getUserId()</text></g><!--class GreenSpaceManager--><g id="elem_GreenSpaceManager"><rect codeLine="73" fill="#F1F1F1" height="76.718" id="GreenSpaceManager" rx="2.25" ry="2.25" style="stroke:#181818;stroke-width:0.45;" width="179.1" x="172.8" y="923.85"/><ellipse cx="198.855" cy="938.25" fill="#ADD1B2" rx="9.9" ry="9.9" style="stroke:#181818;stroke-width:0.9;"/><path d="M201.3441,934.5375 Q201.4847,934.3406 201.6534,934.2422 Q201.8222,934.1438 202.0191,934.1438 Q202.3566,934.1438 202.5675,934.3828 Q202.7784,934.6078 202.7784,935.1563 L202.7784,936.4641 Q202.7784,937.0125 202.5675,937.2516 Q202.3566,937.4906 202.0191,937.4906 Q201.7097,937.4906 201.5269,937.3078 Q201.3441,937.1391 201.2456,936.675 Q201.2034,936.3516 201.0347,936.1828 Q200.7394,935.8453 200.1909,935.6484 Q199.6425,935.4516 199.08,935.4516 Q198.3909,935.4516 197.8144,935.7469 Q197.2519,936.0422 196.8019,936.7172 Q196.3659,937.3922 196.3659,938.3203 L196.3659,939.3047 Q196.3659,940.4156 197.1675,941.1609 Q197.9691,941.8922 199.4034,941.8922 Q200.2472,941.8922 200.8378,941.6672 Q201.1894,941.5266 201.5691,941.1328 Q201.8081,940.8938 201.9347,940.8234 Q202.0753,940.7531 202.2581,940.7531 Q202.5534,940.7531 202.7784,940.9922 Q203.0175,941.2172 203.0175,941.5266 Q203.0175,941.8359 202.7081,942.2016 Q202.2581,942.7219 201.5409,943.0172 Q200.5706,943.425 199.4034,943.425 Q198.0394,943.425 196.9566,942.8625 Q196.0706,942.4125 195.4519,941.4563 Q194.8331,940.4859 194.8331,939.3328 L194.8331,938.2922 Q194.8331,937.0969 195.3816,936.0703 Q195.9441,935.0297 196.9284,934.4813 Q197.9128,933.9188 199.0238,933.9188 Q199.6847,933.9188 200.2613,934.0734 Q200.8519,934.2141 201.3441,934.5375 Z " fill="#000000"/><text fill="#000000" font-family="sans-serif" font-size="12.6" lengthAdjust="spacing" textLength="122.4" x="214.245" y="943.4672">GreenSpaceManager</text><line style="stroke:#181818;stroke-width:0.45;" x1="173.7" x2="351" y1="952.65" y2="952.65"/><text fill="#000000" font-family="sans-serif" font-size="12.6" lengthAdjust="spacing" textLength="71.1" x="178.2" y="969.8467">-String email</text><line style="stroke:#181818;stroke-width:0.45;" x1="173.7" x2="351" y1="976.609" y2="976.609"/><text fill="#000000" font-family="sans-serif" font-size="12.6" lengthAdjust="spacing" textLength="168.3" x="178.2" y="993.8057">+GreenSpaceManager(email)</text></g><!--class TaskType--><g id="elem_TaskType"><rect codeLine="78" fill="#F1F1F1" height="76.718" id="TaskType" rx="2.25" ry="2.25" style="stroke:#181818;stroke-width:0.45;" width="90.9" x="383.4" y="923.85"/><ellipse cx="399.33" cy="938.25" fill="#EB937F" rx="9.9" ry="9.9" style="stroke:#181818;stroke-width:0.9;"/><path d="M398.3034,938.9672 L398.3034,941.2172 L402.1988,941.2172 L402.1988,940.3875 Q402.1988,939.8391 402.4097,939.6 Q402.6347,939.3609 402.9722,939.3609 Q403.3097,939.3609 403.5206,939.6 Q403.7316,939.8391 403.7316,940.3875 L403.7316,942.75 L396.5316,942.75 Q395.9691,942.75 395.73,942.5391 Q395.505,942.3281 395.505,941.9766 Q395.505,941.6391 395.7441,941.4281 Q395.9831,941.2172 396.5316,941.2172 L396.7706,941.2172 L396.7706,935.2266 L396.5316,935.2266 Q395.9691,935.2266 395.73,935.0156 Q395.505,934.8047 395.505,934.4531 Q395.505,934.1156 395.73,933.9047 Q395.9691,933.6938 396.5316,933.6938 L403.3941,933.6938 L403.3941,936.0281 Q403.3941,936.5766 403.1831,936.8156 Q402.9863,937.0406 402.6347,937.0406 Q402.2972,937.0406 402.0863,936.8156 Q401.8753,936.5766 401.8753,936.0281 L401.8753,935.2266 L398.3034,935.2266 L398.3034,937.4344 L399.6394,937.4344 Q399.6394,936.8438 399.7519,936.675 Q399.9909,936.3094 400.4128,936.3094 Q400.7503,936.3094 400.9613,936.5484 Q401.1722,936.7734 401.1722,937.3219 L401.1722,939.0938 Q401.1722,939.5859 401.0597,939.7547 Q400.8206,940.1063 400.4128,940.1063 Q399.9909,940.1063 399.7519,939.7406 Q399.6394,939.5719 399.6394,938.9672 L398.3034,938.9672 Z " fill="#000000"/><text fill="#000000" font-family="sans-serif" font-size="12.6" lengthAdjust="spacing" textLength="56.7" x="412.47" y="943.4672">TaskType</text><line style="stroke:#181818;stroke-width:0.45;" x1="384.3" x2="473.4" y1="952.65" y2="952.65"/><text fill="#000000" font-family="sans-serif" font-size="12.6" lengthAdjust="spacing" textLength="59.4" x="388.8" y="969.8467">REGULAR</text><text fill="#000000" font-family="sans-serif" font-size="12.6" lengthAdjust="spacing" textLength="80.1" x="388.8" y="986.6057">OCCASIONAL</text><line style="stroke:#181818;stroke-width:0.45;" x1="384.3" x2="473.4" y1="993.368" y2="993.368"/></g><!--class EmergencyDegree--><g id="elem_EmergencyDegree"><rect codeLine="83" fill="#F1F1F1" height="93.477" id="EmergencyDegree" rx="2.25" ry="2.25" style="stroke:#181818;stroke-width:0.45;" width="135" x="506.25" y="915.3"/><ellipse cx="519.75" cy="929.7" fill="#EB937F" rx="9.9" ry="9.9" style="stroke:#181818;stroke-width:0.9;"/><path d="M518.7234,930.4172 L518.7234,932.6672 L522.6188,932.6672 L522.6188,931.8375 Q522.6188,931.2891 522.8297,931.05 Q523.0547,930.8109 523.3922,930.8109 Q523.7297,930.8109 523.9406,931.05 Q524.1516,931.2891 524.1516,931.8375 L524.1516,934.2 L516.9516,934.2 Q516.3891,934.2 516.15,933.9891 Q515.925,933.7781 515.925,933.4266 Q515.925,933.0891 516.1641,932.8781 Q516.4031,932.6672 516.9516,932.6672 L517.1906,932.6672 L517.1906,926.6766 L516.9516,926.6766 Q516.3891,926.6766 516.15,926.4656 Q515.925,926.2547 515.925,925.9031 Q515.925,925.5656 516.15,925.3547 Q516.3891,925.1438 516.9516,925.1438 L523.8141,925.1438 L523.8141,927.4781 Q523.8141,928.0266 523.6031,928.2656 Q523.4063,928.4906 523.0547,928.4906 Q522.7172,928.4906 522.5063,928.2656 Q522.2953,928.0266 522.2953,927.4781 L522.2953,926.6766 L518.7234,926.6766 L518.7234,928.8844 L520.0594,928.8844 Q520.0594,928.2938 520.1719,928.125 Q520.4109,927.7594 520.8328,927.7594 Q521.1703,927.7594 521.3813,927.9984 Q521.5922,928.2234 521.5922,928.7719 L521.5922,930.5438 Q521.5922,931.0359 521.4797,931.2047 Q521.2406,931.5563 520.8328,931.5563 Q520.4109,931.5563 520.1719,931.1906 Q520.0594,931.0219 520.0594,930.4172 L518.7234,930.4172 Z " fill="#000000"/><text fill="#000000" font-family="sans-serif" font-size="12.6" lengthAdjust="spacing" textLength="106.2" x="532.35" y="934.9172">EmergencyDegree</text><line style="stroke:#181818;stroke-width:0.45;" x1="507.15" x2="640.35" y1="944.1" y2="944.1"/><text fill="#000000" font-family="sans-serif" font-size="12.6" lengthAdjust="spacing" textLength="28.8" x="511.65" y="961.2967">HIGH</text><text fill="#000000" font-family="sans-serif" font-size="12.6" lengthAdjust="spacing" textLength="47.7" x="511.65" y="978.0557">MEDIUM</text><text fill="#000000" font-family="sans-serif" font-size="12.6" lengthAdjust="spacing" textLength="28.8" x="511.65" y="994.8146">LOW</text><line style="stroke:#181818;stroke-width:0.45;" x1="507.15" x2="640.35" y1="1001.577" y2="1001.577"/></g><!--class GreenSpaceDTO--><g id="elem_GreenSpaceDTO"><rect codeLine="89" fill="#F1F1F1" height="143.7539" id="GreenSpaceDTO" rx="2.25" ry="2.25" style="stroke:#181818;stroke-width:0.45;" width="401.4" x="1145.25" y="484.2"/><ellipse cx="1292.625" cy="498.6" fill="#ADD1B2" rx="9.9" ry="9.9" style="stroke:#181818;stroke-width:0.9;"/><path d="M1295.1141,494.8875 Q1295.2547,494.6906 1295.4234,494.5922 Q1295.5922,494.4938 1295.7891,494.4938 Q1296.1266,494.4938 1296.3375,494.7328 Q1296.5484,494.9578 1296.5484,495.5063 L1296.5484,496.8141 Q1296.5484,497.3625 1296.3375,497.6016 Q1296.1266,497.8406 1295.7891,497.8406 Q1295.4797,497.8406 1295.2969,497.6578 Q1295.1141,497.4891 1295.0156,497.025 Q1294.9734,496.7016 1294.8047,496.5328 Q1294.5094,496.1953 1293.9609,495.9984 Q1293.4125,495.8016 1292.85,495.8016 Q1292.1609,495.8016 1291.5844,496.0969 Q1291.0219,496.3922 1290.5719,497.0672 Q1290.1359,497.7422 1290.1359,498.6703 L1290.1359,499.6547 Q1290.1359,500.7656 1290.9375,501.5109 Q1291.7391,502.2422 1293.1734,502.2422 Q1294.0172,502.2422 1294.6078,502.0172 Q1294.9594,501.8766 1295.3391,501.4828 Q1295.5781,501.2438 1295.7047,501.1734 Q1295.8453,501.1031 1296.0281,501.1031 Q1296.3234,501.1031 1296.5484,501.3422 Q1296.7875,501.5672 1296.7875,501.8766 Q1296.7875,502.1859 1296.4781,502.5516 Q1296.0281,503.0719 1295.3109,503.3672 Q1294.3406,503.775 1293.1734,503.775 Q1291.8094,503.775 1290.7266,503.2125 Q1289.8406,502.7625 1289.2219,501.8063 Q1288.6031,500.8359 1288.6031,499.6828 L1288.6031,498.6422 Q1288.6031,497.4469 1289.1516,496.4203 Q1289.7141,495.3797 1290.6984,494.8313 Q1291.6828,494.2688 1292.7938,494.2688 Q1293.4547,494.2688 1294.0313,494.4234 Q1294.6219,494.5641 1295.1141,494.8875 Z " fill="#000000"/><text fill="#000000" font-family="sans-serif" font-size="12.6" lengthAdjust="spacing" textLength="99" x="1311.075" y="503.8172">GreenSpaceDTO</text><line style="stroke:#181818;stroke-width:0.45;" x1="1146.15" x2="1545.75" y1="513" y2="513"/><text fill="#000000" font-family="sans-serif" font-size="12.6" lengthAdjust="spacing" textLength="72.9" x="1150.65" y="530.1967">-String name</text><text fill="#000000" font-family="sans-serif" font-size="12.6" lengthAdjust="spacing" textLength="86.4" x="1150.65" y="546.9557">-Adress adress</text><text fill="#000000" font-family="sans-serif" font-size="12.6" lengthAdjust="spacing" textLength="133.2" x="1150.65" y="563.7146">-GreenSpaceType type</text><text fill="#000000" font-family="sans-serif" font-size="12.6" lengthAdjust="spacing" textLength="72.9" x="1150.65" y="580.4736">-double area</text><text fill="#000000" font-family="sans-serif" font-size="12.6" lengthAdjust="spacing" textLength="262.8" x="1150.65" y="597.2326">-GreenSpacesManager greenSpacesManager</text><line style="stroke:#181818;stroke-width:0.45;" x1="1146.15" x2="1545.75" y1="603.9949" y2="603.9949"/><text fill="#000000" font-family="sans-serif" font-size="12.6" lengthAdjust="spacing" textLength="390.6" x="1150.65" y="621.1916">+GreenSpaceDTO(name, adress, type, area, greenSpacesManager)</text></g><!--class GreenSpaceMapper--><g id="elem_GreenSpaceMapper"><rect codeLine="98" fill="#F1F1F1" height="76.718" id="GreenSpaceMapper" rx="2.25" ry="2.25" style="stroke:#181818;stroke-width:0.45;" width="207.9" x="1216.8" y="327.6"/><ellipse cx="1259.325" cy="342" fill="#ADD1B2" rx="9.9" ry="9.9" style="stroke:#181818;stroke-width:0.9;"/><path d="M1261.8141,338.2875 Q1261.9547,338.0906 1262.1234,337.9922 Q1262.2922,337.8938 1262.4891,337.8938 Q1262.8266,337.8938 1263.0375,338.1328 Q1263.2484,338.3578 1263.2484,338.9063 L1263.2484,340.2141 Q1263.2484,340.7625 1263.0375,341.0016 Q1262.8266,341.2406 1262.4891,341.2406 Q1262.1797,341.2406 1261.9969,341.0578 Q1261.8141,340.8891 1261.7156,340.425 Q1261.6734,340.1016 1261.5047,339.9328 Q1261.2094,339.5953 1260.6609,339.3984 Q1260.1125,339.2016 1259.55,339.2016 Q1258.8609,339.2016 1258.2844,339.4969 Q1257.7219,339.7922 1257.2719,340.4672 Q1256.8359,341.1422 1256.8359,342.0703 L1256.8359,343.0547 Q1256.8359,344.1656 1257.6375,344.9109 Q1258.4391,345.6422 1259.8734,345.6422 Q1260.7172,345.6422 1261.3078,345.4172 Q1261.6594,345.2766 1262.0391,344.8828 Q1262.2781,344.6438 1262.4047,344.5734 Q1262.5453,344.5031 1262.7281,344.5031 Q1263.0234,344.5031 1263.2484,344.7422 Q1263.4875,344.9672 1263.4875,345.2766 Q1263.4875,345.5859 1263.1781,345.9516 Q1262.7281,346.4719 1262.0109,346.7672 Q1261.0406,347.175 1259.8734,347.175 Q1258.5094,347.175 1257.4266,346.6125 Q1256.5406,346.1625 1255.9219,345.2063 Q1255.3031,344.2359 1255.3031,343.0828 L1255.3031,342.0422 Q1255.3031,340.8469 1255.8516,339.8203 Q1256.4141,338.7797 1257.3984,338.2313 Q1258.3828,337.6688 1259.4938,337.6688 Q1260.1547,337.6688 1260.7313,337.8234 Q1261.3219,337.9641 1261.8141,338.2875 Z " fill="#000000"/><text fill="#000000" font-family="sans-serif" font-size="12.6" lengthAdjust="spacing" textLength="115.2" x="1277.775" y="347.2172">GreenSpaceMapper</text><line style="stroke:#181818;stroke-width:0.45;" x1="1217.7" x2="1423.8" y1="356.4" y2="356.4"/><line style="stroke:#181818;stroke-width:0.45;" x1="1217.7" x2="1423.8" y1="363.6" y2="363.6"/><text fill="#000000" font-family="sans-serif" font-size="12.6" lengthAdjust="spacing" textLength="169.2" x="1222.2" y="380.7967">+toDTOList(greenSpacesList)</text><text fill="#000000" font-family="sans-serif" font-size="12.6" lengthAdjust="spacing" textLength="197.1" x="1222.2" y="397.5557">+greenSpaceToDTO(greenSpace)</text></g><!--link AddTaskToDoListUI to AddTaskToDoListController--><g id="link_AddTaskToDoListUI_AddTaskToDoListController"><path codeLine="103" d="M845.55,49.779 C845.55,64.35 845.55,79.182 845.55,98.739 " fill="none" id="AddTaskToDoListUI-to-AddTaskToDoListController" style="stroke:#181818;stroke-width:0.9;stroke-dasharray:7.0,7.0;"/><polygon fill="#181818" points="845.55,104.139,849.15,96.039,845.55,99.639,841.95,96.039,845.55,104.139" style="stroke:#181818;stroke-width:0.9;"/></g><!--link AddTaskToDoListController to Repositories--><g id="link_AddTaskToDoListController_Repositories"><path codeLine="104" d="M772.875,231.372 C746.586,254.025 721.0037,276.0689 694.7057,298.7309 " fill="none" id="AddTaskToDoListController-to-Repositories" style="stroke:#181818;stroke-width:0.9;stroke-dasharray:7.0,7.0;"/><polygon fill="#181818" points="690.615,302.256,699.1011,299.6955,694.0239,299.3184,694.401,294.2412,690.615,302.256" style="stroke:#181818;stroke-width:0.9;"/><text fill="#000000" font-family="sans-serif" font-size="11.7" lengthAdjust="spacing" textLength="60.3" x="740.25" y="271.8255">repositories</text></g><!--link AddTaskToDoListController to ToDoList--><g id="link_AddTaskToDoListController_ToDoList"><path codeLine="105" d="M666.342,231.372 C566.874,266.121 463.05,302.4 463.05,302.4 C463.05,302.4 397.7957,442.3697 364.9547,512.8127 " fill="none" id="AddTaskToDoListController-to-ToDoList" style="stroke:#181818;stroke-width:0.9;stroke-dasharray:7.0,7.0;"/><polygon fill="#181818" points="362.673,517.707,369.3584,511.8868,364.5744,513.6285,362.8328,508.8445,362.673,517.707" style="stroke:#181818;stroke-width:0.9;"/><text fill="#000000" font-family="sans-serif" font-size="11.7" lengthAdjust="spacing" textLength="43.2" x="463.95" y="370.8255">toDoList</text></g><!--link AddTaskToDoListController to AuthenticationRepository--><g id="link_AddTaskToDoListController_AuthenticationRepository"><path codeLine="106" d="M900.198,231.66 C930.312,266.328 961.65,302.4 961.65,302.4 C961.65,302.4 1001.6388,454.246 1019.1708,520.819 " fill="none" id="AddTaskToDoListController-to-AuthenticationRepository" style="stroke:#181818;stroke-width:0.9;stroke-dasharray:7.0,7.0;"/><polygon fill="#181818" points="1020.546,526.041,1021.9645,517.2913,1019.4,521.6894,1015.0019,519.1249,1020.546,526.041" style="stroke:#181818;stroke-width:0.9;"/><text fill="#000000" font-family="sans-serif" font-size="11.7" lengthAdjust="spacing" textLength="128.7" x="995.85" y="370.8255">authenticationRepository</text></g><!--link AddTaskToDoListController to GreenSpaceRepository--><g id="link_AddTaskToDoListController_GreenSpaceRepository"><path codeLine="107" d="M840.276,231.714 C833.463,312.903 822.3044,446.1309 816.7424,512.4339 " fill="none" id="AddTaskToDoListController-to-GreenSpaceRepository" style="stroke:#181818;stroke-width:0.9;stroke-dasharray:7.0,7.0;"/><polygon fill="#181818" points="816.291,517.815,820.5555,510.0443,816.6672,513.3308,813.3807,509.4424,816.291,517.815" style="stroke:#181818;stroke-width:0.9;"/><text fill="#000000" font-family="sans-serif" font-size="11.7" lengthAdjust="spacing" textLength="117.9" x="835.65" y="370.8255">greenSpaceRepository</text></g><!--link GreenSpaceRepository to GreenSpace--><g id="link_GreenSpaceRepository_GreenSpace"><path codeLine="108" d="M811.728,594.576 C810.63,623.556 809.2865,659.1189 807.9545,694.2639 " fill="none" id="GreenSpaceRepository-to-GreenSpace" style="stroke:#181818;stroke-width:0.9;stroke-dasharray:7.0,7.0;"/><polygon fill="#181818" points="807.75,699.66,811.6542,691.7022,807.9204,695.1632,804.4594,691.4295,807.75,699.66" style="stroke:#181818;stroke-width:0.9;"/></g><!--link ToDoList to Task--><g id="link_ToDoList_Task"><path codeLine="109" d="M345.15,594.576 C345.15,619.065 345.15,646.713 345.15,677.574 " fill="none" id="ToDoList-to-Task" style="stroke:#181818;stroke-width:0.9;stroke-dasharray:7.0,7.0;"/><polygon fill="#181818" points="345.15,682.974,348.75,674.874,345.15,678.474,341.55,674.874,345.15,682.974" style="stroke:#181818;stroke-width:0.9;"/></g><!--link AuthenticationRepository to UserSession--><g id="link_AuthenticationRepository_UserSession"><path codeLine="110" d="M1034.532,586.377 C1043.298,627.192 1057.9681,695.4964 1066.7341,736.3114 " fill="none" id="AuthenticationRepository-to-UserSession" style="stroke:#181818;stroke-width:0.9;stroke-dasharray:7.0,7.0;"/><polygon fill="#181818" points="1067.868,741.591,1069.6869,732.9156,1066.9231,737.1913,1062.6474,734.4275,1067.868,741.591" style="stroke:#181818;stroke-width:0.9;"/></g><!--link Repositories to Repositories--><g id="link_Repositories_Repositories"><path codeLine="111" d="M711.684,349.722 C729.972,351.594 742.95,356.976 742.95,365.85 C742.95,374.724 735.3439,379.5561 717.0559,381.4281 " fill="none" id="Repositories-to-Repositories" style="stroke:#181818;stroke-width:0.9;"/><polygon fill="#181818" points="711.684,381.978,720.1085,384.7345,716.1606,381.5198,719.3753,377.5719,711.684,381.978" style="stroke:#181818;stroke-width:0.9;"/><text fill="#000000" font-family="sans-serif" font-size="11.7" lengthAdjust="spacing" textLength="44.1" x="748.35" y="370.8255">instance</text></g><!--link Repositories to ToDoList--><g id="link_Repositories_ToDoList"><path codeLine="112" d="M527.049,429.534 C484.749,458.784 440.285,489.5263 403.844,514.7173 " fill="none" id="Repositories-to-ToDoList" style="stroke:#181818;stroke-width:0.9;"/><polygon fill="#181818" points="399.402,517.788,408.1121,516.1433,403.1036,515.2291,404.0179,510.2207,399.402,517.788" style="stroke:#181818;stroke-width:0.9;"/><text fill="#000000" font-family="sans-serif" font-size="11.7" lengthAdjust="spacing" textLength="6.3" x="401.2464" y="507.7759">1</text></g><!--link Repositories to AuthenticationRepository--><g id="link_Repositories_AuthenticationRepository"><path codeLine="113" d="M711.729,402.471 C802.548,437.022 926.55,484.2 926.55,484.2 C926.55,484.2 953.8581,503.2913 981.8751,522.8753 " fill="none" id="Repositories-to-AuthenticationRepository" style="stroke:#181818;stroke-width:0.9;"/><polygon fill="#181818" points="986.301,525.969,981.7246,518.3778,982.6127,523.3909,977.5996,524.279,986.301,525.969" style="stroke:#181818;stroke-width:0.9;"/><text fill="#000000" font-family="sans-serif" font-size="11.7" lengthAdjust="spacing" textLength="6.3" x="971.1221" y="515.896">1</text></g><!--link Repositories to GreenSpaceRepository--><g id="link_Repositories_GreenSpaceRepository"><path codeLine="114" d="M680.733,429.327 C696.366,444.879 708.75,457.2 708.75,457.2 C708.75,457.2 739.9416,486.5143 769.4436,514.2343 " fill="none" id="Repositories-to-GreenSpaceRepository" style="stroke:#181818;stroke-width:0.9;"/><polygon fill="#181818" points="773.379,517.932,769.941,509.7619,770.0995,514.8506,765.0108,515.0091,773.379,517.932" style="stroke:#181818;stroke-width:0.9;"/><text fill="#000000" font-family="sans-serif" font-size="11.7" lengthAdjust="spacing" textLength="6.3" x="760.2385" y="507.9428">1</text></g><!--link Task to EmergencyDegree--><g id="link_Task_EmergencyDegree"><path codeLine="115" d="M451.755,860.58 C474.687,879.489 493.8673,895.3128 513.9103,911.8458 " fill="none" id="Task-to-EmergencyDegree" style="stroke:#181818;stroke-width:0.9;"/><polygon fill="#181818" points="518.076,915.282,514.1183,907.3506,514.6046,912.4185,509.5367,912.9049,518.076,915.282" style="stroke:#181818;stroke-width:0.9;"/><text fill="#000000" font-family="sans-serif" font-size="11.7" lengthAdjust="spacing" textLength="6.3" x="503.8715" y="905.3142">1</text></g><!--link Task to TaskStatus--><g id="link_Task_TaskStatus"><path codeLine="116" d="M228.474,860.58 C197.64,883.809 170.444,904.3107 145.775,922.8957 " fill="none" id="Task-to-TaskStatus" style="stroke:#181818;stroke-width:0.9;"/><polygon fill="#181818" points="141.462,926.145,150.0977,924.1464,145.0562,923.4372,145.7653,918.3957,141.462,926.145" style="stroke:#181818;stroke-width:0.9;"/><text fill="#000000" font-family="sans-serif" font-size="11.7" lengthAdjust="spacing" textLength="6.3" x="148.4457" y="917.3416">1</text></g><!--link Task to GreenSpaceManager--><g id="link_Task_GreenSpaceManager"><path codeLine="117" d="M306.54,860.58 C296.757,882.846 288.9386,900.6539 280.9376,918.8699 " fill="none" id="Task-to-GreenSpaceManager" style="stroke:#181818;stroke-width:0.9;"/><polygon fill="#181818" points="278.766,923.814,285.3195,917.8456,280.5757,919.6939,278.7273,914.9501,278.766,923.814" style="stroke:#181818;stroke-width:0.9;"/><text fill="#000000" font-family="sans-serif" font-size="11.7" lengthAdjust="spacing" textLength="6.3" x="274.5803" y="913.8219">1</text></g><!--link Task to TaskType--><g id="link_Task_TaskType"><path codeLine="118" d="M384.183,860.58 C394.074,882.846 401.982,900.662 410.064,918.878 " fill="none" id="Task-to-TaskType" style="stroke:#181818;stroke-width:0.9;"/><polygon fill="#181818" points="412.254,923.814,412.2597,914.95,410.429,919.7007,405.6784,917.87,412.254,923.814" style="stroke:#181818;stroke-width:0.9;"/><text fill="#000000" font-family="sans-serif" font-size="11.7" lengthAdjust="spacing" textLength="6.3" x="402.807" y="913.8219">1</text></g><!--link AddTaskToDoListController to GreenSpaceMapper--><g id="link_AddTaskToDoListController_GreenSpaceMapper"><path codeLine="119" d="M997.209,231.372 C1073.943,263.052 1159.5097,298.3771 1225.2727,325.5301 " fill="none" id="AddTaskToDoListController-to-GreenSpaceMapper" style="stroke:#181818;stroke-width:0.9;stroke-dasharray:7.0,7.0;"/><polygon fill="#181818" points="1230.264,327.591,1224.151,321.1722,1226.1046,325.8736,1221.4032,327.8272,1230.264,327.591" style="stroke:#181818;stroke-width:0.9;"/></g><!--link GreenSpaceMapper to GreenSpaceDTO--><g id="link_GreenSpaceMapper_GreenSpaceDTO"><path codeLine="120" d="M1325.763,404.226 C1328.805,426.996 1332.0671,451.4607 1335.6941,478.5777 " fill="none" id="GreenSpaceMapper-to-GreenSpaceDTO" style="stroke:#181818;stroke-width:0.9;stroke-dasharray:7.0,7.0;"/><polygon fill="#181818" points="1336.41,483.93,1338.9044,475.4242,1335.8134,479.4697,1331.7679,476.3788,1336.41,483.93" style="stroke:#181818;stroke-width:0.9;"/></g><!--SRC=[dLPBZziW4BxpAr0lwrMSLNlDeLAQf5bBULHnefvPctNGsc01KPjM_Uy5_01YtDtk7ZPavfjX7jyCkHClXDQ8emfMZBBip5c5eUGN3AocHjaBAd0ghoM676SIqQ9q0UACSlQ3q08-erAucf9GBAyrXZKhh_eBk0ie6PSCE5PPYOIOIyd9qqNY96Cq9Rym_0Z0NOcV9PGCSbAS9So93eSm2e2nWVCyFoBnScHBjY52dXBu6_mPKIuObPoL9UOA1DNVP1GG5HnZcgf2u0EkcI2IyMkiucY0CKGNUSPKaWpfQ2pcld6CVCUH9BB4CSono3YfjOd-eY_PFvzuWMcclEEVjKeEvyiBHmr4QX-gO36qyJGtJ0iirxtiotM7AXnHzSzHfzklghif5a8vYzh8F3kXWriUzqhP5wsBkQlHMrB15MwIM9gStfgAEelAYT4lNkGh6nTEe3QDDjHfgWYaEAdBO0H6EC-vSW2H-R1YQwsZWfgMLfcpovEYFk8OXIp45b4r7zn9fHFry8c5cxx4RGInkIeslkE00oV1dbK4YpP3JzQr5AgU9bIeALLttSEP1xAGleEEsJf0SrS_7w5vGnXCBnNKhKebaXVHjk7RQhTCTklcVDWlLccwMZhyKlYRXXbAUHA7NOryvJFiTdWQ4A5omBn6SspPP_lijDFfGfEvOTzxHpOuhfFih7OeRkeK2VCHfB8jSJT_mu4DZhAt0km67EcVutnnuLn1JW9pkofw1uxOiT7I98-26NIpuRSOLuYKu6OmMcXab3wZJBCQ5uVL-hIP7ynvlrZCqsI_cszwz2qp6gF7PFre3jlLCZbjpN6p_nuAMEs_iGKIM1wZYsEmDFvZOKoyQDwxBzp2rhLzvTIhTTmRuXG-aJeUsOmqCdB9gvmFdzY7Xy_ZRoiOVtMrdRkRPkh7XREf_ctOYMVzA_oAmHZtPwEFzoiEGrCwWw5V2Y0uqBuFq3-q9ZjrBHYTLerm9X6uHOJJwMrLIViO374VFdte2ndMZiKGHeVo16R3TuYRyVILzktmvOCLCJJJm_VcVZNp00O3ugCKzy5V]--></g></svg>