<?xml version="1.0" encoding="us-ascii" standalone="no"?><svg xmlns="http://www.w3.org/2000/svg" xmlns:xlink="http://www.w3.org/1999/xlink" contentStyleType="text/css" height="578px" preserveAspectRatio="none" style="width:495px;height:578px;background:#FFFFFF;" version="1.1" viewBox="0 0 495 578" width="495.2px" zoomAndPan="magnify"><defs/><g><rect fill="#FFFFFF" height="485.3633" style="stroke:#181818;stroke-width:0.4000000000000001;" width="4" x="19.4" y="44.8969"/><rect fill="#FFFFFF" height="74.2984" style="stroke:#181818;stroke-width:0.4000000000000001;" width="4" x="160.2" y="54.2133"/><rect fill="#FFFFFF" height="56.85" style="stroke:#181818;stroke-width:0.4000000000000001;" width="4" x="160.2" y="141.0281"/><rect fill="#FFFFFF" height="12.5164" style="stroke:#181818;stroke-width:0.4000000000000001;" width="4" x="160.2" y="210.3945"/><rect fill="#FFFFFF" height="294.8328" style="stroke:#181818;stroke-width:0.4000000000000001;" width="4" x="160.2" y="235.4273"/><rect fill="#FFFFFF" height="31.8172" style="stroke:#181818;stroke-width:0.4000000000000001;" width="4" x="284.6" y="84.1781"/><rect fill="#FFFFFF" height="31.8172" style="stroke:#181818;stroke-width:0.4000000000000001;" width="4" x="284.6" y="153.5445"/><rect fill="#FFFFFF" height="269.8" style="stroke:#181818;stroke-width:0.4000000000000001;" width="4" x="284.6" y="247.9438"/><rect fill="#FFFFFF" height="36.2172" style="stroke:#181818;stroke-width:0.4000000000000001;" width="4" x="286.6" y="263.6602"/><rect fill="#FFFFFF" height="36.2172" style="stroke:#181818;stroke-width:0.4000000000000001;" width="4" x="286.6" y="318.3938"/><rect fill="#FFFFFF" height="36.2172" style="stroke:#181818;stroke-width:0.4000000000000001;" width="4" x="286.6" y="398.1602"/><rect fill="#FFFFFF" height="36.2172" style="stroke:#181818;stroke-width:0.4000000000000001;" width="4" x="286.6" y="463.4102"/><rect fill="#FFFFFF" height="12.5164" style="stroke:#181818;stroke-width:0.4000000000000001;" width="4" x="480.6" y="369.9273"/><rect fill="none" height="62.45" style="stroke:#000000;stroke-width:0.6000000000000001;" width="233.6" x="251" y="443.1773"/><line style="stroke:#181818;stroke-width:0.20000000000000004;stroke-dasharray:5.0,5.0;" x1="21.2" x2="21.2" y1="40.8969" y2="537.4602"/><line style="stroke:#181818;stroke-width:0.20000000000000004;stroke-dasharray:5.0,5.0;" x1="162.2" x2="162.2" y1="40.8969" y2="537.4602"/><line style="stroke:#181818;stroke-width:0.20000000000000004;stroke-dasharray:5.0,5.0;" x1="286.6" x2="286.6" y1="70.1375" y2="537.4602"/><line style="stroke:#181818;stroke-width:0.20000000000000004;stroke-dasharray:5.0,5.0;" x1="482.4" x2="482.4" y1="40.8969" y2="537.4602"/><text fill="#000000" font-family="sans-serif" font-size="5.6" lengthAdjust="spacing" textLength="36.4" x="2" y="32.043">Green Spaces</text><text fill="#000000" font-family="sans-serif" font-size="5.6" lengthAdjust="spacing" textLength="22.4" x="9" y="39.4914">Manager</text><ellipse cx="21.4" cy="5.4" fill="#E3E3E3" rx="3.2" ry="3.2" style="stroke:#181818;stroke-width:0.20000000000000004;"/><path d="M21.4,8.6 L21.4,19.4 M16.2,11.8 L26.6,11.8 M21.4,19.4 L16.2,25.4 M21.4,19.4 L26.6,25.4 " fill="none" style="stroke:#181818;stroke-width:0.20000000000000004;"/><text fill="#000000" font-family="sans-serif" font-size="5.6" lengthAdjust="spacing" textLength="36.4" x="2" y="543.1031">Green Spaces</text><text fill="#000000" font-family="sans-serif" font-size="5.6" lengthAdjust="spacing" textLength="22.4" x="9" y="550.5516">Manager</text><ellipse cx="21.4" cy="555.357" fill="#E3E3E3" rx="3.2" ry="3.2" style="stroke:#181818;stroke-width:0.20000000000000004;"/><path d="M21.4,558.557 L21.4,569.357 M16.2,561.757 L26.6,561.757 M21.4,569.357 L16.2,575.357 M21.4,569.357 L26.6,575.357 " fill="none" style="stroke:#181818;stroke-width:0.20000000000000004;"/><rect fill="#E3E3E3" height="13.0484" rx="1" ry="1" style="stroke:#181818;stroke-width:0.20000000000000004;" width="43.2" x="140.6" y="27.4484"/><text fill="#000000" font-family="sans-serif" font-size="5.6" lengthAdjust="spacing" textLength="37.6" x="143.4" y="36.2914">:AssignTeamUI</text><rect fill="#E3E3E3" height="13.0484" rx="1" ry="1" style="stroke:#181818;stroke-width:0.20000000000000004;" width="43.2" x="140.6" y="537.0602"/><text fill="#000000" font-family="sans-serif" font-size="5.6" lengthAdjust="spacing" textLength="37.6" x="143.4" y="545.9031">:AssignTeamUI</text><rect fill="#E3E3E3" height="13.0484" rx="1" ry="1" style="stroke:#181818;stroke-width:0.20000000000000004;" width="63.2" x="255" y="537.0602"/><text fill="#000000" font-family="sans-serif" font-size="5.6" lengthAdjust="spacing" textLength="57.6" x="257.8" y="545.9031">:AssignTeamController</text><rect fill="#E3E3E3" height="20.4969" rx="1" ry="1" style="stroke:#181818;stroke-width:0.20000000000000004;" width="20.4" x="472.4" y="20"/><text fill="#000000" font-family="sans-serif" font-size="5.6" lengthAdjust="spacing" textLength="12.8" x="476.2" y="28.843">entry</text><text fill="#000000" font-family="sans-serif" font-size="5.6" lengthAdjust="spacing" textLength="14.8" x="475.2" y="36.2914">:Entry</text><rect fill="#E3E3E3" height="20.4969" rx="1" ry="1" style="stroke:#181818;stroke-width:0.20000000000000004;" width="20.4" x="472.4" y="537.0602"/><text fill="#000000" font-family="sans-serif" font-size="5.6" lengthAdjust="spacing" textLength="12.8" x="476.2" y="545.9031">entry</text><text fill="#000000" font-family="sans-serif" font-size="5.6" lengthAdjust="spacing" textLength="14.8" x="475.2" y="553.3516">:Entry</text><rect fill="#FFFFFF" height="485.3633" style="stroke:#181818;stroke-width:0.4000000000000001;" width="4" x="19.4" y="44.8969"/><rect fill="#FFFFFF" height="74.2984" style="stroke:#181818;stroke-width:0.4000000000000001;" width="4" x="160.2" y="54.2133"/><rect fill="#FFFFFF" height="56.85" style="stroke:#181818;stroke-width:0.4000000000000001;" width="4" x="160.2" y="141.0281"/><rect fill="#FFFFFF" height="12.5164" style="stroke:#181818;stroke-width:0.4000000000000001;" width="4" x="160.2" y="210.3945"/><rect fill="#FFFFFF" height="294.8328" style="stroke:#181818;stroke-width:0.4000000000000001;" width="4" x="160.2" y="235.4273"/><rect fill="#FFFFFF" height="31.8172" style="stroke:#181818;stroke-width:0.4000000000000001;" width="4" x="284.6" y="84.1781"/><rect fill="#FFFFFF" height="31.8172" style="stroke:#181818;stroke-width:0.4000000000000001;" width="4" x="284.6" y="153.5445"/><rect fill="#FFFFFF" height="269.8" style="stroke:#181818;stroke-width:0.4000000000000001;" width="4" x="284.6" y="247.9438"/><rect fill="#FFFFFF" height="36.2172" style="stroke:#181818;stroke-width:0.4000000000000001;" width="4" x="286.6" y="263.6602"/><rect fill="#FFFFFF" height="36.2172" style="stroke:#181818;stroke-width:0.4000000000000001;" width="4" x="286.6" y="318.3938"/><rect fill="#FFFFFF" height="36.2172" style="stroke:#181818;stroke-width:0.4000000000000001;" width="4" x="286.6" y="398.1602"/><rect fill="#FFFFFF" height="36.2172" style="stroke:#181818;stroke-width:0.4000000000000001;" width="4" x="286.6" y="463.4102"/><rect fill="#FFFFFF" height="12.5164" style="stroke:#181818;stroke-width:0.4000000000000001;" width="4" x="480.6" y="369.9273"/><polygon fill="#181818" points="155.4,52.6133,159.4,54.2133,155.4,55.8133,157,54.2133" style="stroke:#181818;stroke-width:0.4000000000000001;"/><line style="stroke:#181818;stroke-width:0.4000000000000001;" x1="23.4" x2="157.8" y1="54.2133" y2="54.2133"/><text fill="#000000" font-family="sans-serif" font-size="5.2" font-weight="bold" lengthAdjust="spacing" textLength="2.8" x="26.2" y="52.1082">1</text><text fill="#000000" font-family="sans-serif" font-size="5.2" lengthAdjust="spacing" textLength="110.8" x="30.6" y="52.1082">asks to assign a team to an entry in the agenda</text><polygon fill="#181818" points="250.2,65.1297,254.2,66.7297,250.2,68.3297,251.8,66.7297" style="stroke:#181818;stroke-width:0.4000000000000001;"/><line style="stroke:#181818;stroke-width:0.4000000000000001;" x1="164.2" x2="252.6" y1="66.7297" y2="66.7297"/><text fill="#000000" font-family="sans-serif" font-size="5.2" font-weight="bold" lengthAdjust="spacing" textLength="2.8" x="167" y="64.6246">2</text><text fill="#000000" font-family="sans-serif" font-size="5.2" lengthAdjust="spacing" textLength="14.4" x="171.4" y="64.6246">create</text><rect fill="#E3E3E3" height="13.0484" rx="1" ry="1" style="stroke:#181818;stroke-width:0.20000000000000004;" width="63.2" x="255" y="57.4133"/><text fill="#000000" font-family="sans-serif" font-size="5.6" lengthAdjust="spacing" textLength="57.6" x="257.8" y="66.2563">:AssignTeamController</text><polygon fill="#181818" points="279.8,82.5781,283.8,84.1781,279.8,85.7781,281.4,84.1781" style="stroke:#181818;stroke-width:0.4000000000000001;"/><line style="stroke:#181818;stroke-width:0.4000000000000001;" x1="164.2" x2="282.2" y1="84.1781" y2="84.1781"/><text fill="#000000" font-family="sans-serif" font-size="5.2" font-weight="bold" lengthAdjust="spacing" textLength="2.8" x="167" y="82.073">3</text><text fill="#000000" font-family="sans-serif" font-size="5.2" lengthAdjust="spacing" textLength="45.6" x="171.4" y="82.073">getEntriesListDTO()</text><rect fill="none" height="17.3008" style="stroke:#000000;stroke-width:0.6000000000000001;" width="65.6" x="253.8" y="87.3781"/><path d="M253.8,87.3781 L278.6,87.3781 L278.6,90.9781 L274.6,94.9781 L253.8,94.9781 L253.8,87.3781 " fill="#EEEEEE" style="stroke:#000000;stroke-width:0.8000000000000002;"/><text fill="#000000" font-family="sans-serif" font-size="5.2" font-weight="bold" lengthAdjust="spacing" textLength="6.8" x="259" y="93.7895">ref</text><text fill="#000000" font-family="sans-serif" font-size="4.8" lengthAdjust="spacing" textLength="42.4" x="265.4" y="101.7578">Get Entries Dto List</text><polygon fill="#181818" points="168.6,114.3953,164.6,115.9953,168.6,117.5953,167,115.9953" style="stroke:#181818;stroke-width:0.4000000000000001;"/><line style="stroke:#181818;stroke-width:0.4000000000000001;stroke-dasharray:2.0,2.0;" x1="166.2" x2="286.2" y1="115.9953" y2="115.9953"/><text fill="#000000" font-family="sans-serif" font-size="5.2" font-weight="bold" lengthAdjust="spacing" textLength="2.8" x="171" y="113.8902">4</text><text fill="#000000" font-family="sans-serif" font-size="5.2" lengthAdjust="spacing" textLength="32" x="175.4" y="113.8902">entriesListDto</text><polygon fill="#181818" points="27.8,126.9117,23.8,128.5117,27.8,130.1117,26.2,128.5117" style="stroke:#181818;stroke-width:0.4000000000000001;"/><line style="stroke:#181818;stroke-width:0.4000000000000001;stroke-dasharray:2.0,2.0;" x1="25.4" x2="161.8" y1="128.5117" y2="128.5117"/><text fill="#000000" font-family="sans-serif" font-size="5.2" font-weight="bold" lengthAdjust="spacing" textLength="2.8" x="30.2" y="126.4066">5</text><text fill="#000000" font-family="sans-serif" font-size="5.2" lengthAdjust="spacing" textLength="98" x="34.6" y="126.4066">shows agenda and asks to select an entry</text><polygon fill="#181818" points="155.4,139.4281,159.4,141.0281,155.4,142.6281,157,141.0281" style="stroke:#181818;stroke-width:0.4000000000000001;"/><line style="stroke:#181818;stroke-width:0.4000000000000001;" x1="23.4" x2="157.8" y1="141.0281" y2="141.0281"/><text fill="#000000" font-family="sans-serif" font-size="5.2" font-weight="bold" lengthAdjust="spacing" textLength="2.8" x="26.2" y="138.923">6</text><text fill="#000000" font-family="sans-serif" font-size="5.2" lengthAdjust="spacing" textLength="70" x="30.6" y="138.923">selects an entry in the agenda</text><polygon fill="#181818" points="279.8,151.9445,283.8,153.5445,279.8,155.1445,281.4,153.5445" style="stroke:#181818;stroke-width:0.4000000000000001;"/><line style="stroke:#181818;stroke-width:0.4000000000000001;" x1="164.2" x2="282.2" y1="153.5445" y2="153.5445"/><text fill="#000000" font-family="sans-serif" font-size="5.2" font-weight="bold" lengthAdjust="spacing" textLength="2.8" x="167" y="151.4395">7</text><text fill="#000000" font-family="sans-serif" font-size="5.2" lengthAdjust="spacing" textLength="44.8" x="171.4" y="151.4395">getTeamsListDTO()</text><rect fill="none" height="17.3008" style="stroke:#000000;stroke-width:0.6000000000000001;" width="65.6" x="253.8" y="156.7445"/><path d="M253.8,156.7445 L278.6,156.7445 L278.6,160.3445 L274.6,164.3445 L253.8,164.3445 L253.8,156.7445 " fill="#EEEEEE" style="stroke:#000000;stroke-width:0.8000000000000002;"/><text fill="#000000" font-family="sans-serif" font-size="5.2" font-weight="bold" lengthAdjust="spacing" textLength="6.8" x="259" y="163.1559">ref</text><text fill="#000000" font-family="sans-serif" font-size="4.8" lengthAdjust="spacing" textLength="39.6" x="266.8" y="171.1242">Get Team Dto List</text><polygon fill="#181818" points="168.6,183.7617,164.6,185.3617,168.6,186.9617,167,185.3617" style="stroke:#181818;stroke-width:0.4000000000000001;"/><line style="stroke:#181818;stroke-width:0.4000000000000001;stroke-dasharray:2.0,2.0;" x1="166.2" x2="286.2" y1="185.3617" y2="185.3617"/><text fill="#000000" font-family="sans-serif" font-size="5.2" font-weight="bold" lengthAdjust="spacing" textLength="2.8" x="171" y="183.2566">8</text><text fill="#000000" font-family="sans-serif" font-size="5.2" lengthAdjust="spacing" textLength="28" x="175.4" y="183.2566">teamListDto</text><polygon fill="#181818" points="27.8,196.2781,23.8,197.8781,27.8,199.4781,26.2,197.8781" style="stroke:#181818;stroke-width:0.4000000000000001;"/><line style="stroke:#181818;stroke-width:0.4000000000000001;stroke-dasharray:2.0,2.0;" x1="25.4" x2="161.8" y1="197.8781" y2="197.8781"/><text fill="#000000" font-family="sans-serif" font-size="5.2" font-weight="bold" lengthAdjust="spacing" textLength="2.8" x="30.2" y="195.773">9</text><text fill="#000000" font-family="sans-serif" font-size="5.2" lengthAdjust="spacing" textLength="93.6" x="34.6" y="195.773">shows teams list and asks to select one</text><polygon fill="#181818" points="155.4,208.7945,159.4,210.3945,155.4,211.9945,157,210.3945" style="stroke:#181818;stroke-width:0.4000000000000001;"/><line style="stroke:#181818;stroke-width:0.4000000000000001;" x1="23.4" x2="157.8" y1="210.3945" y2="210.3945"/><text fill="#000000" font-family="sans-serif" font-size="5.2" font-weight="bold" lengthAdjust="spacing" textLength="5.6" x="26.2" y="208.2895">10</text><text fill="#000000" font-family="sans-serif" font-size="5.2" lengthAdjust="spacing" textLength="122" x="33.4" y="208.2895">selects a team and assign to the entry in the agenda</text><polygon fill="#181818" points="27.8,221.3109,23.8,222.9109,27.8,224.5109,26.2,222.9109" style="stroke:#181818;stroke-width:0.4000000000000001;"/><line style="stroke:#181818;stroke-width:0.4000000000000001;stroke-dasharray:2.0,2.0;" x1="25.4" x2="161.8" y1="222.9109" y2="222.9109"/><text fill="#000000" font-family="sans-serif" font-size="5.2" font-weight="bold" lengthAdjust="spacing" textLength="5.6" x="30.2" y="220.8059">11</text><text fill="#000000" font-family="sans-serif" font-size="5.2" lengthAdjust="spacing" textLength="94.4" x="37.4" y="220.8059">shows all data and requests confirmation</text><polygon fill="#181818" points="155.4,233.8273,159.4,235.4273,155.4,237.0273,157,235.4273" style="stroke:#181818;stroke-width:0.4000000000000001;"/><line style="stroke:#181818;stroke-width:0.4000000000000001;" x1="23.4" x2="157.8" y1="235.4273" y2="235.4273"/><text fill="#000000" font-family="sans-serif" font-size="5.2" font-weight="bold" lengthAdjust="spacing" textLength="5.6" x="26.2" y="233.3223">12</text><text fill="#000000" font-family="sans-serif" font-size="5.2" lengthAdjust="spacing" textLength="31.2" x="33.4" y="233.3223">confirms data</text><polygon fill="#181818" points="279.8,246.3438,283.8,247.9438,279.8,249.5438,281.4,247.9438" style="stroke:#181818;stroke-width:0.4000000000000001;"/><line style="stroke:#181818;stroke-width:0.4000000000000001;" x1="164.2" x2="282.2" y1="247.9438" y2="247.9438"/><text fill="#000000" font-family="sans-serif" font-size="5.2" font-weight="bold" lengthAdjust="spacing" textLength="5.6" x="167" y="245.8387">13</text><text fill="#000000" font-family="sans-serif" font-size="5.2" lengthAdjust="spacing" textLength="105.6" x="174.2" y="245.8387">assignTeamToEntry(agendaIndex, teamIndex)</text><line style="stroke:#181818;stroke-width:0.4000000000000001;" x1="288.6" x2="307.4" y1="258.4602" y2="258.4602"/><line style="stroke:#181818;stroke-width:0.4000000000000001;" x1="307.4" x2="307.4" y1="258.4602" y2="263.6602"/><line style="stroke:#181818;stroke-width:0.4000000000000001;" x1="291" x2="307.4" y1="263.6602" y2="263.6602"/><polygon fill="#181818" points="295,262.0602,291,263.6602,295,265.2602,293.4,263.6602" style="stroke:#181818;stroke-width:0.4000000000000001;"/><text fill="#000000" font-family="sans-serif" font-size="5.2" font-weight="bold" lengthAdjust="spacing" textLength="5.6" x="293.4" y="256.3551">14</text><text fill="#000000" font-family="sans-serif" font-size="5.2" lengthAdjust="spacing" textLength="54" x="300.6" y="256.3551">getEntryByIndex(index)</text><rect fill="none" height="17.3008" style="stroke:#000000;stroke-width:0.6000000000000001;" width="65.6" x="253.8" y="268.8602"/><path d="M253.8,268.8602 L278.6,268.8602 L278.6,272.4602 L274.6,276.4602 L253.8,276.4602 L253.8,268.8602 " fill="#EEEEEE" style="stroke:#000000;stroke-width:0.8000000000000002;"/><text fill="#000000" font-family="sans-serif" font-size="5.2" font-weight="bold" lengthAdjust="spacing" textLength="6.8" x="259" y="275.2715">ref</text><text fill="#000000" font-family="sans-serif" font-size="4.8" lengthAdjust="spacing" textLength="34.8" x="269.2" y="283.2398">Get Entry Object</text><line style="stroke:#181818;stroke-width:0.4000000000000001;stroke-dasharray:2.0,2.0;" x1="290.6" x2="307.4" y1="299.4773" y2="299.4773"/><line style="stroke:#181818;stroke-width:0.4000000000000001;stroke-dasharray:2.0,2.0;" x1="307.4" x2="307.4" y1="299.4773" y2="304.6773"/><line style="stroke:#181818;stroke-width:0.4000000000000001;stroke-dasharray:2.0,2.0;" x1="288.6" x2="307.4" y1="304.6773" y2="304.6773"/><polygon fill="#181818" points="292.6,303.0773,288.6,304.6773,292.6,306.2773,291,304.6773" style="stroke:#181818;stroke-width:0.4000000000000001;"/><text fill="#000000" font-family="sans-serif" font-size="5.2" font-weight="bold" lengthAdjust="spacing" textLength="5.6" x="293.4" y="297.3723">15</text><text fill="#000000" font-family="sans-serif" font-size="5.2" lengthAdjust="spacing" textLength="11.6" x="300.6" y="297.3723">entry</text><line style="stroke:#181818;stroke-width:0.4000000000000001;" x1="288.6" x2="307.4" y1="313.1938" y2="313.1938"/><line style="stroke:#181818;stroke-width:0.4000000000000001;" x1="307.4" x2="307.4" y1="313.1938" y2="318.3938"/><line style="stroke:#181818;stroke-width:0.4000000000000001;" x1="291" x2="307.4" y1="318.3938" y2="318.3938"/><polygon fill="#181818" points="295,316.7938,291,318.3938,295,319.9938,293.4,318.3938" style="stroke:#181818;stroke-width:0.4000000000000001;"/><text fill="#000000" font-family="sans-serif" font-size="5.2" font-weight="bold" lengthAdjust="spacing" textLength="5.6" x="293.4" y="311.0887">16</text><text fill="#000000" font-family="sans-serif" font-size="5.2" lengthAdjust="spacing" textLength="54.4" x="300.6" y="311.0887">getTeamByIndex(index)</text><rect fill="none" height="17.3008" style="stroke:#000000;stroke-width:0.6000000000000001;" width="65.6" x="253.8" y="323.5938"/><path d="M253.8,323.5938 L278.6,323.5938 L278.6,327.1938 L274.6,331.1938 L253.8,331.1938 L253.8,323.5938 " fill="#EEEEEE" style="stroke:#000000;stroke-width:0.8000000000000002;"/><text fill="#000000" font-family="sans-serif" font-size="5.2" font-weight="bold" lengthAdjust="spacing" textLength="6.8" x="259" y="330.0051">ref</text><text fill="#000000" font-family="sans-serif" font-size="4.8" lengthAdjust="spacing" textLength="36.8" x="268.2" y="337.9734">Get Team Object</text><line style="stroke:#181818;stroke-width:0.4000000000000001;stroke-dasharray:2.0,2.0;" x1="290.6" x2="307.4" y1="354.2109" y2="354.2109"/><line style="stroke:#181818;stroke-width:0.4000000000000001;stroke-dasharray:2.0,2.0;" x1="307.4" x2="307.4" y1="354.2109" y2="359.4109"/><line style="stroke:#181818;stroke-width:0.4000000000000001;stroke-dasharray:2.0,2.0;" x1="288.6" x2="307.4" y1="359.4109" y2="359.4109"/><polygon fill="#181818" points="292.6,357.8109,288.6,359.4109,292.6,361.0109,291,359.4109" style="stroke:#181818;stroke-width:0.4000000000000001;"/><text fill="#000000" font-family="sans-serif" font-size="5.2" font-weight="bold" lengthAdjust="spacing" textLength="5.6" x="293.4" y="352.1059">17</text><text fill="#000000" font-family="sans-serif" font-size="5.2" lengthAdjust="spacing" textLength="11.6" x="300.6" y="352.1059">team</text><polygon fill="#181818" points="475.8,368.3273,479.8,369.9273,475.8,371.5273,477.4,369.9273" style="stroke:#181818;stroke-width:0.4000000000000001;"/><line style="stroke:#181818;stroke-width:0.4000000000000001;" x1="288.6" x2="478.2" y1="369.9273" y2="369.9273"/><text fill="#000000" font-family="sans-serif" font-size="5.2" font-weight="bold" lengthAdjust="spacing" textLength="5.6" x="291.4" y="367.8223">18</text><text fill="#000000" font-family="sans-serif" font-size="5.2" lengthAdjust="spacing" textLength="42.8" x="298.6" y="367.8223">assignTeam(team)</text><polygon fill="#181818" points="293,380.8438,289,382.4438,293,384.0438,291.4,382.4438" style="stroke:#181818;stroke-width:0.4000000000000001;"/><line style="stroke:#181818;stroke-width:0.4000000000000001;stroke-dasharray:2.0,2.0;" x1="290.6" x2="482.2" y1="382.4438" y2="382.4438"/><text fill="#000000" font-family="sans-serif" font-size="5.2" font-weight="bold" lengthAdjust="spacing" textLength="5.6" x="295.4" y="380.3387">19</text><text fill="#000000" font-family="sans-serif" font-size="5.2" lengthAdjust="spacing" textLength="11.6" x="302.6" y="380.3387">entry</text><line style="stroke:#181818;stroke-width:0.4000000000000001;" x1="288.6" x2="307.4" y1="392.9602" y2="392.9602"/><line style="stroke:#181818;stroke-width:0.4000000000000001;" x1="307.4" x2="307.4" y1="392.9602" y2="398.1602"/><line style="stroke:#181818;stroke-width:0.4000000000000001;" x1="291" x2="307.4" y1="398.1602" y2="398.1602"/><polygon fill="#181818" points="295,396.5602,291,398.1602,295,399.7602,293.4,398.1602" style="stroke:#181818;stroke-width:0.4000000000000001;"/><text fill="#000000" font-family="sans-serif" font-size="5.2" font-weight="bold" lengthAdjust="spacing" textLength="5.6" x="293.4" y="390.8551">20</text><text fill="#000000" font-family="sans-serif" font-size="5.2" lengthAdjust="spacing" textLength="66.4" x="300.6" y="390.8551">getEmailGSMFromSession()</text><rect fill="none" height="17.3008" style="stroke:#000000;stroke-width:0.6000000000000001;" width="65.6" x="253.8" y="403.3602"/><path d="M253.8,403.3602 L278.6,403.3602 L278.6,406.9602 L274.6,410.9602 L253.8,410.9602 L253.8,403.3602 " fill="#EEEEEE" style="stroke:#000000;stroke-width:0.8000000000000002;"/><text fill="#000000" font-family="sans-serif" font-size="5.2" font-weight="bold" lengthAdjust="spacing" textLength="6.8" x="259" y="409.7715">ref</text><text fill="#000000" font-family="sans-serif" font-size="4.8" lengthAdjust="spacing" textLength="33.2" x="270" y="417.7398">Get GSM Email</text><line style="stroke:#181818;stroke-width:0.4000000000000001;stroke-dasharray:2.0,2.0;" x1="290.6" x2="307.4" y1="433.9773" y2="433.9773"/><line style="stroke:#181818;stroke-width:0.4000000000000001;stroke-dasharray:2.0,2.0;" x1="307.4" x2="307.4" y1="433.9773" y2="439.1773"/><line style="stroke:#181818;stroke-width:0.4000000000000001;stroke-dasharray:2.0,2.0;" x1="288.6" x2="307.4" y1="439.1773" y2="439.1773"/><polygon fill="#181818" points="292.6,437.5773,288.6,439.1773,292.6,440.7773,291,439.1773" style="stroke:#181818;stroke-width:0.4000000000000001;"/><text fill="#000000" font-family="sans-serif" font-size="5.2" font-weight="bold" lengthAdjust="spacing" textLength="5.6" x="293.4" y="431.8723">21</text><text fill="#000000" font-family="sans-serif" font-size="5.2" lengthAdjust="spacing" textLength="12.4" x="300.6" y="431.8723">email</text><path d="M251,443.1773 L280.2,443.1773 L280.2,446.8938 L276.2,450.8938 L251,450.8938 L251,443.1773 " fill="#EEEEEE" style="stroke:#000000;stroke-width:0.6000000000000001;"/><rect fill="none" height="62.45" style="stroke:#000000;stroke-width:0.6000000000000001;" width="233.6" x="251" y="443.1773"/><text fill="#000000" font-family="sans-serif" font-size="5.2" font-weight="bold" lengthAdjust="spacing" textLength="11.2" x="257" y="449.1887">loop</text><text fill="#000000" font-family="sans-serif" font-size="4.4" font-weight="bold" lengthAdjust="spacing" textLength="67.2" x="286.2" y="448.7254">[For each collaborator in team]</text><line style="stroke:#181818;stroke-width:0.4000000000000001;" x1="288.6" x2="307.4" y1="458.2102" y2="458.2102"/><line style="stroke:#181818;stroke-width:0.4000000000000001;" x1="307.4" x2="307.4" y1="458.2102" y2="463.4102"/><line style="stroke:#181818;stroke-width:0.4000000000000001;" x1="291" x2="307.4" y1="463.4102" y2="463.4102"/><polygon fill="#181818" points="295,461.8102,291,463.4102,295,465.0102,293.4,463.4102" style="stroke:#181818;stroke-width:0.4000000000000001;"/><text fill="#000000" font-family="sans-serif" font-size="5.2" font-weight="bold" lengthAdjust="spacing" textLength="5.6" x="293.4" y="456.1051">22</text><text fill="#000000" font-family="sans-serif" font-size="5.2" lengthAdjust="spacing" textLength="179.2" x="300.6" y="456.1051">sendTheEmailToTeam(gsmEmail, collaboratorEmail, collaboratorName, entry)</text><rect fill="none" height="17.3008" style="stroke:#000000;stroke-width:0.6000000000000001;" width="65.6" x="253.8" y="468.6102"/><path d="M253.8,468.6102 L278.6,468.6102 L278.6,472.2102 L274.6,476.2102 L253.8,476.2102 L253.8,468.6102 " fill="#EEEEEE" style="stroke:#000000;stroke-width:0.8000000000000002;"/><text fill="#000000" font-family="sans-serif" font-size="5.2" font-weight="bold" lengthAdjust="spacing" textLength="6.8" x="259" y="475.0215">ref</text><text fill="#000000" font-family="sans-serif" font-size="4.8" lengthAdjust="spacing" textLength="59.2" x="257" y="482.9898">Send Email to Collaborator</text><line style="stroke:#181818;stroke-width:0.4000000000000001;stroke-dasharray:2.0,2.0;" x1="290.6" x2="307.4" y1="499.2273" y2="499.2273"/><line style="stroke:#181818;stroke-width:0.4000000000000001;stroke-dasharray:2.0,2.0;" x1="307.4" x2="307.4" y1="499.2273" y2="504.4273"/><line style="stroke:#181818;stroke-width:0.4000000000000001;stroke-dasharray:2.0,2.0;" x1="288.6" x2="307.4" y1="504.4273" y2="504.4273"/><polygon fill="#181818" points="292.6,502.8273,288.6,504.4273,292.6,506.0273,291,504.4273" style="stroke:#181818;stroke-width:0.4000000000000001;"/><text fill="#000000" font-family="sans-serif" font-size="5.2" font-weight="bold" lengthAdjust="spacing" textLength="5.6" x="293.4" y="497.1223">23</text><text fill="#000000" font-family="sans-serif" font-size="5.2" lengthAdjust="spacing" textLength="1.6" x="300.6" y="497.1223">&#160;</text><polygon fill="#181818" points="168.6,516.1438,164.6,517.7438,168.6,519.3438,167,517.7438" style="stroke:#181818;stroke-width:0.4000000000000001;"/><line style="stroke:#181818;stroke-width:0.4000000000000001;stroke-dasharray:2.0,2.0;" x1="166.2" x2="286.2" y1="517.7438" y2="517.7438"/><text fill="#000000" font-family="sans-serif" font-size="5.2" font-weight="bold" lengthAdjust="spacing" textLength="5.6" x="171" y="515.6387">24</text><text fill="#000000" font-family="sans-serif" font-size="5.2" lengthAdjust="spacing" textLength="11.6" x="178.2" y="515.6387">entry</text><polygon fill="#181818" points="25.8,528.6602,21.8,530.2602,25.8,531.8602,24.2,530.2602" style="stroke:#181818;stroke-width:0.4000000000000001;"/><line style="stroke:#181818;stroke-width:0.4000000000000001;stroke-dasharray:2.0,2.0;" x1="23.4" x2="161.8" y1="530.2602" y2="530.2602"/><text fill="#000000" font-family="sans-serif" font-size="5.2" font-weight="bold" lengthAdjust="spacing" textLength="5.6" x="28.2" y="528.1551">25</text><text fill="#000000" font-family="sans-serif" font-size="5.2" lengthAdjust="spacing" textLength="63.2" x="35.4" y="528.1551">displays operation success</text><!--SRC=[jLPDJ-Cm4BtdLuouR47b3_ImqcxvK2K-91eEAt5nasdhnV5qRHVelzyP9mqfIQ4KcaiIU_ncviqRs_vHsuLoge22B6LpHmL2S4jCV3spKDcZck4uh0o2momeEpDD0pzNEJrhEuEfCXwJH2q3sMKnGPSaF-OwHvWIXGcz92eBvE3eqY5Q63Co-WTxhIpZkoDG7Yx7rmcZ1ftfXR81ZWQ_lDSpcw8gxaVHv7wqrM98DZWofW8RfdTNcxR8ywi7EpYNTxGvlqdl_YGIc7vI0MC02V337t3waxt1WEqUFGJYjtW21O6TnG4B4HAqXJ17u3nihkBw6f7ZZGFoC1fZIbmd9uoREMIBhccUd66GC3NwA-t3MNhREwuDQ_2OOZsyVXnEWPxGbTFGyLnYW0eTpZWHST4ov5m4wXK_HdQwPWKRqGMgZNBiY4uoutL2we05Gy- -ueefp6j-FHhMLyrgyWPkpMIpDEKI_uLAb5IBV0v5j63lpR98RL-APQq7mwkxQ2QBdsAuL7q95Fk0eOJgdNdl4e4naAjGoi3XloLwTfMHdMfNgA39xX9YPUyZr2ur7rGfI6LIYhj1hunyP7DywSTKu-TEKYWhjeQk6dVrUnKHUdeJvrlxTmMtaxzSdezLjQ6iCj3N9djNM5kp5FOEdMJidI_aA8NyV8hnL6YAf2SuMzAhZf3cN1pQbUcEzMr15KeRblm5dz1ZvB38zWx0jZHLTBMVdbehtoNR42tWWky3R3Jd7ZP6JSWfkI78PYA5QuMnIOpdgD8vneXJYdMQ-IB-zZS0EuPkL87ziZ37BJTV9dCiV4MliaiE6tvtOxR5RclsNMe5K-ZjF5JUol63qsG0kVOBerOUQ84kRihWbndVtNpNvjpubSlKVm00]--></g></svg>