<?xml version="1.0" encoding="us-ascii" standalone="no"?><svg xmlns="http://www.w3.org/2000/svg" xmlns:xlink="http://www.w3.org/1999/xlink" contentStyleType="text/css" height="280px" preserveAspectRatio="none" style="width:367px;height:280px;background:#FFFFFF;" version="1.1" viewBox="0 0 367 280" width="367.2px" zoomAndPan="magnify"><defs/><g><rect fill="#FFFFFF" height="214.243" style="stroke:#181818;stroke-width:0.4000000000000001;" width="4" x="57.6" y="36.2133"/><rect fill="#FFFFFF" height="12.5164" style="stroke:#181818;stroke-width:0.4000000000000001;" width="4" x="112.6" y="59.2461"/><rect fill="#FFFFFF" height="12.5164" style="stroke:#181818;stroke-width:0.4000000000000001;" width="4" x="155.4" y="84.2789"/><rect fill="#FFFFFF" height="12.5164" style="stroke:#181818;stroke-width:0.4000000000000001;" width="4" x="192" y="109.3117"/><rect fill="#FFFFFF" height="100.7953" style="stroke:#181818;stroke-width:0.4000000000000001;" width="4" x="229" y="134.3445"/><rect fill="#FFFFFF" height="12.5164" style="stroke:#181818;stroke-width:0.4000000000000001;" width="4" x="291.8" y="182.2742"/><rect fill="#FFFFFF" height="15.3164" style="stroke:#181818;stroke-width:0.4000000000000001;" width="4" x="332.6" y="207.307"/><rect fill="none" height="196.1266" style="stroke:#000000;stroke-width:0.6000000000000001;" width="340.8" x="24" y="42.2133"/><rect fill="none" height="45.2656" style="stroke:#000000;stroke-width:0.6000000000000001;" width="153.6" x="207.2" y="165.2414"/><line style="stroke:#181818;stroke-width:0.20000000000000004;stroke-dasharray:5.0,5.0;" x1="59.6" x2="59.6" y1="22.8969" y2="257.6563"/><line style="stroke:#181818;stroke-width:0.20000000000000004;stroke-dasharray:5.0,5.0;" x1="114.4" x2="114.4" y1="22.8969" y2="257.6563"/><line style="stroke:#181818;stroke-width:0.20000000000000004;stroke-dasharray:5.0,5.0;" x1="157.2" x2="157.2" y1="22.8969" y2="257.6563"/><line style="stroke:#181818;stroke-width:0.20000000000000004;stroke-dasharray:5.0,5.0;" x1="194" x2="194" y1="22.8969" y2="257.6563"/><line style="stroke:#181818;stroke-width:0.20000000000000004;stroke-dasharray:5.0,5.0;" x1="230.8" x2="230.8" y1="22.8969" y2="257.6563"/><line style="stroke:#181818;stroke-width:0.20000000000000004;stroke-dasharray:5.0,5.0;" x1="293.6" x2="293.6" y1="22.8969" y2="257.6563"/><line style="stroke:#181818;stroke-width:0.20000000000000004;stroke-dasharray:5.0,5.0;" x1="334.4" x2="334.4" y1="153.993" y2="257.6563"/><rect fill="#E3E3E3" height="13.0484" rx="1" ry="1" style="stroke:#181818;stroke-width:0.20000000000000004;" width="63.2" x="28" y="9.4484"/><text fill="#000000" font-family="sans-serif" font-size="5.6" lengthAdjust="spacing" textLength="57.6" x="30.8" y="18.2914">:AssignTeamController</text><rect fill="#E3E3E3" height="13.0484" rx="1" ry="1" style="stroke:#181818;stroke-width:0.20000000000000004;" width="63.2" x="28" y="257.2563"/><text fill="#000000" font-family="sans-serif" font-size="5.6" lengthAdjust="spacing" textLength="57.6" x="30.8" y="266.0992">:AssignTeamController</text><rect fill="#E3E3E3" height="13.0484" rx="1" ry="1" style="stroke:#181818;stroke-width:0.20000000000000004;" width="38.8" x="95.2" y="9.4484"/><text fill="#000000" font-family="sans-serif" font-size="5.6" lengthAdjust="spacing" textLength="33.2" x="98" y="18.2914">:Repositories</text><rect fill="#E3E3E3" height="13.0484" rx="1" ry="1" style="stroke:#181818;stroke-width:0.20000000000000004;" width="38.8" x="95.2" y="257.2563"/><text fill="#000000" font-family="sans-serif" font-size="5.6" lengthAdjust="spacing" textLength="33.2" x="98" y="266.0992">:Repositories</text><rect fill="#E3E3E3" height="20.4969" rx="1" ry="1" style="stroke:#181818;stroke-width:0.20000000000000004;" width="38.8" x="138" y="2"/><text fill="#000000" font-family="sans-serif" font-size="5.6" lengthAdjust="spacing" textLength="29.6" x="142.6" y="10.843">repositories</text><text fill="#000000" font-family="sans-serif" font-size="5.6" lengthAdjust="spacing" textLength="33.2" x="140.8" y="18.2914">:Repositories</text><rect fill="#E3E3E3" height="20.4969" rx="1" ry="1" style="stroke:#181818;stroke-width:0.20000000000000004;" width="38.8" x="138" y="257.2563"/><text fill="#000000" font-family="sans-serif" font-size="5.6" lengthAdjust="spacing" textLength="29.6" x="142.6" y="266.0992">repositories</text><text fill="#000000" font-family="sans-serif" font-size="5.6" lengthAdjust="spacing" textLength="33.2" x="140.8" y="273.5477">:Repositories</text><rect fill="#E3E3E3" height="20.4969" rx="1" ry="1" style="stroke:#181818;stroke-width:0.20000000000000004;" width="26.4" x="180.8" y="2"/><text fill="#000000" font-family="sans-serif" font-size="5.6" lengthAdjust="spacing" textLength="20.8" x="183.6" y="10.843">agenda:</text><text fill="#000000" font-family="sans-serif" font-size="5.6" lengthAdjust="spacing" textLength="19.6" x="184.2" y="18.2914">Agenda</text><rect fill="#E3E3E3" height="20.4969" rx="1" ry="1" style="stroke:#181818;stroke-width:0.20000000000000004;" width="26.4" x="180.8" y="257.2563"/><text fill="#000000" font-family="sans-serif" font-size="5.6" lengthAdjust="spacing" textLength="20.8" x="183.6" y="266.0992">agenda:</text><text fill="#000000" font-family="sans-serif" font-size="5.6" lengthAdjust="spacing" textLength="19.6" x="184.2" y="273.5477">Agenda</text><rect fill="#E3E3E3" height="13.0484" rx="1" ry="1" style="stroke:#181818;stroke-width:0.20000000000000004;" width="39.6" x="211.2" y="9.4484"/><text fill="#000000" font-family="sans-serif" font-size="5.6" lengthAdjust="spacing" textLength="34" x="214" y="18.2914">:EntryMapper</text><rect fill="#E3E3E3" height="13.0484" rx="1" ry="1" style="stroke:#181818;stroke-width:0.20000000000000004;" width="39.6" x="211.2" y="257.2563"/><text fill="#000000" font-family="sans-serif" font-size="5.6" lengthAdjust="spacing" textLength="34" x="214" y="266.0992">:EntryMapper</text><rect fill="#E3E3E3" height="20.4969" rx="1" ry="1" style="stroke:#181818;stroke-width:0.20000000000000004;" width="29.2" x="279.2" y="2"/><text fill="#000000" font-family="sans-serif" font-size="5.6" lengthAdjust="spacing" textLength="21.6" x="283" y="10.843">entryDto</text><text fill="#000000" font-family="sans-serif" font-size="5.6" lengthAdjust="spacing" textLength="23.6" x="282" y="18.2914">:EntryDto</text><rect fill="#E3E3E3" height="20.4969" rx="1" ry="1" style="stroke:#181818;stroke-width:0.20000000000000004;" width="29.2" x="279.2" y="257.2563"/><text fill="#000000" font-family="sans-serif" font-size="5.6" lengthAdjust="spacing" textLength="21.6" x="283" y="266.0992">entryDto</text><text fill="#000000" font-family="sans-serif" font-size="5.6" lengthAdjust="spacing" textLength="23.6" x="282" y="273.5477">:EntryDto</text><rect fill="#E3E3E3" height="20.4969" rx="1" ry="1" style="stroke:#181818;stroke-width:0.20000000000000004;" width="44.4" x="312.4" y="257.2563"/><text fill="#000000" font-family="sans-serif" font-size="5.6" lengthAdjust="spacing" textLength="34.8" x="317.2" y="266.0992">entriesListDto</text><text fill="#000000" font-family="sans-serif" font-size="5.6" lengthAdjust="spacing" textLength="38.8" x="315.2" y="273.5477">:List&lt;EntryDto&gt;</text><rect fill="#FFFFFF" height="214.243" style="stroke:#181818;stroke-width:0.4000000000000001;" width="4" x="57.6" y="36.2133"/><rect fill="#FFFFFF" height="12.5164" style="stroke:#181818;stroke-width:0.4000000000000001;" width="4" x="112.6" y="59.2461"/><rect fill="#FFFFFF" height="12.5164" style="stroke:#181818;stroke-width:0.4000000000000001;" width="4" x="155.4" y="84.2789"/><rect fill="#FFFFFF" height="12.5164" style="stroke:#181818;stroke-width:0.4000000000000001;" width="4" x="192" y="109.3117"/><rect fill="#FFFFFF" height="100.7953" style="stroke:#181818;stroke-width:0.4000000000000001;" width="4" x="229" y="134.3445"/><rect fill="#FFFFFF" height="12.5164" style="stroke:#181818;stroke-width:0.4000000000000001;" width="4" x="291.8" y="182.2742"/><rect fill="#FFFFFF" height="15.3164" style="stroke:#181818;stroke-width:0.4000000000000001;" width="4" x="332.6" y="207.307"/><polygon fill="#181818" points="52.8,34.6133,56.8,36.2133,52.8,37.8133,54.4,36.2133" style="stroke:#181818;stroke-width:0.4000000000000001;"/><line style="stroke:#181818;stroke-width:0.4000000000000001;" x1="0" x2="55.2" y1="36.2133" y2="36.2133"/><text fill="#000000" font-family="sans-serif" font-size="5.2" font-weight="bold" lengthAdjust="spacing" textLength="2.8" x="2.8" y="34.1082">3</text><text fill="#000000" font-family="sans-serif" font-size="5.2" lengthAdjust="spacing" textLength="45.6" x="7.2" y="34.1082">getEntriesListDTO()</text><path d="M24,42.2133 L85.6,42.2133 L85.6,45.9297 L81.6,49.9297 L24,49.9297 L24,42.2133 " fill="#EEEEEE" style="stroke:#000000;stroke-width:0.6000000000000001;"/><rect fill="none" height="196.1266" style="stroke:#000000;stroke-width:0.6000000000000001;" width="340.8" x="24" y="42.2133"/><text fill="#000000" font-family="sans-serif" font-size="5.2" font-weight="bold" lengthAdjust="spacing" textLength="43.6" x="30" y="48.2246">Get Entry Dto List</text><polygon fill="#181818" points="107.8,57.6461,111.8,59.2461,107.8,60.8461,109.4,59.2461" style="stroke:#181818;stroke-width:0.4000000000000001;"/><line style="stroke:#181818;stroke-width:0.4000000000000001;" x1="61.6" x2="110.2" y1="59.2461" y2="59.2461"/><text fill="#000000" font-family="sans-serif" font-size="5.2" font-weight="bold" lengthAdjust="spacing" textLength="7.2" x="64.4" y="57.141">3.1</text><text fill="#000000" font-family="sans-serif" font-size="5.2" lengthAdjust="spacing" textLength="30" x="73.2" y="57.141">getInstance()</text><polygon fill="#181818" points="66,70.1625,62,71.7625,66,73.3625,64.4,71.7625" style="stroke:#181818;stroke-width:0.4000000000000001;"/><line style="stroke:#181818;stroke-width:0.4000000000000001;stroke-dasharray:2.0,2.0;" x1="63.6" x2="114.2" y1="71.7625" y2="71.7625"/><text fill="#000000" font-family="sans-serif" font-size="5.2" font-weight="bold" lengthAdjust="spacing" textLength="7.2" x="68.4" y="69.6574">3.2</text><text fill="#000000" font-family="sans-serif" font-size="5.2" lengthAdjust="spacing" textLength="26.8" x="77.2" y="69.6574">repositories</text><polygon fill="#181818" points="150.6,82.6789,154.6,84.2789,150.6,85.8789,152.2,84.2789" style="stroke:#181818;stroke-width:0.4000000000000001;"/><line style="stroke:#181818;stroke-width:0.4000000000000001;" x1="61.6" x2="153" y1="84.2789" y2="84.2789"/><text fill="#000000" font-family="sans-serif" font-size="5.2" font-weight="bold" lengthAdjust="spacing" textLength="7.2" x="64.4" y="82.1738">3.3</text><text fill="#000000" font-family="sans-serif" font-size="5.2" lengthAdjust="spacing" textLength="28" x="73.2" y="82.1738">getAgenda()</text><polygon fill="#181818" points="66,95.1953,62,96.7953,66,98.3953,64.4,96.7953" style="stroke:#181818;stroke-width:0.4000000000000001;"/><line style="stroke:#181818;stroke-width:0.4000000000000001;stroke-dasharray:2.0,2.0;" x1="63.6" x2="157" y1="96.7953" y2="96.7953"/><text fill="#000000" font-family="sans-serif" font-size="5.2" font-weight="bold" lengthAdjust="spacing" textLength="7.2" x="68.4" y="94.6902">3.4</text><text fill="#000000" font-family="sans-serif" font-size="5.2" lengthAdjust="spacing" textLength="16.8" x="77.2" y="94.6902">agenda</text><polygon fill="#181818" points="187.2,107.7117,191.2,109.3117,187.2,110.9117,188.8,109.3117" style="stroke:#181818;stroke-width:0.4000000000000001;"/><line style="stroke:#181818;stroke-width:0.4000000000000001;" x1="61.6" x2="189.6" y1="109.3117" y2="109.3117"/><text fill="#000000" font-family="sans-serif" font-size="5.2" font-weight="bold" lengthAdjust="spacing" textLength="7.2" x="64.4" y="107.2066">3.5</text><text fill="#000000" font-family="sans-serif" font-size="5.2" lengthAdjust="spacing" textLength="35.2" x="73.2" y="107.2066">getEntriesList()</text><polygon fill="#181818" points="66,120.2281,62,121.8281,66,123.4281,64.4,121.8281" style="stroke:#181818;stroke-width:0.4000000000000001;"/><line style="stroke:#181818;stroke-width:0.4000000000000001;stroke-dasharray:2.0,2.0;" x1="63.6" x2="193.6" y1="121.8281" y2="121.8281"/><text fill="#000000" font-family="sans-serif" font-size="5.2" font-weight="bold" lengthAdjust="spacing" textLength="7.2" x="68.4" y="119.723">3.6</text><text fill="#000000" font-family="sans-serif" font-size="5.2" lengthAdjust="spacing" textLength="24" x="77.2" y="119.723">entriesList</text><polygon fill="#181818" points="224.2,132.7445,228.2,134.3445,224.2,135.9445,225.8,134.3445" style="stroke:#181818;stroke-width:0.4000000000000001;"/><line style="stroke:#181818;stroke-width:0.4000000000000001;" x1="61.6" x2="226.6" y1="134.3445" y2="134.3445"/><text fill="#000000" font-family="sans-serif" font-size="5.2" font-weight="bold" lengthAdjust="spacing" textLength="7.2" x="64.4" y="132.2395">3.7</text><text fill="#000000" font-family="sans-serif" font-size="5.2" lengthAdjust="spacing" textLength="50.4" x="73.2" y="132.2395">toDTOList(entriesList)</text><polygon fill="#181818" points="307.6,145.2609,311.6,146.8609,307.6,148.4609,309.2,146.8609" style="stroke:#181818;stroke-width:0.4000000000000001;"/><line style="stroke:#181818;stroke-width:0.4000000000000001;" x1="233" x2="310" y1="146.8609" y2="146.8609"/><text fill="#000000" font-family="sans-serif" font-size="5.2" font-weight="bold" lengthAdjust="spacing" textLength="7.2" x="235.8" y="144.7559">3.8</text><text fill="#000000" font-family="sans-serif" font-size="5.2" lengthAdjust="spacing" textLength="17.6" x="244.6" y="144.7559">create()</text><rect fill="#E3E3E3" height="20.4969" rx="1" ry="1" style="stroke:#181818;stroke-width:0.20000000000000004;" width="44.4" x="312.4" y="137.5445"/><text fill="#000000" font-family="sans-serif" font-size="5.6" lengthAdjust="spacing" textLength="34.8" x="317.2" y="146.3875">entriesListDto</text><text fill="#000000" font-family="sans-serif" font-size="5.6" lengthAdjust="spacing" textLength="38.8" x="315.2" y="153.8359">:List&lt;EntryDto&gt;</text><path d="M207.2,165.2414 L236.4,165.2414 L236.4,168.9578 L232.4,172.9578 L207.2,172.9578 L207.2,165.2414 " fill="#EEEEEE" style="stroke:#000000;stroke-width:0.6000000000000001;"/><rect fill="none" height="45.2656" style="stroke:#000000;stroke-width:0.6000000000000001;" width="153.6" x="207.2" y="165.2414"/><text fill="#000000" font-family="sans-serif" font-size="5.2" font-weight="bold" lengthAdjust="spacing" textLength="11.2" x="213.2" y="171.2527">loop</text><text fill="#000000" font-family="sans-serif" font-size="4.4" font-weight="bold" lengthAdjust="spacing" textLength="65.6" x="242.4" y="170.7895">[For each entry in entriesList]</text><polygon fill="#181818" points="287,180.6742,291,182.2742,287,183.8742,288.6,182.2742" style="stroke:#181818;stroke-width:0.4000000000000001;"/><line style="stroke:#181818;stroke-width:0.4000000000000001;" x1="233" x2="289.4" y1="182.2742" y2="182.2742"/><text fill="#000000" font-family="sans-serif" font-size="5.2" font-weight="bold" lengthAdjust="spacing" textLength="7.2" x="235.8" y="180.1691">3.9</text><text fill="#000000" font-family="sans-serif" font-size="5.2" lengthAdjust="spacing" textLength="42.4" x="244.6" y="180.1691">entryToDTO(entry)</text><polygon fill="#181818" points="237.4,193.1906,233.4,194.7906,237.4,196.3906,235.8,194.7906" style="stroke:#181818;stroke-width:0.4000000000000001;"/><line style="stroke:#181818;stroke-width:0.4000000000000001;stroke-dasharray:2.0,2.0;" x1="235" x2="293.4" y1="194.7906" y2="194.7906"/><text fill="#000000" font-family="sans-serif" font-size="5.2" font-weight="bold" lengthAdjust="spacing" textLength="10" x="239.8" y="192.6855">3.10</text><text fill="#000000" font-family="sans-serif" font-size="5.2" lengthAdjust="spacing" textLength="19.6" x="251.4" y="192.6855">entryDto</text><polygon fill="#181818" points="327.8,205.707,331.8,207.307,327.8,208.907,329.4,207.307" style="stroke:#181818;stroke-width:0.4000000000000001;"/><line style="stroke:#181818;stroke-width:0.4000000000000001;" x1="233" x2="330.2" y1="207.307" y2="207.307"/><text fill="#000000" font-family="sans-serif" font-size="5.2" font-weight="bold" lengthAdjust="spacing" textLength="10" x="235.8" y="205.202">3.11</text><text fill="#000000" font-family="sans-serif" font-size="5.2" lengthAdjust="spacing" textLength="31.2" x="247.4" y="205.202">add(entryDto)</text><polygon fill="#181818" points="237.4,221.0234,233.4,222.6234,237.4,224.2234,235.8,222.6234" style="stroke:#181818;stroke-width:0.4000000000000001;"/><line style="stroke:#181818;stroke-width:0.4000000000000001;stroke-dasharray:2.0,2.0;" x1="235" x2="334.2" y1="222.6234" y2="222.6234"/><text fill="#000000" font-family="sans-serif" font-size="5.2" font-weight="bold" lengthAdjust="spacing" textLength="10" x="239.8" y="220.5184">3.12</text><text fill="#000000" font-family="sans-serif" font-size="5.2" lengthAdjust="spacing" textLength="32" x="251.4" y="220.5184">entriesListDto</text><polygon fill="#181818" points="66,233.5398,62,235.1398,66,236.7398,64.4,235.1398" style="stroke:#181818;stroke-width:0.4000000000000001;"/><line style="stroke:#181818;stroke-width:0.4000000000000001;stroke-dasharray:2.0,2.0;" x1="63.6" x2="230.6" y1="235.1398" y2="235.1398"/><text fill="#000000" font-family="sans-serif" font-size="5.2" font-weight="bold" lengthAdjust="spacing" textLength="10" x="68.4" y="233.0348">3.13</text><text fill="#000000" font-family="sans-serif" font-size="5.2" lengthAdjust="spacing" textLength="32" x="80" y="233.0348">entriesListDto</text><polygon fill="#181818" points="4.4,248.8563,0.4,250.4563,4.4,252.0563,2.8,250.4563" style="stroke:#181818;stroke-width:0.4000000000000001;"/><line style="stroke:#181818;stroke-width:0.4000000000000001;stroke-dasharray:2.0,2.0;" x1="2" x2="59.2" y1="250.4563" y2="250.4563"/><text fill="#000000" font-family="sans-serif" font-size="5.2" font-weight="bold" lengthAdjust="spacing" textLength="2.8" x="6.8" y="248.3512">4</text><text fill="#000000" font-family="sans-serif" font-size="5.2" lengthAdjust="spacing" textLength="34.4" x="11.2" y="248.3512">entriesListDTO</text><!--SRC=[ZLHDJzmm4BtxLuou592s4cfF4K9QGK18L5rjziZ594FM8h4Zszko_vw9dMpiV7IRa-DvRzwRyTZcGyY6Qrv3hQJAzrhL25OVa9bJfE7v1oyniySAGMDkkIoh463sl51_XIpXdLS66UC7g-IXVaFDsBUzA13UbR9lwfCnObYHYuPB2nV9sXXHoXto-bv9grLLeRu0Rk1-jtqPORVOA2EiqWADmspJJGpH0U9LpXAoc45boO8dhtBj5WxbzqRYARax_k9Dq_b3zx_URD9jZ7I11wj8F-sM0-5XztkA9dSlmbZFQLUtFV7knEmnn0-Q2pyOWzMTQnOaKA9D8-pbLGJ-ViDuRiKVRj7t5-WhjJeqy8GMd2gGBBHqvgBzvnH8YJheXPwbeJ78aIH2t2b_UpPHf6MkEgy9X2SLmGfSJX6OoBmBVsh_y91DJ6I1Y-wab_MpUGFTr8mQlcIZKuc3RkzaXQe9Jdd9q5oYtb8mZmbOHOVlB0LP5zo5WnmXsYy8zYB3T5rVa-rS8sMXqYVSIga67fK6Ac3lCu6GKPt_ezVU6T-TuwujovLql9fGuuBSHPdDJX7NzgXX_QMTK8Bkdycxr2MQigAux0NE-0wl-LIbc9SUIFE53U_BkVAMvAC2PqTsd7pSjt30sa9SvSFJzDDjtAvMFlKeDza9yhcNwmi0]--></g></svg>