<?xml version="1.0" encoding="us-ascii" standalone="no"?><svg xmlns="http://www.w3.org/2000/svg" xmlns:xlink="http://www.w3.org/1999/xlink" contentStyleType="text/css" height="208.5px" preserveAspectRatio="none" style="width:307px;height:208px;background:#FFFFFF;" version="1.1" viewBox="0 0 307 208" width="307.5px" zoomAndPan="magnify"><defs/><g><rect fill="#FFFFFF" height="126.1641" style="stroke:#181818;stroke-width:0.5;" width="5" x="86.5" y="45.2666"/><rect fill="#FFFFFF" height="15.6455" style="stroke:#181818;stroke-width:0.5;" width="5" x="155.25" y="74.0576"/><rect fill="#FFFFFF" height="15.6455" style="stroke:#181818;stroke-width:0.5;" width="5" x="208.75" y="105.3486"/><rect fill="#FFFFFF" height="15.6455" style="stroke:#181818;stroke-width:0.5;" width="5" x="267.5" y="136.6396"/><rect fill="none" height="103.5186" style="stroke:#000000;stroke-width:0.75;" width="260" x="44.5" y="52.7666"/><line style="stroke:#181818;stroke-width:0.25;stroke-dasharray:5.0,5.0;" x1="89" x2="89" y1="28.6211" y2="180.4307"/><line style="stroke:#181818;stroke-width:0.25;stroke-dasharray:5.0,5.0;" x1="157.5" x2="157.5" y1="28.6211" y2="180.4307"/><line style="stroke:#181818;stroke-width:0.25;stroke-dasharray:5.0,5.0;" x1="211" x2="211" y1="28.6211" y2="180.4307"/><line style="stroke:#181818;stroke-width:0.25;stroke-dasharray:5.0,5.0;" x1="270" x2="270" y1="28.6211" y2="180.4307"/><rect fill="#E3E3E3" height="16.3105" rx="1.25" ry="1.25" style="stroke:#181818;stroke-width:0.25;" width="79" x="49.5" y="11.8105"/><text fill="#000000" font-family="sans-serif" font-size="7" lengthAdjust="spacing" textLength="72" x="53" y="22.8643">:AssignTeamController</text><rect fill="#E3E3E3" height="16.3105" rx="1.25" ry="1.25" style="stroke:#181818;stroke-width:0.25;" width="79" x="49.5" y="179.9307"/><text fill="#000000" font-family="sans-serif" font-size="7" lengthAdjust="spacing" textLength="72" x="53" y="190.9844">:AssignTeamController</text><rect fill="#E3E3E3" height="16.3105" rx="1.25" ry="1.25" style="stroke:#181818;stroke-width:0.25;" width="48.5" x="133.5" y="11.8105"/><text fill="#000000" font-family="sans-serif" font-size="7" lengthAdjust="spacing" textLength="41.5" x="137" y="22.8643">:Repositories</text><rect fill="#E3E3E3" height="16.3105" rx="1.25" ry="1.25" style="stroke:#181818;stroke-width:0.25;" width="48.5" x="133.5" y="179.9307"/><text fill="#000000" font-family="sans-serif" font-size="7" lengthAdjust="spacing" textLength="41.5" x="137" y="190.9844">:Repositories</text><rect fill="#E3E3E3" height="25.6211" rx="1.25" ry="1.25" style="stroke:#181818;stroke-width:0.25;" width="48.5" x="187" y="2.5"/><text fill="#000000" font-family="sans-serif" font-size="7" lengthAdjust="spacing" textLength="37" x="192.75" y="13.5537">repositories</text><text fill="#000000" font-family="sans-serif" font-size="7" lengthAdjust="spacing" textLength="41.5" x="190.5" y="22.8643">:Repositories</text><rect fill="#E3E3E3" height="25.6211" rx="1.25" ry="1.25" style="stroke:#181818;stroke-width:0.25;" width="48.5" x="187" y="179.9307"/><text fill="#000000" font-family="sans-serif" font-size="7" lengthAdjust="spacing" textLength="37" x="192.75" y="190.9844">repositories</text><text fill="#000000" font-family="sans-serif" font-size="7" lengthAdjust="spacing" textLength="41.5" x="190.5" y="200.2949">:Repositories</text><rect fill="#E3E3E3" height="25.6211" rx="1.25" ry="1.25" style="stroke:#181818;stroke-width:0.25;" width="59" x="240.5" y="2.5"/><text fill="#000000" font-family="sans-serif" font-size="7" lengthAdjust="spacing" textLength="51.5" x="244.25" y="13.5537">teamRepository:</text><text fill="#000000" font-family="sans-serif" font-size="7" lengthAdjust="spacing" textLength="52" x="244" y="22.8643">TeamRepository</text><rect fill="#E3E3E3" height="25.6211" rx="1.25" ry="1.25" style="stroke:#181818;stroke-width:0.25;" width="59" x="240.5" y="179.9307"/><text fill="#000000" font-family="sans-serif" font-size="7" lengthAdjust="spacing" textLength="51.5" x="244.25" y="190.9844">teamRepository:</text><text fill="#000000" font-family="sans-serif" font-size="7" lengthAdjust="spacing" textLength="52" x="244" y="200.2949">TeamRepository</text><rect fill="#FFFFFF" height="126.1641" style="stroke:#181818;stroke-width:0.5;" width="5" x="86.5" y="45.2666"/><rect fill="#FFFFFF" height="15.6455" style="stroke:#181818;stroke-width:0.5;" width="5" x="155.25" y="74.0576"/><rect fill="#FFFFFF" height="15.6455" style="stroke:#181818;stroke-width:0.5;" width="5" x="208.75" y="105.3486"/><rect fill="#FFFFFF" height="15.6455" style="stroke:#181818;stroke-width:0.5;" width="5" x="267.5" y="136.6396"/><polygon fill="#181818" points="80.5,43.2666,85.5,45.2666,80.5,47.2666,82.5,45.2666" style="stroke:#181818;stroke-width:0.5;"/><line style="stroke:#181818;stroke-width:0.5;" x1="0" x2="83.5" y1="45.2666" y2="45.2666"/><text fill="#000000" font-family="sans-serif" font-size="6.5" font-weight="bold" lengthAdjust="spacing" textLength="7" x="3.5" y="42.6353">16</text><text fill="#000000" font-family="sans-serif" font-size="6.5" lengthAdjust="spacing" textLength="68" x="12.5" y="42.6353">getTeamByIndex(index)</text><path d="M44.5,52.7666 L120.5,52.7666 L120.5,57.4121 L115.5,62.4121 L44.5,62.4121 L44.5,52.7666 " fill="#EEEEEE" style="stroke:#000000;stroke-width:0.75;"/><rect fill="none" height="103.5186" style="stroke:#000000;stroke-width:0.75;" width="260" x="44.5" y="52.7666"/><text fill="#000000" font-family="sans-serif" font-size="6.5" font-weight="bold" lengthAdjust="spacing" textLength="53.5" x="52" y="60.2808">Get Team Object</text><polygon fill="#181818" points="149.25,72.0576,154.25,74.0576,149.25,76.0576,151.25,74.0576" style="stroke:#181818;stroke-width:0.5;"/><line style="stroke:#181818;stroke-width:0.5;" x1="91.5" x2="152.25" y1="74.0576" y2="74.0576"/><text fill="#000000" font-family="sans-serif" font-size="6.5" font-weight="bold" lengthAdjust="spacing" textLength="12.5" x="95" y="71.4263">16.1</text><text fill="#000000" font-family="sans-serif" font-size="6.5" lengthAdjust="spacing" textLength="37.5" x="109.5" y="71.4263">getInstance()</text><polygon fill="#181818" points="97,87.7031,92,89.7031,97,91.7031,95,89.7031" style="stroke:#181818;stroke-width:0.5;"/><line style="stroke:#181818;stroke-width:0.5;stroke-dasharray:2.0,2.0;" x1="94" x2="157.25" y1="89.7031" y2="89.7031"/><text fill="#000000" font-family="sans-serif" font-size="6.5" font-weight="bold" lengthAdjust="spacing" textLength="12.5" x="100" y="87.0718">16.2</text><text fill="#000000" font-family="sans-serif" font-size="6.5" lengthAdjust="spacing" textLength="33.5" x="114.5" y="87.0718">repositories</text><polygon fill="#181818" points="202.75,103.3486,207.75,105.3486,202.75,107.3486,204.75,105.3486" style="stroke:#181818;stroke-width:0.5;"/><line style="stroke:#181818;stroke-width:0.5;" x1="91.5" x2="205.75" y1="105.3486" y2="105.3486"/><text fill="#000000" font-family="sans-serif" font-size="6.5" font-weight="bold" lengthAdjust="spacing" textLength="12.5" x="95" y="102.7173">16.3</text><text fill="#000000" font-family="sans-serif" font-size="6.5" lengthAdjust="spacing" textLength="60" x="109.5" y="102.7173">getTeamRepository()</text><polygon fill="#181818" points="97,118.9941,92,120.9941,97,122.9941,95,120.9941" style="stroke:#181818;stroke-width:0.5;"/><line style="stroke:#181818;stroke-width:0.5;stroke-dasharray:2.0,2.0;" x1="94" x2="210.75" y1="120.9941" y2="120.9941"/><text fill="#000000" font-family="sans-serif" font-size="6.5" font-weight="bold" lengthAdjust="spacing" textLength="12.5" x="100" y="118.3628">16.4</text><text fill="#000000" font-family="sans-serif" font-size="6.5" lengthAdjust="spacing" textLength="45.5" x="114.5" y="118.3628">teamRepository</text><polygon fill="#181818" points="261.5,134.6396,266.5,136.6396,261.5,138.6396,263.5,136.6396" style="stroke:#181818;stroke-width:0.5;"/><line style="stroke:#181818;stroke-width:0.5;" x1="91.5" x2="264.5" y1="136.6396" y2="136.6396"/><text fill="#000000" font-family="sans-serif" font-size="6.5" font-weight="bold" lengthAdjust="spacing" textLength="12.5" x="95" y="134.0083">16.5</text><text fill="#000000" font-family="sans-serif" font-size="6.5" lengthAdjust="spacing" textLength="68" x="109.5" y="134.0083">getTeamByIndex(index)</text><polygon fill="#181818" points="97,150.2852,92,152.2852,97,154.2852,95,152.2852" style="stroke:#181818;stroke-width:0.5;"/><line style="stroke:#181818;stroke-width:0.5;stroke-dasharray:2.0,2.0;" x1="94" x2="269.5" y1="152.2852" y2="152.2852"/><text fill="#000000" font-family="sans-serif" font-size="6.5" font-weight="bold" lengthAdjust="spacing" textLength="12.5" x="100" y="149.6538">16.6</text><text fill="#000000" font-family="sans-serif" font-size="6.5" lengthAdjust="spacing" textLength="14.5" x="114.5" y="149.6538">team</text><polygon fill="#181818" points="5.5,169.4307,0.5,171.4307,5.5,173.4307,3.5,171.4307" style="stroke:#181818;stroke-width:0.5;"/><line style="stroke:#181818;stroke-width:0.5;stroke-dasharray:2.0,2.0;" x1="2.5" x2="88.5" y1="171.4307" y2="171.4307"/><text fill="#000000" font-family="sans-serif" font-size="6.5" font-weight="bold" lengthAdjust="spacing" textLength="7" x="8.5" y="168.7993">17</text><text fill="#000000" font-family="sans-serif" font-size="6.5" lengthAdjust="spacing" textLength="14.5" x="17.5" y="168.7993">team</text><!--SRC=[VLB1QiCm3BtxAqHFxI63NZO8Ox2LCGg3ZQJ7Njn4JRqcTh2LRVdxESwQsbao7mAHdfwUdcJEGjPSymeg9LLsqgf28DqWCqEcvjcP5vXIMo9ep8ZBelG1viHpzILa0KTU6cJCXabaekQIO14_6YCAkKDURPGahSeIzGAuWSqkUHrX4woL4QIqGECmoVDx2D4UOYyd2zAmWcpd0TR6UoVb6d1L8OOntf2IJNL03UjR5ZquhH13WTHLFxLRcUFtKdJVrGX-ixQ1ZCGd9-nd1FiAhPeQNf2W8u2tmuTrahdKvRaUjfSTmNNQIcEzpd2v2c03T-TDaB41Y7x5nk0x5S1odAVmDAJ3k5Td_f6I_j6IUc961i_BIQVrZ9OuiuX9RUFT-g0mDz8xftAA46NUhxZ_zG_YpaNke-XoH8wRUOJkIDWF]--></g></svg>