<?xml version="1.0" encoding="us-ascii" standalone="no"?><svg xmlns="http://www.w3.org/2000/svg" xmlns:xlink="http://www.w3.org/1999/xlink" contentStyleType="text/css" height="326px" preserveAspectRatio="none" style="width:690px;height:326px;background:#FFFFFF;" version="1.1" viewBox="0 0 690 326" width="690.4px" zoomAndPan="magnify"><defs/><g><rect fill="#FFFFFF" height="260.2117" style="stroke:#181818;stroke-width:0.4000000000000001;" width="4" x="194" y="36.2133"/><rect fill="#FFFFFF" height="12.5164" style="stroke:#181818;stroke-width:0.4000000000000001;" width="4" x="248.8" y="59.2461"/><rect fill="#FFFFFF" height="12.5164" style="stroke:#181818;stroke-width:0.4000000000000001;" width="4" x="248.8" y="84.2789"/><rect fill="#FFFFFF" height="171.7969" style="stroke:#181818;stroke-width:0.4000000000000001;" width="4" x="383.6" y="109.3117"/><rect fill="#FFFFFF" height="146.7641" style="stroke:#181818;stroke-width:0.4000000000000001;" width="4" x="447.2" y="121.8281"/><rect fill="#FFFFFF" height="41.9492" style="stroke:#181818;stroke-width:0.4000000000000001;" width="4" x="449.2" y="137.5445"/><rect fill="#FFFFFF" height="47.9492" style="stroke:#181818;stroke-width:0.4000000000000001;" width="4" x="552.8" y="205.3266"/><rect fill="#FFFFFF" height="16.9164" style="stroke:#181818;stroke-width:0.4000000000000001;" width="4" x="554.8" y="221.043"/><rect fill="#FFFFFF" height="12.5164" style="stroke:#181818;stroke-width:0.4000000000000001;" width="4" x="666.4" y="152.0609"/><rect fill="none" height="242.0953" style="stroke:#000000;stroke-width:0.6000000000000001;" width="527.8" x="160.4" y="42.2133"/><rect fill="none" height="68.182" style="stroke:#000000;stroke-width:0.6000000000000001;" width="252.6" x="417.8" y="188.2938"/><line style="stroke:#181818;stroke-width:0.20000000000000004;stroke-dasharray:5.0,5.0;" x1="196" x2="196" y1="22.8969" y2="303.625"/><line style="stroke:#181818;stroke-width:0.20000000000000004;stroke-dasharray:5.0,5.0;" x1="250.8" x2="250.8" y1="22.8969" y2="303.625"/><line style="stroke:#181818;stroke-width:0.20000000000000004;stroke-dasharray:5.0,5.0;" x1="385.4" x2="385.4" y1="22.8969" y2="303.625"/><line style="stroke:#181818;stroke-width:0.20000000000000004;stroke-dasharray:5.0,5.0;" x1="449" x2="449" y1="22.8969" y2="303.625"/><line style="stroke:#181818;stroke-width:0.20000000000000004;stroke-dasharray:5.0,5.0;" x1="504.4" x2="504.4" y1="22.8969" y2="303.625"/><line style="stroke:#181818;stroke-width:0.20000000000000004;stroke-dasharray:5.0,5.0;" x1="554.8" x2="554.8" y1="22.8969" y2="303.625"/><line style="stroke:#181818;stroke-width:0.20000000000000004;stroke-dasharray:5.0,5.0;" x1="668.2" x2="668.2" y1="22.8969" y2="303.625"/><rect fill="#E3E3E3" height="13.0484" rx="1" ry="1" style="stroke:#181818;stroke-width:0.20000000000000004;" width="63.2" x="164.4" y="9.4484"/><text fill="#000000" font-family="sans-serif" font-size="5.6" lengthAdjust="spacing" textLength="57.6" x="167.2" y="18.2914">:AssignTeamController</text><rect fill="#E3E3E3" height="13.0484" rx="1" ry="1" style="stroke:#181818;stroke-width:0.20000000000000004;" width="63.2" x="164.4" y="303.225"/><text fill="#000000" font-family="sans-serif" font-size="5.6" lengthAdjust="spacing" textLength="57.6" x="167.2" y="312.068">:AssignTeamController</text><rect fill="#E3E3E3" height="20.4969" rx="1" ry="1" style="stroke:#181818;stroke-width:0.20000000000000004;" width="38.4" x="231.6" y="2"/><text fill="#000000" font-family="sans-serif" font-size="5.6" lengthAdjust="spacing" textLength="30" x="235.8" y="10.843">collaborator</text><text fill="#000000" font-family="sans-serif" font-size="5.6" lengthAdjust="spacing" textLength="32.8" x="234.4" y="18.2914">:Collaborator</text><rect fill="#E3E3E3" height="20.4969" rx="1" ry="1" style="stroke:#181818;stroke-width:0.20000000000000004;" width="38.4" x="231.6" y="303.225"/><text fill="#000000" font-family="sans-serif" font-size="5.6" lengthAdjust="spacing" textLength="30" x="235.8" y="312.068">collaborator</text><text fill="#000000" font-family="sans-serif" font-size="5.6" lengthAdjust="spacing" textLength="32.8" x="234.4" y="319.5164">:Collaborator</text><rect fill="#E3E3E3" height="13.0484" rx="1" ry="1" style="stroke:#181818;stroke-width:0.20000000000000004;" width="39.6" x="365.8" y="9.4484"/><text fill="#000000" font-family="sans-serif" font-size="5.6" lengthAdjust="spacing" textLength="34" x="368.6" y="18.2914">:EmailService</text><rect fill="#E3E3E3" height="13.0484" rx="1" ry="1" style="stroke:#181818;stroke-width:0.20000000000000004;" width="39.6" x="365.8" y="303.225"/><text fill="#000000" font-family="sans-serif" font-size="5.6" lengthAdjust="spacing" textLength="34" x="368.6" y="312.068">:EmailService</text><rect fill="#E3E3E3" height="13.0484" rx="1" ry="1" style="stroke:#181818;stroke-width:0.20000000000000004;" width="54.8" x="421.8" y="9.4484"/><text fill="#000000" font-family="sans-serif" font-size="5.6" lengthAdjust="spacing" textLength="49.2" x="424.6" y="18.2914">:ApplicationSession</text><rect fill="#E3E3E3" height="13.0484" rx="1" ry="1" style="stroke:#181818;stroke-width:0.20000000000000004;" width="54.8" x="421.8" y="303.225"/><text fill="#000000" font-family="sans-serif" font-size="5.6" lengthAdjust="spacing" textLength="49.2" x="424.6" y="312.068">:ApplicationSession</text><rect fill="#E3E3E3" height="13.0484" rx="1" ry="1" style="stroke:#181818;stroke-width:0.20000000000000004;" width="20.8" x="494" y="9.4484"/><text fill="#000000" font-family="sans-serif" font-size="5.6" lengthAdjust="spacing" textLength="15.2" x="496.8" y="18.2914">:Email</text><rect fill="#E3E3E3" height="13.0484" rx="1" ry="1" style="stroke:#181818;stroke-width:0.20000000000000004;" width="20.8" x="494" y="303.225"/><text fill="#000000" font-family="sans-serif" font-size="5.6" lengthAdjust="spacing" textLength="15.2" x="496.8" y="312.068">:Email</text><rect fill="#E3E3E3" height="13.0484" rx="1" ry="1" style="stroke:#181818;stroke-width:0.20000000000000004;" width="34.4" x="537.6" y="9.4484"/><text fill="#000000" font-family="sans-serif" font-size="5.6" lengthAdjust="spacing" textLength="28.8" x="540.4" y="18.2914">:DeiService</text><rect fill="#E3E3E3" height="13.0484" rx="1" ry="1" style="stroke:#181818;stroke-width:0.20000000000000004;" width="34.4" x="537.6" y="303.225"/><text fill="#000000" font-family="sans-serif" font-size="5.6" lengthAdjust="spacing" textLength="28.8" x="540.4" y="312.068">:DeiService</text><rect fill="#E3E3E3" height="20.4969" rx="1" ry="1" style="stroke:#181818;stroke-width:0.20000000000000004;" width="31.6" x="652.6" y="2"/><text fill="#000000" font-family="sans-serif" font-size="5.6" lengthAdjust="spacing" textLength="13.2" x="661.8" y="10.843">prop:</text><text fill="#000000" font-family="sans-serif" font-size="5.6" lengthAdjust="spacing" textLength="26" x="655.4" y="18.2914">Properties</text><rect fill="#E3E3E3" height="20.4969" rx="1" ry="1" style="stroke:#181818;stroke-width:0.20000000000000004;" width="31.6" x="652.6" y="303.225"/><text fill="#000000" font-family="sans-serif" font-size="5.6" lengthAdjust="spacing" textLength="13.2" x="661.8" y="312.068">prop:</text><text fill="#000000" font-family="sans-serif" font-size="5.6" lengthAdjust="spacing" textLength="26" x="655.4" y="319.5164">Properties</text><rect fill="#FFFFFF" height="260.2117" style="stroke:#181818;stroke-width:0.4000000000000001;" width="4" x="194" y="36.2133"/><rect fill="#FFFFFF" height="12.5164" style="stroke:#181818;stroke-width:0.4000000000000001;" width="4" x="248.8" y="59.2461"/><rect fill="#FFFFFF" height="12.5164" style="stroke:#181818;stroke-width:0.4000000000000001;" width="4" x="248.8" y="84.2789"/><rect fill="#FFFFFF" height="171.7969" style="stroke:#181818;stroke-width:0.4000000000000001;" width="4" x="383.6" y="109.3117"/><rect fill="#FFFFFF" height="146.7641" style="stroke:#181818;stroke-width:0.4000000000000001;" width="4" x="447.2" y="121.8281"/><rect fill="#FFFFFF" height="41.9492" style="stroke:#181818;stroke-width:0.4000000000000001;" width="4" x="449.2" y="137.5445"/><rect fill="#FFFFFF" height="47.9492" style="stroke:#181818;stroke-width:0.4000000000000001;" width="4" x="552.8" y="205.3266"/><rect fill="#FFFFFF" height="16.9164" style="stroke:#181818;stroke-width:0.4000000000000001;" width="4" x="554.8" y="221.043"/><rect fill="#FFFFFF" height="12.5164" style="stroke:#181818;stroke-width:0.4000000000000001;" width="4" x="666.4" y="152.0609"/><polygon fill="#181818" points="189.2,34.6133,193.2,36.2133,189.2,37.8133,190.8,36.2133" style="stroke:#181818;stroke-width:0.4000000000000001;"/><line style="stroke:#181818;stroke-width:0.4000000000000001;" x1="0" x2="191.6" y1="36.2133" y2="36.2133"/><text fill="#000000" font-family="sans-serif" font-size="5.2" font-weight="bold" lengthAdjust="spacing" textLength="5.6" x="2.8" y="34.1082">22</text><text fill="#000000" font-family="sans-serif" font-size="5.2" lengthAdjust="spacing" textLength="179.2" x="10" y="34.1082">sendTheEmailToTeam(gsmEmail, collaboratorEmail, collaboratorName, entry)</text><path d="M160.4,42.2133 L247.2,42.2133 L247.2,45.9297 L243.2,49.9297 L160.4,49.9297 L160.4,42.2133 " fill="#EEEEEE" style="stroke:#000000;stroke-width:0.6000000000000001;"/><rect fill="none" height="242.0953" style="stroke:#000000;stroke-width:0.6000000000000001;" width="527.8" x="160.4" y="42.2133"/><text fill="#000000" font-family="sans-serif" font-size="5.2" font-weight="bold" lengthAdjust="spacing" textLength="68.8" x="166.4" y="48.2246">Send Email to Collaborator</text><polygon fill="#181818" points="244,57.6461,248,59.2461,244,60.8461,245.6,59.2461" style="stroke:#181818;stroke-width:0.4000000000000001;"/><line style="stroke:#181818;stroke-width:0.4000000000000001;" x1="198" x2="246.4" y1="59.2461" y2="59.2461"/><text fill="#000000" font-family="sans-serif" font-size="5.2" font-weight="bold" lengthAdjust="spacing" textLength="10" x="200.8" y="57.141">22.1</text><text fill="#000000" font-family="sans-serif" font-size="5.2" lengthAdjust="spacing" textLength="23.6" x="212.4" y="57.141">getEmail()</text><polygon fill="#181818" points="202.4,70.1625,198.4,71.7625,202.4,73.3625,200.8,71.7625" style="stroke:#181818;stroke-width:0.4000000000000001;"/><line style="stroke:#181818;stroke-width:0.4000000000000001;stroke-dasharray:2.0,2.0;" x1="200" x2="250.4" y1="71.7625" y2="71.7625"/><text fill="#000000" font-family="sans-serif" font-size="5.2" font-weight="bold" lengthAdjust="spacing" textLength="10" x="204.8" y="69.6574">22.2</text><text fill="#000000" font-family="sans-serif" font-size="5.2" lengthAdjust="spacing" textLength="12.4" x="216.4" y="69.6574">email</text><polygon fill="#181818" points="244,82.6789,248,84.2789,244,85.8789,245.6,84.2789" style="stroke:#181818;stroke-width:0.4000000000000001;"/><line style="stroke:#181818;stroke-width:0.4000000000000001;" x1="198" x2="246.4" y1="84.2789" y2="84.2789"/><text fill="#000000" font-family="sans-serif" font-size="5.2" font-weight="bold" lengthAdjust="spacing" textLength="10" x="200.8" y="82.1738">22.3</text><text fill="#000000" font-family="sans-serif" font-size="5.2" lengthAdjust="spacing" textLength="24" x="212.4" y="82.1738">getName()</text><polygon fill="#181818" points="202.4,95.1953,198.4,96.7953,202.4,98.3953,200.8,96.7953" style="stroke:#181818;stroke-width:0.4000000000000001;"/><line style="stroke:#181818;stroke-width:0.4000000000000001;stroke-dasharray:2.0,2.0;" x1="200" x2="250.4" y1="96.7953" y2="96.7953"/><text fill="#000000" font-family="sans-serif" font-size="5.2" font-weight="bold" lengthAdjust="spacing" textLength="10" x="204.8" y="94.6902">22.4</text><text fill="#000000" font-family="sans-serif" font-size="5.2" lengthAdjust="spacing" textLength="12.8" x="216.4" y="94.6902">name</text><polygon fill="#181818" points="378.8,107.7117,382.8,109.3117,378.8,110.9117,380.4,109.3117" style="stroke:#181818;stroke-width:0.4000000000000001;"/><line style="stroke:#181818;stroke-width:0.4000000000000001;" x1="198" x2="381.2" y1="109.3117" y2="109.3117"/><text fill="#000000" font-family="sans-serif" font-size="5.2" font-weight="bold" lengthAdjust="spacing" textLength="10" x="200.8" y="107.2066">22.5</text><text fill="#000000" font-family="sans-serif" font-size="5.2" lengthAdjust="spacing" textLength="166.4" x="212.4" y="107.2066">sendToEmailFile(gsmEmail, collaboratorEmail, collaboratorName, entry)</text><polygon fill="#181818" points="442.4,120.2281,446.4,121.8281,442.4,123.4281,444,121.8281" style="stroke:#181818;stroke-width:0.4000000000000001;"/><line style="stroke:#181818;stroke-width:0.4000000000000001;" x1="387.6" x2="444.8" y1="121.8281" y2="121.8281"/><text fill="#000000" font-family="sans-serif" font-size="5.2" font-weight="bold" lengthAdjust="spacing" textLength="10" x="390.4" y="119.723">22.6</text><text fill="#000000" font-family="sans-serif" font-size="5.2" lengthAdjust="spacing" textLength="40.4" x="402" y="119.723">getEmailService()</text><line style="stroke:#181818;stroke-width:0.4000000000000001;" x1="451.2" x2="470" y1="132.3445" y2="132.3445"/><line style="stroke:#181818;stroke-width:0.4000000000000001;" x1="470" x2="470" y1="132.3445" y2="137.5445"/><line style="stroke:#181818;stroke-width:0.4000000000000001;" x1="453.6" x2="470" y1="137.5445" y2="137.5445"/><polygon fill="#181818" points="457.6,135.9445,453.6,137.5445,457.6,139.1445,456,137.5445" style="stroke:#181818;stroke-width:0.4000000000000001;"/><text fill="#000000" font-family="sans-serif" font-size="5.2" font-weight="bold" lengthAdjust="spacing" textLength="10" x="456" y="130.2395">22.7</text><text fill="#000000" font-family="sans-serif" font-size="5.2" lengthAdjust="spacing" textLength="23.6" x="467.6" y="130.2395">getEmail()</text><polygon fill="#181818" points="661.6,150.4609,665.6,152.0609,661.6,153.6609,663.2,152.0609" style="stroke:#181818;stroke-width:0.4000000000000001;"/><line style="stroke:#181818;stroke-width:0.4000000000000001;" x1="453.2" x2="664" y1="152.0609" y2="152.0609"/><text fill="#000000" font-family="sans-serif" font-size="5.2" font-weight="bold" lengthAdjust="spacing" textLength="10" x="456" y="149.9559">22.8</text><text fill="#000000" font-family="sans-serif" font-size="5.2" lengthAdjust="spacing" textLength="70" x="467.6" y="149.9559">getProperty(key, defaultValue)</text><polygon fill="#181818" points="457.6,162.9773,453.6,164.5773,457.6,166.1773,456,164.5773" style="stroke:#181818;stroke-width:0.4000000000000001;"/><line style="stroke:#181818;stroke-width:0.4000000000000001;stroke-dasharray:2.0,2.0;" x1="455.2" x2="668" y1="164.5773" y2="164.5773"/><text fill="#000000" font-family="sans-serif" font-size="5.2" font-weight="bold" lengthAdjust="spacing" textLength="10" x="460" y="162.4723">22.9</text><text fill="#000000" font-family="sans-serif" font-size="5.2" lengthAdjust="spacing" textLength="29.2" x="471.6" y="162.4723">emailService</text><line style="stroke:#181818;stroke-width:0.4000000000000001;stroke-dasharray:2.0,2.0;" x1="453.2" x2="470" y1="179.0938" y2="179.0938"/><line style="stroke:#181818;stroke-width:0.4000000000000001;stroke-dasharray:2.0,2.0;" x1="470" x2="470" y1="179.0938" y2="184.2938"/><line style="stroke:#181818;stroke-width:0.4000000000000001;stroke-dasharray:2.0,2.0;" x1="451.2" x2="470" y1="184.2938" y2="184.2938"/><polygon fill="#181818" points="455.2,182.6938,451.2,184.2938,455.2,185.8938,453.6,184.2938" style="stroke:#181818;stroke-width:0.4000000000000001;"/><text fill="#000000" font-family="sans-serif" font-size="5.2" font-weight="bold" lengthAdjust="spacing" textLength="12.8" x="456" y="176.9887">22.10</text><text fill="#000000" font-family="sans-serif" font-size="5.2" lengthAdjust="spacing" textLength="29.2" x="470.4" y="176.9887">emailService</text><path d="M417.8,188.2938 L443.8,188.2938 L443.8,192.0102 L439.8,196.0102 L417.8,196.0102 L417.8,188.2938 " fill="#EEEEEE" style="stroke:#000000;stroke-width:0.6000000000000001;"/><rect fill="none" height="68.182" style="stroke:#000000;stroke-width:0.6000000000000001;" width="252.6" x="417.8" y="188.2938"/><text fill="#000000" font-family="sans-serif" font-size="5.2" font-weight="bold" lengthAdjust="spacing" textLength="8" x="423.8" y="194.3051">opt</text><text fill="#000000" font-family="sans-serif" font-size="4.4" font-weight="bold" lengthAdjust="spacing" textLength="63.2" x="449.8" y="193.8418">[Email service is Dei Service]</text><polygon fill="#181818" points="548,203.7266,552,205.3266,548,206.9266,549.6,205.3266" style="stroke:#181818;stroke-width:0.4000000000000001;"/><line style="stroke:#181818;stroke-width:0.4000000000000001;" x1="451.2" x2="550.4" y1="205.3266" y2="205.3266"/><text fill="#000000" font-family="sans-serif" font-size="5.2" font-weight="bold" lengthAdjust="spacing" textLength="12.8" x="454" y="203.2215">22.11</text><text fill="#000000" font-family="sans-serif" font-size="5.2" lengthAdjust="spacing" textLength="79.6" x="468.4" y="203.2215">sendEmail(from, to, subject, body)</text><line style="stroke:#181818;stroke-width:0.4000000000000001;" x1="556.8" x2="575.6" y1="215.843" y2="215.843"/><line style="stroke:#181818;stroke-width:0.4000000000000001;" x1="575.6" x2="575.6" y1="215.843" y2="221.043"/><line style="stroke:#181818;stroke-width:0.4000000000000001;" x1="559.2" x2="575.6" y1="221.043" y2="221.043"/><polygon fill="#181818" points="563.2,219.443,559.2,221.043,563.2,222.643,561.6,221.043" style="stroke:#181818;stroke-width:0.4000000000000001;"/><text fill="#000000" font-family="sans-serif" font-size="5.2" font-weight="bold" lengthAdjust="spacing" textLength="12.8" x="561.6" y="213.7379">22.12</text><text fill="#000000" font-family="sans-serif" font-size="5.2" lengthAdjust="spacing" textLength="89.6" x="576" y="213.7379">writeToFile(file, from, to, subject, body)</text><line style="stroke:#181818;stroke-width:0.4000000000000001;stroke-dasharray:2.0,2.0;" x1="558.8" x2="575.6" y1="237.5594" y2="237.5594"/><line style="stroke:#181818;stroke-width:0.4000000000000001;stroke-dasharray:2.0,2.0;" x1="575.6" x2="575.6" y1="237.5594" y2="242.7594"/><line style="stroke:#181818;stroke-width:0.4000000000000001;stroke-dasharray:2.0,2.0;" x1="556.8" x2="575.6" y1="242.7594" y2="242.7594"/><polygon fill="#181818" points="560.8,241.1594,556.8,242.7594,560.8,244.3594,559.2,242.7594" style="stroke:#181818;stroke-width:0.4000000000000001;"/><text fill="#000000" font-family="sans-serif" font-size="5.2" font-weight="bold" lengthAdjust="spacing" textLength="12.8" x="561.6" y="235.4543">22.13</text><text fill="#000000" font-family="sans-serif" font-size="5.2" lengthAdjust="spacing" textLength="1.6" x="576" y="235.4543">&#160;</text><polygon fill="#181818" points="455.6,251.6758,451.6,253.2758,455.6,254.8758,454,253.2758" style="stroke:#181818;stroke-width:0.4000000000000001;"/><line style="stroke:#181818;stroke-width:0.4000000000000001;stroke-dasharray:2.0,2.0;" x1="453.2" x2="554.4" y1="253.2758" y2="253.2758"/><text fill="#000000" font-family="sans-serif" font-size="5.2" font-weight="bold" lengthAdjust="spacing" textLength="12.8" x="458" y="251.1707">22.14</text><text fill="#000000" font-family="sans-serif" font-size="5.2" lengthAdjust="spacing" textLength="1.6" x="472.4" y="251.1707">&#160;</text><polygon fill="#181818" points="392,266.9922,388,268.5922,392,270.1922,390.4,268.5922" style="stroke:#181818;stroke-width:0.4000000000000001;"/><line style="stroke:#181818;stroke-width:0.4000000000000001;stroke-dasharray:2.0,2.0;" x1="389.6" x2="448.8" y1="268.5922" y2="268.5922"/><text fill="#000000" font-family="sans-serif" font-size="5.2" font-weight="bold" lengthAdjust="spacing" textLength="12.8" x="394.4" y="266.4871">22.15</text><text fill="#000000" font-family="sans-serif" font-size="5.2" lengthAdjust="spacing" textLength="12.4" x="408.8" y="266.4871">email</text><polygon fill="#181818" points="202.4,279.5086,198.4,281.1086,202.4,282.7086,200.8,281.1086" style="stroke:#181818;stroke-width:0.4000000000000001;"/><line style="stroke:#181818;stroke-width:0.4000000000000001;stroke-dasharray:2.0,2.0;" x1="200" x2="385.2" y1="281.1086" y2="281.1086"/><text fill="#000000" font-family="sans-serif" font-size="5.2" font-weight="bold" lengthAdjust="spacing" textLength="12.8" x="204.8" y="279.0035">22.16</text><text fill="#000000" font-family="sans-serif" font-size="5.2" lengthAdjust="spacing" textLength="1.6" x="219.2" y="279.0035">&#160;</text><polygon fill="#181818" points="4.4,294.825,0.4,296.425,4.4,298.025,2.8,296.425" style="stroke:#181818;stroke-width:0.4000000000000001;"/><line style="stroke:#181818;stroke-width:0.4000000000000001;stroke-dasharray:2.0,2.0;" x1="2" x2="195.6" y1="296.425" y2="296.425"/><text fill="#000000" font-family="sans-serif" font-size="5.2" font-weight="bold" lengthAdjust="spacing" textLength="5.6" x="6.8" y="294.3199">23</text><text fill="#000000" font-family="sans-serif" font-size="5.2" lengthAdjust="spacing" textLength="1.6" x="14" y="294.3199">&#160;</text><!--SRC=[jLLDZvim4BtxLupsb4YaKhStL5Mgiksfgge6zRGN1oR4ZR6HRNR5lwynD1XY2DcqFX1vF3FlPJxrYOcIAbf08OLCZqeM24PLIFJvfQJfYUQuCpL7K9WQAdBkA-WZpUGh4paSADT8Y1KRbhAI2WCFyMUjMIuIfCLM2gCavwWUW6hO9Z-_3NLJ-qZtKb4ZrRE8jzwrjV048vGl1MLyX-g5fUXqqHEC6PKbPoarJ8eTMdPIE8jBSGYZTpvwVKBcusVdwr2lLBACdyKF-uDMZDffzrT2Q6Mag8ezAdXy99jFBb0nQ1HPSaH78f5DF5UvBjmr0Zzo0T5tMc04QCDVhqS0xzuJcXhsGWss6G5xSYMh4dOM4PmtC78OVASrFeqvD7mzpHXoDCx7QXqqwi6l-_SqO7CEJ9kCa466jtYVOjy4xx-H5zRvVTp_ylOBlgiMwGB_bN5yOwbC_jz1TmNv-neDlSlkwakZKxiMv4231WsQSwbxZSG4-fiPJBFeczsXTzTwTS8wida_q8gRNvHNk9vrVcRb3uyvWrxF5M0e68EypldoodC9V2WGzr3mu6_9YInDDz1qLvbCWntSC5lAqvdiXtpRSMqX7UmQZUp8Z41N-zzsOqQmbrczeBwyfN4b-inhBP_5gs864-bw_c0_4TpCvcv6GqfBosW9qWWbaFf_16Hp6NwSAEJXy5sqaPRKxN28Tak3p3YzdClD3dVhtDtyrV_1IJvkDkqAYOc_SXeSyWS0]--></g></svg>