<?xml version="1.0" encoding="us-ascii" standalone="no"?><svg xmlns="http://www.w3.org/2000/svg" xmlns:xlink="http://www.w3.org/1999/xlink" contentStyleType="text/css" height="1182px" preserveAspectRatio="none" style="width:2363px;height:1182px;background:#FFFFFF;" version="1.1" viewBox="0 0 2363 1182" width="2363px" zoomAndPan="magnify"><defs/><g><!--class AssignTeamUI--><g id="elem_AssignTeamUI"><rect codeLine="11" fill="#F1F1F1" height="48" id="AssignTeamUI" rx="2.5" ry="2.5" style="stroke:#181818;stroke-width:0.5;" width="122" x="686" y="7"/><ellipse cx="701" cy="23" fill="#ADD1B2" rx="11" ry="11" style="stroke:#181818;stroke-width:1.0;"/><path d="M703.7656,18.875 Q703.9219,18.6563 704.1094,18.5469 Q704.2969,18.4375 704.5156,18.4375 Q704.8906,18.4375 705.125,18.7031 Q705.3594,18.9531 705.3594,19.5625 L705.3594,21.0156 Q705.3594,21.625 705.125,21.8906 Q704.8906,22.1563 704.5156,22.1563 Q704.1719,22.1563 703.9688,21.9531 Q703.7656,21.7656 703.6563,21.25 Q703.6094,20.8906 703.4219,20.7031 Q703.0938,20.3281 702.4844,20.1094 Q701.875,19.8906 701.25,19.8906 Q700.4844,19.8906 699.8438,20.2188 Q699.2188,20.5469 698.7188,21.2969 Q698.2344,22.0469 698.2344,23.0781 L698.2344,24.1719 Q698.2344,25.4063 699.125,26.2344 Q700.0156,27.0469 701.6094,27.0469 Q702.5469,27.0469 703.2031,26.7969 Q703.5938,26.6406 704.0156,26.2031 Q704.2813,25.9375 704.4219,25.8594 Q704.5781,25.7813 704.7813,25.7813 Q705.1094,25.7813 705.3594,26.0469 Q705.625,26.2969 705.625,26.6406 Q705.625,26.9844 705.2813,27.3906 Q704.7813,27.9688 703.9844,28.2969 Q702.9063,28.75 701.6094,28.75 Q700.0938,28.75 698.8906,28.125 Q697.9063,27.625 697.2188,26.5625 Q696.5313,25.4844 696.5313,24.2031 L696.5313,23.0469 Q696.5313,21.7188 697.1406,20.5781 Q697.7656,19.4219 698.8594,18.8125 Q699.9531,18.1875 701.1875,18.1875 Q701.9219,18.1875 702.5625,18.3594 Q703.2188,18.5156 703.7656,18.875 Z " fill="#000000"/><text fill="#000000" font-family="sans-serif" font-size="14" lengthAdjust="spacing" textLength="90" x="715" y="28.7969">AssignTeamUI</text><line style="stroke:#181818;stroke-width:0.5;" x1="687" x2="807" y1="39" y2="39"/><line style="stroke:#181818;stroke-width:0.5;" x1="687" x2="807" y1="47" y2="47"/></g><!--class AssignTeamController--><g id="elem_AssignTeamController"><rect codeLine="14" fill="#F1F1F1" height="196.9688" id="AssignTeamController" rx="2.5" ry="2.5" style="stroke:#181818;stroke-width:0.5;" width="443" x="525.5" y="116"/><ellipse cx="672.75" cy="132" fill="#ADD1B2" rx="11" ry="11" style="stroke:#181818;stroke-width:1.0;"/><path d="M675.5156,127.875 Q675.6719,127.6563 675.8594,127.5469 Q676.0469,127.4375 676.2656,127.4375 Q676.6406,127.4375 676.875,127.7031 Q677.1094,127.9531 677.1094,128.5625 L677.1094,130.0156 Q677.1094,130.625 676.875,130.8906 Q676.6406,131.1563 676.2656,131.1563 Q675.9219,131.1563 675.7188,130.9531 Q675.5156,130.7656 675.4063,130.25 Q675.3594,129.8906 675.1719,129.7031 Q674.8438,129.3281 674.2344,129.1094 Q673.625,128.8906 673,128.8906 Q672.2344,128.8906 671.5938,129.2188 Q670.9688,129.5469 670.4688,130.2969 Q669.9844,131.0469 669.9844,132.0781 L669.9844,133.1719 Q669.9844,134.4063 670.875,135.2344 Q671.7656,136.0469 673.3594,136.0469 Q674.2969,136.0469 674.9531,135.7969 Q675.3438,135.6406 675.7656,135.2031 Q676.0313,134.9375 676.1719,134.8594 Q676.3281,134.7813 676.5313,134.7813 Q676.8594,134.7813 677.1094,135.0469 Q677.375,135.2969 677.375,135.6406 Q677.375,135.9844 677.0313,136.3906 Q676.5313,136.9688 675.7344,137.2969 Q674.6563,137.75 673.3594,137.75 Q671.8438,137.75 670.6406,137.125 Q669.6563,136.625 668.9688,135.5625 Q668.2813,134.4844 668.2813,133.2031 L668.2813,132.0469 Q668.2813,130.7188 668.8906,129.5781 Q669.5156,128.4219 670.6094,127.8125 Q671.7031,127.1875 672.9375,127.1875 Q673.6719,127.1875 674.3125,127.3594 Q674.9688,127.5156 675.5156,127.875 Z " fill="#000000"/><text fill="#000000" font-family="sans-serif" font-size="14" lengthAdjust="spacing" textLength="140" x="693.25" y="137.7969">AssignTeamController</text><line style="stroke:#181818;stroke-width:0.5;" x1="526.5" x2="967.5" y1="148" y2="148"/><line style="stroke:#181818;stroke-width:0.5;" x1="526.5" x2="967.5" y1="156" y2="156"/><text fill="#000000" font-family="sans-serif" font-size="14" lengthAdjust="spacing" textLength="431" x="531.5" y="175.1074">+AssignTeamController(agenda, toDoList, authenticationRepository)</text><text fill="#000000" font-family="sans-serif" font-size="14" lengthAdjust="spacing" textLength="298" x="531.5" y="193.7285">+assignTeamToEntry(agendaIndex, teamIndex)</text><text fill="#000000" font-family="sans-serif" font-size="14" lengthAdjust="spacing" textLength="198" x="531.5" y="212.3496">-getEntryByIndex(agendaIndex)</text><text fill="#000000" font-family="sans-serif" font-size="14" lengthAdjust="spacing" textLength="184" x="531.5" y="230.9707">-getTeamByIndex(teamIndex)</text><text fill="#000000" font-family="sans-serif" font-size="14" lengthAdjust="spacing" textLength="134" x="531.5" y="249.5918">+getEntriesListDTO()</text><text fill="#000000" font-family="sans-serif" font-size="14" lengthAdjust="spacing" textLength="133" x="531.5" y="268.2129">+getTeamsListDTO()</text><text fill="#000000" font-family="sans-serif" font-size="14" lengthAdjust="spacing" textLength="367" x="531.5" y="286.834">-sendTheEmailToTeam(from, to, nameCollaborator, entry)</text><text fill="#000000" font-family="sans-serif" font-size="14" lengthAdjust="spacing" textLength="149" x="531.5" y="305.4551">-getGSMFromSession()</text></g><!--class Agenda--><g id="elem_Agenda"><rect codeLine="25" fill="#F1F1F1" height="66.6211" id="Agenda" rx="2.5" ry="2.5" style="stroke:#181818;stroke-width:0.5;" width="213" x="41.5" y="649.5"/><ellipse cx="119.25" cy="665.5" fill="#ADD1B2" rx="11" ry="11" style="stroke:#181818;stroke-width:1.0;"/><path d="M122.0156,661.375 Q122.1719,661.1563 122.3594,661.0469 Q122.5469,660.9375 122.7656,660.9375 Q123.1406,660.9375 123.375,661.2031 Q123.6094,661.4531 123.6094,662.0625 L123.6094,663.5156 Q123.6094,664.125 123.375,664.3906 Q123.1406,664.6563 122.7656,664.6563 Q122.4219,664.6563 122.2188,664.4531 Q122.0156,664.2656 121.9063,663.75 Q121.8594,663.3906 121.6719,663.2031 Q121.3438,662.8281 120.7344,662.6094 Q120.125,662.3906 119.5,662.3906 Q118.7344,662.3906 118.0938,662.7188 Q117.4688,663.0469 116.9688,663.7969 Q116.4844,664.5469 116.4844,665.5781 L116.4844,666.6719 Q116.4844,667.9063 117.375,668.7344 Q118.2656,669.5469 119.8594,669.5469 Q120.7969,669.5469 121.4531,669.2969 Q121.8438,669.1406 122.2656,668.7031 Q122.5313,668.4375 122.6719,668.3594 Q122.8281,668.2813 123.0313,668.2813 Q123.3594,668.2813 123.6094,668.5469 Q123.875,668.7969 123.875,669.1406 Q123.875,669.4844 123.5313,669.8906 Q123.0313,670.4688 122.2344,670.7969 Q121.1563,671.25 119.8594,671.25 Q118.3438,671.25 117.1406,670.625 Q116.1563,670.125 115.4688,669.0625 Q114.7813,667.9844 114.7813,666.7031 L114.7813,665.5469 Q114.7813,664.2188 115.3906,663.0781 Q116.0156,661.9219 117.1094,661.3125 Q118.2031,660.6875 119.4375,660.6875 Q120.1719,660.6875 120.8125,660.8594 Q121.4688,661.0156 122.0156,661.375 Z " fill="#000000"/><text fill="#000000" font-family="sans-serif" font-size="14" lengthAdjust="spacing" textLength="49" x="139.75" y="671.2969">Agenda</text><line style="stroke:#181818;stroke-width:0.5;" x1="42.5" x2="253.5" y1="681.5" y2="681.5"/><line style="stroke:#181818;stroke-width:0.5;" x1="42.5" x2="253.5" y1="689.5" y2="689.5"/><text fill="#000000" font-family="sans-serif" font-size="14" lengthAdjust="spacing" textLength="201" x="47.5" y="708.6074">+getEntryByIndex(agendaIndex)</text></g><!--class Entry--><g id="elem_Entry"><rect codeLine="29" fill="#F1F1F1" height="178.3477" id="Entry" rx="2.5" ry="2.5" style="stroke:#181818;stroke-width:0.5;" width="308" x="7" y="851"/><ellipse cx="140.25" cy="867" fill="#ADD1B2" rx="11" ry="11" style="stroke:#181818;stroke-width:1.0;"/><path d="M143.0156,862.875 Q143.1719,862.6563 143.3594,862.5469 Q143.5469,862.4375 143.7656,862.4375 Q144.1406,862.4375 144.375,862.7031 Q144.6094,862.9531 144.6094,863.5625 L144.6094,865.0156 Q144.6094,865.625 144.375,865.8906 Q144.1406,866.1563 143.7656,866.1563 Q143.4219,866.1563 143.2188,865.9531 Q143.0156,865.7656 142.9063,865.25 Q142.8594,864.8906 142.6719,864.7031 Q142.3438,864.3281 141.7344,864.1094 Q141.125,863.8906 140.5,863.8906 Q139.7344,863.8906 139.0938,864.2188 Q138.4688,864.5469 137.9688,865.2969 Q137.4844,866.0469 137.4844,867.0781 L137.4844,868.1719 Q137.4844,869.4063 138.375,870.2344 Q139.2656,871.0469 140.8594,871.0469 Q141.7969,871.0469 142.4531,870.7969 Q142.8438,870.6406 143.2656,870.2031 Q143.5313,869.9375 143.6719,869.8594 Q143.8281,869.7813 144.0313,869.7813 Q144.3594,869.7813 144.6094,870.0469 Q144.875,870.2969 144.875,870.6406 Q144.875,870.9844 144.5313,871.3906 Q144.0313,871.9688 143.2344,872.2969 Q142.1563,872.75 140.8594,872.75 Q139.3438,872.75 138.1406,872.125 Q137.1563,871.625 136.4688,870.5625 Q135.7813,869.4844 135.7813,868.2031 L135.7813,867.0469 Q135.7813,865.7188 136.3906,864.5781 Q137.0156,863.4219 138.1094,862.8125 Q139.2031,862.1875 140.4375,862.1875 Q141.1719,862.1875 141.8125,862.3594 Q142.4688,862.5156 143.0156,862.875 Z " fill="#000000"/><text fill="#000000" font-family="sans-serif" font-size="14" lengthAdjust="spacing" textLength="33" x="160.75" y="872.7969">Entry</text><line style="stroke:#181818;stroke-width:0.5;" x1="8" x2="314" y1="883" y2="883"/><text fill="#000000" font-family="sans-serif" font-size="14" lengthAdjust="spacing" textLength="116" x="13" y="902.1074">-Date startingDate</text><text fill="#000000" font-family="sans-serif" font-size="14" lengthAdjust="spacing" textLength="136" x="13" y="920.7285">-AgendaStatus status</text><text fill="#000000" font-family="sans-serif" font-size="14" lengthAdjust="spacing" textLength="66" x="13" y="939.3496">-Task task</text><text fill="#000000" font-family="sans-serif" font-size="14" lengthAdjust="spacing" textLength="296" x="13" y="957.9707">-GreenSpacesManager greenSpacesManager;</text><text fill="#000000" font-family="sans-serif" font-size="14" lengthAdjust="spacing" textLength="190" x="13" y="976.5918">-List&lt;Vehicle&gt; vehiclesAssign;</text><line style="stroke:#181818;stroke-width:0.5;" x1="8" x2="314" y1="984.1055" y2="984.1055"/><text fill="#000000" font-family="sans-serif" font-size="14" lengthAdjust="spacing" textLength="162" x="13" y="1003.2129">+Entry(startingDate, task)</text><text fill="#000000" font-family="sans-serif" font-size="14" lengthAdjust="spacing" textLength="168" x="13" y="1021.834">+assignTeam(teamAssign)</text></g><!--class TeamRepository--><g id="elem_TeamRepository"><rect codeLine="39" fill="#F1F1F1" height="66.6211" id="TeamRepository" rx="2.5" ry="2.5" style="stroke:#181818;stroke-width:0.5;" width="199" x="289.5" y="649.5"/><ellipse cx="332.85" cy="665.5" fill="#ADD1B2" rx="11" ry="11" style="stroke:#181818;stroke-width:1.0;"/><path d="M335.6156,661.375 Q335.7719,661.1563 335.9594,661.0469 Q336.1469,660.9375 336.3656,660.9375 Q336.7406,660.9375 336.975,661.2031 Q337.2094,661.4531 337.2094,662.0625 L337.2094,663.5156 Q337.2094,664.125 336.975,664.3906 Q336.7406,664.6563 336.3656,664.6563 Q336.0219,664.6563 335.8188,664.4531 Q335.6156,664.2656 335.5063,663.75 Q335.4594,663.3906 335.2719,663.2031 Q334.9438,662.8281 334.3344,662.6094 Q333.725,662.3906 333.1,662.3906 Q332.3344,662.3906 331.6938,662.7188 Q331.0688,663.0469 330.5688,663.7969 Q330.0844,664.5469 330.0844,665.5781 L330.0844,666.6719 Q330.0844,667.9063 330.975,668.7344 Q331.8656,669.5469 333.4594,669.5469 Q334.3969,669.5469 335.0531,669.2969 Q335.4438,669.1406 335.8656,668.7031 Q336.1313,668.4375 336.2719,668.3594 Q336.4281,668.2813 336.6313,668.2813 Q336.9594,668.2813 337.2094,668.5469 Q337.475,668.7969 337.475,669.1406 Q337.475,669.4844 337.1313,669.8906 Q336.6313,670.4688 335.8344,670.7969 Q334.7563,671.25 333.4594,671.25 Q331.9438,671.25 330.7406,670.625 Q329.7563,670.125 329.0688,669.0625 Q328.3813,667.9844 328.3813,666.7031 L328.3813,665.5469 Q328.3813,664.2188 328.9906,663.0781 Q329.6156,661.9219 330.7094,661.3125 Q331.8031,660.6875 333.0375,660.6875 Q333.7719,660.6875 334.4125,660.8594 Q335.0688,661.0156 335.6156,661.375 Z " fill="#000000"/><text fill="#000000" font-family="sans-serif" font-size="14" lengthAdjust="spacing" textLength="104" x="353.15" y="671.2969">TeamRepository</text><line style="stroke:#181818;stroke-width:0.5;" x1="290.5" x2="487.5" y1="681.5" y2="681.5"/><line style="stroke:#181818;stroke-width:0.5;" x1="290.5" x2="487.5" y1="689.5" y2="689.5"/><text fill="#000000" font-family="sans-serif" font-size="14" lengthAdjust="spacing" textLength="187" x="295.5" y="708.6074">+getTeamByIndex(teamIndex)</text></g><!--class Team--><g id="elem_Team"><rect codeLine="43" fill="#F1F1F1" height="85.2422" id="Team" rx="2.5" ry="2.5" style="stroke:#181818;stroke-width:0.5;" width="219" x="158.5" y="1090"/><ellipse cx="245.75" cy="1106" fill="#ADD1B2" rx="11" ry="11" style="stroke:#181818;stroke-width:1.0;"/><path d="M248.5156,1101.875 Q248.6719,1101.6563 248.8594,1101.5469 Q249.0469,1101.4375 249.2656,1101.4375 Q249.6406,1101.4375 249.875,1101.7031 Q250.1094,1101.9531 250.1094,1102.5625 L250.1094,1104.0156 Q250.1094,1104.625 249.875,1104.8906 Q249.6406,1105.1563 249.2656,1105.1563 Q248.9219,1105.1563 248.7188,1104.9531 Q248.5156,1104.7656 248.4063,1104.25 Q248.3594,1103.8906 248.1719,1103.7031 Q247.8438,1103.3281 247.2344,1103.1094 Q246.625,1102.8906 246,1102.8906 Q245.2344,1102.8906 244.5938,1103.2188 Q243.9688,1103.5469 243.4688,1104.2969 Q242.9844,1105.0469 242.9844,1106.0781 L242.9844,1107.1719 Q242.9844,1108.4063 243.875,1109.2344 Q244.7656,1110.0469 246.3594,1110.0469 Q247.2969,1110.0469 247.9531,1109.7969 Q248.3438,1109.6406 248.7656,1109.2031 Q249.0313,1108.9375 249.1719,1108.8594 Q249.3281,1108.7813 249.5313,1108.7813 Q249.8594,1108.7813 250.1094,1109.0469 Q250.375,1109.2969 250.375,1109.6406 Q250.375,1109.9844 250.0313,1110.3906 Q249.5313,1110.9688 248.7344,1111.2969 Q247.6563,1111.75 246.3594,1111.75 Q244.8438,1111.75 243.6406,1111.125 Q242.6563,1110.625 241.9688,1109.5625 Q241.2813,1108.4844 241.2813,1107.2031 L241.2813,1106.0469 Q241.2813,1104.7188 241.8906,1103.5781 Q242.5156,1102.4219 243.6094,1101.8125 Q244.7031,1101.1875 245.9375,1101.1875 Q246.6719,1101.1875 247.3125,1101.3594 Q247.9688,1101.5156 248.5156,1101.875 Z " fill="#000000"/><text fill="#000000" font-family="sans-serif" font-size="14" lengthAdjust="spacing" textLength="36" x="266.25" y="1111.7969">Team</text><line style="stroke:#181818;stroke-width:0.5;" x1="159.5" x2="376.5" y1="1122" y2="1122"/><text fill="#000000" font-family="sans-serif" font-size="14" lengthAdjust="spacing" textLength="207" x="164.5" y="1141.1074">-List&lt;Collaborator&gt; collaborators</text><line style="stroke:#181818;stroke-width:0.5;" x1="159.5" x2="376.5" y1="1148.6211" y2="1148.6211"/><text fill="#000000" font-family="sans-serif" font-size="14" lengthAdjust="spacing" textLength="128" x="164.5" y="1167.7285">Team(collaborators)</text></g><!--class Repositories--><g id="elem_Repositories"><rect codeLine="48" fill="#F1F1F1" height="141.1055" id="Repositories" rx="2.5" ry="2.5" style="stroke:#181818;stroke-width:0.5;" width="208" x="227" y="392"/><ellipse cx="287.25" cy="408" fill="#ADD1B2" rx="11" ry="11" style="stroke:#181818;stroke-width:1.0;"/><path d="M290.0156,403.875 Q290.1719,403.6563 290.3594,403.5469 Q290.5469,403.4375 290.7656,403.4375 Q291.1406,403.4375 291.375,403.7031 Q291.6094,403.9531 291.6094,404.5625 L291.6094,406.0156 Q291.6094,406.625 291.375,406.8906 Q291.1406,407.1563 290.7656,407.1563 Q290.4219,407.1563 290.2188,406.9531 Q290.0156,406.7656 289.9063,406.25 Q289.8594,405.8906 289.6719,405.7031 Q289.3438,405.3281 288.7344,405.1094 Q288.125,404.8906 287.5,404.8906 Q286.7344,404.8906 286.0938,405.2188 Q285.4688,405.5469 284.9688,406.2969 Q284.4844,407.0469 284.4844,408.0781 L284.4844,409.1719 Q284.4844,410.4063 285.375,411.2344 Q286.2656,412.0469 287.8594,412.0469 Q288.7969,412.0469 289.4531,411.7969 Q289.8438,411.6406 290.2656,411.2031 Q290.5313,410.9375 290.6719,410.8594 Q290.8281,410.7813 291.0313,410.7813 Q291.3594,410.7813 291.6094,411.0469 Q291.875,411.2969 291.875,411.6406 Q291.875,411.9844 291.5313,412.3906 Q291.0313,412.9688 290.2344,413.2969 Q289.1563,413.75 287.8594,413.75 Q286.3438,413.75 285.1406,413.125 Q284.1563,412.625 283.4688,411.5625 Q282.7813,410.4844 282.7813,409.2031 L282.7813,408.0469 Q282.7813,406.7188 283.3906,405.5781 Q284.0156,404.4219 285.1094,403.8125 Q286.2031,403.1875 287.4375,403.1875 Q288.1719,403.1875 288.8125,403.3594 Q289.4688,403.5156 290.0156,403.875 Z " fill="#000000"/><text fill="#000000" font-family="sans-serif" font-size="14" lengthAdjust="spacing" textLength="79" x="307.75" y="413.7969">Repositories</text><line style="stroke:#181818;stroke-width:0.5;" x1="228" x2="434" y1="424" y2="424"/><line style="stroke:#181818;stroke-width:0.5;" x1="228" x2="434" y1="432" y2="432"/><text fill="#000000" font-family="sans-serif" font-size="14" lengthAdjust="spacing" textLength="94" x="233" y="451.1074">-Repositories()</text><text fill="#000000" font-family="sans-serif" font-size="14" lengthAdjust="spacing" textLength="182" x="233" y="469.7285">+getInstance() : Repositories</text><text fill="#000000" font-family="sans-serif" font-size="14" lengthAdjust="spacing" textLength="87" x="233" y="488.3496">+getAgenda()</text><text fill="#000000" font-family="sans-serif" font-size="14" lengthAdjust="spacing" textLength="142" x="233" y="506.9707">+getTeamRepository()</text><text fill="#000000" font-family="sans-serif" font-size="14" lengthAdjust="spacing" textLength="196" x="233" y="525.5918">+getAuthenticationRepository()</text></g><!--class AuthenticationRepository--><g id="elem_AuthenticationRepository"><rect codeLine="56" fill="#F1F1F1" height="66.6211" id="AuthenticationRepository" rx="2.5" ry="2.5" style="stroke:#181818;stroke-width:0.5;" width="190" x="524" y="649.5"/><ellipse cx="539" cy="665.5" fill="#ADD1B2" rx="11" ry="11" style="stroke:#181818;stroke-width:1.0;"/><path d="M541.7656,661.375 Q541.9219,661.1563 542.1094,661.0469 Q542.2969,660.9375 542.5156,660.9375 Q542.8906,660.9375 543.125,661.2031 Q543.3594,661.4531 543.3594,662.0625 L543.3594,663.5156 Q543.3594,664.125 543.125,664.3906 Q542.8906,664.6563 542.5156,664.6563 Q542.1719,664.6563 541.9688,664.4531 Q541.7656,664.2656 541.6563,663.75 Q541.6094,663.3906 541.4219,663.2031 Q541.0938,662.8281 540.4844,662.6094 Q539.875,662.3906 539.25,662.3906 Q538.4844,662.3906 537.8438,662.7188 Q537.2188,663.0469 536.7188,663.7969 Q536.2344,664.5469 536.2344,665.5781 L536.2344,666.6719 Q536.2344,667.9063 537.125,668.7344 Q538.0156,669.5469 539.6094,669.5469 Q540.5469,669.5469 541.2031,669.2969 Q541.5938,669.1406 542.0156,668.7031 Q542.2813,668.4375 542.4219,668.3594 Q542.5781,668.2813 542.7813,668.2813 Q543.1094,668.2813 543.3594,668.5469 Q543.625,668.7969 543.625,669.1406 Q543.625,669.4844 543.2813,669.8906 Q542.7813,670.4688 541.9844,670.7969 Q540.9063,671.25 539.6094,671.25 Q538.0938,671.25 536.8906,670.625 Q535.9063,670.125 535.2188,669.0625 Q534.5313,667.9844 534.5313,666.7031 L534.5313,665.5469 Q534.5313,664.2188 535.1406,663.0781 Q535.7656,661.9219 536.8594,661.3125 Q537.9531,660.6875 539.1875,660.6875 Q539.9219,660.6875 540.5625,660.8594 Q541.2188,661.0156 541.7656,661.375 Z " fill="#000000"/><text fill="#000000" font-family="sans-serif" font-size="14" lengthAdjust="spacing" textLength="158" x="553" y="671.2969">AuthenticationRepository</text><line style="stroke:#181818;stroke-width:0.5;" x1="525" x2="713" y1="681.5" y2="681.5"/><line style="stroke:#181818;stroke-width:0.5;" x1="525" x2="713" y1="689.5" y2="689.5"/><text fill="#000000" font-family="sans-serif" font-size="14" lengthAdjust="spacing" textLength="165" x="530" y="708.6074">+getCurrentUserSession()</text></g><!--class UserSession--><g id="elem_UserSession"><rect codeLine="60" fill="#F1F1F1" height="66.6211" id="UserSession" rx="2.5" ry="2.5" style="stroke:#181818;stroke-width:0.5;" width="111" x="563.5" y="906.5"/><ellipse cx="578.5" cy="922.5" fill="#ADD1B2" rx="11" ry="11" style="stroke:#181818;stroke-width:1.0;"/><path d="M581.2656,918.375 Q581.4219,918.1563 581.6094,918.0469 Q581.7969,917.9375 582.0156,917.9375 Q582.3906,917.9375 582.625,918.2031 Q582.8594,918.4531 582.8594,919.0625 L582.8594,920.5156 Q582.8594,921.125 582.625,921.3906 Q582.3906,921.6563 582.0156,921.6563 Q581.6719,921.6563 581.4688,921.4531 Q581.2656,921.2656 581.1563,920.75 Q581.1094,920.3906 580.9219,920.2031 Q580.5938,919.8281 579.9844,919.6094 Q579.375,919.3906 578.75,919.3906 Q577.9844,919.3906 577.3438,919.7188 Q576.7188,920.0469 576.2188,920.7969 Q575.7344,921.5469 575.7344,922.5781 L575.7344,923.6719 Q575.7344,924.9063 576.625,925.7344 Q577.5156,926.5469 579.1094,926.5469 Q580.0469,926.5469 580.7031,926.2969 Q581.0938,926.1406 581.5156,925.7031 Q581.7813,925.4375 581.9219,925.3594 Q582.0781,925.2813 582.2813,925.2813 Q582.6094,925.2813 582.8594,925.5469 Q583.125,925.7969 583.125,926.1406 Q583.125,926.4844 582.7813,926.8906 Q582.2813,927.4688 581.4844,927.7969 Q580.4063,928.25 579.1094,928.25 Q577.5938,928.25 576.3906,927.625 Q575.4063,927.125 574.7188,926.0625 Q574.0313,924.9844 574.0313,923.7031 L574.0313,922.5469 Q574.0313,921.2188 574.6406,920.0781 Q575.2656,918.9219 576.3594,918.3125 Q577.4531,917.6875 578.6875,917.6875 Q579.4219,917.6875 580.0625,917.8594 Q580.7188,918.0156 581.2656,918.375 Z " fill="#000000"/><text fill="#000000" font-family="sans-serif" font-size="14" lengthAdjust="spacing" textLength="79" x="592.5" y="928.2969">UserSession</text><line style="stroke:#181818;stroke-width:0.5;" x1="564.5" x2="673.5" y1="938.5" y2="938.5"/><line style="stroke:#181818;stroke-width:0.5;" x1="564.5" x2="673.5" y1="946.5" y2="946.5"/><text fill="#000000" font-family="sans-serif" font-size="14" lengthAdjust="spacing" textLength="78" x="569.5" y="965.6074">+getUserId()</text></g><!--class EmailService--><g id="elem_EmailService"><rect codeLine="64" fill="#F1F1F1" height="66.6211" id="EmailService" rx="2.5" ry="2.5" style="stroke:#181818;stroke-width:0.5;" width="344" x="927" y="429"/><ellipse cx="1054.25" cy="445" fill="#ADD1B2" rx="11" ry="11" style="stroke:#181818;stroke-width:1.0;"/><path d="M1057.0156,440.875 Q1057.1719,440.6563 1057.3594,440.5469 Q1057.5469,440.4375 1057.7656,440.4375 Q1058.1406,440.4375 1058.375,440.7031 Q1058.6094,440.9531 1058.6094,441.5625 L1058.6094,443.0156 Q1058.6094,443.625 1058.375,443.8906 Q1058.1406,444.1563 1057.7656,444.1563 Q1057.4219,444.1563 1057.2188,443.9531 Q1057.0156,443.7656 1056.9063,443.25 Q1056.8594,442.8906 1056.6719,442.7031 Q1056.3438,442.3281 1055.7344,442.1094 Q1055.125,441.8906 1054.5,441.8906 Q1053.7344,441.8906 1053.0938,442.2188 Q1052.4688,442.5469 1051.9688,443.2969 Q1051.4844,444.0469 1051.4844,445.0781 L1051.4844,446.1719 Q1051.4844,447.4063 1052.375,448.2344 Q1053.2656,449.0469 1054.8594,449.0469 Q1055.7969,449.0469 1056.4531,448.7969 Q1056.8438,448.6406 1057.2656,448.2031 Q1057.5313,447.9375 1057.6719,447.8594 Q1057.8281,447.7813 1058.0313,447.7813 Q1058.3594,447.7813 1058.6094,448.0469 Q1058.875,448.2969 1058.875,448.6406 Q1058.875,448.9844 1058.5313,449.3906 Q1058.0313,449.9688 1057.2344,450.2969 Q1056.1563,450.75 1054.8594,450.75 Q1053.3438,450.75 1052.1406,450.125 Q1051.1563,449.625 1050.4688,448.5625 Q1049.7813,447.4844 1049.7813,446.2031 L1049.7813,445.0469 Q1049.7813,443.7188 1050.3906,442.5781 Q1051.0156,441.4219 1052.1094,440.8125 Q1053.2031,440.1875 1054.4375,440.1875 Q1055.1719,440.1875 1055.8125,440.3594 Q1056.4688,440.5156 1057.0156,440.875 Z " fill="#000000"/><text fill="#000000" font-family="sans-serif" font-size="14" lengthAdjust="spacing" textLength="81" x="1074.75" y="450.7969">EmailService</text><line style="stroke:#181818;stroke-width:0.5;" x1="928" x2="1270" y1="461" y2="461"/><line style="stroke:#181818;stroke-width:0.5;" x1="928" x2="1270" y1="469" y2="469"/><text fill="#000000" font-family="sans-serif" font-size="14" lengthAdjust="spacing" textLength="332" x="933" y="488.1074">+sendToEmailFile(from, to, nameCollaborator, entry)</text></g><!--class ApplicationSession--><g id="elem_ApplicationSession"><rect codeLine="68" fill="#F1F1F1" height="85.2422" id="ApplicationSession" rx="2.5" ry="2.5" style="stroke:#181818;stroke-width:0.5;" width="151" x="749.5" y="640.5"/><ellipse cx="764.5" cy="656.5" fill="#ADD1B2" rx="11" ry="11" style="stroke:#181818;stroke-width:1.0;"/><path d="M767.2656,652.375 Q767.4219,652.1563 767.6094,652.0469 Q767.7969,651.9375 768.0156,651.9375 Q768.3906,651.9375 768.625,652.2031 Q768.8594,652.4531 768.8594,653.0625 L768.8594,654.5156 Q768.8594,655.125 768.625,655.3906 Q768.3906,655.6563 768.0156,655.6563 Q767.6719,655.6563 767.4688,655.4531 Q767.2656,655.2656 767.1563,654.75 Q767.1094,654.3906 766.9219,654.2031 Q766.5938,653.8281 765.9844,653.6094 Q765.375,653.3906 764.75,653.3906 Q763.9844,653.3906 763.3438,653.7188 Q762.7188,654.0469 762.2188,654.7969 Q761.7344,655.5469 761.7344,656.5781 L761.7344,657.6719 Q761.7344,658.9063 762.625,659.7344 Q763.5156,660.5469 765.1094,660.5469 Q766.0469,660.5469 766.7031,660.2969 Q767.0938,660.1406 767.5156,659.7031 Q767.7813,659.4375 767.9219,659.3594 Q768.0781,659.2813 768.2813,659.2813 Q768.6094,659.2813 768.8594,659.5469 Q769.125,659.7969 769.125,660.1406 Q769.125,660.4844 768.7813,660.8906 Q768.2813,661.4688 767.4844,661.7969 Q766.4063,662.25 765.1094,662.25 Q763.5938,662.25 762.3906,661.625 Q761.4063,661.125 760.7188,660.0625 Q760.0313,658.9844 760.0313,657.7031 L760.0313,656.5469 Q760.0313,655.2188 760.6406,654.0781 Q761.2656,652.9219 762.3594,652.3125 Q763.4531,651.6875 764.6875,651.6875 Q765.4219,651.6875 766.0625,651.8594 Q766.7188,652.0156 767.2656,652.375 Z " fill="#000000"/><text fill="#000000" font-family="sans-serif" font-size="14" lengthAdjust="spacing" textLength="119" x="778.5" y="662.2969">ApplicationSession</text><line style="stroke:#181818;stroke-width:0.5;" x1="750.5" x2="899.5" y1="672.5" y2="672.5"/><line style="stroke:#181818;stroke-width:0.5;" x1="750.5" x2="899.5" y1="680.5" y2="680.5"/><text fill="#000000" font-family="sans-serif" font-size="14" lengthAdjust="spacing" textLength="69" x="755.5" y="699.6074">-getEmail()</text><text fill="#000000" font-family="sans-serif" font-size="14" lengthAdjust="spacing" textLength="119" x="755.5" y="718.2285">+getEmailService()</text></g><!--class Email--><g id="elem_Email"><rect codeLine="73" fill="#F1F1F1" height="66.6211" id="Email" rx="2.5" ry="2.5" style="stroke:#181818;stroke-width:0.5;" width="235" x="949.5" y="906.5"/><ellipse cx="1045.75" cy="922.5" fill="#B4A7E5" rx="11" ry="11" style="stroke:#181818;stroke-width:1.0;"/><path d="M1046.7031,919.1406 L1046.7031,925.7969 L1048.4219,925.7969 Q1049.0313,925.7969 1049.2969,926.0313 Q1049.5625,926.2656 1049.5625,926.6563 Q1049.5625,927.0313 1049.2969,927.2656 Q1049.0313,927.5 1048.4219,927.5 L1043.2813,927.5 Q1042.6719,927.5 1042.4063,927.2656 Q1042.1406,927.0313 1042.1406,926.6406 Q1042.1406,926.2656 1042.4063,926.0313 Q1042.6719,925.7969 1043.2813,925.7969 L1045,925.7969 L1045,919.1406 L1043.2813,919.1406 Q1042.6719,919.1406 1042.4063,918.9063 Q1042.1406,918.6719 1042.1406,918.2813 Q1042.1406,917.9063 1042.4063,917.6719 Q1042.6719,917.4375 1043.2813,917.4375 L1048.4219,917.4375 Q1049.0313,917.4375 1049.2969,917.6719 Q1049.5625,917.9063 1049.5625,918.2813 Q1049.5625,918.6719 1049.2969,918.9063 Q1049.0313,919.1406 1048.4219,919.1406 L1046.7031,919.1406 Z " fill="#000000"/><text fill="#000000" font-family="sans-serif" font-size="14" font-style="italic" lengthAdjust="spacing" textLength="34" x="1066.25" y="928.2969">Email</text><line style="stroke:#181818;stroke-width:0.5;" x1="950.5" x2="1183.5" y1="938.5" y2="938.5"/><line style="stroke:#181818;stroke-width:0.5;" x1="950.5" x2="1183.5" y1="946.5" y2="946.5"/><text fill="#000000" font-family="sans-serif" font-size="14" lengthAdjust="spacing" textLength="223" x="955.5" y="965.6074">+sendEmail(from, to, subject, body)</text></g><!--class DeiService--><g id="elem_DeiService"><rect codeLine="77" fill="#F1F1F1" height="85.2422" id="DeiService" rx="2.5" ry="2.5" style="stroke:#181818;stroke-width:0.5;" width="262" x="936" y="640.5"/><ellipse cx="1028.75" cy="656.5" fill="#ADD1B2" rx="11" ry="11" style="stroke:#181818;stroke-width:1.0;"/><path d="M1031.5156,652.375 Q1031.6719,652.1563 1031.8594,652.0469 Q1032.0469,651.9375 1032.2656,651.9375 Q1032.6406,651.9375 1032.875,652.2031 Q1033.1094,652.4531 1033.1094,653.0625 L1033.1094,654.5156 Q1033.1094,655.125 1032.875,655.3906 Q1032.6406,655.6563 1032.2656,655.6563 Q1031.9219,655.6563 1031.7188,655.4531 Q1031.5156,655.2656 1031.4063,654.75 Q1031.3594,654.3906 1031.1719,654.2031 Q1030.8438,653.8281 1030.2344,653.6094 Q1029.625,653.3906 1029,653.3906 Q1028.2344,653.3906 1027.5938,653.7188 Q1026.9688,654.0469 1026.4688,654.7969 Q1025.9844,655.5469 1025.9844,656.5781 L1025.9844,657.6719 Q1025.9844,658.9063 1026.875,659.7344 Q1027.7656,660.5469 1029.3594,660.5469 Q1030.2969,660.5469 1030.9531,660.2969 Q1031.3438,660.1406 1031.7656,659.7031 Q1032.0313,659.4375 1032.1719,659.3594 Q1032.3281,659.2813 1032.5313,659.2813 Q1032.8594,659.2813 1033.1094,659.5469 Q1033.375,659.7969 1033.375,660.1406 Q1033.375,660.4844 1033.0313,660.8906 Q1032.5313,661.4688 1031.7344,661.7969 Q1030.6563,662.25 1029.3594,662.25 Q1027.8438,662.25 1026.6406,661.625 Q1025.6563,661.125 1024.9688,660.0625 Q1024.2813,658.9844 1024.2813,657.7031 L1024.2813,656.5469 Q1024.2813,655.2188 1024.8906,654.0781 Q1025.5156,652.9219 1026.6094,652.3125 Q1027.7031,651.6875 1028.9375,651.6875 Q1029.6719,651.6875 1030.3125,651.8594 Q1030.9688,652.0156 1031.5156,652.375 Z " fill="#000000"/><text fill="#000000" font-family="sans-serif" font-size="14" lengthAdjust="spacing" textLength="68" x="1049.25" y="662.2969">DeiService</text><line style="stroke:#181818;stroke-width:0.5;" x1="937" x2="1197" y1="672.5" y2="672.5"/><line style="stroke:#181818;stroke-width:0.5;" x1="937" x2="1197" y1="680.5" y2="680.5"/><text fill="#000000" font-family="sans-serif" font-size="14" lengthAdjust="spacing" textLength="223" x="942" y="699.6074">+sendEmail(from, to, subject, body)</text><text fill="#000000" font-family="sans-serif" font-size="14" lengthAdjust="spacing" textLength="250" x="942" y="718.2285">-writeToFile(file, from, to, subject, body)</text></g><!--class GmailService--><g id="elem_GmailService"><rect codeLine="82" fill="#F1F1F1" height="85.2422" id="GmailService" rx="2.5" ry="2.5" style="stroke:#181818;stroke-width:0.5;" width="262" x="1233" y="640.5"/><ellipse cx="1318.25" cy="656.5" fill="#ADD1B2" rx="11" ry="11" style="stroke:#181818;stroke-width:1.0;"/><path d="M1321.0156,652.375 Q1321.1719,652.1563 1321.3594,652.0469 Q1321.5469,651.9375 1321.7656,651.9375 Q1322.1406,651.9375 1322.375,652.2031 Q1322.6094,652.4531 1322.6094,653.0625 L1322.6094,654.5156 Q1322.6094,655.125 1322.375,655.3906 Q1322.1406,655.6563 1321.7656,655.6563 Q1321.4219,655.6563 1321.2188,655.4531 Q1321.0156,655.2656 1320.9063,654.75 Q1320.8594,654.3906 1320.6719,654.2031 Q1320.3438,653.8281 1319.7344,653.6094 Q1319.125,653.3906 1318.5,653.3906 Q1317.7344,653.3906 1317.0938,653.7188 Q1316.4688,654.0469 1315.9688,654.7969 Q1315.4844,655.5469 1315.4844,656.5781 L1315.4844,657.6719 Q1315.4844,658.9063 1316.375,659.7344 Q1317.2656,660.5469 1318.8594,660.5469 Q1319.7969,660.5469 1320.4531,660.2969 Q1320.8438,660.1406 1321.2656,659.7031 Q1321.5313,659.4375 1321.6719,659.3594 Q1321.8281,659.2813 1322.0313,659.2813 Q1322.3594,659.2813 1322.6094,659.5469 Q1322.875,659.7969 1322.875,660.1406 Q1322.875,660.4844 1322.5313,660.8906 Q1322.0313,661.4688 1321.2344,661.7969 Q1320.1563,662.25 1318.8594,662.25 Q1317.3438,662.25 1316.1406,661.625 Q1315.1563,661.125 1314.4688,660.0625 Q1313.7813,658.9844 1313.7813,657.7031 L1313.7813,656.5469 Q1313.7813,655.2188 1314.3906,654.0781 Q1315.0156,652.9219 1316.1094,652.3125 Q1317.2031,651.6875 1318.4375,651.6875 Q1319.1719,651.6875 1319.8125,651.8594 Q1320.4688,652.0156 1321.0156,652.375 Z " fill="#000000"/><text fill="#000000" font-family="sans-serif" font-size="14" lengthAdjust="spacing" textLength="83" x="1338.75" y="662.2969">GmailService</text><line style="stroke:#181818;stroke-width:0.5;" x1="1234" x2="1494" y1="672.5" y2="672.5"/><line style="stroke:#181818;stroke-width:0.5;" x1="1234" x2="1494" y1="680.5" y2="680.5"/><text fill="#000000" font-family="sans-serif" font-size="14" lengthAdjust="spacing" textLength="223" x="1239" y="699.6074">+sendEmail(from, to, subject, body)</text><text fill="#000000" font-family="sans-serif" font-size="14" lengthAdjust="spacing" textLength="250" x="1239" y="718.2285">-writeToFile(file, from, to, subject, body)</text></g><!--class EntryDto--><g id="elem_EntryDto"><rect codeLine="87" fill="#F1F1F1" height="178.3477" id="EntryDto" rx="2.5" ry="2.5" style="stroke:#181818;stroke-width:0.5;" width="572" x="1530" y="594"/><ellipse cx="1784.25" cy="610" fill="#ADD1B2" rx="11" ry="11" style="stroke:#181818;stroke-width:1.0;"/><path d="M1787.0156,605.875 Q1787.1719,605.6563 1787.3594,605.5469 Q1787.5469,605.4375 1787.7656,605.4375 Q1788.1406,605.4375 1788.375,605.7031 Q1788.6094,605.9531 1788.6094,606.5625 L1788.6094,608.0156 Q1788.6094,608.625 1788.375,608.8906 Q1788.1406,609.1563 1787.7656,609.1563 Q1787.4219,609.1563 1787.2188,608.9531 Q1787.0156,608.7656 1786.9063,608.25 Q1786.8594,607.8906 1786.6719,607.7031 Q1786.3438,607.3281 1785.7344,607.1094 Q1785.125,606.8906 1784.5,606.8906 Q1783.7344,606.8906 1783.0938,607.2188 Q1782.4688,607.5469 1781.9688,608.2969 Q1781.4844,609.0469 1781.4844,610.0781 L1781.4844,611.1719 Q1781.4844,612.4063 1782.375,613.2344 Q1783.2656,614.0469 1784.8594,614.0469 Q1785.7969,614.0469 1786.4531,613.7969 Q1786.8438,613.6406 1787.2656,613.2031 Q1787.5313,612.9375 1787.6719,612.8594 Q1787.8281,612.7813 1788.0313,612.7813 Q1788.3594,612.7813 1788.6094,613.0469 Q1788.875,613.2969 1788.875,613.6406 Q1788.875,613.9844 1788.5313,614.3906 Q1788.0313,614.9688 1787.2344,615.2969 Q1786.1563,615.75 1784.8594,615.75 Q1783.3438,615.75 1782.1406,615.125 Q1781.1563,614.625 1780.4688,613.5625 Q1779.7813,612.4844 1779.7813,611.2031 L1779.7813,610.0469 Q1779.7813,608.7188 1780.3906,607.5781 Q1781.0156,606.4219 1782.1094,605.8125 Q1783.2031,605.1875 1784.4375,605.1875 Q1785.1719,605.1875 1785.8125,605.3594 Q1786.4688,605.5156 1787.0156,605.875 Z " fill="#000000"/><text fill="#000000" font-family="sans-serif" font-size="14" lengthAdjust="spacing" textLength="55" x="1804.75" y="615.7969">EntryDto</text><line style="stroke:#181818;stroke-width:0.5;" x1="1531" x2="2101" y1="626" y2="626"/><text fill="#000000" font-family="sans-serif" font-size="14" lengthAdjust="spacing" textLength="116" x="1536" y="645.1074">-Date startingDate</text><text fill="#000000" font-family="sans-serif" font-size="14" lengthAdjust="spacing" textLength="136" x="1536" y="663.7285">-AgendaStatus status</text><text fill="#000000" font-family="sans-serif" font-size="14" lengthAdjust="spacing" textLength="66" x="1536" y="682.3496">-Task task</text><text fill="#000000" font-family="sans-serif" font-size="14" lengthAdjust="spacing" textLength="122" x="1536" y="700.9707">-Team teamAssign;</text><text fill="#000000" font-family="sans-serif" font-size="14" lengthAdjust="spacing" textLength="296" x="1536" y="719.5918">-GreenSpacesManager greenSpacesManager;</text><text fill="#000000" font-family="sans-serif" font-size="14" lengthAdjust="spacing" textLength="190" x="1536" y="738.2129">-List&lt;Vehicle&gt; vehiclesAssign;</text><line style="stroke:#181818;stroke-width:0.5;" x1="1531" x2="2101" y1="745.7266" y2="745.7266"/><text fill="#000000" font-family="sans-serif" font-size="14" lengthAdjust="spacing" textLength="560" x="1536" y="764.834">+EntryDto(startingDate, status, task, teamAssign, greenSpacesManager, vehiclesAssign)</text></g><!--class EntryMapper--><g id="elem_EntryMapper"><rect codeLine="97" fill="#F1F1F1" height="85.2422" id="EntryMapper" rx="2.5" ry="2.5" style="stroke:#181818;stroke-width:0.5;" width="159" x="1528.5" y="420"/><ellipse cx="1564.2" cy="436" fill="#ADD1B2" rx="11" ry="11" style="stroke:#181818;stroke-width:1.0;"/><path d="M1566.9656,431.875 Q1567.1219,431.6563 1567.3094,431.5469 Q1567.4969,431.4375 1567.7156,431.4375 Q1568.0906,431.4375 1568.325,431.7031 Q1568.5594,431.9531 1568.5594,432.5625 L1568.5594,434.0156 Q1568.5594,434.625 1568.325,434.8906 Q1568.0906,435.1563 1567.7156,435.1563 Q1567.3719,435.1563 1567.1688,434.9531 Q1566.9656,434.7656 1566.8563,434.25 Q1566.8094,433.8906 1566.6219,433.7031 Q1566.2938,433.3281 1565.6844,433.1094 Q1565.075,432.8906 1564.45,432.8906 Q1563.6844,432.8906 1563.0438,433.2188 Q1562.4188,433.5469 1561.9188,434.2969 Q1561.4344,435.0469 1561.4344,436.0781 L1561.4344,437.1719 Q1561.4344,438.4063 1562.325,439.2344 Q1563.2156,440.0469 1564.8094,440.0469 Q1565.7469,440.0469 1566.4031,439.7969 Q1566.7938,439.6406 1567.2156,439.2031 Q1567.4813,438.9375 1567.6219,438.8594 Q1567.7781,438.7813 1567.9813,438.7813 Q1568.3094,438.7813 1568.5594,439.0469 Q1568.825,439.2969 1568.825,439.6406 Q1568.825,439.9844 1568.4813,440.3906 Q1567.9813,440.9688 1567.1844,441.2969 Q1566.1063,441.75 1564.8094,441.75 Q1563.2938,441.75 1562.0906,441.125 Q1561.1063,440.625 1560.4188,439.5625 Q1559.7313,438.4844 1559.7313,437.2031 L1559.7313,436.0469 Q1559.7313,434.7188 1560.3406,433.5781 Q1560.9656,432.4219 1562.0594,431.8125 Q1563.1531,431.1875 1564.3875,431.1875 Q1565.1219,431.1875 1565.7625,431.3594 Q1566.4188,431.5156 1566.9656,431.875 Z " fill="#000000"/><text fill="#000000" font-family="sans-serif" font-size="14" lengthAdjust="spacing" textLength="81" x="1582.8" y="441.7969">EntryMapper</text><line style="stroke:#181818;stroke-width:0.5;" x1="1529.5" x2="1686.5" y1="452" y2="452"/><line style="stroke:#181818;stroke-width:0.5;" x1="1529.5" x2="1686.5" y1="460" y2="460"/><text fill="#000000" font-family="sans-serif" font-size="14" lengthAdjust="spacing" textLength="147" x="1534.5" y="479.1074">+toDTOList(entriesList)</text><text fill="#000000" font-family="sans-serif" font-size="14" lengthAdjust="spacing" textLength="129" x="1534.5" y="497.7285">+entryToDTO(entry)</text></g><!--class TeamDto--><g id="elem_TeamDto"><rect codeLine="102" fill="#F1F1F1" height="85.2422" id="TeamDto" rx="2.5" ry="2.5" style="stroke:#181818;stroke-width:0.5;" width="219" x="2137.5" y="640.5"/><ellipse cx="2213.75" cy="656.5" fill="#ADD1B2" rx="11" ry="11" style="stroke:#181818;stroke-width:1.0;"/><path d="M2216.5156,652.375 Q2216.6719,652.1563 2216.8594,652.0469 Q2217.0469,651.9375 2217.2656,651.9375 Q2217.6406,651.9375 2217.875,652.2031 Q2218.1094,652.4531 2218.1094,653.0625 L2218.1094,654.5156 Q2218.1094,655.125 2217.875,655.3906 Q2217.6406,655.6563 2217.2656,655.6563 Q2216.9219,655.6563 2216.7188,655.4531 Q2216.5156,655.2656 2216.4063,654.75 Q2216.3594,654.3906 2216.1719,654.2031 Q2215.8438,653.8281 2215.2344,653.6094 Q2214.625,653.3906 2214,653.3906 Q2213.2344,653.3906 2212.5938,653.7188 Q2211.9688,654.0469 2211.4688,654.7969 Q2210.9844,655.5469 2210.9844,656.5781 L2210.9844,657.6719 Q2210.9844,658.9063 2211.875,659.7344 Q2212.7656,660.5469 2214.3594,660.5469 Q2215.2969,660.5469 2215.9531,660.2969 Q2216.3438,660.1406 2216.7656,659.7031 Q2217.0313,659.4375 2217.1719,659.3594 Q2217.3281,659.2813 2217.5313,659.2813 Q2217.8594,659.2813 2218.1094,659.5469 Q2218.375,659.7969 2218.375,660.1406 Q2218.375,660.4844 2218.0313,660.8906 Q2217.5313,661.4688 2216.7344,661.7969 Q2215.6563,662.25 2214.3594,662.25 Q2212.8438,662.25 2211.6406,661.625 Q2210.6563,661.125 2209.9688,660.0625 Q2209.2813,658.9844 2209.2813,657.7031 L2209.2813,656.5469 Q2209.2813,655.2188 2209.8906,654.0781 Q2210.5156,652.9219 2211.6094,652.3125 Q2212.7031,651.6875 2213.9375,651.6875 Q2214.6719,651.6875 2215.3125,651.8594 Q2215.9688,652.0156 2216.5156,652.375 Z " fill="#000000"/><text fill="#000000" font-family="sans-serif" font-size="14" lengthAdjust="spacing" textLength="58" x="2234.25" y="662.2969">TeamDto</text><line style="stroke:#181818;stroke-width:0.5;" x1="2138.5" x2="2355.5" y1="672.5" y2="672.5"/><text fill="#000000" font-family="sans-serif" font-size="14" lengthAdjust="spacing" textLength="207" x="2143.5" y="691.6074">-List&lt;Collaborator&gt; collaborators</text><line style="stroke:#181818;stroke-width:0.5;" x1="2138.5" x2="2355.5" y1="699.1211" y2="699.1211"/><text fill="#000000" font-family="sans-serif" font-size="14" lengthAdjust="spacing" textLength="150" x="2143.5" y="718.2285">TeamDto(collaborators)</text></g><!--class TeamMapper--><g id="elem_TeamMapper"><rect codeLine="107" fill="#F1F1F1" height="85.2422" id="TeamMapper" rx="2.5" ry="2.5" style="stroke:#181818;stroke-width:0.5;" width="154" x="1969" y="420"/><ellipse cx="2001.1" cy="436" fill="#ADD1B2" rx="11" ry="11" style="stroke:#181818;stroke-width:1.0;"/><path d="M2003.8656,431.875 Q2004.0219,431.6563 2004.2094,431.5469 Q2004.3969,431.4375 2004.6156,431.4375 Q2004.9906,431.4375 2005.225,431.7031 Q2005.4594,431.9531 2005.4594,432.5625 L2005.4594,434.0156 Q2005.4594,434.625 2005.225,434.8906 Q2004.9906,435.1563 2004.6156,435.1563 Q2004.2719,435.1563 2004.0688,434.9531 Q2003.8656,434.7656 2003.7563,434.25 Q2003.7094,433.8906 2003.5219,433.7031 Q2003.1938,433.3281 2002.5844,433.1094 Q2001.975,432.8906 2001.35,432.8906 Q2000.5844,432.8906 1999.9438,433.2188 Q1999.3188,433.5469 1998.8188,434.2969 Q1998.3344,435.0469 1998.3344,436.0781 L1998.3344,437.1719 Q1998.3344,438.4063 1999.225,439.2344 Q2000.1156,440.0469 2001.7094,440.0469 Q2002.6469,440.0469 2003.3031,439.7969 Q2003.6938,439.6406 2004.1156,439.2031 Q2004.3813,438.9375 2004.5219,438.8594 Q2004.6781,438.7813 2004.8813,438.7813 Q2005.2094,438.7813 2005.4594,439.0469 Q2005.725,439.2969 2005.725,439.6406 Q2005.725,439.9844 2005.3813,440.3906 Q2004.8813,440.9688 2004.0844,441.2969 Q2003.0063,441.75 2001.7094,441.75 Q2000.1938,441.75 1998.9906,441.125 Q1998.0063,440.625 1997.3188,439.5625 Q1996.6313,438.4844 1996.6313,437.2031 L1996.6313,436.0469 Q1996.6313,434.7188 1997.2406,433.5781 Q1997.8656,432.4219 1998.9594,431.8125 Q2000.0531,431.1875 2001.2875,431.1875 Q2002.0219,431.1875 2002.6625,431.3594 Q2003.3188,431.5156 2003.8656,431.875 Z " fill="#000000"/><text fill="#000000" font-family="sans-serif" font-size="14" lengthAdjust="spacing" textLength="84" x="2018.9" y="441.7969">TeamMapper</text><line style="stroke:#181818;stroke-width:0.5;" x1="1970" x2="2122" y1="452" y2="452"/><line style="stroke:#181818;stroke-width:0.5;" x1="1970" x2="2122" y1="460" y2="460"/><text fill="#000000" font-family="sans-serif" font-size="14" lengthAdjust="spacing" textLength="142" x="1975" y="479.1074">+toDTOList(teamsList)</text><text fill="#000000" font-family="sans-serif" font-size="14" lengthAdjust="spacing" textLength="127" x="1975" y="497.7285">+teamToDTO(team)</text></g><!--link AssignTeamUI to AssignTeamController--><g id="link_AssignTeamUI_AssignTeamController"><path codeLine="113" d="M747,55.36 C747,71.15 747,87.19 747,109.81 " fill="none" id="AssignTeamUI-to-AssignTeamController" style="stroke:#181818;stroke-width:1.0;stroke-dasharray:7.0,7.0;"/><polygon fill="#181818" points="747,115.81,751,106.81,747,110.81,743,106.81,747,115.81" style="stroke:#181818;stroke-width:1.0;"/></g><!--link AssignTeamController to Repositories--><g id="link_AssignTeamController_Repositories"><path codeLine="114" d="M549.49,313.11 C514.51,330.39 489,343 489,343 C489,343 463.0207,362.4909 428.6207,388.2809 " fill="none" id="AssignTeamController-to-Repositories" style="stroke:#181818;stroke-width:1.0;stroke-dasharray:7.0,7.0;"/><polygon fill="#181818" points="423.82,391.88,433.4204,389.6818,427.8206,388.8807,428.6216,383.2809,423.82,391.88" style="stroke:#181818;stroke-width:1.0;"/><text fill="#000000" font-family="sans-serif" font-size="13" lengthAdjust="spacing" textLength="67" x="490" y="358.0283">repositories</text></g><!--link AssignTeamController to Agenda--><g id="link_AssignTeamController_Agenda"><path codeLine="115" d="M525.31,282.73 C360.84,332.61 165,392 165,392 C165,392 154.7106,567.4603 150.2706,643.3103 " fill="none" id="AssignTeamController-to-Agenda" style="stroke:#181818;stroke-width:1.0;stroke-dasharray:7.0,7.0;"/><polygon fill="#181818" points="149.92,649.3,154.4391,640.5491,150.2122,644.3085,146.4528,640.0816,149.92,649.3" style="stroke:#181818;stroke-width:1.0;"/><text fill="#000000" font-family="sans-serif" font-size="13" lengthAdjust="spacing" textLength="42" x="166" y="468.0283">agenda</text></g><!--link AssignTeamController to TeamRepository--><g id="link_AssignTeamController_TeamRepository"><path codeLine="116" d="M656.92,313.04 C619.22,353.86 584,392 584,392 C584,392 531,533 531,533 C531,533 466.0994,601.0966 424.2994,644.9566 " fill="none" id="AssignTeamController-to-TeamRepository" style="stroke:#181818;stroke-width:1.0;stroke-dasharray:7.0,7.0;"/><polygon fill="#181818" points="420.16,649.3,429.2647,645.5445,423.6095,645.6805,423.4735,640.0253,420.16,649.3" style="stroke:#181818;stroke-width:1.0;"/><text fill="#000000" font-family="sans-serif" font-size="13" lengthAdjust="spacing" textLength="91" x="585" y="468.0283">teamRepository</text></g><!--link AssignTeamController to AuthenticationRepository--><g id="link_AssignTeamController_AuthenticationRepository"><path codeLine="117" d="M727.89,313.35 C709.67,406.64 685,533 685,533 C685,533 655.3402,599.9542 635.9102,643.8142 " fill="none" id="AssignTeamController-to-AuthenticationRepository" style="stroke:#181818;stroke-width:1.0;stroke-dasharray:7.0,7.0;"/><polygon fill="#181818" points="633.48,649.3,640.7825,642.6914,635.5052,644.7285,633.4681,639.4511,633.48,649.3" style="stroke:#181818;stroke-width:1.0;"/><text fill="#000000" font-family="sans-serif" font-size="13" lengthAdjust="spacing" textLength="143" x="713" y="468.0283">authenticationRepository</text></g><!--link AuthenticationRepository to UserSession--><g id="link_AuthenticationRepository_UserSession"><path codeLine="118" d="M619,716.55 C619,765.43 619,851.24 619,900.24 " fill="none" id="AuthenticationRepository-to-UserSession" style="stroke:#181818;stroke-width:1.0;stroke-dasharray:7.0,7.0;"/><polygon fill="#181818" points="619,906.24,623,897.24,619,901.24,615,897.24,619,906.24" style="stroke:#181818;stroke-width:1.0;"/></g><!--link Repositories to Repositories--><g id="link_Repositories_Repositories"><path codeLine="119" d="M435.26,444.58 C455.58,446.66 470,452.64 470,462.5 C470,472.36 461.5488,477.729 441.2288,479.809 " fill="none" id="Repositories-to-Repositories" style="stroke:#181818;stroke-width:1.0;"/><polygon fill="#181818" points="435.26,480.42,444.6205,483.4827,440.234,479.9108,443.8059,475.5243,435.26,480.42" style="stroke:#181818;stroke-width:1.0;"/><text fill="#000000" font-family="sans-serif" font-size="13" lengthAdjust="spacing" textLength="49" x="476" y="468.0283">instance</text></g><!--link Repositories to Agenda--><g id="link_Repositories_Agenda"><path codeLine="120" d="M272.59,533.24 C239.96,572.2 204.6828,614.3204 179.0928,644.8704 " fill="none" id="Repositories-to-Agenda" style="stroke:#181818;stroke-width:1.0;"/><polygon fill="#181818" points="175.24,649.47,184.0856,645.1392,178.4507,645.637,177.9528,640.0021,175.24,649.47" style="stroke:#181818;stroke-width:1.0;"/><text fill="#000000" font-family="sans-serif" font-size="13" lengthAdjust="spacing" textLength="7" x="172.9138" y="638.2896">1</text></g><!--link Repositories to TeamRepository--><g id="link_Repositories_TeamRepository"><path codeLine="121" d="M349.51,533.24 C359.85,572.2 370.7205,613.1209 378.8305,643.6709 " fill="none" id="Repositories-to-TeamRepository" style="stroke:#181818;stroke-width:1.0;"/><polygon fill="#181818" points="380.37,649.47,381.9269,639.745,379.0871,644.6374,374.1947,641.7976,380.37,649.47" style="stroke:#181818;stroke-width:1.0;"/><text fill="#000000" font-family="sans-serif" font-size="13" lengthAdjust="spacing" textLength="7" x="370.9819" y="638.2896">1</text></g><!--link Repositories to AuthenticationRepository--><g id="link_Repositories_AuthenticationRepository"><path codeLine="122" d="M424.39,533.14 C466.09,564.24 506,594 506,594 C506,594 540.3163,620.7233 572.5063,645.7933 " fill="none" id="Repositories-to-AuthenticationRepository" style="stroke:#181818;stroke-width:1.0;"/><polygon fill="#181818" points="577.24,649.48,572.5972,640.7941,573.2952,646.4078,567.6816,647.1058,577.24,649.48" style="stroke:#181818;stroke-width:1.0;"/><text fill="#000000" font-family="sans-serif" font-size="13" lengthAdjust="spacing" textLength="7" x="561.3294" y="638.3016">1</text></g><!--link Agenda to Entry--><g id="link_Agenda_Entry"><path codeLine="123" d="M149.66,716.55 C151.38,750.26 153.8354,798.3777 156.1954,844.7977 " fill="none" id="Agenda-to-Entry" style="stroke:#181818;stroke-width:1.0;"/><polygon fill="#181818" points="156.5,850.79,160.0379,841.5985,156.2461,845.7964,152.0482,842.0047,156.5,850.79" style="stroke:#181818;stroke-width:1.0;"/><text fill="#000000" font-family="sans-serif" font-size="13" lengthAdjust="spacing" textLength="5" x="150.9203" y="839.7244">*</text></g><!--link TeamRepository to Team--><g id="link_TeamRepository_Team"><path codeLine="124" d="M383.59,716.77 C369.36,802.89 332,1029 332,1029 C332,1029 314.9277,1056.3406 297.2077,1084.7206 " fill="none" id="TeamRepository-to-Team" style="stroke:#181818;stroke-width:1.0;"/><polygon fill="#181818" points="294.03,1089.81,302.1895,1084.2944,296.6781,1085.5688,295.4037,1080.0574,294.03,1089.81" style="stroke:#181818;stroke-width:1.0;"/><text fill="#000000" font-family="sans-serif" font-size="13" lengthAdjust="spacing" textLength="5" x="292.7801" y="1078.6838">*</text></g><!--link Entry to Team--><g id="link_Entry_Team"><path codeLine="125" d="M210.43,1029 C222.37,1050.25 231.6312,1066.759 241.7212,1084.719 " fill="none" id="Entry-to-Team" style="stroke:#181818;stroke-width:1.0;"/><polygon fill="#181818" points="244.66,1089.95,243.7391,1080.1443,242.211,1085.5908,236.7645,1084.0627,244.66,1089.95" style="stroke:#181818;stroke-width:1.0;"/><text fill="#000000" font-family="sans-serif" font-size="13" lengthAdjust="spacing" textLength="7" x="233.3824" y="1078.8461">1</text></g><!--link AssignTeamController to EmailService--><g id="link_AssignTeamController_EmailService"><path codeLine="126" d="M886.63,313.08 C945.55,354.26 1005.2519,395.9831 1047.5519,425.5431 " fill="none" id="AssignTeamController-to-EmailService" style="stroke:#181818;stroke-width:1.0;stroke-dasharray:7.0,7.0;"/><polygon fill="#181818" points="1052.47,428.98,1047.3841,420.5459,1048.3716,426.1159,1042.8016,427.1034,1052.47,428.98" style="stroke:#181818;stroke-width:1.0;"/></g><!--link EmailService to ApplicationSession--><g id="link_EmailService_ApplicationSession"><path codeLine="127" d="M1053.79,496.09 C1000.18,534.75 918,594 918,594 C918,594 897.448,613.4459 873.408,636.1959 " fill="none" id="EmailService-to-ApplicationSession" style="stroke:#181818;stroke-width:1.0;stroke-dasharray:7.0,7.0;"/><polygon fill="#181818" points="869.05,640.32,878.3363,637.0391,872.6816,636.8832,872.8375,631.2285,869.05,640.32" style="stroke:#181818;stroke-width:1.0;"/></g><!--link ApplicationSession to Email--><g id="link_ApplicationSession_Email"><path codeLine="128" d="M864.42,725.54 C912.37,776.06 988.1797,855.9379 1031.9297,902.0379 " fill="none" id="ApplicationSession-to-Email" style="stroke:#181818;stroke-width:1.0;"/><polygon fill="#181818" points="1036.06,906.39,1032.766,897.1083,1032.6181,902.7632,1026.9632,902.6153,1036.06,906.39" style="stroke:#181818;stroke-width:1.0;"/><text fill="#000000" font-family="sans-serif" font-size="13" lengthAdjust="spacing" textLength="49" x="955" y="817.0283">instance</text></g><!--link DeiService to Email--><g id="link_DeiService_Email"><path codeLine="129" d="M1067,725.54 C1067,776.06 1067,854.29 1067,900.39 " fill="none" id="DeiService-to-Email" style="stroke:#181818;stroke-width:1.0;stroke-dasharray:7.0,7.0;"/><polygon fill="#181818" points="1067,906.39,1071,897.39,1067,901.39,1063,897.39,1067,906.39" style="stroke:#181818;stroke-width:1.0;"/></g><!--link GmailService to Email--><g id="link_GmailService_Email"><path codeLine="130" d="M1315.62,725.54 C1256.78,776.06 1163.2222,856.3813 1109.5322,902.4813 " fill="none" id="GmailService-to-Email" style="stroke:#181818;stroke-width:1.0;stroke-dasharray:7.0,7.0;"/><polygon fill="#181818" points="1104.98,906.39,1114.4141,903.5618,1108.7735,903.1328,1109.2025,897.4922,1104.98,906.39" style="stroke:#181818;stroke-width:1.0;"/></g><!--link AssignTeamController to TeamMapper--><g id="link_AssignTeamController_TeamMapper"><path codeLine="131" d="M968.59,256.33 C1251.55,308.46 1705,392 1705,392 C1705,392 1862.1309,424.0215 1962.7409,444.5315 " fill="none" id="AssignTeamController-to-TeamMapper" style="stroke:#181818;stroke-width:1.0;stroke-dasharray:7.0,7.0;"/><polygon fill="#181818" points="1968.62,445.73,1960.6004,440.0129,1963.7208,444.7313,1959.0024,447.8517,1968.62,445.73" style="stroke:#181818;stroke-width:1.0;"/></g><!--link TeamMapper to TeamDto--><g id="link_TeamMapper_TeamDto"><path codeLine="132" d="M2084.28,505.11 C2119.93,543.87 2168.7479,596.9342 2204.4579,635.7542 " fill="none" id="TeamMapper-to-TeamDto" style="stroke:#181818;stroke-width:1.0;stroke-dasharray:7.0,7.0;"/><polygon fill="#181818" points="2208.52,640.17,2205.3708,630.8382,2205.1349,636.4901,2199.483,636.2543,2208.52,640.17" style="stroke:#181818;stroke-width:1.0;"/></g><!--link AssignTeamController to EntryMapper--><g id="link_AssignTeamController_EntryMapper"><path codeLine="133" d="M968.73,278.85 C1152.09,331.24 1396.3509,401.0316 1522.4809,437.0716 " fill="none" id="AssignTeamController-to-EntryMapper" style="stroke:#181818;stroke-width:1.0;stroke-dasharray:7.0,7.0;"/><polygon fill="#181818" points="1528.25,438.72,1520.6953,432.4013,1523.4424,437.3463,1518.4974,440.0934,1528.25,438.72" style="stroke:#181818;stroke-width:1.0;"/></g><!--link EntryMapper to EntryDto--><g id="link_EntryMapper_EntryDto"><path codeLine="134" d="M1647.61,505.11 C1671.54,530.25 1698.8227,558.9146 1728.0427,589.6046 " fill="none" id="EntryMapper-to-EntryDto" style="stroke:#181818;stroke-width:1.0;stroke-dasharray:7.0,7.0;"/><polygon fill="#181818" points="1732.18,593.95,1728.871,584.6737,1728.7323,590.3288,1723.0771,590.19,1732.18,593.95" style="stroke:#181818;stroke-width:1.0;"/></g><!--SRC=[jLRVJzim47xtNs7nGXafsbxBXCGeL9M6aDR0kvjUMu_KZcmNratxttUsa-QI9eM7mKD9VD_TVNU-7pcrpr8LmeWDtsYbixNH6-3ER87Laa9aps85CxVBWHl8d52hd0BiMYpqgrGhlXIvfP9SAd2x0dYXyvr_OQSTGcsSPaGhouMrryuPETywc6PQpUHlu9yPEyrXwRZJtCZLsl65z7IaLem57NvjhLof5CJcSSh_iB-7vpTQEQFp70pAEVwTTya66AzQY0HTZVLtQLt2nTQjGJcP2U_m1nJQIgVDxYnQ4NihgRv5CxlIn5Gju1VQGK5uZF3X2bn0VTk5Kmgk4TvQ1MWPE2yDIB2UtZXz6DG2hzSw7bgqdwxXTYDadcgF62pnids42LTY0pSOk9Xh8p2eX8CdLpEPpExl43q3Z58hj5bdDX2lSdaqhBrEW9Ggmx5mmAqJnc41-PTu7EtEd71RwyNuBmfIOP-vmv_uEZ40QeOb2lPUAFHd-EhWw39YVKg-Fi5QPZbSyPVuOEFzHyXvl3fA9mdE3cuvN4XK9P5vILqQ92izLzbGh38IQDBhkE8PUOjv21mQnyJQdWAMHsMrSLWL2qTgKuNXgWm6PtpK0DMGU1bKgHaebLptz4cZQ7em964tMsCGycZ1T5GTEIOw_dIweBXGxZCmBpA32XWwGGV9dSpXFMrG4o-Al6JTT1yQsfiaRKYTHr9IEJ1BBCn8Z3AAoZKNkvt_nDcMyBbUK0PZa1tnlA4T6BuQwI3LCMRyIVZRtYOz-VieVw7znZZV_yzm25rLD-hbnuqCvDoQ6f5Md1u98P5qE4jQbjiPkHT5KIyit4dfWoSsW7e3b6KN2ZRrW46xTdqoI6hVFMLyQ7s3nilxoBbg2vNKNDYDdfb_2aPOOrzVN5nrBchMkRqzcawh4NwQaDdLgnDhPyJZQkh7DIVSADnW_Nx4Vizi6_L-GR3USUZjaL776dDzE6mdG9QJ_11tykMa3BnRrWosHx-NVlm42BXF9x5YMMiJLa9_pEB-fxxxqqc7A6kCyv3iWtdCEaQqznHKIOh87DsxOPEs_NXyj4PY-JFI2PK46-T8N7LVCzhZUvdN_WS0]--></g></svg>