<?xml version="1.0" encoding="us-ascii" standalone="no"?><svg xmlns="http://www.w3.org/2000/svg" xmlns:xlink="http://www.w3.org/1999/xlink" contentStyleType="text/css" height="350px" preserveAspectRatio="none" style="width:487px;height:350px;background:#FFFFFF;" version="1.1" viewBox="0 0 487 350" width="487px" zoomAndPan="magnify"><defs/><g><rect fill="#FFFFFF" height="267.8037" style="stroke:#181818;stroke-width:0.5;" width="5" x="71" y="45.2666"/><rect fill="#FFFFFF" height="15.6455" style="stroke:#181818;stroke-width:0.5;" width="5" x="139.75" y="74.0576"/><rect fill="#FFFFFF" height="15.6455" style="stroke:#181818;stroke-width:0.5;" width="5" x="193.25" y="105.3486"/><rect fill="#FFFFFF" height="15.6455" style="stroke:#181818;stroke-width:0.5;" width="5" x="252" y="136.6396"/><rect fill="#FFFFFF" height="125.9941" style="stroke:#181818;stroke-width:0.5;" width="5" x="312" y="167.9307"/><rect fill="#FFFFFF" height="15.6455" style="stroke:#181818;stroke-width:0.5;" width="5" x="390.5" y="227.8428"/><rect fill="#FFFFFF" height="19.1455" style="stroke:#181818;stroke-width:0.5;" width="5" x="443" y="259.1338"/><rect fill="none" height="245.1582" style="stroke:#000000;stroke-width:0.75;" width="455" x="29" y="52.7666"/><rect fill="none" height="56.582" style="stroke:#000000;stroke-width:0.75;" width="195" x="284" y="206.5518"/><line style="stroke:#181818;stroke-width:0.25;stroke-dasharray:5.0,5.0;" x1="73.5" x2="73.5" y1="28.6211" y2="322.0703"/><line style="stroke:#181818;stroke-width:0.25;stroke-dasharray:5.0,5.0;" x1="142" x2="142" y1="28.6211" y2="322.0703"/><line style="stroke:#181818;stroke-width:0.25;stroke-dasharray:5.0,5.0;" x1="195.5" x2="195.5" y1="28.6211" y2="322.0703"/><line style="stroke:#181818;stroke-width:0.25;stroke-dasharray:5.0,5.0;" x1="254.5" x2="254.5" y1="28.6211" y2="322.0703"/><line style="stroke:#181818;stroke-width:0.25;stroke-dasharray:5.0,5.0;" x1="314.5" x2="314.5" y1="28.6211" y2="322.0703"/><line style="stroke:#181818;stroke-width:0.25;stroke-dasharray:5.0,5.0;" x1="393" x2="393" y1="28.6211" y2="322.0703"/><line style="stroke:#181818;stroke-width:0.25;stroke-dasharray:5.0,5.0;" x1="445.5" x2="445.5" y1="192.4912" y2="322.0703"/><rect fill="#E3E3E3" height="16.3105" rx="1.25" ry="1.25" style="stroke:#181818;stroke-width:0.25;" width="79" x="34" y="11.8105"/><text fill="#000000" font-family="sans-serif" font-size="7" lengthAdjust="spacing" textLength="72" x="37.5" y="22.8643">:AssignTeamController</text><rect fill="#E3E3E3" height="16.3105" rx="1.25" ry="1.25" style="stroke:#181818;stroke-width:0.25;" width="79" x="34" y="321.5703"/><text fill="#000000" font-family="sans-serif" font-size="7" lengthAdjust="spacing" textLength="72" x="37.5" y="332.624">:AssignTeamController</text><rect fill="#E3E3E3" height="16.3105" rx="1.25" ry="1.25" style="stroke:#181818;stroke-width:0.25;" width="48.5" x="118" y="11.8105"/><text fill="#000000" font-family="sans-serif" font-size="7" lengthAdjust="spacing" textLength="41.5" x="121.5" y="22.8643">:Repositories</text><rect fill="#E3E3E3" height="16.3105" rx="1.25" ry="1.25" style="stroke:#181818;stroke-width:0.25;" width="48.5" x="118" y="321.5703"/><text fill="#000000" font-family="sans-serif" font-size="7" lengthAdjust="spacing" textLength="41.5" x="121.5" y="332.624">:Repositories</text><rect fill="#E3E3E3" height="25.6211" rx="1.25" ry="1.25" style="stroke:#181818;stroke-width:0.25;" width="48.5" x="171.5" y="2.5"/><text fill="#000000" font-family="sans-serif" font-size="7" lengthAdjust="spacing" textLength="37" x="177.25" y="13.5537">repositories</text><text fill="#000000" font-family="sans-serif" font-size="7" lengthAdjust="spacing" textLength="41.5" x="175" y="22.8643">:Repositories</text><rect fill="#E3E3E3" height="25.6211" rx="1.25" ry="1.25" style="stroke:#181818;stroke-width:0.25;" width="48.5" x="171.5" y="321.5703"/><text fill="#000000" font-family="sans-serif" font-size="7" lengthAdjust="spacing" textLength="37" x="177.25" y="332.624">repositories</text><text fill="#000000" font-family="sans-serif" font-size="7" lengthAdjust="spacing" textLength="41.5" x="175" y="341.9346">:Repositories</text><rect fill="#E3E3E3" height="25.6211" rx="1.25" ry="1.25" style="stroke:#181818;stroke-width:0.25;" width="59" x="225" y="2.5"/><text fill="#000000" font-family="sans-serif" font-size="7" lengthAdjust="spacing" textLength="51.5" x="228.75" y="13.5537">teamRepository:</text><text fill="#000000" font-family="sans-serif" font-size="7" lengthAdjust="spacing" textLength="52" x="228.5" y="22.8643">TeamRepository</text><rect fill="#E3E3E3" height="25.6211" rx="1.25" ry="1.25" style="stroke:#181818;stroke-width:0.25;" width="59" x="225" y="321.5703"/><text fill="#000000" font-family="sans-serif" font-size="7" lengthAdjust="spacing" textLength="51.5" x="228.75" y="332.624">teamRepository:</text><text fill="#000000" font-family="sans-serif" font-size="7" lengthAdjust="spacing" textLength="52" x="228.5" y="341.9346">TeamRepository</text><rect fill="#E3E3E3" height="16.3105" rx="1.25" ry="1.25" style="stroke:#181818;stroke-width:0.25;" width="51" x="289" y="11.8105"/><text fill="#000000" font-family="sans-serif" font-size="7" lengthAdjust="spacing" textLength="44" x="292.5" y="22.8643">:TeamMapper</text><rect fill="#E3E3E3" height="16.3105" rx="1.25" ry="1.25" style="stroke:#181818;stroke-width:0.25;" width="51" x="289" y="321.5703"/><text fill="#000000" font-family="sans-serif" font-size="7" lengthAdjust="spacing" textLength="44" x="292.5" y="332.624">:TeamMapper</text><rect fill="#E3E3E3" height="25.6211" rx="1.25" ry="1.25" style="stroke:#181818;stroke-width:0.25;" width="38" x="374" y="2.5"/><text fill="#000000" font-family="sans-serif" font-size="7" lengthAdjust="spacing" textLength="26.5" x="379.75" y="13.5537">teamDto</text><text fill="#000000" font-family="sans-serif" font-size="7" lengthAdjust="spacing" textLength="31" x="377.5" y="22.8643">:TeamDto</text><rect fill="#E3E3E3" height="25.6211" rx="1.25" ry="1.25" style="stroke:#181818;stroke-width:0.25;" width="38" x="374" y="321.5703"/><text fill="#000000" font-family="sans-serif" font-size="7" lengthAdjust="spacing" textLength="26.5" x="379.75" y="332.624">teamDto</text><text fill="#000000" font-family="sans-serif" font-size="7" lengthAdjust="spacing" textLength="31" x="377.5" y="341.9346">:TeamDto</text><rect fill="#E3E3E3" height="25.6211" rx="1.25" ry="1.25" style="stroke:#181818;stroke-width:0.25;" width="57" x="417" y="321.5703"/><text fill="#000000" font-family="sans-serif" font-size="7" lengthAdjust="spacing" textLength="37.5" x="426.75" y="332.624">teamListDto</text><text fill="#000000" font-family="sans-serif" font-size="7" lengthAdjust="spacing" textLength="50" x="420.5" y="341.9346">:List&lt;TeamDto&gt;</text><rect fill="#FFFFFF" height="267.8037" style="stroke:#181818;stroke-width:0.5;" width="5" x="71" y="45.2666"/><rect fill="#FFFFFF" height="15.6455" style="stroke:#181818;stroke-width:0.5;" width="5" x="139.75" y="74.0576"/><rect fill="#FFFFFF" height="15.6455" style="stroke:#181818;stroke-width:0.5;" width="5" x="193.25" y="105.3486"/><rect fill="#FFFFFF" height="15.6455" style="stroke:#181818;stroke-width:0.5;" width="5" x="252" y="136.6396"/><rect fill="#FFFFFF" height="125.9941" style="stroke:#181818;stroke-width:0.5;" width="5" x="312" y="167.9307"/><rect fill="#FFFFFF" height="15.6455" style="stroke:#181818;stroke-width:0.5;" width="5" x="390.5" y="227.8428"/><rect fill="#FFFFFF" height="19.1455" style="stroke:#181818;stroke-width:0.5;" width="5" x="443" y="259.1338"/><polygon fill="#181818" points="65,43.2666,70,45.2666,65,47.2666,67,45.2666" style="stroke:#181818;stroke-width:0.5;"/><line style="stroke:#181818;stroke-width:0.5;" x1="0" x2="68" y1="45.2666" y2="45.2666"/><text fill="#000000" font-family="sans-serif" font-size="6.5" font-weight="bold" lengthAdjust="spacing" textLength="3.5" x="3.5" y="42.6353">7</text><text fill="#000000" font-family="sans-serif" font-size="6.5" lengthAdjust="spacing" textLength="56" x="9" y="42.6353">getTeamsListDTO()</text><path d="M29,52.7666 L108,52.7666 L108,57.4121 L103,62.4121 L29,62.4121 L29,52.7666 " fill="#EEEEEE" style="stroke:#000000;stroke-width:0.75;"/><rect fill="none" height="245.1582" style="stroke:#000000;stroke-width:0.75;" width="455" x="29" y="52.7666"/><text fill="#000000" font-family="sans-serif" font-size="6.5" font-weight="bold" lengthAdjust="spacing" textLength="56.5" x="36.5" y="60.2808">Get Team Dto List</text><polygon fill="#181818" points="133.75,72.0576,138.75,74.0576,133.75,76.0576,135.75,74.0576" style="stroke:#181818;stroke-width:0.5;"/><line style="stroke:#181818;stroke-width:0.5;" x1="76" x2="136.75" y1="74.0576" y2="74.0576"/><text fill="#000000" font-family="sans-serif" font-size="6.5" font-weight="bold" lengthAdjust="spacing" textLength="9" x="79.5" y="71.4263">7.1</text><text fill="#000000" font-family="sans-serif" font-size="6.5" lengthAdjust="spacing" textLength="37.5" x="90.5" y="71.4263">getInstance()</text><polygon fill="#181818" points="81.5,87.7031,76.5,89.7031,81.5,91.7031,79.5,89.7031" style="stroke:#181818;stroke-width:0.5;"/><line style="stroke:#181818;stroke-width:0.5;stroke-dasharray:2.0,2.0;" x1="78.5" x2="141.75" y1="89.7031" y2="89.7031"/><text fill="#000000" font-family="sans-serif" font-size="6.5" font-weight="bold" lengthAdjust="spacing" textLength="9" x="84.5" y="87.0718">7.2</text><text fill="#000000" font-family="sans-serif" font-size="6.5" lengthAdjust="spacing" textLength="33.5" x="95.5" y="87.0718">repositories</text><polygon fill="#181818" points="187.25,103.3486,192.25,105.3486,187.25,107.3486,189.25,105.3486" style="stroke:#181818;stroke-width:0.5;"/><line style="stroke:#181818;stroke-width:0.5;" x1="76" x2="190.25" y1="105.3486" y2="105.3486"/><text fill="#000000" font-family="sans-serif" font-size="6.5" font-weight="bold" lengthAdjust="spacing" textLength="9" x="79.5" y="102.7173">7.3</text><text fill="#000000" font-family="sans-serif" font-size="6.5" lengthAdjust="spacing" textLength="60" x="90.5" y="102.7173">getTeamRepository()</text><polygon fill="#181818" points="81.5,118.9941,76.5,120.9941,81.5,122.9941,79.5,120.9941" style="stroke:#181818;stroke-width:0.5;"/><line style="stroke:#181818;stroke-width:0.5;stroke-dasharray:2.0,2.0;" x1="78.5" x2="195.25" y1="120.9941" y2="120.9941"/><text fill="#000000" font-family="sans-serif" font-size="6.5" font-weight="bold" lengthAdjust="spacing" textLength="9" x="84.5" y="118.3628">7.4</text><text fill="#000000" font-family="sans-serif" font-size="6.5" lengthAdjust="spacing" textLength="45.5" x="95.5" y="118.3628">teamRepository</text><polygon fill="#181818" points="246,134.6396,251,136.6396,246,138.6396,248,136.6396" style="stroke:#181818;stroke-width:0.5;"/><line style="stroke:#181818;stroke-width:0.5;" x1="76" x2="249" y1="136.6396" y2="136.6396"/><text fill="#000000" font-family="sans-serif" font-size="6.5" font-weight="bold" lengthAdjust="spacing" textLength="9" x="79.5" y="134.0083">7.5</text><text fill="#000000" font-family="sans-serif" font-size="6.5" lengthAdjust="spacing" textLength="39.5" x="90.5" y="134.0083">getTeamList()</text><polygon fill="#181818" points="81.5,150.2852,76.5,152.2852,81.5,154.2852,79.5,152.2852" style="stroke:#181818;stroke-width:0.5;"/><line style="stroke:#181818;stroke-width:0.5;stroke-dasharray:2.0,2.0;" x1="78.5" x2="254" y1="152.2852" y2="152.2852"/><text fill="#000000" font-family="sans-serif" font-size="6.5" font-weight="bold" lengthAdjust="spacing" textLength="9" x="84.5" y="149.6538">7.6</text><text fill="#000000" font-family="sans-serif" font-size="6.5" lengthAdjust="spacing" textLength="25" x="95.5" y="149.6538">teamList</text><polygon fill="#181818" points="306,165.9307,311,167.9307,306,169.9307,308,167.9307" style="stroke:#181818;stroke-width:0.5;"/><line style="stroke:#181818;stroke-width:0.5;" x1="76" x2="309" y1="167.9307" y2="167.9307"/><text fill="#000000" font-family="sans-serif" font-size="6.5" font-weight="bold" lengthAdjust="spacing" textLength="9" x="79.5" y="165.2993">7.7</text><text fill="#000000" font-family="sans-serif" font-size="6.5" lengthAdjust="spacing" textLength="58" x="90.5" y="165.2993">toDTOList(teamList)</text><polygon fill="#181818" points="411,181.5762,416,183.5762,411,185.5762,413,183.5762" style="stroke:#181818;stroke-width:0.5;"/><line style="stroke:#181818;stroke-width:0.5;" x1="317" x2="414" y1="183.5762" y2="183.5762"/><text fill="#000000" font-family="sans-serif" font-size="6.5" font-weight="bold" lengthAdjust="spacing" textLength="9" x="320.5" y="180.9448">7.8</text><text fill="#000000" font-family="sans-serif" font-size="6.5" lengthAdjust="spacing" textLength="22" x="331.5" y="180.9448">create()</text><rect fill="#E3E3E3" height="25.6211" rx="1.25" ry="1.25" style="stroke:#181818;stroke-width:0.25;" width="57" x="417" y="171.9307"/><text fill="#000000" font-family="sans-serif" font-size="7" lengthAdjust="spacing" textLength="37.5" x="426.75" y="182.9844">teamListDto</text><text fill="#000000" font-family="sans-serif" font-size="7" lengthAdjust="spacing" textLength="50" x="420.5" y="192.2949">:List&lt;TeamDto&gt;</text><path d="M284,206.5518 L320.5,206.5518 L320.5,211.1973 L315.5,216.1973 L284,216.1973 L284,206.5518 " fill="#EEEEEE" style="stroke:#000000;stroke-width:0.75;"/><rect fill="none" height="56.582" style="stroke:#000000;stroke-width:0.75;" width="195" x="284" y="206.5518"/><text fill="#000000" font-family="sans-serif" font-size="6.5" font-weight="bold" lengthAdjust="spacing" textLength="14" x="291.5" y="214.0659">loop</text><text fill="#000000" font-family="sans-serif" font-size="5.5" font-weight="bold" lengthAdjust="spacing" textLength="75.5" x="328" y="213.4868">[For each team in teamList]</text><polygon fill="#181818" points="384.5,225.8428,389.5,227.8428,384.5,229.8428,386.5,227.8428" style="stroke:#181818;stroke-width:0.5;"/><line style="stroke:#181818;stroke-width:0.5;" x1="317" x2="387.5" y1="227.8428" y2="227.8428"/><text fill="#000000" font-family="sans-serif" font-size="6.5" font-weight="bold" lengthAdjust="spacing" textLength="9" x="320.5" y="225.2114">7.9</text><text fill="#000000" font-family="sans-serif" font-size="6.5" lengthAdjust="spacing" textLength="53" x="331.5" y="225.2114">teamToDTO(team)</text><polygon fill="#181818" points="322.5,241.4883,317.5,243.4883,322.5,245.4883,320.5,243.4883" style="stroke:#181818;stroke-width:0.5;"/><line style="stroke:#181818;stroke-width:0.5;stroke-dasharray:2.0,2.0;" x1="319.5" x2="392.5" y1="243.4883" y2="243.4883"/><text fill="#000000" font-family="sans-serif" font-size="6.5" font-weight="bold" lengthAdjust="spacing" textLength="12.5" x="325.5" y="240.8569">7.10</text><text fill="#000000" font-family="sans-serif" font-size="6.5" lengthAdjust="spacing" textLength="24.5" x="340" y="240.8569">teamDto</text><polygon fill="#181818" points="437,257.1338,442,259.1338,437,261.1338,439,259.1338" style="stroke:#181818;stroke-width:0.5;"/><line style="stroke:#181818;stroke-width:0.5;" x1="317" x2="440" y1="259.1338" y2="259.1338"/><text fill="#000000" font-family="sans-serif" font-size="6.5" font-weight="bold" lengthAdjust="spacing" textLength="12.5" x="320.5" y="256.5024">7.11</text><text fill="#000000" font-family="sans-serif" font-size="6.5" lengthAdjust="spacing" textLength="39" x="335" y="256.5024">add(teamDto)</text><polygon fill="#181818" points="322.5,276.2793,317.5,278.2793,322.5,280.2793,320.5,278.2793" style="stroke:#181818;stroke-width:0.5;"/><line style="stroke:#181818;stroke-width:0.5;stroke-dasharray:2.0,2.0;" x1="319.5" x2="445" y1="278.2793" y2="278.2793"/><text fill="#000000" font-family="sans-serif" font-size="6.5" font-weight="bold" lengthAdjust="spacing" textLength="12.5" x="325.5" y="275.6479">7.12</text><text fill="#000000" font-family="sans-serif" font-size="6.5" lengthAdjust="spacing" textLength="35" x="340" y="275.6479">teamListDto</text><polygon fill="#181818" points="81.5,291.9248,76.5,293.9248,81.5,295.9248,79.5,293.9248" style="stroke:#181818;stroke-width:0.5;"/><line style="stroke:#181818;stroke-width:0.5;stroke-dasharray:2.0,2.0;" x1="78.5" x2="314" y1="293.9248" y2="293.9248"/><text fill="#000000" font-family="sans-serif" font-size="6.5" font-weight="bold" lengthAdjust="spacing" textLength="12.5" x="84.5" y="291.2935">7.13</text><text fill="#000000" font-family="sans-serif" font-size="6.5" lengthAdjust="spacing" textLength="35" x="99" y="291.2935">teamListDto</text><polygon fill="#181818" points="5.5,311.0703,0.5,313.0703,5.5,315.0703,3.5,313.0703" style="stroke:#181818;stroke-width:0.5;"/><line style="stroke:#181818;stroke-width:0.5;stroke-dasharray:2.0,2.0;" x1="2.5" x2="73" y1="313.0703" y2="313.0703"/><text fill="#000000" font-family="sans-serif" font-size="6.5" font-weight="bold" lengthAdjust="spacing" textLength="3.5" x="8.5" y="310.439">8</text><text fill="#000000" font-family="sans-serif" font-size="6.5" lengthAdjust="spacing" textLength="35" x="14" y="310.439">teamListDto</text><!--SRC=[ZLJ9QkGm4BthAufSia0Fv9J1X438HY1XchQFkIXsnIrYIqPIpqp-VhHuaMIxCpuPrzkgLBBwPBoZahRG2YxAlHGjWfO796giTBJyf3Nc-gj1a5Xgokic1AWzhSGVnclue8r2GkX12tvetr4IShfd5SA74FfT_2N4C3GhMKUvXfFiLYbMym9fUoUubg9fK9u0LN1Nx5uIx0uxePWMag5ocDt3DeR80F765mbvpD36UOHzPMykolJ1iM9C4ihYNsdNzR4jzlLskttOpNtkjJ2X2lysek-BNtFe2rFQm-tRTS-v6KckReZ1eE6A4DZSkC511ZLgor8zykmyWlwu9BJKx3VLw2SDvgcbE7JmX1ei4umXM3PnnU5nyiR6ZDAxF7Dbzg54un3YHdbxI575CZTzq0p28ujW5QvB127ogTVfZ8vaoMTXyY1DSjJhUVBbGCaw3Sdi6DSo9POHAAwDEI4Rbs0juZ7LCApVLQCdp9Auc8FoaRZzWaU08Qwl3VBzzbrScCYbH2DWnZ3ZDK9qy2WacFnxnmF6fnR_myTu-9aKjW_Nm_cC5lNWRi-Ii2cuGKVJyVTlXay6lggvE9GCQ5MTzTBVf1tlUuf2NYrRzep5Llg_otVjB9g6xSpNCLLD5CF5iSbTdzDlwQVxSBtPUDb4Dz1olwn_]--></g></svg>