<?xml version="1.0" encoding="us-ascii" standalone="no"?><svg xmlns="http://www.w3.org/2000/svg" xmlns:xlink="http://www.w3.org/1999/xlink" contentStyleType="text/css" height="166.8px" preserveAspectRatio="none" style="width:224px;height:166px;background:#FFFFFF;" version="1.1" viewBox="0 0 224 166" width="224.8px" zoomAndPan="magnify"><defs/><g><rect fill="#FFFFFF" height="100.9313" style="stroke:#181818;stroke-width:0.4000000000000001;" width="4" x="68.8" y="36.2133"/><rect fill="#FFFFFF" height="12.5164" style="stroke:#181818;stroke-width:0.4000000000000001;" width="4" x="123.8" y="59.2461"/><rect fill="#FFFFFF" height="12.5164" style="stroke:#181818;stroke-width:0.4000000000000001;" width="4" x="166.6" y="84.2789"/><rect fill="#FFFFFF" height="12.5164" style="stroke:#181818;stroke-width:0.4000000000000001;" width="4" x="203.2" y="109.3117"/><rect fill="none" height="82.8148" style="stroke:#000000;stroke-width:0.6000000000000001;" width="187.2" x="35.2" y="42.2133"/><line style="stroke:#181818;stroke-width:0.20000000000000004;stroke-dasharray:5.0,5.0;" x1="70.8" x2="70.8" y1="22.8969" y2="144.3445"/><line style="stroke:#181818;stroke-width:0.20000000000000004;stroke-dasharray:5.0,5.0;" x1="125.6" x2="125.6" y1="22.8969" y2="144.3445"/><line style="stroke:#181818;stroke-width:0.20000000000000004;stroke-dasharray:5.0,5.0;" x1="168.4" x2="168.4" y1="22.8969" y2="144.3445"/><line style="stroke:#181818;stroke-width:0.20000000000000004;stroke-dasharray:5.0,5.0;" x1="205.2" x2="205.2" y1="22.8969" y2="144.3445"/><rect fill="#E3E3E3" height="13.0484" rx="1" ry="1" style="stroke:#181818;stroke-width:0.20000000000000004;" width="63.2" x="39.2" y="9.4484"/><text fill="#000000" font-family="sans-serif" font-size="5.6" lengthAdjust="spacing" textLength="57.6" x="42" y="18.2914">:AssignTeamController</text><rect fill="#E3E3E3" height="13.0484" rx="1" ry="1" style="stroke:#181818;stroke-width:0.20000000000000004;" width="63.2" x="39.2" y="143.9445"/><text fill="#000000" font-family="sans-serif" font-size="5.6" lengthAdjust="spacing" textLength="57.6" x="42" y="152.7875">:AssignTeamController</text><rect fill="#E3E3E3" height="13.0484" rx="1" ry="1" style="stroke:#181818;stroke-width:0.20000000000000004;" width="38.8" x="106.4" y="9.4484"/><text fill="#000000" font-family="sans-serif" font-size="5.6" lengthAdjust="spacing" textLength="33.2" x="109.2" y="18.2914">:Repositories</text><rect fill="#E3E3E3" height="13.0484" rx="1" ry="1" style="stroke:#181818;stroke-width:0.20000000000000004;" width="38.8" x="106.4" y="143.9445"/><text fill="#000000" font-family="sans-serif" font-size="5.6" lengthAdjust="spacing" textLength="33.2" x="109.2" y="152.7875">:Repositories</text><rect fill="#E3E3E3" height="20.4969" rx="1" ry="1" style="stroke:#181818;stroke-width:0.20000000000000004;" width="38.8" x="149.2" y="2"/><text fill="#000000" font-family="sans-serif" font-size="5.6" lengthAdjust="spacing" textLength="29.6" x="153.8" y="10.843">repositories</text><text fill="#000000" font-family="sans-serif" font-size="5.6" lengthAdjust="spacing" textLength="33.2" x="152" y="18.2914">:Repositories</text><rect fill="#E3E3E3" height="20.4969" rx="1" ry="1" style="stroke:#181818;stroke-width:0.20000000000000004;" width="38.8" x="149.2" y="143.9445"/><text fill="#000000" font-family="sans-serif" font-size="5.6" lengthAdjust="spacing" textLength="29.6" x="153.8" y="152.7875">repositories</text><text fill="#000000" font-family="sans-serif" font-size="5.6" lengthAdjust="spacing" textLength="33.2" x="152" y="160.2359">:Repositories</text><rect fill="#E3E3E3" height="20.4969" rx="1" ry="1" style="stroke:#181818;stroke-width:0.20000000000000004;" width="26.4" x="192" y="2"/><text fill="#000000" font-family="sans-serif" font-size="5.6" lengthAdjust="spacing" textLength="20.8" x="194.8" y="10.843">agenda:</text><text fill="#000000" font-family="sans-serif" font-size="5.6" lengthAdjust="spacing" textLength="19.6" x="195.4" y="18.2914">Agenda</text><rect fill="#E3E3E3" height="20.4969" rx="1" ry="1" style="stroke:#181818;stroke-width:0.20000000000000004;" width="26.4" x="192" y="143.9445"/><text fill="#000000" font-family="sans-serif" font-size="5.6" lengthAdjust="spacing" textLength="20.8" x="194.8" y="152.7875">agenda:</text><text fill="#000000" font-family="sans-serif" font-size="5.6" lengthAdjust="spacing" textLength="19.6" x="195.4" y="160.2359">Agenda</text><rect fill="#FFFFFF" height="100.9313" style="stroke:#181818;stroke-width:0.4000000000000001;" width="4" x="68.8" y="36.2133"/><rect fill="#FFFFFF" height="12.5164" style="stroke:#181818;stroke-width:0.4000000000000001;" width="4" x="123.8" y="59.2461"/><rect fill="#FFFFFF" height="12.5164" style="stroke:#181818;stroke-width:0.4000000000000001;" width="4" x="166.6" y="84.2789"/><rect fill="#FFFFFF" height="12.5164" style="stroke:#181818;stroke-width:0.4000000000000001;" width="4" x="203.2" y="109.3117"/><polygon fill="#181818" points="64,34.6133,68,36.2133,64,37.8133,65.6,36.2133" style="stroke:#181818;stroke-width:0.4000000000000001;"/><line style="stroke:#181818;stroke-width:0.4000000000000001;" x1="0" x2="66.4" y1="36.2133" y2="36.2133"/><text fill="#000000" font-family="sans-serif" font-size="5.2" font-weight="bold" lengthAdjust="spacing" textLength="5.6" x="2.8" y="34.1082">14</text><text fill="#000000" font-family="sans-serif" font-size="5.2" lengthAdjust="spacing" textLength="54" x="10" y="34.1082">getEntryByIndex(index)</text><path d="M35.2,42.2133 L94.4,42.2133 L94.4,45.9297 L90.4,49.9297 L35.2,49.9297 L35.2,42.2133 " fill="#EEEEEE" style="stroke:#000000;stroke-width:0.6000000000000001;"/><rect fill="none" height="82.8148" style="stroke:#000000;stroke-width:0.6000000000000001;" width="187.2" x="35.2" y="42.2133"/><text fill="#000000" font-family="sans-serif" font-size="5.2" font-weight="bold" lengthAdjust="spacing" textLength="41.2" x="41.2" y="48.2246">Get Entry Object</text><polygon fill="#181818" points="119,57.6461,123,59.2461,119,60.8461,120.6,59.2461" style="stroke:#181818;stroke-width:0.4000000000000001;"/><line style="stroke:#181818;stroke-width:0.4000000000000001;" x1="72.8" x2="121.4" y1="59.2461" y2="59.2461"/><text fill="#000000" font-family="sans-serif" font-size="5.2" font-weight="bold" lengthAdjust="spacing" textLength="10" x="75.6" y="57.141">14.1</text><text fill="#000000" font-family="sans-serif" font-size="5.2" lengthAdjust="spacing" textLength="30" x="87.2" y="57.141">getInstance()</text><polygon fill="#181818" points="77.2,70.1625,73.2,71.7625,77.2,73.3625,75.6,71.7625" style="stroke:#181818;stroke-width:0.4000000000000001;"/><line style="stroke:#181818;stroke-width:0.4000000000000001;stroke-dasharray:2.0,2.0;" x1="74.8" x2="125.4" y1="71.7625" y2="71.7625"/><text fill="#000000" font-family="sans-serif" font-size="5.2" font-weight="bold" lengthAdjust="spacing" textLength="10" x="79.6" y="69.6574">14.2</text><text fill="#000000" font-family="sans-serif" font-size="5.2" lengthAdjust="spacing" textLength="26.8" x="91.2" y="69.6574">repositories</text><polygon fill="#181818" points="161.8,82.6789,165.8,84.2789,161.8,85.8789,163.4,84.2789" style="stroke:#181818;stroke-width:0.4000000000000001;"/><line style="stroke:#181818;stroke-width:0.4000000000000001;" x1="72.8" x2="164.2" y1="84.2789" y2="84.2789"/><text fill="#000000" font-family="sans-serif" font-size="5.2" font-weight="bold" lengthAdjust="spacing" textLength="10" x="75.6" y="82.1738">14.3</text><text fill="#000000" font-family="sans-serif" font-size="5.2" lengthAdjust="spacing" textLength="28" x="87.2" y="82.1738">getAgenda()</text><polygon fill="#181818" points="77.2,95.1953,73.2,96.7953,77.2,98.3953,75.6,96.7953" style="stroke:#181818;stroke-width:0.4000000000000001;"/><line style="stroke:#181818;stroke-width:0.4000000000000001;stroke-dasharray:2.0,2.0;" x1="74.8" x2="168.2" y1="96.7953" y2="96.7953"/><text fill="#000000" font-family="sans-serif" font-size="5.2" font-weight="bold" lengthAdjust="spacing" textLength="10" x="79.6" y="94.6902">14.4</text><text fill="#000000" font-family="sans-serif" font-size="5.2" lengthAdjust="spacing" textLength="16.8" x="91.2" y="94.6902">agenda</text><polygon fill="#181818" points="198.4,107.7117,202.4,109.3117,198.4,110.9117,200,109.3117" style="stroke:#181818;stroke-width:0.4000000000000001;"/><line style="stroke:#181818;stroke-width:0.4000000000000001;" x1="72.8" x2="200.8" y1="109.3117" y2="109.3117"/><text fill="#000000" font-family="sans-serif" font-size="5.2" font-weight="bold" lengthAdjust="spacing" textLength="10" x="75.6" y="107.2066">14.5</text><text fill="#000000" font-family="sans-serif" font-size="5.2" lengthAdjust="spacing" textLength="54" x="87.2" y="107.2066">getEntryByIndex(index)</text><polygon fill="#181818" points="77.2,120.2281,73.2,121.8281,77.2,123.4281,75.6,121.8281" style="stroke:#181818;stroke-width:0.4000000000000001;"/><line style="stroke:#181818;stroke-width:0.4000000000000001;stroke-dasharray:2.0,2.0;" x1="74.8" x2="204.8" y1="121.8281" y2="121.8281"/><text fill="#000000" font-family="sans-serif" font-size="5.2" font-weight="bold" lengthAdjust="spacing" textLength="10" x="79.6" y="119.723">14.6</text><text fill="#000000" font-family="sans-serif" font-size="5.2" lengthAdjust="spacing" textLength="11.6" x="91.2" y="119.723">entry</text><polygon fill="#181818" points="4.4,135.5445,0.4,137.1445,4.4,138.7445,2.8,137.1445" style="stroke:#181818;stroke-width:0.4000000000000001;"/><line style="stroke:#181818;stroke-width:0.4000000000000001;stroke-dasharray:2.0,2.0;" x1="2" x2="70.4" y1="137.1445" y2="137.1445"/><text fill="#000000" font-family="sans-serif" font-size="5.2" font-weight="bold" lengthAdjust="spacing" textLength="5.6" x="6.8" y="135.0395">15</text><text fill="#000000" font-family="sans-serif" font-size="5.2" lengthAdjust="spacing" textLength="11.6" x="14" y="135.0395">entry</text><!--SRC=[VP71Ri8m38RlUGgBo-3GIKZRfPecCOGcf4cRA4SkfZKbeush9DtWxHTIGCdMBeSsid_RNtwRWrGDQgoXPiNvNdDDO7LBmjmo3UO7B2cpfuf0KsvHbLKeC7ii-5kg4dPO6H82MykghRUaXRZRou9WnsotV1J2LLYPomQLXL4wCqQMQarOprbPpLL5UWHeOBvUlVtIhgXX8orhISPhLekFMA83nKRr5cHnXNkMAZ3Tg9c_U5KN2ny1qmSX87dsL912INRXQ4ylfwKgw3YMv-yaBhYV2ioj_49BtMF0dL9psy0hMV3ryBxzT7OAdxiUFyFDSh1-qb8PPtXEuqaakpK_kn1bN02I2smAeIUHhA3X5W53vY4wU_v1oFumP074nTBXyLd__CjwXWplXRckBqhwM014vsv3F647T_F_SBUFFlAK91qdNDi5BVp6Vm00]--></g></svg>