<?xml version="1.0" encoding="us-ascii" standalone="no"?><svg xmlns="http://www.w3.org/2000/svg" xmlns:xlink="http://www.w3.org/1999/xlink" contentStyleType="text/css" height="216.8px" preserveAspectRatio="none" style="width:392px;height:216px;background:#FFFFFF;" version="1.1" viewBox="0 0 392 216" width="392px" zoomAndPan="magnify"><defs/><g><rect fill="#FFFFFF" height="150.9969" style="stroke:#181818;stroke-width:0.4000000000000001;" width="4" x="81.2" y="36.2133"/><rect fill="#FFFFFF" height="12.5164" style="stroke:#181818;stroke-width:0.4000000000000001;" width="4" x="140.2" y="59.2461"/><rect fill="#FFFFFF" height="12.5164" style="stroke:#181818;stroke-width:0.4000000000000001;" width="4" x="183" y="84.2789"/><rect fill="#FFFFFF" height="12.5164" style="stroke:#181818;stroke-width:0.4000000000000001;" width="4" x="241.4" y="109.3117"/><rect fill="#FFFFFF" height="12.5164" style="stroke:#181818;stroke-width:0.4000000000000001;" width="4" x="311.4" y="134.3445"/><rect fill="#FFFFFF" height="12.5164" style="stroke:#181818;stroke-width:0.4000000000000001;" width="4" x="365" y="159.3773"/><rect fill="none" height="132.8805" style="stroke:#000000;stroke-width:0.6000000000000001;" width="346" x="43.6" y="42.2133"/><line style="stroke:#181818;stroke-width:0.20000000000000004;stroke-dasharray:5.0,5.0;" x1="83.2" x2="83.2" y1="22.8969" y2="194.4102"/><line style="stroke:#181818;stroke-width:0.20000000000000004;stroke-dasharray:5.0,5.0;" x1="142" x2="142" y1="22.8969" y2="194.4102"/><line style="stroke:#181818;stroke-width:0.20000000000000004;stroke-dasharray:5.0,5.0;" x1="184.8" x2="184.8" y1="22.8969" y2="194.4102"/><line style="stroke:#181818;stroke-width:0.20000000000000004;stroke-dasharray:5.0,5.0;" x1="243.2" x2="243.2" y1="22.8969" y2="194.4102"/><line style="stroke:#181818;stroke-width:0.20000000000000004;stroke-dasharray:5.0,5.0;" x1="313.2" x2="313.2" y1="22.8969" y2="194.4102"/><line style="stroke:#181818;stroke-width:0.20000000000000004;stroke-dasharray:5.0,5.0;" x1="366.8" x2="366.8" y1="22.8969" y2="194.4102"/><rect fill="#E3E3E3" height="13.0484" rx="1" ry="1" style="stroke:#181818;stroke-width:0.20000000000000004;" width="71.2" x="47.6" y="9.4484"/><text fill="#000000" font-family="sans-serif" font-size="5.6" lengthAdjust="spacing" textLength="65.6" x="50.4" y="18.2914">:AssignVehiclesControlller</text><rect fill="#E3E3E3" height="13.0484" rx="1" ry="1" style="stroke:#181818;stroke-width:0.20000000000000004;" width="71.2" x="47.6" y="194.0102"/><text fill="#000000" font-family="sans-serif" font-size="5.6" lengthAdjust="spacing" textLength="65.6" x="50.4" y="202.8531">:AssignVehiclesControlller</text><rect fill="#E3E3E3" height="13.0484" rx="1" ry="1" style="stroke:#181818;stroke-width:0.20000000000000004;" width="38.8" x="122.8" y="9.4484"/><text fill="#000000" font-family="sans-serif" font-size="5.6" lengthAdjust="spacing" textLength="33.2" x="125.6" y="18.2914">:Repositories</text><rect fill="#E3E3E3" height="13.0484" rx="1" ry="1" style="stroke:#181818;stroke-width:0.20000000000000004;" width="38.8" x="122.8" y="194.0102"/><text fill="#000000" font-family="sans-serif" font-size="5.6" lengthAdjust="spacing" textLength="33.2" x="125.6" y="202.8531">:Repositories</text><rect fill="#E3E3E3" height="20.4969" rx="1" ry="1" style="stroke:#181818;stroke-width:0.20000000000000004;" width="38.8" x="165.6" y="2"/><text fill="#000000" font-family="sans-serif" font-size="5.6" lengthAdjust="spacing" textLength="29.6" x="170.2" y="10.843">repositories</text><text fill="#000000" font-family="sans-serif" font-size="5.6" lengthAdjust="spacing" textLength="33.2" x="168.4" y="18.2914">:Repositories</text><rect fill="#E3E3E3" height="20.4969" rx="1" ry="1" style="stroke:#181818;stroke-width:0.20000000000000004;" width="38.8" x="165.6" y="194.0102"/><text fill="#000000" font-family="sans-serif" font-size="5.6" lengthAdjust="spacing" textLength="29.6" x="170.2" y="202.8531">repositories</text><text fill="#000000" font-family="sans-serif" font-size="5.6" lengthAdjust="spacing" textLength="33.2" x="168.4" y="210.3016">:Repositories</text><rect fill="#E3E3E3" height="20.4969" rx="1" ry="1" style="stroke:#181818;stroke-width:0.20000000000000004;" width="70" x="208.4" y="2"/><text fill="#000000" font-family="sans-serif" font-size="5.6" lengthAdjust="spacing" textLength="64.4" x="211.2" y="10.843">authenticationRepository:</text><text fill="#000000" font-family="sans-serif" font-size="5.6" lengthAdjust="spacing" textLength="63.2" x="211.8" y="18.2914">AuthenticationRepository</text><rect fill="#E3E3E3" height="20.4969" rx="1" ry="1" style="stroke:#181818;stroke-width:0.20000000000000004;" width="70" x="208.4" y="194.0102"/><text fill="#000000" font-family="sans-serif" font-size="5.6" lengthAdjust="spacing" textLength="64.4" x="211.2" y="202.8531">authenticationRepository:</text><text fill="#000000" font-family="sans-serif" font-size="5.6" lengthAdjust="spacing" textLength="63.2" x="211.8" y="210.3016">AuthenticationRepository</text><rect fill="#E3E3E3" height="20.4969" rx="1" ry="1" style="stroke:#181818;stroke-width:0.20000000000000004;" width="62" x="282.4" y="2"/><text fill="#000000" font-family="sans-serif" font-size="5.6" lengthAdjust="spacing" textLength="56.4" x="285.2" y="10.843">authenticationFacade:</text><text fill="#000000" font-family="sans-serif" font-size="5.6" lengthAdjust="spacing" textLength="30.8" x="298" y="18.2914">AuthFacade</text><rect fill="#E3E3E3" height="20.4969" rx="1" ry="1" style="stroke:#181818;stroke-width:0.20000000000000004;" width="62" x="282.4" y="194.0102"/><text fill="#000000" font-family="sans-serif" font-size="5.6" lengthAdjust="spacing" textLength="56.4" x="285.2" y="202.8531">authenticationFacade:</text><text fill="#000000" font-family="sans-serif" font-size="5.6" lengthAdjust="spacing" textLength="30.8" x="298" y="210.3016">AuthFacade</text><rect fill="#E3E3E3" height="20.4969" rx="1" ry="1" style="stroke:#181818;stroke-width:0.20000000000000004;" width="37.2" x="348.4" y="2"/><text fill="#000000" font-family="sans-serif" font-size="5.6" lengthAdjust="spacing" textLength="12.8" x="360.6" y="10.843">user:</text><text fill="#000000" font-family="sans-serif" font-size="5.6" lengthAdjust="spacing" textLength="31.6" x="351.2" y="18.2914">UserSession</text><rect fill="#E3E3E3" height="20.4969" rx="1" ry="1" style="stroke:#181818;stroke-width:0.20000000000000004;" width="37.2" x="348.4" y="194.0102"/><text fill="#000000" font-family="sans-serif" font-size="5.6" lengthAdjust="spacing" textLength="12.8" x="360.6" y="202.8531">user:</text><text fill="#000000" font-family="sans-serif" font-size="5.6" lengthAdjust="spacing" textLength="31.6" x="351.2" y="210.3016">UserSession</text><rect fill="#FFFFFF" height="150.9969" style="stroke:#181818;stroke-width:0.4000000000000001;" width="4" x="81.2" y="36.2133"/><rect fill="#FFFFFF" height="12.5164" style="stroke:#181818;stroke-width:0.4000000000000001;" width="4" x="140.2" y="59.2461"/><rect fill="#FFFFFF" height="12.5164" style="stroke:#181818;stroke-width:0.4000000000000001;" width="4" x="183" y="84.2789"/><rect fill="#FFFFFF" height="12.5164" style="stroke:#181818;stroke-width:0.4000000000000001;" width="4" x="241.4" y="109.3117"/><rect fill="#FFFFFF" height="12.5164" style="stroke:#181818;stroke-width:0.4000000000000001;" width="4" x="311.4" y="134.3445"/><rect fill="#FFFFFF" height="12.5164" style="stroke:#181818;stroke-width:0.4000000000000001;" width="4" x="365" y="159.3773"/><polygon fill="#181818" points="76.4,34.6133,80.4,36.2133,76.4,37.8133,78,36.2133" style="stroke:#181818;stroke-width:0.4000000000000001;"/><line style="stroke:#181818;stroke-width:0.4000000000000001;" x1="0" x2="78.8" y1="36.2133" y2="36.2133"/><text fill="#000000" font-family="sans-serif" font-size="5.2" font-weight="bold" lengthAdjust="spacing" textLength="5.6" x="2.8" y="34.1082">20</text><text fill="#000000" font-family="sans-serif" font-size="5.2" lengthAdjust="spacing" textLength="66.4" x="10" y="34.1082">getEmailGSMFromSession()</text><path d="M43.6,42.2133 L100,42.2133 L100,45.9297 L96,49.9297 L43.6,49.9297 L43.6,42.2133 " fill="#EEEEEE" style="stroke:#000000;stroke-width:0.6000000000000001;"/><rect fill="none" height="132.8805" style="stroke:#000000;stroke-width:0.6000000000000001;" width="346" x="43.6" y="42.2133"/><text fill="#000000" font-family="sans-serif" font-size="5.2" font-weight="bold" lengthAdjust="spacing" textLength="38.4" x="49.6" y="48.2246">Get GSM Email</text><polygon fill="#181818" points="135.4,57.6461,139.4,59.2461,135.4,60.8461,137,59.2461" style="stroke:#181818;stroke-width:0.4000000000000001;"/><line style="stroke:#181818;stroke-width:0.4000000000000001;" x1="85.2" x2="137.8" y1="59.2461" y2="59.2461"/><text fill="#000000" font-family="sans-serif" font-size="5.2" font-weight="bold" lengthAdjust="spacing" textLength="10" x="88" y="57.141">20.1</text><text fill="#000000" font-family="sans-serif" font-size="5.2" lengthAdjust="spacing" textLength="30" x="99.6" y="57.141">getInstance()</text><polygon fill="#181818" points="89.6,70.1625,85.6,71.7625,89.6,73.3625,88,71.7625" style="stroke:#181818;stroke-width:0.4000000000000001;"/><line style="stroke:#181818;stroke-width:0.4000000000000001;stroke-dasharray:2.0,2.0;" x1="87.2" x2="141.8" y1="71.7625" y2="71.7625"/><text fill="#000000" font-family="sans-serif" font-size="5.2" font-weight="bold" lengthAdjust="spacing" textLength="10" x="92" y="69.6574">20.2</text><text fill="#000000" font-family="sans-serif" font-size="5.2" lengthAdjust="spacing" textLength="26.8" x="103.6" y="69.6574">repositories</text><polygon fill="#181818" points="178.2,82.6789,182.2,84.2789,178.2,85.8789,179.8,84.2789" style="stroke:#181818;stroke-width:0.4000000000000001;"/><line style="stroke:#181818;stroke-width:0.4000000000000001;" x1="85.2" x2="180.6" y1="84.2789" y2="84.2789"/><text fill="#000000" font-family="sans-serif" font-size="5.2" font-weight="bold" lengthAdjust="spacing" textLength="10" x="88" y="82.1738">20.3</text><text fill="#000000" font-family="sans-serif" font-size="5.2" lengthAdjust="spacing" textLength="68.4" x="99.6" y="82.1738">getAuthenticationRepository()</text><polygon fill="#181818" points="89.6,95.1953,85.6,96.7953,89.6,98.3953,88,96.7953" style="stroke:#181818;stroke-width:0.4000000000000001;"/><line style="stroke:#181818;stroke-width:0.4000000000000001;stroke-dasharray:2.0,2.0;" x1="87.2" x2="184.6" y1="96.7953" y2="96.7953"/><text fill="#000000" font-family="sans-serif" font-size="5.2" font-weight="bold" lengthAdjust="spacing" textLength="10" x="92" y="94.6902">20.4</text><text fill="#000000" font-family="sans-serif" font-size="5.2" lengthAdjust="spacing" textLength="57.2" x="103.6" y="94.6902">authenticationRepository</text><polygon fill="#181818" points="236.6,107.7117,240.6,109.3117,236.6,110.9117,238.2,109.3117" style="stroke:#181818;stroke-width:0.4000000000000001;"/><line style="stroke:#181818;stroke-width:0.4000000000000001;" x1="85.2" x2="239" y1="109.3117" y2="109.3117"/><text fill="#000000" font-family="sans-serif" font-size="5.2" font-weight="bold" lengthAdjust="spacing" textLength="10" x="88" y="107.2066">20.5</text><text fill="#000000" font-family="sans-serif" font-size="5.2" lengthAdjust="spacing" textLength="56.8" x="99.6" y="107.2066">getCurrentUserSession()</text><polygon fill="#181818" points="89.6,120.2281,85.6,121.8281,89.6,123.4281,88,121.8281" style="stroke:#181818;stroke-width:0.4000000000000001;"/><line style="stroke:#181818;stroke-width:0.4000000000000001;stroke-dasharray:2.0,2.0;" x1="87.2" x2="243" y1="121.8281" y2="121.8281"/><text fill="#000000" font-family="sans-serif" font-size="5.2" font-weight="bold" lengthAdjust="spacing" textLength="10" x="92" y="119.723">20.6</text><text fill="#000000" font-family="sans-serif" font-size="5.2" lengthAdjust="spacing" textLength="49.6" x="103.6" y="119.723">authenticationFacade</text><polygon fill="#181818" points="306.6,132.7445,310.6,134.3445,306.6,135.9445,308.2,134.3445" style="stroke:#181818;stroke-width:0.4000000000000001;"/><line style="stroke:#181818;stroke-width:0.4000000000000001;" x1="85.2" x2="309" y1="134.3445" y2="134.3445"/><text fill="#000000" font-family="sans-serif" font-size="5.2" font-weight="bold" lengthAdjust="spacing" textLength="10" x="88" y="132.2395">20.7</text><text fill="#000000" font-family="sans-serif" font-size="5.2" lengthAdjust="spacing" textLength="56.8" x="99.6" y="132.2395">getCurrentUserSession()</text><polygon fill="#181818" points="89.6,145.2609,85.6,146.8609,89.6,148.4609,88,146.8609" style="stroke:#181818;stroke-width:0.4000000000000001;"/><line style="stroke:#181818;stroke-width:0.4000000000000001;stroke-dasharray:2.0,2.0;" x1="87.2" x2="313" y1="146.8609" y2="146.8609"/><text fill="#000000" font-family="sans-serif" font-size="5.2" font-weight="bold" lengthAdjust="spacing" textLength="10" x="92" y="144.7559">20.8</text><text fill="#000000" font-family="sans-serif" font-size="5.2" lengthAdjust="spacing" textLength="28.8" x="103.6" y="144.7559">userSession</text><polygon fill="#181818" points="360.2,157.7773,364.2,159.3773,360.2,160.9773,361.8,159.3773" style="stroke:#181818;stroke-width:0.4000000000000001;"/><line style="stroke:#181818;stroke-width:0.4000000000000001;" x1="85.2" x2="362.6" y1="159.3773" y2="159.3773"/><text fill="#000000" font-family="sans-serif" font-size="5.2" font-weight="bold" lengthAdjust="spacing" textLength="10" x="88" y="157.2723">20.9</text><text fill="#000000" font-family="sans-serif" font-size="5.2" lengthAdjust="spacing" textLength="25.2" x="99.6" y="157.2723">getUserId()</text><polygon fill="#181818" points="89.6,170.2938,85.6,171.8938,89.6,173.4938,88,171.8938" style="stroke:#181818;stroke-width:0.4000000000000001;"/><line style="stroke:#181818;stroke-width:0.4000000000000001;stroke-dasharray:2.0,2.0;" x1="87.2" x2="366.6" y1="171.8938" y2="171.8938"/><text fill="#000000" font-family="sans-serif" font-size="5.2" font-weight="bold" lengthAdjust="spacing" textLength="12.8" x="92" y="169.7887">20.10</text><text fill="#000000" font-family="sans-serif" font-size="5.2" lengthAdjust="spacing" textLength="12.4" x="106.4" y="169.7887">email</text><polygon fill="#181818" points="4.4,185.6102,0.4,187.2102,4.4,188.8102,2.8,187.2102" style="stroke:#181818;stroke-width:0.4000000000000001;"/><line style="stroke:#181818;stroke-width:0.4000000000000001;stroke-dasharray:2.0,2.0;" x1="2" x2="82.8" y1="187.2102" y2="187.2102"/><text fill="#000000" font-family="sans-serif" font-size="5.2" font-weight="bold" lengthAdjust="spacing" textLength="5.6" x="6.8" y="185.1051">21</text><text fill="#000000" font-family="sans-serif" font-size="5.2" lengthAdjust="spacing" textLength="12.4" x="14" y="185.1051">email</text><!--SRC=[bPF1JiCm38RlUGfh5-1Gn3XM20bDspG99BG2frsorckZjKcLfC3UdZJjkcHRAj5B5Tl_xo-9e_QCrrJI2Yh1HLf8KI5esI1HGwQcwPxccEX3YI0nrPJdfLkW2fg97yPpsD5I8I6qqO8trHOb8JS5on1sGkYj-2N4A3HBMKsvXadyeXJB-HSMB2rHpGJNKfHbYN82LC7iO_rw9bXZBHJJGZ9KjcOzV_TBf5EnuLS5YQymj0LoiwQQ2Ju83l66lmHIridNZNakQ4epxFswnU3GBNrrer2Qwa_pIz0SaU2sl0sxXmkF3uH0z6mF2cB8KSyhoifbyhOm5zbBR-zyoVsKq5IpRwgnEs4mNov5KyCIDHWnM1TY4yVFjZ2jpF7PHYkkp1oaQDpTii6vlHSlOm8GzQmnkBVabMKOjd0O4WiHkfuHgEI2Ad6mGgCmWfXSP_ITBEsiaTA4d5iDSPvDbb_avOBi_LW5kCSQk3le1_V_z7tx2_8kxb0t9xyns6j-Hr3xMbh4bcsLXR2wr-EcseY3WdRg0n0dDVACzDiP7jNKHfwYg8E2evbZO9_Q7m00]--></g></svg>