<?xml version="1.0" encoding="us-ascii" standalone="no"?><svg xmlns="http://www.w3.org/2000/svg" xmlns:xlink="http://www.w3.org/1999/xlink" contentStyleType="text/css" height="664px" preserveAspectRatio="none" style="width:250px;height:664px;background:#FFFFFF;" version="1.1" viewBox="0 0 250 664" width="250px" zoomAndPan="magnify"><defs/><g><text fill="#000000" font-family="sans-serif" font-size="14" font-weight="bold" lengthAdjust="spacing" textLength="156" x="40.25" y="25.1074">Domain Model - US023</text><!--class Organization--><g id="elem_Organization"><rect codeLine="12" fill="#F1F1F1" height="36.6211" id="Organization" rx="2.5" ry="2.5" style="stroke:#181818;stroke-width:0.5;" width="86" x="102.5" y="46.6211"/><text fill="#000000" font-family="sans-serif" font-size="14" lengthAdjust="spacing" textLength="80" x="105.5" y="66.7285">Organization</text><line style="stroke:#181818;stroke-width:0.5;" x1="103.5" x2="187.5" y1="75.2422" y2="75.2422"/></g><!--class GreenSpacesManager--><g id="elem_GreenSpacesManager"><rect codeLine="15" fill="#F1F1F1" height="55.2422" id="GreenSpacesManager" rx="2.5" ry="2.5" style="stroke:#181818;stroke-width:0.5;" width="149" x="7" y="162.6211"/><text fill="#000000" font-family="sans-serif" font-size="14" lengthAdjust="spacing" textLength="143" x="10" y="182.7285">GreenSpacesManager</text><line style="stroke:#181818;stroke-width:0.5;" x1="8" x2="155" y1="191.2422" y2="191.2422"/><text fill="#000000" font-family="sans-serif" font-size="14" lengthAdjust="spacing" textLength="33" x="13" y="210.3496">email</text></g><!--class Agenda--><g id="elem_Agenda"><rect codeLine="19" fill="#F1F1F1" height="36.6211" id="Agenda" rx="2.5" ry="2.5" style="stroke:#181818;stroke-width:0.5;" width="55" x="182" y="247.6211"/><text fill="#000000" font-family="sans-serif" font-size="14" lengthAdjust="spacing" textLength="49" x="185" y="267.7285">Agenda</text><line style="stroke:#181818;stroke-width:0.5;" x1="183" x2="236" y1="276.2422" y2="276.2422"/></g><!--class Entry--><g id="elem_Entry"><rect codeLine="22" fill="#F1F1F1" height="92.4844" id="Entry" rx="2.5" ry="2.5" style="stroke:#181818;stroke-width:0.5;" width="89" x="112" y="564.6211"/><text fill="#000000" font-family="sans-serif" font-size="14" lengthAdjust="spacing" textLength="33" x="140" y="584.7285">Entry</text><line style="stroke:#181818;stroke-width:0.5;" x1="113" x2="200" y1="593.2422" y2="593.2422"/><text fill="#000000" font-family="sans-serif" font-size="14" lengthAdjust="spacing" textLength="77" x="118" y="612.3496">startingDate</text><text fill="#000000" font-family="sans-serif" font-size="14" lengthAdjust="spacing" textLength="38" x="118" y="630.9707">status</text><text fill="#000000" font-family="sans-serif" font-size="14" lengthAdjust="spacing" textLength="26" x="118" y="649.5918">task</text></g><!--class Team--><g id="elem_Team"><rect codeLine="28" fill="#F1F1F1" height="55.2422" id="Team" rx="2.5" ry="2.5" style="stroke:#181818;stroke-width:0.5;" width="94" x="57.5" y="430.6211"/><text fill="#000000" font-family="sans-serif" font-size="14" lengthAdjust="spacing" textLength="36" x="86.5" y="450.7285">Team</text><line style="stroke:#181818;stroke-width:0.5;" x1="58.5" x2="150.5" y1="459.2422" y2="459.2422"/><text fill="#000000" font-family="sans-serif" font-size="14" lengthAdjust="spacing" textLength="82" x="63.5" y="478.3496">collaborators</text></g><!--class Email--><g id="elem_Email"><rect codeLine="32" fill="#F1F1F1" height="36.6211" id="Email" rx="2.5" ry="2.5" style="stroke:#181818;stroke-width:0.5;" width="40" x="105.5" y="314.6211"/><text fill="#000000" font-family="sans-serif" font-size="14" lengthAdjust="spacing" textLength="34" x="108.5" y="334.7285">Email</text><line style="stroke:#181818;stroke-width:0.5;" x1="106.5" x2="144.5" y1="343.2422" y2="343.2422"/></g><!--link Organization to GreenSpacesManager--><g id="link_Organization_GreenSpacesManager"><path codeLine="35" d="M136.33,83.7411 C125.62,104.3411 107.78,138.6211 95.37,162.4711 " fill="none" id="Organization-GreenSpacesManager" style="stroke:#181818;stroke-width:1.0;"/><polygon fill="#000000" points="121.1923,127.7022,127.9741,121.0345,122.7598,118.3217,121.1923,127.7022" style="stroke:#000000;stroke-width:1.0;"/><text fill="#000000" font-family="sans-serif" font-size="13" lengthAdjust="spacing" textLength="21" x="132.5" y="128.6494">has</text><text fill="#000000" font-family="sans-serif" font-size="13" lengthAdjust="spacing" textLength="7" x="125.9249" y="105.1479">1</text><text fill="#000000" font-family="sans-serif" font-size="13" lengthAdjust="spacing" textLength="20" x="76.2649" y="151.1454">1..*</text></g><!--link Organization to Agenda--><g id="link_Organization_Agenda"><path codeLine="36" d="M151.98,83.6511 C155.23,92.5911 159.17,103.6511 162.5,113.6211 C178.55,161.6811 195.81,218.9211 204.25,247.3111 " fill="none" id="Organization-Agenda" style="stroke:#181818;stroke-width:1.0;"/><polygon fill="#000000" points="174.0212,128.0296,174.0689,118.5191,168.4697,120.3074,174.0212,128.0296" style="stroke:#000000;stroke-width:1.0;"/><text fill="#000000" font-family="sans-serif" font-size="13" lengthAdjust="spacing" textLength="21" x="181.5" y="128.6494">has</text><text fill="#000000" font-family="sans-serif" font-size="13" lengthAdjust="spacing" textLength="7" x="145.8181" y="105.3758">1</text><text fill="#000000" font-family="sans-serif" font-size="13" lengthAdjust="spacing" textLength="7" x="194.6797" y="236.4155">1</text></g><!--link GreenSpacesManager to Team--><g id="link_GreenSpacesManager_Team"><path codeLine="37" d="M62.68,217.8111 C42.61,249.6511 15.62,304.5011 30.5,351.6211 C40,381.7011 61.48,410.6511 78.87,430.5911 " fill="none" id="GreenSpacesManager-Team" style="stroke:#181818;stroke-width:1.0;"/><polygon fill="#000000" points="35.8793,338.2522,38.1236,329.0102,32.2626,329.4561,35.8793,338.2522" style="stroke:#000000;stroke-width:1.0;"/><text fill="#000000" font-family="sans-serif" font-size="13" lengthAdjust="spacing" textLength="42" x="44.5" y="338.6494">selects</text><text fill="#000000" font-family="sans-serif" font-size="13" lengthAdjust="spacing" textLength="7" x="50.7975" y="239.7613">1</text><text fill="#000000" font-family="sans-serif" font-size="13" lengthAdjust="spacing" textLength="7" x="65.1337" y="419.2931">1</text></g><!--link Agenda to Entry--><g id="link_Agenda_Entry"><path codeLine="38" d="M209.91,284.6311 C210.53,327.7811 209.76,442.4411 187.5,534.6211 C185.12,544.4811 181.62,554.7311 177.83,564.3611 " fill="none" id="Agenda-Entry" style="stroke:#181818;stroke-width:1.0;"/><polygon fill="#000000" points="211.9303,396.234,215.8807,387.5827,210.0411,386.913,211.9303,396.234" style="stroke:#000000;stroke-width:1.0;"/><text fill="#000000" font-family="sans-serif" font-size="13" lengthAdjust="spacing" textLength="21" x="221.5" y="396.6494">has</text><text fill="#000000" font-family="sans-serif" font-size="13" lengthAdjust="spacing" textLength="7" x="202.0409" y="306.3502">1</text><text fill="#000000" font-family="sans-serif" font-size="13" lengthAdjust="spacing" textLength="20" x="159.4941" y="553.3323">0..*</text></g><!--link Team to Entry--><g id="link_Team_Entry"><path codeLine="39" d="M98.94,485.9511 C96.99,500.6711 96.4,519.0411 101.5,534.6211 C104.92,545.0511 110.4,555.2411 116.61,564.5711 " fill="none" id="Team-Entry" style="stroke:#181818;stroke-width:1.0;"/><polygon fill="#000000" points="107.5964,530.1449,108.4804,520.6755,102.7456,521.9644,107.5964,530.1449" style="stroke:#000000;stroke-width:1.0;"/><text fill="#000000" font-family="sans-serif" font-size="13" lengthAdjust="spacing" textLength="67" x="115.5" y="530.6494">assigned to</text><text fill="#000000" font-family="sans-serif" font-size="13" lengthAdjust="spacing" textLength="7" x="89.9581" y="507.9319">1</text><text fill="#000000" font-family="sans-serif" font-size="13" lengthAdjust="spacing" textLength="20" x="88.9706" y="553.2316">1..*</text></g><!--link GreenSpacesManager to Email--><g id="link_GreenSpacesManager_Email"><path codeLine="40" d="M89.78,217.6411 C98.59,245.8811 112.29,289.8011 119.91,314.2111 " fill="none" id="GreenSpacesManager-Email" style="stroke:#181818;stroke-width:1.0;"/><polygon fill="#000000" points="115.9892,271.0397,116.1007,261.5298,110.4897,263.2804,115.9892,271.0397" style="stroke:#000000;stroke-width:1.0;"/><text fill="#000000" font-family="sans-serif" font-size="13" lengthAdjust="spacing" textLength="35" x="123.5" y="271.6494">sends</text><text fill="#000000" font-family="sans-serif" font-size="13" lengthAdjust="spacing" textLength="7" x="83.8854" y="240.0047">1</text><text fill="#000000" font-family="sans-serif" font-size="13" lengthAdjust="spacing" textLength="20" x="95.3304" y="303.2861">1..*</text></g><!--link Email to Team--><g id="link_Email_Team"><path codeLine="41" d="M119.35,351.9611 C116.54,360.7911 113.41,371.6611 111.5,381.6211 C108.42,397.6511 106.69,415.8711 105.71,430.3911 " fill="none" id="Email-Team" style="stroke:#181818;stroke-width:1.0;"/><polygon fill="#000000" points="115.6433,396.1927,120.0886,387.7849,114.2976,386.7778,115.6433,396.1927" style="stroke:#000000;stroke-width:1.0;"/><text fill="#000000" font-family="sans-serif" font-size="13" lengthAdjust="spacing" textLength="40" x="125.5" y="396.6494">sent to</text><text fill="#000000" font-family="sans-serif" font-size="13" lengthAdjust="spacing" textLength="7" x="109.7566" y="373.4271">1</text><text fill="#000000" font-family="sans-serif" font-size="13" lengthAdjust="spacing" textLength="7" x="98.2091" y="419.4994">1</text></g><!--SRC=[XL7DQW8n4BxdAOOz5XJRtZmK18lq83ri-m1ZCjqDPYUI6IbQ-kwDkwQkO6akIMQ-lqbawtc72Jle8aVRfjWHQDgJaT_E3kqM6whr40WIMKLkmXWWBRhuwRc13mn2PjIo0KKMgiblzaelDdBjZmGpOrhl2AnFDalrvuwqZKwCKQ_PQ1axz0phw2Z01DxhsSEZCRqUlAO6sHzHVMJuCj-blaf4NEUy96lad3dbBkH5MIjSS8k6sE6O-SoQ3cUmA2RDqonHgHHqB_rHKRONrXlb4GUIZI7W9YRKc6IaUp8UZAv2L_SLJ2Pvcqxlgbkvvz2YmDCVhAgCK60t54RWFkSSX4B-FO6CFzCBPjR761wXIFQawvm5a2Vp3PC3ZVzu3xJ-4Kx-x4xAm_rMFjP1yWS0]--></g></svg>