<?xml version="1.0" encoding="us-ascii" standalone="no"?><svg xmlns="http://www.w3.org/2000/svg" xmlns:xlink="http://www.w3.org/1999/xlink" contentStyleType="text/css" height="567px" preserveAspectRatio="none" style="width:1786px;height:567px;background:#FFFFFF;" version="1.1" viewBox="0 0 1786 567" width="1786.2px" zoomAndPan="magnify"><defs/><g><rect fill="#FFFFFF" height="427.8609" style="stroke:#181818;stroke-width:0.6;" width="6" x="18.6" y="67.3453"/><rect fill="#FFFFFF" height="44.9473" style="stroke:#181818;stroke-width:0.6;" width="6" x="187.2" y="81.3199"/><rect fill="#FFFFFF" height="18.7746" style="stroke:#181818;stroke-width:0.6;" width="6" x="187.2" y="145.0418"/><rect fill="#FFFFFF" height="312.6152" style="stroke:#181818;stroke-width:0.6;" width="6" x="187.2" y="182.591"/><rect fill="#FFFFFF" height="275.066" style="stroke:#181818;stroke-width:0.6;" width="6" x="711" y="201.3656"/><rect fill="#FFFFFF" height="18.7746" style="stroke:#181818;stroke-width:0.6;" width="6" x="800.7" y="220.1402"/><rect fill="#FFFFFF" height="18.7746" style="stroke:#181818;stroke-width:0.6;" width="6" x="864.9" y="257.6895"/><rect fill="#FFFFFF" height="162.4184" style="stroke:#181818;stroke-width:0.6;" width="6" x="1239" y="295.2387"/><rect fill="#FFFFFF" height="78.5238" style="stroke:#181818;stroke-width:0.6;" width="6" x="1242" y="356.1586"/><rect fill="#FFFFFF" height="25.3746" style="stroke:#181818;stroke-width:0.6;" width="6" x="1245" y="382.7332"/><line style="stroke:#181818;stroke-width:0.3;stroke-dasharray:5.0,5.0;" x1="21.6" x2="21.6" y1="61.3453" y2="506.0062"/><line style="stroke:#181818;stroke-width:0.3;stroke-dasharray:5.0,5.0;" x1="189.9" x2="189.9" y1="61.3453" y2="506.0062"/><line style="stroke:#181818;stroke-width:0.3;stroke-dasharray:5.0,5.0;" x1="714" x2="714" y1="105.2063" y2="506.0062"/><line style="stroke:#181818;stroke-width:0.3;stroke-dasharray:5.0,5.0;" x1="803.4" x2="803.4" y1="61.3453" y2="506.0062"/><line style="stroke:#181818;stroke-width:0.3;stroke-dasharray:5.0,5.0;" x1="867.6" x2="867.6" y1="61.3453" y2="506.0062"/><line style="stroke:#181818;stroke-width:0.3;stroke-dasharray:5.0,5.0;" x1="1242" x2="1242" y1="61.3453" y2="506.0062"/><line style="stroke:#181818;stroke-width:0.3;stroke-dasharray:5.0,5.0;" x1="1763.4" x2="1763.4" y1="324.7113" y2="506.0062"/><text fill="#000000" font-family="sans-serif" font-size="8.4" lengthAdjust="spacing" textLength="19.2" x="10.2" y="48.0645">Fleet</text><text fill="#000000" font-family="sans-serif" font-size="8.4" lengthAdjust="spacing" textLength="33.6" x="3" y="59.2371">Manager</text><ellipse cx="21.6" cy="8.1" fill="#E3E3E3" rx="4.8" ry="4.8" style="stroke:#181818;stroke-width:0.3;"/><path d="M21.6,12.9 L21.6,29.1 M13.8,17.7 L29.4,17.7 M21.6,29.1 L13.8,38.1 M21.6,29.1 L29.4,38.1 " fill="none" style="stroke:#181818;stroke-width:0.3;"/><text fill="#000000" font-family="sans-serif" font-size="8.4" lengthAdjust="spacing" textLength="19.2" x="10.2" y="514.4707">Fleet</text><text fill="#000000" font-family="sans-serif" font-size="8.4" lengthAdjust="spacing" textLength="33.6" x="3" y="525.6434">Manager</text><ellipse cx="21.6" cy="532.8516" fill="#E3E3E3" rx="4.8" ry="4.8" style="stroke:#181818;stroke-width:0.3;"/><path d="M21.6,537.6516 L21.6,553.8516 M13.8,542.4516 L29.4,542.4516 M21.6,553.8516 L13.8,562.8516 M21.6,553.8516 L29.4,562.8516 " fill="none" style="stroke:#181818;stroke-width:0.3;"/><rect fill="#E3E3E3" height="19.5727" rx="1.5" ry="1.5" style="stroke:#181818;stroke-width:0.3;" width="77.4" x="151.5" y="41.1727"/><text fill="#000000" font-family="sans-serif" font-size="8.4" lengthAdjust="spacing" textLength="69" x="155.7" y="54.4371">:RegisterVehicleUI</text><rect fill="#E3E3E3" height="19.5727" rx="1.5" ry="1.5" style="stroke:#181818;stroke-width:0.3;" width="77.4" x="151.5" y="505.4063"/><text fill="#000000" font-family="sans-serif" font-size="8.4" lengthAdjust="spacing" textLength="69" x="155.7" y="518.6707">:RegisterVehicleUI</text><rect fill="#E3E3E3" height="19.5727" rx="1.5" ry="1.5" style="stroke:#181818;stroke-width:0.3;" width="109.2" x="659.4" y="505.4063"/><text fill="#000000" font-family="sans-serif" font-size="8.4" lengthAdjust="spacing" textLength="100.8" x="663.6" y="518.6707">:RegisterVehicleControlller</text><rect fill="#E3E3E3" height="19.5727" rx="1.5" ry="1.5" style="stroke:#181818;stroke-width:0.3;" width="58.2" x="774.6" y="41.1727"/><text fill="#000000" font-family="sans-serif" font-size="8.4" lengthAdjust="spacing" textLength="49.8" x="778.8" y="54.4371">:Repositories</text><rect fill="#E3E3E3" height="19.5727" rx="1.5" ry="1.5" style="stroke:#181818;stroke-width:0.3;" width="58.2" x="774.6" y="505.4063"/><text fill="#000000" font-family="sans-serif" font-size="8.4" lengthAdjust="spacing" textLength="49.8" x="778.8" y="518.6707">:Repositories</text><rect fill="#E3E3E3" height="30.7453" rx="1.5" ry="1.5" style="stroke:#181818;stroke-width:0.3;" width="58.2" x="838.8" y="30"/><text fill="#000000" font-family="sans-serif" font-size="8.4" lengthAdjust="spacing" textLength="44.4" x="845.7" y="43.2645">repositories</text><text fill="#000000" font-family="sans-serif" font-size="8.4" lengthAdjust="spacing" textLength="49.8" x="843" y="54.4371">:Repositories</text><rect fill="#E3E3E3" height="30.7453" rx="1.5" ry="1.5" style="stroke:#181818;stroke-width:0.3;" width="58.2" x="838.8" y="505.4063"/><text fill="#000000" font-family="sans-serif" font-size="8.4" lengthAdjust="spacing" textLength="44.4" x="845.7" y="518.6707">repositories</text><text fill="#000000" font-family="sans-serif" font-size="8.4" lengthAdjust="spacing" textLength="49.8" x="843" y="529.8434">:Repositories</text><rect fill="#E3E3E3" height="30.7453" rx="1.5" ry="1.5" style="stroke:#181818;stroke-width:0.3;" width="78" x="1203" y="30"/><text fill="#000000" font-family="sans-serif" font-size="8.4" lengthAdjust="spacing" textLength="69.6" x="1207.2" y="43.2645">vehicleRepository:</text><text fill="#000000" font-family="sans-serif" font-size="8.4" lengthAdjust="spacing" textLength="67.2" x="1208.4" y="54.4371">vehicleRepository</text><rect fill="#E3E3E3" height="30.7453" rx="1.5" ry="1.5" style="stroke:#181818;stroke-width:0.3;" width="78" x="1203" y="505.4063"/><text fill="#000000" font-family="sans-serif" font-size="8.4" lengthAdjust="spacing" textLength="69.6" x="1207.2" y="518.6707">vehicleRepository:</text><text fill="#000000" font-family="sans-serif" font-size="8.4" lengthAdjust="spacing" textLength="67.2" x="1208.4" y="529.8434">vehicleRepository</text><rect fill="#E3E3E3" height="30.7453" rx="1.5" ry="1.5" style="stroke:#181818;stroke-width:0.3;" width="38.4" x="1744.2" y="505.4063"/><text fill="#000000" font-family="sans-serif" font-size="8.4" lengthAdjust="spacing" textLength="26.4" x="1750.2" y="518.6707">vehicle</text><text fill="#000000" font-family="sans-serif" font-size="8.4" lengthAdjust="spacing" textLength="30" x="1748.4" y="529.8434">:Vehicle</text><rect fill="#FFFFFF" height="427.8609" style="stroke:#181818;stroke-width:0.6;" width="6" x="18.6" y="67.3453"/><rect fill="#FFFFFF" height="44.9473" style="stroke:#181818;stroke-width:0.6;" width="6" x="187.2" y="81.3199"/><rect fill="#FFFFFF" height="18.7746" style="stroke:#181818;stroke-width:0.6;" width="6" x="187.2" y="145.0418"/><rect fill="#FFFFFF" height="312.6152" style="stroke:#181818;stroke-width:0.6;" width="6" x="187.2" y="182.591"/><rect fill="#FFFFFF" height="275.066" style="stroke:#181818;stroke-width:0.6;" width="6" x="711" y="201.3656"/><rect fill="#FFFFFF" height="18.7746" style="stroke:#181818;stroke-width:0.6;" width="6" x="800.7" y="220.1402"/><rect fill="#FFFFFF" height="18.7746" style="stroke:#181818;stroke-width:0.6;" width="6" x="864.9" y="257.6895"/><rect fill="#FFFFFF" height="162.4184" style="stroke:#181818;stroke-width:0.6;" width="6" x="1239" y="295.2387"/><rect fill="#FFFFFF" height="78.5238" style="stroke:#181818;stroke-width:0.6;" width="6" x="1242" y="356.1586"/><rect fill="#FFFFFF" height="25.3746" style="stroke:#181818;stroke-width:0.6;" width="6" x="1245" y="382.7332"/><polygon fill="#181818" points="180,78.9199,186,81.3199,180,83.7199,182.4,81.3199" style="stroke:#181818;stroke-width:0.6;"/><line style="stroke:#181818;stroke-width:0.6;" x1="24.6" x2="183.6" y1="81.3199" y2="81.3199"/><text fill="#000000" font-family="sans-serif" font-size="7.8" font-weight="bold" lengthAdjust="spacing" textLength="4.2" x="28.8" y="78.1623">1</text><text fill="#000000" font-family="sans-serif" font-size="7.8" lengthAdjust="spacing" textLength="102.6" x="35.4" y="78.1623">asks to register a new vehicle</text><polygon fill="#181818" points="652.2,97.6945,658.2,100.0945,652.2,102.4945,654.6,100.0945" style="stroke:#181818;stroke-width:0.6;"/><line style="stroke:#181818;stroke-width:0.6;" x1="193.2" x2="655.8" y1="100.0945" y2="100.0945"/><text fill="#000000" font-family="sans-serif" font-size="7.8" font-weight="bold" lengthAdjust="spacing" textLength="4.2" x="197.4" y="96.9369">2</text><text fill="#000000" font-family="sans-serif" font-size="7.8" lengthAdjust="spacing" textLength="21.6" x="204" y="96.9369">create</text><rect fill="#E3E3E3" height="19.5727" rx="1.5" ry="1.5" style="stroke:#181818;stroke-width:0.3;" width="109.2" x="659.4" y="86.1199"/><text fill="#000000" font-family="sans-serif" font-size="8.4" lengthAdjust="spacing" textLength="100.8" x="663.6" y="99.3844">:RegisterVehicleControlller</text><polygon fill="#181818" points="31.2,123.8672,25.2,126.2672,31.2,128.6672,28.8,126.2672" style="stroke:#181818;stroke-width:0.6;"/><line style="stroke:#181818;stroke-width:0.6;stroke-dasharray:2.0,2.0;" x1="27.6" x2="189.6" y1="126.2672" y2="126.2672"/><text fill="#000000" font-family="sans-serif" font-size="7.8" font-weight="bold" lengthAdjust="spacing" textLength="4.2" x="34.8" y="123.1096">3</text><text fill="#000000" font-family="sans-serif" font-size="7.8" lengthAdjust="spacing" textLength="47.4" x="41.4" y="123.1096">requests data</text><polygon fill="#181818" points="180,142.6418,186,145.0418,180,147.4418,182.4,145.0418" style="stroke:#181818;stroke-width:0.6;"/><line style="stroke:#181818;stroke-width:0.6;" x1="24.6" x2="183.6" y1="145.0418" y2="145.0418"/><text fill="#000000" font-family="sans-serif" font-size="7.8" font-weight="bold" lengthAdjust="spacing" textLength="4.2" x="28.8" y="141.8842">4</text><text fill="#000000" font-family="sans-serif" font-size="7.8" lengthAdjust="spacing" textLength="100.8" x="35.4" y="141.8842">types/selects requested data</text><polygon fill="#181818" points="31.2,161.4164,25.2,163.8164,31.2,166.2164,28.8,163.8164" style="stroke:#181818;stroke-width:0.6;"/><line style="stroke:#181818;stroke-width:0.6;stroke-dasharray:2.0,2.0;" x1="27.6" x2="189.6" y1="163.8164" y2="163.8164"/><text fill="#000000" font-family="sans-serif" font-size="7.8" font-weight="bold" lengthAdjust="spacing" textLength="4.2" x="34.8" y="160.6588">5</text><text fill="#000000" font-family="sans-serif" font-size="7.8" lengthAdjust="spacing" textLength="141.6" x="41.4" y="160.6588">shows all data and requests confirmation</text><polygon fill="#181818" points="180,180.191,186,182.591,180,184.991,182.4,182.591" style="stroke:#181818;stroke-width:0.6;"/><line style="stroke:#181818;stroke-width:0.6;" x1="24.6" x2="183.6" y1="182.591" y2="182.591"/><text fill="#000000" font-family="sans-serif" font-size="7.8" font-weight="bold" lengthAdjust="spacing" textLength="4.2" x="28.8" y="179.4334">6</text><text fill="#000000" font-family="sans-serif" font-size="7.8" lengthAdjust="spacing" textLength="46.8" x="35.4" y="179.4334">confirms data</text><polygon fill="#181818" points="703.8,198.9656,709.8,201.3656,703.8,203.7656,706.2,201.3656" style="stroke:#181818;stroke-width:0.6;"/><line style="stroke:#181818;stroke-width:0.6;" x1="193.2" x2="707.4" y1="201.3656" y2="201.3656"/><text fill="#000000" font-family="sans-serif" font-size="7.8" font-weight="bold" lengthAdjust="spacing" textLength="4.2" x="197.4" y="198.208">7</text><text fill="#000000" font-family="sans-serif" font-size="7.8" lengthAdjust="spacing" textLength="499.8" x="204" y="198.208">registerVehicle(brand, model, tare, grossWeight, currentKm, registerDate, acquisitionDate, maintenanceCheckUpFrequency, plateNumber, type)</text><polygon fill="#181818" points="793.5,217.7402,799.5,220.1402,793.5,222.5402,795.9,220.1402" style="stroke:#181818;stroke-width:0.6;"/><line style="stroke:#181818;stroke-width:0.6;" x1="717" x2="797.1" y1="220.1402" y2="220.1402"/><text fill="#000000" font-family="sans-serif" font-size="7.8" font-weight="bold" lengthAdjust="spacing" textLength="4.2" x="721.2" y="216.9826">8</text><text fill="#000000" font-family="sans-serif" font-size="7.8" lengthAdjust="spacing" textLength="45" x="727.8" y="216.9826">getInstance()</text><polygon fill="#181818" points="723.6,236.5148,717.6,238.9148,723.6,241.3148,721.2,238.9148" style="stroke:#181818;stroke-width:0.6;"/><line style="stroke:#181818;stroke-width:0.6;stroke-dasharray:2.0,2.0;" x1="720" x2="803.1" y1="238.9148" y2="238.9148"/><text fill="#000000" font-family="sans-serif" font-size="7.8" font-weight="bold" lengthAdjust="spacing" textLength="4.2" x="727.2" y="235.7572">9</text><text fill="#000000" font-family="sans-serif" font-size="7.8" lengthAdjust="spacing" textLength="40.2" x="733.8" y="235.7572">repositories</text><polygon fill="#181818" points="857.7,255.2895,863.7,257.6895,857.7,260.0895,860.1,257.6895" style="stroke:#181818;stroke-width:0.6;"/><line style="stroke:#181818;stroke-width:0.6;" x1="717" x2="861.3" y1="257.6895" y2="257.6895"/><text fill="#000000" font-family="sans-serif" font-size="7.8" font-weight="bold" lengthAdjust="spacing" textLength="8.4" x="721.2" y="254.5318">10</text><text fill="#000000" font-family="sans-serif" font-size="7.8" lengthAdjust="spacing" textLength="78.6" x="732" y="254.5318">getVehicleRepository()</text><polygon fill="#181818" points="723.6,274.0641,717.6,276.4641,723.6,278.8641,721.2,276.4641" style="stroke:#181818;stroke-width:0.6;"/><line style="stroke:#181818;stroke-width:0.6;stroke-dasharray:2.0,2.0;" x1="720" x2="867.3" y1="276.4641" y2="276.4641"/><text fill="#000000" font-family="sans-serif" font-size="7.8" font-weight="bold" lengthAdjust="spacing" textLength="8.4" x="727.2" y="273.3064">11</text><text fill="#000000" font-family="sans-serif" font-size="7.8" lengthAdjust="spacing" textLength="60.6" x="738" y="273.3064">vehicleRepository</text><polygon fill="#181818" points="1231.8,292.8387,1237.8,295.2387,1231.8,297.6387,1234.2,295.2387" style="stroke:#181818;stroke-width:0.6;"/><line style="stroke:#181818;stroke-width:0.6;" x1="717" x2="1235.4" y1="295.2387" y2="295.2387"/><text fill="#000000" font-family="sans-serif" font-size="7.8" font-weight="bold" lengthAdjust="spacing" textLength="8.4" x="721.2" y="292.0811">12</text><text fill="#000000" font-family="sans-serif" font-size="7.8" lengthAdjust="spacing" textLength="499.8" x="732" y="292.0811">registerVehicle(brand, model, tare, grossWeight, currentKm, registerDate, acquisitionDate, maintenanceCheckUpFrequency, plateNumber, type)</text><polygon fill="#181818" points="1737,311.6133,1743,314.0133,1737,316.4133,1739.4,314.0133" style="stroke:#181818;stroke-width:0.6;"/><line style="stroke:#181818;stroke-width:0.6;" x1="1245" x2="1740.6" y1="314.0133" y2="314.0133"/><text fill="#000000" font-family="sans-serif" font-size="7.8" font-weight="bold" lengthAdjust="spacing" textLength="8.4" x="1249.2" y="310.8557">13</text><text fill="#000000" font-family="sans-serif" font-size="7.8" lengthAdjust="spacing" textLength="474" x="1260" y="310.8557">register(brand, model, tare, grossWeight, currentKm, registerDate, acquisitionDate, maintenanceCheckUpFrequency, plateNumber, type)</text><rect fill="#E3E3E3" height="30.7453" rx="1.5" ry="1.5" style="stroke:#181818;stroke-width:0.3;" width="38.4" x="1744.2" y="300.0387"/><text fill="#000000" font-family="sans-serif" font-size="8.4" lengthAdjust="spacing" textLength="26.4" x="1750.2" y="313.3031">vehicle</text><text fill="#000000" font-family="sans-serif" font-size="8.4" lengthAdjust="spacing" textLength="30" x="1748.4" y="324.4758">:Vehicle</text><line style="stroke:#181818;stroke-width:0.6;" x1="1245" x2="1273.2" y1="348.3586" y2="348.3586"/><line style="stroke:#181818;stroke-width:0.6;" x1="1273.2" x2="1273.2" y1="348.3586" y2="356.1586"/><line style="stroke:#181818;stroke-width:0.6;" x1="1248.6" x2="1273.2" y1="356.1586" y2="356.1586"/><polygon fill="#181818" points="1254.6,353.7586,1248.6,356.1586,1254.6,358.5586,1252.2,356.1586" style="stroke:#181818;stroke-width:0.6;"/><text fill="#000000" font-family="sans-serif" font-size="7.8" font-weight="bold" lengthAdjust="spacing" textLength="8.4" x="1252.2" y="345.201">14</text><text fill="#000000" font-family="sans-serif" font-size="7.8" lengthAdjust="spacing" textLength="69" x="1263" y="345.201">addVehicle (vehicle)</text><line style="stroke:#181818;stroke-width:0.6;" x1="1248" x2="1276.2" y1="374.9332" y2="374.9332"/><line style="stroke:#181818;stroke-width:0.6;" x1="1276.2" x2="1276.2" y1="374.9332" y2="382.7332"/><line style="stroke:#181818;stroke-width:0.6;" x1="1251.6" x2="1276.2" y1="382.7332" y2="382.7332"/><polygon fill="#181818" points="1257.6,380.3332,1251.6,382.7332,1257.6,385.1332,1255.2,382.7332" style="stroke:#181818;stroke-width:0.6;"/><text fill="#000000" font-family="sans-serif" font-size="7.8" font-weight="bold" lengthAdjust="spacing" textLength="8.4" x="1255.2" y="371.7756">15</text><text fill="#000000" font-family="sans-serif" font-size="7.8" lengthAdjust="spacing" textLength="82.2" x="1266" y="371.7756">validateVehicle (vehicle)</text><line style="stroke:#181818;stroke-width:0.6;stroke-dasharray:2.0,2.0;" x1="1251" x2="1276.2" y1="407.5078" y2="407.5078"/><line style="stroke:#181818;stroke-width:0.6;stroke-dasharray:2.0,2.0;" x1="1276.2" x2="1276.2" y1="407.5078" y2="415.3078"/><line style="stroke:#181818;stroke-width:0.6;stroke-dasharray:2.0,2.0;" x1="1248" x2="1276.2" y1="415.3078" y2="415.3078"/><polygon fill="#181818" points="1254,412.9078,1248,415.3078,1254,417.7078,1251.6,415.3078" style="stroke:#181818;stroke-width:0.6;"/><text fill="#000000" font-family="sans-serif" font-size="7.8" font-weight="bold" lengthAdjust="spacing" textLength="8.4" x="1255.2" y="404.3502">16</text><text fill="#000000" font-family="sans-serif" font-size="7.8" lengthAdjust="spacing" textLength="2.4" x="1266" y="404.3502">&#160;</text><line style="stroke:#181818;stroke-width:0.6;stroke-dasharray:2.0,2.0;" x1="1248" x2="1273.2" y1="434.0824" y2="434.0824"/><line style="stroke:#181818;stroke-width:0.6;stroke-dasharray:2.0,2.0;" x1="1273.2" x2="1273.2" y1="434.0824" y2="441.8824"/><line style="stroke:#181818;stroke-width:0.6;stroke-dasharray:2.0,2.0;" x1="1245" x2="1273.2" y1="441.8824" y2="441.8824"/><polygon fill="#181818" points="1251,439.4824,1245,441.8824,1251,444.2824,1248.6,441.8824" style="stroke:#181818;stroke-width:0.6;"/><text fill="#000000" font-family="sans-serif" font-size="7.8" font-weight="bold" lengthAdjust="spacing" textLength="8.4" x="1252.2" y="430.9248">17</text><text fill="#000000" font-family="sans-serif" font-size="7.8" lengthAdjust="spacing" textLength="2.4" x="1263" y="430.9248">&#160;</text><polygon fill="#181818" points="723.6,455.257,717.6,457.657,723.6,460.057,721.2,457.657" style="stroke:#181818;stroke-width:0.6;"/><line style="stroke:#181818;stroke-width:0.6;stroke-dasharray:2.0,2.0;" x1="720" x2="1241.4" y1="457.657" y2="457.657"/><text fill="#000000" font-family="sans-serif" font-size="7.8" font-weight="bold" lengthAdjust="spacing" textLength="8.4" x="727.2" y="454.4994">18</text><text fill="#000000" font-family="sans-serif" font-size="7.8" lengthAdjust="spacing" textLength="23.4" x="738" y="454.4994">vehicle</text><polygon fill="#181818" points="199.8,474.0316,193.8,476.4316,199.8,478.8316,197.4,476.4316" style="stroke:#181818;stroke-width:0.6;"/><line style="stroke:#181818;stroke-width:0.6;stroke-dasharray:2.0,2.0;" x1="196.2" x2="713.4" y1="476.4316" y2="476.4316"/><text fill="#000000" font-family="sans-serif" font-size="7.8" font-weight="bold" lengthAdjust="spacing" textLength="8.4" x="203.4" y="473.274">19</text><text fill="#000000" font-family="sans-serif" font-size="7.8" lengthAdjust="spacing" textLength="23.4" x="214.2" y="473.274">vehicle</text><polygon fill="#181818" points="28.2,492.8063,22.2,495.2062,28.2,497.6063,25.8,495.2062" style="stroke:#181818;stroke-width:0.6;"/><line style="stroke:#181818;stroke-width:0.6;stroke-dasharray:2.0,2.0;" x1="24.6" x2="189.6" y1="495.2062" y2="495.2062"/><text fill="#000000" font-family="sans-serif" font-size="7.8" font-weight="bold" lengthAdjust="spacing" textLength="8.4" x="31.8" y="492.0486">20</text><text fill="#000000" font-family="sans-serif" font-size="7.8" lengthAdjust="spacing" textLength="94.8" x="42.6" y="492.0486">displays operation success</text><!--SRC=[pLN1Rjim3BtxAuXUbXOUTizXbwp1WZN3aApTfHT5PcmXikIAShhy_MZ5SUpA2peCmwgRoSV7HugqQATC9PmeeRJ6oiBP4i6x6XFgF9MGEv7ZsXyqWaFfXSbr7q25oEopCZbiXIPC4b5xQ-foWov9tXKgGzXQwpVsPoAajmwkvXhHFvgbC4piha0Gp9S9itabLIMCXwlf2dD57jq35afgl5y4sFtYCcncZNTMQztIphwlxgA8of9Y7GefO5QttuOGrqCycj60zJ1YVypU8G_JHnFPGcna7INYh6r18UZXzlDYTdURDFrJU-6nQLS2VEPBUF-Hkm9Jnkq8lEKhEdO411XyFYKCw2wSsnWCpU5WfcWQTNF3DD8X8uxkniK-JZ9bsgSQoHDamelWpJ3YwydnXmhf0w7cYQ5JD6Rdy2YuduqA-qmWj0vu42Ox2v3MR9KhXLVMl4982wSBcOTjc7OjREzWid4i8EKToL2du8N3579dYNwWoWkVWgoTG-E_b6aN-uaJf9pggLPyqIprQ2Y5CXwDC19d1ShTVJKFXHbvIA7IZFaQDYSD3Rpkv7MQmqHtvkOqbaOxZ-KKSlGBGxxXdrmFO1r3C-y33nj2vq_5dyTz0EkrEQBeQLW74Gylv_o2cdKaPztJ4s_CxqMjnrN5w_aMhtZGbhZg0Quv4QGfjVrLX5K-wVoVnRrEzSW5YInhxmOchViw8llhTeqatWkj-5U1_ppxMFeehZVVRoBBU8R1fYP_pdnSrF37Zcbw5EUVN_-no1Jnv1q8R8KkF0j0jPH8DFOyz3xv5Vq5]--></g></svg>