<?xml version="1.0" encoding="us-ascii" standalone="no"?><svg xmlns="http://www.w3.org/2000/svg" xmlns:xlink="http://www.w3.org/1999/xlink" contentStyleType="text/css" height="620.4px" preserveAspectRatio="none" style="width:597px;height:620px;background:#FFFFFF;" version="1.1" viewBox="0 0 597 620" width="597.6px" zoomAndPan="magnify"><defs/><g><!--class RegisterVehicleUI--><g id="elem_RegisterVehicleUI"><rect codeLine="11" fill="#F1F1F1" height="28.8" id="RegisterVehicleUI" rx="1.5" ry="1.5" style="stroke:#181818;stroke-width:0.3;" width="85.8" x="272.1" y="4.2"/><ellipse cx="281.1" cy="13.8" fill="#ADD1B2" rx="6.6" ry="6.6" style="stroke:#181818;stroke-width:0.6;"/><path d="M282.7594,11.325 Q282.8531,11.1938 282.9656,11.1281 Q283.0781,11.0625 283.2094,11.0625 Q283.4344,11.0625 283.575,11.2219 Q283.7156,11.3719 283.7156,11.7375 L283.7156,12.6094 Q283.7156,12.975 283.575,13.1344 Q283.4344,13.2938 283.2094,13.2938 Q283.0031,13.2938 282.8812,13.1719 Q282.7594,13.0594 282.6937,12.75 Q282.6656,12.5344 282.5531,12.4219 Q282.3563,12.1969 281.9906,12.0656 Q281.625,11.9344 281.25,11.9344 Q280.7906,11.9344 280.4063,12.1313 Q280.0313,12.3281 279.7313,12.7781 Q279.4406,13.2281 279.4406,13.8469 L279.4406,14.5031 Q279.4406,15.2437 279.975,15.7406 Q280.5094,16.2281 281.4656,16.2281 Q282.0281,16.2281 282.4219,16.0781 Q282.6563,15.9844 282.9094,15.7219 Q283.0687,15.5625 283.1531,15.5156 Q283.2469,15.4688 283.3688,15.4688 Q283.5656,15.4688 283.7156,15.6281 Q283.875,15.7781 283.875,15.9844 Q283.875,16.1906 283.6688,16.4344 Q283.3688,16.7813 282.8906,16.9781 Q282.2438,17.25 281.4656,17.25 Q280.5563,17.25 279.8344,16.875 Q279.2438,16.575 278.8313,15.9375 Q278.4188,15.2906 278.4188,14.5219 L278.4188,13.8281 Q278.4188,13.0313 278.7844,12.3469 Q279.1594,11.6531 279.8156,11.2875 Q280.4719,10.9125 281.2125,10.9125 Q281.6531,10.9125 282.0375,11.0156 Q282.4313,11.1094 282.7594,11.325 Z " fill="#000000"/><text fill="#000000" font-family="sans-serif" font-size="8.4" lengthAdjust="spacing" textLength="66.6" x="289.5" y="17.2781">RegisterVehicleUI</text><line style="stroke:#181818;stroke-width:0.3;" x1="272.7" x2="357.3" y1="23.4" y2="23.4"/><line style="stroke:#181818;stroke-width:0.3;" x1="272.7" x2="357.3" y1="28.2" y2="28.2"/></g><!--class RegisterVehicleControlller--><g id="elem_RegisterVehicleControlller"><rect codeLine="15" fill="#F1F1F1" height="51.1453" id="RegisterVehicleControlller" rx="1.5" ry="1.5" style="stroke:#181818;stroke-width:0.3;" width="556.8" x="36.6" y="69.6"/><ellipse cx="263.25" cy="79.2" fill="#ADD1B2" rx="6.6" ry="6.6" style="stroke:#181818;stroke-width:0.6;"/><path d="M264.9094,76.725 Q265.0031,76.5938 265.1156,76.5281 Q265.2281,76.4625 265.3594,76.4625 Q265.5844,76.4625 265.725,76.6219 Q265.8656,76.7719 265.8656,77.1375 L265.8656,78.0094 Q265.8656,78.375 265.725,78.5344 Q265.5844,78.6938 265.3594,78.6938 Q265.1531,78.6938 265.0313,78.5719 Q264.9094,78.4594 264.8438,78.15 Q264.8156,77.9344 264.7031,77.8219 Q264.5062,77.5969 264.1406,77.4656 Q263.775,77.3344 263.4,77.3344 Q262.9406,77.3344 262.5563,77.5313 Q262.1813,77.7281 261.8812,78.1781 Q261.5906,78.6281 261.5906,79.2469 L261.5906,79.9031 Q261.5906,80.6438 262.125,81.1406 Q262.6594,81.6281 263.6156,81.6281 Q264.1781,81.6281 264.5719,81.4781 Q264.8063,81.3844 265.0594,81.1219 Q265.2188,80.9625 265.3031,80.9156 Q265.3969,80.8687 265.5188,80.8687 Q265.7156,80.8687 265.8656,81.0281 Q266.025,81.1781 266.025,81.3844 Q266.025,81.5906 265.8187,81.8344 Q265.5188,82.1812 265.0406,82.3781 Q264.3938,82.65 263.6156,82.65 Q262.7063,82.65 261.9844,82.275 Q261.3938,81.975 260.9813,81.3375 Q260.5687,80.6906 260.5687,79.9219 L260.5687,79.2281 Q260.5687,78.4312 260.9344,77.7469 Q261.3094,77.0531 261.9656,76.6875 Q262.6219,76.3125 263.3625,76.3125 Q263.8031,76.3125 264.1875,76.4156 Q264.5813,76.5094 264.9094,76.725 Z " fill="#000000"/><text fill="#000000" font-family="sans-serif" font-size="8.4" lengthAdjust="spacing" textLength="98.4" x="275.55" y="82.6781">RegisterVehicleControlller</text><line style="stroke:#181818;stroke-width:0.3;" x1="37.2" x2="592.8" y1="88.8" y2="88.8"/><line style="stroke:#181818;stroke-width:0.3;" x1="37.2" x2="592.8" y1="93.6" y2="93.6"/><text fill="#000000" font-family="sans-serif" font-size="8.4" lengthAdjust="spacing" textLength="174.6" x="40.2" y="105.0645">+RegisterVehicleController(vehicleRepository)</text><text fill="#000000" font-family="sans-serif" font-size="8.4" lengthAdjust="spacing" textLength="549.6" x="40.2" y="116.2371">+registerVehicle(brand, model, tare, grossWeight, currentKm, registerDate, acquisitionDate, maintenanceCheckUpFrequency, plateNumber, type)</text></g><!--class VehicleRepository--><g id="elem_VehicleRepository"><rect codeLine="20" fill="#F1F1F1" height="62.318" id="VehicleRepository" rx="1.5" ry="1.5" style="stroke:#181818;stroke-width:0.3;" width="556.8" x="4.2" y="267"/><ellipse cx="245.85" cy="276.6" fill="#ADD1B2" rx="6.6" ry="6.6" style="stroke:#181818;stroke-width:0.6;"/><path d="M247.5094,274.125 Q247.6031,273.9938 247.7156,273.9281 Q247.8281,273.8625 247.9594,273.8625 Q248.1844,273.8625 248.325,274.0219 Q248.4656,274.1719 248.4656,274.5375 L248.4656,275.4094 Q248.4656,275.775 248.325,275.9344 Q248.1844,276.0938 247.9594,276.0938 Q247.7531,276.0938 247.6313,275.9719 Q247.5094,275.8594 247.4438,275.55 Q247.4156,275.3344 247.3031,275.2219 Q247.1063,274.9969 246.7406,274.8656 Q246.375,274.7344 246,274.7344 Q245.5406,274.7344 245.1563,274.9313 Q244.7813,275.1281 244.4813,275.5781 Q244.1906,276.0281 244.1906,276.6469 L244.1906,277.3031 Q244.1906,278.0438 244.725,278.5406 Q245.2594,279.0281 246.2156,279.0281 Q246.7781,279.0281 247.1719,278.8781 Q247.4063,278.7844 247.6594,278.5219 Q247.8188,278.3625 247.9031,278.3156 Q247.9969,278.2688 248.1187,278.2688 Q248.3156,278.2688 248.4656,278.4281 Q248.625,278.5781 248.625,278.7844 Q248.625,278.9906 248.4188,279.2344 Q248.1187,279.5813 247.6406,279.7781 Q246.9937,280.05 246.2156,280.05 Q245.3062,280.05 244.5844,279.675 Q243.9937,279.375 243.5812,278.7375 Q243.1688,278.0906 243.1688,277.3219 L243.1688,276.6281 Q243.1688,275.8313 243.5344,275.1469 Q243.9094,274.4531 244.5656,274.0875 Q245.2219,273.7125 245.9625,273.7125 Q246.4031,273.7125 246.7875,273.8156 Q247.1812,273.9094 247.5094,274.125 Z " fill="#000000"/><text fill="#000000" font-family="sans-serif" font-size="8.4" lengthAdjust="spacing" textLength="68.4" x="258.15" y="280.0781">VehicleRepository</text><line style="stroke:#181818;stroke-width:0.3;" x1="4.8" x2="560.4" y1="286.2" y2="286.2"/><line style="stroke:#181818;stroke-width:0.3;" x1="4.8" x2="560.4" y1="291" y2="291"/><text fill="#000000" font-family="sans-serif" font-size="8.4" lengthAdjust="spacing" textLength="77.4" x="7.8" y="302.4645">-addVehicle(vehicle)</text><text fill="#000000" font-family="sans-serif" font-size="8.4" lengthAdjust="spacing" textLength="92.4" x="7.8" y="313.6371">-validateVehicle(vehicle)</text><text fill="#000000" font-family="sans-serif" font-size="8.4" lengthAdjust="spacing" textLength="549.6" x="7.8" y="324.8098">+registerVehicle(brand, model, tare, grossWeight, currentKm, registerDate, acquisitionDate, maintenanceCheckUpFrequency, plateNumber, type)</text></g><!--class Vehicle--><g id="elem_Vehicle"><rect codeLine="26" fill="#F1F1F1" height="140.5266" id="Vehicle" rx="1.5" ry="1.5" style="stroke:#181818;stroke-width:0.3;" width="528" x="18.6" y="366"/><ellipse cx="266.25" cy="375.6" fill="#ADD1B2" rx="6.6" ry="6.6" style="stroke:#181818;stroke-width:0.6;"/><path d="M267.9094,373.125 Q268.0031,372.9938 268.1156,372.9281 Q268.2281,372.8625 268.3594,372.8625 Q268.5844,372.8625 268.725,373.0219 Q268.8656,373.1719 268.8656,373.5375 L268.8656,374.4094 Q268.8656,374.775 268.725,374.9344 Q268.5844,375.0938 268.3594,375.0938 Q268.1531,375.0938 268.0313,374.9719 Q267.9094,374.8594 267.8438,374.55 Q267.8156,374.3344 267.7031,374.2219 Q267.5062,373.9969 267.1406,373.8656 Q266.775,373.7344 266.4,373.7344 Q265.9406,373.7344 265.5563,373.9313 Q265.1813,374.1281 264.8812,374.5781 Q264.5906,375.0281 264.5906,375.6469 L264.5906,376.3031 Q264.5906,377.0438 265.125,377.5406 Q265.6594,378.0281 266.6156,378.0281 Q267.1781,378.0281 267.5719,377.8781 Q267.8063,377.7844 268.0594,377.5219 Q268.2188,377.3625 268.3031,377.3156 Q268.3969,377.2688 268.5188,377.2688 Q268.7156,377.2688 268.8656,377.4281 Q269.025,377.5781 269.025,377.7844 Q269.025,377.9906 268.8187,378.2344 Q268.5188,378.5813 268.0406,378.7781 Q267.3938,379.05 266.6156,379.05 Q265.7063,379.05 264.9844,378.675 Q264.3938,378.375 263.9813,377.7375 Q263.5687,377.0906 263.5687,376.3219 L263.5687,375.6281 Q263.5687,374.8313 263.9344,374.1469 Q264.3094,373.4531 264.9656,373.0875 Q265.6219,372.7125 266.3625,372.7125 Q266.8031,372.7125 267.1875,372.8156 Q267.5813,372.9094 267.9094,373.125 Z " fill="#000000"/><text fill="#000000" font-family="sans-serif" font-size="8.4" lengthAdjust="spacing" textLength="27.6" x="278.55" y="379.0781">Vehicle</text><line style="stroke:#181818;stroke-width:0.3;" x1="19.2" x2="546" y1="385.2" y2="385.2"/><text fill="#000000" font-family="sans-serif" font-size="8.4" lengthAdjust="spacing" textLength="49.8" x="22.2" y="396.6645">-String brand</text><text fill="#000000" font-family="sans-serif" font-size="8.4" lengthAdjust="spacing" textLength="50.4" x="22.2" y="407.8371">-String model</text><text fill="#000000" font-family="sans-serif" font-size="8.4" lengthAdjust="spacing" textLength="29.4" x="22.2" y="419.0098">-int tare</text><text fill="#000000" font-family="sans-serif" font-size="8.4" lengthAdjust="spacing" textLength="61.8" x="22.2" y="430.1824">-int grossWeight</text><text fill="#000000" font-family="sans-serif" font-size="8.4" lengthAdjust="spacing" textLength="53.4" x="22.2" y="441.3551">-int currentKm</text><text fill="#000000" font-family="sans-serif" font-size="8.4" lengthAdjust="spacing" textLength="70.2" x="22.2" y="452.5277">-Date registerDate</text><text fill="#000000" font-family="sans-serif" font-size="8.4" lengthAdjust="spacing" textLength="81.6" x="22.2" y="463.7004">-Date acquisitionDate</text><text fill="#000000" font-family="sans-serif" font-size="8.4" lengthAdjust="spacing" textLength="138" x="22.2" y="474.873">-int maintenanceCheckUpFrequency</text><text fill="#000000" font-family="sans-serif" font-size="8.4" lengthAdjust="spacing" textLength="75.6" x="22.2" y="486.0457">-String plateNumber</text><line style="stroke:#181818;stroke-width:0.3;" x1="19.2" x2="546" y1="490.5539" y2="490.5539"/><text fill="#000000" font-family="sans-serif" font-size="8.4" lengthAdjust="spacing" textLength="520.8" x="22.2" y="502.0184">+Vehicle(brand, model, tare, grossWeight, currentKm, registerDate, acquisitionDate, maintenanceCheckUpFrequency, plateNumber, type)</text></g><!--class VehicleType--><g id="elem_VehicleType"><rect codeLine="40" fill="#F1F1F1" height="73.4906" id="VehicleType" rx="1.5" ry="1.5" style="stroke:#181818;stroke-width:0.3;" width="220.8" x="172.2" y="543"/><ellipse cx="256.65" cy="552.6" fill="#ADD1B2" rx="6.6" ry="6.6" style="stroke:#181818;stroke-width:0.6;"/><path d="M258.3094,550.125 Q258.4031,549.9938 258.5156,549.9281 Q258.6281,549.8625 258.7594,549.8625 Q258.9844,549.8625 259.125,550.0219 Q259.2656,550.1719 259.2656,550.5375 L259.2656,551.4094 Q259.2656,551.775 259.125,551.9344 Q258.9844,552.0938 258.7594,552.0938 Q258.5531,552.0938 258.4313,551.9719 Q258.3094,551.8594 258.2438,551.55 Q258.2156,551.3344 258.1031,551.2219 Q257.9063,550.9969 257.5406,550.8656 Q257.175,550.7344 256.8,550.7344 Q256.3406,550.7344 255.9562,550.9313 Q255.5812,551.1281 255.2813,551.5781 Q254.9906,552.0281 254.9906,552.6469 L254.9906,553.3031 Q254.9906,554.0437 255.525,554.5406 Q256.0594,555.0281 257.0156,555.0281 Q257.5781,555.0281 257.9719,554.8781 Q258.2063,554.7844 258.4594,554.5219 Q258.6188,554.3625 258.7031,554.3156 Q258.7969,554.2688 258.9188,554.2688 Q259.1156,554.2688 259.2656,554.4281 Q259.425,554.5781 259.425,554.7844 Q259.425,554.9906 259.2188,555.2344 Q258.9188,555.5813 258.4406,555.7781 Q257.7938,556.05 257.0156,556.05 Q256.1063,556.05 255.3844,555.675 Q254.7938,555.375 254.3813,554.7375 Q253.9688,554.0906 253.9688,553.3219 L253.9688,552.6281 Q253.9688,551.8313 254.3344,551.1469 Q254.7094,550.4531 255.3656,550.0875 Q256.0219,549.7125 256.7625,549.7125 Q257.2031,549.7125 257.5875,549.8156 Q257.9813,549.9094 258.3094,550.125 Z " fill="#000000"/><text fill="#000000" font-family="sans-serif" font-size="8.4" lengthAdjust="spacing" textLength="46.8" x="268.95" y="556.0781">VehicleType</text><line style="stroke:#181818;stroke-width:0.3;" x1="172.8" x2="392.4" y1="562.2" y2="562.2"/><text fill="#000000" font-family="sans-serif" font-size="8.4" lengthAdjust="spacing" textLength="115.2" x="175.8" y="573.6645">-TypeTransport typeTransport</text><text fill="#000000" font-family="sans-serif" font-size="8.4" lengthAdjust="spacing" textLength="123.6" x="175.8" y="584.8371">-PackageWeight packageWeight</text><text fill="#000000" font-family="sans-serif" font-size="8.4" lengthAdjust="spacing" textLength="76.8" x="175.8" y="596.0098">-Transport transport</text><line style="stroke:#181818;stroke-width:0.3;" x1="172.8" x2="392.4" y1="600.518" y2="600.518"/><text fill="#000000" font-family="sans-serif" font-size="8.4" lengthAdjust="spacing" textLength="213.6" x="175.8" y="611.9824">+VehicleType(typeTransport, packageWeight, transport)</text></g><!--class Repositories--><g id="elem_Repositories"><rect codeLine="47" fill="#F1F1F1" height="62.318" id="Repositories" rx="1.5" ry="1.5" style="stroke:#181818;stroke-width:0.3;" width="116.4" x="355.8" y="168"/><ellipse cx="387.75" cy="177.6" fill="#ADD1B2" rx="6.6" ry="6.6" style="stroke:#181818;stroke-width:0.6;"/><path d="M389.4094,175.125 Q389.5031,174.9938 389.6156,174.9281 Q389.7281,174.8625 389.8594,174.8625 Q390.0844,174.8625 390.225,175.0219 Q390.3656,175.1719 390.3656,175.5375 L390.3656,176.4094 Q390.3656,176.775 390.225,176.9344 Q390.0844,177.0938 389.8594,177.0938 Q389.6531,177.0938 389.5313,176.9719 Q389.4094,176.8594 389.3438,176.55 Q389.3156,176.3344 389.2031,176.2219 Q389.0062,175.9969 388.6406,175.8656 Q388.275,175.7344 387.9,175.7344 Q387.4406,175.7344 387.0563,175.9313 Q386.6813,176.1281 386.3812,176.5781 Q386.0906,177.0281 386.0906,177.6469 L386.0906,178.3031 Q386.0906,179.0438 386.625,179.5406 Q387.1594,180.0281 388.1156,180.0281 Q388.6781,180.0281 389.0719,179.8781 Q389.3063,179.7844 389.5594,179.5219 Q389.7188,179.3625 389.8031,179.3156 Q389.8969,179.2687 390.0188,179.2687 Q390.2156,179.2687 390.3656,179.4281 Q390.525,179.5781 390.525,179.7844 Q390.525,179.9906 390.3187,180.2344 Q390.0188,180.5812 389.5406,180.7781 Q388.8938,181.05 388.1156,181.05 Q387.2063,181.05 386.4844,180.675 Q385.8938,180.375 385.4813,179.7375 Q385.0687,179.0906 385.0687,178.3219 L385.0687,177.6281 Q385.0687,176.8312 385.4344,176.1469 Q385.8094,175.4531 386.4656,175.0875 Q387.1219,174.7125 387.8625,174.7125 Q388.3031,174.7125 388.6875,174.8156 Q389.0813,174.9094 389.4094,175.125 Z " fill="#000000"/><text fill="#000000" font-family="sans-serif" font-size="8.4" lengthAdjust="spacing" textLength="47.4" x="400.05" y="181.0781">Repositories</text><line style="stroke:#181818;stroke-width:0.3;" x1="356.4" x2="471.6" y1="187.2" y2="187.2"/><line style="stroke:#181818;stroke-width:0.3;" x1="356.4" x2="471.6" y1="192" y2="192"/><text fill="#000000" font-family="sans-serif" font-size="8.4" lengthAdjust="spacing" textLength="56.4" x="359.4" y="203.4645">-Repositories()</text><text fill="#000000" font-family="sans-serif" font-size="8.4" lengthAdjust="spacing" textLength="109.2" x="359.4" y="214.6371">+getInstance() : Repositories</text><text fill="#000000" font-family="sans-serif" font-size="8.4" lengthAdjust="spacing" textLength="91.2" x="359.4" y="225.8098">+getVehicleRepository()</text></g><!--link RegisterVehicleUI to RegisterVehicleControlller--><g id="link_RegisterVehicleUI_RegisterVehicleControlller"><path codeLine="53" d="M315,33.012 C315,43.2 315,53.748 315,65.904 " fill="none" id="RegisterVehicleUI-to-RegisterVehicleControlller" style="stroke:#181818;stroke-width:0.6;stroke-dasharray:7.0,7.0;"/><polygon fill="#181818" points="315,69.504,317.4,64.104,315,66.504,312.6,64.104,315,69.504" style="stroke:#181818;stroke-width:0.6;"/></g><!--link RegisterVehicleControlller to Repositories--><g id="link_RegisterVehicleControlller_Repositories"><path codeLine="54" d="M338.964,120.612 C352.644,134.826 367.4044,150.1654 381.9184,165.2554 " fill="none" id="RegisterVehicleControlller-to-Repositories" style="stroke:#181818;stroke-width:0.6;stroke-dasharray:7.0,7.0;"/><polygon fill="#181818" points="384.414,167.85,382.4004,162.2943,382.3343,165.6878,378.9409,165.6218,384.414,167.85" style="stroke:#181818;stroke-width:0.6;"/><text fill="#000000" font-family="sans-serif" font-size="7.8" lengthAdjust="spacing" textLength="40.2" x="364.8" y="147.617">repositories</text></g><!--link RegisterVehicleControlller to VehicleRepository--><g id="link_RegisterVehicleControlller_VehicleRepository"><path codeLine="55" d="M303.342,120.786 C293.64,141.666 281.4,168 281.4,168 C281.4,168 281.4,230.4 281.4,230.4 C281.4,230.4 281.6714,245.6286 281.9894,263.3526 " fill="none" id="RegisterVehicleControlller-to-VehicleRepository" style="stroke:#181818;stroke-width:0.6;stroke-dasharray:7.0,7.0;"/><polygon fill="#181818" points="282.054,266.952,284.3567,261.5098,282.0002,263.9525,279.5575,261.5959,282.054,266.952" style="stroke:#181818;stroke-width:0.6;"/><text fill="#000000" font-family="sans-serif" font-size="7.8" lengthAdjust="spacing" textLength="63" x="282" y="202.517">VehicleRepository</text></g><!--link Repositories to Repositories--><g id="link_Repositories_Repositories"><path codeLine="56" d="M472.368,190.302 C484.488,191.238 493.2,194.202 493.2,199.2 C493.2,204.198 488.0773,206.8848 475.9573,207.8208 " fill="none" id="Repositories-to-Repositories" style="stroke:#181818;stroke-width:0.6;"/><polygon fill="#181818" points="472.368,208.098,477.9368,210.0751,475.3591,207.867,477.5672,205.2893,472.368,208.098" style="stroke:#181818;stroke-width:0.6;"/><text fill="#000000" font-family="sans-serif" font-size="7.8" lengthAdjust="spacing" textLength="29.4" x="496.8" y="202.517">instance</text></g><!--link Repositories to VehicleRepository--><g id="link_Repositories_VehicleRepository"><path codeLine="57" d="M372.786,230.478 C357.204,242.07 342.3683,253.115 326.7803,264.713 " fill="none" id="Repositories-to-VehicleRepository" style="stroke:#181818;stroke-width:0.6;"/><polygon fill="#181818" points="323.892,266.862,329.657,265.5641,326.2989,265.0712,326.7917,261.7131,323.892,266.862" style="stroke:#181818;stroke-width:0.6;"/><text fill="#000000" font-family="sans-serif" font-size="7.8" lengthAdjust="spacing" textLength="4.2" x="324.9584" y="260.1999">1</text></g><!--link VehicleRepository to Vehicle--><g id="link_VehicleRepository_Vehicle"><path codeLine="58" d="M282.6,329.502 C282.6,340.374 282.6,349.488 282.6,362.268 " fill="none" id="VehicleRepository-to-Vehicle" style="stroke:#181818;stroke-width:0.6;"/><polygon fill="#181818" points="282.6,365.868,285,360.468,282.6,362.868,280.2,360.468,282.6,365.868" style="stroke:#181818;stroke-width:0.6;"/><text fill="#000000" font-family="sans-serif" font-size="7.8" lengthAdjust="spacing" textLength="3" x="279.5039" y="359.2542">*</text></g><!--link Vehicle to VehicleType--><g id="link_Vehicle_VehicleType"><path codeLine="59" d="M282.6,506.442 C282.6,519.036 282.6,528.096 282.6,539.232 " fill="none" id="Vehicle-to-VehicleType" style="stroke:#181818;stroke-width:0.6;"/><polygon fill="#181818" points="282.6,542.832,285,537.432,282.6,539.832,280.2,537.432,282.6,542.832" style="stroke:#181818;stroke-width:0.6;"/><text fill="#000000" font-family="sans-serif" font-size="7.8" lengthAdjust="spacing" textLength="4.2" x="278.1572" y="536.2013">1</text></g><!--SRC=[pLJ1Rjim3BthAuHUugnEiLrp651q610C68QcxSwApDf2PCcbw0xPi7-VRDcn5AVPjJb5v7laUxJ4XTihqmWKDQ-jiR92MmCdR85DcKR8lIXXImSD746ICAME0QuIXVsbJCcVXNPnHYi3T6Y0DrOVkWDRd4bQ9CiYbjJ2kLiYLBkMO2EjsQhVm3yojj3mJ9miHrLMn0lLoL7MCDPp-3sKoX7W4rHAQdZSy3-C_NqZUsSDeTLQ0teOzx_hDn20sMk8t4DZdIABXsLWOCh8TYXCaVjf5g1pJW8XvoLQvtv29pddiaK4Gz_gd8_SBu8yIiYNLldQtau8r48P0YECXBiAvFwn-OhmqeAHXvmtscE-j_KEqBVnKrnEFfzEjGxsLg8eHfs3d-1YzIgqAdp1izdtx75qjlMNnT-_NbaIwKM6YE_KYvrEaUWfU1GVGftEn4KKFh4prRXWAr4NEGoZVWSZditueNkZmvox_mzUcslye-q9nrC0_0ZB8iWSLqSyueYTCA-ZRbbIE4_Bv1Dn6R_juR8hSAFO99WDbvcNG1lZg9j7jkJh13H1PcyewvlD5ypDpUSBYuLTs3c1EJLV-oyPIVaFSoPmFG-nP2ghrMa_DSnXZhlwT7Mct7onzDWFH-o8EAtHVLJs3m00]--></g></svg>