<?xml version="1.0" encoding="us-ascii" standalone="no"?><svg xmlns="http://www.w3.org/2000/svg" xmlns:xlink="http://www.w3.org/1999/xlink" contentStyleType="text/css" height="234px" preserveAspectRatio="none" style="width:901px;height:234px;background:#FFFFFF;" version="1.1" viewBox="0 0 901 234" width="901.5px" zoomAndPan="magnify"><defs/><g><rect fill="#FFFFFF" height="151.9941" style="stroke:#181818;stroke-width:0.5;" width="5" x="435" y="45.2666"/><rect fill="#FFFFFF" height="65.4365" style="stroke:#181818;stroke-width:0.5;" width="5" x="437.5" y="109.1787"/><rect fill="#FFFFFF" height="21.1455" style="stroke:#181818;stroke-width:0.5;" width="5" x="440" y="131.3242"/><rect fill="none" height="129.3486" style="stroke:#000000;stroke-width:0.75;" width="498.5" x="400" y="52.7666"/><line style="stroke:#181818;stroke-width:0.25;stroke-dasharray:5.0,5.0;" x1="437.5" x2="437.5" y1="28.6211" y2="206.2607"/><line style="stroke:#181818;stroke-width:0.25;stroke-dasharray:5.0,5.0;" x1="877.5" x2="877.5" y1="82.9727" y2="206.2607"/><rect fill="#E3E3E3" height="25.6211" rx="1.25" ry="1.25" style="stroke:#181818;stroke-width:0.25;" width="65" x="405" y="2.5"/><text fill="#000000" font-family="sans-serif" font-size="7" lengthAdjust="spacing" textLength="58" x="408.5" y="13.5537">vehicleRepository:</text><text fill="#000000" font-family="sans-serif" font-size="7" lengthAdjust="spacing" textLength="56" x="409.5" y="22.8643">vehicleRepository</text><rect fill="#E3E3E3" height="25.6211" rx="1.25" ry="1.25" style="stroke:#181818;stroke-width:0.25;" width="65" x="405" y="205.7607"/><text fill="#000000" font-family="sans-serif" font-size="7" lengthAdjust="spacing" textLength="58" x="408.5" y="216.8145">vehicleRepository:</text><text fill="#000000" font-family="sans-serif" font-size="7" lengthAdjust="spacing" textLength="56" x="409.5" y="226.125">vehicleRepository</text><rect fill="#E3E3E3" height="25.6211" rx="1.25" ry="1.25" style="stroke:#181818;stroke-width:0.25;" width="32" x="861.5" y="205.7607"/><text fill="#000000" font-family="sans-serif" font-size="7" lengthAdjust="spacing" textLength="22" x="866.5" y="216.8145">vehicle</text><text fill="#000000" font-family="sans-serif" font-size="7" lengthAdjust="spacing" textLength="25" x="865" y="226.125">:Vehicle</text><rect fill="#FFFFFF" height="151.9941" style="stroke:#181818;stroke-width:0.5;" width="5" x="435" y="45.2666"/><rect fill="#FFFFFF" height="65.4365" style="stroke:#181818;stroke-width:0.5;" width="5" x="437.5" y="109.1787"/><rect fill="#FFFFFF" height="21.1455" style="stroke:#181818;stroke-width:0.5;" width="5" x="440" y="131.3242"/><polygon fill="#181818" points="429,43.2666,434,45.2666,429,47.2666,431,45.2666" style="stroke:#181818;stroke-width:0.5;"/><line style="stroke:#181818;stroke-width:0.5;" x1="0" x2="432" y1="45.2666" y2="45.2666"/><text fill="#000000" font-family="sans-serif" font-size="6.5" font-weight="bold" lengthAdjust="spacing" textLength="7" x="3.5" y="42.6353">12</text><text fill="#000000" font-family="sans-serif" font-size="6.5" lengthAdjust="spacing" textLength="416.5" x="12.5" y="42.6353">registerVehicle(brand, model, tare, grossWeight, currentKm, registerDate, acquisitionDate, maintenanceCheckUpFrequency, plateNumber, type)</text><path d="M400,52.7666 L474.5,52.7666 L474.5,57.4121 L469.5,62.4121 L400,62.4121 L400,52.7666 " fill="#EEEEEE" style="stroke:#000000;stroke-width:0.75;"/><rect fill="none" height="129.3486" style="stroke:#000000;stroke-width:0.75;" width="498.5" x="400" y="52.7666"/><text fill="#000000" font-family="sans-serif" font-size="6.5" font-weight="bold" lengthAdjust="spacing" textLength="52" x="407.5" y="60.2808">Register Vehicle</text><polygon fill="#181818" points="855.5,72.0576,860.5,74.0576,855.5,76.0576,857.5,74.0576" style="stroke:#181818;stroke-width:0.5;"/><line style="stroke:#181818;stroke-width:0.5;" x1="440" x2="858.5" y1="74.0576" y2="74.0576"/><text fill="#000000" font-family="sans-serif" font-size="6.5" font-weight="bold" lengthAdjust="spacing" textLength="12.5" x="443.5" y="71.4263">12.1</text><text fill="#000000" font-family="sans-serif" font-size="6.5" lengthAdjust="spacing" textLength="395" x="458" y="71.4263">register(brand, model, tare, grossWeight, currentKm, registerDate, acquisitionDate, maintenanceCheckUpFrequency, plateNumber, type)</text><rect fill="#E3E3E3" height="25.6211" rx="1.25" ry="1.25" style="stroke:#181818;stroke-width:0.25;" width="32" x="861.5" y="62.4121"/><text fill="#000000" font-family="sans-serif" font-size="7" lengthAdjust="spacing" textLength="22" x="866.5" y="73.4658">vehicle</text><text fill="#000000" font-family="sans-serif" font-size="7" lengthAdjust="spacing" textLength="25" x="865" y="82.7764">:Vehicle</text><line style="stroke:#181818;stroke-width:0.5;" x1="440" x2="463.5" y1="102.6787" y2="102.6787"/><line style="stroke:#181818;stroke-width:0.5;" x1="463.5" x2="463.5" y1="102.6787" y2="109.1787"/><line style="stroke:#181818;stroke-width:0.5;" x1="443" x2="463.5" y1="109.1787" y2="109.1787"/><polygon fill="#181818" points="448,107.1787,443,109.1787,448,111.1787,446,109.1787" style="stroke:#181818;stroke-width:0.5;"/><text fill="#000000" font-family="sans-serif" font-size="6.5" font-weight="bold" lengthAdjust="spacing" textLength="12.5" x="446" y="100.0474">12.2</text><text fill="#000000" font-family="sans-serif" font-size="6.5" lengthAdjust="spacing" textLength="57.5" x="460.5" y="100.0474">addVehicle (vehicle)</text><line style="stroke:#181818;stroke-width:0.5;" x1="442.5" x2="466" y1="124.8242" y2="124.8242"/><line style="stroke:#181818;stroke-width:0.5;" x1="466" x2="466" y1="124.8242" y2="131.3242"/><line style="stroke:#181818;stroke-width:0.5;" x1="445.5" x2="466" y1="131.3242" y2="131.3242"/><polygon fill="#181818" points="450.5,129.3242,445.5,131.3242,450.5,133.3242,448.5,131.3242" style="stroke:#181818;stroke-width:0.5;"/><text fill="#000000" font-family="sans-serif" font-size="6.5" font-weight="bold" lengthAdjust="spacing" textLength="12.5" x="448.5" y="122.1929">12.3</text><text fill="#000000" font-family="sans-serif" font-size="6.5" lengthAdjust="spacing" textLength="68.5" x="463" y="122.1929">validateVehicle (vehicle)</text><line style="stroke:#181818;stroke-width:0.5;stroke-dasharray:2.0,2.0;" x1="445" x2="466" y1="151.9697" y2="151.9697"/><line style="stroke:#181818;stroke-width:0.5;stroke-dasharray:2.0,2.0;" x1="466" x2="466" y1="151.9697" y2="158.4697"/><line style="stroke:#181818;stroke-width:0.5;stroke-dasharray:2.0,2.0;" x1="442.5" x2="466" y1="158.4697" y2="158.4697"/><polygon fill="#181818" points="447.5,156.4697,442.5,158.4697,447.5,160.4697,445.5,158.4697" style="stroke:#181818;stroke-width:0.5;"/><text fill="#000000" font-family="sans-serif" font-size="6.5" font-weight="bold" lengthAdjust="spacing" textLength="12.5" x="448.5" y="149.3384">12.4</text><text fill="#000000" font-family="sans-serif" font-size="6.5" lengthAdjust="spacing" textLength="2" x="463" y="149.3384">&#160;</text><line style="stroke:#181818;stroke-width:0.5;stroke-dasharray:2.0,2.0;" x1="442.5" x2="463.5" y1="174.1152" y2="174.1152"/><line style="stroke:#181818;stroke-width:0.5;stroke-dasharray:2.0,2.0;" x1="463.5" x2="463.5" y1="174.1152" y2="180.6152"/><line style="stroke:#181818;stroke-width:0.5;stroke-dasharray:2.0,2.0;" x1="440" x2="463.5" y1="180.6152" y2="180.6152"/><polygon fill="#181818" points="445,178.6152,440,180.6152,445,182.6152,443,180.6152" style="stroke:#181818;stroke-width:0.5;"/><text fill="#000000" font-family="sans-serif" font-size="6.5" font-weight="bold" lengthAdjust="spacing" textLength="12.5" x="446" y="171.4839">12.5</text><text fill="#000000" font-family="sans-serif" font-size="6.5" lengthAdjust="spacing" textLength="2" x="460.5" y="171.4839">&#160;</text><polygon fill="#181818" points="5.5,195.2607,0.5,197.2607,5.5,199.2607,3.5,197.2607" style="stroke:#181818;stroke-width:0.5;"/><line style="stroke:#181818;stroke-width:0.5;stroke-dasharray:2.0,2.0;" x1="2.5" x2="437" y1="197.2607" y2="197.2607"/><text fill="#000000" font-family="sans-serif" font-size="6.5" font-weight="bold" lengthAdjust="spacing" textLength="7" x="8.5" y="194.6294">13</text><text fill="#000000" font-family="sans-serif" font-size="6.5" lengthAdjust="spacing" textLength="19.5" x="17.5" y="194.6294">vehicle</text><!--SRC=[pLF1JiCm3BtdAwoTjgb36jmcn6KCWK0SXXYNNRp4jD5Q9qlIeVuzKLjD5QqcX8GWf-JPVk_PSlnUiqM71HI6ZSoSAGY2AqduKyIYt6DABw7A2Hp9W9pctGIVeJ8VcbDunzoJ414EMcgB761qf4pBdDPaZTV1k6gnvHus0lJGGmU9jhpODBUwQBEwVrW-hOJ0CXWkYnqvc5-AsKsV3XRHVgfz8DSoZ7SEMIMnUKLv0W4T9P0wu_qRwJGB2SZIEUBmM2IdsbiCCGlbeTIHLnjkW08r1s9aISkCvFxLtZawbCIoIi3cCUUvTXTbAakJBuOlvX6GGHzZti0W89xegxImRbr0suAeOztJxpiEentJTDePmfzs_otN_Tq1LAhj7CPjUD8ZEpF97miVCTSgSlww-f1yhqxH_r0XLirYDi_kJb_LoFLiDlWJMqoSb_W4]--></g></svg>