<?xml version="1.0" encoding="us-ascii" standalone="no"?><svg xmlns="http://www.w3.org/2000/svg" xmlns:xlink="http://www.w3.org/1999/xlink" contentStyleType="text/css" height="376.5px" preserveAspectRatio="none" style="width:1072px;height:376px;background:#FFFFFF;" version="1.1" viewBox="0 0 1072 376" width="1072px" zoomAndPan="magnify"><defs/><g><rect fill="#FFFFFF" height="260.9736" style="stroke:#181818;stroke-width:0.5;" width="5" x="15.5" y="56.1211"/><rect fill="#FFFFFF" height="37.4561" style="stroke:#181818;stroke-width:0.5;" width="5" x="156" y="67.7666"/><rect fill="#FFFFFF" height="15.6455" style="stroke:#181818;stroke-width:0.5;" width="5" x="156" y="120.8682"/><rect fill="#FFFFFF" height="164.9355" style="stroke:#181818;stroke-width:0.5;" width="5" x="156" y="152.1592"/><rect fill="#FFFFFF" height="133.6445" style="stroke:#181818;stroke-width:0.5;" width="5" x="592.5" y="167.8047"/><rect fill="#FFFFFF" height="15.6455" style="stroke:#181818;stroke-width:0.5;" width="5" x="667.25" y="183.4502"/><rect fill="#FFFFFF" height="15.6455" style="stroke:#181818;stroke-width:0.5;" width="5" x="720.75" y="214.7412"/><rect fill="#FFFFFF" height="39.7715" style="stroke:#181818;stroke-width:0.5;" width="5" x="1032.5" y="246.0322"/><line style="stroke:#181818;stroke-width:0.25;stroke-dasharray:5.0,5.0;" x1="18" x2="18" y1="51.1211" y2="326.0947"/><line style="stroke:#181818;stroke-width:0.25;stroke-dasharray:5.0,5.0;" x1="158.25" x2="158.25" y1="51.1211" y2="326.0947"/><line style="stroke:#181818;stroke-width:0.25;stroke-dasharray:5.0,5.0;" x1="595" x2="595" y1="87.6719" y2="326.0947"/><line style="stroke:#181818;stroke-width:0.25;stroke-dasharray:5.0,5.0;" x1="669.5" x2="669.5" y1="51.1211" y2="326.0947"/><line style="stroke:#181818;stroke-width:0.25;stroke-dasharray:5.0,5.0;" x1="723" x2="723" y1="51.1211" y2="326.0947"/><line style="stroke:#181818;stroke-width:0.25;stroke-dasharray:5.0,5.0;" x1="1035" x2="1035" y1="51.1211" y2="326.0947"/><text fill="#000000" font-family="sans-serif" font-size="7" lengthAdjust="spacing" textLength="16" x="8.5" y="40.0537">Fleet</text><text fill="#000000" font-family="sans-serif" font-size="7" lengthAdjust="spacing" textLength="28" x="2.5" y="49.3643">Manager</text><ellipse cx="18" cy="6.75" fill="#E3E3E3" rx="4" ry="4" style="stroke:#181818;stroke-width:0.25;"/><path d="M18,10.75 L18,24.25 M11.5,14.75 L24.5,14.75 M18,24.25 L11.5,31.75 M18,24.25 L24.5,31.75 " fill="none" style="stroke:#181818;stroke-width:0.25;"/><text fill="#000000" font-family="sans-serif" font-size="7" lengthAdjust="spacing" textLength="16" x="8.5" y="333.1484">Fleet</text><text fill="#000000" font-family="sans-serif" font-size="7" lengthAdjust="spacing" textLength="28" x="2.5" y="342.459">Manager</text><ellipse cx="18" cy="348.4658" fill="#E3E3E3" rx="4" ry="4" style="stroke:#181818;stroke-width:0.25;"/><path d="M18,352.4658 L18,365.9658 M11.5,356.4658 L24.5,356.4658 M18,365.9658 L11.5,373.4658 M18,365.9658 L24.5,373.4658 " fill="none" style="stroke:#181818;stroke-width:0.25;"/><rect fill="#E3E3E3" height="16.3105" rx="1.25" ry="1.25" style="stroke:#181818;stroke-width:0.25;" width="64.5" x="126.25" y="34.3105"/><text fill="#000000" font-family="sans-serif" font-size="7" lengthAdjust="spacing" textLength="57.5" x="129.75" y="45.3643">:RegisterVehicleUI</text><rect fill="#E3E3E3" height="16.3105" rx="1.25" ry="1.25" style="stroke:#181818;stroke-width:0.25;" width="64.5" x="126.25" y="325.5947"/><text fill="#000000" font-family="sans-serif" font-size="7" lengthAdjust="spacing" textLength="57.5" x="129.75" y="336.6484">:RegisterVehicleUI</text><rect fill="#E3E3E3" height="16.3105" rx="1.25" ry="1.25" style="stroke:#181818;stroke-width:0.25;" width="91" x="549.5" y="325.5947"/><text fill="#000000" font-family="sans-serif" font-size="7" lengthAdjust="spacing" textLength="84" x="553" y="336.6484">:RegisterVehicleControlller</text><rect fill="#E3E3E3" height="16.3105" rx="1.25" ry="1.25" style="stroke:#181818;stroke-width:0.25;" width="48.5" x="645.5" y="34.3105"/><text fill="#000000" font-family="sans-serif" font-size="7" lengthAdjust="spacing" textLength="41.5" x="649" y="45.3643">:Repositories</text><rect fill="#E3E3E3" height="16.3105" rx="1.25" ry="1.25" style="stroke:#181818;stroke-width:0.25;" width="48.5" x="645.5" y="325.5947"/><text fill="#000000" font-family="sans-serif" font-size="7" lengthAdjust="spacing" textLength="41.5" x="649" y="336.6484">:Repositories</text><rect fill="#E3E3E3" height="25.6211" rx="1.25" ry="1.25" style="stroke:#181818;stroke-width:0.25;" width="48.5" x="699" y="25"/><text fill="#000000" font-family="sans-serif" font-size="7" lengthAdjust="spacing" textLength="37" x="704.75" y="36.0537">repositories</text><text fill="#000000" font-family="sans-serif" font-size="7" lengthAdjust="spacing" textLength="41.5" x="702.5" y="45.3643">:Repositories</text><rect fill="#E3E3E3" height="25.6211" rx="1.25" ry="1.25" style="stroke:#181818;stroke-width:0.25;" width="48.5" x="699" y="325.5947"/><text fill="#000000" font-family="sans-serif" font-size="7" lengthAdjust="spacing" textLength="37" x="704.75" y="336.6484">repositories</text><text fill="#000000" font-family="sans-serif" font-size="7" lengthAdjust="spacing" textLength="41.5" x="702.5" y="345.959">:Repositories</text><rect fill="#E3E3E3" height="25.6211" rx="1.25" ry="1.25" style="stroke:#181818;stroke-width:0.25;" width="65" x="1002.5" y="25"/><text fill="#000000" font-family="sans-serif" font-size="7" lengthAdjust="spacing" textLength="58" x="1006" y="36.0537">vehicleRepository:</text><text fill="#000000" font-family="sans-serif" font-size="7" lengthAdjust="spacing" textLength="56" x="1007" y="45.3643">vehicleRepository</text><rect fill="#E3E3E3" height="25.6211" rx="1.25" ry="1.25" style="stroke:#181818;stroke-width:0.25;" width="65" x="1002.5" y="325.5947"/><text fill="#000000" font-family="sans-serif" font-size="7" lengthAdjust="spacing" textLength="58" x="1006" y="336.6484">vehicleRepository:</text><text fill="#000000" font-family="sans-serif" font-size="7" lengthAdjust="spacing" textLength="56" x="1007" y="345.959">vehicleRepository</text><rect fill="#FFFFFF" height="260.9736" style="stroke:#181818;stroke-width:0.5;" width="5" x="15.5" y="56.1211"/><rect fill="#FFFFFF" height="37.4561" style="stroke:#181818;stroke-width:0.5;" width="5" x="156" y="67.7666"/><rect fill="#FFFFFF" height="15.6455" style="stroke:#181818;stroke-width:0.5;" width="5" x="156" y="120.8682"/><rect fill="#FFFFFF" height="164.9355" style="stroke:#181818;stroke-width:0.5;" width="5" x="156" y="152.1592"/><rect fill="#FFFFFF" height="133.6445" style="stroke:#181818;stroke-width:0.5;" width="5" x="592.5" y="167.8047"/><rect fill="#FFFFFF" height="15.6455" style="stroke:#181818;stroke-width:0.5;" width="5" x="667.25" y="183.4502"/><rect fill="#FFFFFF" height="15.6455" style="stroke:#181818;stroke-width:0.5;" width="5" x="720.75" y="214.7412"/><rect fill="#FFFFFF" height="39.7715" style="stroke:#181818;stroke-width:0.5;" width="5" x="1032.5" y="246.0322"/><polygon fill="#181818" points="150,65.7666,155,67.7666,150,69.7666,152,67.7666" style="stroke:#181818;stroke-width:0.5;"/><line style="stroke:#181818;stroke-width:0.5;" x1="20.5" x2="153" y1="67.7666" y2="67.7666"/><text fill="#000000" font-family="sans-serif" font-size="6.5" font-weight="bold" lengthAdjust="spacing" textLength="3.5" x="24" y="65.1353">1</text><text fill="#000000" font-family="sans-serif" font-size="6.5" lengthAdjust="spacing" textLength="85.5" x="29.5" y="65.1353">asks to register a new vehicle</text><polygon fill="#181818" points="543.5,81.4121,548.5,83.4121,543.5,85.4121,545.5,83.4121" style="stroke:#181818;stroke-width:0.5;"/><line style="stroke:#181818;stroke-width:0.5;" x1="161" x2="546.5" y1="83.4121" y2="83.4121"/><text fill="#000000" font-family="sans-serif" font-size="6.5" font-weight="bold" lengthAdjust="spacing" textLength="3.5" x="164.5" y="80.7808">2</text><text fill="#000000" font-family="sans-serif" font-size="6.5" lengthAdjust="spacing" textLength="18" x="170" y="80.7808">create</text><rect fill="#E3E3E3" height="16.3105" rx="1.25" ry="1.25" style="stroke:#181818;stroke-width:0.25;" width="91" x="549.5" y="71.7666"/><text fill="#000000" font-family="sans-serif" font-size="7" lengthAdjust="spacing" textLength="84" x="553" y="82.8203">:RegisterVehicleControlller</text><polygon fill="#181818" points="26,103.2227,21,105.2227,26,107.2227,24,105.2227" style="stroke:#181818;stroke-width:0.5;"/><line style="stroke:#181818;stroke-width:0.5;stroke-dasharray:2.0,2.0;" x1="23" x2="158" y1="105.2227" y2="105.2227"/><text fill="#000000" font-family="sans-serif" font-size="6.5" font-weight="bold" lengthAdjust="spacing" textLength="3.5" x="29" y="102.5913">3</text><text fill="#000000" font-family="sans-serif" font-size="6.5" lengthAdjust="spacing" textLength="39.5" x="34.5" y="102.5913">requests data</text><polygon fill="#181818" points="150,118.8682,155,120.8682,150,122.8682,152,120.8682" style="stroke:#181818;stroke-width:0.5;"/><line style="stroke:#181818;stroke-width:0.5;" x1="20.5" x2="153" y1="120.8682" y2="120.8682"/><text fill="#000000" font-family="sans-serif" font-size="6.5" font-weight="bold" lengthAdjust="spacing" textLength="3.5" x="24" y="118.2368">4</text><text fill="#000000" font-family="sans-serif" font-size="6.5" lengthAdjust="spacing" textLength="84" x="29.5" y="118.2368">types/selects requested data</text><polygon fill="#181818" points="26,134.5137,21,136.5137,26,138.5137,24,136.5137" style="stroke:#181818;stroke-width:0.5;"/><line style="stroke:#181818;stroke-width:0.5;stroke-dasharray:2.0,2.0;" x1="23" x2="158" y1="136.5137" y2="136.5137"/><text fill="#000000" font-family="sans-serif" font-size="6.5" font-weight="bold" lengthAdjust="spacing" textLength="3.5" x="29" y="133.8823">5</text><text fill="#000000" font-family="sans-serif" font-size="6.5" lengthAdjust="spacing" textLength="118" x="34.5" y="133.8823">shows all data and requests confirmation</text><polygon fill="#181818" points="150,150.1592,155,152.1592,150,154.1592,152,152.1592" style="stroke:#181818;stroke-width:0.5;"/><line style="stroke:#181818;stroke-width:0.5;" x1="20.5" x2="153" y1="152.1592" y2="152.1592"/><text fill="#000000" font-family="sans-serif" font-size="6.5" font-weight="bold" lengthAdjust="spacing" textLength="3.5" x="24" y="149.5278">6</text><text fill="#000000" font-family="sans-serif" font-size="6.5" lengthAdjust="spacing" textLength="39" x="29.5" y="149.5278">confirms data</text><polygon fill="#181818" points="586.5,165.8047,591.5,167.8047,586.5,169.8047,588.5,167.8047" style="stroke:#181818;stroke-width:0.5;"/><line style="stroke:#181818;stroke-width:0.5;" x1="161" x2="589.5" y1="167.8047" y2="167.8047"/><text fill="#000000" font-family="sans-serif" font-size="6.5" font-weight="bold" lengthAdjust="spacing" textLength="3.5" x="164.5" y="165.1733">7</text><text fill="#000000" font-family="sans-serif" font-size="6.5" lengthAdjust="spacing" textLength="416.5" x="170" y="165.1733">registerVehicle(brand, model, tare, grossWeight, currentKm, registerDate, acquisitionDate, maintenanceCheckUpFrequency, plateNumber, type)</text><polygon fill="#181818" points="661.25,181.4502,666.25,183.4502,661.25,185.4502,663.25,183.4502" style="stroke:#181818;stroke-width:0.5;"/><line style="stroke:#181818;stroke-width:0.5;" x1="597.5" x2="664.25" y1="183.4502" y2="183.4502"/><text fill="#000000" font-family="sans-serif" font-size="6.5" font-weight="bold" lengthAdjust="spacing" textLength="3.5" x="601" y="180.8188">8</text><text fill="#000000" font-family="sans-serif" font-size="6.5" lengthAdjust="spacing" textLength="37.5" x="606.5" y="180.8188">getInstance()</text><polygon fill="#181818" points="603,197.0957,598,199.0957,603,201.0957,601,199.0957" style="stroke:#181818;stroke-width:0.5;"/><line style="stroke:#181818;stroke-width:0.5;stroke-dasharray:2.0,2.0;" x1="600" x2="669.25" y1="199.0957" y2="199.0957"/><text fill="#000000" font-family="sans-serif" font-size="6.5" font-weight="bold" lengthAdjust="spacing" textLength="3.5" x="606" y="196.4644">9</text><text fill="#000000" font-family="sans-serif" font-size="6.5" lengthAdjust="spacing" textLength="33.5" x="611.5" y="196.4644">repositories</text><polygon fill="#181818" points="714.75,212.7412,719.75,214.7412,714.75,216.7412,716.75,214.7412" style="stroke:#181818;stroke-width:0.5;"/><line style="stroke:#181818;stroke-width:0.5;" x1="597.5" x2="717.75" y1="214.7412" y2="214.7412"/><text fill="#000000" font-family="sans-serif" font-size="6.5" font-weight="bold" lengthAdjust="spacing" textLength="7" x="601" y="212.1099">10</text><text fill="#000000" font-family="sans-serif" font-size="6.5" lengthAdjust="spacing" textLength="65.5" x="610" y="212.1099">getVehicleRepository()</text><polygon fill="#181818" points="603,228.3867,598,230.3867,603,232.3867,601,230.3867" style="stroke:#181818;stroke-width:0.5;"/><line style="stroke:#181818;stroke-width:0.5;stroke-dasharray:2.0,2.0;" x1="600" x2="722.75" y1="230.3867" y2="230.3867"/><text fill="#000000" font-family="sans-serif" font-size="6.5" font-weight="bold" lengthAdjust="spacing" textLength="7" x="606" y="227.7554">11</text><text fill="#000000" font-family="sans-serif" font-size="6.5" lengthAdjust="spacing" textLength="50.5" x="615" y="227.7554">vehicleRepository</text><polygon fill="#181818" points="1026.5,244.0322,1031.5,246.0322,1026.5,248.0322,1028.5,246.0322" style="stroke:#181818;stroke-width:0.5;"/><line style="stroke:#181818;stroke-width:0.5;" x1="597.5" x2="1029.5" y1="246.0322" y2="246.0322"/><text fill="#000000" font-family="sans-serif" font-size="6.5" font-weight="bold" lengthAdjust="spacing" textLength="7" x="601" y="243.4009">12</text><text fill="#000000" font-family="sans-serif" font-size="6.5" lengthAdjust="spacing" textLength="416.5" x="610" y="243.4009">registerVehicle(brand, model, tare, grossWeight, currentKm, registerDate, acquisitionDate, maintenanceCheckUpFrequency, plateNumber, type)</text><rect fill="none" height="21.626" style="stroke:#000000;stroke-width:0.75;" width="68" x="1001" y="250.0322"/><path d="M1001,250.0322 L1032,250.0322 L1032,254.5322 L1027,259.5322 L1001,259.5322 L1001,250.0322 " fill="#EEEEEE" style="stroke:#000000;stroke-width:1.0;"/><text fill="#000000" font-family="sans-serif" font-size="6.5" font-weight="bold" lengthAdjust="spacing" textLength="8.5" x="1007.5" y="258.0464">ref</text><text fill="#000000" font-family="sans-serif" font-size="6" lengthAdjust="spacing" textLength="45" x="1012.5" y="268.0068">Register Vehicle</text><polygon fill="#181818" points="603,283.8037,598,285.8037,603,287.8037,601,285.8037" style="stroke:#181818;stroke-width:0.5;"/><line style="stroke:#181818;stroke-width:0.5;stroke-dasharray:2.0,2.0;" x1="600" x2="1034.5" y1="285.8037" y2="285.8037"/><text fill="#000000" font-family="sans-serif" font-size="6.5" font-weight="bold" lengthAdjust="spacing" textLength="7" x="606" y="283.1724">13</text><text fill="#000000" font-family="sans-serif" font-size="6.5" lengthAdjust="spacing" textLength="19.5" x="615" y="283.1724">vehicle</text><polygon fill="#181818" points="166.5,299.4492,161.5,301.4492,166.5,303.4492,164.5,301.4492" style="stroke:#181818;stroke-width:0.5;"/><line style="stroke:#181818;stroke-width:0.5;stroke-dasharray:2.0,2.0;" x1="163.5" x2="594.5" y1="301.4492" y2="301.4492"/><text fill="#000000" font-family="sans-serif" font-size="6.5" font-weight="bold" lengthAdjust="spacing" textLength="7" x="169.5" y="298.8179">14</text><text fill="#000000" font-family="sans-serif" font-size="6.5" lengthAdjust="spacing" textLength="19.5" x="178.5" y="298.8179">vehicle</text><polygon fill="#181818" points="23.5,315.0947,18.5,317.0947,23.5,319.0947,21.5,317.0947" style="stroke:#181818;stroke-width:0.5;"/><line style="stroke:#181818;stroke-width:0.5;stroke-dasharray:2.0,2.0;" x1="20.5" x2="158" y1="317.0947" y2="317.0947"/><text fill="#000000" font-family="sans-serif" font-size="6.5" font-weight="bold" lengthAdjust="spacing" textLength="7" x="26.5" y="314.4634">15</text><text fill="#000000" font-family="sans-serif" font-size="6.5" lengthAdjust="spacing" textLength="79" x="35.5" y="314.4634">displays operation success</text><!--SRC=[pLJ1Zjem4BtdAqPSkhjArNiElT0YePQg8eLUk1XdI2mSE-jneFnz9mQ2is5HZ_NDupTldfzdJ7jb6k543RKrLbRErWZUjPXGVz88kHSbvlwa4HnABqofOm1Leh17PKhO2KsO9ABrrhJr5bsIVAXKWR2prc_jdqH8RnrCPXhHRyn262Ps4n04iqN2R5v9rGZZOP8jiLJaqQsnKbBZQXvWg_bZsDGQxwpM-a8x_RNyFifeB2dMeP02Pldrvn3Y8iJ6t4t8Xnc7S_KUUSesPXGBkQDeqfcY3i9Zvq42l6OB-FYPhmePP-m9l6NVpzS40GQFLvQ0xjFPcn3e5YSpHNVxbnUcaGuPSJxkZlYCYsHC-zeYUO92U15E2npnHNBygK7wHAYv3UYQZSKjVPGSLwFA7Wc4rW4FmXGt0TAQdNAryCgQVn1oWTE3oaCRijx2IwSyRHqBIBdn2zGfUE4mXT9Pej-eoigd85ldqFXlTThdVk42APTwRHM_7aiz1sgXZ4SZZCHfXNA_QcRXOaQUKcWqOtw4SKY3WS-zl5vpQDC-tAqkqcddNikWH3ytv3l-f-S1h6VecdXmme7W_FNojnuUm2ARHnIHXZo8MBzjtWTgyf6SFD8p7eFtHUNtLOrdxdzyue4jTuOVtYo7Ex077lJ73lMsNl-5TVGZn0l3aEs6XKRSuvTvxpqUNE7yC652npGHnQtPuy-XKCGsdWXiWovy0q2jb4Xqxpk8jlnh_WK0]--></g></svg>