<?xml version="1.0" encoding="us-ascii" standalone="no"?><svg xmlns="http://www.w3.org/2000/svg" xmlns:xlink="http://www.w3.org/1999/xlink" contentStyleType="text/css" height="705.1px" preserveAspectRatio="none" style="width:391px;height:705px;background:#FFFFFF;" version="1.1" viewBox="0 0 391 705" width="391.6px" zoomAndPan="magnify"><defs/><g><text fill="#000000" font-family="sans-serif" font-size="15.4" font-weight="bold" lengthAdjust="spacing" textLength="171.6" x="102.575" y="27.6182">Domain Model - US022</text><!--class Organization--><g id="elem_Organization"><rect codeLine="12" fill="#F1F1F1" height="40.2832" id="Organization" rx="2.75" ry="2.75" style="stroke:#181818;stroke-width:0.55;" width="94.6" x="193.05" y="51.2832"/><text fill="#000000" font-family="sans-serif" font-size="15.4" lengthAdjust="spacing" textLength="88" x="196.35" y="73.4014">Organization</text><line style="stroke:#181818;stroke-width:0.55;" x1="194.15" x2="286.55" y1="82.7664" y2="82.7664"/></g><!--class GreenSpacesManager--><g id="elem_GreenSpacesManager"><rect codeLine="15" fill="#F1F1F1" height="60.7664" id="GreenSpacesManager" rx="2.75" ry="2.75" style="stroke:#181818;stroke-width:0.55;" width="163.9" x="7.7" y="178.8832"/><text fill="#000000" font-family="sans-serif" font-size="15.4" lengthAdjust="spacing" textLength="157.3" x="11" y="201.0014">GreenSpacesManager</text><line style="stroke:#181818;stroke-width:0.55;" x1="8.8" x2="170.5" y1="210.3664" y2="210.3664"/><text fill="#000000" font-family="sans-serif" font-size="15.4" lengthAdjust="spacing" textLength="36.3" x="14.3" y="231.3846">email</text></g><!--class Agenda--><g id="elem_Agenda"><rect codeLine="19" fill="#F1F1F1" height="40.2832" id="Agenda" rx="2.75" ry="2.75" style="stroke:#181818;stroke-width:0.55;" width="60.5" x="210.1" y="188.7832"/><text fill="#000000" font-family="sans-serif" font-size="15.4" lengthAdjust="spacing" textLength="53.9" x="213.4" y="210.9014">Agenda</text><line style="stroke:#181818;stroke-width:0.55;" x1="211.2" x2="269.5" y1="220.2664" y2="220.2664"/></g><!--class ToDoList--><g id="elem_ToDoList"><rect codeLine="22" fill="#F1F1F1" height="40.2832" id="ToDoList" rx="2.75" ry="2.75" style="stroke:#181818;stroke-width:0.55;" width="69.3" x="313.5" y="272.3832"/><text fill="#000000" font-family="sans-serif" font-size="15.4" lengthAdjust="spacing" textLength="62.7" x="316.8" y="294.5014">ToDoList</text><line style="stroke:#181818;stroke-width:0.55;" x1="314.6" x2="381.7" y1="303.8664" y2="303.8664"/></g><!--class Entry--><g id="elem_Entry"><rect codeLine="25" fill="#F1F1F1" height="81.2496" id="Entry" rx="2.75" ry="2.75" style="stroke:#181818;stroke-width:0.55;" width="97.9" x="173.8" y="346.0832"/><text fill="#000000" font-family="sans-serif" font-size="15.4" lengthAdjust="spacing" textLength="36.3" x="204.6" y="368.2014">Entry</text><line style="stroke:#181818;stroke-width:0.55;" x1="174.9" x2="270.6" y1="377.5664" y2="377.5664"/><text fill="#000000" font-family="sans-serif" font-size="15.4" lengthAdjust="spacing" textLength="84.7" x="180.4" y="398.5846">startingDate</text><text fill="#000000" font-family="sans-serif" font-size="15.4" lengthAdjust="spacing" textLength="41.8" x="180.4" y="419.0678">status</text></g><!--class Task--><g id="elem_Task"><rect codeLine="30" fill="#F1F1F1" height="183.6656" id="Task" rx="2.75" ry="2.75" style="stroke:#181818;stroke-width:0.55;" width="136.4" x="118.25" y="514.3832"/><text fill="#000000" font-family="sans-serif" font-size="15.4" lengthAdjust="spacing" textLength="34.1" x="169.4" y="536.5014">Task</text><line style="stroke:#181818;stroke-width:0.55;" x1="119.35" x2="253.55" y1="545.8664" y2="545.8664"/><text fill="#000000" font-family="sans-serif" font-size="15.4" lengthAdjust="spacing" textLength="24.2" x="124.85" y="566.8846">title</text><text fill="#000000" font-family="sans-serif" font-size="15.4" lengthAdjust="spacing" textLength="75.9" x="124.85" y="587.3678">description</text><text fill="#000000" font-family="sans-serif" font-size="15.4" lengthAdjust="spacing" textLength="123.2" x="124.85" y="607.851">degreeOfUrgency</text><text fill="#000000" font-family="sans-serif" font-size="15.4" lengthAdjust="spacing" textLength="122.1" x="124.85" y="628.3342">expectedDuration</text><text fill="#000000" font-family="sans-serif" font-size="15.4" lengthAdjust="spacing" textLength="29.7" x="124.85" y="648.8174">type</text><text fill="#000000" font-family="sans-serif" font-size="15.4" lengthAdjust="spacing" textLength="84.7" x="124.85" y="669.3006">greenSpace</text><text fill="#000000" font-family="sans-serif" font-size="15.4" lengthAdjust="spacing" textLength="41.8" x="124.85" y="689.7838">status</text></g><!--link Organization to GreenSpacesManager--><g id="link_Organization_GreenSpacesManager"><path codeLine="40" d="M218.757,92.1152 C193.534,114.7752 151.525,152.4832 122.298,178.7182 " fill="none" id="Organization-GreenSpacesManager" style="stroke:#181818;stroke-width:1.1;"/><polygon fill="#000000" points="180.1575,139.2676,189.7207,135.0262,185.4012,130.2151,180.1575,139.2676" style="stroke:#000000;stroke-width:1.1;"/><text fill="#000000" font-family="sans-serif" font-size="14.3" lengthAdjust="spacing" textLength="23.1" x="194.15" y="141.5144">has</text><text fill="#000000" font-family="sans-serif" font-size="14.3" lengthAdjust="spacing" textLength="7.7" x="204.2192" y="115.6627">1</text><text fill="#000000" font-family="sans-serif" font-size="14.3" lengthAdjust="spacing" textLength="22" x="105.3041" y="166.2599">1..*</text></g><!--link Organization to Agenda--><g id="link_Organization_Agenda"><path codeLine="41" d="M240.35,92.1152 C240.35,117.8442 240.35,162.9772 240.35,188.6842 " fill="none" id="Organization-Agenda" style="stroke:#181818;stroke-width:1.1;"/><polygon fill="#000000" points="245.85,141.0933,249.0828,131.1437,242.6172,131.1437,245.85,141.0933" style="stroke:#000000;stroke-width:1.1;"/><text fill="#000000" font-family="sans-serif" font-size="14.3" lengthAdjust="spacing" textLength="23.1" x="255.75" y="141.5144">has</text><text fill="#000000" font-family="sans-serif" font-size="14.3" lengthAdjust="spacing" textLength="7.7" x="231.6153" y="115.6627">1</text><text fill="#000000" font-family="sans-serif" font-size="14.3" lengthAdjust="spacing" textLength="7.7" x="231.4709" y="176.4023">1</text></g><!--link Organization to ToDoList--><g id="link_Organization_ToDoList"><path codeLine="42" d="M261.767,91.9942 C271.051,101.2452 281.446,112.9272 288.75,124.9832 C318.362,173.8452 336.303,239.6802 343.893,272.0312 " fill="none" id="Organization-ToDoList" style="stroke:#181818;stroke-width:1.1;"/><polygon fill="#000000" points="307.5326,140.5972,306.3446,130.2033,300.4621,132.8867,307.5326,140.5972" style="stroke:#000000;stroke-width:1.1;"/><text fill="#000000" font-family="sans-serif" font-size="14.3" lengthAdjust="spacing" textLength="23.1" x="315.15" y="141.5144">has</text><text fill="#000000" font-family="sans-serif" font-size="14.3" lengthAdjust="spacing" textLength="7.7" x="259.0077" y="115.8852">1</text><text fill="#000000" font-family="sans-serif" font-size="14.3" lengthAdjust="spacing" textLength="7.7" x="333.8116" y="260.0428">1</text></g><!--link GreenSpacesManager to Task--><g id="link_GreenSpacesManager_Task"><path codeLine="43" d="M85.602,239.6142 C80.74,281.9092 75.163,362.0552 91.85,427.4832 C99.407,457.1062 112.849,487.2352 127.27,514.0642 " fill="none" id="GreenSpacesManager-Task" style="stroke:#181818;stroke-width:1.1;"/><polygon fill="#000000" points="98.1756,392.3809,99.8783,382.0588,93.4859,383.0293,98.1756,392.3809" style="stroke:#000000;stroke-width:1.1;"/><text fill="#000000" font-family="sans-serif" font-size="14.3" lengthAdjust="spacing" textLength="46.2" x="107.25" y="392.8644">selects</text><text fill="#000000" font-family="sans-serif" font-size="14.3" lengthAdjust="spacing" textLength="7.7" x="76.1743" y="263.7643">1</text><text fill="#000000" font-family="sans-serif" font-size="14.3" lengthAdjust="spacing" textLength="7.7" x="114.1534" y="502.0863">1</text></g><!--link GreenSpacesManager to Entry--><g id="link_GreenSpacesManager_Entry"><path codeLine="44" d="M111.925,239.6032 C134.057,268.7642 168.135,313.6882 192.654,346.0172 " fill="none" id="GreenSpacesManager-Entry" style="stroke:#181818;stroke-width:1.1;"/><polygon fill="#000000" points="173.2742,297.275,169.8362,287.3944,164.6852,291.3022,173.2742,297.275" style="stroke:#000000;stroke-width:1.1;"/><text fill="#000000" font-family="sans-serif" font-size="14.3" lengthAdjust="spacing" textLength="30.8" x="179.85" y="298.8144">adds</text><text fill="#000000" font-family="sans-serif" font-size="14.3" lengthAdjust="spacing" textLength="7.7" x="108.2555" y="263.7509">1</text><text fill="#000000" font-family="sans-serif" font-size="14.3" lengthAdjust="spacing" textLength="22" x="163.0769" y="333.5516">1..*</text></g><!--link Agenda to Entry--><g id="link_Agenda_Entry"><path codeLine="45" d="M238.403,229.6812 C235.598,257.6102 230.373,309.6842 226.732,345.9622 " fill="none" id="Agenda-Entry" style="stroke:#181818;stroke-width:1.1;"/><polygon fill="#000000" points="238.7007,298.3658,242.911,288.7888,236.4777,288.1431,238.7007,298.3658" style="stroke:#000000;stroke-width:1.1;"/><text fill="#000000" font-family="sans-serif" font-size="14.3" lengthAdjust="spacing" textLength="23.1" x="249.15" y="298.8144">has</text><text fill="#000000" font-family="sans-serif" font-size="14.3" lengthAdjust="spacing" textLength="7.7" x="229.1451" y="253.2465">1</text><text fill="#000000" font-family="sans-serif" font-size="14.3" lengthAdjust="spacing" textLength="22" x="203.4819" y="333.7986">0..*</text></g><!--link ToDoList to Task--><g id="link_ToDoList_Task"><path codeLine="46" d="M347.776,313.1492 C346.335,348.5802 339.691,425.4482 309.65,481.3832 C295.955,506.8922 275.33,530.5862 254.859,550.2762 " fill="none" id="ToDoList-Task" style="stroke:#181818;stroke-width:1.1;"/><polygon fill="#000000" points="348.3434,392.0642,354.9834,383.9798,348.9634,381.6209,348.3434,392.0642" style="stroke:#000000;stroke-width:1.1;"/><text fill="#000000" font-family="sans-serif" font-size="14.3" lengthAdjust="spacing" textLength="23.1" x="360.25" y="392.8644">has</text><text fill="#000000" font-family="sans-serif" font-size="14.3" lengthAdjust="spacing" textLength="7.7" x="338.888" y="337.0557">1</text><text fill="#000000" font-family="sans-serif" font-size="14.3" lengthAdjust="spacing" textLength="22" x="263.5444" y="539.8838">0..*</text></g><!--link Task to Entry--><g id="link_Task_Entry"><path codeLine="47" d="M201.652,514.1742 C206.69,484.0122 212.036,451.9802 216.095,427.7252 " fill="none" id="Task-Entry" style="stroke:#181818;stroke-width:1.1;"/><polygon fill="#000000" points="217.0563,465.6685,212.2281,474.9493,218.6054,476.0147,217.0563,465.6685" style="stroke:#000000;stroke-width:1.1;"/><text fill="#000000" font-family="sans-serif" font-size="14.3" lengthAdjust="spacing" textLength="73.7" x="226.05" y="477.0144">assigned to</text><text fill="#000000" font-family="sans-serif" font-size="14.3" lengthAdjust="spacing" textLength="7.7" x="194.963" y="501.8894">1</text><text fill="#000000" font-family="sans-serif" font-size="14.3" lengthAdjust="spacing" textLength="7.7" x="206.6551" y="451.5249">1</text></g><!--link Entry to Task--><g id="link_Entry_Task"><path codeLine="48" d="M179.894,427.4942 C171.787,437.4052 164.461,448.6252 160.05,460.4832 C153.725,477.4672 152.944,496.1562 155.111,514.3062 " fill="none" id="Entry-Task" style="stroke:#181818;stroke-width:1.1;"/><polygon fill="#000000" points="164.0402,476.382,169.8801,467.7021,163.6628,465.9272,164.0402,476.382" style="stroke:#000000;stroke-width:1.1;"/><text fill="#000000" font-family="sans-serif" font-size="14.3" lengthAdjust="spacing" textLength="23.1" x="175.45" y="477.0144">has</text><text fill="#000000" font-family="sans-serif" font-size="14.3" lengthAdjust="spacing" textLength="7.7" x="164.1664" y="451.57">1</text><text fill="#000000" font-family="sans-serif" font-size="14.3" lengthAdjust="spacing" textLength="7.7" x="144.277" y="502.0332">1</text></g><!--SRC=[XP3FJiCm3CRlUGghHwHDOySTa2OL8IIc7SOUm2HU6wrDgjWJT8Xt9_rB1qFhfOdzo-VF7n-jgp1W2QLtNkV1bmGIJgHux5IeZvZHJkg2890MT5an1JX7uz-jo-201PEQj7I1p6kHODzEGi_Qkvqz4ooKogqXq3ReADMUIvBS6rPAhCH1gI_HEjXuGmNCOBzRB9TAjNgm3HawUqQnti6d-XhgJu78xQ9VuWsww3d4BiIFebRnmwqpSWQdBrzzwbyioxJsw2JKlG0B1eaRfYWq5EJ44m7aOy-s_jkJ8TR1LetD_fv5Xzl3FaG3kkwiVLGnKZBfAU08Ibrr2jcuqQ-f5n4azmdCPl4tdzybrr9OGOuC3_-yIeP0Rc5ZIWDuPTGKRp9P0LCHDsIumRVUkynNWCOq-hslWLbSC9s5qTCbrC_kcUOoCJPEORQP8mFY8zLL__hlDBu1]--></g></svg>