<?xml version="1.0" encoding="us-ascii" standalone="no"?><svg xmlns="http://www.w3.org/2000/svg" xmlns:xlink="http://www.w3.org/1999/xlink" contentStyleType="text/css" height="513px" preserveAspectRatio="none" style="width:379px;height:513px;background:#FFFFFF;" version="1.1" viewBox="0 0 379 513" width="379px" zoomAndPan="magnify"><defs/><g><text fill="#000000" font-family="sans-serif" font-size="14" font-weight="bold" lengthAdjust="spacing" textLength="351" x="10" y="30.1074">System Sequence Diagram (SSD) - Alternative One</text><rect fill="#FFFFFF" height="251.3281" style="stroke:#181818;stroke-width:1.0;" width="10" x="48.75" y="151.8633"/><rect fill="#FFFFFF" height="31.291" style="stroke:#181818;stroke-width:1.0;" width="10" x="329.75" y="175.1543"/><rect fill="#FFFFFF" height="31.291" style="stroke:#181818;stroke-width:1.0;" width="10" x="329.75" y="237.7363"/><rect fill="#FFFFFF" height="31.291" style="stroke:#181818;stroke-width:1.0;" width="10" x="329.75" y="300.3184"/><rect fill="#FFFFFF" height="31.291" style="stroke:#181818;stroke-width:1.0;" width="10" x="329.75" y="362.9004"/><line style="stroke:#181818;stroke-width:0.5;stroke-dasharray:5.0,5.0;" x1="53.25" x2="53.25" y1="141.8633" y2="412.1914"/><line style="stroke:#181818;stroke-width:0.5;stroke-dasharray:5.0,5.0;" x1="334.75" x2="334.75" y1="141.8633" y2="412.1914"/><text fill="#000000" font-family="sans-serif" font-size="14" lengthAdjust="spacing" textLength="91" x="5.25" y="119.7285">Green Spaces</text><text fill="#000000" font-family="sans-serif" font-size="14" lengthAdjust="spacing" textLength="56" x="22.75" y="138.3496">Manager</text><ellipse cx="53.75" cy="53.1211" fill="#E3E3E3" rx="8" ry="8" style="stroke:#181818;stroke-width:0.5;"/><path d="M53.75,61.1211 L53.75,88.1211 M40.75,69.1211 L66.75,69.1211 M53.75,88.1211 L40.75,103.1211 M53.75,88.1211 L66.75,103.1211 " fill="none" style="stroke:#181818;stroke-width:0.5;"/><text fill="#000000" font-family="sans-serif" font-size="14" lengthAdjust="spacing" textLength="91" x="5.25" y="426.2988">Green Spaces</text><text fill="#000000" font-family="sans-serif" font-size="14" lengthAdjust="spacing" textLength="56" x="22.75" y="444.9199">Manager</text><ellipse cx="53.75" cy="456.9336" fill="#E3E3E3" rx="8" ry="8" style="stroke:#181818;stroke-width:0.5;"/><path d="M53.75,464.9336 L53.75,491.9336 M40.75,472.9336 L66.75,472.9336 M53.75,491.9336 L40.75,506.9336 M53.75,491.9336 L66.75,506.9336 " fill="none" style="stroke:#181818;stroke-width:0.5;"/><rect fill="#E3E3E3" height="32.6211" rx="2.5" ry="2.5" style="stroke:#181818;stroke-width:0.5;" width="64" x="302.75" y="108.2422"/><text fill="#000000" font-family="sans-serif" font-size="14" lengthAdjust="spacing" textLength="50" x="309.75" y="130.3496">:System</text><rect fill="#E3E3E3" height="32.6211" rx="2.5" ry="2.5" style="stroke:#181818;stroke-width:0.5;" width="64" x="302.75" y="411.1914"/><text fill="#000000" font-family="sans-serif" font-size="14" lengthAdjust="spacing" textLength="50" x="309.75" y="433.2988">:System</text><rect fill="#FFFFFF" height="251.3281" style="stroke:#181818;stroke-width:1.0;" width="10" x="48.75" y="151.8633"/><rect fill="#FFFFFF" height="31.291" style="stroke:#181818;stroke-width:1.0;" width="10" x="329.75" y="175.1543"/><rect fill="#FFFFFF" height="31.291" style="stroke:#181818;stroke-width:1.0;" width="10" x="329.75" y="237.7363"/><rect fill="#FFFFFF" height="31.291" style="stroke:#181818;stroke-width:1.0;" width="10" x="329.75" y="300.3184"/><rect fill="#FFFFFF" height="31.291" style="stroke:#181818;stroke-width:1.0;" width="10" x="329.75" y="362.9004"/><polygon fill="#181818" points="317.75,171.1543,327.75,175.1543,317.75,179.1543,321.75,175.1543" style="stroke:#181818;stroke-width:1.0;"/><line style="stroke:#181818;stroke-width:1.0;" x1="58.75" x2="323.75" y1="175.1543" y2="175.1543"/><text fill="#000000" font-family="sans-serif" font-size="13" font-weight="bold" lengthAdjust="spacing" textLength="7" x="65.75" y="169.8916">1</text><text fill="#000000" font-family="sans-serif" font-size="13" lengthAdjust="spacing" textLength="222" x="76.75" y="169.8916">asks to add a new entry to the agenda</text><polygon fill="#181818" points="69.75,202.4453,59.75,206.4453,69.75,210.4453,65.75,206.4453" style="stroke:#181818;stroke-width:1.0;"/><line style="stroke:#181818;stroke-width:1.0;stroke-dasharray:2.0,2.0;" x1="63.75" x2="333.75" y1="206.4453" y2="206.4453"/><text fill="#000000" font-family="sans-serif" font-size="13" font-weight="bold" lengthAdjust="spacing" textLength="7" x="75.75" y="201.1826">2</text><text fill="#000000" font-family="sans-serif" font-size="13" lengthAdjust="spacing" textLength="227" x="86.75" y="201.1826">shows to-do list and asks to select one</text><polygon fill="#181818" points="317.75,233.7363,327.75,237.7363,317.75,241.7363,321.75,237.7363" style="stroke:#181818;stroke-width:1.0;"/><line style="stroke:#181818;stroke-width:1.0;" x1="58.75" x2="323.75" y1="237.7363" y2="237.7363"/><text fill="#000000" font-family="sans-serif" font-size="13" font-weight="bold" lengthAdjust="spacing" textLength="7" x="65.75" y="232.4736">3</text><text fill="#000000" font-family="sans-serif" font-size="13" lengthAdjust="spacing" textLength="82" x="76.75" y="232.4736">selects a task</text><polygon fill="#181818" points="69.75,265.0273,59.75,269.0273,69.75,273.0273,65.75,269.0273" style="stroke:#181818;stroke-width:1.0;"/><line style="stroke:#181818;stroke-width:1.0;stroke-dasharray:2.0,2.0;" x1="63.75" x2="333.75" y1="269.0273" y2="269.0273"/><text fill="#000000" font-family="sans-serif" font-size="13" font-weight="bold" lengthAdjust="spacing" textLength="7" x="75.75" y="263.7646">4</text><text fill="#000000" font-family="sans-serif" font-size="13" lengthAdjust="spacing" textLength="189" x="86.75" y="263.7646">requests data (i.e. Starting Date)</text><polygon fill="#181818" points="317.75,296.3184,327.75,300.3184,317.75,304.3184,321.75,300.3184" style="stroke:#181818;stroke-width:1.0;"/><line style="stroke:#181818;stroke-width:1.0;" x1="58.75" x2="323.75" y1="300.3184" y2="300.3184"/><text fill="#000000" font-family="sans-serif" font-size="13" font-weight="bold" lengthAdjust="spacing" textLength="7" x="65.75" y="295.0557">5</text><text fill="#000000" font-family="sans-serif" font-size="13" lengthAdjust="spacing" textLength="122" x="76.75" y="295.0557">types requested data</text><polygon fill="#181818" points="69.75,327.6094,59.75,331.6094,69.75,335.6094,65.75,331.6094" style="stroke:#181818;stroke-width:1.0;"/><line style="stroke:#181818;stroke-width:1.0;stroke-dasharray:2.0,2.0;" x1="63.75" x2="333.75" y1="331.6094" y2="331.6094"/><text fill="#000000" font-family="sans-serif" font-size="13" font-weight="bold" lengthAdjust="spacing" textLength="7" x="75.75" y="326.3467">6</text><text fill="#000000" font-family="sans-serif" font-size="13" lengthAdjust="spacing" textLength="236" x="86.75" y="326.3467">shows all data and requests confirmation</text><polygon fill="#181818" points="317.75,358.9004,327.75,362.9004,317.75,366.9004,321.75,362.9004" style="stroke:#181818;stroke-width:1.0;"/><line style="stroke:#181818;stroke-width:1.0;" x1="58.75" x2="323.75" y1="362.9004" y2="362.9004"/><text fill="#000000" font-family="sans-serif" font-size="13" font-weight="bold" lengthAdjust="spacing" textLength="7" x="65.75" y="357.6377">7</text><text fill="#000000" font-family="sans-serif" font-size="13" lengthAdjust="spacing" textLength="78" x="76.75" y="357.6377">confirms data</text><polygon fill="#181818" points="69.75,390.1914,59.75,394.1914,69.75,398.1914,65.75,394.1914" style="stroke:#181818;stroke-width:1.0;"/><line style="stroke:#181818;stroke-width:1.0;stroke-dasharray:2.0,2.0;" x1="63.75" x2="333.75" y1="394.1914" y2="394.1914"/><text fill="#000000" font-family="sans-serif" font-size="13" font-weight="bold" lengthAdjust="spacing" textLength="7" x="75.75" y="388.9287">8</text><text fill="#000000" font-family="sans-serif" font-size="13" lengthAdjust="spacing" textLength="158" x="86.75" y="388.9287">displays operation success</text><!--SRC=[dP8nRiCm34LtduB8b0pk0J8KA10WKz31QnTMOXmXCkMAT0BVlfIT64NH3eacmU9_VAOavy0zPkoWIvpSAQUEGFD0bImdFRepjjJe60aoEKLkuyy2EQ5Fry0j734ALPK6jT9c5AKE6leQY1t1Bc1RojTDizj03MzHAJDgk12yiyLmqCH3zqdPzavJXjK-4p4qfa3omGTa4yahG85zSwYilGONUcI5rNRkDntEsuaIBgWqLLTWopPGlzxTjbPy5j04w3qWC5s1MFDOFkc9mDgnnocviEvmkAqRgpPieMzj7kbQeBLF48Ce8FkbaL2q4KAo7ovXJtzoVslEAJ55DT23FhdSW5ZQeoAimmkzGADbTdPbEqDi7b7HiIUvCybFqAS6X37EHcKyYwDBV0ovisUH-16jMqwUyV51-eYZGEefJvr11cTFJlun-0O0]--></g></svg>