<?xml version="1.0" encoding="us-ascii" standalone="no"?><svg xmlns="http://www.w3.org/2000/svg" xmlns:xlink="http://www.w3.org/1999/xlink" contentStyleType="text/css" height="513px" preserveAspectRatio="none" style="width:515px;height:513px;background:#FFFFFF;" version="1.1" viewBox="0 0 515 513" width="515px" zoomAndPan="magnify"><defs/><g><text fill="#000000" font-family="sans-serif" font-size="14" font-weight="bold" lengthAdjust="spacing" textLength="351" x="81.25" y="30.1074">System Sequence Diagram (SSD) - Alternative One</text><rect fill="#FFFFFF" height="251.3281" style="stroke:#181818;stroke-width:1.0;" width="10" x="48.5" y="151.8633"/><rect fill="#FFFFFF" height="31.291" style="stroke:#181818;stroke-width:1.0;" width="10" x="472.5" y="175.1543"/><rect fill="#FFFFFF" height="31.291" style="stroke:#181818;stroke-width:1.0;" width="10" x="472.5" y="237.7363"/><rect fill="#FFFFFF" height="31.291" style="stroke:#181818;stroke-width:1.0;" width="10" x="472.5" y="300.3184"/><rect fill="#FFFFFF" height="31.291" style="stroke:#181818;stroke-width:1.0;" width="10" x="472.5" y="362.9004"/><line style="stroke:#181818;stroke-width:0.5;stroke-dasharray:5.0,5.0;" x1="53" x2="53" y1="141.8633" y2="412.1914"/><line style="stroke:#181818;stroke-width:0.5;stroke-dasharray:5.0,5.0;" x1="477.5" x2="477.5" y1="141.8633" y2="412.1914"/><text fill="#000000" font-family="sans-serif" font-size="14" lengthAdjust="spacing" textLength="91" x="5" y="119.7285">Green Spaces</text><text fill="#000000" font-family="sans-serif" font-size="14" lengthAdjust="spacing" textLength="56" x="22.5" y="138.3496">Manager</text><ellipse cx="53.5" cy="53.1211" fill="#E3E3E3" rx="8" ry="8" style="stroke:#181818;stroke-width:0.5;"/><path d="M53.5,61.1211 L53.5,88.1211 M40.5,69.1211 L66.5,69.1211 M53.5,88.1211 L40.5,103.1211 M53.5,88.1211 L66.5,103.1211 " fill="none" style="stroke:#181818;stroke-width:0.5;"/><text fill="#000000" font-family="sans-serif" font-size="14" lengthAdjust="spacing" textLength="91" x="5" y="426.2988">Green Spaces</text><text fill="#000000" font-family="sans-serif" font-size="14" lengthAdjust="spacing" textLength="56" x="22.5" y="444.9199">Manager</text><ellipse cx="53.5" cy="456.9336" fill="#E3E3E3" rx="8" ry="8" style="stroke:#181818;stroke-width:0.5;"/><path d="M53.5,464.9336 L53.5,491.9336 M40.5,472.9336 L66.5,472.9336 M53.5,491.9336 L40.5,506.9336 M53.5,491.9336 L66.5,506.9336 " fill="none" style="stroke:#181818;stroke-width:0.5;"/><rect fill="#E3E3E3" height="32.6211" rx="2.5" ry="2.5" style="stroke:#181818;stroke-width:0.5;" width="64" x="445.5" y="108.2422"/><text fill="#000000" font-family="sans-serif" font-size="14" lengthAdjust="spacing" textLength="50" x="452.5" y="130.3496">:System</text><rect fill="#E3E3E3" height="32.6211" rx="2.5" ry="2.5" style="stroke:#181818;stroke-width:0.5;" width="64" x="445.5" y="411.1914"/><text fill="#000000" font-family="sans-serif" font-size="14" lengthAdjust="spacing" textLength="50" x="452.5" y="433.2988">:System</text><rect fill="#FFFFFF" height="251.3281" style="stroke:#181818;stroke-width:1.0;" width="10" x="48.5" y="151.8633"/><rect fill="#FFFFFF" height="31.291" style="stroke:#181818;stroke-width:1.0;" width="10" x="472.5" y="175.1543"/><rect fill="#FFFFFF" height="31.291" style="stroke:#181818;stroke-width:1.0;" width="10" x="472.5" y="237.7363"/><rect fill="#FFFFFF" height="31.291" style="stroke:#181818;stroke-width:1.0;" width="10" x="472.5" y="300.3184"/><rect fill="#FFFFFF" height="31.291" style="stroke:#181818;stroke-width:1.0;" width="10" x="472.5" y="362.9004"/><polygon fill="#181818" points="460.5,171.1543,470.5,175.1543,460.5,179.1543,464.5,175.1543" style="stroke:#181818;stroke-width:1.0;"/><line style="stroke:#181818;stroke-width:1.0;" x1="58.5" x2="466.5" y1="175.1543" y2="175.1543"/><text fill="#000000" font-family="sans-serif" font-size="13" font-weight="bold" lengthAdjust="spacing" textLength="7" x="65.5" y="169.8916">1</text><text fill="#000000" font-family="sans-serif" font-size="13" lengthAdjust="spacing" textLength="356" x="76.5" y="169.8916">asks to assign one or more vehicles to an entry in the agenda</text><polygon fill="#181818" points="69.5,202.4453,59.5,206.4453,69.5,210.4453,65.5,206.4453" style="stroke:#181818;stroke-width:1.0;"/><line style="stroke:#181818;stroke-width:1.0;stroke-dasharray:2.0,2.0;" x1="63.5" x2="476.5" y1="206.4453" y2="206.4453"/><text fill="#000000" font-family="sans-serif" font-size="13" font-weight="bold" lengthAdjust="spacing" textLength="7" x="75.5" y="201.1826">2</text><text fill="#000000" font-family="sans-serif" font-size="13" lengthAdjust="spacing" textLength="245" x="86.5" y="201.1826">shows agenda and asks to select an entry</text><polygon fill="#181818" points="460.5,233.7363,470.5,237.7363,460.5,241.7363,464.5,237.7363" style="stroke:#181818;stroke-width:1.0;"/><line style="stroke:#181818;stroke-width:1.0;" x1="58.5" x2="466.5" y1="237.7363" y2="237.7363"/><text fill="#000000" font-family="sans-serif" font-size="13" font-weight="bold" lengthAdjust="spacing" textLength="7" x="65.5" y="232.4736">3</text><text fill="#000000" font-family="sans-serif" font-size="13" lengthAdjust="spacing" textLength="175" x="76.5" y="232.4736">selects an entry in the agenda</text><polygon fill="#181818" points="69.5,265.0273,59.5,269.0273,69.5,273.0273,65.5,269.0273" style="stroke:#181818;stroke-width:1.0;"/><line style="stroke:#181818;stroke-width:1.0;stroke-dasharray:2.0,2.0;" x1="63.5" x2="476.5" y1="269.0273" y2="269.0273"/><text fill="#000000" font-family="sans-serif" font-size="13" font-weight="bold" lengthAdjust="spacing" textLength="7" x="75.5" y="263.7646">4</text><text fill="#000000" font-family="sans-serif" font-size="13" lengthAdjust="spacing" textLength="292" x="86.5" y="263.7646">shows vehicles list and asks to select one or more</text><polygon fill="#181818" points="460.5,296.3184,470.5,300.3184,460.5,304.3184,464.5,300.3184" style="stroke:#181818;stroke-width:1.0;"/><line style="stroke:#181818;stroke-width:1.0;" x1="58.5" x2="466.5" y1="300.3184" y2="300.3184"/><text fill="#000000" font-family="sans-serif" font-size="13" font-weight="bold" lengthAdjust="spacing" textLength="7" x="65.5" y="295.0557">5</text><text fill="#000000" font-family="sans-serif" font-size="13" lengthAdjust="spacing" textLength="384" x="76.5" y="295.0557">selects one or more vehicles and assign to the entry in the agenda</text><polygon fill="#181818" points="69.5,327.6094,59.5,331.6094,69.5,335.6094,65.5,331.6094" style="stroke:#181818;stroke-width:1.0;"/><line style="stroke:#181818;stroke-width:1.0;stroke-dasharray:2.0,2.0;" x1="63.5" x2="476.5" y1="331.6094" y2="331.6094"/><text fill="#000000" font-family="sans-serif" font-size="13" font-weight="bold" lengthAdjust="spacing" textLength="7" x="75.5" y="326.3467">6</text><text fill="#000000" font-family="sans-serif" font-size="13" lengthAdjust="spacing" textLength="236" x="86.5" y="326.3467">shows all data and requests confirmation</text><polygon fill="#181818" points="460.5,358.9004,470.5,362.9004,460.5,366.9004,464.5,362.9004" style="stroke:#181818;stroke-width:1.0;"/><line style="stroke:#181818;stroke-width:1.0;" x1="58.5" x2="466.5" y1="362.9004" y2="362.9004"/><text fill="#000000" font-family="sans-serif" font-size="13" font-weight="bold" lengthAdjust="spacing" textLength="7" x="65.5" y="357.6377">7</text><text fill="#000000" font-family="sans-serif" font-size="13" lengthAdjust="spacing" textLength="78" x="76.5" y="357.6377">confirms data</text><polygon fill="#181818" points="69.5,390.1914,59.5,394.1914,69.5,398.1914,65.5,394.1914" style="stroke:#181818;stroke-width:1.0;"/><line style="stroke:#181818;stroke-width:1.0;stroke-dasharray:2.0,2.0;" x1="63.5" x2="476.5" y1="394.1914" y2="394.1914"/><text fill="#000000" font-family="sans-serif" font-size="13" font-weight="bold" lengthAdjust="spacing" textLength="7" x="75.5" y="388.9287">8</text><text fill="#000000" font-family="sans-serif" font-size="13" lengthAdjust="spacing" textLength="158" x="86.5" y="388.9287">displays operation success</text><!--SRC=[hPA_QiD03CPtFuN8r0vvWGo5GY1JwE2rYtfMx2DddNkI4_psbS-E2SKTKdAB1Vhp-_HPSlRSOS8MsiZHDIcs19fwAcJ9TEZEM5EfGo18v1Iv3lS5qc0LhvvhE64GAWhrQgNb84ejbFJT4pk2lSTwB7yfo_qhRE4zA2L6zHU23xOsx3LottvHijXfJB0v92A6qYIGVF8HsOIa3Q30eJmMXbVlV8UiiDbDl9oSmZp5Nr0fLnTWpmBOljsqxQpuBA3Hlk9hXiW4ncrZ8hXGursWASr0h6a0pw0DWSdW2lF4XN63mlncnjPm8tLdFiMhpAqsiLhWGi5iNI1vGaMhWt_hdrhbcGANlOCNNTDvPz9_fAvwF67oFp3GkC7J_0u1AjJ9yJGUevW85_daKslN5_cH9UO-oICVr5DvwG8Eva17APD1UcUNBNye-040]--></g></svg>