<?xml version="1.0" encoding="us-ascii" standalone="no"?><svg xmlns="http://www.w3.org/2000/svg" xmlns:xlink="http://www.w3.org/1999/xlink" contentStyleType="text/css" height="623px" preserveAspectRatio="none" style="width:422px;height:623px;background:#FFFFFF;" version="1.1" viewBox="0 0 422 623" width="422px" zoomAndPan="magnify"><defs/><g><text fill="#000000" font-family="sans-serif" font-size="14" font-weight="bold" lengthAdjust="spacing" textLength="156" x="126" y="25.1074">Domain Model - US003</text><!--class Organization--><g id="elem_Organization"><rect codeLine="12" fill="#F1F1F1" height="36.6211" id="Organization" rx="2.5" ry="2.5" style="stroke:#181818;stroke-width:0.5;" width="86" x="231" y="46.6211"/><text fill="#000000" font-family="sans-serif" font-size="14" lengthAdjust="spacing" textLength="80" x="234" y="66.7285">Organization</text><line style="stroke:#181818;stroke-width:0.5;" x1="232" x2="316" y1="75.2422" y2="75.2422"/></g><!--class Collaborator--><g id="elem_Collaborator"><rect codeLine="15" fill="#F1F1F1" height="185.5898" id="Collaborator" rx="2.5" ry="2.5" style="stroke:#181818;stroke-width:0.5;" width="105" x="67.5" y="296.6211"/><text fill="#000000" font-family="sans-serif" font-size="14" lengthAdjust="spacing" textLength="78" x="81" y="316.7285">Collaborator</text><line style="stroke:#181818;stroke-width:0.5;" x1="68.5" x2="171.5" y1="325.2422" y2="325.2422"/><text fill="#000000" font-family="sans-serif" font-size="14" lengthAdjust="spacing" textLength="35" x="73.5" y="344.3496">name</text><text fill="#000000" font-family="sans-serif" font-size="14" lengthAdjust="spacing" textLength="51" x="73.5" y="362.9707">birthday</text><text fill="#000000" font-family="sans-serif" font-size="14" lengthAdjust="spacing" textLength="93" x="73.5" y="381.5918">admissionDate</text><text fill="#000000" font-family="sans-serif" font-size="14" lengthAdjust="spacing" textLength="51" x="73.5" y="400.2129">address</text><text fill="#000000" font-family="sans-serif" font-size="14" lengthAdjust="spacing" textLength="89" x="73.5" y="418.834">phoneNumber</text><text fill="#000000" font-family="sans-serif" font-size="14" lengthAdjust="spacing" textLength="33" x="73.5" y="437.4551">email</text><text fill="#000000" font-family="sans-serif" font-size="14" lengthAdjust="spacing" textLength="70" x="73.5" y="456.0762">IDDocType</text><text fill="#000000" font-family="sans-serif" font-size="14" lengthAdjust="spacing" textLength="62" x="73.5" y="474.6973">IDNumber</text></g><!--class HumanResourcesManager--><g id="elem_HumanResourcesManager"><rect codeLine="26" fill="#F1F1F1" height="55.2422" id="HumanResourcesManager" rx="2.5" ry="2.5" style="stroke:#181818;stroke-width:0.5;" width="174" x="187" y="162.6211"/><text fill="#000000" font-family="sans-serif" font-size="14" lengthAdjust="spacing" textLength="168" x="190" y="182.7285">HumanResourcesManager</text><line style="stroke:#181818;stroke-width:0.5;" x1="188" x2="360" y1="191.2422" y2="191.2422"/><text fill="#000000" font-family="sans-serif" font-size="14" lengthAdjust="spacing" textLength="35" x="193" y="210.3496">name</text></g><!--class Job--><g id="elem_Job"><rect codeLine="30" fill="#F1F1F1" height="55.2422" id="Job" rx="2.5" ry="2.5" style="stroke:#181818;stroke-width:0.5;" width="47" x="224.5" y="561.6211"/><text fill="#000000" font-family="sans-serif" font-size="14" lengthAdjust="spacing" textLength="22" x="237" y="581.7285">Job</text><line style="stroke:#181818;stroke-width:0.5;" x1="225.5" x2="270.5" y1="590.2422" y2="590.2422"/><text fill="#000000" font-family="sans-serif" font-size="14" lengthAdjust="spacing" textLength="35" x="230.5" y="609.3496">name</text></g><!--class IdDocType--><g id="elem_IdDocType"><rect codeLine="34" fill="#F1F1F1" height="55.2422" id="IdDocType" rx="2.5" ry="2.5" style="stroke:#181818;stroke-width:0.5;" width="74" x="7" y="561.6211"/><text fill="#000000" font-family="sans-serif" font-size="14" lengthAdjust="spacing" textLength="68" x="10" y="581.7285">IdDocType</text><line style="stroke:#181818;stroke-width:0.5;" x1="8" x2="80" y1="590.2422" y2="590.2422"/><text fill="#000000" font-family="sans-serif" font-size="14" lengthAdjust="spacing" textLength="27" x="13" y="609.3496">type</text></g><!--link Organization to HumanResourcesManager--><g id="link_Organization_HumanResourcesManager"><path codeLine="38" d="M274,83.7411 C274,104.3411 274,138.6211 274,162.4711 " fill="none" id="Organization-HumanResourcesManager" style="stroke:#181818;stroke-width:1.0;"/><polygon fill="#000000" points="279,128.2666,281.9389,119.2215,276.0611,119.2215,279,128.2666" style="stroke:#000000;stroke-width:1.0;"/><text fill="#000000" font-family="sans-serif" font-size="13" lengthAdjust="spacing" textLength="21" x="288" y="128.6494">has</text><text fill="#000000" font-family="sans-serif" font-size="13" lengthAdjust="spacing" textLength="7" x="266.0594" y="105.1479">1</text><text fill="#000000" font-family="sans-serif" font-size="13" lengthAdjust="spacing" textLength="20" x="251.6875" y="151.1454">1..*</text></g><!--link Organization to Collaborator--><g id="link_Organization_Collaborator"><path codeLine="39" d="M230.75,83.3211 C198.06,98.8111 155.28,124.9711 134,162.6211 C111.36,202.6611 106.49,253.3011 107.88,296.5011 " fill="none" id="Organization-Collaborator" style="stroke:#181818;stroke-width:1.0;"/><polygon fill="#000000" points="136.5032,194.5986,143.5662,188.2296,138.4737,185.2944,136.5032,194.5986" style="stroke:#000000;stroke-width:1.0;"/><text fill="#000000" font-family="sans-serif" font-size="13" lengthAdjust="spacing" textLength="21" x="148" y="195.6494">has</text><text fill="#000000" font-family="sans-serif" font-size="13" lengthAdjust="spacing" textLength="7" x="216.007" y="82.0115">1</text><text fill="#000000" font-family="sans-serif" font-size="13" lengthAdjust="spacing" textLength="20" x="86.1173" y="285.4595">1..*</text></g><!--link Organization to Job--><g id="link_Organization_Job"><path codeLine="40" d="M304.42,83.9011 C329.69,100.6011 363.87,128.1611 379,162.6211 C388.83,185.0011 379.92,193.1911 379,217.6211 C374.55,335.6511 409.64,375.9111 359,482.6211 C339.85,522.9711 298.03,555.8011 271.54,573.6011 " fill="none" id="Organization-Job" style="stroke:#181818;stroke-width:1.0;"/><polygon fill="#000000" points="383.665,262.2554,387.2033,253.4275,381.3387,253.0337,383.665,262.2554" style="stroke:#000000;stroke-width:1.0;"/><text fill="#000000" font-family="sans-serif" font-size="13" lengthAdjust="spacing" textLength="21" x="393" y="262.6494">has</text><text fill="#000000" font-family="sans-serif" font-size="13" lengthAdjust="spacing" textLength="7" x="304.6548" y="105.3509">1</text><text fill="#000000" font-family="sans-serif" font-size="13" lengthAdjust="spacing" textLength="20" x="279.2961" y="565.0804">1..*</text></g><!--link HumanResourcesManager to Job--><g id="link_HumanResourcesManager_Job"><path codeLine="41" d="M279.05,217.7311 C289.08,275.8311 308.14,417.9411 279,531.6211 C276.36,541.9211 271.41,552.3511 266.23,561.4011 " fill="none" id="HumanResourcesManager-Job" style="stroke:#181818;stroke-width:1.0;"/><polygon fill="#000000" points="298.8136,394.7631,302.0877,385.8339,296.2139,385.6148,298.8136,394.7631" style="stroke:#000000;stroke-width:1.0;"/><text fill="#000000" font-family="sans-serif" font-size="13" lengthAdjust="spacing" textLength="42" x="308" y="395.1494">selects</text><text fill="#000000" font-family="sans-serif" font-size="13" lengthAdjust="spacing" textLength="7" x="272.4084" y="240.1155">1</text><text fill="#000000" font-family="sans-serif" font-size="13" lengthAdjust="spacing" textLength="7" x="262.4522" y="550.5116">1</text></g><!--link Job to Collaborator--><g id="link_Job_Collaborator"><path codeLine="42" d="M224.43,566.9411 C214.03,556.8711 202.13,544.2811 193,531.6211 C182.12,516.5311 171.9,499.5911 162.75,482.8411 " fill="none" id="Job-Collaborator" style="stroke:#181818;stroke-width:1.0;"/><polygon fill="#000000" points="195.043,518.2347,198.0224,527.2666,202.7622,523.7904,195.043,518.2347" style="stroke:#000000;stroke-width:1.0;"/><text fill="#000000" font-family="sans-serif" font-size="13" lengthAdjust="spacing" textLength="67" x="207" y="527.6494">assigned to</text><text fill="#000000" font-family="sans-serif" font-size="13" lengthAdjust="spacing" textLength="7" x="209.4782" y="554.9643">1</text><text fill="#000000" font-family="sans-serif" font-size="13" lengthAdjust="spacing" textLength="20" x="145.1551" y="504.3652">0..*</text></g><!--link Collaborator to Job--><g id="link_Collaborator_Job"><path codeLine="44" d="M117.39,482.9811 C120.4,500.2711 126.07,517.3711 136,531.6211 C156.78,561.4711 198.11,576.4211 224.34,583.2011 " fill="none" id="Collaborator-Job" style="stroke:#181818;stroke-width:1.0;"/><polygon fill="#000000" points="144.6485,525.6855,140.0579,517.3562,136.0388,521.6452,144.6485,525.6855" style="stroke:#000000;stroke-width:1.0;"/><text fill="#000000" font-family="sans-serif" font-size="13" lengthAdjust="spacing" textLength="21" x="150" y="527.6494">has</text><text fill="#000000" font-family="sans-serif" font-size="13" lengthAdjust="spacing" textLength="20" x="96.5034" y="504.1961">0..*</text><text fill="#000000" font-family="sans-serif" font-size="13" lengthAdjust="spacing" textLength="7" x="209.3618" y="576.0007">1</text></g><!--link HumanResourcesManager to Collaborator--><g id="link_HumanResourcesManager_Collaborator"><path codeLine="43" d="M245.09,217.7211 C235.74,226.8511 225.58,237.3611 217,247.6211 C201.66,265.9711 186.38,286.7211 172.63,306.5511 " fill="none" id="HumanResourcesManager-Collaborator" style="stroke:#181818;stroke-width:1.0;"/><polygon fill="#000000" points="218.8395,261.1411,226.8342,255.9898,222.2795,252.2744,218.8395,261.1411" style="stroke:#000000;stroke-width:1.0;"/><text fill="#000000" font-family="sans-serif" font-size="13" lengthAdjust="spacing" textLength="43" x="231" y="262.6494">register</text><text fill="#000000" font-family="sans-serif" font-size="13" lengthAdjust="spacing" textLength="7" x="230.5952" y="240.1032">1</text><text fill="#000000" font-family="sans-serif" font-size="13" lengthAdjust="spacing" textLength="20" x="180.6545" y="291.8919">1..*</text></g><!--link Collaborator to IdDocType--><g id="link_Collaborator_IdDocType"><path codeLine="45" d="M67.43,456.8711 C56.58,474.0911 46.72,493.2611 41,512.6211 C36.35,528.3511 36.96,546.7111 38.8,561.4011 " fill="none" id="Collaborator-IdDocType" style="stroke:#181818;stroke-width:1.0;"/><polygon fill="#000000" points="44.6792,527.089,49.9031,519.1416,44.234,517.5888,44.6792,527.089" style="stroke:#000000;stroke-width:1.0;"/><text fill="#000000" font-family="sans-serif" font-size="13" lengthAdjust="spacing" textLength="21" x="55" y="527.6494">has</text><text fill="#000000" font-family="sans-serif" font-size="13" lengthAdjust="spacing" textLength="20" x="39.4132" y="461.4717">0..*</text><text fill="#000000" font-family="sans-serif" font-size="13" lengthAdjust="spacing" textLength="7" x="29.8969" y="550.5116">1</text></g><!--SRC=[ZLB1JiCm3BtdAwmTaJOLSUCm2T43Gnf833x0JKmRBOcdE1NQ4FzELjgneZ78fRRViz-B6rdRiC687Zm7raraJv1YIqeEo0Rr6cjQfQqZYAGJXjeT4wH1msysrF2AJaWTGTgXo4rAqLPjeeNciB8xWaAfnXe2RQFEexhOKshOY5B9fYnKiaSROCc674pXPLKKLqfry-0nrXZi3fFb0E_gOwZVidDOSSJ4CTSXdu2Ukg2oCJK6jrs2nbkHt5rYehvY8ebqyQRXG0-jhoXsEMKdheiMPSdwURkXFkj91mDthSVmHC9jr2HB37bl8oS7vZrNF-eKMWyBqmlqODfhPN1quydb1ARJ_9dDBYQ_Q5v3WmBpSusZRVs3lxSyq4wB7lW3MSZbzoAGE_Q50IzEwUUjs3gGWSH_2vmQ4AcsaZ9hhaP8BpSozdMBCxJl7p6GFm40]--></g></svg>