<?xml version="1.0" encoding="us-ascii" standalone="no"?><svg xmlns="http://www.w3.org/2000/svg" xmlns:xlink="http://www.w3.org/1999/xlink" contentStyleType="text/css" height="569px" preserveAspectRatio="none" style="width:488px;height:569px;background:#FFFFFF;" version="1.1" viewBox="0 0 488 569" width="488.5px" zoomAndPan="magnify"><defs/><g><rect fill="#FFFFFF" height="453.2246" style="stroke:#181818;stroke-width:0.5;" width="5" x="24.25" y="56.1211"/><rect fill="#FFFFFF" height="92.873" style="stroke:#181818;stroke-width:0.5;" width="5" x="164.75" y="67.7666"/><rect fill="#FFFFFF" height="15.6455" style="stroke:#181818;stroke-width:0.5;" width="5" x="164.75" y="176.2852"/><rect fill="#FFFFFF" height="301.7695" style="stroke:#181818;stroke-width:0.5;" width="5" x="164.75" y="207.5762"/><rect fill="#FFFFFF" height="39.7715" style="stroke:#181818;stroke-width:0.5;" width="5" x="260.25" y="105.2227"/><rect fill="#FFFFFF" height="270.4785" style="stroke:#181818;stroke-width:0.5;" width="5" x="260.25" y="223.2217"/><rect fill="#FFFFFF" height="45.2715" style="stroke:#181818;stroke-width:0.5;" width="5" x="262.75" y="242.8672"/><rect fill="#FFFFFF" height="45.2715" style="stroke:#181818;stroke-width:0.5;" width="5" x="262.75" y="311.2842"/><rect fill="#FFFFFF" height="15.6455" style="stroke:#181818;stroke-width:0.5;" width="5" x="363.25" y="375.7012"/><rect fill="#FFFFFF" height="15.6455" style="stroke:#181818;stroke-width:0.5;" width="5" x="416.75" y="406.9922"/><rect fill="#FFFFFF" height="39.7715" style="stroke:#181818;stroke-width:0.5;" width="5" x="462.5" y="438.2832"/><line style="stroke:#181818;stroke-width:0.25;stroke-dasharray:5.0,5.0;" x1="26.5" x2="26.5" y1="51.1211" y2="518.3457"/><line style="stroke:#181818;stroke-width:0.25;stroke-dasharray:5.0,5.0;" x1="167.25" x2="167.25" y1="51.1211" y2="518.3457"/><line style="stroke:#181818;stroke-width:0.25;stroke-dasharray:5.0,5.0;" x1="262.75" x2="262.75" y1="87.6719" y2="518.3457"/><line style="stroke:#181818;stroke-width:0.25;stroke-dasharray:5.0,5.0;" x1="365.5" x2="365.5" y1="51.1211" y2="518.3457"/><line style="stroke:#181818;stroke-width:0.25;stroke-dasharray:5.0,5.0;" x1="419" x2="419" y1="51.1211" y2="518.3457"/><line style="stroke:#181818;stroke-width:0.25;stroke-dasharray:5.0,5.0;" x1="465" x2="465" y1="51.1211" y2="518.3457"/><text fill="#000000" font-family="sans-serif" font-size="7" lengthAdjust="spacing" textLength="45.5" x="2.5" y="40.0537">Green Spaces</text><text fill="#000000" font-family="sans-serif" font-size="7" lengthAdjust="spacing" textLength="28" x="11.25" y="49.3643">Manager</text><ellipse cx="26.75" cy="6.75" fill="#E3E3E3" rx="4" ry="4" style="stroke:#181818;stroke-width:0.25;"/><path d="M26.75,10.75 L26.75,24.25 M20.25,14.75 L33.25,14.75 M26.75,24.25 L20.25,31.75 M26.75,24.25 L33.25,31.75 " fill="none" style="stroke:#181818;stroke-width:0.25;"/><text fill="#000000" font-family="sans-serif" font-size="7" lengthAdjust="spacing" textLength="45.5" x="2.5" y="525.3994">Green Spaces</text><text fill="#000000" font-family="sans-serif" font-size="7" lengthAdjust="spacing" textLength="28" x="11.25" y="534.71">Manager</text><ellipse cx="26.75" cy="540.7168" fill="#E3E3E3" rx="4" ry="4" style="stroke:#181818;stroke-width:0.25;"/><path d="M26.75,544.7168 L26.75,558.2168 M20.25,548.7168 L33.25,548.7168 M26.75,558.2168 L20.25,565.7168 M26.75,558.2168 L33.25,565.7168 " fill="none" style="stroke:#181818;stroke-width:0.25;"/><rect fill="#E3E3E3" height="16.3105" rx="1.25" ry="1.25" style="stroke:#181818;stroke-width:0.25;" width="78" x="128.25" y="34.3105"/><text fill="#000000" font-family="sans-serif" font-size="7" lengthAdjust="spacing" textLength="71" x="131.75" y="45.3643">:CancelEntryAgendaUI</text><rect fill="#E3E3E3" height="16.3105" rx="1.25" ry="1.25" style="stroke:#181818;stroke-width:0.25;" width="78" x="128.25" y="517.8457"/><text fill="#000000" font-family="sans-serif" font-size="7" lengthAdjust="spacing" textLength="71" x="131.75" y="528.8994">:CancelEntryAgendaUI</text><rect fill="#E3E3E3" height="16.3105" rx="1.25" ry="1.25" style="stroke:#181818;stroke-width:0.25;" width="103" x="211.25" y="517.8457"/><text fill="#000000" font-family="sans-serif" font-size="7" lengthAdjust="spacing" textLength="96" x="214.75" y="528.8994">:CancelEntryAgendaController</text><rect fill="#E3E3E3" height="16.3105" rx="1.25" ry="1.25" style="stroke:#181818;stroke-width:0.25;" width="48.5" x="341.5" y="34.3105"/><text fill="#000000" font-family="sans-serif" font-size="7" lengthAdjust="spacing" textLength="41.5" x="345" y="45.3643">:Repositories</text><rect fill="#E3E3E3" height="16.3105" rx="1.25" ry="1.25" style="stroke:#181818;stroke-width:0.25;" width="48.5" x="341.5" y="517.8457"/><text fill="#000000" font-family="sans-serif" font-size="7" lengthAdjust="spacing" textLength="41.5" x="345" y="528.8994">:Repositories</text><rect fill="#E3E3E3" height="25.6211" rx="1.25" ry="1.25" style="stroke:#181818;stroke-width:0.25;" width="48.5" x="395" y="25"/><text fill="#000000" font-family="sans-serif" font-size="7" lengthAdjust="spacing" textLength="37" x="400.75" y="36.0537">repositories</text><text fill="#000000" font-family="sans-serif" font-size="7" lengthAdjust="spacing" textLength="41.5" x="398.5" y="45.3643">:Repositories</text><rect fill="#E3E3E3" height="25.6211" rx="1.25" ry="1.25" style="stroke:#181818;stroke-width:0.25;" width="48.5" x="395" y="517.8457"/><text fill="#000000" font-family="sans-serif" font-size="7" lengthAdjust="spacing" textLength="37" x="400.75" y="528.8994">repositories</text><text fill="#000000" font-family="sans-serif" font-size="7" lengthAdjust="spacing" textLength="41.5" x="398.5" y="538.21">:Repositories</text><rect fill="#E3E3E3" height="25.6211" rx="1.25" ry="1.25" style="stroke:#181818;stroke-width:0.25;" width="33" x="448.5" y="25"/><text fill="#000000" font-family="sans-serif" font-size="7" lengthAdjust="spacing" textLength="26" x="452" y="36.0537">agenda:</text><text fill="#000000" font-family="sans-serif" font-size="7" lengthAdjust="spacing" textLength="24.5" x="452.75" y="45.3643">Agenda</text><rect fill="#E3E3E3" height="25.6211" rx="1.25" ry="1.25" style="stroke:#181818;stroke-width:0.25;" width="33" x="448.5" y="517.8457"/><text fill="#000000" font-family="sans-serif" font-size="7" lengthAdjust="spacing" textLength="26" x="452" y="528.8994">agenda:</text><text fill="#000000" font-family="sans-serif" font-size="7" lengthAdjust="spacing" textLength="24.5" x="452.75" y="538.21">Agenda</text><rect fill="#FFFFFF" height="453.2246" style="stroke:#181818;stroke-width:0.5;" width="5" x="24.25" y="56.1211"/><rect fill="#FFFFFF" height="92.873" style="stroke:#181818;stroke-width:0.5;" width="5" x="164.75" y="67.7666"/><rect fill="#FFFFFF" height="15.6455" style="stroke:#181818;stroke-width:0.5;" width="5" x="164.75" y="176.2852"/><rect fill="#FFFFFF" height="301.7695" style="stroke:#181818;stroke-width:0.5;" width="5" x="164.75" y="207.5762"/><rect fill="#FFFFFF" height="39.7715" style="stroke:#181818;stroke-width:0.5;" width="5" x="260.25" y="105.2227"/><rect fill="#FFFFFF" height="270.4785" style="stroke:#181818;stroke-width:0.5;" width="5" x="260.25" y="223.2217"/><rect fill="#FFFFFF" height="45.2715" style="stroke:#181818;stroke-width:0.5;" width="5" x="262.75" y="242.8672"/><rect fill="#FFFFFF" height="45.2715" style="stroke:#181818;stroke-width:0.5;" width="5" x="262.75" y="311.2842"/><rect fill="#FFFFFF" height="15.6455" style="stroke:#181818;stroke-width:0.5;" width="5" x="363.25" y="375.7012"/><rect fill="#FFFFFF" height="15.6455" style="stroke:#181818;stroke-width:0.5;" width="5" x="416.75" y="406.9922"/><rect fill="#FFFFFF" height="39.7715" style="stroke:#181818;stroke-width:0.5;" width="5" x="462.5" y="438.2832"/><polygon fill="#181818" points="158.75,65.7666,163.75,67.7666,158.75,69.7666,160.75,67.7666" style="stroke:#181818;stroke-width:0.5;"/><line style="stroke:#181818;stroke-width:0.5;" x1="29.25" x2="161.75" y1="67.7666" y2="67.7666"/><text fill="#000000" font-family="sans-serif" font-size="6.5" font-weight="bold" lengthAdjust="spacing" textLength="3.5" x="32.75" y="65.1353">1</text><text fill="#000000" font-family="sans-serif" font-size="6.5" lengthAdjust="spacing" textLength="107.5" x="38.25" y="65.1353">Asks to cancel a entry in the Agenda</text><polygon fill="#181818" points="205.25,81.4121,210.25,83.4121,205.25,85.4121,207.25,83.4121" style="stroke:#181818;stroke-width:0.5;"/><line style="stroke:#181818;stroke-width:0.5;" x1="169.75" x2="208.25" y1="83.4121" y2="83.4121"/><text fill="#000000" font-family="sans-serif" font-size="6.5" font-weight="bold" lengthAdjust="spacing" textLength="3.5" x="173.25" y="80.7808">2</text><text fill="#000000" font-family="sans-serif" font-size="6.5" lengthAdjust="spacing" textLength="18" x="178.75" y="80.7808">create</text><rect fill="#E3E3E3" height="16.3105" rx="1.25" ry="1.25" style="stroke:#181818;stroke-width:0.25;" width="103" x="211.25" y="71.7666"/><text fill="#000000" font-family="sans-serif" font-size="7" lengthAdjust="spacing" textLength="96" x="214.75" y="82.8203">:CancelEntryAgendaController</text><polygon fill="#181818" points="254.25,103.2227,259.25,105.2227,254.25,107.2227,256.25,105.2227" style="stroke:#181818;stroke-width:0.5;"/><line style="stroke:#181818;stroke-width:0.5;" x1="169.75" x2="257.25" y1="105.2227" y2="105.2227"/><text fill="#000000" font-family="sans-serif" font-size="6.5" font-weight="bold" lengthAdjust="spacing" textLength="3.5" x="173.25" y="102.5913">3</text><text fill="#000000" font-family="sans-serif" font-size="6.5" lengthAdjust="spacing" textLength="46.5" x="178.75" y="102.5913">getEntriesDTO()</text><rect fill="none" height="21.626" style="stroke:#000000;stroke-width:0.75;" width="106" x="209.75" y="109.2227"/><path d="M209.75,109.2227 L240.75,109.2227 L240.75,113.7227 L235.75,118.7227 L209.75,118.7227 L209.75,109.2227 " fill="#EEEEEE" style="stroke:#000000;stroke-width:1.0;"/><text fill="#000000" font-family="sans-serif" font-size="6.5" font-weight="bold" lengthAdjust="spacing" textLength="8.5" x="216.25" y="117.2368">ref</text><text fill="#000000" font-family="sans-serif" font-size="6" lengthAdjust="spacing" textLength="53" x="236.25" y="127.1973">Get Entries Dto List</text><polygon fill="#181818" points="175.25,142.9941,170.25,144.9941,175.25,146.9941,173.25,144.9941" style="stroke:#181818;stroke-width:0.5;"/><line style="stroke:#181818;stroke-width:0.5;stroke-dasharray:2.0,2.0;" x1="172.25" x2="262.25" y1="144.9941" y2="144.9941"/><text fill="#000000" font-family="sans-serif" font-size="6.5" font-weight="bold" lengthAdjust="spacing" textLength="3.5" x="178.25" y="142.3628">4</text><text fill="#000000" font-family="sans-serif" font-size="6.5" lengthAdjust="spacing" textLength="43.5" x="183.75" y="142.3628">entriesListoDto</text><polygon fill="#181818" points="34.75,158.6396,29.75,160.6396,34.75,162.6396,32.75,160.6396" style="stroke:#181818;stroke-width:0.5;"/><line style="stroke:#181818;stroke-width:0.5;stroke-dasharray:2.0,2.0;" x1="31.75" x2="166.75" y1="160.6396" y2="160.6396"/><text fill="#000000" font-family="sans-serif" font-size="6.5" font-weight="bold" lengthAdjust="spacing" textLength="3.5" x="37.75" y="158.0083">5</text><text fill="#000000" font-family="sans-serif" font-size="6.5" lengthAdjust="spacing" textLength="58.5" x="43.25" y="158.0083">Shows list of entries</text><polygon fill="#181818" points="158.75,174.2852,163.75,176.2852,158.75,178.2852,160.75,176.2852" style="stroke:#181818;stroke-width:0.5;"/><line style="stroke:#181818;stroke-width:0.5;" x1="29.25" x2="161.75" y1="176.2852" y2="176.2852"/><text fill="#000000" font-family="sans-serif" font-size="6.5" font-weight="bold" lengthAdjust="spacing" textLength="3.5" x="32.75" y="173.6538">6</text><text fill="#000000" font-family="sans-serif" font-size="6.5" lengthAdjust="spacing" textLength="43" x="38.25" y="173.6538">selects a entry</text><polygon fill="#181818" points="34.75,189.9307,29.75,191.9307,34.75,193.9307,32.75,191.9307" style="stroke:#181818;stroke-width:0.5;"/><line style="stroke:#181818;stroke-width:0.5;stroke-dasharray:2.0,2.0;" x1="31.75" x2="166.75" y1="191.9307" y2="191.9307"/><text fill="#000000" font-family="sans-serif" font-size="6.5" font-weight="bold" lengthAdjust="spacing" textLength="3.5" x="37.75" y="189.2993">7</text><text fill="#000000" font-family="sans-serif" font-size="6.5" lengthAdjust="spacing" textLength="118" x="43.25" y="189.2993">shows all data and requests confirmation</text><polygon fill="#181818" points="158.75,205.5762,163.75,207.5762,158.75,209.5762,160.75,207.5762" style="stroke:#181818;stroke-width:0.5;"/><line style="stroke:#181818;stroke-width:0.5;" x1="29.25" x2="161.75" y1="207.5762" y2="207.5762"/><text fill="#000000" font-family="sans-serif" font-size="6.5" font-weight="bold" lengthAdjust="spacing" textLength="3.5" x="32.75" y="204.9448">8</text><text fill="#000000" font-family="sans-serif" font-size="6.5" lengthAdjust="spacing" textLength="39" x="38.25" y="204.9448">confirms data</text><polygon fill="#181818" points="254.25,221.2217,259.25,223.2217,254.25,225.2217,256.25,223.2217" style="stroke:#181818;stroke-width:0.5;"/><line style="stroke:#181818;stroke-width:0.5;" x1="169.75" x2="257.25" y1="223.2217" y2="223.2217"/><text fill="#000000" font-family="sans-serif" font-size="6.5" font-weight="bold" lengthAdjust="spacing" textLength="3.5" x="173.25" y="220.5903">9</text><text fill="#000000" font-family="sans-serif" font-size="6.5" lengthAdjust="spacing" textLength="68.5" x="178.75" y="220.5903">cancelEntry(entryIndex)</text><line style="stroke:#181818;stroke-width:0.5;" x1="265.25" x2="288.75" y1="236.3672" y2="236.3672"/><line style="stroke:#181818;stroke-width:0.5;" x1="288.75" x2="288.75" y1="236.3672" y2="242.8672"/><line style="stroke:#181818;stroke-width:0.5;" x1="268.25" x2="288.75" y1="242.8672" y2="242.8672"/><polygon fill="#181818" points="273.25,240.8672,268.25,242.8672,273.25,244.8672,271.25,242.8672" style="stroke:#181818;stroke-width:0.5;"/><text fill="#000000" font-family="sans-serif" font-size="6.5" font-weight="bold" lengthAdjust="spacing" textLength="7" x="271.25" y="233.7358">10</text><text fill="#000000" font-family="sans-serif" font-size="6.5" lengthAdjust="spacing" textLength="82" x="280.25" y="233.7358">getEntryByIndex(entryIndex)</text><rect fill="none" height="21.626" style="stroke:#000000;stroke-width:0.75;" width="106" x="209.75" y="249.3672"/><path d="M209.75,249.3672 L240.75,249.3672 L240.75,253.8672 L235.75,258.8672 L209.75,258.8672 L209.75,249.3672 " fill="#EEEEEE" style="stroke:#000000;stroke-width:1.0;"/><text fill="#000000" font-family="sans-serif" font-size="6.5" font-weight="bold" lengthAdjust="spacing" textLength="8.5" x="216.25" y="257.3813">ref</text><text fill="#000000" font-family="sans-serif" font-size="6" lengthAdjust="spacing" textLength="48.5" x="238.5" y="267.3418">Get Entry By Index</text><line style="stroke:#181818;stroke-width:0.5;stroke-dasharray:2.0,2.0;" x1="267.75" x2="288.75" y1="287.6387" y2="287.6387"/><line style="stroke:#181818;stroke-width:0.5;stroke-dasharray:2.0,2.0;" x1="288.75" x2="288.75" y1="287.6387" y2="294.1387"/><line style="stroke:#181818;stroke-width:0.5;stroke-dasharray:2.0,2.0;" x1="265.25" x2="288.75" y1="294.1387" y2="294.1387"/><polygon fill="#181818" points="270.25,292.1387,265.25,294.1387,270.25,296.1387,268.25,294.1387" style="stroke:#181818;stroke-width:0.5;"/><text fill="#000000" font-family="sans-serif" font-size="6.5" font-weight="bold" lengthAdjust="spacing" textLength="7" x="271.25" y="285.0073">11</text><text fill="#000000" font-family="sans-serif" font-size="6.5" lengthAdjust="spacing" textLength="14.5" x="280.25" y="285.0073">entry</text><line style="stroke:#181818;stroke-width:0.5;" x1="265.25" x2="288.75" y1="304.7842" y2="304.7842"/><line style="stroke:#181818;stroke-width:0.5;" x1="288.75" x2="288.75" y1="304.7842" y2="311.2842"/><line style="stroke:#181818;stroke-width:0.5;" x1="268.25" x2="288.75" y1="311.2842" y2="311.2842"/><polygon fill="#181818" points="273.25,309.2842,268.25,311.2842,273.25,313.2842,271.25,311.2842" style="stroke:#181818;stroke-width:0.5;"/><text fill="#000000" font-family="sans-serif" font-size="6.5" font-weight="bold" lengthAdjust="spacing" textLength="7" x="271.25" y="302.1528">12</text><text fill="#000000" font-family="sans-serif" font-size="6.5" lengthAdjust="spacing" textLength="66.5" x="280.25" y="302.1528">getGSMFromSession()</text><rect fill="none" height="21.626" style="stroke:#000000;stroke-width:0.75;" width="106" x="209.75" y="317.7842"/><path d="M209.75,317.7842 L240.75,317.7842 L240.75,322.2842 L235.75,327.2842 L209.75,327.2842 L209.75,317.7842 " fill="#EEEEEE" style="stroke:#000000;stroke-width:1.0;"/><text fill="#000000" font-family="sans-serif" font-size="6.5" font-weight="bold" lengthAdjust="spacing" textLength="8.5" x="216.25" y="325.7983">ref</text><text fill="#000000" font-family="sans-serif" font-size="6" lengthAdjust="spacing" textLength="41" x="242.25" y="335.7588">Get GSM email</text><line style="stroke:#181818;stroke-width:0.5;stroke-dasharray:2.0,2.0;" x1="267.75" x2="288.75" y1="356.0557" y2="356.0557"/><line style="stroke:#181818;stroke-width:0.5;stroke-dasharray:2.0,2.0;" x1="288.75" x2="288.75" y1="356.0557" y2="362.5557"/><line style="stroke:#181818;stroke-width:0.5;stroke-dasharray:2.0,2.0;" x1="265.25" x2="288.75" y1="362.5557" y2="362.5557"/><polygon fill="#181818" points="270.25,360.5557,265.25,362.5557,270.25,364.5557,268.25,362.5557" style="stroke:#181818;stroke-width:0.5;"/><text fill="#000000" font-family="sans-serif" font-size="6.5" font-weight="bold" lengthAdjust="spacing" textLength="7" x="271.25" y="353.4243">13</text><text fill="#000000" font-family="sans-serif" font-size="6.5" lengthAdjust="spacing" textLength="15.5" x="280.25" y="353.4243">email</text><polygon fill="#181818" points="357.25,373.7012,362.25,375.7012,357.25,377.7012,359.25,375.7012" style="stroke:#181818;stroke-width:0.5;"/><line style="stroke:#181818;stroke-width:0.5;" x1="265.25" x2="360.25" y1="375.7012" y2="375.7012"/><text fill="#000000" font-family="sans-serif" font-size="6.5" font-weight="bold" lengthAdjust="spacing" textLength="7" x="268.75" y="373.0698">14</text><text fill="#000000" font-family="sans-serif" font-size="6.5" lengthAdjust="spacing" textLength="37.5" x="277.75" y="373.0698">getInstance()</text><polygon fill="#181818" points="270.75,389.3467,265.75,391.3467,270.75,393.3467,268.75,391.3467" style="stroke:#181818;stroke-width:0.5;"/><line style="stroke:#181818;stroke-width:0.5;stroke-dasharray:2.0,2.0;" x1="267.75" x2="365.25" y1="391.3467" y2="391.3467"/><text fill="#000000" font-family="sans-serif" font-size="6.5" font-weight="bold" lengthAdjust="spacing" textLength="7" x="273.75" y="388.7153">15</text><text fill="#000000" font-family="sans-serif" font-size="6.5" lengthAdjust="spacing" textLength="33.5" x="282.75" y="388.7153">repositories</text><polygon fill="#181818" points="410.75,404.9922,415.75,406.9922,410.75,408.9922,412.75,406.9922" style="stroke:#181818;stroke-width:0.5;"/><line style="stroke:#181818;stroke-width:0.5;" x1="265.25" x2="413.75" y1="406.9922" y2="406.9922"/><text fill="#000000" font-family="sans-serif" font-size="6.5" font-weight="bold" lengthAdjust="spacing" textLength="7" x="268.75" y="404.3608">16</text><text fill="#000000" font-family="sans-serif" font-size="6.5" lengthAdjust="spacing" textLength="35" x="277.75" y="404.3608">getAgenda()</text><polygon fill="#181818" points="270.75,420.6377,265.75,422.6377,270.75,424.6377,268.75,422.6377" style="stroke:#181818;stroke-width:0.5;"/><line style="stroke:#181818;stroke-width:0.5;stroke-dasharray:2.0,2.0;" x1="267.75" x2="418.75" y1="422.6377" y2="422.6377"/><text fill="#000000" font-family="sans-serif" font-size="6.5" font-weight="bold" lengthAdjust="spacing" textLength="7" x="273.75" y="420.0063">17</text><text fill="#000000" font-family="sans-serif" font-size="6.5" lengthAdjust="spacing" textLength="21" x="282.75" y="420.0063">agenda</text><polygon fill="#181818" points="456.5,436.2832,461.5,438.2832,456.5,440.2832,458.5,438.2832" style="stroke:#181818;stroke-width:0.5;"/><line style="stroke:#181818;stroke-width:0.5;" x1="265.25" x2="459.5" y1="438.2832" y2="438.2832"/><text fill="#000000" font-family="sans-serif" font-size="6.5" font-weight="bold" lengthAdjust="spacing" textLength="7" x="268.75" y="435.6519">18</text><text fill="#000000" font-family="sans-serif" font-size="6.5" lengthAdjust="spacing" textLength="72.5" x="277.75" y="435.6519">cancelEntry(entry, email)</text><rect fill="none" height="21.626" style="stroke:#000000;stroke-width:0.75;" width="38.5" x="447" y="442.2832"/><path d="M447,442.2832 L478,442.2832 L478,446.7832 L473,451.7832 L447,451.7832 L447,442.2832 " fill="#EEEEEE" style="stroke:#000000;stroke-width:1.0;"/><text fill="#000000" font-family="sans-serif" font-size="6.5" font-weight="bold" lengthAdjust="spacing" textLength="8.5" x="453.5" y="450.2974">ref</text><text fill="#000000" font-family="sans-serif" font-size="6" lengthAdjust="spacing" textLength="34.5" x="449" y="460.2578">Cancel Entry</text><polygon fill="#181818" points="270.75,476.0547,265.75,478.0547,270.75,480.0547,268.75,478.0547" style="stroke:#181818;stroke-width:0.5;"/><line style="stroke:#181818;stroke-width:0.5;stroke-dasharray:2.0,2.0;" x1="267.75" x2="464.5" y1="478.0547" y2="478.0547"/><text fill="#000000" font-family="sans-serif" font-size="6.5" font-weight="bold" lengthAdjust="spacing" textLength="7" x="273.75" y="475.4233">19</text><text fill="#000000" font-family="sans-serif" font-size="6.5" lengthAdjust="spacing" textLength="14.5" x="282.75" y="475.4233">entry</text><polygon fill="#181818" points="175.25,491.7002,170.25,493.7002,175.25,495.7002,173.25,493.7002" style="stroke:#181818;stroke-width:0.5;"/><line style="stroke:#181818;stroke-width:0.5;stroke-dasharray:2.0,2.0;" x1="172.25" x2="262.25" y1="493.7002" y2="493.7002"/><text fill="#000000" font-family="sans-serif" font-size="6.5" font-weight="bold" lengthAdjust="spacing" textLength="7" x="178.25" y="491.0688">20</text><text fill="#000000" font-family="sans-serif" font-size="6.5" lengthAdjust="spacing" textLength="14.5" x="187.25" y="491.0688">entry</text><polygon fill="#181818" points="32.25,507.3457,27.25,509.3457,32.25,511.3457,30.25,509.3457" style="stroke:#181818;stroke-width:0.5;"/><line style="stroke:#181818;stroke-width:0.5;stroke-dasharray:2.0,2.0;" x1="29.25" x2="166.75" y1="509.3457" y2="509.3457"/><text fill="#000000" font-family="sans-serif" font-size="6.5" font-weight="bold" lengthAdjust="spacing" textLength="7" x="35.25" y="506.7144">21</text><text fill="#000000" font-family="sans-serif" font-size="6.5" lengthAdjust="spacing" textLength="79" x="44.25" y="506.7144">displays operation success</text><!--SRC=[hLPDSzem4BtxL-nmASqqVu13PmXGXfcaxU3ancLZBw11I5GIIVZtNSas65i6-g6JiLPltxvzNc4tGktGu1QsMkbiRVIMm9az9VQuiyDiWojAtK4I6CeSgfMi1zWrvlfTg1KiKLfA4jmxhVRRLp99ycajSeAbrkvLVoIOEMsWDpL42b969hjGJwWOt_G0BKpJfuHHdSZ43fM3tc24AYCvKSuSXYjIERxCGkJBx5hWIFEpbhA47ZtF7nj7vhJJLZ0bGJR4p2S_pqDCBMAXeWVIynCOSWyMgY0HeeRJoVVnCF7bYpTq5CfCW1S_mFrNBWO6CBGR2qv35We11FArW53WrWG5N3XqX64DmWk_68A1V95tTmoM6UA8s3PlhiXvdRY8yVEF_kTZKBME2O9chUsm32r1lv4fOg1ZJSb1cGh6NDkZi2uUpDLvp7QsmFc-4eaAC8-Z6R0LdLE4l2-U0RpO0qZN-js2P03GomelQPojbAttnv9azzkgCV5MdAMo8HLA2Jaw10mb_jgJPPHCgwKmMtH2grkob_4sGDrYWq5ffF15z0FbcShfuzJk2sqkHA-0IhyS7Wg4ADZVUEYFhDIqr04U3X18N3pIwQkMlufQJxsDhQYzkb5h0d8ll_5uJSbQxdZ_tuMxNJMlcBSIRL78vFyfTH7kebALEZm-WpWpPPqtQqEM8uAVosSx_AB6f3wbamuIBOWQXpIGA2Ri1GffYqDQ8u6d0HrFdyRp5vT3v6lzKYZSmQUwKpfjKGP46rdSC9EerJjjK01U_LHgHJSvraPvy_ILkJs0NDYTn8C5lICJfYROVSP_8AApk_RJtxM_0G00]--></g></svg>