<?xml version="1.0" encoding="us-ascii" standalone="no"?><svg xmlns="http://www.w3.org/2000/svg" xmlns:xlink="http://www.w3.org/1999/xlink" contentStyleType="text/css" height="593px" preserveAspectRatio="none" style="width:549px;height:593px;background:#FFFFFF;" version="1.1" viewBox="0 0 549 593" width="549px" zoomAndPan="magnify"><defs/><g><rect fill="#FFFFFF" height="429.1523" style="stroke:#181818;stroke-width:1.0;" width="10" x="182" y="90.5332"/><rect fill="#FFFFFF" height="42.291" style="stroke:#181818;stroke-width:1.0;" width="10" x="187" y="218.3574"/><rect fill="#FFFFFF" height="167.4551" style="stroke:#181818;stroke-width:1.0;" width="10" x="187" y="306.9395"/><rect fill="#FFFFFF" height="31.291" style="stroke:#181818;stroke-width:1.0;" width="10" x="385" y="405.8125"/><rect fill="#FFFFFF" height="31.291" style="stroke:#181818;stroke-width:1.0;" width="10" x="503" y="343.2305"/><rect fill="none" height="383.8613" style="stroke:#000000;stroke-width:1.5;" width="399.5" x="144" y="105.5332"/><line style="stroke:#181818;stroke-width:0.5;stroke-dasharray:5.0,5.0;" x1="187" x2="187" y1="57.2422" y2="537.6855"/><line style="stroke:#181818;stroke-width:0.5;stroke-dasharray:5.0,5.0;" x1="389.5" x2="389.5" y1="57.2422" y2="537.6855"/><line style="stroke:#181818;stroke-width:0.5;stroke-dasharray:5.0,5.0;" x1="507.5" x2="507.5" y1="165.9453" y2="537.6855"/><rect fill="#E3E3E3" height="51.2422" rx="2.5" ry="2.5" style="stroke:#181818;stroke-width:0.5;" width="66" x="154" y="5"/><text fill="#000000" font-family="sans-serif" font-size="14" lengthAdjust="spacing" textLength="52" x="161" y="27.1074">agenda:</text><text fill="#000000" font-family="sans-serif" font-size="14" lengthAdjust="spacing" textLength="49" x="162.5" y="45.7285">Agenda</text><rect fill="#E3E3E3" height="51.2422" rx="2.5" ry="2.5" style="stroke:#181818;stroke-width:0.5;" width="66" x="154" y="536.6855"/><text fill="#000000" font-family="sans-serif" font-size="14" lengthAdjust="spacing" textLength="52" x="161" y="558.793">agenda:</text><text fill="#000000" font-family="sans-serif" font-size="14" lengthAdjust="spacing" textLength="49" x="162.5" y="577.4141">Agenda</text><rect fill="#E3E3E3" height="51.2422" rx="2.5" ry="2.5" style="stroke:#181818;stroke-width:0.5;" width="165" x="307.5" y="5"/><text fill="#000000" font-family="sans-serif" font-size="14" lengthAdjust="spacing" textLength="144" x="318" y="27.1074">greenSpacesManager:</text><text fill="#000000" font-family="sans-serif" font-size="14" lengthAdjust="spacing" textLength="151" x="314.5" y="45.7285">Green Spaces Manager</text><rect fill="#E3E3E3" height="51.2422" rx="2.5" ry="2.5" style="stroke:#181818;stroke-width:0.5;" width="165" x="307.5" y="536.6855"/><text fill="#000000" font-family="sans-serif" font-size="14" lengthAdjust="spacing" textLength="144" x="318" y="558.793">greenSpacesManager:</text><text fill="#000000" font-family="sans-serif" font-size="14" lengthAdjust="spacing" textLength="151" x="314.5" y="577.4141">Green Spaces Manager</text><rect fill="#E3E3E3" height="51.2422" rx="2.5" ry="2.5" style="stroke:#181818;stroke-width:0.5;" width="51" x="482.5" y="536.6855"/><text fill="#000000" font-family="sans-serif" font-size="14" lengthAdjust="spacing" textLength="32" x="492" y="558.793">entry</text><text fill="#000000" font-family="sans-serif" font-size="14" lengthAdjust="spacing" textLength="37" x="489.5" y="577.4141">:Entry</text><rect fill="#FFFFFF" height="429.1523" style="stroke:#181818;stroke-width:1.0;" width="10" x="182" y="90.5332"/><rect fill="#FFFFFF" height="42.291" style="stroke:#181818;stroke-width:1.0;" width="10" x="187" y="218.3574"/><rect fill="#FFFFFF" height="167.4551" style="stroke:#181818;stroke-width:1.0;" width="10" x="187" y="306.9395"/><rect fill="#FFFFFF" height="31.291" style="stroke:#181818;stroke-width:1.0;" width="10" x="385" y="405.8125"/><rect fill="#FFFFFF" height="31.291" style="stroke:#181818;stroke-width:1.0;" width="10" x="503" y="343.2305"/><polygon fill="#181818" points="170,86.5332,180,90.5332,170,94.5332,174,90.5332" style="stroke:#181818;stroke-width:1.0;"/><line style="stroke:#181818;stroke-width:1.0;" x1="0" x2="176" y1="90.5332" y2="90.5332"/><text fill="#000000" font-family="sans-serif" font-size="13" font-weight="bold" lengthAdjust="spacing" textLength="14" x="7" y="85.2705">18</text><text fill="#000000" font-family="sans-serif" font-size="13" lengthAdjust="spacing" textLength="145" x="25" y="85.2705">cancelEntry(entry, email)</text><path d="M144,105.5332 L269,105.5332 L269,114.8242 L259,124.8242 L144,124.8242 L144,105.5332 " fill="#EEEEEE" style="stroke:#000000;stroke-width:1.5;"/><rect fill="none" height="383.8613" style="stroke:#000000;stroke-width:1.5;" width="399.5" x="144" y="105.5332"/><text fill="#000000" font-family="sans-serif" font-size="13" font-weight="bold" lengthAdjust="spacing" textLength="80" x="159" y="120.5615">Cancel Entry</text><polygon fill="#181818" points="470.5,144.1152,480.5,148.1152,470.5,152.1152,474.5,148.1152" style="stroke:#181818;stroke-width:1.0;"/><line style="stroke:#181818;stroke-width:1.0;" x1="192" x2="476.5" y1="148.1152" y2="148.1152"/><text fill="#000000" font-family="sans-serif" font-size="13" font-weight="bold" lengthAdjust="spacing" textLength="25" x="199" y="142.8525">18.1</text><text fill="#000000" font-family="sans-serif" font-size="13" lengthAdjust="spacing" textLength="114" x="228" y="142.8525">cancel(entry, email)</text><rect fill="#E3E3E3" height="51.2422" rx="2.5" ry="2.5" style="stroke:#181818;stroke-width:0.5;" width="51" x="482.5" y="124.8242"/><text fill="#000000" font-family="sans-serif" font-size="14" lengthAdjust="spacing" textLength="32" x="492" y="146.9316">entry</text><text fill="#000000" font-family="sans-serif" font-size="14" lengthAdjust="spacing" textLength="37" x="489.5" y="165.5527">:Entry</text><line style="stroke:#181818;stroke-width:1.0;" x1="192" x2="239" y1="205.3574" y2="205.3574"/><line style="stroke:#181818;stroke-width:1.0;" x1="239" x2="239" y1="205.3574" y2="218.3574"/><line style="stroke:#181818;stroke-width:1.0;" x1="198" x2="239" y1="218.3574" y2="218.3574"/><polygon fill="#181818" points="208,214.3574,198,218.3574,208,222.3574,204,218.3574" style="stroke:#181818;stroke-width:1.0;"/><text fill="#000000" font-family="sans-serif" font-size="13" font-weight="bold" lengthAdjust="spacing" textLength="25" x="204" y="200.0947">18.2</text><text fill="#000000" font-family="sans-serif" font-size="13" lengthAdjust="spacing" textLength="115" x="233" y="200.0947">validateEntry (entry)</text><line style="stroke:#181818;stroke-width:1.0;stroke-dasharray:2.0,2.0;" x1="197" x2="239" y1="259.6484" y2="259.6484"/><line style="stroke:#181818;stroke-width:1.0;stroke-dasharray:2.0,2.0;" x1="239" x2="239" y1="259.6484" y2="272.6484"/><line style="stroke:#181818;stroke-width:1.0;stroke-dasharray:2.0,2.0;" x1="192" x2="239" y1="272.6484" y2="272.6484"/><polygon fill="#181818" points="202,268.6484,192,272.6484,202,276.6484,198,272.6484" style="stroke:#181818;stroke-width:1.0;"/><text fill="#000000" font-family="sans-serif" font-size="13" font-weight="bold" lengthAdjust="spacing" textLength="25" x="204" y="254.3857">18.3</text><text fill="#000000" font-family="sans-serif" font-size="13" lengthAdjust="spacing" textLength="4" x="233" y="254.3857">&#160;</text><line style="stroke:#181818;stroke-width:1.0;" x1="192" x2="239" y1="293.9395" y2="293.9395"/><line style="stroke:#181818;stroke-width:1.0;" x1="239" x2="239" y1="293.9395" y2="306.9395"/><line style="stroke:#181818;stroke-width:1.0;" x1="198" x2="239" y1="306.9395" y2="306.9395"/><polygon fill="#181818" points="208,302.9395,198,306.9395,208,310.9395,204,306.9395" style="stroke:#181818;stroke-width:1.0;"/><text fill="#000000" font-family="sans-serif" font-size="13" font-weight="bold" lengthAdjust="spacing" textLength="25" x="204" y="288.6768">18.4</text><text fill="#000000" font-family="sans-serif" font-size="13" lengthAdjust="spacing" textLength="150" x="233" y="288.6768">validateUser (email, entry)</text><polygon fill="#181818" points="491,339.2305,501,343.2305,491,347.2305,495,343.2305" style="stroke:#181818;stroke-width:1.0;"/><line style="stroke:#181818;stroke-width:1.0;" x1="197" x2="497" y1="343.2305" y2="343.2305"/><text fill="#000000" font-family="sans-serif" font-size="13" font-weight="bold" lengthAdjust="spacing" textLength="25" x="204" y="337.9678">18.5</text><text fill="#000000" font-family="sans-serif" font-size="13" lengthAdjust="spacing" textLength="155" x="233" y="337.9678">getGreenSpacesManager()</text><polygon fill="#181818" points="208,370.5215,198,374.5215,208,378.5215,204,374.5215" style="stroke:#181818;stroke-width:1.0;"/><line style="stroke:#181818;stroke-width:1.0;stroke-dasharray:2.0,2.0;" x1="202" x2="507" y1="374.5215" y2="374.5215"/><text fill="#000000" font-family="sans-serif" font-size="13" font-weight="bold" lengthAdjust="spacing" textLength="25" x="214" y="369.2588">18.6</text><text fill="#000000" font-family="sans-serif" font-size="13" lengthAdjust="spacing" textLength="126" x="243" y="369.2588">greenSpacesManager</text><polygon fill="#181818" points="373,401.8125,383,405.8125,373,409.8125,377,405.8125" style="stroke:#181818;stroke-width:1.0;"/><line style="stroke:#181818;stroke-width:1.0;" x1="197" x2="379" y1="405.8125" y2="405.8125"/><text fill="#000000" font-family="sans-serif" font-size="13" font-weight="bold" lengthAdjust="spacing" textLength="25" x="204" y="400.5498">18.7</text><text fill="#000000" font-family="sans-serif" font-size="13" lengthAdjust="spacing" textLength="59" x="233" y="400.5498">getEmail()</text><polygon fill="#181818" points="208,433.1035,198,437.1035,208,441.1035,204,437.1035" style="stroke:#181818;stroke-width:1.0;"/><line style="stroke:#181818;stroke-width:1.0;stroke-dasharray:2.0,2.0;" x1="202" x2="389" y1="437.1035" y2="437.1035"/><text fill="#000000" font-family="sans-serif" font-size="13" font-weight="bold" lengthAdjust="spacing" textLength="25" x="214" y="431.8408">18.8</text><text fill="#000000" font-family="sans-serif" font-size="13" lengthAdjust="spacing" textLength="31" x="243" y="431.8408">email</text><line style="stroke:#181818;stroke-width:1.0;stroke-dasharray:2.0,2.0;" x1="197" x2="239" y1="473.3945" y2="473.3945"/><line style="stroke:#181818;stroke-width:1.0;stroke-dasharray:2.0,2.0;" x1="239" x2="239" y1="473.3945" y2="486.3945"/><line style="stroke:#181818;stroke-width:1.0;stroke-dasharray:2.0,2.0;" x1="192" x2="239" y1="486.3945" y2="486.3945"/><polygon fill="#181818" points="202,482.3945,192,486.3945,202,490.3945,198,486.3945" style="stroke:#181818;stroke-width:1.0;"/><text fill="#000000" font-family="sans-serif" font-size="13" font-weight="bold" lengthAdjust="spacing" textLength="25" x="204" y="468.1318">18.9</text><text fill="#000000" font-family="sans-serif" font-size="13" lengthAdjust="spacing" textLength="4" x="233" y="468.1318">&#160;</text><polygon fill="#181818" points="11,515.6855,1,519.6855,11,523.6855,7,519.6855" style="stroke:#181818;stroke-width:1.0;"/><line style="stroke:#181818;stroke-width:1.0;stroke-dasharray:2.0,2.0;" x1="5" x2="186" y1="519.6855" y2="519.6855"/><text fill="#000000" font-family="sans-serif" font-size="13" font-weight="bold" lengthAdjust="spacing" textLength="14" x="17" y="514.4229">19</text><text fill="#000000" font-family="sans-serif" font-size="13" lengthAdjust="spacing" textLength="29" x="35" y="514.4229">entry</text><!--SRC=[hLJ1Ri8m3BtdAomkWsbCuhPLqoIqLPp60SPX4XVJcXBH9bMQil7tIqs1bauK9dn9v3w_PpjsixLKAHfC8D5A1okZ4m9hSXBPuKkAmHeZcjfjJ60eiAYYk0h8LXZgRwaYM6ASaH2OMwtoP456YBkL30cMMjk5_X72HLWPo1ILXOvZLI5wSpNaImSmW-787xyFwxZ84AcfouEo3rGkohYOKU64dHTADpFCflwa7a_AckrSUNvnCiOVVqw-ged2u4a8wB-M-k11W2gWc4EwJF00bA2CU_Menu70mCeDMjhd3iuYe_CKtfW3c4ImVs-bZ1FaLExl3uedOhMeKpkox6uUR32MeSk59M77rJlBSPhzHO87nRFeaFv5tgncbhbUTxaZhZ4thkcFv_0W8ZjgJ5strqfqK2udh0tFi4e_dN93jfMaqkSBPO_r5jl2vVf5Tw-faFUi5LwWQlNnArvJKhlEJQRI_O7uh6xtCtjU-lszXDjI7Z_H9Fa5]--></g></svg>