<?xml version="1.0" encoding="us-ascii" standalone="no"?><svg xmlns="http://www.w3.org/2000/svg" xmlns:xlink="http://www.w3.org/1999/xlink" contentStyleType="text/css" height="1033px" preserveAspectRatio="none" style="width:794px;height:1033px;background:#FFFFFF;" version="1.1" viewBox="0 0 794 1033" width="794px" zoomAndPan="magnify"><defs/><g><!--class CancelEntryAgendaUI--><g id="elem_CancelEntryAgendaUI"><rect codeLine="8" fill="#F1F1F1" height="48" id="CancelEntryAgendaUI" rx="2.5" ry="2.5" style="stroke:#181818;stroke-width:0.5;" width="170" x="377" y="7"/><ellipse cx="392" cy="23" fill="#ADD1B2" rx="11" ry="11" style="stroke:#181818;stroke-width:1.0;"/><path d="M394.7656,18.875 Q394.9219,18.6563 395.1094,18.5469 Q395.2969,18.4375 395.5156,18.4375 Q395.8906,18.4375 396.125,18.7031 Q396.3594,18.9531 396.3594,19.5625 L396.3594,21.0156 Q396.3594,21.625 396.125,21.8906 Q395.8906,22.1563 395.5156,22.1563 Q395.1719,22.1563 394.9688,21.9531 Q394.7656,21.7656 394.6563,21.25 Q394.6094,20.8906 394.4219,20.7031 Q394.0938,20.3281 393.4844,20.1094 Q392.875,19.8906 392.25,19.8906 Q391.4844,19.8906 390.8438,20.2188 Q390.2188,20.5469 389.7188,21.2969 Q389.2344,22.0469 389.2344,23.0781 L389.2344,24.1719 Q389.2344,25.4063 390.125,26.2344 Q391.0156,27.0469 392.6094,27.0469 Q393.5469,27.0469 394.2031,26.7969 Q394.5938,26.6406 395.0156,26.2031 Q395.2813,25.9375 395.4219,25.8594 Q395.5781,25.7813 395.7813,25.7813 Q396.1094,25.7813 396.3594,26.0469 Q396.625,26.2969 396.625,26.6406 Q396.625,26.9844 396.2813,27.3906 Q395.7813,27.9688 394.9844,28.2969 Q393.9063,28.75 392.6094,28.75 Q391.0938,28.75 389.8906,28.125 Q388.9063,27.625 388.2188,26.5625 Q387.5313,25.4844 387.5313,24.2031 L387.5313,23.0469 Q387.5313,21.7188 388.1406,20.5781 Q388.7656,19.4219 389.8594,18.8125 Q390.9531,18.1875 392.1875,18.1875 Q392.9219,18.1875 393.5625,18.3594 Q394.2188,18.5156 394.7656,18.875 Z " fill="#000000"/><text fill="#000000" font-family="sans-serif" font-size="14" lengthAdjust="spacing" textLength="138" x="406" y="28.7969">CancelEntryAgendaUI</text><line style="stroke:#181818;stroke-width:0.5;" x1="378" x2="546" y1="39" y2="39"/><line style="stroke:#181818;stroke-width:0.5;" x1="378" x2="546" y1="47" y2="47"/></g><!--class CancelEntryAgendaController--><g id="elem_CancelEntryAgendaController"><rect codeLine="10" fill="#F1F1F1" height="141.1055" id="CancelEntryAgendaController" rx="2.5" ry="2.5" style="stroke:#181818;stroke-width:0.5;" width="431" x="246.5" y="116"/><ellipse cx="363.75" cy="132" fill="#ADD1B2" rx="11" ry="11" style="stroke:#181818;stroke-width:1.0;"/><path d="M366.5156,127.875 Q366.6719,127.6563 366.8594,127.5469 Q367.0469,127.4375 367.2656,127.4375 Q367.6406,127.4375 367.875,127.7031 Q368.1094,127.9531 368.1094,128.5625 L368.1094,130.0156 Q368.1094,130.625 367.875,130.8906 Q367.6406,131.1563 367.2656,131.1563 Q366.9219,131.1563 366.7188,130.9531 Q366.5156,130.7656 366.4063,130.25 Q366.3594,129.8906 366.1719,129.7031 Q365.8438,129.3281 365.2344,129.1094 Q364.625,128.8906 364,128.8906 Q363.2344,128.8906 362.5938,129.2188 Q361.9688,129.5469 361.4688,130.2969 Q360.9844,131.0469 360.9844,132.0781 L360.9844,133.1719 Q360.9844,134.4063 361.875,135.2344 Q362.7656,136.0469 364.3594,136.0469 Q365.2969,136.0469 365.9531,135.7969 Q366.3438,135.6406 366.7656,135.2031 Q367.0313,134.9375 367.1719,134.8594 Q367.3281,134.7813 367.5313,134.7813 Q367.8594,134.7813 368.1094,135.0469 Q368.375,135.2969 368.375,135.6406 Q368.375,135.9844 368.0313,136.3906 Q367.5313,136.9688 366.7344,137.2969 Q365.6563,137.75 364.3594,137.75 Q362.8438,137.75 361.6406,137.125 Q360.6563,136.625 359.9688,135.5625 Q359.2813,134.4844 359.2813,133.2031 L359.2813,132.0469 Q359.2813,130.7188 359.8906,129.5781 Q360.5156,128.4219 361.6094,127.8125 Q362.7031,127.1875 363.9375,127.1875 Q364.6719,127.1875 365.3125,127.3594 Q365.9688,127.5156 366.5156,127.875 Z " fill="#000000"/><text fill="#000000" font-family="sans-serif" font-size="14" lengthAdjust="spacing" textLength="188" x="384.25" y="137.7969">CancelEntryAgendaController</text><line style="stroke:#181818;stroke-width:0.5;" x1="247.5" x2="676.5" y1="148" y2="148"/><line style="stroke:#181818;stroke-width:0.5;" x1="247.5" x2="676.5" y1="156" y2="156"/><text fill="#000000" font-family="sans-serif" font-size="14" lengthAdjust="spacing" textLength="419" x="252.5" y="175.1074">+CancelEntryAgendaController(agenda, authenticationRepository)</text><text fill="#000000" font-family="sans-serif" font-size="14" lengthAdjust="spacing" textLength="157" x="252.5" y="193.7285">+cancelEntry(entryIndex)</text><text fill="#000000" font-family="sans-serif" font-size="14" lengthAdjust="spacing" textLength="134" x="252.5" y="212.3496">+getEntriesListDTO()</text><text fill="#000000" font-family="sans-serif" font-size="14" lengthAdjust="spacing" textLength="150" x="252.5" y="230.9707">-getEntryByIndex(index)</text><text fill="#000000" font-family="sans-serif" font-size="14" lengthAdjust="spacing" textLength="147" x="252.5" y="249.5918">-getGsmFromSession()</text></g><!--class Repositories--><g id="elem_Repositories"><rect codeLine="19" fill="#F1F1F1" height="122.4844" id="Repositories" rx="2.5" ry="2.5" style="stroke:#181818;stroke-width:0.5;" width="208" x="169" y="336"/><ellipse cx="229.25" cy="352" fill="#ADD1B2" rx="11" ry="11" style="stroke:#181818;stroke-width:1.0;"/><path d="M232.0156,347.875 Q232.1719,347.6563 232.3594,347.5469 Q232.5469,347.4375 232.7656,347.4375 Q233.1406,347.4375 233.375,347.7031 Q233.6094,347.9531 233.6094,348.5625 L233.6094,350.0156 Q233.6094,350.625 233.375,350.8906 Q233.1406,351.1563 232.7656,351.1563 Q232.4219,351.1563 232.2188,350.9531 Q232.0156,350.7656 231.9063,350.25 Q231.8594,349.8906 231.6719,349.7031 Q231.3438,349.3281 230.7344,349.1094 Q230.125,348.8906 229.5,348.8906 Q228.7344,348.8906 228.0938,349.2188 Q227.4688,349.5469 226.9688,350.2969 Q226.4844,351.0469 226.4844,352.0781 L226.4844,353.1719 Q226.4844,354.4063 227.375,355.2344 Q228.2656,356.0469 229.8594,356.0469 Q230.7969,356.0469 231.4531,355.7969 Q231.8438,355.6406 232.2656,355.2031 Q232.5313,354.9375 232.6719,354.8594 Q232.8281,354.7813 233.0313,354.7813 Q233.3594,354.7813 233.6094,355.0469 Q233.875,355.2969 233.875,355.6406 Q233.875,355.9844 233.5313,356.3906 Q233.0313,356.9688 232.2344,357.2969 Q231.1563,357.75 229.8594,357.75 Q228.3438,357.75 227.1406,357.125 Q226.1563,356.625 225.4688,355.5625 Q224.7813,354.4844 224.7813,353.2031 L224.7813,352.0469 Q224.7813,350.7188 225.3906,349.5781 Q226.0156,348.4219 227.1094,347.8125 Q228.2031,347.1875 229.4375,347.1875 Q230.1719,347.1875 230.8125,347.3594 Q231.4688,347.5156 232.0156,347.875 Z " fill="#000000"/><text fill="#000000" font-family="sans-serif" font-size="14" lengthAdjust="spacing" textLength="79" x="249.75" y="357.7969">Repositories</text><line style="stroke:#181818;stroke-width:0.5;" x1="170" x2="376" y1="368" y2="368"/><line style="stroke:#181818;stroke-width:0.5;" x1="170" x2="376" y1="376" y2="376"/><text fill="#000000" font-family="sans-serif" font-size="14" lengthAdjust="spacing" textLength="94" x="175" y="395.1074">-Repositories()</text><text fill="#000000" font-family="sans-serif" font-size="14" lengthAdjust="spacing" textLength="182" x="175" y="413.7285">+getInstance() : Repositories</text><text fill="#000000" font-family="sans-serif" font-size="14" lengthAdjust="spacing" textLength="87" x="175" y="432.3496">+getAgenda()</text><text fill="#000000" font-family="sans-serif" font-size="14" lengthAdjust="spacing" textLength="196" x="175" y="450.9707">+getAuthenticationRepository()</text></g><!--class AuthenticationRepository--><g id="elem_AuthenticationRepository"><rect codeLine="26" fill="#F1F1F1" height="66.6211" id="AuthenticationRepository" rx="2.5" ry="2.5" style="stroke:#181818;stroke-width:0.5;" width="190" x="52" y="556"/><ellipse cx="67" cy="572" fill="#ADD1B2" rx="11" ry="11" style="stroke:#181818;stroke-width:1.0;"/><path d="M69.7656,567.875 Q69.9219,567.6563 70.1094,567.5469 Q70.2969,567.4375 70.5156,567.4375 Q70.8906,567.4375 71.125,567.7031 Q71.3594,567.9531 71.3594,568.5625 L71.3594,570.0156 Q71.3594,570.625 71.125,570.8906 Q70.8906,571.1563 70.5156,571.1563 Q70.1719,571.1563 69.9688,570.9531 Q69.7656,570.7656 69.6563,570.25 Q69.6094,569.8906 69.4219,569.7031 Q69.0938,569.3281 68.4844,569.1094 Q67.875,568.8906 67.25,568.8906 Q66.4844,568.8906 65.8438,569.2188 Q65.2188,569.5469 64.7188,570.2969 Q64.2344,571.0469 64.2344,572.0781 L64.2344,573.1719 Q64.2344,574.4063 65.125,575.2344 Q66.0156,576.0469 67.6094,576.0469 Q68.5469,576.0469 69.2031,575.7969 Q69.5938,575.6406 70.0156,575.2031 Q70.2813,574.9375 70.4219,574.8594 Q70.5781,574.7813 70.7813,574.7813 Q71.1094,574.7813 71.3594,575.0469 Q71.625,575.2969 71.625,575.6406 Q71.625,575.9844 71.2813,576.3906 Q70.7813,576.9688 69.9844,577.2969 Q68.9063,577.75 67.6094,577.75 Q66.0938,577.75 64.8906,577.125 Q63.9063,576.625 63.2188,575.5625 Q62.5313,574.4844 62.5313,573.2031 L62.5313,572.0469 Q62.5313,570.7188 63.1406,569.5781 Q63.7656,568.4219 64.8594,567.8125 Q65.9531,567.1875 67.1875,567.1875 Q67.9219,567.1875 68.5625,567.3594 Q69.2188,567.5156 69.7656,567.875 Z " fill="#000000"/><text fill="#000000" font-family="sans-serif" font-size="14" lengthAdjust="spacing" textLength="158" x="81" y="577.7969">AuthenticationRepository</text><line style="stroke:#181818;stroke-width:0.5;" x1="53" x2="241" y1="588" y2="588"/><line style="stroke:#181818;stroke-width:0.5;" x1="53" x2="241" y1="596" y2="596"/><text fill="#000000" font-family="sans-serif" font-size="14" lengthAdjust="spacing" textLength="165" x="58" y="615.1074">+getCurrentUserSession()</text></g><!--class UserSession--><g id="elem_UserSession"><rect codeLine="30" fill="#F1F1F1" height="66.6211" id="UserSession" rx="2.5" ry="2.5" style="stroke:#181818;stroke-width:0.5;" width="111" x="91.5" y="748.5"/><ellipse cx="106.5" cy="764.5" fill="#ADD1B2" rx="11" ry="11" style="stroke:#181818;stroke-width:1.0;"/><path d="M109.2656,760.375 Q109.4219,760.1563 109.6094,760.0469 Q109.7969,759.9375 110.0156,759.9375 Q110.3906,759.9375 110.625,760.2031 Q110.8594,760.4531 110.8594,761.0625 L110.8594,762.5156 Q110.8594,763.125 110.625,763.3906 Q110.3906,763.6563 110.0156,763.6563 Q109.6719,763.6563 109.4688,763.4531 Q109.2656,763.2656 109.1563,762.75 Q109.1094,762.3906 108.9219,762.2031 Q108.5938,761.8281 107.9844,761.6094 Q107.375,761.3906 106.75,761.3906 Q105.9844,761.3906 105.3438,761.7188 Q104.7188,762.0469 104.2188,762.7969 Q103.7344,763.5469 103.7344,764.5781 L103.7344,765.6719 Q103.7344,766.9063 104.625,767.7344 Q105.5156,768.5469 107.1094,768.5469 Q108.0469,768.5469 108.7031,768.2969 Q109.0938,768.1406 109.5156,767.7031 Q109.7813,767.4375 109.9219,767.3594 Q110.0781,767.2813 110.2813,767.2813 Q110.6094,767.2813 110.8594,767.5469 Q111.125,767.7969 111.125,768.1406 Q111.125,768.4844 110.7813,768.8906 Q110.2813,769.4688 109.4844,769.7969 Q108.4063,770.25 107.1094,770.25 Q105.5938,770.25 104.3906,769.625 Q103.4063,769.125 102.7188,768.0625 Q102.0313,766.9844 102.0313,765.7031 L102.0313,764.5469 Q102.0313,763.2188 102.6406,762.0781 Q103.2656,760.9219 104.3594,760.3125 Q105.4531,759.6875 106.6875,759.6875 Q107.4219,759.6875 108.0625,759.8594 Q108.7188,760.0156 109.2656,760.375 Z " fill="#000000"/><text fill="#000000" font-family="sans-serif" font-size="14" lengthAdjust="spacing" textLength="79" x="120.5" y="770.2969">UserSession</text><line style="stroke:#181818;stroke-width:0.5;" x1="92.5" x2="201.5" y1="780.5" y2="780.5"/><line style="stroke:#181818;stroke-width:0.5;" x1="92.5" x2="201.5" y1="788.5" y2="788.5"/><text fill="#000000" font-family="sans-serif" font-size="14" lengthAdjust="spacing" textLength="78" x="97.5" y="807.6074">+getUserId()</text></g><!--class EntryMapper--><g id="elem_EntryMapper"><rect codeLine="34" fill="#F1F1F1" height="85.2422" id="EntryMapper" rx="2.5" ry="2.5" style="stroke:#181818;stroke-width:0.5;" width="159" x="605.5" y="354.5"/><ellipse cx="641.2" cy="370.5" fill="#ADD1B2" rx="11" ry="11" style="stroke:#181818;stroke-width:1.0;"/><path d="M643.9656,366.375 Q644.1219,366.1563 644.3094,366.0469 Q644.4969,365.9375 644.7156,365.9375 Q645.0906,365.9375 645.325,366.2031 Q645.5594,366.4531 645.5594,367.0625 L645.5594,368.5156 Q645.5594,369.125 645.325,369.3906 Q645.0906,369.6563 644.7156,369.6563 Q644.3719,369.6563 644.1688,369.4531 Q643.9656,369.2656 643.8563,368.75 Q643.8094,368.3906 643.6219,368.2031 Q643.2938,367.8281 642.6844,367.6094 Q642.075,367.3906 641.45,367.3906 Q640.6844,367.3906 640.0438,367.7188 Q639.4188,368.0469 638.9188,368.7969 Q638.4344,369.5469 638.4344,370.5781 L638.4344,371.6719 Q638.4344,372.9063 639.325,373.7344 Q640.2156,374.5469 641.8094,374.5469 Q642.7469,374.5469 643.4031,374.2969 Q643.7938,374.1406 644.2156,373.7031 Q644.4813,373.4375 644.6219,373.3594 Q644.7781,373.2813 644.9813,373.2813 Q645.3094,373.2813 645.5594,373.5469 Q645.825,373.7969 645.825,374.1406 Q645.825,374.4844 645.4813,374.8906 Q644.9813,375.4688 644.1844,375.7969 Q643.1063,376.25 641.8094,376.25 Q640.2938,376.25 639.0906,375.625 Q638.1063,375.125 637.4188,374.0625 Q636.7313,372.9844 636.7313,371.7031 L636.7313,370.5469 Q636.7313,369.2188 637.3406,368.0781 Q637.9656,366.9219 639.0594,366.3125 Q640.1531,365.6875 641.3875,365.6875 Q642.1219,365.6875 642.7625,365.8594 Q643.4188,366.0156 643.9656,366.375 Z " fill="#000000"/><text fill="#000000" font-family="sans-serif" font-size="14" lengthAdjust="spacing" textLength="81" x="659.8" y="376.2969">EntryMapper</text><line style="stroke:#181818;stroke-width:0.5;" x1="606.5" x2="763.5" y1="386.5" y2="386.5"/><line style="stroke:#181818;stroke-width:0.5;" x1="606.5" x2="763.5" y1="394.5" y2="394.5"/><text fill="#000000" font-family="sans-serif" font-size="14" lengthAdjust="spacing" textLength="147" x="611.5" y="413.6074">+toDTOList(entriesList)</text><text fill="#000000" font-family="sans-serif" font-size="14" lengthAdjust="spacing" textLength="129" x="611.5" y="432.2285">+entryToDTO(entry)</text></g><!--class EntryDTO--><g id="elem_EntryDTO"><rect codeLine="39" fill="#F1F1F1" height="141.1055" id="EntryDTO" rx="2.5" ry="2.5" style="stroke:#181818;stroke-width:0.5;" width="204" x="583" y="519"/><ellipse cx="649.25" cy="535" fill="#ADD1B2" rx="11" ry="11" style="stroke:#181818;stroke-width:1.0;"/><path d="M652.0156,530.875 Q652.1719,530.6563 652.3594,530.5469 Q652.5469,530.4375 652.7656,530.4375 Q653.1406,530.4375 653.375,530.7031 Q653.6094,530.9531 653.6094,531.5625 L653.6094,533.0156 Q653.6094,533.625 653.375,533.8906 Q653.1406,534.1563 652.7656,534.1563 Q652.4219,534.1563 652.2188,533.9531 Q652.0156,533.7656 651.9063,533.25 Q651.8594,532.8906 651.6719,532.7031 Q651.3438,532.3281 650.7344,532.1094 Q650.125,531.8906 649.5,531.8906 Q648.7344,531.8906 648.0938,532.2188 Q647.4688,532.5469 646.9688,533.2969 Q646.4844,534.0469 646.4844,535.0781 L646.4844,536.1719 Q646.4844,537.4063 647.375,538.2344 Q648.2656,539.0469 649.8594,539.0469 Q650.7969,539.0469 651.4531,538.7969 Q651.8438,538.6406 652.2656,538.2031 Q652.5313,537.9375 652.6719,537.8594 Q652.8281,537.7813 653.0313,537.7813 Q653.3594,537.7813 653.6094,538.0469 Q653.875,538.2969 653.875,538.6406 Q653.875,538.9844 653.5313,539.3906 Q653.0313,539.9688 652.2344,540.2969 Q651.1563,540.75 649.8594,540.75 Q648.3438,540.75 647.1406,540.125 Q646.1563,539.625 645.4688,538.5625 Q644.7813,537.4844 644.7813,536.2031 L644.7813,535.0469 Q644.7813,533.7188 645.3906,532.5781 Q646.0156,531.4219 647.1094,530.8125 Q648.2031,530.1875 649.4375,530.1875 Q650.1719,530.1875 650.8125,530.3594 Q651.4688,530.5156 652.0156,530.875 Z " fill="#000000"/><text fill="#000000" font-family="sans-serif" font-size="14" lengthAdjust="spacing" textLength="63" x="669.75" y="540.7969">EntryDTO</text><line style="stroke:#181818;stroke-width:0.5;" x1="584" x2="786" y1="551" y2="551"/><text fill="#000000" font-family="sans-serif" font-size="14" lengthAdjust="spacing" textLength="116" x="589" y="570.1074">-Date startingDate</text><text fill="#000000" font-family="sans-serif" font-size="14" lengthAdjust="spacing" textLength="66" x="589" y="588.7285">-Task task</text><text fill="#000000" font-family="sans-serif" font-size="14" lengthAdjust="spacing" textLength="136" x="589" y="607.3496">-AgendaStatus status</text><line style="stroke:#181818;stroke-width:0.5;" x1="584" x2="786" y1="614.8633" y2="614.8633"/><text fill="#000000" font-family="sans-serif" font-size="14" lengthAdjust="spacing" textLength="143" x="589" y="633.9707">+changeStatus(status)</text><text fill="#000000" font-family="sans-serif" font-size="14" lengthAdjust="spacing" textLength="192" x="589" y="652.5918">+EntryDTO(startingDate, task)</text></g><!--class Agenda--><g id="elem_Agenda"><rect codeLine="47" fill="#F1F1F1" height="122.4844" id="Agenda" rx="2.5" ry="2.5" style="stroke:#181818;stroke-width:0.5;" width="178" x="309" y="528.5"/><ellipse cx="369.25" cy="544.5" fill="#ADD1B2" rx="11" ry="11" style="stroke:#181818;stroke-width:1.0;"/><path d="M372.0156,540.375 Q372.1719,540.1563 372.3594,540.0469 Q372.5469,539.9375 372.7656,539.9375 Q373.1406,539.9375 373.375,540.2031 Q373.6094,540.4531 373.6094,541.0625 L373.6094,542.5156 Q373.6094,543.125 373.375,543.3906 Q373.1406,543.6563 372.7656,543.6563 Q372.4219,543.6563 372.2188,543.4531 Q372.0156,543.2656 371.9063,542.75 Q371.8594,542.3906 371.6719,542.2031 Q371.3438,541.8281 370.7344,541.6094 Q370.125,541.3906 369.5,541.3906 Q368.7344,541.3906 368.0938,541.7188 Q367.4688,542.0469 366.9688,542.7969 Q366.4844,543.5469 366.4844,544.5781 L366.4844,545.6719 Q366.4844,546.9063 367.375,547.7344 Q368.2656,548.5469 369.8594,548.5469 Q370.7969,548.5469 371.4531,548.2969 Q371.8438,548.1406 372.2656,547.7031 Q372.5313,547.4375 372.6719,547.3594 Q372.8281,547.2813 373.0313,547.2813 Q373.3594,547.2813 373.6094,547.5469 Q373.875,547.7969 373.875,548.1406 Q373.875,548.4844 373.5313,548.8906 Q373.0313,549.4688 372.2344,549.7969 Q371.1563,550.25 369.8594,550.25 Q368.3438,550.25 367.1406,549.625 Q366.1563,549.125 365.4688,548.0625 Q364.7813,546.9844 364.7813,545.7031 L364.7813,544.5469 Q364.7813,543.2188 365.3906,542.0781 Q366.0156,540.9219 367.1094,540.3125 Q368.2031,539.6875 369.4375,539.6875 Q370.1719,539.6875 370.8125,539.8594 Q371.4688,540.0156 372.0156,540.375 Z " fill="#000000"/><text fill="#000000" font-family="sans-serif" font-size="14" lengthAdjust="spacing" textLength="49" x="389.75" y="550.2969">Agenda</text><line style="stroke:#181818;stroke-width:0.5;" x1="310" x2="486" y1="560.5" y2="560.5"/><line style="stroke:#181818;stroke-width:0.5;" x1="310" x2="486" y1="568.5" y2="568.5"/><text fill="#000000" font-family="sans-serif" font-size="14" lengthAdjust="spacing" textLength="129" x="315" y="587.6074">-validateEntry(entry)</text><text fill="#000000" font-family="sans-serif" font-size="14" lengthAdjust="spacing" textLength="166" x="315" y="606.2285">-validateUser(email, entry)</text><text fill="#000000" font-family="sans-serif" font-size="14" lengthAdjust="spacing" textLength="104" x="315" y="624.8496">+getEntriesList()</text><text fill="#000000" font-family="sans-serif" font-size="14" lengthAdjust="spacing" textLength="165" x="315" y="643.4707">+cancelEntry(entry, email)</text></g><!--class Entry--><g id="elem_Entry"><rect codeLine="54" fill="#F1F1F1" height="122.4844" id="Entry" rx="2.5" ry="2.5" style="stroke:#181818;stroke-width:0.5;" width="174" x="311" y="721"/><ellipse cx="377.25" cy="737" fill="#ADD1B2" rx="11" ry="11" style="stroke:#181818;stroke-width:1.0;"/><path d="M380.0156,732.875 Q380.1719,732.6563 380.3594,732.5469 Q380.5469,732.4375 380.7656,732.4375 Q381.1406,732.4375 381.375,732.7031 Q381.6094,732.9531 381.6094,733.5625 L381.6094,735.0156 Q381.6094,735.625 381.375,735.8906 Q381.1406,736.1563 380.7656,736.1563 Q380.4219,736.1563 380.2188,735.9531 Q380.0156,735.7656 379.9063,735.25 Q379.8594,734.8906 379.6719,734.7031 Q379.3438,734.3281 378.7344,734.1094 Q378.125,733.8906 377.5,733.8906 Q376.7344,733.8906 376.0938,734.2188 Q375.4688,734.5469 374.9688,735.2969 Q374.4844,736.0469 374.4844,737.0781 L374.4844,738.1719 Q374.4844,739.4063 375.375,740.2344 Q376.2656,741.0469 377.8594,741.0469 Q378.7969,741.0469 379.4531,740.7969 Q379.8438,740.6406 380.2656,740.2031 Q380.5313,739.9375 380.6719,739.8594 Q380.8281,739.7813 381.0313,739.7813 Q381.3594,739.7813 381.6094,740.0469 Q381.875,740.2969 381.875,740.6406 Q381.875,740.9844 381.5313,741.3906 Q381.0313,741.9688 380.2344,742.2969 Q379.1563,742.75 377.8594,742.75 Q376.3438,742.75 375.1406,742.125 Q374.1563,741.625 373.4688,740.5625 Q372.7813,739.4844 372.7813,738.2031 L372.7813,737.0469 Q372.7813,735.7188 373.3906,734.5781 Q374.0156,733.4219 375.1094,732.8125 Q376.2031,732.1875 377.4375,732.1875 Q378.1719,732.1875 378.8125,732.3594 Q379.4688,732.5156 380.0156,732.875 Z " fill="#000000"/><text fill="#000000" font-family="sans-serif" font-size="14" lengthAdjust="spacing" textLength="33" x="397.75" y="742.7969">Entry</text><line style="stroke:#181818;stroke-width:0.5;" x1="312" x2="484" y1="753" y2="753"/><text fill="#000000" font-family="sans-serif" font-size="14" lengthAdjust="spacing" textLength="116" x="317" y="772.1074">-Date startingDate</text><text fill="#000000" font-family="sans-serif" font-size="14" lengthAdjust="spacing" textLength="66" x="317" y="790.7285">-Task task</text><text fill="#000000" font-family="sans-serif" font-size="14" lengthAdjust="spacing" textLength="136" x="317" y="809.3496">-AgendaStatus status</text><line style="stroke:#181818;stroke-width:0.5;" x1="312" x2="484" y1="816.8633" y2="816.8633"/><text fill="#000000" font-family="sans-serif" font-size="14" lengthAdjust="spacing" textLength="162" x="317" y="835.9707">+Entry(startingDate, task)</text></g><!--class AgendaStatus--><g id="elem_AgendaStatus"><rect codeLine="61" fill="#F1F1F1" height="122.4844" id="AgendaStatus" rx="2.5" ry="2.5" style="stroke:#181818;stroke-width:0.5;" width="121" x="337.5" y="904"/><ellipse cx="352.5" cy="920" fill="#EB937F" rx="11" ry="11" style="stroke:#181818;stroke-width:1.0;"/><path d="M351.3594,920.7969 L351.3594,923.2969 L355.6875,923.2969 L355.6875,922.375 Q355.6875,921.7656 355.9219,921.5 Q356.1719,921.2344 356.5469,921.2344 Q356.9219,921.2344 357.1563,921.5 Q357.3906,921.7656 357.3906,922.375 L357.3906,925 L349.3906,925 Q348.7656,925 348.5,924.7656 Q348.25,924.5313 348.25,924.1406 Q348.25,923.7656 348.5156,923.5313 Q348.7813,923.2969 349.3906,923.2969 L349.6563,923.2969 L349.6563,916.6406 L349.3906,916.6406 Q348.7656,916.6406 348.5,916.4063 Q348.25,916.1719 348.25,915.7813 Q348.25,915.4063 348.5,915.1719 Q348.7656,914.9375 349.3906,914.9375 L357.0156,914.9375 L357.0156,917.5313 Q357.0156,918.1406 356.7813,918.4063 Q356.5625,918.6563 356.1719,918.6563 Q355.7969,918.6563 355.5625,918.4063 Q355.3281,918.1406 355.3281,917.5313 L355.3281,916.6406 L351.3594,916.6406 L351.3594,919.0938 L352.8438,919.0938 Q352.8438,918.4375 352.9688,918.25 Q353.2344,917.8438 353.7031,917.8438 Q354.0781,917.8438 354.3125,918.1094 Q354.5469,918.3594 354.5469,918.9688 L354.5469,920.9375 Q354.5469,921.4844 354.4219,921.6719 Q354.1563,922.0625 353.7031,922.0625 Q353.2344,922.0625 352.9688,921.6563 Q352.8438,921.4688 352.8438,920.7969 L351.3594,920.7969 Z " fill="#000000"/><text fill="#000000" font-family="sans-serif" font-size="14" lengthAdjust="spacing" textLength="89" x="366.5" y="925.7969">AgendaStatus</text><line style="stroke:#181818;stroke-width:0.5;" x1="338.5" x2="457.5" y1="936" y2="936"/><text fill="#000000" font-family="sans-serif" font-size="14" lengthAdjust="spacing" textLength="63" x="343.5" y="955.1074">PLANNED</text><text fill="#000000" font-family="sans-serif" font-size="14" lengthAdjust="spacing" textLength="86" x="343.5" y="973.7285">POSTPONED</text><text fill="#000000" font-family="sans-serif" font-size="14" lengthAdjust="spacing" textLength="74" x="343.5" y="992.3496">CANCELED</text><text fill="#000000" font-family="sans-serif" font-size="14" lengthAdjust="spacing" textLength="39" x="343.5" y="1010.9707">DONE</text><line style="stroke:#181818;stroke-width:0.5;" x1="338.5" x2="457.5" y1="1018.4844" y2="1018.4844"/></g><!--link CancelEntryAgendaUI to CancelEntryAgendaController--><g id="link_CancelEntryAgendaUI_CancelEntryAgendaController"><path codeLine="68" d="M462,55.31 C462,71.5 462,87.98 462,109.71 " fill="none" id="CancelEntryAgendaUI-to-CancelEntryAgendaController" style="stroke:#181818;stroke-width:1.0;stroke-dasharray:7.0,7.0;"/><polygon fill="#181818" points="462,115.71,466,106.71,462,110.71,458,106.71,462,115.71" style="stroke:#181818;stroke-width:1.0;"/></g><!--link CancelEntryAgendaController to Repositories--><g id="link_CancelEntryAgendaController_Repositories"><path codeLine="69" d="M398.8,257.22 C375.73,282.67 353.8803,306.7751 331.6203,331.3251 " fill="none" id="CancelEntryAgendaController-to-Repositories" style="stroke:#181818;stroke-width:1.0;stroke-dasharray:7.0,7.0;"/><polygon fill="#181818" points="327.59,335.77,336.5987,331.7895,330.9486,332.0659,330.6721,326.4158,327.59,335.77" style="stroke:#181818;stroke-width:1.0;"/><text fill="#000000" font-family="sans-serif" font-size="13" lengthAdjust="spacing" textLength="67" x="369" y="302.0283">repositories</text></g><!--link CancelEntryAgendaController to AuthenticationRepository--><g id="link_CancelEntryAgendaController_AuthenticationRepository"><path codeLine="70" d="M248.35,257.08 C129.78,295.69 6,336 6,336 C6,336 6,458 6,458 C6,458 65.6171,513.1739 107.3771,551.8339 " fill="none" id="CancelEntryAgendaController-to-AuthenticationRepository" style="stroke:#181818;stroke-width:1.0;stroke-dasharray:7.0,7.0;"/><polygon fill="#181818" points="111.78,555.91,107.893,546.8606,108.1109,552.5133,102.4582,552.7312,111.78,555.91" style="stroke:#181818;stroke-width:1.0;"/><text fill="#000000" font-family="sans-serif" font-size="13" lengthAdjust="spacing" textLength="143" x="7" y="402.5283">authenticationRepository</text></g><!--link CancelEntryAgendaController to Agenda--><g id="link_CancelEntryAgendaController_Agenda"><path codeLine="71" d="M467.18,257.4 C470.03,295.92 473,336 473,336 C473,336 473,458 473,458 C473,458 455.2891,488.8176 435.6391,523.0176 " fill="none" id="CancelEntryAgendaController-to-Agenda" style="stroke:#181818;stroke-width:1.0;stroke-dasharray:7.0,7.0;"/><polygon fill="#181818" points="432.65,528.22,440.602,522.4091,435.1409,523.8846,433.6654,518.4236,432.65,528.22" style="stroke:#181818;stroke-width:1.0;"/><text fill="#000000" font-family="sans-serif" font-size="13" lengthAdjust="spacing" textLength="42" x="474" y="402.5283">agenda</text></g><!--link Repositories to Repositories--><g id="link_Repositories_Repositories"><path codeLine="72" d="M377.26,380.88 C397.58,382.75 412,388.12 412,397 C412,405.88 403.5548,410.7002 383.2348,412.5702 " fill="none" id="Repositories-to-Repositories" style="stroke:#181818;stroke-width:1.0;"/><polygon fill="#181818" points="377.26,413.12,386.5887,416.2784,382.239,412.6618,385.8556,408.3121,377.26,413.12" style="stroke:#181818;stroke-width:1.0;"/><text fill="#000000" font-family="sans-serif" font-size="13" lengthAdjust="spacing" textLength="49" x="418" y="402.5283">instance</text></g><!--link Repositories to Agenda--><g id="link_Repositories_Agenda"><path codeLine="73" d="M312.38,458.01 C327.12,480.48 340.569,500.9731 355.309,523.4431 " fill="none" id="Repositories-to-Agenda" style="stroke:#181818;stroke-width:1.0;"/><polygon fill="#181818" points="358.6,528.46,357.0081,518.7406,355.8575,524.2793,350.3189,523.1287,358.6,528.46" style="stroke:#181818;stroke-width:1.0;"/><text fill="#000000" font-family="sans-serif" font-size="13" lengthAdjust="spacing" textLength="7" x="346.6397" y="517.4366">1</text></g><!--link Repositories to AuthenticationRepository--><g id="link_Repositories_AuthenticationRepository"><path codeLine="74" d="M233.31,458.01 C211.88,490.41 189.5797,524.1154 171.8497,550.9254 " fill="none" id="Repositories-to-AuthenticationRepository" style="stroke:#181818;stroke-width:1.0;"/><polygon fill="#181818" points="168.54,555.93,176.8409,550.6295,171.298,551.7595,170.1681,546.2166,168.54,555.93" style="stroke:#181818;stroke-width:1.0;"/><text fill="#000000" font-family="sans-serif" font-size="13" lengthAdjust="spacing" textLength="7" x="165.0916" y="544.7417">1</text></g><!--link AuthenticationRepository to UserSession--><g id="link_AuthenticationRepository_UserSession"><path codeLine="75" d="M147,623.25 C147,658.25 147,707.4 147,742.36 " fill="none" id="AuthenticationRepository-to-UserSession" style="stroke:#181818;stroke-width:1.0;stroke-dasharray:7.0,7.0;"/><polygon fill="#181818" points="147,748.36,151,739.36,147,743.36,143,739.36,147,748.36" style="stroke:#181818;stroke-width:1.0;"/></g><!--link CancelEntryAgendaController to EntryMapper--><g id="link_CancelEntryAgendaController_EntryMapper"><path codeLine="76" d="M536.57,257.22 C571.01,289.42 606.368,322.4715 636.048,350.2315 " fill="none" id="CancelEntryAgendaController-to-EntryMapper" style="stroke:#181818;stroke-width:1.0;stroke-dasharray:7.0,7.0;"/><polygon fill="#181818" points="640.43,354.33,636.5893,345.2609,636.7783,350.9146,631.1246,351.1035,640.43,354.33" style="stroke:#181818;stroke-width:1.0;"/></g><!--link EntryMapper to EntryDTO--><g id="link_EntryMapper_EntryDTO"><path codeLine="77" d="M685,439.81 C685,462.92 685,486.23 685,512.71 " fill="none" id="EntryMapper-to-EntryDTO" style="stroke:#181818;stroke-width:1.0;stroke-dasharray:7.0,7.0;"/><polygon fill="#181818" points="685,518.71,689,509.71,685,513.71,681,509.71,685,518.71" style="stroke:#181818;stroke-width:1.0;"/></g><!--link Agenda to Entry--><g id="link_Agenda_Entry"><path codeLine="78" d="M398,650.51 C398,672.98 398,692.49 398,714.96 " fill="none" id="Agenda-to-Entry" style="stroke:#181818;stroke-width:1.0;"/><polygon fill="#181818" points="398,720.96,402,711.96,398,715.96,394,711.96,398,720.96" style="stroke:#181818;stroke-width:1.0;"/><text fill="#000000" font-family="sans-serif" font-size="13" lengthAdjust="spacing" textLength="5" x="392.7109" y="709.9366">*</text></g><!--link Entry to AgendaStatus--><g id="link_Entry_AgendaStatus"><path codeLine="79" d="M398,843.02 C398,862.57 398,878.27 398,897.83 " fill="none" id="Entry-to-AgendaStatus" style="stroke:#181818;stroke-width:1.0;"/><polygon fill="#181818" points="398,903.83,402,894.83,398,898.83,394,894.83,398,903.83" style="stroke:#181818;stroke-width:1.0;"/><text fill="#000000" font-family="sans-serif" font-size="13" lengthAdjust="spacing" textLength="7" x="390.5953" y="892.7915">1</text></g><!--SRC=[hLJBhfim4DtxAwoid3PSjTiiAgKahP3IvAhaVe0lJ8aLOv1jsjAe_rw_GanQaarP09vpvdZcu46Tc6Yff3LkQN6Y5UIwvu0b59gAYWDI0q4TQTdyOAB2toXNCSAP0DstWDk6ztQ1K8GMd2grqbgorqv3LZGYPxy0lqF88JYbeW2-4Lhsgmf4IL-oy-z9C6tCUyCvo3F2vdfxXq6e2ommxVGHX6O5rQmHNw5j5DEDxETUehXA4B3tJ9JmCu0LQ8imK5kczFgm9nv80j1_z7J2haaM-wpgJxAfSr3Ax6cIqD3KK80HzLqaSOXSTyw4qhOuCiVBKTh0y3r7AQk9NWrbA62AWy-3JDf9QIWl2kIrXK4W2aSvDfgLCSyPz8MsBSWBJpV6GskbiphO6iftvXyimN-7MoK319baJJLWOuxKvaJQXGyVg3fXRMv-wTt9DTMTicpp29_yQ8utU81u8DHmsOZ4uWkd6JleX4CjtobdfM559sW-Hgmp16hA-097-CtX8bFdqIJPt5ix_eyLVf-9Ra5qDHwb-asVjwlTRhFsx_lyyBo_hDBLBjrims9jmbRc7pEEdvu-t1jlT0TpkV4ucEcGyNGyofqSWENal-AnfWiQ0VT4e_AIP5pl4hCmsN_pPkzdGMi2cofmiYbRNJIn3pk9fXR54pnWPZoGp_HLlPdvk6VVTE7F3K9_0000]--></g></svg>