<?xml version="1.0" encoding="us-ascii" standalone="no"?><svg xmlns="http://www.w3.org/2000/svg" xmlns:xlink="http://www.w3.org/1999/xlink" contentStyleType="text/css" height="412px" preserveAspectRatio="none" style="width:629px;height:412px;background:#FFFFFF;" version="1.1" viewBox="0 0 629 412" width="629px" zoomAndPan="magnify"><defs/><g><rect fill="#FFFFFF" height="285.3672" style="stroke:#181818;stroke-width:1.0;" width="10" x="286" y="71.9121"/><rect fill="#FFFFFF" height="130.873" style="stroke:#181818;stroke-width:1.0;" width="10" x="291" y="181.1152"/><rect fill="#FFFFFF" height="42.291" style="stroke:#181818;stroke-width:1.0;" width="10" x="296" y="225.4063"/><rect fill="none" height="240.0762" style="stroke:#000000;stroke-width:1.5;" width="411.5" x="211.5" y="86.9121"/><line style="stroke:#181818;stroke-width:0.5;stroke-dasharray:5.0,5.0;" x1="290.5" x2="290.5" y1="38.6211" y2="375.2793"/><line style="stroke:#181818;stroke-width:0.5;stroke-dasharray:5.0,5.0;" x1="579" x2="579" y1="138.0137" y2="375.2793"/><rect fill="#E3E3E3" height="32.6211" rx="2.5" ry="2.5" style="stroke:#181818;stroke-width:0.5;" width="139" x="221.5" y="5"/><text fill="#000000" font-family="sans-serif" font-size="14" lengthAdjust="spacing" textLength="125" x="228.5" y="27.1074">CheckUpRepository</text><rect fill="#E3E3E3" height="32.6211" rx="2.5" ry="2.5" style="stroke:#181818;stroke-width:0.5;" width="139" x="221.5" y="374.2793"/><text fill="#000000" font-family="sans-serif" font-size="14" lengthAdjust="spacing" textLength="125" x="228.5" y="396.3867">CheckUpRepository</text><rect fill="#E3E3E3" height="32.6211" rx="2.5" ry="2.5" style="stroke:#181818;stroke-width:0.5;" width="68" x="545" y="374.2793"/><text fill="#000000" font-family="sans-serif" font-size="14" lengthAdjust="spacing" textLength="54" x="552" y="396.3867">checkUp</text><rect fill="#FFFFFF" height="285.3672" style="stroke:#181818;stroke-width:1.0;" width="10" x="286" y="71.9121"/><rect fill="#FFFFFF" height="130.873" style="stroke:#181818;stroke-width:1.0;" width="10" x="291" y="181.1152"/><rect fill="#FFFFFF" height="42.291" style="stroke:#181818;stroke-width:1.0;" width="10" x="296" y="225.4063"/><polygon fill="#181818" points="274,67.9121,284,71.9121,274,75.9121,278,71.9121" style="stroke:#181818;stroke-width:1.0;"/><line style="stroke:#181818;stroke-width:1.0;" x1="0" x2="280" y1="71.9121" y2="71.9121"/><text fill="#000000" font-family="sans-serif" font-size="13" font-weight="bold" lengthAdjust="spacing" textLength="14" x="7" y="66.6494">12</text><text fill="#000000" font-family="sans-serif" font-size="13" lengthAdjust="spacing" textLength="249" x="25" y="66.6494">registerCheckUp(plate number, KMS, date)</text><path d="M211.5,86.9121 L371.5,86.9121 L371.5,96.2031 L361.5,106.2031 L211.5,106.2031 L211.5,86.9121 " fill="#EEEEEE" style="stroke:#000000;stroke-width:1.5;"/><rect fill="none" height="240.0762" style="stroke:#000000;stroke-width:1.5;" width="411.5" x="211.5" y="86.9121"/><text fill="#000000" font-family="sans-serif" font-size="13" font-weight="bold" lengthAdjust="spacing" textLength="115" x="226.5" y="101.9404">Register Check-up</text><polygon fill="#181818" points="533,125.4941,543,129.4941,533,133.4941,537,129.4941" style="stroke:#181818;stroke-width:1.0;"/><line style="stroke:#181818;stroke-width:1.0;" x1="296" x2="539" y1="129.4941" y2="129.4941"/><text fill="#000000" font-family="sans-serif" font-size="13" font-weight="bold" lengthAdjust="spacing" textLength="25" x="303" y="124.2314">12.1</text><text fill="#000000" font-family="sans-serif" font-size="13" lengthAdjust="spacing" textLength="196" x="332" y="124.2314">register(plate number, KMS, date)</text><rect fill="#E3E3E3" height="32.6211" rx="2.5" ry="2.5" style="stroke:#181818;stroke-width:0.5;" width="68" x="545" y="106.2031"/><text fill="#000000" font-family="sans-serif" font-size="14" lengthAdjust="spacing" textLength="54" x="552" y="128.3105">checkUp</text><line style="stroke:#181818;stroke-width:1.0;" x1="296" x2="343" y1="168.1152" y2="168.1152"/><line style="stroke:#181818;stroke-width:1.0;" x1="343" x2="343" y1="168.1152" y2="181.1152"/><line style="stroke:#181818;stroke-width:1.0;" x1="302" x2="343" y1="181.1152" y2="181.1152"/><polygon fill="#181818" points="312,177.1152,302,181.1152,312,185.1152,308,181.1152" style="stroke:#181818;stroke-width:1.0;"/><text fill="#000000" font-family="sans-serif" font-size="13" font-weight="bold" lengthAdjust="spacing" textLength="25" x="308" y="162.8525">12.2</text><text fill="#000000" font-family="sans-serif" font-size="13" lengthAdjust="spacing" textLength="135" x="337" y="162.8525">addCheckUp (checkup)</text><line style="stroke:#181818;stroke-width:1.0;" x1="301" x2="348" y1="212.4063" y2="212.4063"/><line style="stroke:#181818;stroke-width:1.0;" x1="348" x2="348" y1="212.4063" y2="225.4063"/><line style="stroke:#181818;stroke-width:1.0;" x1="307" x2="348" y1="225.4063" y2="225.4063"/><polygon fill="#181818" points="317,221.4063,307,225.4063,317,229.4063,313,225.4063" style="stroke:#181818;stroke-width:1.0;"/><text fill="#000000" font-family="sans-serif" font-size="13" font-weight="bold" lengthAdjust="spacing" textLength="25" x="313" y="207.1436">12.3</text><text fill="#000000" font-family="sans-serif" font-size="13" lengthAdjust="spacing" textLength="153" x="342" y="207.1436">validateCheckUp(checkup)</text><line style="stroke:#181818;stroke-width:1.0;stroke-dasharray:2.0,2.0;" x1="306" x2="348" y1="266.6973" y2="266.6973"/><line style="stroke:#181818;stroke-width:1.0;stroke-dasharray:2.0,2.0;" x1="348" x2="348" y1="266.6973" y2="279.6973"/><line style="stroke:#181818;stroke-width:1.0;stroke-dasharray:2.0,2.0;" x1="301" x2="348" y1="279.6973" y2="279.6973"/><polygon fill="#181818" points="311,275.6973,301,279.6973,311,283.6973,307,279.6973" style="stroke:#181818;stroke-width:1.0;"/><text fill="#000000" font-family="sans-serif" font-size="13" font-weight="bold" lengthAdjust="spacing" textLength="25" x="313" y="261.4346">12.4</text><text fill="#000000" font-family="sans-serif" font-size="13" lengthAdjust="spacing" textLength="4" x="342" y="261.4346">&#160;</text><line style="stroke:#181818;stroke-width:1.0;stroke-dasharray:2.0,2.0;" x1="301" x2="343" y1="310.9883" y2="310.9883"/><line style="stroke:#181818;stroke-width:1.0;stroke-dasharray:2.0,2.0;" x1="343" x2="343" y1="310.9883" y2="323.9883"/><line style="stroke:#181818;stroke-width:1.0;stroke-dasharray:2.0,2.0;" x1="296" x2="343" y1="323.9883" y2="323.9883"/><polygon fill="#181818" points="306,319.9883,296,323.9883,306,327.9883,302,323.9883" style="stroke:#181818;stroke-width:1.0;"/><text fill="#000000" font-family="sans-serif" font-size="13" font-weight="bold" lengthAdjust="spacing" textLength="25" x="308" y="305.7256">12.5</text><text fill="#000000" font-family="sans-serif" font-size="13" lengthAdjust="spacing" textLength="4" x="337" y="305.7256">&#160;</text><polygon fill="#181818" points="11,353.2793,1,357.2793,11,361.2793,7,357.2793" style="stroke:#181818;stroke-width:1.0;"/><line style="stroke:#181818;stroke-width:1.0;stroke-dasharray:2.0,2.0;" x1="5" x2="290" y1="357.2793" y2="357.2793"/><text fill="#000000" font-family="sans-serif" font-size="13" font-weight="bold" lengthAdjust="spacing" textLength="14" x="17" y="352.0166">14</text><text fill="#000000" font-family="sans-serif" font-size="13" lengthAdjust="spacing" textLength="53" x="35" y="352.0166">check-up</text><!--SRC=[ZP7BQiD034NtynKYgoJ4XPIkGkd610gXK6Bo0UgCQW-sPuPvfEJlw_UZTKErbAwEhYINIsNGOWcbLffdLfS4tWPYRgWOv3ccbFXRGM29UrHfCHMu38N-aYg5JomSCLQblUJIeFAmYZFY-SMSoMWdlRQt5Q23-FKOdoxloLpBM-rKmHW6hrKeFyZ2_f55BqFleNAJIkV9TZFMfa1Fq8ftS7fBTY2gpEO7v67Fa7jvhSM34QWYjJeOE7TKQB1HCAmfrj6hORIntOu-_ZPm1r3jWK9qAy2wkK4mct7eijVxn2iMifxSNsQWJbllW-Vm2Nsc4lIRmlwFM6glywH4Yva-xgd9F4VH23q0xv-qwEGR]--></g></svg>