<?xml version="1.0" encoding="us-ascii" standalone="no"?><svg xmlns="http://www.w3.org/2000/svg" xmlns:xlink="http://www.w3.org/1999/xlink" contentStyleType="text/css" height="807.1px" preserveAspectRatio="none" style="width:970px;height:807px;background:#FFFFFF;" version="1.1" viewBox="0 0 970 807" width="970.2px" zoomAndPan="magnify"><defs/><g><rect fill="#FFFFFF" height="671.4326" style="stroke:#181818;stroke-width:0.6999999999999998;" width="7" x="34.3" y="65.5348"/><rect fill="#FFFFFF" height="126.8422" style="stroke:#181818;stroke-width:0.6999999999999998;" width="7" x="231" y="81.8385"/><rect fill="#FFFFFF" height="39.4037" style="stroke:#181818;stroke-width:0.6999999999999998;" width="7" x="231" y="248.0844"/><rect fill="#FFFFFF" height="410.0756" style="stroke:#181818;stroke-width:0.6999999999999998;" width="7" x="231" y="326.8918"/><rect fill="#FFFFFF" height="175.1148" style="stroke:#181818;stroke-width:0.6999999999999998;" width="7" x="432.6" y="326.8918"/><rect fill="#FFFFFF" height="50.1074" style="stroke:#181818;stroke-width:0.6999999999999998;" width="7" x="432.6" y="693.16"/><rect fill="#FFFFFF" height="39.4037" style="stroke:#181818;stroke-width:0.6999999999999998;" width="7" x="536.55" y="366.2955"/><rect fill="#FFFFFF" height="56.9037" style="stroke:#181818;stroke-width:0.6999999999999998;" width="7" x="611.45" y="445.1029"/><rect fill="#FFFFFF" height="151.7496" style="stroke:#181818;stroke-width:0.6999999999999998;" width="7" x="912.1" y="541.4104"/><rect fill="#FFFFFF" height="105.3459" style="stroke:#181818;stroke-width:0.6999999999999998;" width="7" x="915.6" y="587.8141"/><line style="stroke:#181818;stroke-width:0.3499999999999999;stroke-dasharray:5.0,5.0;" x1="37.8" x2="37.8" y1="58.5348" y2="749.5674"/><line style="stroke:#181818;stroke-width:0.3499999999999999;stroke-dasharray:5.0,5.0;" x1="234.5" x2="234.5" y1="58.5348" y2="749.5674"/><line style="stroke:#181818;stroke-width:0.3499999999999999;stroke-dasharray:5.0,5.0;" x1="436.1" x2="436.1" y1="127.2059" y2="749.5674"/><line style="stroke:#181818;stroke-width:0.3499999999999999;stroke-dasharray:5.0,5.0;" x1="539.7" x2="539.7" y1="58.5348" y2="749.5674"/><line style="stroke:#181818;stroke-width:0.3499999999999999;stroke-dasharray:5.0,5.0;" x1="614.6" x2="614.6" y1="58.5348" y2="749.5674"/><line style="stroke:#181818;stroke-width:0.3499999999999999;stroke-dasharray:5.0,5.0;" x1="681.8" x2="681.8" y1="593.2951" y2="749.5674"/><line style="stroke:#181818;stroke-width:0.3499999999999999;stroke-dasharray:5.0,5.0;" x1="915.25" x2="915.25" y1="58.5348" y2="749.5674"/><text fill="#000000" font-family="sans-serif" font-size="9.8" lengthAdjust="spacing" textLength="64.4" x="3.5" y="56.0752">Fleet Manager</text><ellipse cx="37.8" cy="9.45" fill="#E3E3E3" rx="5.6" ry="5.6" style="stroke:#181818;stroke-width:0.3499999999999999;"/><path d="M37.8,15.05 L37.8,33.95 M28.7,20.65 L46.9,20.65 M37.8,33.95 L28.7,44.45 M37.8,33.95 L46.9,44.45 " fill="none" style="stroke:#181818;stroke-width:0.3499999999999999;"/><text fill="#000000" font-family="sans-serif" font-size="9.8" lengthAdjust="spacing" textLength="64.4" x="3.5" y="759.4426">Fleet Manager</text><ellipse cx="37.8" cy="767.8521" fill="#E3E3E3" rx="5.6" ry="5.6" style="stroke:#181818;stroke-width:0.3499999999999999;"/><path d="M37.8,773.4521 L37.8,792.3521 M28.7,779.0521 L46.9,779.0521 M37.8,792.3521 L28.7,802.8521 M37.8,792.3521 L46.9,802.8521 " fill="none" style="stroke:#181818;stroke-width:0.3499999999999999;"/><rect fill="#E3E3E3" height="22.8348" rx="1.75" ry="1.75" style="stroke:#181818;stroke-width:0.3499999999999999;" width="91" x="189" y="35"/><text fill="#000000" font-family="sans-serif" font-size="9.8" lengthAdjust="spacing" textLength="81.2" x="193.9" y="50.4752">:CreateCheckUpUI</text><rect fill="#E3E3E3" height="22.8348" rx="1.75" ry="1.75" style="stroke:#181818;stroke-width:0.3499999999999999;" width="91" x="189" y="748.8674"/><text fill="#000000" font-family="sans-serif" font-size="9.8" lengthAdjust="spacing" textLength="81.2" x="193.9" y="764.3426">:CreateCheckUpUI</text><rect fill="#E3E3E3" height="22.8348" rx="1.75" ry="1.75" style="stroke:#181818;stroke-width:0.3499999999999999;" width="126" x="373.1" y="748.8674"/><text fill="#000000" font-family="sans-serif" font-size="9.8" lengthAdjust="spacing" textLength="116.2" x="378" y="764.3426">:CreateCheckUpController</text><rect fill="#E3E3E3" height="22.8348" rx="1.75" ry="1.75" style="stroke:#181818;stroke-width:0.3499999999999999;" width="67.9" x="506.1" y="35"/><text fill="#000000" font-family="sans-serif" font-size="9.8" lengthAdjust="spacing" textLength="58.1" x="511" y="50.4752">:Repositories</text><rect fill="#E3E3E3" height="22.8348" rx="1.75" ry="1.75" style="stroke:#181818;stroke-width:0.3499999999999999;" width="67.9" x="506.1" y="748.8674"/><text fill="#000000" font-family="sans-serif" font-size="9.8" lengthAdjust="spacing" textLength="58.1" x="511" y="764.3426">:Repositories</text><rect fill="#E3E3E3" height="35.8695" rx="1.75" ry="1.75" style="stroke:#181818;stroke-width:0.3499999999999999;" width="67.9" x="581" y="21.9652"/><text fill="#000000" font-family="sans-serif" font-size="9.8" lengthAdjust="spacing" textLength="51.8" x="589.05" y="37.4404">repositories</text><text fill="#000000" font-family="sans-serif" font-size="9.8" lengthAdjust="spacing" textLength="58.1" x="585.9" y="50.4752">:Repositories</text><rect fill="#E3E3E3" height="35.8695" rx="1.75" ry="1.75" style="stroke:#181818;stroke-width:0.3499999999999999;" width="67.9" x="581" y="748.8674"/><text fill="#000000" font-family="sans-serif" font-size="9.8" lengthAdjust="spacing" textLength="51.8" x="589.05" y="764.3426">repositories</text><text fill="#000000" font-family="sans-serif" font-size="9.8" lengthAdjust="spacing" textLength="58.1" x="585.9" y="777.3773">:Repositories</text><rect fill="#E3E3E3" height="35.8695" rx="1.75" ry="1.75" style="stroke:#181818;stroke-width:0.3499999999999999;" width="52.5" x="655.9" y="748.8674"/><text fill="#000000" font-family="sans-serif" font-size="9.8" lengthAdjust="spacing" textLength="37.1" x="663.6" y="764.3426">checkup</text><text fill="#000000" font-family="sans-serif" font-size="9.8" lengthAdjust="spacing" textLength="42.7" x="660.8" y="777.3773">:CheckUp</text><rect fill="#E3E3E3" height="22.8348" rx="1.75" ry="1.75" style="stroke:#181818;stroke-width:0.3499999999999999;" width="97.3" x="866.95" y="35"/><text fill="#000000" font-family="sans-serif" font-size="9.8" lengthAdjust="spacing" textLength="87.5" x="871.85" y="50.4752">CheckUpRepository</text><rect fill="#E3E3E3" height="22.8348" rx="1.75" ry="1.75" style="stroke:#181818;stroke-width:0.3499999999999999;" width="97.3" x="866.95" y="748.8674"/><text fill="#000000" font-family="sans-serif" font-size="9.8" lengthAdjust="spacing" textLength="87.5" x="871.85" y="764.3426">CheckUpRepository</text><rect fill="#FFFFFF" height="671.4326" style="stroke:#181818;stroke-width:0.6999999999999998;" width="7" x="34.3" y="65.5348"/><rect fill="#FFFFFF" height="126.8422" style="stroke:#181818;stroke-width:0.6999999999999998;" width="7" x="231" y="81.8385"/><rect fill="#FFFFFF" height="39.4037" style="stroke:#181818;stroke-width:0.6999999999999998;" width="7" x="231" y="248.0844"/><rect fill="#FFFFFF" height="410.0756" style="stroke:#181818;stroke-width:0.6999999999999998;" width="7" x="231" y="326.8918"/><rect fill="#FFFFFF" height="175.1148" style="stroke:#181818;stroke-width:0.6999999999999998;" width="7" x="432.6" y="326.8918"/><rect fill="#FFFFFF" height="50.1074" style="stroke:#181818;stroke-width:0.6999999999999998;" width="7" x="432.6" y="693.16"/><rect fill="#FFFFFF" height="39.4037" style="stroke:#181818;stroke-width:0.6999999999999998;" width="7" x="536.55" y="366.2955"/><rect fill="#FFFFFF" height="56.9037" style="stroke:#181818;stroke-width:0.6999999999999998;" width="7" x="611.45" y="445.1029"/><rect fill="#FFFFFF" height="151.7496" style="stroke:#181818;stroke-width:0.6999999999999998;" width="7" x="912.1" y="541.4104"/><rect fill="#FFFFFF" height="105.3459" style="stroke:#181818;stroke-width:0.6999999999999998;" width="7" x="915.6" y="587.8141"/><polygon fill="#181818" points="222.6,79.0385,229.6,81.8385,222.6,84.6385,225.4,81.8385" style="stroke:#181818;stroke-width:0.6999999999999998;"/><line style="stroke:#181818;stroke-width:0.6999999999999998;" x1="41.3" x2="226.8" y1="81.8385" y2="81.8385"/><text fill="#000000" font-family="sans-serif" font-size="9.1" font-weight="bold" lengthAdjust="spacing" textLength="4.9" x="46.2" y="78.1546">1</text><text fill="#000000" font-family="sans-serif" font-size="9.1" lengthAdjust="spacing" textLength="124.6" x="53.9" y="78.1546">asks to create a new check-up</text><polygon fill="#181818" points="364.7,118.4422,371.7,121.2422,364.7,124.0422,367.5,121.2422" style="stroke:#181818;stroke-width:0.6999999999999998;"/><line style="stroke:#181818;stroke-width:0.6999999999999998;" x1="238" x2="368.9" y1="121.2422" y2="121.2422"/><text fill="#000000" font-family="sans-serif" font-size="9.1" font-weight="bold" lengthAdjust="spacing" textLength="4.9" x="242.9" y="117.5583">2</text><text fill="#000000" font-family="sans-serif" font-size="9.1" lengthAdjust="spacing" textLength="25.2" x="250.6" y="117.5583">create</text><rect fill="#E3E3E3" height="22.8348" rx="1.75" ry="1.75" style="stroke:#181818;stroke-width:0.3499999999999999;" width="126" x="373.1" y="104.9385"/><text fill="#000000" font-family="sans-serif" font-size="9.8" lengthAdjust="spacing" textLength="116.2" x="378" y="120.4137">:CreateCheckUpController</text><polygon fill="#181818" points="49,166.477,42,169.277,49,172.077,46.2,169.277" style="stroke:#181818;stroke-width:0.6999999999999998;"/><line style="stroke:#181818;stroke-width:0.6999999999999998;stroke-dasharray:2.0,2.0;" x1="44.8" x2="230.3" y1="169.277" y2="169.277"/><text fill="#000000" font-family="sans-serif" font-size="9.1" font-weight="bold" lengthAdjust="spacing" textLength="4.9" x="53.2" y="165.5931">3</text><text fill="#000000" font-family="sans-serif" font-size="9.1" lengthAdjust="spacing" textLength="165.2" x="60.9" y="165.5931">requests data (plate number, KMS, date)</text><polygon fill="#181818" points="226.1,205.8807,233.1,208.6807,226.1,211.4807,228.9,208.6807" style="stroke:#181818;stroke-width:0.6999999999999998;"/><line style="stroke:#181818;stroke-width:0.6999999999999998;" x1="41.3" x2="230.3" y1="208.6807" y2="208.6807"/><text fill="#000000" font-family="sans-serif" font-size="9.1" font-weight="bold" lengthAdjust="spacing" textLength="4.9" x="46.2" y="204.9968">4</text><text fill="#000000" font-family="sans-serif" font-size="9.1" lengthAdjust="spacing" textLength="85.4" x="53.9" y="204.9968">types requested data</text><polygon fill="#181818" points="49,245.2844,42,248.0844,49,250.8844,46.2,248.0844" style="stroke:#181818;stroke-width:0.6999999999999998;"/><line style="stroke:#181818;stroke-width:0.6999999999999998;stroke-dasharray:2.0,2.0;" x1="44.8" x2="230.3" y1="248.0844" y2="248.0844"/><text fill="#000000" font-family="sans-serif" font-size="9.1" font-weight="bold" lengthAdjust="spacing" textLength="4.9" x="53.2" y="244.4005">5</text><text fill="#000000" font-family="sans-serif" font-size="9.1" lengthAdjust="spacing" textLength="165.2" x="60.9" y="244.4005">shows all data and requests confirmation</text><polygon fill="#181818" points="226.1,284.6881,233.1,287.4881,226.1,290.2881,228.9,287.4881" style="stroke:#181818;stroke-width:0.6999999999999998;"/><line style="stroke:#181818;stroke-width:0.6999999999999998;" x1="41.3" x2="230.3" y1="287.4881" y2="287.4881"/><text fill="#000000" font-family="sans-serif" font-size="9.1" font-weight="bold" lengthAdjust="spacing" textLength="4.9" x="46.2" y="283.8042">6</text><text fill="#000000" font-family="sans-serif" font-size="9.1" lengthAdjust="spacing" textLength="52.5" x="53.9" y="283.8042">submits data</text><polygon fill="#181818" points="424.2,324.0918,431.2,326.8918,424.2,329.6918,427,326.8918" style="stroke:#181818;stroke-width:0.6999999999999998;"/><line style="stroke:#181818;stroke-width:0.6999999999999998;" x1="238" x2="428.4" y1="326.8918" y2="326.8918"/><text fill="#000000" font-family="sans-serif" font-size="9.1" font-weight="bold" lengthAdjust="spacing" textLength="4.9" x="242.9" y="323.2079">7</text><text fill="#000000" font-family="sans-serif" font-size="9.1" lengthAdjust="spacing" textLength="177.1" x="250.6" y="323.2079">registerCheckUp(plate number, KMS , date)</text><polygon fill="#181818" points="528.15,363.4955,535.15,366.2955,528.15,369.0955,530.95,366.2955" style="stroke:#181818;stroke-width:0.6999999999999998;"/><line style="stroke:#181818;stroke-width:0.6999999999999998;" x1="439.6" x2="532.35" y1="366.2955" y2="366.2955"/><text fill="#000000" font-family="sans-serif" font-size="9.1" font-weight="bold" lengthAdjust="spacing" textLength="4.9" x="444.5" y="362.6116">8</text><text fill="#000000" font-family="sans-serif" font-size="9.1" lengthAdjust="spacing" textLength="52.5" x="452.2" y="362.6116">getInstance()</text><polygon fill="#181818" points="447.3,402.8992,440.3,405.6992,447.3,408.4992,444.5,405.6992" style="stroke:#181818;stroke-width:0.6999999999999998;"/><line style="stroke:#181818;stroke-width:0.6999999999999998;stroke-dasharray:2.0,2.0;" x1="443.1" x2="539.35" y1="405.6992" y2="405.6992"/><text fill="#000000" font-family="sans-serif" font-size="9.1" font-weight="bold" lengthAdjust="spacing" textLength="4.9" x="451.5" y="402.0153">9</text><text fill="#000000" font-family="sans-serif" font-size="9.1" lengthAdjust="spacing" textLength="46.9" x="459.2" y="402.0153">repositories</text><polygon fill="#181818" points="603.05,442.3029,610.05,445.1029,603.05,447.9029,605.85,445.1029" style="stroke:#181818;stroke-width:0.6999999999999998;"/><line style="stroke:#181818;stroke-width:0.6999999999999998;" x1="439.6" x2="607.25" y1="445.1029" y2="445.1029"/><text fill="#000000" font-family="sans-serif" font-size="9.1" font-weight="bold" lengthAdjust="spacing" textLength="9.8" x="444.5" y="441.419">10</text><text fill="#000000" font-family="sans-serif" font-size="9.1" lengthAdjust="spacing" textLength="97.3" x="457.1" y="441.419">getcheckUpRepository()</text><polygon fill="#181818" points="443.8,499.2066,436.8,502.0066,443.8,504.8066,441,502.0066" style="stroke:#181818;stroke-width:0.6999999999999998;"/><line style="stroke:#181818;stroke-width:0.6999999999999998;stroke-dasharray:2.0,2.0;" x1="439.6" x2="614.25" y1="502.0066" y2="502.0066"/><text fill="#000000" font-family="sans-serif" font-size="9.1" font-weight="bold" lengthAdjust="spacing" textLength="9.8" x="448" y="498.3228">11</text><text fill="#000000" font-family="sans-serif" font-size="9.1" lengthAdjust="spacing" textLength="79.1" x="460.6" y="498.3228">checkUpRepository</text><polygon fill="#181818" points="903.7,538.6104,910.7,541.4104,903.7,544.2104,906.5,541.4104" style="stroke:#181818;stroke-width:0.6999999999999998;"/><line style="stroke:#181818;stroke-width:0.6999999999999998;" x1="436.1" x2="907.9" y1="541.4104" y2="541.4104"/><text fill="#000000" font-family="sans-serif" font-size="9.1" font-weight="bold" lengthAdjust="spacing" textLength="9.8" x="441" y="537.7265">12</text><text fill="#000000" font-family="sans-serif" font-size="9.1" lengthAdjust="spacing" textLength="174.3" x="453.6" y="537.7265">registerCheckUp(plate number, KMS, date)</text><polygon fill="#181818" points="716.1,578.0141,709.1,580.8141,716.1,583.6141,713.3,580.8141" style="stroke:#181818;stroke-width:0.6999999999999998;"/><line style="stroke:#181818;stroke-width:0.6999999999999998;" x1="711.9" x2="911.4" y1="580.8141" y2="580.8141"/><text fill="#000000" font-family="sans-serif" font-size="9.1" font-weight="bold" lengthAdjust="spacing" textLength="9.8" x="720.3" y="577.1302">13</text><text fill="#000000" font-family="sans-serif" font-size="9.1" lengthAdjust="spacing" textLength="174.3" x="732.9" y="577.1302">registerCheckUp(plate number, KMS, date)</text><rect fill="#E3E3E3" height="35.8695" rx="1.75" ry="1.75" style="stroke:#181818;stroke-width:0.3499999999999999;" width="52.5" x="655.9" y="564.5104"/><text fill="#000000" font-family="sans-serif" font-size="9.8" lengthAdjust="spacing" textLength="37.1" x="663.6" y="579.9855">checkup</text><text fill="#000000" font-family="sans-serif" font-size="9.8" lengthAdjust="spacing" textLength="42.7" x="660.8" y="593.0203">:CheckUp</text><rect fill="none" height="30.2764" style="stroke:#000000;stroke-width:1.0499999999999998;" width="101.5" x="864.85" y="625.5799"/><path d="M864.85,625.5799 L908.25,625.5799 L908.25,631.8799 L901.25,638.8799 L864.85,638.8799 L864.85,625.5799 " fill="#EEEEEE" style="stroke:#000000;stroke-width:1.3999999999999997;"/><text fill="#000000" font-family="sans-serif" font-size="9.1" font-weight="bold" lengthAdjust="spacing" textLength="11.9" x="873.95" y="636.7997">ref</text><text fill="#000000" font-family="sans-serif" font-size="8.4" lengthAdjust="spacing" textLength="73.5" x="878.85" y="650.7443">Register Check-Up</text><polygon fill="#181818" points="447.3,690.36,440.3,693.16,447.3,695.96,444.5,693.16" style="stroke:#181818;stroke-width:0.6999999999999998;"/><line style="stroke:#181818;stroke-width:0.6999999999999998;stroke-dasharray:2.0,2.0;" x1="443.1" x2="911.4" y1="693.16" y2="693.16"/><text fill="#000000" font-family="sans-serif" font-size="9.1" font-weight="bold" lengthAdjust="spacing" textLength="9.8" x="451.5" y="689.4761">14</text><text fill="#000000" font-family="sans-serif" font-size="9.1" lengthAdjust="spacing" textLength="37.1" x="464.1" y="689.4761">check-up</text><polygon fill="#181818" points="245.7,712.2637,238.7,715.0637,245.7,717.8637,242.9,715.0637" style="stroke:#181818;stroke-width:0.6999999999999998;"/><line style="stroke:#181818;stroke-width:0.6999999999999998;" x1="241.5" x2="431.9" y1="715.0637" y2="715.0637"/><text fill="#000000" font-family="sans-serif" font-size="9.1" font-weight="bold" lengthAdjust="spacing" textLength="9.8" x="249.9" y="711.3798">15</text><text fill="#000000" font-family="sans-serif" font-size="9.1" lengthAdjust="spacing" textLength="37.1" x="262.5" y="711.3798">check-up</text><polygon fill="#181818" points="45.5,734.1674,38.5,736.9674,45.5,739.7674,42.7,736.9674" style="stroke:#181818;stroke-width:0.6999999999999998;"/><line style="stroke:#181818;stroke-width:0.6999999999999998;stroke-dasharray:2.0,2.0;" x1="41.3" x2="233.8" y1="736.9674" y2="736.9674"/><text fill="#000000" font-family="sans-serif" font-size="9.1" font-weight="bold" lengthAdjust="spacing" textLength="9.8" x="49.7" y="733.2835">16</text><text fill="#000000" font-family="sans-serif" font-size="9.1" lengthAdjust="spacing" textLength="110.6" x="62.3" y="733.2835">displays operation success</text><!--SRC=[dLNBhjem4DtxAqPiBg3B3x3e1brKT8jKaRBhnZW3M0GxjPrBaVZuZfqGd0SFDJkIC-Sn7W_s85NE3J_2KIijzaOV4PmfaDdwIyx5WUymSUSCmQ1mNEso663tFDKdgNQmvPb5ndZXj2gE6pIClUrbYh3LsctqNyQ5qmO6ympHmP8huZK3u1RcIqPaJWgPS-LWC9qPv0vdUnI7TRvU1D1wyGWqqyePdMKLu-pNwaSBli9SMqaE9Dg0MNtyR49CXFYjUWkIPeNmuaLEuCf6AVxzO_QvRf5NW9hq74CJvfiZloYFRmQ3wfalOVADaiEKm0SBJeC8gO63mXC4_KcHrmN-kLmkDuQQbjhNG5KyeL7nUn8ZIVzwF2RP4dQV_rf2DMHsIYFofq3hBAJSSHZccHSfn-4TFfV9k_-0eouXQ-LrvnpjbGxJm7VVHeftWyRkx5wVBF0iA-rnbTuC2wssqXovarezpXjBjLpROdEKLVf6JTFWqtQM9n3wkPEKtrJZqsqez7MqrkeSxyik_1Cya1SQVBAoGxTGbXQ0mE6eWws9_RLwokmVppgfalgWjzlMWKVTgs_CKusegEsf5Iufquds5HsEdgl46idBmPCeUKVsIH9Q5c_tPYkSDxjlunhwsiLN9gmzODsZwEWr-doLkicEn_yXso_ziE46jw2_qFJ3OLLPWE1XicwkKGpBOSiUIzpIDSypNigFfhTrSdq36XPBxwQlLziKKccfWsSBEaSJTXZj8Y7GbfUfjH-Zd_Htymy0]--></g></svg>