<?xml version="1.0" encoding="us-ascii" standalone="no"?><svg xmlns="http://www.w3.org/2000/svg" xmlns:xlink="http://www.w3.org/1999/xlink" contentStyleType="text/css" height="616px" preserveAspectRatio="none" style="width:455px;height:615px;background:#FFFFFF;" version="1.1" viewBox="0 0 455 615" width="455.7px" zoomAndPan="magnify"><defs/><g><!--class CheckUpRepository--><g id="elem_CheckUpRepository"><rect codeLine="7" fill="#F1F1F1" height="72.7043" id="CheckUpRepository" rx="1.75" ry="1.75" style="stroke:#181818;stroke-width:0.3499999999999999;" width="198.8" x="4.9" y="335.3"/><ellipse cx="57.575" cy="346.5" fill="#ADD1B2" rx="7.7" ry="7.7" style="stroke:#181818;stroke-width:0.6999999999999998;"/><path d="M59.5109,343.6125 Q59.6203,343.4594 59.7516,343.3828 Q59.8828,343.3062 60.0359,343.3062 Q60.2984,343.3062 60.4625,343.4922 Q60.6266,343.6672 60.6266,344.0937 L60.6266,345.1109 Q60.6266,345.5375 60.4625,345.7234 Q60.2984,345.9094 60.0359,345.9094 Q59.7953,345.9094 59.6531,345.7672 Q59.5109,345.6359 59.4344,345.275 Q59.4016,345.0234 59.2703,344.8922 Q59.0406,344.6297 58.6141,344.4766 Q58.1875,344.3234 57.75,344.3234 Q57.2141,344.3234 56.7656,344.5531 Q56.3281,344.7828 55.9781,345.3078 Q55.6391,345.8328 55.6391,346.5547 L55.6391,347.3203 Q55.6391,348.1844 56.2625,348.7641 Q56.8859,349.3328 58.0016,349.3328 Q58.6578,349.3328 59.1172,349.1578 Q59.3906,349.0484 59.6859,348.7422 Q59.8719,348.5562 59.9703,348.5016 Q60.0797,348.4469 60.2219,348.4469 Q60.4516,348.4469 60.6266,348.6328 Q60.8125,348.8078 60.8125,349.0484 Q60.8125,349.2891 60.5719,349.5734 Q60.2219,349.9781 59.6641,350.2078 Q58.9094,350.525 58.0016,350.525 Q56.9406,350.525 56.0984,350.0875 Q55.4094,349.7375 54.9281,348.9937 Q54.4469,348.2391 54.4469,347.3422 L54.4469,346.5328 Q54.4469,345.6031 54.8734,344.8047 Q55.3109,343.9953 56.0766,343.5687 Q56.8422,343.1312 57.7062,343.1312 Q58.2203,343.1312 58.6687,343.2516 Q59.1281,343.3609 59.5109,343.6125 Z " fill="#000000"/><text fill="#000000" font-family="sans-serif" font-size="9.8" lengthAdjust="spacing" textLength="87.5" x="71.925" y="350.5578">CheckUpRepository</text><line style="stroke:#181818;stroke-width:0.3499999999999999;" x1="5.6" x2="203" y1="357.7" y2="357.7"/><line style="stroke:#181818;stroke-width:0.3499999999999999;" x1="5.6" x2="203" y1="363.3" y2="363.3"/><text fill="#000000" font-family="sans-serif" font-size="9.8" lengthAdjust="spacing" textLength="105" x="9.1" y="376.6752">-addCheckUp(checkUp)</text><text fill="#000000" font-family="sans-serif" font-size="9.8" lengthAdjust="spacing" textLength="122.5" x="9.1" y="389.71">-validateCheckUp(checkUp)</text><text fill="#000000" font-family="sans-serif" font-size="9.8" lengthAdjust="spacing" textLength="190.4" x="9.1" y="402.7447">+registerCheckUp(plateNumber, kms, date)</text></g><!--class VehicleRepository--><g id="elem_VehicleRepository"><rect codeLine="13" fill="#F1F1F1" height="46.6348" id="VehicleRepository" rx="1.75" ry="1.75" style="stroke:#181818;stroke-width:0.3499999999999999;" width="222.6" x="228.2" y="348.25"/><ellipse cx="296.625" cy="359.45" fill="#ADD1B2" rx="7.7" ry="7.7" style="stroke:#181818;stroke-width:0.6999999999999998;"/><path d="M298.5609,356.5625 Q298.6703,356.4094 298.8016,356.3328 Q298.9328,356.2562 299.0859,356.2562 Q299.3484,356.2562 299.5125,356.4422 Q299.6766,356.6172 299.6766,357.0437 L299.6766,358.0609 Q299.6766,358.4875 299.5125,358.6734 Q299.3484,358.8594 299.0859,358.8594 Q298.8453,358.8594 298.7031,358.7172 Q298.5609,358.5859 298.4844,358.225 Q298.4516,357.9734 298.3203,357.8422 Q298.0906,357.5797 297.6641,357.4266 Q297.2375,357.2734 296.8,357.2734 Q296.2641,357.2734 295.8156,357.5031 Q295.3781,357.7328 295.0281,358.2578 Q294.6891,358.7828 294.6891,359.5047 L294.6891,360.2703 Q294.6891,361.1344 295.3125,361.7141 Q295.9359,362.2828 297.0516,362.2828 Q297.7078,362.2828 298.1672,362.1078 Q298.4406,361.9984 298.7359,361.6922 Q298.9219,361.5062 299.0203,361.4516 Q299.1297,361.3969 299.2719,361.3969 Q299.5016,361.3969 299.6766,361.5828 Q299.8625,361.7578 299.8625,361.9984 Q299.8625,362.2391 299.6219,362.5234 Q299.2719,362.9281 298.7141,363.1578 Q297.9594,363.475 297.0516,363.475 Q295.9906,363.475 295.1484,363.0375 Q294.4594,362.6875 293.9781,361.9437 Q293.4969,361.1891 293.4969,360.2922 L293.4969,359.4828 Q293.4969,358.5531 293.9234,357.7547 Q294.3609,356.9453 295.1266,356.5187 Q295.8922,356.0812 296.7562,356.0812 Q297.2703,356.0812 297.7187,356.2016 Q298.1781,356.3109 298.5609,356.5625 Z " fill="#000000"/><text fill="#000000" font-family="sans-serif" font-size="9.8" lengthAdjust="spacing" textLength="79.8" x="310.975" y="363.5078">VehicleRepository</text><line style="stroke:#181818;stroke-width:0.3499999999999999;" x1="228.9" x2="450.1" y1="370.65" y2="370.65"/><line style="stroke:#181818;stroke-width:0.3499999999999999;" x1="228.9" x2="450.1" y1="376.25" y2="376.25"/><text fill="#000000" font-family="sans-serif" font-size="9.8" lengthAdjust="spacing" textLength="214.2" x="232.4" y="389.6252">+getVehicleByPlateNumber(vehiclePlateNumber)</text></g><!--class CheckUp--><g id="elem_CheckUp"><rect codeLine="17" fill="#F1F1F1" height="72.7043" id="CheckUp" rx="1.75" ry="1.75" style="stroke:#181818;stroke-width:0.3499999999999999;" width="140" x="98" y="450.1"/><ellipse cx="145.075" cy="461.3" fill="#ADD1B2" rx="7.7" ry="7.7" style="stroke:#181818;stroke-width:0.6999999999999998;"/><path d="M147.0109,458.4125 Q147.1203,458.2594 147.2516,458.1828 Q147.3828,458.1062 147.5359,458.1062 Q147.7984,458.1062 147.9625,458.2922 Q148.1266,458.4672 148.1266,458.8937 L148.1266,459.9109 Q148.1266,460.3375 147.9625,460.5234 Q147.7984,460.7094 147.5359,460.7094 Q147.2953,460.7094 147.1531,460.5672 Q147.0109,460.4359 146.9344,460.075 Q146.9016,459.8234 146.7703,459.6922 Q146.5406,459.4297 146.1141,459.2766 Q145.6875,459.1234 145.25,459.1234 Q144.7141,459.1234 144.2656,459.3531 Q143.8281,459.5828 143.4781,460.1078 Q143.1391,460.6328 143.1391,461.3547 L143.1391,462.1203 Q143.1391,462.9844 143.7625,463.5641 Q144.3859,464.1328 145.5016,464.1328 Q146.1578,464.1328 146.6172,463.9578 Q146.8906,463.8484 147.1859,463.5422 Q147.3719,463.3562 147.4703,463.3016 Q147.5797,463.2469 147.7219,463.2469 Q147.9516,463.2469 148.1266,463.4328 Q148.3125,463.6078 148.3125,463.8484 Q148.3125,464.0891 148.0719,464.3734 Q147.7219,464.7781 147.1641,465.0078 Q146.4094,465.325 145.5016,465.325 Q144.4406,465.325 143.5984,464.8875 Q142.9094,464.5375 142.4281,463.7937 Q141.9469,463.0391 141.9469,462.1422 L141.9469,461.3328 Q141.9469,460.4031 142.3734,459.6047 Q142.8109,458.7953 143.5766,458.3687 Q144.3422,457.9312 145.2062,457.9312 Q145.7203,457.9312 146.1687,458.0516 Q146.6281,458.1609 147.0109,458.4125 Z " fill="#000000"/><text fill="#000000" font-family="sans-serif" font-size="9.8" lengthAdjust="spacing" textLength="39.9" x="159.425" y="465.3578">CheckUp</text><line style="stroke:#181818;stroke-width:0.3499999999999999;" x1="98.7" x2="237.3" y1="472.5" y2="472.5"/><text fill="#000000" font-family="sans-serif" font-size="9.8" lengthAdjust="spacing" textLength="34.3" x="102.2" y="485.8752">-int kms</text><text fill="#000000" font-family="sans-serif" font-size="9.8" lengthAdjust="spacing" textLength="46.9" x="102.2" y="498.91">-Date date</text><line style="stroke:#181818;stroke-width:0.3499999999999999;" x1="98.7" x2="237.3" y1="504.1695" y2="504.1695"/><text fill="#000000" font-family="sans-serif" font-size="9.8" lengthAdjust="spacing" textLength="131.6" x="102.2" y="517.5447">+CheckUp(vehicle, kms, date)</text></g><!--class Vehicle--><g id="elem_Vehicle"><rect codeLine="23" fill="#F1F1F1" height="46.6348" id="Vehicle" rx="1.75" ry="1.75" style="stroke:#181818;stroke-width:0.3499999999999999;" width="96.6" x="172.9" y="564.9"/><ellipse cx="202.3" cy="576.1" fill="#ADD1B2" rx="7.7" ry="7.7" style="stroke:#181818;stroke-width:0.6999999999999998;"/><path d="M204.2359,573.2125 Q204.3453,573.0594 204.4766,572.9828 Q204.6078,572.9062 204.7609,572.9062 Q205.0234,572.9062 205.1875,573.0922 Q205.3516,573.2672 205.3516,573.6937 L205.3516,574.7109 Q205.3516,575.1375 205.1875,575.3234 Q205.0234,575.5094 204.7609,575.5094 Q204.5203,575.5094 204.3781,575.3672 Q204.2359,575.2359 204.1594,574.875 Q204.1266,574.6234 203.9953,574.4922 Q203.7656,574.2297 203.3391,574.0766 Q202.9125,573.9234 202.475,573.9234 Q201.9391,573.9234 201.4906,574.1531 Q201.0531,574.3828 200.7031,574.9078 Q200.3641,575.4328 200.3641,576.1547 L200.3641,576.9203 Q200.3641,577.7844 200.9875,578.3641 Q201.6109,578.9328 202.7266,578.9328 Q203.3828,578.9328 203.8422,578.7578 Q204.1156,578.6484 204.4109,578.3422 Q204.5969,578.1562 204.6953,578.1016 Q204.8047,578.0469 204.9469,578.0469 Q205.1766,578.0469 205.3516,578.2328 Q205.5375,578.4078 205.5375,578.6484 Q205.5375,578.8891 205.2969,579.1734 Q204.9469,579.5781 204.3891,579.8078 Q203.6344,580.125 202.7266,580.125 Q201.6656,580.125 200.8234,579.6875 Q200.1344,579.3375 199.6531,578.5937 Q199.1719,577.8391 199.1719,576.9422 L199.1719,576.1328 Q199.1719,575.2031 199.5984,574.4047 Q200.0359,573.5953 200.8016,573.1687 Q201.5672,572.7312 202.4312,572.7312 Q202.9453,572.7312 203.3937,572.8516 Q203.8531,572.9609 204.2359,573.2125 Z " fill="#000000"/><text fill="#000000" font-family="sans-serif" font-size="9.8" lengthAdjust="spacing" textLength="32.2" x="216.3" y="580.1578">Vehicle</text><line style="stroke:#181818;stroke-width:0.3499999999999999;" x1="173.6" x2="268.8" y1="587.3" y2="587.3"/><text fill="#000000" font-family="sans-serif" font-size="9.8" lengthAdjust="spacing" textLength="88.2" x="177.1" y="600.6752">-String plateNumber</text><line style="stroke:#181818;stroke-width:0.3499999999999999;" x1="173.6" x2="268.8" y1="605.9348" y2="605.9348"/></g><!--class Repositories--><g id="elem_Repositories"><rect codeLine="28" fill="#F1F1F1" height="85.7391" id="Repositories" rx="1.75" ry="1.75" style="stroke:#181818;stroke-width:0.3499999999999999;" width="135.8" x="150.5" y="207.9"/><ellipse cx="187.775" cy="219.1" fill="#ADD1B2" rx="7.7" ry="7.7" style="stroke:#181818;stroke-width:0.6999999999999998;"/><path d="M189.7109,216.2125 Q189.8203,216.0594 189.9516,215.9828 Q190.0828,215.9062 190.2359,215.9062 Q190.4984,215.9062 190.6625,216.0922 Q190.8266,216.2672 190.8266,216.6937 L190.8266,217.7109 Q190.8266,218.1375 190.6625,218.3234 Q190.4984,218.5094 190.2359,218.5094 Q189.9953,218.5094 189.8531,218.3672 Q189.7109,218.2359 189.6344,217.875 Q189.6016,217.6234 189.4703,217.4922 Q189.2406,217.2297 188.8141,217.0766 Q188.3875,216.9234 187.95,216.9234 Q187.4141,216.9234 186.9656,217.1531 Q186.5281,217.3828 186.1781,217.9078 Q185.8391,218.4328 185.8391,219.1547 L185.8391,219.9203 Q185.8391,220.7844 186.4625,221.3641 Q187.0859,221.9328 188.2016,221.9328 Q188.8578,221.9328 189.3172,221.7578 Q189.5906,221.6484 189.8859,221.3422 Q190.0719,221.1562 190.1703,221.1016 Q190.2797,221.0469 190.4219,221.0469 Q190.6516,221.0469 190.8266,221.2328 Q191.0125,221.4078 191.0125,221.6484 Q191.0125,221.8891 190.7719,222.1734 Q190.4219,222.5781 189.8641,222.8078 Q189.1094,223.125 188.2016,223.125 Q187.1406,223.125 186.2984,222.6875 Q185.6094,222.3375 185.1281,221.5937 Q184.6469,220.8391 184.6469,219.9422 L184.6469,219.1328 Q184.6469,218.2031 185.0734,217.4047 Q185.5109,216.5953 186.2766,216.1687 Q187.0422,215.7312 187.9062,215.7312 Q188.4203,215.7312 188.8687,215.8516 Q189.3281,215.9609 189.7109,216.2125 Z " fill="#000000"/><text fill="#000000" font-family="sans-serif" font-size="9.8" lengthAdjust="spacing" textLength="55.3" x="202.125" y="223.1578">Repositories</text><line style="stroke:#181818;stroke-width:0.3499999999999999;" x1="151.2" x2="285.6" y1="230.3" y2="230.3"/><line style="stroke:#181818;stroke-width:0.3499999999999999;" x1="151.2" x2="285.6" y1="235.9" y2="235.9"/><text fill="#000000" font-family="sans-serif" font-size="9.8" lengthAdjust="spacing" textLength="65.8" x="154.7" y="249.2752">-Repositories()</text><text fill="#000000" font-family="sans-serif" font-size="9.8" lengthAdjust="spacing" textLength="127.4" x="154.7" y="262.31">+getInstance() : Repositories</text><text fill="#000000" font-family="sans-serif" font-size="9.8" lengthAdjust="spacing" textLength="114.1" x="154.7" y="275.3447">+getCheckUpRepository()</text><text fill="#000000" font-family="sans-serif" font-size="9.8" lengthAdjust="spacing" textLength="106.4" x="154.7" y="288.3795">+getVehicleRepository()</text></g><!--class RegisterCheckUpController--><g id="elem_RegisterCheckUpController"><rect codeLine="35" fill="#F1F1F1" height="85.7391" id="RegisterCheckUpController" rx="1.75" ry="1.75" style="stroke:#181818;stroke-width:0.3499999999999999;" width="314.3" x="61.25" y="80.5"/><ellipse cx="155.225" cy="91.7" fill="#ADD1B2" rx="7.7" ry="7.7" style="stroke:#181818;stroke-width:0.6999999999999998;"/><path d="M157.1609,88.8125 Q157.2703,88.6594 157.4016,88.5828 Q157.5328,88.5062 157.6859,88.5062 Q157.9484,88.5062 158.1125,88.6922 Q158.2766,88.8672 158.2766,89.2937 L158.2766,90.3109 Q158.2766,90.7375 158.1125,90.9234 Q157.9484,91.1094 157.6859,91.1094 Q157.4453,91.1094 157.3031,90.9672 Q157.1609,90.8359 157.0844,90.475 Q157.0516,90.2234 156.9203,90.0922 Q156.6906,89.8297 156.2641,89.6766 Q155.8375,89.5234 155.4,89.5234 Q154.8641,89.5234 154.4156,89.7531 Q153.9781,89.9828 153.6281,90.5078 Q153.2891,91.0328 153.2891,91.7547 L153.2891,92.5203 Q153.2891,93.3844 153.9125,93.9641 Q154.5359,94.5328 155.6516,94.5328 Q156.3078,94.5328 156.7672,94.3578 Q157.0406,94.2484 157.3359,93.9422 Q157.5219,93.7562 157.6203,93.7016 Q157.7297,93.6469 157.8719,93.6469 Q158.1016,93.6469 158.2766,93.8328 Q158.4625,94.0078 158.4625,94.2484 Q158.4625,94.4891 158.2219,94.7734 Q157.8719,95.1781 157.3141,95.4078 Q156.5594,95.725 155.6516,95.725 Q154.5906,95.725 153.7484,95.2875 Q153.0594,94.9375 152.5781,94.1937 Q152.0969,93.4391 152.0969,92.5422 L152.0969,91.7328 Q152.0969,90.8031 152.5234,90.0047 Q152.9609,89.1953 153.7266,88.7687 Q154.4922,88.3312 155.3562,88.3312 Q155.8703,88.3312 156.3187,88.4516 Q156.7781,88.5609 157.1609,88.8125 Z " fill="#000000"/><text fill="#000000" font-family="sans-serif" font-size="9.8" lengthAdjust="spacing" textLength="120.4" x="169.575" y="95.7578">RegisterCheckUpController</text><line style="stroke:#181818;stroke-width:0.3499999999999999;" x1="61.95" x2="374.85" y1="102.9" y2="102.9"/><line style="stroke:#181818;stroke-width:0.3499999999999999;" x1="61.95" x2="374.85" y1="108.5" y2="108.5"/><text fill="#000000" font-family="sans-serif" font-size="9.8" lengthAdjust="spacing" textLength="305.9" x="65.45" y="121.8752">+RegisterCheckUpController(CheckUpRepository, VehicleRepository)</text><text fill="#000000" font-family="sans-serif" font-size="9.8" lengthAdjust="spacing" textLength="190.4" x="65.45" y="134.91">+registerCheckUp(plateNumber, kms, date)</text><text fill="#000000" font-family="sans-serif" font-size="9.8" lengthAdjust="spacing" textLength="217" x="65.45" y="147.9447">-getVehiclesByPlateNumber(vehiclePlateNumber)</text><text fill="#000000" font-family="sans-serif" font-size="9.8" lengthAdjust="spacing" textLength="79.1" x="65.45" y="160.9795">+getVehiclesList()</text></g><!--class RegisterCheckUpUI--><g id="elem_RegisterCheckUpUI"><rect codeLine="43" fill="#F1F1F1" height="33.6" id="RegisterCheckUpUI" rx="1.75" ry="1.75" style="stroke:#181818;stroke-width:0.3499999999999999;" width="107.8" x="164.5" y="4.9"/><ellipse cx="175" cy="16.1" fill="#ADD1B2" rx="7.7" ry="7.7" style="stroke:#181818;stroke-width:0.6999999999999998;"/><path d="M176.9359,13.2125 Q177.0453,13.0594 177.1766,12.9828 Q177.3078,12.9062 177.4609,12.9062 Q177.7234,12.9062 177.8875,13.0922 Q178.0516,13.2672 178.0516,13.6937 L178.0516,14.7109 Q178.0516,15.1375 177.8875,15.3234 Q177.7234,15.5094 177.4609,15.5094 Q177.2203,15.5094 177.0781,15.3672 Q176.9359,15.2359 176.8594,14.875 Q176.8266,14.6234 176.6953,14.4922 Q176.4656,14.2297 176.0391,14.0766 Q175.6125,13.9234 175.175,13.9234 Q174.6391,13.9234 174.1906,14.1531 Q173.7531,14.3828 173.4031,14.9078 Q173.0641,15.4328 173.0641,16.1547 L173.0641,16.9203 Q173.0641,17.7844 173.6875,18.3641 Q174.3109,18.9328 175.4266,18.9328 Q176.0828,18.9328 176.5422,18.7578 Q176.8156,18.6484 177.1109,18.3422 Q177.2969,18.1562 177.3953,18.1016 Q177.5047,18.0469 177.6469,18.0469 Q177.8766,18.0469 178.0516,18.2328 Q178.2375,18.4078 178.2375,18.6484 Q178.2375,18.8891 177.9969,19.1734 Q177.6469,19.5781 177.0891,19.8078 Q176.3344,20.125 175.4266,20.125 Q174.3656,20.125 173.5234,19.6875 Q172.8344,19.3375 172.3531,18.5937 Q171.8719,17.8391 171.8719,16.9422 L171.8719,16.1328 Q171.8719,15.2031 172.2984,14.4047 Q172.7359,13.5953 173.5016,13.1687 Q174.2672,12.7312 175.1312,12.7312 Q175.6453,12.7312 176.0937,12.8516 Q176.5531,12.9609 176.9359,13.2125 Z " fill="#000000"/><text fill="#000000" font-family="sans-serif" font-size="9.8" lengthAdjust="spacing" textLength="85.4" x="184.8" y="20.1578">RegisterCheckUpUI</text><line style="stroke:#181818;stroke-width:0.3499999999999999;" x1="165.2" x2="271.6" y1="27.3" y2="27.3"/><line style="stroke:#181818;stroke-width:0.3499999999999999;" x1="165.2" x2="271.6" y1="32.9" y2="32.9"/></g><!--link RegisterCheckUpUI to RegisterCheckUpController--><g id="link_RegisterCheckUpUI_RegisterCheckUpController"><path codeLine="46" d="M218.4,38.703 C218.4,50.064 218.4,61.558 218.4,76.3 " fill="none" id="RegisterCheckUpUI-to-RegisterCheckUpController" style="stroke:#181818;stroke-width:0.6999999999999998;"/><polygon fill="#181818" points="218.4,80.5,221.2,74.2,218.4,77,215.6,74.2,218.4,80.5" style="stroke:#181818;stroke-width:0.6999999999999998;"/></g><!--link RegisterCheckUpController to Repositories--><g id="link_RegisterCheckUpController_Repositories"><path codeLine="48" d="M218.4,166.033 C218.4,179.48 218.4,190.162 218.4,203.609 " fill="none" id="RegisterCheckUpController-to-Repositories" style="stroke:#181818;stroke-width:0.6999999999999998;"/><polygon fill="#181818" points="218.4,207.809,221.2,201.509,218.4,204.309,215.6,201.509,218.4,207.809" style="stroke:#181818;stroke-width:0.6999999999999998;"/></g><!--link RegisterCheckUpController to CheckUpRepository--><g id="link_RegisterCheckUpController_CheckUpRepository"><path codeLine="49" d="M177.912,166.145 C157.871,187.061 137.9,207.9 137.9,207.9 C137.9,207.9 122.4094,283.0824 112.5184,331.0954 " fill="none" id="RegisterCheckUpController-to-CheckUpRepository" style="stroke:#181818;stroke-width:0.6999999999999998;"/><polygon fill="#181818" points="111.671,335.209,115.6846,329.6035,112.3772,331.781,110.1997,328.4736,111.671,335.209" style="stroke:#181818;stroke-width:0.6999999999999998;"/></g><!--link RegisterCheckUpController to VehicleRepository--><g id="link_RegisterCheckUpController_VehicleRepository"><path codeLine="50" d="M265.223,166.145 C288.407,187.061 311.5,207.9 311.5,207.9 C311.5,207.9 327.1208,298.8765 334.8348,343.8375 " fill="none" id="RegisterCheckUpController-to-VehicleRepository" style="stroke:#181818;stroke-width:0.6999999999999998;"/><polygon fill="#181818" points="335.545,347.977,337.2393,341.2942,334.9531,344.5274,331.72,342.2412,335.545,347.977" style="stroke:#181818;stroke-width:0.6999999999999998;"/></g><!--link Repositories to CheckUpRepository--><g id="link_Repositories_CheckUpRepository"><path codeLine="52" d="M178.171,293.503 C165.214,307.097 153.8813,318.9883 141.3933,332.0853 " fill="none" id="Repositories-to-CheckUpRepository" style="stroke:#181818;stroke-width:0.6999999999999998;"/><polygon fill="#181818" points="138.495,335.125,144.869,332.4977,140.9103,332.5919,140.8161,328.6333,138.495,335.125" style="stroke:#181818;stroke-width:0.6999999999999998;"/><text fill="#000000" font-family="sans-serif" font-size="9.1" lengthAdjust="spacing" textLength="4.9" x="137.8607" y="327.3506">1</text></g><!--link Repositories to VehicleRepository--><g id="link_Repositories_VehicleRepository"><path codeLine="53" d="M261.093,293.503 C279.615,311.808 297.6004,329.582 313.1894,344.996 " fill="none" id="Repositories-to-VehicleRepository" style="stroke:#181818;stroke-width:0.6999999999999998;"/><polygon fill="#181818" points="316.176,347.949,313.6648,341.5284,313.6872,345.4881,309.7275,345.5105,316.176,347.949" style="stroke:#181818;stroke-width:0.6999999999999998;"/><text fill="#000000" font-family="sans-serif" font-size="9.1" lengthAdjust="spacing" textLength="4.9" x="306.5239" y="340.4359">1</text></g><!--link Repositories to Repositories--><g id="link_Repositories_Repositories"><path codeLine="54" d="M286.496,228.816 C300.636,231.112 310.8,238.371 310.8,250.6 C310.8,262.829 304.7817,269.4148 290.6417,271.7108 " fill="none" id="Repositories-to-Repositories" style="stroke:#181818;stroke-width:0.6999999999999998;"/><polygon fill="#181818" points="286.496,272.384,293.1633,274.1381,289.9508,271.823,292.2658,268.6105,286.496,272.384" style="stroke:#181818;stroke-width:0.6999999999999998;"/><text fill="#000000" font-family="sans-serif" font-size="9.1" lengthAdjust="spacing" textLength="34.3" x="291.9571" y="271.3139">instance</text></g><!--link CheckUpRepository to CheckUp--><g id="link_CheckUpRepository_CheckUp"><path codeLine="56" d="M124.453,408.282 C131.929,421.582 138.3425,432.9979 145.8115,446.2979 " fill="none" id="CheckUpRepository-to-CheckUp" style="stroke:#181818;stroke-width:0.6999999999999998;"/><polygon fill="#181818" points="147.868,449.96,147.2246,443.0959,146.1542,446.9083,142.3418,445.8379,147.868,449.96" style="stroke:#181818;stroke-width:0.6999999999999998;"/><text fill="#000000" font-family="sans-serif" font-size="9.1" lengthAdjust="spacing" textLength="3.5" x="141.4276" y="442.1903">*</text></g><!--link VehicleRepository to Vehicle--><g id="link_VehicleRepository_Vehicle"><path codeLine="57" d="M326.949,395.234 C304.234,436.562 258.573,519.6533 235.823,561.0443 " fill="none" id="VehicleRepository-to-Vehicle" style="stroke:#181818;stroke-width:0.6999999999999998;"/><polygon fill="#181818" points="233.8,564.725,239.2883,560.5527,235.4859,561.6578,234.3808,557.8553,233.8,564.725" style="stroke:#181818;stroke-width:0.6999999999999998;"/><text fill="#000000" font-family="sans-serif" font-size="9.1" lengthAdjust="spacing" textLength="3.5" x="232.3683" y="557.0518">*</text></g><!--link CheckUp to Vehicle--><g id="link_CheckUp_Vehicle"><path codeLine="58" d="M187.054,523.18 C194.39,537.033 200.5924,548.7429 207.1024,561.0279 " fill="none" id="CheckUp-to-Vehicle" style="stroke:#181818;stroke-width:0.6999999999999998;"/><polygon fill="#181818" points="209.069,564.739,208.5932,557.8612,207.4302,561.6464,203.645,560.4834,209.069,564.739" style="stroke:#181818;stroke-width:0.6999999999999998;"/><text fill="#000000" font-family="sans-serif" font-size="9.1" lengthAdjust="spacing" textLength="4.9" x="201.3895" y="557.0685">1</text></g><!--SRC=[bLFBRiCW4Bpp5IWdkucbzjf3fJQzHAgggb5w9tZh81D0G5AvKV-zE62RX3mKNompipExizZKJ2YYoHehGcjImTms7B06QeceE23J4yoAbFA7YGf_4svYX3C1jb60bUHD-u4Ya79YpBErcYqt5cPKYZdx1NoFzW2Uhe3M2_K9IXfcfMvs2Bkd86KPe8pwT-w1BU6i91PEecCD5JCMT8SgxgZlc_KIz0JNQpF1RMsE_b3m_u8Lenm6V-mR65TW0_RIV0mgsTOVHaUHMh0D6WLcmhQkuUlLbUpzlKF7xYGlDjXBpbsIRWVHO6WWzsCmC7r5V9Y5dB0RRoQCMpA5BCUF1wI1acmdha-Yo_AuauD5JAMmMd8EkiltB25BJ2VfbcvSzpw8eMLpVQL7Ty2yEHyttza15xDTYoMdk2YUpeUH54Gv-S9eAvUfIMfN-4caRI_HxMaveuVHITqJj5GkfR5muKQ7Sw74mjFlUdEK_gKT8o2Tnd4_w1y0]--></g></svg>