<?xml version="1.0" encoding="us-ascii" standalone="no"?><svg xmlns="http://www.w3.org/2000/svg" xmlns:xlink="http://www.w3.org/1999/xlink" contentStyleType="text/css" height="1460px" preserveAspectRatio="none" style="width:528px;height:1460px;background:#FFFFFF;" version="1.1" viewBox="0 0 528 1460" width="528.8px" zoomAndPan="magnify"><defs/><g><text fill="#000000" font-family="sans-serif" font-size="11.2" font-weight="bold" lengthAdjust="spacing" textLength="101.6" x="208" y="20.0859">Use Case Diagram</text><!--cluster actors--><g id="cluster_actors"><rect fill="none" height="560.8" rx="2" ry="2" style="stroke:#FFFF00;stroke-width:0.8000000000000002;" width="99.2" x="5.6" y="518.8969"/><text fill="#000000" font-family="sans-serif" font-size="11.2" font-weight="bold" lengthAdjust="spacing" textLength="79.2" x="15.6" y="532.5828">System Actors</text></g><!--cluster usecases--><g id="cluster_usecases"><rect fill="none" height="1418.4" rx="2" ry="2" style="stroke:#FFFF00;stroke-width:0.8000000000000002;" width="396.8" x="127.2" y="37.2969"/><text fill="#000000" font-family="sans-serif" font-size="11.2" font-weight="bold" lengthAdjust="spacing" textLength="59.2" x="296" y="50.9828">Use Cases</text></g><!--entity Collaborator--><g id="elem_Collaborator"><ellipse cx="55.2" cy="555.6969" fill="#F1F1F1" rx="6.4" ry="6.4" style="stroke:#181818;stroke-width:0.4000000000000001;"/><path d="M55.2,562.0969 L55.2,583.6969 M44.8,568.4969 L65.6,568.4969 M55.2,583.6969 L44.8,595.6969 M55.2,583.6969 L65.6,595.6969 " fill="none" style="stroke:#181818;stroke-width:0.4000000000000001;"/><text fill="#000000" font-family="sans-serif" font-size="11.2" lengthAdjust="spacing" textLength="62.4" x="24" y="608.9828">Collaborator</text></g><!--entity GSM--><g id="elem_GSM"><ellipse cx="55.2" cy="647.2969" fill="#F1F1F1" rx="6.4" ry="6.4" style="stroke:#181818;stroke-width:0.4000000000000001;"/><path d="M55.2,653.6969 L55.2,675.2969 M44.8,660.0969 L65.6,660.0969 M55.2,675.2969 L44.8,687.2969 M55.2,675.2969 L65.6,687.2969 " fill="none" style="stroke:#181818;stroke-width:0.4000000000000001;"/><text fill="#000000" font-family="sans-serif" font-size="11.2" lengthAdjust="spacing" textLength="32" x="32.8" y="700.5828">Green</text><text fill="#000000" font-family="sans-serif" font-size="11.2" lengthAdjust="spacing" textLength="37.6" x="32.8" y="715.4797">Spaces</text><text fill="#000000" font-family="sans-serif" font-size="11.2" lengthAdjust="spacing" textLength="44.8" x="32.8" y="730.3766">Manager</text></g><!--entity GSU--><g id="elem_GSU"><ellipse cx="55.2" cy="768.0969" fill="#F1F1F1" rx="6.4" ry="6.4" style="stroke:#181818;stroke-width:0.4000000000000001;"/><path d="M55.2,774.4969 L55.2,796.0969 M44.8,780.8969 L65.6,780.8969 M55.2,796.0969 L44.8,808.0969 M55.2,796.0969 L65.6,808.0969 " fill="none" style="stroke:#181818;stroke-width:0.4000000000000001;"/><text fill="#000000" font-family="sans-serif" font-size="11.2" lengthAdjust="spacing" textLength="32" x="36.4" y="821.3828">Green</text><text fill="#000000" font-family="sans-serif" font-size="11.2" lengthAdjust="spacing" textLength="37.6" x="36.4" y="836.2797">Spaces</text><text fill="#000000" font-family="sans-serif" font-size="11.2" lengthAdjust="spacing" textLength="23.2" x="36.4" y="851.1766">User</text></g><!--entity HRM--><g id="elem_HRM"><ellipse cx="55.2" cy="888.8969" fill="#F1F1F1" rx="6.4" ry="6.4" style="stroke:#181818;stroke-width:0.4000000000000001;"/><path d="M55.2,895.2969 L55.2,916.8969 M44.8,901.6969 L65.6,901.6969 M55.2,916.8969 L44.8,928.8969 M55.2,916.8969 L65.6,928.8969 " fill="none" style="stroke:#181818;stroke-width:0.4000000000000001;"/><text fill="#000000" font-family="sans-serif" font-size="11.2" lengthAdjust="spacing" textLength="35.2" x="28" y="942.1828">Human</text><text fill="#000000" font-family="sans-serif" font-size="11.2" lengthAdjust="spacing" textLength="54.4" x="28" y="957.0797">Resources</text><text fill="#000000" font-family="sans-serif" font-size="11.2" lengthAdjust="spacing" textLength="44.8" x="28" y="971.9766">Manager</text></g><!--entity FM--><g id="elem_FM"><ellipse cx="55.2" cy="1010.0969" fill="#F1F1F1" rx="6.4" ry="6.4" style="stroke:#181818;stroke-width:0.4000000000000001;"/><path d="M55.2,1016.4969 L55.2,1038.0969 M44.8,1022.8969 L65.6,1022.8969 M55.2,1038.0969 L44.8,1050.0969 M55.2,1038.0969 L65.6,1050.0969 " fill="none" style="stroke:#181818;stroke-width:0.4000000000000001;"/><text fill="#000000" font-family="sans-serif" font-size="11.2" lengthAdjust="spacing" textLength="73.6" x="18.4" y="1063.3828">Fleet Manager</text></g><g id="elem_UC01"><ellipse cx="325.6906" cy="1134.915" fill="#F1F1F1" rx="112.4906" ry="24.4181" style="stroke:#181818;stroke-width:0.4000000000000001;"/><text fill="#000000" font-family="sans-serif" font-size="11.2" lengthAdjust="spacing" textLength="197.6" x="226.8906" y="1137.9525">UC01 - Register Skills of a Collaborator</text></g><g id="elem_UC02"><ellipse cx="325.5841" cy="1204.3337" fill="#F1F1F1" rx="73.5841" ry="16.6368" style="stroke:#181818;stroke-width:0.4000000000000001;"/><text fill="#000000" font-family="sans-serif" font-size="11.2" lengthAdjust="spacing" textLength="111.2" x="267.5841" y="1208.1767">UC02 - Register a Job</text></g><g id="elem_UC03"><ellipse cx="325.429" cy="897.1027" fill="#F1F1F1" rx="185.429" ry="39.0058" style="stroke:#181818;stroke-width:0.4000000000000001;"/><text fill="#000000" font-family="sans-serif" font-size="11.2" lengthAdjust="spacing" textLength="348.8" x="151.029" y="900.1402">UC03 - Register collaborator with job and fundamental characteristics</text></g><g id="elem_UC04"><ellipse cx="325.415" cy="980.2999" fill="#F1F1F1" rx="69.415" ry="15.803" style="stroke:#181818;stroke-width:0.4000000000000001;"/><text fill="#000000" font-family="sans-serif" font-size="11.2" lengthAdjust="spacing" textLength="100.8" x="272.615" y="984.1428">UC04 - Assign Skills</text></g><g id="elem_UC05"><ellipse cx="325.7723" cy="1053.2513" fill="#F1F1F1" rx="134.1723" ry="28.7545" style="stroke:#181818;stroke-width:0.4000000000000001;"/><text fill="#000000" font-family="sans-serif" font-size="11.2" lengthAdjust="spacing" textLength="240" x="204.1723" y="1056.2888">UC05 - Generate a team proposal automatically</text></g><g id="elem_UC06"><ellipse cx="325.7952" cy="1424.6159" fill="#F1F1F1" rx="80.9952" ry="18.119" style="stroke:#181818;stroke-width:0.4000000000000001;"/><text fill="#000000" font-family="sans-serif" font-size="11.2" lengthAdjust="spacing" textLength="128.8" x="260.7996" y="1427.8748">UC06 - Register a vehicle</text></g><g id="elem_UC07"><ellipse cx="325.4253" cy="1272.5419" fill="#F1F1F1" rx="104.6253" ry="22.8451" style="stroke:#181818;stroke-width:0.4000000000000001;"/><text fill="#000000" font-family="sans-serif" font-size="11.2" lengthAdjust="spacing" textLength="180.8" x="235.0253" y="1275.5794">UC07 - Register Vehicle's Check-up</text></g><g id="elem_UC08"><ellipse cx="325.6105" cy="1350.979" fill="#F1F1F1" rx="128.8105" ry="27.6821" style="stroke:#181818;stroke-width:0.4000000000000001;"/><text fill="#000000" font-family="sans-serif" font-size="11.2" lengthAdjust="spacing" textLength="232" x="209.6105" y="1354.0165">UC08 - List the vehicles needing the check-up</text></g><g id="elem_UC20"><ellipse cx="325.784" cy="247.8937" fill="#F1F1F1" rx="95.384" ry="20.9968" style="stroke:#181818;stroke-width:0.4000000000000001;"/><text fill="#000000" font-family="sans-serif" font-size="11.2" lengthAdjust="spacing" textLength="160.8" x="245.384" y="250.9312">UC20 - Register a Green Space</text></g><g id="elem_UC21"><ellipse cx="325.7975" cy="322.2964" fill="#F1F1F1" rx="117.3975" ry="25.3995" style="stroke:#181818;stroke-width:0.4000000000000001;"/><text fill="#000000" font-family="sans-serif" font-size="11.2" lengthAdjust="spacing" textLength="208" x="221.7975" y="325.3339">UC21 - Add a new entry to the To-Do List</text></g><g id="elem_UC22"><ellipse cx="325.4011" cy="397.1771" fill="#F1F1F1" rx="99.8011" ry="21.8802" style="stroke:#181818;stroke-width:0.4000000000000001;"/><text fill="#000000" font-family="sans-serif" font-size="11.2" lengthAdjust="spacing" textLength="170.4" x="240.2011" y="400.2146">UC22 - Add a entry in the Agenda</text></g><g id="elem_UC23"><ellipse cx="325.7399" cy="476.6049" fill="#F1F1F1" rx="134.9399" ry="28.908" style="stroke:#181818;stroke-width:0.4000000000000001;"/><text fill="#000000" font-family="sans-serif" font-size="11.2" lengthAdjust="spacing" textLength="244.8" x="203.3399" y="479.6424">UC23 - Assign a Team to an entry in the Agenda</text></g><g id="elem_UC24"><ellipse cx="325.4849" cy="558.7939" fill="#F1F1F1" rx="115.8849" ry="25.097" style="stroke:#181818;stroke-width:0.4000000000000001;"/><text fill="#000000" font-family="sans-serif" font-size="11.2" lengthAdjust="spacing" textLength="204.8" x="223.0849" y="561.8314">UC24 - Postpone an entry in the Agenda</text></g><g id="elem_UC25"><ellipse cx="325.4599" cy="636.3888" fill="#F1F1F1" rx="109.8599" ry="23.892" style="stroke:#181818;stroke-width:0.4000000000000001;"/><text fill="#000000" font-family="sans-serif" font-size="11.2" lengthAdjust="spacing" textLength="192" x="229.4599" y="639.4263">UC25 - Cancel an entry in the Agenda</text></g><g id="elem_UC26"><ellipse cx="325.6605" cy="718.189" fill="#F1F1F1" rx="136.8605" ry="29.2921" style="stroke:#181818;stroke-width:0.4000000000000001;"/><text fill="#000000" font-family="sans-serif" font-size="11.2" lengthAdjust="spacing" textLength="248.8" x="201.2605" y="721.2265">UC26 - Assign Vehicles to an entry in the Agenda</text></g><g id="elem_UC27"><ellipse cx="325.6824" cy="803.0734" fill="#F1F1F1" rx="127.2824" ry="27.3765" style="stroke:#181818;stroke-width:0.4000000000000001;"/><text fill="#000000" font-family="sans-serif" font-size="11.2" lengthAdjust="spacing" textLength="228.8" x="211.2824" y="806.1109">UC27 - List of Green Spaces managed by me</text></g><g id="elem_UC28"><ellipse cx="325.7191" cy="94.1207" fill="#F1F1F1" rx="126.5191" ry="27.2238" style="stroke:#181818;stroke-width:0.4000000000000001;"/><text fill="#000000" font-family="sans-serif" font-size="11.2" lengthAdjust="spacing" textLength="227.2" x="212.1191" y="97.1582">UC28 - Consult the Task Between Two Dates</text></g><g id="elem_UC29"><ellipse cx="325.6671" cy="174.1903" fill="#F1F1F1" rx="112.8671" ry="24.4934" style="stroke:#181818;stroke-width:0.4000000000000001;"/><text fill="#000000" font-family="sans-serif" font-size="11.2" lengthAdjust="spacing" textLength="198.4" x="226.4671" y="177.2278">UC29 - Record the completion of a task</text></g><!--link HRM to UC01--><g id="link_HRM_UC01"><path d="M82.656,950.6889 C93.416,961.2089 104.784,974.6729 111.2,989.2969 C120.744,1011.0329 104.872,1078.0969 120.8,1095.6969 C144.392,1121.7689 174.8525,1133.021 209.4045,1137.757 " fill="none" id="HRM-to-UC01" style="stroke:#181818;stroke-width:0.8000000000000002;"/><polygon fill="#181818" points="214.16,1138.4089,207.4613,1134.2608,210.1971,1137.8657,206.5921,1140.6015,214.16,1138.4089" style="stroke:#181818;stroke-width:0.8000000000000002;"/></g><!--link HRM to UC02--><g id="link_HRM_UC02"><path d="M82.632,950.2969 C93.528,960.8329 105.008,974.4249 111.2,989.2969 C119.072,1008.1929 107.064,1158.1209 120.8,1173.2969 C155.904,1212.0809 212.5309,1217.1005 258.8269,1213.9725 " fill="none" id="HRM-to-UC02" style="stroke:#181818;stroke-width:0.8000000000000002;"/><polygon fill="#181818" points="263.616,1213.6489,256.2167,1210.9415,259.6251,1213.9185,256.6481,1217.327,263.616,1213.6489" style="stroke:#181818;stroke-width:0.8000000000000002;"/></g><!--link HRM to UC03--><g id="link_HRM_UC03"><path d="M82.512,925.4169 C102.376,923.1129 126.632,920.298 157.736,916.69 " fill="none" id="HRM-to-UC03" style="stroke:#181818;stroke-width:0.8000000000000002;"/><polygon fill="#181818" points="162.504,916.1369,154.9832,913.7878,158.5306,916.5978,155.7207,920.1452,162.504,916.1369" style="stroke:#181818;stroke-width:0.8000000000000002;"/></g><!--link HRM to UC04--><g id="link_HRM_UC04"><path d="M82.496,938.4889 C94.112,942.5689 108,947.0329 120.8,950.0969 C167.552,961.2809 216.6026,968.5216 257.2266,973.4256 " fill="none" id="HRM-to-UC04" style="stroke:#181818;stroke-width:0.8000000000000002;"/><polygon fill="#181818" points="261.992,974.0009,255.2274,969.961,258.0208,973.5215,254.4604,976.3149,261.992,974.0009" style="stroke:#181818;stroke-width:0.8000000000000002;"/></g><!--link HRM to UC05--><g id="link_HRM_UC05"><path d="M82.616,954.2729 C92.368,964.5849 103.016,976.9369 111.2,989.2969 C116.824,997.7849 112.84,1003.7449 120.8,1010.0969 C142.592,1027.4809 165.0646,1037.1837 192.3606,1043.8397 " fill="none" id="HRM-to-UC05" style="stroke:#181818;stroke-width:0.8000000000000002;"/><polygon fill="#181818" points="197.024,1044.9769,190.7871,1040.1623,193.1379,1044.0293,189.2709,1046.3801,197.024,1044.9769" style="stroke:#181818;stroke-width:0.8000000000000002;"/></g><!--link FM to UC06--><g id="link_FM_UC06"><path d="M57.192,1066.7289 C60.848,1145.6729 74.592,1347.3689 120.8,1392.4969 C155.104,1426.0009 204.4487,1433.3045 248.3367,1432.5765 " fill="none" id="FM-to-UC06" style="stroke:#181818;stroke-width:0.8000000000000002;"/><polygon fill="#181818" points="253.136,1432.4969,245.8839,1429.4167,249.1366,1432.5632,245.9901,1435.8158,253.136,1432.4969" style="stroke:#181818;stroke-width:0.8000000000000002;"/></g><!--link FM to UC07--><g id="link_FM_UC07"><path d="M56.728,1066.6009 C59.568,1111.2009 71.68,1191.8249 120.8,1234.8969 C148.152,1258.8809 180.909,1269.1898 216.317,1273.6138 " fill="none" id="FM-to-UC07" style="stroke:#181818;stroke-width:0.8000000000000002;"/><polygon fill="#181818" points="221.08,1274.2089,214.3323,1270.1409,217.1109,1273.713,213.5388,1276.4915,221.08,1274.2089" style="stroke:#181818;stroke-width:0.8000000000000002;"/></g><!--link FM to UC08--><g id="link_FM_UC08"><path d="M59.224,1066.5529 C66.472,1131.3289 86.184,1275.7289 120.8,1309.2969 C141.56,1329.4249 164.584,1339.9741 192.872,1346.4221 " fill="none" id="FM-to-UC08" style="stroke:#181818;stroke-width:0.8000000000000002;"/><polygon fill="#181818" points="197.552,1347.4889,191.2432,1342.7688,193.652,1346.5999,189.8209,1349.0087,197.552,1347.4889" style="stroke:#181818;stroke-width:0.8000000000000002;"/></g><!--link GSM to UC20--><g id="link_GSM_UC20"><path d="M77.64,669.9609 C89.936,658.9369 104.232,643.4249 111.2,626.0969 C118.32,608.4009 108.312,297.3129 120.8,282.8969 C149.336,249.9609 191.8014,240.4454 233.6574,239.4294 " fill="none" id="GSM-to-UC20" style="stroke:#181818;stroke-width:0.8000000000000002;"/><polygon fill="#181818" points="238.456,239.3129,231.1805,236.2885,234.4572,239.4099,231.3358,242.6867,238.456,239.3129" style="stroke:#181818;stroke-width:0.8000000000000002;"/></g><!--link GSM to UC21--><g id="link_GSM_UC21"><path d="M77.872,669.6809 C90.088,658.6729 104.208,643.2649 111.2,626.0969 C122.304,598.8329 101.64,383.6489 120.8,361.2969 C142.864,335.5529 171.4776,324.1481 204.8696,319.1161 " fill="none" id="GSM-to-UC21" style="stroke:#181818;stroke-width:0.8000000000000002;"/><polygon fill="#181818" points="209.616,318.4009,202.0195,316.3095,205.6607,318.9969,202.9732,322.638,209.616,318.4009" style="stroke:#181818;stroke-width:0.8000000000000002;"/></g><!--link GSM to UC22--><g id="link_GSM_UC22"><path d="M77.792,669.6489 C89.968,658.6249 104.096,643.2169 111.2,626.0969 C119.424,606.2889 106.608,449.3769 120.8,433.2969 C147.984,402.4889 186.743,392.2684 226.639,390.1084 " fill="none" id="GSM-to-UC22" style="stroke:#181818;stroke-width:0.8000000000000002;"/><polygon fill="#181818" points="231.432,389.8489,224.0695,387.0428,227.4378,390.0651,224.4155,393.4334,231.432,389.8489" style="stroke:#181818;stroke-width:0.8000000000000002;"/></g><!--link GSM to UC23--><g id="link_GSM_UC23"><path d="M77.816,669.2889 C89.848,658.2409 103.808,642.9369 111.2,626.0969 C120.744,604.3609 105.04,537.4489 120.8,519.6969 C139.184,498.9849 160.1512,487.9883 187.0312,481.0763 " fill="none" id="GSM-to-UC23" style="stroke:#181818;stroke-width:0.8000000000000002;"/><polygon fill="#181818" points="191.68,479.8809,183.9099,478.5748,187.806,480.877,185.5038,484.7731,191.68,479.8809" style="stroke:#181818;stroke-width:0.8000000000000002;"/></g><!--link GSM to UC24--><g id="link_GSM_UC24"><path d="M77.72,667.2089 C88.976,656.0569 102.208,641.3129 111.2,626.0969 C117.896,614.7689 110.864,606.7209 120.8,598.0969 C145.304,576.8089 173.0628,566.4702 204.8948,560.9422 " fill="none" id="GSM-to-UC24" style="stroke:#181818;stroke-width:0.8000000000000002;"/><polygon fill="#181818" points="209.624,560.1209,201.9827,558.2,205.683,560.8053,203.0777,564.5056,209.624,560.1209" style="stroke:#181818;stroke-width:0.8000000000000002;"/></g><!--link GSM to UC25--><g id="link_GSM_UC25"><path d="M77.768,682.8169 C113.08,676.1929 179.9062,663.6613 236.9622,652.9653 " fill="none" id="GSM-to-UC25" style="stroke:#181818;stroke-width:0.8000000000000002;"/><polygon fill="#181818" points="241.68,652.0809,234.0137,650.2623,237.7485,652.8179,235.1929,656.5527,241.68,652.0809" style="stroke:#181818;stroke-width:0.8000000000000002;"/></g><!--link GSM to UC26--><g id="link_GSM_UC26"><path d="M77.768,689.4249 C105.832,692.6809 152.008,698.0393 200.376,703.6553 " fill="none" id="GSM-to-UC26" style="stroke:#181818;stroke-width:0.8000000000000002;"/><polygon fill="#181818" points="205.144,704.2089,198.3611,700.1998,201.1707,703.7475,197.623,706.5571,205.144,704.2089" style="stroke:#181818;stroke-width:0.8000000000000002;"/></g><!--link GSM to UC27--><g id="link_GSM_UC27"><path d="M77.832,708.9529 C88.352,719.9849 100.88,733.7609 111.2,746.8969 C115.952,752.9449 114.416,757.0009 120.8,761.2969 C145.472,777.8889 170.6498,787.1107 199.8418,793.3427 " fill="none" id="GSM-to-UC27" style="stroke:#181818;stroke-width:0.8000000000000002;"/><polygon fill="#181818" points="204.536,794.3449,198.1628,789.7122,200.6241,793.5098,196.8266,795.9712,204.536,794.3449" style="stroke:#181818;stroke-width:0.8000000000000002;"/></g><!--link Collaborator to UC28--><g id="link_Collaborator_UC28"><path d="M56.072,548.6729 C56.952,457.0329 64.456,195.3209 120.8,135.6969 C141.344,113.9609 165.2284,102.9431 194.5004,96.6151 " fill="none" id="Collaborator-to-UC28" style="stroke:#181818;stroke-width:0.8000000000000002;"/><polygon fill="#181818" points="199.192,95.6009,191.4784,93.9945,195.2823,96.4461,192.8307,100.25,199.192,95.6009" style="stroke:#181818;stroke-width:0.8000000000000002;"/></g><!--link Collaborator to UC29--><g id="link_Collaborator_UC29"><path d="M57.104,548.7209 C60.56,468.3369 73.944,259.9049 120.8,212.4969 C144.992,188.0169 174.7771,177.142 208.5611,172.27 " fill="none" id="Collaborator-to-UC29" style="stroke:#181818;stroke-width:0.8000000000000002;"/><polygon fill="#181818" points="213.312,171.5849,205.729,169.4453,209.353,172.1558,206.6425,175.7798,213.312,171.5849" style="stroke:#181818;stroke-width:0.8000000000000002;"/></g><!--SRC=[XPLDRzim38Rl_XL4Bpq5Q9NFNWQaATfYM86XINlgHP4Psuii1PAy81ZstqVPKU98M9k34Sby7vB2I_dQRYkruuRNK6kbHMbqZU1CWzdvpOwBBIzmwGuImQ1mN1KIi-jpX2rvhlULAc33fSMi9px5_yc0VlVQv6WMMce31vHIxxE_MUOgH-WtYx3Wz7YeU47QB9EuSU0qcAee7UILXrLQPTc92bVBWtLOmrmuRUmLS0ky_GjTmdO1b53ojJQS5htjgoU3g3xKabf4-w5UkA96JKjvMhvy4acrXh2tVjXpKtCAUqMh6vCmdrylc8yIqK4_uF757qUlkt0cNMUDHU4NNMl75GKjRcvX0AzOL7GM1fRRIaeBUWFyelEMuODREHK3Wy6tyqQVn_ey3j_rEeXPB6Q9UDWNYru1iAzS2R_q6hZAOTEedDUe79SWIdABe7WILSA6PCCusJ19Dg9aSskhGXtx3jfHh1qbsZ5fdr0X5OVKfKFlTgDtsb99l76wvbGDb_80WJgEgUE4EhaykzzOLa9Y04pQ-CUJVfBefttzUwU-jh0eKMm7pIw0fX5ece1c1Ff1670bXZ8iACJSZwhV515p5Z5dMGnbDvVTjNC1xLWS8UocrT3y72d7ZJx4stMUvwHNk0UoW3duEVSbhVJWGRTb1zvjp4liojY9rx4grRBc1PB50eV5dCIvR7Ws4uULjmDLnTLdr65CJIpAl4L_QkjsMk4Nj55CIqpBl6aNN0cKNx36CIknAfkS-tqF_lYouqdCJIpCfi5vT0Vr76AXRY-x7DO7g4-6cSR0nChCMtcXbMrav-OLjrkuHxVtxDLUmmEDS1XzrjcuV_K5yYmXtxL-5lHTwYP2rpk9_YlJtP-E4WNitN-nTndTs_y0]--></g></svg>