<?xml version="1.0" encoding="us-ascii" standalone="no"?><svg xmlns="http://www.w3.org/2000/svg" xmlns:xlink="http://www.w3.org/1999/xlink" contentStyleType="text/css" height="757px" preserveAspectRatio="none" style="width:526px;height:757px;background:#FFFFFF;" version="1.1" viewBox="0 0 526 757" width="526px" zoomAndPan="magnify"><defs/><g><!--class AssignSkillUI--><g id="elem_AssignSkillUI"><rect codeLine="11" fill="#F1F1F1" height="48" id="AssignSkillUI" rx="2.5" ry="2.5" style="stroke:#181818;stroke-width:0.5;" width="111" x="160" y="7"/><ellipse cx="175" cy="23" fill="#ADD1B2" rx="11" ry="11" style="stroke:#181818;stroke-width:1.0;"/><path d="M177.7656,18.875 Q177.9219,18.6563 178.1094,18.5469 Q178.2969,18.4375 178.5156,18.4375 Q178.8906,18.4375 179.125,18.7031 Q179.3594,18.9531 179.3594,19.5625 L179.3594,21.0156 Q179.3594,21.625 179.125,21.8906 Q178.8906,22.1563 178.5156,22.1563 Q178.1719,22.1563 177.9688,21.9531 Q177.7656,21.7656 177.6563,21.25 Q177.6094,20.8906 177.4219,20.7031 Q177.0938,20.3281 176.4844,20.1094 Q175.875,19.8906 175.25,19.8906 Q174.4844,19.8906 173.8438,20.2188 Q173.2188,20.5469 172.7188,21.2969 Q172.2344,22.0469 172.2344,23.0781 L172.2344,24.1719 Q172.2344,25.4063 173.125,26.2344 Q174.0156,27.0469 175.6094,27.0469 Q176.5469,27.0469 177.2031,26.7969 Q177.5938,26.6406 178.0156,26.2031 Q178.2813,25.9375 178.4219,25.8594 Q178.5781,25.7813 178.7813,25.7813 Q179.1094,25.7813 179.3594,26.0469 Q179.625,26.2969 179.625,26.6406 Q179.625,26.9844 179.2813,27.3906 Q178.7813,27.9688 177.9844,28.2969 Q176.9063,28.75 175.6094,28.75 Q174.0938,28.75 172.8906,28.125 Q171.9063,27.625 171.2188,26.5625 Q170.5313,25.4844 170.5313,24.2031 L170.5313,23.0469 Q170.5313,21.7188 171.1406,20.5781 Q171.7656,19.4219 172.8594,18.8125 Q173.9531,18.1875 175.1875,18.1875 Q175.9219,18.1875 176.5625,18.3594 Q177.2188,18.5156 177.7656,18.875 Z " fill="#000000"/><text fill="#000000" font-family="sans-serif" font-size="14" lengthAdjust="spacing" textLength="79" x="189" y="28.7969">AssignSkillUI</text><line style="stroke:#181818;stroke-width:0.5;" x1="161" x2="270" y1="39" y2="39"/><line style="stroke:#181818;stroke-width:0.5;" x1="161" x2="270" y1="47" y2="47"/></g><!--class AssignSkillController--><g id="elem_AssignSkillController"><rect codeLine="14" fill="#F1F1F1" height="141.1055" id="AssignSkillController" rx="2.5" ry="2.5" style="stroke:#181818;stroke-width:0.5;" width="401" x="15" y="116"/><ellipse cx="146.75" cy="132" fill="#ADD1B2" rx="11" ry="11" style="stroke:#181818;stroke-width:1.0;"/><path d="M149.5156,127.875 Q149.6719,127.6563 149.8594,127.5469 Q150.0469,127.4375 150.2656,127.4375 Q150.6406,127.4375 150.875,127.7031 Q151.1094,127.9531 151.1094,128.5625 L151.1094,130.0156 Q151.1094,130.625 150.875,130.8906 Q150.6406,131.1563 150.2656,131.1563 Q149.9219,131.1563 149.7188,130.9531 Q149.5156,130.7656 149.4063,130.25 Q149.3594,129.8906 149.1719,129.7031 Q148.8438,129.3281 148.2344,129.1094 Q147.625,128.8906 147,128.8906 Q146.2344,128.8906 145.5938,129.2188 Q144.9688,129.5469 144.4688,130.2969 Q143.9844,131.0469 143.9844,132.0781 L143.9844,133.1719 Q143.9844,134.4063 144.875,135.2344 Q145.7656,136.0469 147.3594,136.0469 Q148.2969,136.0469 148.9531,135.7969 Q149.3438,135.6406 149.7656,135.2031 Q150.0313,134.9375 150.1719,134.8594 Q150.3281,134.7813 150.5313,134.7813 Q150.8594,134.7813 151.1094,135.0469 Q151.375,135.2969 151.375,135.6406 Q151.375,135.9844 151.0313,136.3906 Q150.5313,136.9688 149.7344,137.2969 Q148.6563,137.75 147.3594,137.75 Q145.8438,137.75 144.6406,137.125 Q143.6563,136.625 142.9688,135.5625 Q142.2813,134.4844 142.2813,133.2031 L142.2813,132.0469 Q142.2813,130.7188 142.8906,129.5781 Q143.5156,128.4219 144.6094,127.8125 Q145.7031,127.1875 146.9375,127.1875 Q147.6719,127.1875 148.3125,127.3594 Q148.9688,127.5156 149.5156,127.875 Z " fill="#000000"/><text fill="#000000" font-family="sans-serif" font-size="14" lengthAdjust="spacing" textLength="129" x="167.25" y="137.7969">AssignSkillController</text><line style="stroke:#181818;stroke-width:0.5;" x1="16" x2="415" y1="148" y2="148"/><line style="stroke:#181818;stroke-width:0.5;" x1="16" x2="415" y1="156" y2="156"/><text fill="#000000" font-family="sans-serif" font-size="14" lengthAdjust="spacing" textLength="389" x="21" y="175.1074">+AssignSkillController(collaboratorRepository, skillRepository)</text><text fill="#000000" font-family="sans-serif" font-size="14" lengthAdjust="spacing" textLength="171" x="21" y="193.7285">-getSkillByName(skillName)</text><text fill="#000000" font-family="sans-serif" font-size="14" lengthAdjust="spacing" textLength="276" x="21" y="212.3496">-getCollaboratorByName(collaboratorName)</text><text fill="#000000" font-family="sans-serif" font-size="14" lengthAdjust="spacing" textLength="85" x="21" y="230.9707">+getSkillList()</text><text fill="#000000" font-family="sans-serif" font-size="14" lengthAdjust="spacing" textLength="145" x="21" y="249.5918">+getCollaboratorsList()</text></g><!--class Repositories--><g id="elem_Repositories"><rect codeLine="22" fill="#F1F1F1" height="122.4844" id="Repositories" rx="2.5" ry="2.5" style="stroke:#181818;stroke-width:0.5;" width="196" x="117.5" y="336"/><ellipse cx="171.75" cy="352" fill="#ADD1B2" rx="11" ry="11" style="stroke:#181818;stroke-width:1.0;"/><path d="M174.5156,347.875 Q174.6719,347.6563 174.8594,347.5469 Q175.0469,347.4375 175.2656,347.4375 Q175.6406,347.4375 175.875,347.7031 Q176.1094,347.9531 176.1094,348.5625 L176.1094,350.0156 Q176.1094,350.625 175.875,350.8906 Q175.6406,351.1563 175.2656,351.1563 Q174.9219,351.1563 174.7188,350.9531 Q174.5156,350.7656 174.4063,350.25 Q174.3594,349.8906 174.1719,349.7031 Q173.8438,349.3281 173.2344,349.1094 Q172.625,348.8906 172,348.8906 Q171.2344,348.8906 170.5938,349.2188 Q169.9688,349.5469 169.4688,350.2969 Q168.9844,351.0469 168.9844,352.0781 L168.9844,353.1719 Q168.9844,354.4063 169.875,355.2344 Q170.7656,356.0469 172.3594,356.0469 Q173.2969,356.0469 173.9531,355.7969 Q174.3438,355.6406 174.7656,355.2031 Q175.0313,354.9375 175.1719,354.8594 Q175.3281,354.7813 175.5313,354.7813 Q175.8594,354.7813 176.1094,355.0469 Q176.375,355.2969 176.375,355.6406 Q176.375,355.9844 176.0313,356.3906 Q175.5313,356.9688 174.7344,357.2969 Q173.6563,357.75 172.3594,357.75 Q170.8438,357.75 169.6406,357.125 Q168.6563,356.625 167.9688,355.5625 Q167.2813,354.4844 167.2813,353.2031 L167.2813,352.0469 Q167.2813,350.7188 167.8906,349.5781 Q168.5156,348.4219 169.6094,347.8125 Q170.7031,347.1875 171.9375,347.1875 Q172.6719,347.1875 173.3125,347.3594 Q173.9688,347.5156 174.5156,347.875 Z " fill="#000000"/><text fill="#000000" font-family="sans-serif" font-size="14" lengthAdjust="spacing" textLength="79" x="192.25" y="357.7969">Repositories</text><line style="stroke:#181818;stroke-width:0.5;" x1="118.5" x2="312.5" y1="368" y2="368"/><line style="stroke:#181818;stroke-width:0.5;" x1="118.5" x2="312.5" y1="376" y2="376"/><text fill="#000000" font-family="sans-serif" font-size="14" lengthAdjust="spacing" textLength="94" x="123.5" y="395.1074">-Repositories()</text><text fill="#000000" font-family="sans-serif" font-size="14" lengthAdjust="spacing" textLength="178" x="123.5" y="413.7285">+getInstance(): Repositories</text><text fill="#000000" font-family="sans-serif" font-size="14" lengthAdjust="spacing" textLength="184" x="123.5" y="432.3496">+getCollaboratorRepository()</text><text fill="#000000" font-family="sans-serif" font-size="14" lengthAdjust="spacing" textLength="131" x="123.5" y="450.9707">+getSkillRepository()</text></g><!--class CollaboratorRepository--><g id="elem_CollaboratorRepository"><rect codeLine="29" fill="#F1F1F1" height="66.6211" id="CollaboratorRepository" rx="2.5" ry="2.5" style="stroke:#181818;stroke-width:0.5;" width="291" x="7" y="537"/><ellipse cx="75.25" cy="553" fill="#ADD1B2" rx="11" ry="11" style="stroke:#181818;stroke-width:1.0;"/><path d="M78.0156,548.875 Q78.1719,548.6563 78.3594,548.5469 Q78.5469,548.4375 78.7656,548.4375 Q79.1406,548.4375 79.375,548.7031 Q79.6094,548.9531 79.6094,549.5625 L79.6094,551.0156 Q79.6094,551.625 79.375,551.8906 Q79.1406,552.1563 78.7656,552.1563 Q78.4219,552.1563 78.2188,551.9531 Q78.0156,551.7656 77.9063,551.25 Q77.8594,550.8906 77.6719,550.7031 Q77.3438,550.3281 76.7344,550.1094 Q76.125,549.8906 75.5,549.8906 Q74.7344,549.8906 74.0938,550.2188 Q73.4688,550.5469 72.9688,551.2969 Q72.4844,552.0469 72.4844,553.0781 L72.4844,554.1719 Q72.4844,555.4063 73.375,556.2344 Q74.2656,557.0469 75.8594,557.0469 Q76.7969,557.0469 77.4531,556.7969 Q77.8438,556.6406 78.2656,556.2031 Q78.5313,555.9375 78.6719,555.8594 Q78.8281,555.7813 79.0313,555.7813 Q79.3594,555.7813 79.6094,556.0469 Q79.875,556.2969 79.875,556.6406 Q79.875,556.9844 79.5313,557.3906 Q79.0313,557.9688 78.2344,558.2969 Q77.1563,558.75 75.8594,558.75 Q74.3438,558.75 73.1406,558.125 Q72.1563,557.625 71.4688,556.5625 Q70.7813,555.4844 70.7813,554.2031 L70.7813,553.0469 Q70.7813,551.7188 71.3906,550.5781 Q72.0156,549.4219 73.1094,548.8125 Q74.2031,548.1875 75.4375,548.1875 Q76.1719,548.1875 76.8125,548.3594 Q77.4688,548.5156 78.0156,548.875 Z " fill="#000000"/><text fill="#000000" font-family="sans-serif" font-size="14" lengthAdjust="spacing" textLength="146" x="95.75" y="558.7969">CollaboratorRepository</text><line style="stroke:#181818;stroke-width:0.5;" x1="8" x2="297" y1="569" y2="569"/><line style="stroke:#181818;stroke-width:0.5;" x1="8" x2="297" y1="577" y2="577"/><text fill="#000000" font-family="sans-serif" font-size="14" lengthAdjust="spacing" textLength="279" x="13" y="596.1074">+getCollaboratorByName(collaboratorName)</text></g><!--class SkillRepository--><g id="elem_SkillRepository"><rect codeLine="33" fill="#F1F1F1" height="66.6211" id="SkillRepository" rx="2.5" ry="2.5" style="stroke:#181818;stroke-width:0.5;" width="186" x="333.5" y="537"/><ellipse cx="375.95" cy="553" fill="#ADD1B2" rx="11" ry="11" style="stroke:#181818;stroke-width:1.0;"/><path d="M378.7156,548.875 Q378.8719,548.6563 379.0594,548.5469 Q379.2469,548.4375 379.4656,548.4375 Q379.8406,548.4375 380.075,548.7031 Q380.3094,548.9531 380.3094,549.5625 L380.3094,551.0156 Q380.3094,551.625 380.075,551.8906 Q379.8406,552.1563 379.4656,552.1563 Q379.1219,552.1563 378.9188,551.9531 Q378.7156,551.7656 378.6063,551.25 Q378.5594,550.8906 378.3719,550.7031 Q378.0438,550.3281 377.4344,550.1094 Q376.825,549.8906 376.2,549.8906 Q375.4344,549.8906 374.7938,550.2188 Q374.1688,550.5469 373.6688,551.2969 Q373.1844,552.0469 373.1844,553.0781 L373.1844,554.1719 Q373.1844,555.4063 374.075,556.2344 Q374.9656,557.0469 376.5594,557.0469 Q377.4969,557.0469 378.1531,556.7969 Q378.5438,556.6406 378.9656,556.2031 Q379.2313,555.9375 379.3719,555.8594 Q379.5281,555.7813 379.7313,555.7813 Q380.0594,555.7813 380.3094,556.0469 Q380.575,556.2969 380.575,556.6406 Q380.575,556.9844 380.2313,557.3906 Q379.7313,557.9688 378.9344,558.2969 Q377.8563,558.75 376.5594,558.75 Q375.0438,558.75 373.8406,558.125 Q372.8563,557.625 372.1688,556.5625 Q371.4813,555.4844 371.4813,554.2031 L371.4813,553.0469 Q371.4813,551.7188 372.0906,550.5781 Q372.7156,549.4219 373.8094,548.8125 Q374.9031,548.1875 376.1375,548.1875 Q376.8719,548.1875 377.5125,548.3594 Q378.1688,548.5156 378.7156,548.875 Z " fill="#000000"/><text fill="#000000" font-family="sans-serif" font-size="14" lengthAdjust="spacing" textLength="93" x="396.05" y="558.7969">SkillRepository</text><line style="stroke:#181818;stroke-width:0.5;" x1="334.5" x2="518.5" y1="569" y2="569"/><line style="stroke:#181818;stroke-width:0.5;" x1="334.5" x2="518.5" y1="577" y2="577"/><text fill="#000000" font-family="sans-serif" font-size="14" lengthAdjust="spacing" textLength="174" x="339.5" y="596.1074">+getSkillByName(skillName)</text></g><!--class Collaborator--><g id="elem_Collaborator"><rect codeLine="37" fill="#F1F1F1" height="85.2422" id="Collaborator" rx="2.5" ry="2.5" style="stroke:#181818;stroke-width:0.5;" width="149" x="214" y="665"/><ellipse cx="246.55" cy="681" fill="#ADD1B2" rx="11" ry="11" style="stroke:#181818;stroke-width:1.0;"/><path d="M249.3156,676.875 Q249.4719,676.6563 249.6594,676.5469 Q249.8469,676.4375 250.0656,676.4375 Q250.4406,676.4375 250.675,676.7031 Q250.9094,676.9531 250.9094,677.5625 L250.9094,679.0156 Q250.9094,679.625 250.675,679.8906 Q250.4406,680.1563 250.0656,680.1563 Q249.7219,680.1563 249.5188,679.9531 Q249.3156,679.7656 249.2063,679.25 Q249.1594,678.8906 248.9719,678.7031 Q248.6438,678.3281 248.0344,678.1094 Q247.425,677.8906 246.8,677.8906 Q246.0344,677.8906 245.3938,678.2188 Q244.7688,678.5469 244.2688,679.2969 Q243.7844,680.0469 243.7844,681.0781 L243.7844,682.1719 Q243.7844,683.4063 244.675,684.2344 Q245.5656,685.0469 247.1594,685.0469 Q248.0969,685.0469 248.7531,684.7969 Q249.1438,684.6406 249.5656,684.2031 Q249.8313,683.9375 249.9719,683.8594 Q250.1281,683.7813 250.3313,683.7813 Q250.6594,683.7813 250.9094,684.0469 Q251.175,684.2969 251.175,684.6406 Q251.175,684.9844 250.8313,685.3906 Q250.3313,685.9688 249.5344,686.2969 Q248.4563,686.75 247.1594,686.75 Q245.6438,686.75 244.4406,686.125 Q243.4563,685.625 242.7688,684.5625 Q242.0813,683.4844 242.0813,682.2031 L242.0813,681.0469 Q242.0813,679.7188 242.6906,678.5781 Q243.3156,677.4219 244.4094,676.8125 Q245.5031,676.1875 246.7375,676.1875 Q247.4719,676.1875 248.1125,676.3594 Q248.7688,676.5156 249.3156,676.875 Z " fill="#000000"/><text fill="#000000" font-family="sans-serif" font-size="14" lengthAdjust="spacing" textLength="78" x="264.45" y="686.7969">Collaborator</text><line style="stroke:#181818;stroke-width:0.5;" x1="215" x2="362" y1="697" y2="697"/><text fill="#000000" font-family="sans-serif" font-size="14" lengthAdjust="spacing" textLength="137" x="220" y="716.1074">-List&lt;Skill&gt; skillAssign</text><line style="stroke:#181818;stroke-width:0.5;" x1="215" x2="362" y1="723.6211" y2="723.6211"/><text fill="#000000" font-family="sans-serif" font-size="14" lengthAdjust="spacing" textLength="107" x="220" y="742.7285">+assignSkill(skill)</text></g><!--link AssignSkillUI to AssignSkillController--><g id="link_AssignSkillUI_AssignSkillController"><path codeLine="44" d="M215.5,55.31 C215.5,71.5 215.5,87.98 215.5,109.71 " fill="none" id="AssignSkillUI-to-AssignSkillController" style="stroke:#181818;stroke-width:1.0;stroke-dasharray:7.0,7.0;"/><polygon fill="#181818" points="215.5,115.71,219.5,106.71,215.5,110.71,211.5,106.71,215.5,115.71" style="stroke:#181818;stroke-width:1.0;"/></g><!--link AssignSkillController to Repositories--><g id="link_AssignSkillController_Repositories"><path codeLine="45" d="M215.5,257.22 C215.5,282.67 215.5,305.22 215.5,329.77 " fill="none" id="AssignSkillController-to-Repositories" style="stroke:#181818;stroke-width:1.0;stroke-dasharray:7.0,7.0;"/><polygon fill="#181818" points="215.5,335.77,219.5,326.77,215.5,330.77,211.5,326.77,215.5,335.77" style="stroke:#181818;stroke-width:1.0;"/><text fill="#000000" font-family="sans-serif" font-size="13" lengthAdjust="spacing" textLength="67" x="216.5" y="302.0283">repositories</text></g><!--link AssignSkillController to CollaboratorRepository--><g id="link_AssignSkillController_CollaboratorRepository"><path codeLine="46" d="M160.9,257.4 C130.81,295.92 99.5,336 99.5,336 C99.5,336 99.5,458 99.5,458 C99.5,458 118.8033,498.6215 134.4533,531.5315 " fill="none" id="AssignSkillController-to-CollaboratorRepository" style="stroke:#181818;stroke-width:1.0;stroke-dasharray:7.0,7.0;"/><polygon fill="#181818" points="137.03,536.95,136.7773,527.1044,134.8827,532.4346,129.5526,530.54,137.03,536.95" style="stroke:#181818;stroke-width:1.0;"/></g><!--link AssignSkillController to SkillRepository--><g id="link_AssignSkillController_SkillRepository"><path codeLine="47" d="M307,257.18 C357.67,295.77 410.5,336 410.5,336 C410.5,336 419.4198,466.194 423.8298,530.554 " fill="none" id="AssignSkillController-to-SkillRepository" style="stroke:#181818;stroke-width:1.0;stroke-dasharray:7.0,7.0;"/><polygon fill="#181818" points="424.24,536.54,427.6154,527.2876,423.8982,531.5517,419.6341,527.8345,424.24,536.54" style="stroke:#181818;stroke-width:1.0;"/><text fill="#000000" font-family="sans-serif" font-size="13" lengthAdjust="spacing" textLength="87" x="419.5" y="402.5283">SkillRepository</text></g><!--link Repositories to Repositories--><g id="link_Repositories_Repositories"><path codeLine="48" d="M313.52,378.91 C333.87,380.81 348.5,386.84 348.5,397 C348.5,407.16 339.844,412.6322 319.494,414.5322 " fill="none" id="Repositories-to-Repositories" style="stroke:#181818;stroke-width:1.0;"/><polygon fill="#181818" points="313.52,415.09,322.8529,418.236,318.4983,414.6252,322.1092,410.2707,313.52,415.09" style="stroke:#181818;stroke-width:1.0;"/><text fill="#000000" font-family="sans-serif" font-size="13" lengthAdjust="spacing" textLength="49" x="354.5" y="402.5283">instance</text></g><!--link Repositories to CollaboratorRepository--><g id="link_Repositories_CollaboratorRepository"><path codeLine="49" d="M193.29,458.46 C183.58,484.89 174.649,509.198 166.519,531.328 " fill="none" id="Repositories-to-CollaboratorRepository" style="stroke:#181818;stroke-width:1.0;"/><polygon fill="#181818" points="164.45,536.96,171.3082,529.8914,166.1742,532.2667,163.7989,527.1327,164.45,536.96" style="stroke:#181818;stroke-width:1.0;"/><text fill="#000000" font-family="sans-serif" font-size="13" lengthAdjust="spacing" textLength="131" x="183.5" y="503.0283">CollaboratorRepository</text></g><!--link Repositories to SkillRepository--><g id="link_Repositories_SkillRepository"><path codeLine="50" d="M289.59,458.22 C322.13,484.67 354.3932,510.8966 381.6932,533.0766 " fill="none" id="Repositories-to-SkillRepository" style="stroke:#181818;stroke-width:1.0;"/><polygon fill="#181818" points="386.35,536.86,381.8871,528.0803,382.4693,533.7071,376.8425,534.2894,386.35,536.86" style="stroke:#181818;stroke-width:1.0;"/></g><!--link CollaboratorRepository to Collaborator--><g id="link_CollaboratorRepository_Collaborator"><path codeLine="51" d="M185.42,604.18 C203.82,622.44 222.6722,641.1525 242.3422,660.6825 " fill="none" id="CollaboratorRepository-to-Collaborator" style="stroke:#181818;stroke-width:1.0;"/><polygon fill="#181818" points="246.6,664.91,243.0317,655.7303,243.0519,661.3871,237.395,661.4073,246.6,664.91" style="stroke:#181818;stroke-width:1.0;"/></g><!--link SkillRepository to Collaborator--><g id="link_SkillRepository_Collaborator"><path codeLine="52" d="M393.09,604.18 C374.43,622.44 355.2696,641.1849 335.2996,660.7149 " fill="none" id="SkillRepository-to-Collaborator" style="stroke:#181818;stroke-width:1.0;"/><polygon fill="#181818" points="331.01,664.91,340.2412,661.4771,334.5847,661.4141,334.6477,655.7576,331.01,664.91" style="stroke:#181818;stroke-width:1.0;"/></g><!--SRC=[VLF1ReCm3BtdAtmhLKUrCvegTJrLcdOOsWUarAKH8K69gubL-_T1O4rAmxWGxFUUdnspi9LG3JUyXbehNPoDhX78N93vJCEBYfUOKoiH31R4LIb3W3tpe_uIgeGJbpRCIA6GsWQXqRBjFzWYajI6D0jOXUJMRecCE5m8zuLMkVX6U6Pi8V54G1gCACy4Hz7R4LenvZYmjLQKAg-4b9_xA_k9n7TQaT5Iehaow9vLD9SKtOiVjE6apGSssehkq3w1xN4-i7GQQOda15xRTrvZua3zoQTtWTw82ajuyEfFwqrOIdmi5B1ZxjRVpP10wzfAmyYWqelibUrkhy1acTrnMAI8RzBpy_lkGmjnAboZ3SnEu2OtgHJep0mwQWH6NjeFxCKnDyCL3hS-Y7A_0OEYKsFiRfjWlTx4zuX5emuVpZZh_frWulEa-2J_8KncbKq3BBG1QJhr9SQjUCJ5hMHp5X_uKoCpIp8jnQQt_m3u1G00]--></g></svg>