<?xml version="1.0" encoding="us-ascii" standalone="no"?><svg xmlns="http://www.w3.org/2000/svg" xmlns:xlink="http://www.w3.org/1999/xlink" contentStyleType="text/css" height="1002px" preserveAspectRatio="none" style="width:1771px;height:1002px;background:#FFFFFF;" version="1.1" viewBox="0 0 1771 1002" width="1771px" zoomAndPan="magnify"><defs/><g><rect fill="#FFFFFF" height="770.2852" style="stroke:#181818;stroke-width:1.0;" width="10" x="61" y="112.2422"/><rect fill="#FFFFFF" height="142.125" style="stroke:#181818;stroke-width:1.0;" width="10" x="403" y="135.5332"/><rect fill="#FFFFFF" height="142.125" style="stroke:#181818;stroke-width:1.0;" width="10" x="403" y="308.9492"/><rect fill="#FFFFFF" height="31.291" style="stroke:#181818;stroke-width:1.0;" width="10" x="403" y="482.3652"/><rect fill="#FFFFFF" height="337.5801" style="stroke:#181818;stroke-width:1.0;" width="10" x="403" y="544.9473"/><rect fill="#FFFFFF" height="79.543" style="stroke:#181818;stroke-width:1.0;" width="10" x="767" y="166.8242"/><rect fill="#FFFFFF" height="79.543" style="stroke:#181818;stroke-width:1.0;" width="10" x="767" y="340.2402"/><rect fill="#FFFFFF" height="274.998" style="stroke:#181818;stroke-width:1.0;" width="10" x="767" y="576.2383"/><rect fill="#FFFFFF" height="90.543" style="stroke:#181818;stroke-width:1.0;" width="10" x="772" y="615.5293"/><rect fill="#FFFFFF" height="75.582" style="stroke:#181818;stroke-width:1.0;" width="10" x="1583.5" y="744.3633"/><line style="stroke:#181818;stroke-width:0.5;stroke-dasharray:5.0,5.0;" x1="66" x2="66" y1="102.2422" y2="900.5273"/><line style="stroke:#181818;stroke-width:0.5;stroke-dasharray:5.0,5.0;" x1="407.5" x2="407.5" y1="102.2422" y2="900.5273"/><line style="stroke:#181818;stroke-width:0.5;stroke-dasharray:5.0,5.0;" x1="772" x2="772" y1="102.2422" y2="900.5273"/><line style="stroke:#181818;stroke-width:0.5;stroke-dasharray:5.0,5.0;" x1="1063.5" x2="1063.5" y1="102.2422" y2="900.5273"/><line style="stroke:#181818;stroke-width:0.5;stroke-dasharray:5.0,5.0;" x1="1170.5" x2="1170.5" y1="102.2422" y2="900.5273"/><line style="stroke:#181818;stroke-width:0.5;stroke-dasharray:5.0,5.0;" x1="1287.5" x2="1287.5" y1="102.2422" y2="900.5273"/><line style="stroke:#181818;stroke-width:0.5;stroke-dasharray:5.0,5.0;" x1="1442.5" x2="1442.5" y1="102.2422" y2="900.5273"/><line style="stroke:#181818;stroke-width:0.5;stroke-dasharray:5.0,5.0;" x1="1588.5" x2="1588.5" y1="102.2422" y2="900.5273"/><text fill="#000000" font-family="sans-serif" font-size="14" lengthAdjust="spacing" textLength="116" x="5" y="80.1074">Human Resources</text><text fill="#000000" font-family="sans-serif" font-size="14" lengthAdjust="spacing" textLength="56" x="37" y="98.7285">Manager</text><ellipse cx="66" cy="13.5" fill="#E3E3E3" rx="8" ry="8" style="stroke:#181818;stroke-width:0.5;"/><path d="M66,21.5 L66,48.5 M53,29.5 L79,29.5 M66,48.5 L53,63.5 M66,48.5 L79,63.5 " fill="none" style="stroke:#181818;stroke-width:0.5;"/><text fill="#000000" font-family="sans-serif" font-size="14" lengthAdjust="spacing" textLength="116" x="5" y="914.6348">Human Resources</text><text fill="#000000" font-family="sans-serif" font-size="14" lengthAdjust="spacing" textLength="56" x="37" y="933.2559">Manager</text><ellipse cx="66" cy="945.2695" fill="#E3E3E3" rx="8" ry="8" style="stroke:#181818;stroke-width:0.5;"/><path d="M66,953.2695 L66,980.2695 M53,961.2695 L79,961.2695 M66,980.2695 L53,995.2695 M66,980.2695 L79,995.2695 " fill="none" style="stroke:#181818;stroke-width:0.5;"/><rect fill="#E3E3E3" height="32.6211" rx="2.5" ry="2.5" style="stroke:#181818;stroke-width:0.5;" width="97" x="359.5" y="68.6211"/><text fill="#000000" font-family="sans-serif" font-size="14" lengthAdjust="spacing" textLength="83" x="366.5" y="90.7285">:AssignSkillUI</text><rect fill="#E3E3E3" height="32.6211" rx="2.5" ry="2.5" style="stroke:#181818;stroke-width:0.5;" width="97" x="359.5" y="899.5273"/><text fill="#000000" font-family="sans-serif" font-size="14" lengthAdjust="spacing" textLength="83" x="366.5" y="921.6348">:AssignSkillUI</text><rect fill="#E3E3E3" height="32.6211" rx="2.5" ry="2.5" style="stroke:#181818;stroke-width:0.5;" width="150" x="697" y="68.6211"/><text fill="#000000" font-family="sans-serif" font-size="14" lengthAdjust="spacing" textLength="136" x="704" y="90.7285">:AssignSkillControlller</text><rect fill="#E3E3E3" height="32.6211" rx="2.5" ry="2.5" style="stroke:#181818;stroke-width:0.5;" width="150" x="697" y="899.5273"/><text fill="#000000" font-family="sans-serif" font-size="14" lengthAdjust="spacing" textLength="136" x="704" y="921.6348">:AssignSkillControlller</text><rect fill="#E3E3E3" height="32.6211" rx="2.5" ry="2.5" style="stroke:#181818;stroke-width:0.5;" width="97" x="1015.5" y="68.6211"/><text fill="#000000" font-family="sans-serif" font-size="14" lengthAdjust="spacing" textLength="83" x="1022.5" y="90.7285">:Repositories</text><rect fill="#E3E3E3" height="32.6211" rx="2.5" ry="2.5" style="stroke:#181818;stroke-width:0.5;" width="97" x="1015.5" y="899.5273"/><text fill="#000000" font-family="sans-serif" font-size="14" lengthAdjust="spacing" textLength="83" x="1022.5" y="921.6348">:Repositories</text><rect fill="#E3E3E3" height="51.2422" rx="2.5" ry="2.5" style="stroke:#181818;stroke-width:0.5;" width="97" x="1122.5" y="50"/><text fill="#000000" font-family="sans-serif" font-size="14" lengthAdjust="spacing" textLength="74" x="1134" y="72.1074">repositories</text><text fill="#000000" font-family="sans-serif" font-size="14" lengthAdjust="spacing" textLength="83" x="1129.5" y="90.7285">:Repositories</text><rect fill="#E3E3E3" height="51.2422" rx="2.5" ry="2.5" style="stroke:#181818;stroke-width:0.5;" width="97" x="1122.5" y="899.5273"/><text fill="#000000" font-family="sans-serif" font-size="14" lengthAdjust="spacing" textLength="74" x="1134" y="921.6348">repositories</text><text fill="#000000" font-family="sans-serif" font-size="14" lengthAdjust="spacing" textLength="83" x="1129.5" y="940.2559">:Repositories</text><rect fill="#E3E3E3" height="51.2422" rx="2.5" ry="2.5" style="stroke:#181818;stroke-width:0.5;" width="116" x="1229.5" y="50"/><text fill="#000000" font-family="sans-serif" font-size="14" lengthAdjust="spacing" textLength="102" x="1236.5" y="72.1074">skillsRepository:</text><text fill="#000000" font-family="sans-serif" font-size="14" lengthAdjust="spacing" textLength="100" x="1237.5" y="90.7285">SkillsRepository</text><rect fill="#E3E3E3" height="51.2422" rx="2.5" ry="2.5" style="stroke:#181818;stroke-width:0.5;" width="116" x="1229.5" y="899.5273"/><text fill="#000000" font-family="sans-serif" font-size="14" lengthAdjust="spacing" textLength="102" x="1236.5" y="921.6348">skillsRepository:</text><text fill="#000000" font-family="sans-serif" font-size="14" lengthAdjust="spacing" textLength="100" x="1237.5" y="940.2559">SkillsRepository</text><rect fill="#E3E3E3" height="51.2422" rx="2.5" ry="2.5" style="stroke:#181818;stroke-width:0.5;" width="175" x="1355.5" y="50"/><text fill="#000000" font-family="sans-serif" font-size="14" lengthAdjust="spacing" textLength="154" x="1366" y="72.1074">collaboratorsRepository:</text><text fill="#000000" font-family="sans-serif" font-size="14" lengthAdjust="spacing" textLength="161" x="1362.5" y="90.7285">&#171;CollaboratorsRepository</text><rect fill="#E3E3E3" height="51.2422" rx="2.5" ry="2.5" style="stroke:#181818;stroke-width:0.5;" width="175" x="1355.5" y="899.5273"/><text fill="#000000" font-family="sans-serif" font-size="14" lengthAdjust="spacing" textLength="154" x="1366" y="921.6348">collaboratorsRepository:</text><text fill="#000000" font-family="sans-serif" font-size="14" lengthAdjust="spacing" textLength="161" x="1362.5" y="940.2559">&#171;CollaboratorsRepository</text><rect fill="#E3E3E3" height="51.2422" rx="2.5" ry="2.5" style="stroke:#181818;stroke-width:0.5;" width="96" x="1540.5" y="50"/><text fill="#000000" font-family="sans-serif" font-size="14" lengthAdjust="spacing" textLength="75" x="1551" y="72.1074">collaborator</text><text fill="#000000" font-family="sans-serif" font-size="14" lengthAdjust="spacing" textLength="82" x="1547.5" y="90.7285">:Collaborator</text><rect fill="#E3E3E3" height="51.2422" rx="2.5" ry="2.5" style="stroke:#181818;stroke-width:0.5;" width="96" x="1540.5" y="899.5273"/><text fill="#000000" font-family="sans-serif" font-size="14" lengthAdjust="spacing" textLength="75" x="1551" y="921.6348">collaborator</text><text fill="#000000" font-family="sans-serif" font-size="14" lengthAdjust="spacing" textLength="82" x="1547.5" y="940.2559">:Collaborator</text><rect fill="#FFFFFF" height="770.2852" style="stroke:#181818;stroke-width:1.0;" width="10" x="61" y="112.2422"/><rect fill="#FFFFFF" height="142.125" style="stroke:#181818;stroke-width:1.0;" width="10" x="403" y="135.5332"/><rect fill="#FFFFFF" height="142.125" style="stroke:#181818;stroke-width:1.0;" width="10" x="403" y="308.9492"/><rect fill="#FFFFFF" height="31.291" style="stroke:#181818;stroke-width:1.0;" width="10" x="403" y="482.3652"/><rect fill="#FFFFFF" height="337.5801" style="stroke:#181818;stroke-width:1.0;" width="10" x="403" y="544.9473"/><rect fill="#FFFFFF" height="79.543" style="stroke:#181818;stroke-width:1.0;" width="10" x="767" y="166.8242"/><rect fill="#FFFFFF" height="79.543" style="stroke:#181818;stroke-width:1.0;" width="10" x="767" y="340.2402"/><rect fill="#FFFFFF" height="274.998" style="stroke:#181818;stroke-width:1.0;" width="10" x="767" y="576.2383"/><rect fill="#FFFFFF" height="90.543" style="stroke:#181818;stroke-width:1.0;" width="10" x="772" y="615.5293"/><rect fill="#FFFFFF" height="75.582" style="stroke:#181818;stroke-width:1.0;" width="10" x="1583.5" y="744.3633"/><polygon fill="#181818" points="391,131.5332,401,135.5332,391,139.5332,395,135.5332" style="stroke:#181818;stroke-width:1.0;"/><line style="stroke:#181818;stroke-width:1.0;" x1="71" x2="397" y1="135.5332" y2="135.5332"/><text fill="#000000" font-family="sans-serif" font-size="13" font-weight="bold" lengthAdjust="spacing" textLength="7" x="78" y="130.2705">1</text><text fill="#000000" font-family="sans-serif" font-size="13" lengthAdjust="spacing" textLength="216" x="89" y="130.2705">asks to assign skills to a collaborator</text><polygon fill="#181818" points="755,162.8242,765,166.8242,755,170.8242,759,166.8242" style="stroke:#181818;stroke-width:1.0;"/><line style="stroke:#181818;stroke-width:1.0;" x1="413" x2="761" y1="166.8242" y2="166.8242"/><text fill="#000000" font-family="sans-serif" font-size="13" font-weight="bold" lengthAdjust="spacing" textLength="7" x="420" y="161.5615">2</text><text fill="#000000" font-family="sans-serif" font-size="13" lengthAdjust="spacing" textLength="123" x="431" y="161.5615">getCollaboratorsList()</text><rect fill="none" height="43.252" style="stroke:#000000;stroke-width:1.5;" width="156" x="694" y="174.8242"/><path d="M694,174.8242 L756,174.8242 L756,183.8242 L746,193.8242 L694,193.8242 L694,174.8242 " fill="#EEEEEE" style="stroke:#000000;stroke-width:2.0;"/><text fill="#000000" font-family="sans-serif" font-size="13" font-weight="bold" lengthAdjust="spacing" textLength="17" x="707" y="190.8525">ref</text><text fill="#000000" font-family="sans-serif" font-size="12" lengthAdjust="spacing" textLength="113" x="715.5" y="210.7734">Get Collaborator List</text><polygon fill="#181818" points="424,242.3672,414,246.3672,424,250.3672,420,246.3672" style="stroke:#181818;stroke-width:1.0;"/><line style="stroke:#181818;stroke-width:1.0;stroke-dasharray:2.0,2.0;" x1="418" x2="771" y1="246.3672" y2="246.3672"/><text fill="#000000" font-family="sans-serif" font-size="13" font-weight="bold" lengthAdjust="spacing" textLength="7" x="430" y="241.1045">3</text><text fill="#000000" font-family="sans-serif" font-size="13" lengthAdjust="spacing" textLength="97" x="441" y="241.1045">CollaboratorsList</text><polygon fill="#181818" points="82,273.6582,72,277.6582,82,281.6582,78,277.6582" style="stroke:#181818;stroke-width:1.0;"/><line style="stroke:#181818;stroke-width:1.0;stroke-dasharray:2.0,2.0;" x1="76" x2="407" y1="277.6582" y2="277.6582"/><text fill="#000000" font-family="sans-serif" font-size="13" font-weight="bold" lengthAdjust="spacing" textLength="7" x="88" y="272.3955">4</text><text fill="#000000" font-family="sans-serif" font-size="13" lengthAdjust="spacing" textLength="297" x="99" y="272.3955">displays list of collaborators and asks to select one</text><polygon fill="#181818" points="391,304.9492,401,308.9492,391,312.9492,395,308.9492" style="stroke:#181818;stroke-width:1.0;"/><line style="stroke:#181818;stroke-width:1.0;" x1="71" x2="397" y1="308.9492" y2="308.9492"/><text fill="#000000" font-family="sans-serif" font-size="13" font-weight="bold" lengthAdjust="spacing" textLength="7" x="78" y="303.6865">5</text><text fill="#000000" font-family="sans-serif" font-size="13" lengthAdjust="spacing" textLength="135" x="89" y="303.6865">selects the collaborator</text><polygon fill="#181818" points="755,336.2402,765,340.2402,755,344.2402,759,340.2402" style="stroke:#181818;stroke-width:1.0;"/><line style="stroke:#181818;stroke-width:1.0;" x1="413" x2="761" y1="340.2402" y2="340.2402"/><text fill="#000000" font-family="sans-serif" font-size="13" font-weight="bold" lengthAdjust="spacing" textLength="7" x="420" y="334.9775">6</text><text fill="#000000" font-family="sans-serif" font-size="13" lengthAdjust="spacing" textLength="79" x="431" y="334.9775">getSkillsList()</text><rect fill="none" height="43.252" style="stroke:#000000;stroke-width:1.5;" width="156" x="694" y="348.2402"/><path d="M694,348.2402 L756,348.2402 L756,357.2402 L746,367.2402 L694,367.2402 L694,348.2402 " fill="#EEEEEE" style="stroke:#000000;stroke-width:2.0;"/><text fill="#000000" font-family="sans-serif" font-size="13" font-weight="bold" lengthAdjust="spacing" textLength="17" x="707" y="364.2686">ref</text><text fill="#000000" font-family="sans-serif" font-size="12" lengthAdjust="spacing" textLength="75" x="734.5" y="384.1895">Get Skills List</text><polygon fill="#181818" points="424,415.7832,414,419.7832,424,423.7832,420,419.7832" style="stroke:#181818;stroke-width:1.0;"/><line style="stroke:#181818;stroke-width:1.0;stroke-dasharray:2.0,2.0;" x1="418" x2="771" y1="419.7832" y2="419.7832"/><text fill="#000000" font-family="sans-serif" font-size="13" font-weight="bold" lengthAdjust="spacing" textLength="7" x="430" y="414.5205">7</text><text fill="#000000" font-family="sans-serif" font-size="13" lengthAdjust="spacing" textLength="53" x="441" y="414.5205">SkillsList</text><polygon fill="#181818" points="82,447.0742,72,451.0742,82,455.0742,78,451.0742" style="stroke:#181818;stroke-width:1.0;"/><line style="stroke:#181818;stroke-width:1.0;stroke-dasharray:2.0,2.0;" x1="76" x2="407" y1="451.0742" y2="451.0742"/><text fill="#000000" font-family="sans-serif" font-size="13" font-weight="bold" lengthAdjust="spacing" textLength="7" x="88" y="445.8115">8</text><text fill="#000000" font-family="sans-serif" font-size="13" lengthAdjust="spacing" textLength="117" x="99" y="445.8115">displays list of skills</text><polygon fill="#181818" points="391,478.3652,401,482.3652,391,486.3652,395,482.3652" style="stroke:#181818;stroke-width:1.0;"/><line style="stroke:#181818;stroke-width:1.0;" x1="71" x2="397" y1="482.3652" y2="482.3652"/><text fill="#000000" font-family="sans-serif" font-size="13" font-weight="bold" lengthAdjust="spacing" textLength="7" x="78" y="477.1025">9</text><text fill="#000000" font-family="sans-serif" font-size="13" lengthAdjust="spacing" textLength="251" x="89" y="477.1025">selects skills and assign to the collaborator</text><polygon fill="#181818" points="82,509.6563,72,513.6563,82,517.6563,78,513.6563" style="stroke:#181818;stroke-width:1.0;"/><line style="stroke:#181818;stroke-width:1.0;stroke-dasharray:2.0,2.0;" x1="76" x2="407" y1="513.6563" y2="513.6563"/><text fill="#000000" font-family="sans-serif" font-size="13" font-weight="bold" lengthAdjust="spacing" textLength="14" x="88" y="508.3936">10</text><text fill="#000000" font-family="sans-serif" font-size="13" lengthAdjust="spacing" textLength="236" x="106" y="508.3936">shows all data and requests confirmation</text><polygon fill="#181818" points="391,540.9473,401,544.9473,391,548.9473,395,544.9473" style="stroke:#181818;stroke-width:1.0;"/><line style="stroke:#181818;stroke-width:1.0;" x1="71" x2="397" y1="544.9473" y2="544.9473"/><text fill="#000000" font-family="sans-serif" font-size="13" font-weight="bold" lengthAdjust="spacing" textLength="14" x="78" y="539.6846">11</text><text fill="#000000" font-family="sans-serif" font-size="13" lengthAdjust="spacing" textLength="78" x="96" y="539.6846">confirms data</text><polygon fill="#181818" points="755,572.2383,765,576.2383,755,580.2383,759,576.2383" style="stroke:#181818;stroke-width:1.0;"/><line style="stroke:#181818;stroke-width:1.0;" x1="413" x2="761" y1="576.2383" y2="576.2383"/><text fill="#000000" font-family="sans-serif" font-size="13" font-weight="bold" lengthAdjust="spacing" textLength="14" x="420" y="570.9756">12</text><text fill="#000000" font-family="sans-serif" font-size="13" lengthAdjust="spacing" textLength="317" x="438" y="570.9756">assignSkillToCollaborator (collaborator, skillsToAssign)</text><line style="stroke:#181818;stroke-width:1.0;" x1="777" x2="824" y1="602.5293" y2="602.5293"/><line style="stroke:#181818;stroke-width:1.0;" x1="824" x2="824" y1="602.5293" y2="615.5293"/><line style="stroke:#181818;stroke-width:1.0;" x1="783" x2="824" y1="615.5293" y2="615.5293"/><polygon fill="#181818" points="793,611.5293,783,615.5293,793,619.5293,789,615.5293" style="stroke:#181818;stroke-width:1.0;"/><text fill="#000000" font-family="sans-serif" font-size="13" font-weight="bold" lengthAdjust="spacing" textLength="14" x="789" y="597.2666">13</text><text fill="#000000" font-family="sans-serif" font-size="13" lengthAdjust="spacing" textLength="250" x="807" y="597.2666">getCollaboratorByName (collaboratorName)</text><rect fill="none" height="43.252" style="stroke:#000000;stroke-width:1.5;" width="156" x="694" y="628.5293"/><path d="M694,628.5293 L756,628.5293 L756,637.5293 L746,647.5293 L694,647.5293 L694,628.5293 " fill="#EEEEEE" style="stroke:#000000;stroke-width:2.0;"/><text fill="#000000" font-family="sans-serif" font-size="13" font-weight="bold" lengthAdjust="spacing" textLength="17" x="707" y="644.5576">ref</text><text fill="#000000" font-family="sans-serif" font-size="12" lengthAdjust="spacing" textLength="128" x="708" y="664.4785">Get Collaborator Object</text><line style="stroke:#181818;stroke-width:1.0;stroke-dasharray:2.0,2.0;" x1="782" x2="824" y1="705.0723" y2="705.0723"/><line style="stroke:#181818;stroke-width:1.0;stroke-dasharray:2.0,2.0;" x1="824" x2="824" y1="705.0723" y2="718.0723"/><line style="stroke:#181818;stroke-width:1.0;stroke-dasharray:2.0,2.0;" x1="777" x2="824" y1="718.0723" y2="718.0723"/><polygon fill="#181818" points="787,714.0723,777,718.0723,787,722.0723,783,718.0723" style="stroke:#181818;stroke-width:1.0;"/><text fill="#000000" font-family="sans-serif" font-size="13" font-weight="bold" lengthAdjust="spacing" textLength="14" x="789" y="699.8096">14</text><text fill="#000000" font-family="sans-serif" font-size="13" lengthAdjust="spacing" textLength="67" x="807" y="699.8096">collaborator</text><polygon fill="#181818" points="1571.5,740.3633,1581.5,744.3633,1571.5,748.3633,1575.5,744.3633" style="stroke:#181818;stroke-width:1.0;"/><line style="stroke:#181818;stroke-width:1.0;" x1="777" x2="1577.5" y1="744.3633" y2="744.3633"/><text fill="#000000" font-family="sans-serif" font-size="13" font-weight="bold" lengthAdjust="spacing" textLength="14" x="784" y="739.1006">15</text><text fill="#000000" font-family="sans-serif" font-size="13" lengthAdjust="spacing" textLength="317" x="802" y="739.1006">assignSkillToCollaborator (collaborator, skillsToAssign)</text><line style="stroke:#181818;stroke-width:1.0;" x1="1593.5" x2="1635.5" y1="775.6543" y2="775.6543"/><line style="stroke:#181818;stroke-width:1.0;" x1="1635.5" x2="1635.5" y1="775.6543" y2="788.6543"/><line style="stroke:#181818;stroke-width:1.0;" x1="1594.5" x2="1635.5" y1="788.6543" y2="788.6543"/><polygon fill="#181818" points="1604.5,784.6543,1594.5,788.6543,1604.5,792.6543,1600.5,788.6543" style="stroke:#181818;stroke-width:1.0;"/><text fill="#000000" font-family="sans-serif" font-size="13" font-weight="bold" lengthAdjust="spacing" textLength="14" x="1600.5" y="770.3916">16</text><text fill="#000000" font-family="sans-serif" font-size="13" lengthAdjust="spacing" textLength="146" x="1618.5" y="770.3916">assignSkillToCollaborator</text><polygon fill="#181818" points="788,815.9453,778,819.9453,788,823.9453,784,819.9453" style="stroke:#181818;stroke-width:1.0;"/><line style="stroke:#181818;stroke-width:1.0;stroke-dasharray:2.0,2.0;" x1="782" x2="1587.5" y1="819.9453" y2="819.9453"/><text fill="#000000" font-family="sans-serif" font-size="13" font-weight="bold" lengthAdjust="spacing" textLength="14" x="794" y="814.6826">17</text><text fill="#000000" font-family="sans-serif" font-size="13" lengthAdjust="spacing" textLength="67" x="812" y="814.6826">collaborator</text><polygon fill="#181818" points="424,847.2363,414,851.2363,424,855.2363,420,851.2363" style="stroke:#181818;stroke-width:1.0;"/><line style="stroke:#181818;stroke-width:1.0;stroke-dasharray:2.0,2.0;" x1="418" x2="771" y1="851.2363" y2="851.2363"/><text fill="#000000" font-family="sans-serif" font-size="13" font-weight="bold" lengthAdjust="spacing" textLength="14" x="430" y="845.9736">18</text><text fill="#000000" font-family="sans-serif" font-size="13" lengthAdjust="spacing" textLength="67" x="448" y="845.9736">collaborator</text><polygon fill="#181818" points="77,878.5273,67,882.5273,77,886.5273,73,882.5273" style="stroke:#181818;stroke-width:1.0;"/><line style="stroke:#181818;stroke-width:1.0;stroke-dasharray:2.0,2.0;" x1="71" x2="407" y1="882.5273" y2="882.5273"/><text fill="#000000" font-family="sans-serif" font-size="13" font-weight="bold" lengthAdjust="spacing" textLength="14" x="83" y="877.2646">19</text><text fill="#000000" font-family="sans-serif" font-size="13" lengthAdjust="spacing" textLength="158" x="101" y="877.2646">displays operation success</text><!--SRC=[hLR1Zjem4BtxAqPxwI9rVu139HPLNIIsL05kN4moW8jZfxQpMxwfVz4lwyG942SXcsth2uepy_pclV44UnGguuQda6gbuuFHAO8pEJ9xUPFn-CZtk7GdYM0mTbpjPJt07dYYNuNQmuvBYupnt6cLfriqZ7quY0HXfxNRwf-CnquRk7lAKwuWGgjp4wFTA7ZcYiumTy0jF4NFZ92TY4N6bOExySHQiLVBev1oFVCnwzdjaAbMpcWfPOKtNKNpHdI4cRQ2k0YqFYRw_2qCCRM8ZUfCM8OPjZZRNW9Fuqr9fxRbCvkR8KfCnFbM6qwlGh3VlwRTxppgZRpRu5HK7QzKQZ6VJnuNqMIrY5XXbdZX3hqX3Af53_3mYGo0CQKSBJXDluNuK2hWDm8-r-GB9FbtsIGe0YnS8iWzkg3CkR3kVjG6yAPUjejbS0Vw1Ktv2Xhh2pge0qC174IXIWgC4DIpUZZNss8Mn2ROmwueac0AzSQG29j9Vh8W2GFqBdGFE34vIsjHqfK3hP1rd7EMiMvAcK791mnTw3IWANxPdVzJzHBnh_I-aXacTB_8PNkoTqXODNJfXsznScIOhYqwzg1V2KfAIBZZ7jFWZnojAowlsWcJSYUq6iAlYhSUYWsuMEEAlnTqfOEBS5ylvcDLyqgN0tN4MfxsD4FeuldenfL-F7tbz9K9ZYrsHfrG0qxhRy6R0s2n_KucTyPtjcQhHSlgMgtGNBrZeQLORGB_WsdzIWPJlfDDBQB92dfe3K6xJfjtAHTmPZSzMS_Um6swqJsZQzD3PsZynGIRn_HdfNE0r1wBZ-KV]--></g></svg>