<?xml version="1.0" encoding="us-ascii" standalone="no"?><svg xmlns="http://www.w3.org/2000/svg" xmlns:xlink="http://www.w3.org/1999/xlink" contentStyleType="text/css" height="479px" preserveAspectRatio="none" style="width:379px;height:479px;background:#FFFFFF;" version="1.1" viewBox="0 0 379 479" width="379px" zoomAndPan="magnify"><defs/><g><text fill="#000000" font-family="sans-serif" font-size="14" font-weight="bold" lengthAdjust="spacing" textLength="351" x="10" y="30.1074">System Sequence Diagram (SSD) - Alternative One</text><rect fill="#FFFFFF" height="254.6191" style="stroke:#181818;stroke-width:1.0;" width="10" x="20.25" y="133.2422"/><rect fill="#FFFFFF" height="31.291" style="stroke:#181818;stroke-width:1.0;" width="10" x="323.25" y="156.5332"/><rect fill="#FFFFFF" height="65.873" style="stroke:#181818;stroke-width:1.0;" width="10" x="323.25" y="219.1152"/><rect fill="#FFFFFF" height="31.291" style="stroke:#181818;stroke-width:1.0;" width="10" x="323.25" y="347.5703"/><line style="stroke:#181818;stroke-width:0.5;stroke-dasharray:5.0,5.0;" x1="24.75" x2="24.75" y1="123.2422" y2="396.8613"/><line style="stroke:#181818;stroke-width:0.5;stroke-dasharray:5.0,5.0;" x1="328.25" x2="328.25" y1="123.2422" y2="396.8613"/><text fill="#000000" font-family="sans-serif" font-size="14" lengthAdjust="spacing" textLength="20" x="12.25" y="119.7285">FM</text><ellipse cx="25.25" cy="53.1211" fill="#E3E3E3" rx="8" ry="8" style="stroke:#181818;stroke-width:0.5;"/><path d="M25.25,61.1211 L25.25,88.1211 M12.25,69.1211 L38.25,69.1211 M25.25,88.1211 L12.25,103.1211 M25.25,88.1211 L38.25,103.1211 " fill="none" style="stroke:#181818;stroke-width:0.5;"/><text fill="#000000" font-family="sans-serif" font-size="14" lengthAdjust="spacing" textLength="20" x="12.25" y="410.9688">FM</text><ellipse cx="25.25" cy="422.9824" fill="#E3E3E3" rx="8" ry="8" style="stroke:#181818;stroke-width:0.5;"/><path d="M25.25,430.9824 L25.25,457.9824 M12.25,438.9824 L38.25,438.9824 M25.25,457.9824 L12.25,472.9824 M25.25,457.9824 L38.25,472.9824 " fill="none" style="stroke:#181818;stroke-width:0.5;"/><rect fill="#E3E3E3" height="32.6211" rx="2.5" ry="2.5" style="stroke:#181818;stroke-width:0.5;" width="64" x="296.25" y="89.6211"/><text fill="#000000" font-family="sans-serif" font-size="14" lengthAdjust="spacing" textLength="50" x="303.25" y="111.7285">:System</text><rect fill="#E3E3E3" height="32.6211" rx="2.5" ry="2.5" style="stroke:#181818;stroke-width:0.5;" width="64" x="296.25" y="395.8613"/><text fill="#000000" font-family="sans-serif" font-size="14" lengthAdjust="spacing" textLength="50" x="303.25" y="417.9688">:System</text><rect fill="#FFFFFF" height="254.6191" style="stroke:#181818;stroke-width:1.0;" width="10" x="20.25" y="133.2422"/><rect fill="#FFFFFF" height="31.291" style="stroke:#181818;stroke-width:1.0;" width="10" x="323.25" y="156.5332"/><rect fill="#FFFFFF" height="65.873" style="stroke:#181818;stroke-width:1.0;" width="10" x="323.25" y="219.1152"/><rect fill="#FFFFFF" height="31.291" style="stroke:#181818;stroke-width:1.0;" width="10" x="323.25" y="347.5703"/><polygon fill="#181818" points="311.25,152.5332,321.25,156.5332,311.25,160.5332,315.25,156.5332" style="stroke:#181818;stroke-width:1.0;"/><line style="stroke:#181818;stroke-width:1.0;" x1="30.25" x2="317.25" y1="156.5332" y2="156.5332"/><text fill="#000000" font-family="sans-serif" font-size="13" font-weight="bold" lengthAdjust="spacing" textLength="7" x="37.25" y="151.2705">1</text><text fill="#000000" font-family="sans-serif" font-size="13" lengthAdjust="spacing" textLength="241" x="48.25" y="151.2705">asks to register a new vehicle's check-up.</text><polygon fill="#181818" points="41.25,183.8242,31.25,187.8242,41.25,191.8242,37.25,187.8242" style="stroke:#181818;stroke-width:1.0;"/><line style="stroke:#181818;stroke-width:1.0;stroke-dasharray:2.0,2.0;" x1="35.25" x2="327.25" y1="187.8242" y2="187.8242"/><text fill="#000000" font-family="sans-serif" font-size="13" font-weight="bold" lengthAdjust="spacing" textLength="7" x="47.25" y="182.5615">2</text><text fill="#000000" font-family="sans-serif" font-size="13" lengthAdjust="spacing" textLength="258" x="58.25" y="182.5615">requests data (i.e. plate number, KMS, date)</text><polygon fill="#181818" points="311.25,215.1152,321.25,219.1152,311.25,223.1152,315.25,219.1152" style="stroke:#181818;stroke-width:1.0;"/><line style="stroke:#181818;stroke-width:1.0;" x1="30.25" x2="317.25" y1="219.1152" y2="219.1152"/><text fill="#000000" font-family="sans-serif" font-size="13" font-weight="bold" lengthAdjust="spacing" textLength="7" x="37.25" y="213.8525">3</text><text fill="#000000" font-family="sans-serif" font-size="13" lengthAdjust="spacing" textLength="122" x="48.25" y="213.8525">types requested data</text><polygon fill="#181818" points="41.25,280.9883,31.25,284.9883,41.25,288.9883,37.25,284.9883" style="stroke:#181818;stroke-width:1.0;"/><line style="stroke:#181818;stroke-width:1.0;stroke-dasharray:2.0,2.0;" x1="35.25" x2="327.25" y1="284.9883" y2="284.9883"/><text fill="#000000" font-family="sans-serif" font-size="13" font-weight="bold" lengthAdjust="spacing" textLength="7" x="47.25" y="262.4346">4</text><text fill="#000000" font-family="sans-serif" font-size="13" lengthAdjust="spacing" textLength="215" x="58.25" y="245.1436">confirm that there is no longer a plate</text><text fill="#000000" font-family="sans-serif" font-size="13" lengthAdjust="spacing" textLength="216" x="62.25" y="262.4346">number equal to the one entered and,</text><text fill="#000000" font-family="sans-serif" font-size="13" lengthAdjust="spacing" textLength="162" x="62.25" y="279.7256">if so, print an error message</text><polygon fill="#181818" points="41.25,312.2793,31.25,316.2793,41.25,320.2793,37.25,316.2793" style="stroke:#181818;stroke-width:1.0;"/><line style="stroke:#181818;stroke-width:1.0;stroke-dasharray:2.0,2.0;" x1="35.25" x2="327.25" y1="316.2793" y2="316.2793"/><text fill="#000000" font-family="sans-serif" font-size="13" font-weight="bold" lengthAdjust="spacing" textLength="7" x="47.25" y="311.0166">5</text><text fill="#000000" font-family="sans-serif" font-size="13" lengthAdjust="spacing" textLength="236" x="58.25" y="311.0166">shows all data and requests confirmation</text><polygon fill="#181818" points="311.25,343.5703,321.25,347.5703,311.25,351.5703,315.25,347.5703" style="stroke:#181818;stroke-width:1.0;"/><line style="stroke:#181818;stroke-width:1.0;" x1="30.25" x2="317.25" y1="347.5703" y2="347.5703"/><text fill="#000000" font-family="sans-serif" font-size="13" font-weight="bold" lengthAdjust="spacing" textLength="7" x="37.25" y="342.3076">6</text><text fill="#000000" font-family="sans-serif" font-size="13" lengthAdjust="spacing" textLength="78" x="48.25" y="342.3076">confirms data</text><polygon fill="#181818" points="41.25,374.8613,31.25,378.8613,41.25,382.8613,37.25,378.8613" style="stroke:#181818;stroke-width:1.0;"/><line style="stroke:#181818;stroke-width:1.0;stroke-dasharray:2.0,2.0;" x1="35.25" x2="327.25" y1="378.8613" y2="378.8613"/><text fill="#000000" font-family="sans-serif" font-size="13" font-weight="bold" lengthAdjust="spacing" textLength="7" x="47.25" y="373.5986">7</text><text fill="#000000" font-family="sans-serif" font-size="13" lengthAdjust="spacing" textLength="158" x="58.25" y="373.5986">displays operation success</text><!--SRC=[dL8zRzim4DtrAnwyD05i_m0F1Ge4NWeZWzOiL-ei4QQE2kzam_- -9rbEYo89a78G2F7T-oBr56MWGZtwB3bq9VSCAoDN-dOoK3XHoxLT4wDmC98s_GtGZffyYTBYI4cvgYoQG-kh6lUe-NLa2OodIEq4VwZhfqTiy2CP5o6BPyQp-1YDbcNiVt7nVR1SiDeVLY35_b2vbCKG1nB3QdVZdizkstaYdibu0bVmjJzWy_tkOkVGayAo9sYZ_oeW25zmvYw6nDyKeUDmsep3Tfv-exlpOraBuSQvNM7dV9vFJT6G4HxYbhSOqZHvoxB6pqEzdaxvSIPf-5tkV-pQTM2zatCpit_DMCXoZAM7TMJ-uSA82ib8MTev_sppHHQZS2rAKqKEHXO6Y_VasYJDsc7n2Crh32Nw7P20I_4xwbdLdyTdqTvpfrs-A2YbMsykyQV9nRa_ZInVg6mPq__egedgPLmLUU0owqB743pQ1_g_0G00]--></g></svg>