<?xml version="1.0" encoding="us-ascii" standalone="no"?><svg xmlns="http://www.w3.org/2000/svg" xmlns:xlink="http://www.w3.org/1999/xlink" contentStyleType="text/css" height="380px" preserveAspectRatio="none" style="width:434px;height:380px;background:#FFFFFF;" version="1.1" viewBox="0 0 434 380" width="434px" zoomAndPan="magnify"><defs/><g><rect fill="#FFFFFF" height="215.4063" style="stroke:#181818;stroke-width:1.0;" width="10" x="119" y="90.5332"/><rect fill="none" height="170.1152" style="stroke:#000000;stroke-width:1.5;" width="403.5" x="24.5" y="105.5332"/><line style="stroke:#181818;stroke-width:0.5;stroke-dasharray:5.0,5.0;" x1="123.5" x2="123.5" y1="57.2422" y2="323.9395"/><line style="stroke:#181818;stroke-width:0.5;stroke-dasharray:5.0,5.0;" x1="397" x2="397" y1="165.9453" y2="323.9395"/><rect fill="#E3E3E3" height="51.2422" rx="2.5" ry="2.5" style="stroke:#181818;stroke-width:0.5;" width="179" x="34.5" y="5"/><text fill="#000000" font-family="sans-serif" font-size="14" lengthAdjust="spacing" textLength="165" x="41.5" y="27.1074">generateTeamRepository:</text><text fill="#000000" font-family="sans-serif" font-size="14" lengthAdjust="spacing" textLength="164" x="42" y="45.7285">GenerateTeamRepository</text><rect fill="#E3E3E3" height="51.2422" rx="2.5" ry="2.5" style="stroke:#181818;stroke-width:0.5;" width="179" x="34.5" y="322.9395"/><text fill="#000000" font-family="sans-serif" font-size="14" lengthAdjust="spacing" textLength="165" x="41.5" y="345.0469">generateTeamRepository:</text><text fill="#000000" font-family="sans-serif" font-size="14" lengthAdjust="spacing" textLength="164" x="42" y="363.668">GenerateTeamRepository</text><rect fill="#E3E3E3" height="51.2422" rx="2.5" ry="2.5" style="stroke:#181818;stroke-width:0.5;" width="41" x="377" y="322.9395"/><text fill="#000000" font-family="sans-serif" font-size="14" lengthAdjust="spacing" textLength="27" x="384" y="345.0469">skill:</text><text fill="#000000" font-family="sans-serif" font-size="14" lengthAdjust="spacing" textLength="25" x="385" y="363.668">Skill</text><rect fill="#FFFFFF" height="215.4063" style="stroke:#181818;stroke-width:1.0;" width="10" x="119" y="90.5332"/><polygon fill="#181818" points="107,86.5332,117,90.5332,107,94.5332,111,90.5332" style="stroke:#181818;stroke-width:1.0;"/><line style="stroke:#181818;stroke-width:1.0;" x1="0" x2="113" y1="90.5332" y2="90.5332"/><text fill="#000000" font-family="sans-serif" font-size="13" font-weight="bold" lengthAdjust="spacing" textLength="14" x="7" y="85.2705">16</text><text fill="#000000" font-family="sans-serif" font-size="13" lengthAdjust="spacing" textLength="82" x="25" y="85.2705">generateTeam</text><path d="M24.5,105.5332 L168.5,105.5332 L168.5,114.8242 L158.5,124.8242 L24.5,124.8242 L24.5,105.5332 " fill="#EEEEEE" style="stroke:#000000;stroke-width:1.5;"/><rect fill="none" height="170.1152" style="stroke:#000000;stroke-width:1.5;" width="403.5" x="24.5" y="105.5332"/><text fill="#000000" font-family="sans-serif" font-size="13" font-weight="bold" lengthAdjust="spacing" textLength="99" x="39.5" y="120.5615">Generate Team</text><polygon fill="#181818" points="365,144.1152,375,148.1152,365,152.1152,369,148.1152" style="stroke:#181818;stroke-width:1.0;"/><line style="stroke:#181818;stroke-width:1.0;" x1="129" x2="371" y1="148.1152" y2="148.1152"/><text fill="#000000" font-family="sans-serif" font-size="13" font-weight="bold" lengthAdjust="spacing" textLength="25" x="136" y="142.8525">16.1</text><text fill="#000000" font-family="sans-serif" font-size="13" lengthAdjust="spacing" textLength="195" x="165" y="142.8525">generate(minSize, maxSize, skill)</text><rect fill="#E3E3E3" height="51.2422" rx="2.5" ry="2.5" style="stroke:#181818;stroke-width:0.5;" width="41" x="377" y="124.8242"/><text fill="#000000" font-family="sans-serif" font-size="14" lengthAdjust="spacing" textLength="27" x="384" y="146.9316">skill:</text><text fill="#000000" font-family="sans-serif" font-size="14" lengthAdjust="spacing" textLength="25" x="385" y="165.5527">Skill</text><line style="stroke:#181818;stroke-width:1.0;" x1="129" x2="171" y1="210.3574" y2="210.3574"/><line style="stroke:#181818;stroke-width:1.0;" x1="171" x2="171" y1="210.3574" y2="223.3574"/><line style="stroke:#181818;stroke-width:1.0;" x1="130" x2="171" y1="223.3574" y2="223.3574"/><polygon fill="#181818" points="140,219.3574,130,223.3574,140,227.3574,136,223.3574" style="stroke:#181818;stroke-width:1.0;"/><text fill="#000000" font-family="sans-serif" font-size="13" font-weight="bold" lengthAdjust="spacing" textLength="25" x="136" y="205.0947">16.2</text><text fill="#000000" font-family="sans-serif" font-size="13" lengthAdjust="spacing" textLength="90" x="165" y="205.0947">addTeam(team)</text><line style="stroke:#181818;stroke-width:1.0;" x1="129" x2="171" y1="254.6484" y2="254.6484"/><line style="stroke:#181818;stroke-width:1.0;" x1="171" x2="171" y1="254.6484" y2="267.6484"/><line style="stroke:#181818;stroke-width:1.0;" x1="130" x2="171" y1="267.6484" y2="267.6484"/><polygon fill="#181818" points="140,263.6484,130,267.6484,140,271.6484,136,267.6484" style="stroke:#181818;stroke-width:1.0;"/><text fill="#000000" font-family="sans-serif" font-size="13" font-weight="bold" lengthAdjust="spacing" textLength="25" x="136" y="249.3857">16.3</text><text fill="#000000" font-family="sans-serif" font-size="13" lengthAdjust="spacing" textLength="112" x="165" y="249.3857">validateTeam(team)</text><polygon fill="#181818" points="11,301.9395,1,305.9395,11,309.9395,7,305.9395" style="stroke:#181818;stroke-width:1.0;"/><line style="stroke:#181818;stroke-width:1.0;stroke-dasharray:2.0,2.0;" x1="5" x2="123" y1="305.9395" y2="305.9395"/><text fill="#000000" font-family="sans-serif" font-size="13" font-weight="bold" lengthAdjust="spacing" textLength="14" x="17" y="300.6768">17</text><text fill="#000000" font-family="sans-serif" font-size="13" lengthAdjust="spacing" textLength="29" x="35" y="300.6768">team</text><!--SRC=[VKzBJyCm3BxxLrYxC2QAj0j85UA69iGEQDsHYzTuRRGygYGT6x-UD2qeGnC-n5Q-Xp_xWpGTETAehR5rwwnc3AvdyBz8H_M16gx2MJ4whWEPHkK4tvAmdz8qk2Vb6O3wO4slT-m0Rbef6FVMXfqz0KH5aBNio0ISDMpOKU0jazvmPxqCrftB3xEw2ioGFAwscvVtIvkOHAcegeQUIDNRwtgTvy3b0m0MpwCSIynNN_Bkbq1raCS8JiimLkDit-5FBaoo10mrcaRtj7UnoFpdMffAVl4TQZgDGufxUqMTXX99YC5-7kBp3-r8IehfWfpBHgIU7_MOVfwAOdA90GS52FvpAdm3]--></g></svg>