<?xml version="1.0" encoding="us-ascii" standalone="no"?><svg xmlns="http://www.w3.org/2000/svg" xmlns:xlink="http://www.w3.org/1999/xlink" contentStyleType="text/css" height="1357px" preserveAspectRatio="none" style="width:797px;height:1357px;background:#FFFFFF;" version="1.1" viewBox="0 0 797 1357" width="797px" zoomAndPan="magnify"><defs/><g><!--class GenerateTeam--><g id="elem_GenerateTeam"><rect codeLine="9" fill="#F1F1F1" height="141.1055" id="GenerateTeam" rx="2.5" ry="2.5" style="stroke:#181818;stroke-width:0.5;" width="320" x="470.5" y="805"/><ellipse cx="578.25" cy="821" fill="#ADD1B2" rx="11" ry="11" style="stroke:#181818;stroke-width:1.0;"/><path d="M581.0156,816.875 Q581.1719,816.6563 581.3594,816.5469 Q581.5469,816.4375 581.7656,816.4375 Q582.1406,816.4375 582.375,816.7031 Q582.6094,816.9531 582.6094,817.5625 L582.6094,819.0156 Q582.6094,819.625 582.375,819.8906 Q582.1406,820.1563 581.7656,820.1563 Q581.4219,820.1563 581.2188,819.9531 Q581.0156,819.7656 580.9063,819.25 Q580.8594,818.8906 580.6719,818.7031 Q580.3438,818.3281 579.7344,818.1094 Q579.125,817.8906 578.5,817.8906 Q577.7344,817.8906 577.0938,818.2188 Q576.4688,818.5469 575.9688,819.2969 Q575.4844,820.0469 575.4844,821.0781 L575.4844,822.1719 Q575.4844,823.4063 576.375,824.2344 Q577.2656,825.0469 578.8594,825.0469 Q579.7969,825.0469 580.4531,824.7969 Q580.8438,824.6406 581.2656,824.2031 Q581.5313,823.9375 581.6719,823.8594 Q581.8281,823.7813 582.0313,823.7813 Q582.3594,823.7813 582.6094,824.0469 Q582.875,824.2969 582.875,824.6406 Q582.875,824.9844 582.5313,825.3906 Q582.0313,825.9688 581.2344,826.2969 Q580.1563,826.75 578.8594,826.75 Q577.3438,826.75 576.1406,826.125 Q575.1563,825.625 574.4688,824.5625 Q573.7813,823.4844 573.7813,822.2031 L573.7813,821.0469 Q573.7813,819.7188 574.3906,818.5781 Q575.0156,817.4219 576.1094,816.8125 Q577.2031,816.1875 578.4375,816.1875 Q579.1719,816.1875 579.8125,816.3594 Q580.4688,816.5156 581.0156,816.875 Z " fill="#000000"/><text fill="#000000" font-family="sans-serif" font-size="14" lengthAdjust="spacing" textLength="96" x="598.75" y="826.7969">GenerateTeam</text><line style="stroke:#181818;stroke-width:0.5;" x1="471.5" x2="789.5" y1="837" y2="837"/><text fill="#000000" font-family="sans-serif" font-size="14" lengthAdjust="spacing" textLength="72" x="476.5" y="856.1074">-int minSize</text><text fill="#000000" font-family="sans-serif" font-size="14" lengthAdjust="spacing" textLength="75" x="476.5" y="874.7285">-int maxSize</text><text fill="#000000" font-family="sans-serif" font-size="14" lengthAdjust="spacing" textLength="151" x="476.5" y="893.3496">-List&lt;Skill&gt; skillsNeeded</text><text fill="#000000" font-family="sans-serif" font-size="14" lengthAdjust="spacing" textLength="256" x="476.5" y="911.9707">-List&lt;Collaborator&gt; collaboratorsNeeded</text><line style="stroke:#181818;stroke-width:0.5;" x1="471.5" x2="789.5" y1="919.4844" y2="919.4844"/><text fill="#000000" font-family="sans-serif" font-size="14" lengthAdjust="spacing" textLength="308" x="476.5" y="938.5918">+GenerateTeam(minSize, maxSize, skillsNeeded)</text></g><!--class Skill--><g id="elem_Skill"><rect codeLine="19" fill="#F1F1F1" height="85.2422" id="Skill" rx="2.5" ry="2.5" style="stroke:#181818;stroke-width:0.5;" width="94" x="368.5" y="1265"/><ellipse cx="400.15" cy="1281" fill="#ADD1B2" rx="11" ry="11" style="stroke:#181818;stroke-width:1.0;"/><path d="M402.9156,1276.875 Q403.0719,1276.6563 403.2594,1276.5469 Q403.4469,1276.4375 403.6656,1276.4375 Q404.0406,1276.4375 404.275,1276.7031 Q404.5094,1276.9531 404.5094,1277.5625 L404.5094,1279.0156 Q404.5094,1279.625 404.275,1279.8906 Q404.0406,1280.1563 403.6656,1280.1563 Q403.3219,1280.1563 403.1188,1279.9531 Q402.9156,1279.7656 402.8063,1279.25 Q402.7594,1278.8906 402.5719,1278.7031 Q402.2438,1278.3281 401.6344,1278.1094 Q401.025,1277.8906 400.4,1277.8906 Q399.6344,1277.8906 398.9938,1278.2188 Q398.3688,1278.5469 397.8688,1279.2969 Q397.3844,1280.0469 397.3844,1281.0781 L397.3844,1282.1719 Q397.3844,1283.4063 398.275,1284.2344 Q399.1656,1285.0469 400.7594,1285.0469 Q401.6969,1285.0469 402.3531,1284.7969 Q402.7438,1284.6406 403.1656,1284.2031 Q403.4313,1283.9375 403.5719,1283.8594 Q403.7281,1283.7813 403.9313,1283.7813 Q404.2594,1283.7813 404.5094,1284.0469 Q404.775,1284.2969 404.775,1284.6406 Q404.775,1284.9844 404.4313,1285.3906 Q403.9313,1285.9688 403.1344,1286.2969 Q402.0563,1286.75 400.7594,1286.75 Q399.2438,1286.75 398.0406,1286.125 Q397.0563,1285.625 396.3688,1284.5625 Q395.6813,1283.4844 395.6813,1282.2031 L395.6813,1281.0469 Q395.6813,1279.7188 396.2906,1278.5781 Q396.9156,1277.4219 398.0094,1276.8125 Q399.1031,1276.1875 400.3375,1276.1875 Q401.0719,1276.1875 401.7125,1276.3594 Q402.3688,1276.5156 402.9156,1276.875 Z " fill="#000000"/><text fill="#000000" font-family="sans-serif" font-size="14" lengthAdjust="spacing" textLength="25" x="417.85" y="1286.7969">Skill</text><line style="stroke:#181818;stroke-width:0.5;" x1="369.5" x2="461.5" y1="1297" y2="1297"/><text fill="#000000" font-family="sans-serif" font-size="14" lengthAdjust="spacing" textLength="81" x="374.5" y="1316.1074">-String name</text><line style="stroke:#181818;stroke-width:0.5;" x1="369.5" x2="461.5" y1="1323.6211" y2="1323.6211"/><text fill="#000000" font-family="sans-serif" font-size="14" lengthAdjust="spacing" textLength="82" x="374.5" y="1342.7285">+Skill (name)</text></g><!--class Collaborator--><g id="elem_Collaborator"><rect codeLine="25" fill="#F1F1F1" height="196.9688" id="Collaborator" rx="2.5" ry="2.5" style="stroke:#181818;stroke-width:0.5;" width="671" x="80" y="1007"/><ellipse cx="372.25" cy="1023" fill="#ADD1B2" rx="11" ry="11" style="stroke:#181818;stroke-width:1.0;"/><path d="M375.0156,1018.875 Q375.1719,1018.6563 375.3594,1018.5469 Q375.5469,1018.4375 375.7656,1018.4375 Q376.1406,1018.4375 376.375,1018.7031 Q376.6094,1018.9531 376.6094,1019.5625 L376.6094,1021.0156 Q376.6094,1021.625 376.375,1021.8906 Q376.1406,1022.1563 375.7656,1022.1563 Q375.4219,1022.1563 375.2188,1021.9531 Q375.0156,1021.7656 374.9063,1021.25 Q374.8594,1020.8906 374.6719,1020.7031 Q374.3438,1020.3281 373.7344,1020.1094 Q373.125,1019.8906 372.5,1019.8906 Q371.7344,1019.8906 371.0938,1020.2188 Q370.4688,1020.5469 369.9688,1021.2969 Q369.4844,1022.0469 369.4844,1023.0781 L369.4844,1024.1719 Q369.4844,1025.4063 370.375,1026.2344 Q371.2656,1027.0469 372.8594,1027.0469 Q373.7969,1027.0469 374.4531,1026.7969 Q374.8438,1026.6406 375.2656,1026.2031 Q375.5313,1025.9375 375.6719,1025.8594 Q375.8281,1025.7813 376.0313,1025.7813 Q376.3594,1025.7813 376.6094,1026.0469 Q376.875,1026.2969 376.875,1026.6406 Q376.875,1026.9844 376.5313,1027.3906 Q376.0313,1027.9688 375.2344,1028.2969 Q374.1563,1028.75 372.8594,1028.75 Q371.3438,1028.75 370.1406,1028.125 Q369.1563,1027.625 368.4688,1026.5625 Q367.7813,1025.4844 367.7813,1024.2031 L367.7813,1023.0469 Q367.7813,1021.7188 368.3906,1020.5781 Q369.0156,1019.4219 370.1094,1018.8125 Q371.2031,1018.1875 372.4375,1018.1875 Q373.1719,1018.1875 373.8125,1018.3594 Q374.4688,1018.5156 375.0156,1018.875 Z " fill="#000000"/><text fill="#000000" font-family="sans-serif" font-size="14" lengthAdjust="spacing" textLength="78" x="392.75" y="1028.7969">Collaborator</text><line style="stroke:#181818;stroke-width:0.5;" x1="81" x2="750" y1="1039" y2="1039"/><text fill="#000000" font-family="sans-serif" font-size="14" lengthAdjust="spacing" textLength="81" x="86" y="1058.1074">-String name</text><text fill="#000000" font-family="sans-serif" font-size="14" lengthAdjust="spacing" textLength="90" x="86" y="1076.7285">-Date birthday</text><text fill="#000000" font-family="sans-serif" font-size="14" lengthAdjust="spacing" textLength="132" x="86" y="1095.3496">-Date admissionDate</text><text fill="#000000" font-family="sans-serif" font-size="14" lengthAdjust="spacing" textLength="97" x="86" y="1113.9707">-String address</text><text fill="#000000" font-family="sans-serif" font-size="14" lengthAdjust="spacing" textLength="113" x="86" y="1132.5918">-int phoneNumber</text><text fill="#000000" font-family="sans-serif" font-size="14" lengthAdjust="spacing" textLength="79" x="86" y="1151.2129">-String email</text><text fill="#000000" font-family="sans-serif" font-size="14" lengthAdjust="spacing" textLength="84" x="86" y="1169.834">-int idNumber</text><line style="stroke:#181818;stroke-width:0.5;" x1="81" x2="750" y1="1177.3477" y2="1177.3477"/><text fill="#000000" font-family="sans-serif" font-size="14" lengthAdjust="spacing" textLength="659" x="86" y="1196.4551">+Collaborator(name, birthday, admissionDate, address, phoneNumber, email, idDocType, idNumber, job)</text></g><!--class SkillsRepository--><g id="elem_SkillsRepository"><rect codeLine="37" fill="#F1F1F1" height="85.2422" id="SkillsRepository" rx="2.5" ry="2.5" style="stroke:#181818;stroke-width:0.5;" width="132" x="55.5" y="574.5"/><ellipse cx="70.5" cy="590.5" fill="#ADD1B2" rx="11" ry="11" style="stroke:#181818;stroke-width:1.0;"/><path d="M73.2656,586.375 Q73.4219,586.1563 73.6094,586.0469 Q73.7969,585.9375 74.0156,585.9375 Q74.3906,585.9375 74.625,586.2031 Q74.8594,586.4531 74.8594,587.0625 L74.8594,588.5156 Q74.8594,589.125 74.625,589.3906 Q74.3906,589.6563 74.0156,589.6563 Q73.6719,589.6563 73.4688,589.4531 Q73.2656,589.2656 73.1563,588.75 Q73.1094,588.3906 72.9219,588.2031 Q72.5938,587.8281 71.9844,587.6094 Q71.375,587.3906 70.75,587.3906 Q69.9844,587.3906 69.3438,587.7188 Q68.7188,588.0469 68.2188,588.7969 Q67.7344,589.5469 67.7344,590.5781 L67.7344,591.6719 Q67.7344,592.9063 68.625,593.7344 Q69.5156,594.5469 71.1094,594.5469 Q72.0469,594.5469 72.7031,594.2969 Q73.0938,594.1406 73.5156,593.7031 Q73.7813,593.4375 73.9219,593.3594 Q74.0781,593.2813 74.2813,593.2813 Q74.6094,593.2813 74.8594,593.5469 Q75.125,593.7969 75.125,594.1406 Q75.125,594.4844 74.7813,594.8906 Q74.2813,595.4688 73.4844,595.7969 Q72.4063,596.25 71.1094,596.25 Q69.5938,596.25 68.3906,595.625 Q67.4063,595.125 66.7188,594.0625 Q66.0313,592.9844 66.0313,591.7031 L66.0313,590.5469 Q66.0313,589.2188 66.6406,588.0781 Q67.2656,586.9219 68.3594,586.3125 Q69.4531,585.6875 70.6875,585.6875 Q71.4219,585.6875 72.0625,585.8594 Q72.7188,586.0156 73.2656,586.375 Z " fill="#000000"/><text fill="#000000" font-family="sans-serif" font-size="14" lengthAdjust="spacing" textLength="100" x="84.5" y="596.2969">SkillsRepository</text><line style="stroke:#181818;stroke-width:0.5;" x1="56.5" x2="186.5" y1="606.5" y2="606.5"/><line style="stroke:#181818;stroke-width:0.5;" x1="56.5" x2="186.5" y1="614.5" y2="614.5"/><text fill="#000000" font-family="sans-serif" font-size="14" lengthAdjust="spacing" textLength="92" x="61.5" y="633.6074">+getSkillsList()</text><text fill="#000000" font-family="sans-serif" font-size="14" lengthAdjust="spacing" textLength="115" x="61.5" y="652.2285">+getSkillByName()</text></g><!--class GenerateTeamRepository--><g id="elem_GenerateTeamRepository"><rect codeLine="42" fill="#F1F1F1" height="122.4844" id="GenerateTeamRepository" rx="2.5" ry="2.5" style="stroke:#181818;stroke-width:0.5;" width="317" x="472" y="556"/><ellipse cx="544.25" cy="572" fill="#ADD1B2" rx="11" ry="11" style="stroke:#181818;stroke-width:1.0;"/><path d="M547.0156,567.875 Q547.1719,567.6563 547.3594,567.5469 Q547.5469,567.4375 547.7656,567.4375 Q548.1406,567.4375 548.375,567.7031 Q548.6094,567.9531 548.6094,568.5625 L548.6094,570.0156 Q548.6094,570.625 548.375,570.8906 Q548.1406,571.1563 547.7656,571.1563 Q547.4219,571.1563 547.2188,570.9531 Q547.0156,570.7656 546.9063,570.25 Q546.8594,569.8906 546.6719,569.7031 Q546.3438,569.3281 545.7344,569.1094 Q545.125,568.8906 544.5,568.8906 Q543.7344,568.8906 543.0938,569.2188 Q542.4688,569.5469 541.9688,570.2969 Q541.4844,571.0469 541.4844,572.0781 L541.4844,573.1719 Q541.4844,574.4063 542.375,575.2344 Q543.2656,576.0469 544.8594,576.0469 Q545.7969,576.0469 546.4531,575.7969 Q546.8438,575.6406 547.2656,575.2031 Q547.5313,574.9375 547.6719,574.8594 Q547.8281,574.7813 548.0313,574.7813 Q548.3594,574.7813 548.6094,575.0469 Q548.875,575.2969 548.875,575.6406 Q548.875,575.9844 548.5313,576.3906 Q548.0313,576.9688 547.2344,577.2969 Q546.1563,577.75 544.8594,577.75 Q543.3438,577.75 542.1406,577.125 Q541.1563,576.625 540.4688,575.5625 Q539.7813,574.4844 539.7813,573.2031 L539.7813,572.0469 Q539.7813,570.7188 540.3906,569.5781 Q541.0156,568.4219 542.1094,567.8125 Q543.2031,567.1875 544.4375,567.1875 Q545.1719,567.1875 545.8125,567.3594 Q546.4688,567.5156 547.0156,567.875 Z " fill="#000000"/><text fill="#000000" font-family="sans-serif" font-size="14" lengthAdjust="spacing" textLength="164" x="564.75" y="577.7969">GenerateTeamRepository</text><line style="stroke:#181818;stroke-width:0.5;" x1="473" x2="788" y1="588" y2="588"/><line style="stroke:#181818;stroke-width:0.5;" x1="473" x2="788" y1="596" y2="596"/><text fill="#000000" font-family="sans-serif" font-size="14" lengthAdjust="spacing" textLength="75" x="478" y="615.1074">-addTeam()</text><text fill="#000000" font-family="sans-serif" font-size="14" lengthAdjust="spacing" textLength="100" x="478" y="633.7285">-validateTeam()</text><text fill="#000000" font-family="sans-serif" font-size="14" lengthAdjust="spacing" textLength="305" x="478" y="652.3496">+generateTeam(minSize, maxSize, skillsNeeded)</text><text fill="#000000" font-family="sans-serif" font-size="14" lengthAdjust="spacing" textLength="96" x="478" y="670.9707">+getTeamList()</text></g><!--class CollaboratorRepository--><g id="elem_CollaboratorRepository"><rect codeLine="49" fill="#F1F1F1" height="66.6211" id="CollaboratorRepository" rx="2.5" ry="2.5" style="stroke:#181818;stroke-width:0.5;" width="178" x="249.5" y="708"/><ellipse cx="264.5" cy="724" fill="#ADD1B2" rx="11" ry="11" style="stroke:#181818;stroke-width:1.0;"/><path d="M267.2656,719.875 Q267.4219,719.6563 267.6094,719.5469 Q267.7969,719.4375 268.0156,719.4375 Q268.3906,719.4375 268.625,719.7031 Q268.8594,719.9531 268.8594,720.5625 L268.8594,722.0156 Q268.8594,722.625 268.625,722.8906 Q268.3906,723.1563 268.0156,723.1563 Q267.6719,723.1563 267.4688,722.9531 Q267.2656,722.7656 267.1563,722.25 Q267.1094,721.8906 266.9219,721.7031 Q266.5938,721.3281 265.9844,721.1094 Q265.375,720.8906 264.75,720.8906 Q263.9844,720.8906 263.3438,721.2188 Q262.7188,721.5469 262.2188,722.2969 Q261.7344,723.0469 261.7344,724.0781 L261.7344,725.1719 Q261.7344,726.4063 262.625,727.2344 Q263.5156,728.0469 265.1094,728.0469 Q266.0469,728.0469 266.7031,727.7969 Q267.0938,727.6406 267.5156,727.2031 Q267.7813,726.9375 267.9219,726.8594 Q268.0781,726.7813 268.2813,726.7813 Q268.6094,726.7813 268.8594,727.0469 Q269.125,727.2969 269.125,727.6406 Q269.125,727.9844 268.7813,728.3906 Q268.2813,728.9688 267.4844,729.2969 Q266.4063,729.75 265.1094,729.75 Q263.5938,729.75 262.3906,729.125 Q261.4063,728.625 260.7188,727.5625 Q260.0313,726.4844 260.0313,725.2031 L260.0313,724.0469 Q260.0313,722.7188 260.6406,721.5781 Q261.2656,720.4219 262.3594,719.8125 Q263.4531,719.1875 264.6875,719.1875 Q265.4219,719.1875 266.0625,719.3594 Q266.7188,719.5156 267.2656,719.875 Z " fill="#000000"/><text fill="#000000" font-family="sans-serif" font-size="14" lengthAdjust="spacing" textLength="146" x="278.5" y="729.7969">CollaboratorRepository</text><line style="stroke:#181818;stroke-width:0.5;" x1="250.5" x2="426.5" y1="740" y2="740"/><line style="stroke:#181818;stroke-width:0.5;" x1="250.5" x2="426.5" y1="748" y2="748"/><text fill="#000000" font-family="sans-serif" font-size="14" lengthAdjust="spacing" textLength="138" x="255.5" y="767.1074">+getCollaboratorList()</text></g><!--class Repositories--><g id="elem_Repositories"><rect codeLine="53" fill="#F1F1F1" height="141.1055" id="Repositories" rx="2.5" ry="2.5" style="stroke:#181818;stroke-width:0.5;" width="214" x="199.5" y="336"/><ellipse cx="262.75" cy="352" fill="#ADD1B2" rx="11" ry="11" style="stroke:#181818;stroke-width:1.0;"/><path d="M265.5156,347.875 Q265.6719,347.6563 265.8594,347.5469 Q266.0469,347.4375 266.2656,347.4375 Q266.6406,347.4375 266.875,347.7031 Q267.1094,347.9531 267.1094,348.5625 L267.1094,350.0156 Q267.1094,350.625 266.875,350.8906 Q266.6406,351.1563 266.2656,351.1563 Q265.9219,351.1563 265.7188,350.9531 Q265.5156,350.7656 265.4063,350.25 Q265.3594,349.8906 265.1719,349.7031 Q264.8438,349.3281 264.2344,349.1094 Q263.625,348.8906 263,348.8906 Q262.2344,348.8906 261.5938,349.2188 Q260.9688,349.5469 260.4688,350.2969 Q259.9844,351.0469 259.9844,352.0781 L259.9844,353.1719 Q259.9844,354.4063 260.875,355.2344 Q261.7656,356.0469 263.3594,356.0469 Q264.2969,356.0469 264.9531,355.7969 Q265.3438,355.6406 265.7656,355.2031 Q266.0313,354.9375 266.1719,354.8594 Q266.3281,354.7813 266.5313,354.7813 Q266.8594,354.7813 267.1094,355.0469 Q267.375,355.2969 267.375,355.6406 Q267.375,355.9844 267.0313,356.3906 Q266.5313,356.9688 265.7344,357.2969 Q264.6563,357.75 263.3594,357.75 Q261.8438,357.75 260.6406,357.125 Q259.6563,356.625 258.9688,355.5625 Q258.2813,354.4844 258.2813,353.2031 L258.2813,352.0469 Q258.2813,350.7188 258.8906,349.5781 Q259.5156,348.4219 260.6094,347.8125 Q261.7031,347.1875 262.9375,347.1875 Q263.6719,347.1875 264.3125,347.3594 Q264.9688,347.5156 265.5156,347.875 Z " fill="#000000"/><text fill="#000000" font-family="sans-serif" font-size="14" lengthAdjust="spacing" textLength="79" x="283.25" y="357.7969">Repositories</text><line style="stroke:#181818;stroke-width:0.5;" x1="200.5" x2="412.5" y1="368" y2="368"/><line style="stroke:#181818;stroke-width:0.5;" x1="200.5" x2="412.5" y1="376" y2="376"/><text fill="#000000" font-family="sans-serif" font-size="14" lengthAdjust="spacing" textLength="94" x="205.5" y="395.1074">-Repositories()</text><text fill="#000000" font-family="sans-serif" font-size="14" lengthAdjust="spacing" textLength="182" x="205.5" y="413.7285">+getInstance() : Repositories</text><text fill="#000000" font-family="sans-serif" font-size="14" lengthAdjust="spacing" textLength="184" x="205.5" y="432.3496">+getCollaboratorRepository()</text><text fill="#000000" font-family="sans-serif" font-size="14" lengthAdjust="spacing" textLength="131" x="205.5" y="450.9707">+getSkillRepository()</text><text fill="#000000" font-family="sans-serif" font-size="14" lengthAdjust="spacing" textLength="202" x="205.5" y="469.5918">+getGenerateTeamRepository()</text></g><!--class GenerateTeamController--><g id="elem_GenerateTeamController"><rect codeLine="61" fill="#F1F1F1" height="141.1055" id="GenerateTeamController" rx="2.5" ry="2.5" style="stroke:#181818;stroke-width:0.5;" width="599" x="7" y="116"/><ellipse cx="223.25" cy="132" fill="#ADD1B2" rx="11" ry="11" style="stroke:#181818;stroke-width:1.0;"/><path d="M226.0156,127.875 Q226.1719,127.6563 226.3594,127.5469 Q226.5469,127.4375 226.7656,127.4375 Q227.1406,127.4375 227.375,127.7031 Q227.6094,127.9531 227.6094,128.5625 L227.6094,130.0156 Q227.6094,130.625 227.375,130.8906 Q227.1406,131.1563 226.7656,131.1563 Q226.4219,131.1563 226.2188,130.9531 Q226.0156,130.7656 225.9063,130.25 Q225.8594,129.8906 225.6719,129.7031 Q225.3438,129.3281 224.7344,129.1094 Q224.125,128.8906 223.5,128.8906 Q222.7344,128.8906 222.0938,129.2188 Q221.4688,129.5469 220.9688,130.2969 Q220.4844,131.0469 220.4844,132.0781 L220.4844,133.1719 Q220.4844,134.4063 221.375,135.2344 Q222.2656,136.0469 223.8594,136.0469 Q224.7969,136.0469 225.4531,135.7969 Q225.8438,135.6406 226.2656,135.2031 Q226.5313,134.9375 226.6719,134.8594 Q226.8281,134.7813 227.0313,134.7813 Q227.3594,134.7813 227.6094,135.0469 Q227.875,135.2969 227.875,135.6406 Q227.875,135.9844 227.5313,136.3906 Q227.0313,136.9688 226.2344,137.2969 Q225.1563,137.75 223.8594,137.75 Q222.3438,137.75 221.1406,137.125 Q220.1563,136.625 219.4688,135.5625 Q218.7813,134.4844 218.7813,133.2031 L218.7813,132.0469 Q218.7813,130.7188 219.3906,129.5781 Q220.0156,128.4219 221.1094,127.8125 Q222.2031,127.1875 223.4375,127.1875 Q224.1719,127.1875 224.8125,127.3594 Q225.4688,127.5156 226.0156,127.875 Z " fill="#000000"/><text fill="#000000" font-family="sans-serif" font-size="14" lengthAdjust="spacing" textLength="158" x="243.75" y="137.7969">GenerateTeamController</text><line style="stroke:#181818;stroke-width:0.5;" x1="8" x2="605" y1="148" y2="148"/><line style="stroke:#181818;stroke-width:0.5;" x1="8" x2="605" y1="156" y2="156"/><text fill="#000000" font-family="sans-serif" font-size="14" lengthAdjust="spacing" textLength="587" x="13" y="175.1074">+GenerateTeamController(collaboratorRepository, skillRepository, generateTeamRepository)</text><text fill="#000000" font-family="sans-serif" font-size="14" lengthAdjust="spacing" textLength="92" x="13" y="193.7285">+getSkillsList()</text><text fill="#000000" font-family="sans-serif" font-size="14" lengthAdjust="spacing" textLength="138" x="13" y="212.3496">+getCollaboratorList()</text><text fill="#000000" font-family="sans-serif" font-size="14" lengthAdjust="spacing" textLength="96" x="13" y="230.9707">+getTeamList()</text><text fill="#000000" font-family="sans-serif" font-size="14" lengthAdjust="spacing" textLength="305" x="13" y="249.5918">+generateTeam(minSize, maxSize, skillsNeeded)</text></g><!--class GenerateTeamUI--><g id="elem_GenerateTeamUI"><rect codeLine="69" fill="#F1F1F1" height="48" id="GenerateTeamUI" rx="2.5" ry="2.5" style="stroke:#181818;stroke-width:0.5;" width="140" x="236.5" y="7"/><ellipse cx="251.5" cy="23" fill="#ADD1B2" rx="11" ry="11" style="stroke:#181818;stroke-width:1.0;"/><path d="M254.2656,18.875 Q254.4219,18.6563 254.6094,18.5469 Q254.7969,18.4375 255.0156,18.4375 Q255.3906,18.4375 255.625,18.7031 Q255.8594,18.9531 255.8594,19.5625 L255.8594,21.0156 Q255.8594,21.625 255.625,21.8906 Q255.3906,22.1563 255.0156,22.1563 Q254.6719,22.1563 254.4688,21.9531 Q254.2656,21.7656 254.1563,21.25 Q254.1094,20.8906 253.9219,20.7031 Q253.5938,20.3281 252.9844,20.1094 Q252.375,19.8906 251.75,19.8906 Q250.9844,19.8906 250.3438,20.2188 Q249.7188,20.5469 249.2188,21.2969 Q248.7344,22.0469 248.7344,23.0781 L248.7344,24.1719 Q248.7344,25.4063 249.625,26.2344 Q250.5156,27.0469 252.1094,27.0469 Q253.0469,27.0469 253.7031,26.7969 Q254.0938,26.6406 254.5156,26.2031 Q254.7813,25.9375 254.9219,25.8594 Q255.0781,25.7813 255.2813,25.7813 Q255.6094,25.7813 255.8594,26.0469 Q256.125,26.2969 256.125,26.6406 Q256.125,26.9844 255.7813,27.3906 Q255.2813,27.9688 254.4844,28.2969 Q253.4063,28.75 252.1094,28.75 Q250.5938,28.75 249.3906,28.125 Q248.4063,27.625 247.7188,26.5625 Q247.0313,25.4844 247.0313,24.2031 L247.0313,23.0469 Q247.0313,21.7188 247.6406,20.5781 Q248.2656,19.4219 249.3594,18.8125 Q250.4531,18.1875 251.6875,18.1875 Q252.4219,18.1875 253.0625,18.3594 Q253.7188,18.5156 254.2656,18.875 Z " fill="#000000"/><text fill="#000000" font-family="sans-serif" font-size="14" lengthAdjust="spacing" textLength="108" x="265.5" y="28.7969">GenerateTeamUI</text><line style="stroke:#181818;stroke-width:0.5;" x1="237.5" x2="375.5" y1="39" y2="39"/><line style="stroke:#181818;stroke-width:0.5;" x1="237.5" x2="375.5" y1="47" y2="47"/></g><!--link GenerateTeamUI to GenerateTeamController--><g id="link_GenerateTeamUI_GenerateTeamController"><path codeLine="72" d="M306.5,55.31 C306.5,71.5 306.5,87.98 306.5,109.71 " fill="none" id="GenerateTeamUI-to-GenerateTeamController" style="stroke:#181818;stroke-width:1.0;stroke-dasharray:7.0,7.0;"/><polygon fill="#181818" points="306.5,115.71,310.5,106.71,306.5,110.71,302.5,106.71,306.5,115.71" style="stroke:#181818;stroke-width:1.0;"/></g><!--link GenerateTeamController to Repositories--><g id="link_GenerateTeamController_Repositories"><path codeLine="73" d="M306.5,257.08 C306.5,282.25 306.5,304.66 306.5,329.84 " fill="none" id="GenerateTeamController-to-Repositories" style="stroke:#181818;stroke-width:1.0;stroke-dasharray:7.0,7.0;"/><polygon fill="#181818" points="306.5,335.84,310.5,326.84,306.5,330.84,302.5,326.84,306.5,335.84" style="stroke:#181818;stroke-width:1.0;"/><text fill="#000000" font-family="sans-serif" font-size="13" lengthAdjust="spacing" textLength="67" x="307.5" y="302.0283">repositories</text></g><!--link GenerateTeamController to GenerateTeamRepository--><g id="link_GenerateTeamController_GenerateTeamRepository"><path codeLine="74" d="M402.23,257.18 C455.23,295.77 510.5,336 510.5,336 C510.5,336 624.5,507 624.5,507 C624.5,507 625.472,524.559 626.852,549.769 " fill="none" id="GenerateTeamController-to-GenerateTeamRepository" style="stroke:#181818;stroke-width:1.0;stroke-dasharray:7.0,7.0;"/><polygon fill="#181818" points="627.18,555.76,630.6821,546.5548,626.9067,550.7675,622.6941,546.9921,627.18,555.76" style="stroke:#181818;stroke-width:1.0;"/></g><!--link GenerateTeamController to SkillsRepository--><g id="link_GenerateTeamController_SkillsRepository"><path codeLine="75" d="M247.66,257.4 C215.24,295.92 181.5,336 181.5,336 C181.5,336 148.3869,490.5131 131.6769,568.5131 " fill="none" id="GenerateTeamController-to-SkillsRepository" style="stroke:#181818;stroke-width:1.0;stroke-dasharray:7.0,7.0;"/><polygon fill="#181818" points="130.42,574.38,136.2166,566.4176,131.4674,569.4909,128.394,564.7418,130.42,574.38" style="stroke:#181818;stroke-width:1.0;"/></g><!--link Repositories to Repositories--><g id="link_Repositories_Repositories"><path codeLine="76" d="M413.63,386.86 C434.06,389.21 448.5,395.76 448.5,406.5 C448.5,417.24 440.0207,423.1044 419.5907,425.4544 " fill="none" id="Repositories-to-Repositories" style="stroke:#181818;stroke-width:1.0;"/><polygon fill="#181818" points="413.63,426.14,423.0281,429.0853,418.5972,425.5686,422.114,421.1377,413.63,426.14" style="stroke:#181818;stroke-width:1.0;"/><text fill="#000000" font-family="sans-serif" font-size="13" lengthAdjust="spacing" textLength="49" x="454.5" y="412.0283">instance</text></g><!--link Repositories to GenerateTeamRepository--><g id="link_Repositories_GenerateTeamRepository"><path codeLine="77" d="M405.2,477.12 C441.77,502.91 474.5,526 474.5,526 C474.5,526 492.6328,536.4619 521.2528,552.9719 " fill="none" id="Repositories-to-GenerateTeamRepository" style="stroke:#181818;stroke-width:1.0;"/><polygon fill="#181818" points="526.45,555.97,520.6529,548.008,522.119,553.4716,516.6554,554.9376,526.45,555.97" style="stroke:#181818;stroke-width:1.0;"/><text fill="#000000" font-family="sans-serif" font-size="13" lengthAdjust="spacing" textLength="144" x="475.5" y="522.0283">generateTeamRepository</text><text fill="#000000" font-family="sans-serif" font-size="13" lengthAdjust="spacing" textLength="7" x="507.0145" y="544.9477">1</text></g><!--link Repositories to SkillsRepository--><g id="link_Repositories_SkillsRepository"><path codeLine="78" d="M215.5,477.15 C193.66,493.87 176.5,507 176.5,507 C176.5,507 160.6927,538.3232 145.1527,569.1232 " fill="none" id="Repositories-to-SkillsRepository" style="stroke:#181818;stroke-width:1.0;"/><polygon fill="#181818" points="142.45,574.48,150.0753,568.2466,144.7023,570.016,142.9329,564.643,142.45,574.48" style="stroke:#181818;stroke-width:1.0;"/><text fill="#000000" font-family="sans-serif" font-size="13" lengthAdjust="spacing" textLength="85" x="177.5" y="522.0283">skillRepository</text><text fill="#000000" font-family="sans-serif" font-size="13" lengthAdjust="spacing" textLength="7" x="138.2311" y="563.3809">1</text></g><!--link Repositories to CollaboratorRepository--><g id="link_Repositories_CollaboratorRepository"><path codeLine="79" d="M308.85,477.12 C309.72,502.91 310.5,526 310.5,526 C310.5,526 325.6326,641.9706 333.4726,701.9706 " fill="none" id="Repositories-to-CollaboratorRepository" style="stroke:#181818;stroke-width:1.0;"/><polygon fill="#181818" points="334.25,707.92,337.0502,698.4776,333.6022,702.9621,329.1176,699.5141,334.25,707.92" style="stroke:#181818;stroke-width:1.0;"/><text fill="#000000" font-family="sans-serif" font-size="13" lengthAdjust="spacing" textLength="129" x="311.5" y="522.0283">collaboratorRepository</text><text fill="#000000" font-family="sans-serif" font-size="13" lengthAdjust="spacing" textLength="7" x="325.7242" y="696.7298">1</text></g><!--link CollaboratorRepository to Collaborator--><g id="link_CollaboratorRepository_Collaborator"><path codeLine="80" d="M345.47,775.26 C356.48,827.04 377.0917,923.9413 393.4717,1000.9513 " fill="none" id="CollaboratorRepository-to-Collaborator" style="stroke:#181818;stroke-width:1.0;"/><polygon fill="#181818" points="394.72,1006.82,396.7601,997.1847,393.6798,1001.9294,388.9351,998.8491,394.72,1006.82" style="stroke:#181818;stroke-width:1.0;"/><text fill="#000000" font-family="sans-serif" font-size="13" lengthAdjust="spacing" textLength="20" x="372.3634" y="995.6547">1..*</text></g><!--link Collaborator to Skill--><g id="link_Collaborator_Skill"><path codeLine="81" d="M415.5,1204.16 C415.5,1225.57 415.5,1241.14 415.5,1258.91 " fill="none" id="Collaborator-to-Skill" style="stroke:#181818;stroke-width:1.0;"/><polygon fill="#181818" points="415.5,1264.91,419.5,1255.91,415.5,1259.91,411.5,1255.91,415.5,1264.91" style="stroke:#181818;stroke-width:1.0;"/><text fill="#000000" font-family="sans-serif" font-size="13" lengthAdjust="spacing" textLength="20" x="393.9063" y="1253.7997">1..*</text></g><!--link GenerateTeam to Collaborator--><g id="link_GenerateTeam_Collaborator"><path codeLine="82" d="M564.82,946.15 C546.79,965.27 531.0277,981.996 511.7977,1002.376 " fill="none" id="GenerateTeam-to-Collaborator" style="stroke:#181818;stroke-width:1.0;"/><polygon fill="#181818" points="507.68,1006.74,516.7659,1002.9392,511.1114,1003.1034,510.9473,997.4489,507.68,1006.74" style="stroke:#181818;stroke-width:1.0;"/><text fill="#000000" font-family="sans-serif" font-size="13" lengthAdjust="spacing" textLength="20" x="493.7151" y="995.9032">2..*</text></g><!--link GenerateTeamRepository to GenerateTeam--><g id="link_GenerateTeamRepository_GenerateTeam"><path codeLine="83" d="M630.5,678.14 C630.5,716.04 630.5,759.14 630.5,798.75 " fill="none" id="GenerateTeamRepository-to-GenerateTeam" style="stroke:#181818;stroke-width:1.0;"/><polygon fill="#181818" points="630.5,804.75,634.5,795.75,630.5,799.75,626.5,795.75,630.5,804.75" style="stroke:#181818;stroke-width:1.0;"/><text fill="#000000" font-family="sans-serif" font-size="13" lengthAdjust="spacing" textLength="20" x="609.4688" y="793.6152">1..*</text></g><!--link SkillsRepository to Skill--><g id="link_SkillsRepository_Skill"><path codeLine="84" d="M115.19,659.63 C99.97,759.98 62.5,1007 62.5,1007 C62.5,1007 62.5,1204 62.5,1204 C62.5,1204 266.308,1263.1769 362.498,1291.1069 " fill="none" id="SkillsRepository-to-Skill" style="stroke:#181818;stroke-width:1.0;"/><polygon fill="#181818" points="368.26,1292.78,360.7324,1286.429,363.4583,1291.3858,358.5016,1294.1117,368.26,1292.78" style="stroke:#181818;stroke-width:1.0;"/><text fill="#000000" font-family="sans-serif" font-size="13" lengthAdjust="spacing" textLength="20" x="340.5684" y="1286.6914">1..*</text></g><!--link GenerateTeam to Skill--><g id="link_GenerateTeam_Skill"><path codeLine="85" d="M704.35,946.33 C737.16,977.36 768.5,1007 768.5,1007 C768.5,1007 768.5,1204 768.5,1204 C768.5,1204 564.692,1263.1769 468.502,1291.1069 " fill="none" id="GenerateTeam-to-Skill" style="stroke:#181818;stroke-width:1.0;"/><polygon fill="#181818" points="462.74,1292.78,472.4984,1294.1117,467.5417,1291.3858,470.2676,1286.429,462.74,1292.78" style="stroke:#181818;stroke-width:1.0;"/><text fill="#000000" font-family="sans-serif" font-size="13" lengthAdjust="spacing" textLength="20" x="470.4316" y="1286.6914">1..*</text></g><!--SRC=[dLJRZjCm47ttLrZxGakJ2dYiLfLWLqALK1_eyW5EF9kQEdPaUu60zjznhXqdpdBfI-MPCsUEpunZBq9LpB2ILYo_i09EhfP03UIEgK82iIF0dXdNtuKgw2EJ5cUaKE3g2cYbPTqS24hcabdxtZaZiYS7Xroha_W9z0qXhoGyEkeqDQ8uEyf5qrLeHKXRGp-20iCSF82d-KMe_wLKA4TBqNBW2Fk18f-4TRUdYv1oJstpPuy073XEtsafMQOzlpPxcgFJ06xHcq35gk-S30sJW7zDoFCWlcq_gZxvwtlZ52kXf-togoQ2ox2ieNfQdDvxEJGJnfqvgr68yL9OwnriJa4juzo0jLsiCQmwQmN7fp834m2XP49UOO8Zp0QBQvKdeueaR9uC7HFSAUde4qzxh_C7lp79s26XNtKsCz1-XafRuVlLlHiRMe3hSiqSL-j9z4DzzC9y-3csHZEwj17QZdRTdxynAVWmxolxFop1AAX1zoAZ0uvV3YEcrME503lU00Un7mTb_IFElHbq5u3YlQvgPgR6Kt5Zbwo_qyePtmxCUDbuUfL7HVKkuq0H5R3-qvv438wDx3yc7xtubuE_iCzCOjljVi40ic1RKn4imCv_fz5KNoYBZ-gbYkdp8q7dD9r94VsspO4tRs-M7k5kOOPnajadOJVTYNZTmflRqVYcaGLyHxVTlWuP0pW6jN83Zxlikpd5WZs832F8p8Y_w8gpXFm6]--></g></svg>