<?xml version="1.0" encoding="us-ascii" standalone="no"?><svg xmlns="http://www.w3.org/2000/svg" xmlns:xlink="http://www.w3.org/1999/xlink" contentStyleType="text/css" height="1326.4px" preserveAspectRatio="none" style="width:1523px;height:1326px;background:#FFFFFF;" version="1.1" viewBox="0 0 1523 1326" width="1523.2px" zoomAndPan="magnify"><defs/><g><rect fill="#FFFFFF" height="1171.2688" style="stroke:#181818;stroke-width:0.8000000000000002;" width="8" x="72.8" y="74.8969"/><rect fill="#FFFFFF" height="59.9297" style="stroke:#181818;stroke-width:0.8000000000000002;" width="8" x="363.2" y="93.5297"/><rect fill="#FFFFFF" height="225.2953" style="stroke:#181818;stroke-width:0.8000000000000002;" width="8" x="363.2" y="178.4922"/><rect fill="#FFFFFF" height="25.0328" style="stroke:#181818;stroke-width:0.8000000000000002;" width="8" x="363.2" y="428.8203"/><rect fill="#FFFFFF" height="767.2797" style="stroke:#181818;stroke-width:0.8000000000000002;" width="8" x="363.2" y="478.8859"/><rect fill="#FFFFFF" height="175.2297" style="stroke:#181818;stroke-width:0.8000000000000002;" width="8" x="623.2" y="203.525"/><rect fill="#FFFFFF" height="175.2297" style="stroke:#181818;stroke-width:0.8000000000000002;" width="8" x="623.2" y="503.9188"/><rect fill="#FFFFFF" height="516.9516" style="stroke:#181818;stroke-width:0.8000000000000002;" width="8" x="623.2" y="704.1813"/><rect fill="#FFFFFF" height="184.0297" style="stroke:#181818;stroke-width:0.8000000000000002;" width="8" x="627.2" y="735.6141"/><rect fill="#FFFFFF" height="25.0328" style="stroke:#181818;stroke-width:0.8000000000000002;" width="8" x="796.8" y="228.5578"/><rect fill="#FFFFFF" height="25.0328" style="stroke:#181818;stroke-width:0.8000000000000002;" width="8" x="796.8" y="528.9516"/><rect fill="#FFFFFF" height="25.0328" style="stroke:#181818;stroke-width:0.8000000000000002;" width="8" x="796.8" y="764.6469"/><rect fill="#FFFFFF" height="25.0328" style="stroke:#181818;stroke-width:0.8000000000000002;" width="8" x="796.8" y="950.2766"/><rect fill="#FFFFFF" height="25.0328" style="stroke:#181818;stroke-width:0.8000000000000002;" width="8" x="882.4" y="278.6234"/><rect fill="#FFFFFF" height="25.0328" style="stroke:#181818;stroke-width:0.8000000000000002;" width="8" x="882.4" y="579.0172"/><rect fill="#FFFFFF" height="25.0328" style="stroke:#181818;stroke-width:0.8000000000000002;" width="8" x="882.4" y="814.7125"/><rect fill="#FFFFFF" height="25.0328" style="stroke:#181818;stroke-width:0.8000000000000002;" width="8" x="882.4" y="1000.3422"/><rect fill="#FFFFFF" height="25.0328" style="stroke:#181818;stroke-width:0.8000000000000002;" width="8" x="973.6" y="328.6891"/><rect fill="#FFFFFF" height="25.0328" style="stroke:#181818;stroke-width:0.8000000000000002;" width="8" x="973.6" y="864.7781"/><rect fill="#FFFFFF" height="25.0328" style="stroke:#181818;stroke-width:0.8000000000000002;" width="8" x="1091.6" y="629.0828"/><rect fill="#FFFFFF" height="145.6922" style="stroke:#181818;stroke-width:0.8000000000000002;" width="8" x="1236.8" y="1050.4078"/><line style="stroke:#181818;stroke-width:0.4000000000000001;stroke-dasharray:5.0,5.0;" x1="76.8" x2="76.8" y1="66.8969" y2="1260.5656"/><line style="stroke:#181818;stroke-width:0.4000000000000001;stroke-dasharray:5.0,5.0;" x1="367.2" x2="367.2" y1="66.8969" y2="1260.5656"/><line style="stroke:#181818;stroke-width:0.4000000000000001;stroke-dasharray:5.0,5.0;" x1="627.2" x2="627.2" y1="125.3781" y2="1260.5656"/><line style="stroke:#181818;stroke-width:0.4000000000000001;stroke-dasharray:5.0,5.0;" x1="800.4" x2="800.4" y1="66.8969" y2="1260.5656"/><line style="stroke:#181818;stroke-width:0.4000000000000001;stroke-dasharray:5.0,5.0;" x1="886" x2="886" y1="66.8969" y2="1260.5656"/><line style="stroke:#181818;stroke-width:0.4000000000000001;stroke-dasharray:5.0,5.0;" x1="977.2" x2="977.2" y1="66.8969" y2="1260.5656"/><line style="stroke:#181818;stroke-width:0.4000000000000001;stroke-dasharray:5.0,5.0;" x1="1095.6" x2="1095.6" y1="66.8969" y2="1260.5656"/><line style="stroke:#181818;stroke-width:0.4000000000000001;stroke-dasharray:5.0,5.0;" x1="1240.4" x2="1240.4" y1="66.8969" y2="1260.5656"/><line style="stroke:#181818;stroke-width:0.4000000000000001;stroke-dasharray:5.0,5.0;" x1="1496.8" x2="1496.8" y1="1089.7047" y2="1260.5656"/><text fill="#000000" font-family="sans-serif" font-size="11.2" lengthAdjust="spacing" textLength="140.8" x="4" y="64.0859">Human Resources Manager</text><ellipse cx="76.8" cy="10.8" fill="#E3E3E3" rx="6.4" ry="6.4" style="stroke:#181818;stroke-width:0.4000000000000001;"/><path d="M76.8,17.2 L76.8,38.8 M66.4,23.6 L87.2,23.6 M76.8,38.8 L66.4,50.8 M76.8,38.8 L87.2,50.8 " fill="none" style="stroke:#181818;stroke-width:0.4000000000000001;"/><text fill="#000000" font-family="sans-serif" font-size="11.2" lengthAdjust="spacing" textLength="140.8" x="4" y="1271.8516">Human Resources Manager</text><ellipse cx="76.8" cy="1281.4625" fill="#E3E3E3" rx="6.4" ry="6.4" style="stroke:#181818;stroke-width:0.4000000000000001;"/><path d="M76.8,1287.8625 L76.8,1309.4625 M66.4,1294.2625 L87.2,1294.2625 M76.8,1309.4625 L66.4,1321.4625 M76.8,1309.4625 L87.2,1321.4625 " fill="none" style="stroke:#181818;stroke-width:0.4000000000000001;"/><rect fill="#E3E3E3" height="26.0969" rx="2" ry="2" style="stroke:#181818;stroke-width:0.4000000000000001;" width="100.8" x="316.8" y="40"/><text fill="#000000" font-family="sans-serif" font-size="11.2" lengthAdjust="spacing" textLength="89.6" x="322.4" y="57.6859">:GenerateTeamUI</text><rect fill="#E3E3E3" height="26.0969" rx="2" ry="2" style="stroke:#181818;stroke-width:0.4000000000000001;" width="100.8" x="316.8" y="1259.7656"/><text fill="#000000" font-family="sans-serif" font-size="11.2" lengthAdjust="spacing" textLength="89.6" x="322.4" y="1277.4516">:GenerateTeamUI</text><rect fill="#E3E3E3" height="26.0969" rx="2" ry="2" style="stroke:#181818;stroke-width:0.4000000000000001;" width="140.8" x="556.8" y="1259.7656"/><text fill="#000000" font-family="sans-serif" font-size="11.2" lengthAdjust="spacing" textLength="129.6" x="562.4" y="1277.4516">:GenerateTeamController</text><rect fill="#E3E3E3" height="26.0969" rx="2" ry="2" style="stroke:#181818;stroke-width:0.4000000000000001;" width="77.6" x="762" y="40"/><text fill="#000000" font-family="sans-serif" font-size="11.2" lengthAdjust="spacing" textLength="66.4" x="767.6" y="57.6859">:Repositories</text><rect fill="#E3E3E3" height="26.0969" rx="2" ry="2" style="stroke:#181818;stroke-width:0.4000000000000001;" width="77.6" x="762" y="1259.7656"/><text fill="#000000" font-family="sans-serif" font-size="11.2" lengthAdjust="spacing" textLength="66.4" x="767.6" y="1277.4516">:Repositories</text><rect fill="#E3E3E3" height="40.9938" rx="2" ry="2" style="stroke:#181818;stroke-width:0.4000000000000001;" width="77.6" x="847.6" y="25.1031"/><text fill="#000000" font-family="sans-serif" font-size="11.2" lengthAdjust="spacing" textLength="59.2" x="856.8" y="42.7891">repositories</text><text fill="#000000" font-family="sans-serif" font-size="11.2" lengthAdjust="spacing" textLength="66.4" x="853.2" y="57.6859">:Repositories</text><rect fill="#E3E3E3" height="40.9938" rx="2" ry="2" style="stroke:#181818;stroke-width:0.4000000000000001;" width="77.6" x="847.6" y="1259.7656"/><text fill="#000000" font-family="sans-serif" font-size="11.2" lengthAdjust="spacing" textLength="59.2" x="856.8" y="1277.4516">repositories</text><text fill="#000000" font-family="sans-serif" font-size="11.2" lengthAdjust="spacing" textLength="66.4" x="853.2" y="1292.3484">:Repositories</text><rect fill="#E3E3E3" height="40.9938" rx="2" ry="2" style="stroke:#181818;stroke-width:0.4000000000000001;" width="88.8" x="933.2" y="25.1031"/><text fill="#000000" font-family="sans-serif" font-size="11.2" lengthAdjust="spacing" textLength="72.8" x="941.2" y="42.7891">skillRepository</text><text fill="#000000" font-family="sans-serif" font-size="11.2" lengthAdjust="spacing" textLength="77.6" x="938.8" y="57.6859">:SkillRepository</text><rect fill="#E3E3E3" height="40.9938" rx="2" ry="2" style="stroke:#181818;stroke-width:0.4000000000000001;" width="88.8" x="933.2" y="1259.7656"/><text fill="#000000" font-family="sans-serif" font-size="11.2" lengthAdjust="spacing" textLength="72.8" x="941.2" y="1277.4516">skillRepository</text><text fill="#000000" font-family="sans-serif" font-size="11.2" lengthAdjust="spacing" textLength="77.6" x="938.8" y="1292.3484">:SkillRepository</text><rect fill="#E3E3E3" height="40.9938" rx="2" ry="2" style="stroke:#181818;stroke-width:0.4000000000000001;" width="131.2" x="1030" y="25.1031"/><text fill="#000000" font-family="sans-serif" font-size="11.2" lengthAdjust="spacing" textLength="114.4" x="1038.4" y="42.7891">collaboratorRepository</text><text fill="#000000" font-family="sans-serif" font-size="11.2" lengthAdjust="spacing" textLength="120" x="1035.6" y="57.6859">:CollaboratorRepository</text><rect fill="#E3E3E3" height="40.9938" rx="2" ry="2" style="stroke:#181818;stroke-width:0.4000000000000001;" width="131.2" x="1030" y="1259.7656"/><text fill="#000000" font-family="sans-serif" font-size="11.2" lengthAdjust="spacing" textLength="114.4" x="1038.4" y="1277.4516">collaboratorRepository</text><text fill="#000000" font-family="sans-serif" font-size="11.2" lengthAdjust="spacing" textLength="120" x="1035.6" y="1292.3484">:CollaboratorRepository</text><rect fill="#E3E3E3" height="40.9938" rx="2" ry="2" style="stroke:#181818;stroke-width:0.4000000000000001;" width="143.2" x="1169.2" y="25.1031"/><text fill="#000000" font-family="sans-serif" font-size="11.2" lengthAdjust="spacing" textLength="132" x="1174.8" y="42.7891">generateTeamRepository:</text><text fill="#000000" font-family="sans-serif" font-size="11.2" lengthAdjust="spacing" textLength="131.2" x="1175.2" y="57.6859">GenerateTeamRepository</text><rect fill="#E3E3E3" height="40.9938" rx="2" ry="2" style="stroke:#181818;stroke-width:0.4000000000000001;" width="143.2" x="1169.2" y="1259.7656"/><text fill="#000000" font-family="sans-serif" font-size="11.2" lengthAdjust="spacing" textLength="132" x="1174.8" y="1277.4516">generateTeamRepository:</text><text fill="#000000" font-family="sans-serif" font-size="11.2" lengthAdjust="spacing" textLength="131.2" x="1175.2" y="1292.3484">GenerateTeamRepository</text><rect fill="#E3E3E3" height="40.9938" rx="2" ry="2" style="stroke:#181818;stroke-width:0.4000000000000001;" width="43.2" x="1475.2" y="1259.7656"/><text fill="#000000" font-family="sans-serif" font-size="11.2" lengthAdjust="spacing" textLength="24.8" x="1484.4" y="1277.4516">team</text><text fill="#000000" font-family="sans-serif" font-size="11.2" lengthAdjust="spacing" textLength="32" x="1480.8" y="1292.3484">:Team</text><rect fill="#FFFFFF" height="1171.2688" style="stroke:#181818;stroke-width:0.8000000000000002;" width="8" x="72.8" y="74.8969"/><rect fill="#FFFFFF" height="59.9297" style="stroke:#181818;stroke-width:0.8000000000000002;" width="8" x="363.2" y="93.5297"/><rect fill="#FFFFFF" height="225.2953" style="stroke:#181818;stroke-width:0.8000000000000002;" width="8" x="363.2" y="178.4922"/><rect fill="#FFFFFF" height="25.0328" style="stroke:#181818;stroke-width:0.8000000000000002;" width="8" x="363.2" y="428.8203"/><rect fill="#FFFFFF" height="767.2797" style="stroke:#181818;stroke-width:0.8000000000000002;" width="8" x="363.2" y="478.8859"/><rect fill="#FFFFFF" height="175.2297" style="stroke:#181818;stroke-width:0.8000000000000002;" width="8" x="623.2" y="203.525"/><rect fill="#FFFFFF" height="175.2297" style="stroke:#181818;stroke-width:0.8000000000000002;" width="8" x="623.2" y="503.9188"/><rect fill="#FFFFFF" height="516.9516" style="stroke:#181818;stroke-width:0.8000000000000002;" width="8" x="623.2" y="704.1813"/><rect fill="#FFFFFF" height="184.0297" style="stroke:#181818;stroke-width:0.8000000000000002;" width="8" x="627.2" y="735.6141"/><rect fill="#FFFFFF" height="25.0328" style="stroke:#181818;stroke-width:0.8000000000000002;" width="8" x="796.8" y="228.5578"/><rect fill="#FFFFFF" height="25.0328" style="stroke:#181818;stroke-width:0.8000000000000002;" width="8" x="796.8" y="528.9516"/><rect fill="#FFFFFF" height="25.0328" style="stroke:#181818;stroke-width:0.8000000000000002;" width="8" x="796.8" y="764.6469"/><rect fill="#FFFFFF" height="25.0328" style="stroke:#181818;stroke-width:0.8000000000000002;" width="8" x="796.8" y="950.2766"/><rect fill="#FFFFFF" height="25.0328" style="stroke:#181818;stroke-width:0.8000000000000002;" width="8" x="882.4" y="278.6234"/><rect fill="#FFFFFF" height="25.0328" style="stroke:#181818;stroke-width:0.8000000000000002;" width="8" x="882.4" y="579.0172"/><rect fill="#FFFFFF" height="25.0328" style="stroke:#181818;stroke-width:0.8000000000000002;" width="8" x="882.4" y="814.7125"/><rect fill="#FFFFFF" height="25.0328" style="stroke:#181818;stroke-width:0.8000000000000002;" width="8" x="882.4" y="1000.3422"/><rect fill="#FFFFFF" height="25.0328" style="stroke:#181818;stroke-width:0.8000000000000002;" width="8" x="973.6" y="328.6891"/><rect fill="#FFFFFF" height="25.0328" style="stroke:#181818;stroke-width:0.8000000000000002;" width="8" x="973.6" y="864.7781"/><rect fill="#FFFFFF" height="25.0328" style="stroke:#181818;stroke-width:0.8000000000000002;" width="8" x="1091.6" y="629.0828"/><rect fill="#FFFFFF" height="145.6922" style="stroke:#181818;stroke-width:0.8000000000000002;" width="8" x="1236.8" y="1050.4078"/><polygon fill="#181818" points="353.6,90.3297,361.6,93.5297,353.6,96.7297,356.8,93.5297" style="stroke:#181818;stroke-width:0.8000000000000002;"/><line style="stroke:#181818;stroke-width:0.8000000000000002;" x1="80.8" x2="358.4" y1="93.5297" y2="93.5297"/><text fill="#000000" font-family="sans-serif" font-size="10.4" font-weight="bold" lengthAdjust="spacing" textLength="5.6" x="86.4" y="89.3195">1</text><text fill="#000000" font-family="sans-serif" font-size="10.4" lengthAdjust="spacing" textLength="164.8" x="95.2" y="89.3195">Initiates a team proposal generation</text><polygon fill="#181818" points="547.2,115.3625,555.2,118.5625,547.2,121.7625,550.4,118.5625" style="stroke:#181818;stroke-width:0.8000000000000002;"/><line style="stroke:#181818;stroke-width:0.8000000000000002;" x1="371.2" x2="552" y1="118.5625" y2="118.5625"/><text fill="#000000" font-family="sans-serif" font-size="10.4" font-weight="bold" lengthAdjust="spacing" textLength="5.6" x="376.8" y="114.3523">2</text><text fill="#000000" font-family="sans-serif" font-size="10.4" lengthAdjust="spacing" textLength="28.8" x="385.6" y="114.3523">create</text><rect fill="#E3E3E3" height="26.0969" rx="2" ry="2" style="stroke:#181818;stroke-width:0.4000000000000001;" width="140.8" x="556.8" y="99.9297"/><text fill="#000000" font-family="sans-serif" font-size="11.2" lengthAdjust="spacing" textLength="129.6" x="562.4" y="117.6156">:GenerateTeamController</text><polygon fill="#181818" points="89.6,150.2594,81.6,153.4594,89.6,156.6594,86.4,153.4594" style="stroke:#181818;stroke-width:0.8000000000000002;"/><line style="stroke:#181818;stroke-width:0.8000000000000002;stroke-dasharray:2.0,2.0;" x1="84.8" x2="366.4" y1="153.4594" y2="153.4594"/><text fill="#000000" font-family="sans-serif" font-size="10.4" font-weight="bold" lengthAdjust="spacing" textLength="5.6" x="94.4" y="149.2492">3</text><text fill="#000000" font-family="sans-serif" font-size="10.4" lengthAdjust="spacing" textLength="185.6" x="103.2" y="149.2492">Requests data (min and max team size)</text><polygon fill="#181818" points="353.6,175.2922,361.6,178.4922,353.6,181.6922,356.8,178.4922" style="stroke:#181818;stroke-width:0.8000000000000002;"/><line style="stroke:#181818;stroke-width:0.8000000000000002;" x1="80.8" x2="358.4" y1="178.4922" y2="178.4922"/><text fill="#000000" font-family="sans-serif" font-size="10.4" font-weight="bold" lengthAdjust="spacing" textLength="5.6" x="86.4" y="174.282">4</text><text fill="#000000" font-family="sans-serif" font-size="10.4" lengthAdjust="spacing" textLength="100" x="95.2" y="174.282">Types requested data</text><polygon fill="#181818" points="613.6,200.325,621.6,203.525,613.6,206.725,616.8,203.525" style="stroke:#181818;stroke-width:0.8000000000000002;"/><line style="stroke:#181818;stroke-width:0.8000000000000002;" x1="371.2" x2="618.4" y1="203.525" y2="203.525"/><text fill="#000000" font-family="sans-serif" font-size="10.4" font-weight="bold" lengthAdjust="spacing" textLength="5.6" x="376.8" y="199.3148">5</text><text fill="#000000" font-family="sans-serif" font-size="10.4" lengthAdjust="spacing" textLength="63.2" x="385.6" y="199.3148">getSkillsList()</text><polygon fill="#181818" points="787.2,225.3578,795.2,228.5578,787.2,231.7578,790.4,228.5578" style="stroke:#181818;stroke-width:0.8000000000000002;"/><line style="stroke:#181818;stroke-width:0.8000000000000002;" x1="631.2" x2="792" y1="228.5578" y2="228.5578"/><text fill="#000000" font-family="sans-serif" font-size="10.4" font-weight="bold" lengthAdjust="spacing" textLength="5.6" x="636.8" y="224.3477">6</text><text fill="#000000" font-family="sans-serif" font-size="10.4" lengthAdjust="spacing" textLength="60" x="645.6" y="224.3477">getInstance()</text><polygon fill="#181818" points="640,250.3906,632,253.5906,640,256.7906,636.8,253.5906" style="stroke:#181818;stroke-width:0.8000000000000002;"/><line style="stroke:#181818;stroke-width:0.8000000000000002;stroke-dasharray:2.0,2.0;" x1="635.2" x2="800" y1="253.5906" y2="253.5906"/><text fill="#000000" font-family="sans-serif" font-size="10.4" font-weight="bold" lengthAdjust="spacing" textLength="5.6" x="644.8" y="249.3805">7</text><text fill="#000000" font-family="sans-serif" font-size="10.4" lengthAdjust="spacing" textLength="53.6" x="653.6" y="249.3805">repositories</text><polygon fill="#181818" points="872.8,275.4234,880.8,278.6234,872.8,281.8234,876,278.6234" style="stroke:#181818;stroke-width:0.8000000000000002;"/><line style="stroke:#181818;stroke-width:0.8000000000000002;" x1="631.2" x2="877.6" y1="278.6234" y2="278.6234"/><text fill="#000000" font-family="sans-serif" font-size="10.4" font-weight="bold" lengthAdjust="spacing" textLength="5.6" x="636.8" y="274.4133">8</text><text fill="#000000" font-family="sans-serif" font-size="10.4" lengthAdjust="spacing" textLength="90.4" x="645.6" y="274.4133">getSkillRepository()</text><polygon fill="#181818" points="640,300.4563,632,303.6563,640,306.8563,636.8,303.6563" style="stroke:#181818;stroke-width:0.8000000000000002;"/><line style="stroke:#181818;stroke-width:0.8000000000000002;stroke-dasharray:2.0,2.0;" x1="635.2" x2="885.6" y1="303.6563" y2="303.6563"/><text fill="#000000" font-family="sans-serif" font-size="10.4" font-weight="bold" lengthAdjust="spacing" textLength="5.6" x="644.8" y="299.4461">9</text><text fill="#000000" font-family="sans-serif" font-size="10.4" lengthAdjust="spacing" textLength="69.6" x="653.6" y="299.4461">SkillRepository</text><polygon fill="#181818" points="964,325.4891,972,328.6891,964,331.8891,967.2,328.6891" style="stroke:#181818;stroke-width:0.8000000000000002;"/><line style="stroke:#181818;stroke-width:0.8000000000000002;" x1="631.2" x2="968.8" y1="328.6891" y2="328.6891"/><text fill="#000000" font-family="sans-serif" font-size="10.4" font-weight="bold" lengthAdjust="spacing" textLength="11.2" x="636.8" y="324.4789">10</text><text fill="#000000" font-family="sans-serif" font-size="10.4" lengthAdjust="spacing" textLength="63.2" x="651.2" y="324.4789">getSkillsList()</text><polygon fill="#181818" points="640,350.5219,632,353.7219,640,356.9219,636.8,353.7219" style="stroke:#181818;stroke-width:0.8000000000000002;"/><line style="stroke:#181818;stroke-width:0.8000000000000002;stroke-dasharray:2.0,2.0;" x1="635.2" x2="976.8" y1="353.7219" y2="353.7219"/><text fill="#000000" font-family="sans-serif" font-size="10.4" font-weight="bold" lengthAdjust="spacing" textLength="11.2" x="644.8" y="349.5117">11</text><text fill="#000000" font-family="sans-serif" font-size="10.4" lengthAdjust="spacing" textLength="42.4" x="659.2" y="349.5117">SkillsList</text><polygon fill="#181818" points="380,375.5547,372,378.7547,380,381.9547,376.8,378.7547" style="stroke:#181818;stroke-width:0.8000000000000002;"/><line style="stroke:#181818;stroke-width:0.8000000000000002;stroke-dasharray:2.0,2.0;" x1="375.2" x2="626.4" y1="378.7547" y2="378.7547"/><text fill="#000000" font-family="sans-serif" font-size="10.4" font-weight="bold" lengthAdjust="spacing" textLength="11.2" x="384.8" y="374.5445">12</text><text fill="#000000" font-family="sans-serif" font-size="10.4" lengthAdjust="spacing" textLength="42.4" x="399.2" y="374.5445">SkillsList</text><polygon fill="#181818" points="89.6,400.5875,81.6,403.7875,89.6,406.9875,86.4,403.7875" style="stroke:#181818;stroke-width:0.8000000000000002;"/><line style="stroke:#181818;stroke-width:0.8000000000000002;stroke-dasharray:2.0,2.0;" x1="84.8" x2="366.4" y1="403.7875" y2="403.7875"/><text fill="#000000" font-family="sans-serif" font-size="10.4" font-weight="bold" lengthAdjust="spacing" textLength="11.2" x="94.4" y="399.5773">13</text><text fill="#000000" font-family="sans-serif" font-size="10.4" lengthAdjust="spacing" textLength="211.2" x="108.8" y="399.5773">shows the list of skills and asks to select one</text><polygon fill="#181818" points="353.6,425.6203,361.6,428.8203,353.6,432.0203,356.8,428.8203" style="stroke:#181818;stroke-width:0.8000000000000002;"/><line style="stroke:#181818;stroke-width:0.8000000000000002;" x1="80.8" x2="358.4" y1="428.8203" y2="428.8203"/><text fill="#000000" font-family="sans-serif" font-size="10.4" font-weight="bold" lengthAdjust="spacing" textLength="11.2" x="86.4" y="424.6102">14</text><text fill="#000000" font-family="sans-serif" font-size="10.4" lengthAdjust="spacing" textLength="60.8" x="100.8" y="424.6102">chooses skill</text><polygon fill="#181818" points="89.6,450.6531,81.6,453.8531,89.6,457.0531,86.4,453.8531" style="stroke:#181818;stroke-width:0.8000000000000002;"/><line style="stroke:#181818;stroke-width:0.8000000000000002;stroke-dasharray:2.0,2.0;" x1="84.8" x2="366.4" y1="453.8531" y2="453.8531"/><text fill="#000000" font-family="sans-serif" font-size="10.4" font-weight="bold" lengthAdjust="spacing" textLength="11.2" x="94.4" y="449.643">15</text><text fill="#000000" font-family="sans-serif" font-size="10.4" lengthAdjust="spacing" textLength="248.8" x="108.8" y="449.643">generate the team proposal and requests confirmation</text><polygon fill="#181818" points="353.6,475.6859,361.6,478.8859,353.6,482.0859,356.8,478.8859" style="stroke:#181818;stroke-width:0.8000000000000002;"/><line style="stroke:#181818;stroke-width:0.8000000000000002;" x1="80.8" x2="358.4" y1="478.8859" y2="478.8859"/><text fill="#000000" font-family="sans-serif" font-size="10.4" font-weight="bold" lengthAdjust="spacing" textLength="11.2" x="86.4" y="474.6758">16</text><text fill="#000000" font-family="sans-serif" font-size="10.4" lengthAdjust="spacing" textLength="132" x="100.8" y="474.6758">confirms the team generated</text><polygon fill="#181818" points="613.6,500.7188,621.6,503.9188,613.6,507.1188,616.8,503.9188" style="stroke:#181818;stroke-width:0.8000000000000002;"/><line style="stroke:#181818;stroke-width:0.8000000000000002;" x1="371.2" x2="618.4" y1="503.9188" y2="503.9188"/><text fill="#000000" font-family="sans-serif" font-size="10.4" font-weight="bold" lengthAdjust="spacing" textLength="11.2" x="376.8" y="499.7086">17</text><text fill="#000000" font-family="sans-serif" font-size="10.4" lengthAdjust="spacing" textLength="92.8" x="391.2" y="499.7086">getCollaboratorList()</text><polygon fill="#181818" points="787.2,525.7516,795.2,528.9516,787.2,532.1516,790.4,528.9516" style="stroke:#181818;stroke-width:0.8000000000000002;"/><line style="stroke:#181818;stroke-width:0.8000000000000002;" x1="631.2" x2="792" y1="528.9516" y2="528.9516"/><text fill="#000000" font-family="sans-serif" font-size="10.4" font-weight="bold" lengthAdjust="spacing" textLength="11.2" x="636.8" y="524.7414">18</text><text fill="#000000" font-family="sans-serif" font-size="10.4" lengthAdjust="spacing" textLength="60" x="651.2" y="524.7414">getInstance()</text><polygon fill="#181818" points="640,550.7844,632,553.9844,640,557.1844,636.8,553.9844" style="stroke:#181818;stroke-width:0.8000000000000002;"/><line style="stroke:#181818;stroke-width:0.8000000000000002;stroke-dasharray:2.0,2.0;" x1="635.2" x2="800" y1="553.9844" y2="553.9844"/><text fill="#000000" font-family="sans-serif" font-size="10.4" font-weight="bold" lengthAdjust="spacing" textLength="11.2" x="644.8" y="549.7742">19</text><text fill="#000000" font-family="sans-serif" font-size="10.4" lengthAdjust="spacing" textLength="53.6" x="659.2" y="549.7742">repositories</text><polygon fill="#181818" points="872.8,575.8172,880.8,579.0172,872.8,582.2172,876,579.0172" style="stroke:#181818;stroke-width:0.8000000000000002;"/><line style="stroke:#181818;stroke-width:0.8000000000000002;" x1="631.2" x2="877.6" y1="579.0172" y2="579.0172"/><text fill="#000000" font-family="sans-serif" font-size="10.4" font-weight="bold" lengthAdjust="spacing" textLength="11.2" x="636.8" y="574.807">20</text><text fill="#000000" font-family="sans-serif" font-size="10.4" lengthAdjust="spacing" textLength="125.6" x="651.2" y="574.807">getCollaboratorRepository()</text><polygon fill="#181818" points="640,600.85,632,604.05,640,607.25,636.8,604.05" style="stroke:#181818;stroke-width:0.8000000000000002;"/><line style="stroke:#181818;stroke-width:0.8000000000000002;stroke-dasharray:2.0,2.0;" x1="635.2" x2="885.6" y1="604.05" y2="604.05"/><text fill="#000000" font-family="sans-serif" font-size="10.4" font-weight="bold" lengthAdjust="spacing" textLength="11.2" x="644.8" y="599.8398">21</text><text fill="#000000" font-family="sans-serif" font-size="10.4" lengthAdjust="spacing" textLength="104.8" x="659.2" y="599.8398">CollaboratorRepository</text><polygon fill="#181818" points="1082,625.8828,1090,629.0828,1082,632.2828,1085.2,629.0828" style="stroke:#181818;stroke-width:0.8000000000000002;"/><line style="stroke:#181818;stroke-width:0.8000000000000002;" x1="631.2" x2="1086.8" y1="629.0828" y2="629.0828"/><text fill="#000000" font-family="sans-serif" font-size="10.4" font-weight="bold" lengthAdjust="spacing" textLength="11.2" x="636.8" y="624.8727">22</text><text fill="#000000" font-family="sans-serif" font-size="10.4" lengthAdjust="spacing" textLength="92.8" x="651.2" y="624.8727">getCollaboratorList()</text><polygon fill="#181818" points="640,650.9156,632,654.1156,640,657.3156,636.8,654.1156" style="stroke:#181818;stroke-width:0.8000000000000002;"/><line style="stroke:#181818;stroke-width:0.8000000000000002;stroke-dasharray:2.0,2.0;" x1="635.2" x2="1094.8" y1="654.1156" y2="654.1156"/><text fill="#000000" font-family="sans-serif" font-size="10.4" font-weight="bold" lengthAdjust="spacing" textLength="11.2" x="644.8" y="649.9055">23</text><text fill="#000000" font-family="sans-serif" font-size="10.4" lengthAdjust="spacing" textLength="72" x="659.2" y="649.9055">CollaboratorList</text><polygon fill="#181818" points="380,675.9484,372,679.1484,380,682.3484,376.8,679.1484" style="stroke:#181818;stroke-width:0.8000000000000002;"/><line style="stroke:#181818;stroke-width:0.8000000000000002;stroke-dasharray:2.0,2.0;" x1="375.2" x2="626.4" y1="679.1484" y2="679.1484"/><text fill="#000000" font-family="sans-serif" font-size="10.4" font-weight="bold" lengthAdjust="spacing" textLength="11.2" x="384.8" y="674.9383">24</text><text fill="#000000" font-family="sans-serif" font-size="10.4" lengthAdjust="spacing" textLength="72" x="399.2" y="674.9383">CollaboratorList</text><polygon fill="#181818" points="613.6,700.9813,621.6,704.1813,613.6,707.3813,616.8,704.1813" style="stroke:#181818;stroke-width:0.8000000000000002;"/><line style="stroke:#181818;stroke-width:0.8000000000000002;" x1="371.2" x2="618.4" y1="704.1813" y2="704.1813"/><text fill="#000000" font-family="sans-serif" font-size="10.4" font-weight="bold" lengthAdjust="spacing" textLength="11.2" x="376.8" y="699.9711">25</text><text fill="#000000" font-family="sans-serif" font-size="10.4" lengthAdjust="spacing" textLength="222.4" x="391.2" y="699.9711">generateTeam(minSize, maxSize, skillsNeeded)</text><line style="stroke:#181818;stroke-width:0.8000000000000002;" x1="631.2" x2="668.8" y1="725.2141" y2="725.2141"/><line style="stroke:#181818;stroke-width:0.8000000000000002;" x1="668.8" x2="668.8" y1="725.2141" y2="735.6141"/><line style="stroke:#181818;stroke-width:0.8000000000000002;" x1="636" x2="668.8" y1="735.6141" y2="735.6141"/><polygon fill="#181818" points="644,732.4141,636,735.6141,644,738.8141,640.8,735.6141" style="stroke:#181818;stroke-width:0.8000000000000002;"/><text fill="#000000" font-family="sans-serif" font-size="10.4" font-weight="bold" lengthAdjust="spacing" textLength="11.2" x="640.8" y="721.0039">26</text><text fill="#000000" font-family="sans-serif" font-size="10.4" lengthAdjust="spacing" textLength="140" x="655.2" y="721.0039">getSkillByName(skillsNeeded)</text><polygon fill="#181818" points="787.2,761.4469,795.2,764.6469,787.2,767.8469,790.4,764.6469" style="stroke:#181818;stroke-width:0.8000000000000002;"/><line style="stroke:#181818;stroke-width:0.8000000000000002;" x1="635.2" x2="792" y1="764.6469" y2="764.6469"/><text fill="#000000" font-family="sans-serif" font-size="10.4" font-weight="bold" lengthAdjust="spacing" textLength="11.2" x="640.8" y="760.4367">27</text><text fill="#000000" font-family="sans-serif" font-size="10.4" lengthAdjust="spacing" textLength="60" x="655.2" y="760.4367">getInstance()</text><polygon fill="#181818" points="644,786.4797,636,789.6797,644,792.8797,640.8,789.6797" style="stroke:#181818;stroke-width:0.8000000000000002;"/><line style="stroke:#181818;stroke-width:0.8000000000000002;stroke-dasharray:2.0,2.0;" x1="639.2" x2="800" y1="789.6797" y2="789.6797"/><text fill="#000000" font-family="sans-serif" font-size="10.4" font-weight="bold" lengthAdjust="spacing" textLength="11.2" x="648.8" y="785.4695">28</text><text fill="#000000" font-family="sans-serif" font-size="10.4" lengthAdjust="spacing" textLength="53.6" x="663.2" y="785.4695">repositories</text><polygon fill="#181818" points="872.8,811.5125,880.8,814.7125,872.8,817.9125,876,814.7125" style="stroke:#181818;stroke-width:0.8000000000000002;"/><line style="stroke:#181818;stroke-width:0.8000000000000002;" x1="635.2" x2="877.6" y1="814.7125" y2="814.7125"/><text fill="#000000" font-family="sans-serif" font-size="10.4" font-weight="bold" lengthAdjust="spacing" textLength="11.2" x="640.8" y="810.5023">29</text><text fill="#000000" font-family="sans-serif" font-size="10.4" lengthAdjust="spacing" textLength="90.4" x="655.2" y="810.5023">getSkillRepository()</text><polygon fill="#181818" points="644,836.5453,636,839.7453,644,842.9453,640.8,839.7453" style="stroke:#181818;stroke-width:0.8000000000000002;"/><line style="stroke:#181818;stroke-width:0.8000000000000002;stroke-dasharray:2.0,2.0;" x1="639.2" x2="885.6" y1="839.7453" y2="839.7453"/><text fill="#000000" font-family="sans-serif" font-size="10.4" font-weight="bold" lengthAdjust="spacing" textLength="11.2" x="648.8" y="835.5352">30</text><text fill="#000000" font-family="sans-serif" font-size="10.4" lengthAdjust="spacing" textLength="69.6" x="663.2" y="835.5352">SkillRepository</text><polygon fill="#181818" points="964,861.5781,972,864.7781,964,867.9781,967.2,864.7781" style="stroke:#181818;stroke-width:0.8000000000000002;"/><line style="stroke:#181818;stroke-width:0.8000000000000002;" x1="635.2" x2="968.8" y1="864.7781" y2="864.7781"/><text fill="#000000" font-family="sans-serif" font-size="10.4" font-weight="bold" lengthAdjust="spacing" textLength="11.2" x="640.8" y="860.568">31</text><text fill="#000000" font-family="sans-serif" font-size="10.4" lengthAdjust="spacing" textLength="140" x="655.2" y="860.568">getSkillByName(skillsNeeded)</text><polygon fill="#181818" points="644,886.6109,636,889.8109,644,893.0109,640.8,889.8109" style="stroke:#181818;stroke-width:0.8000000000000002;"/><line style="stroke:#181818;stroke-width:0.8000000000000002;stroke-dasharray:2.0,2.0;" x1="639.2" x2="976.8" y1="889.8109" y2="889.8109"/><text fill="#000000" font-family="sans-serif" font-size="10.4" font-weight="bold" lengthAdjust="spacing" textLength="11.2" x="648.8" y="885.6008">32</text><text fill="#000000" font-family="sans-serif" font-size="10.4" lengthAdjust="spacing" textLength="59.2" x="663.2" y="885.6008">skillsNeeded</text><line style="stroke:#181818;stroke-width:0.8000000000000002;stroke-dasharray:2.0,2.0;" x1="635.2" x2="668.8" y1="918.8438" y2="918.8438"/><line style="stroke:#181818;stroke-width:0.8000000000000002;stroke-dasharray:2.0,2.0;" x1="668.8" x2="668.8" y1="918.8438" y2="929.2438"/><line style="stroke:#181818;stroke-width:0.8000000000000002;stroke-dasharray:2.0,2.0;" x1="631.2" x2="668.8" y1="929.2438" y2="929.2438"/><polygon fill="#181818" points="639.2,926.0438,631.2,929.2438,639.2,932.4438,636,929.2438" style="stroke:#181818;stroke-width:0.8000000000000002;"/><text fill="#000000" font-family="sans-serif" font-size="10.4" font-weight="bold" lengthAdjust="spacing" textLength="11.2" x="640.8" y="914.6336">33</text><text fill="#000000" font-family="sans-serif" font-size="10.4" lengthAdjust="spacing" textLength="59.2" x="655.2" y="914.6336">skillsNeeded</text><polygon fill="#181818" points="787.2,947.0766,795.2,950.2766,787.2,953.4766,790.4,950.2766" style="stroke:#181818;stroke-width:0.8000000000000002;"/><line style="stroke:#181818;stroke-width:0.8000000000000002;" x1="631.2" x2="792" y1="950.2766" y2="950.2766"/><text fill="#000000" font-family="sans-serif" font-size="10.4" font-weight="bold" lengthAdjust="spacing" textLength="11.2" x="636.8" y="946.0664">34</text><text fill="#000000" font-family="sans-serif" font-size="10.4" lengthAdjust="spacing" textLength="60" x="651.2" y="946.0664">getInstance()</text><polygon fill="#181818" points="640,972.1094,632,975.3094,640,978.5094,636.8,975.3094" style="stroke:#181818;stroke-width:0.8000000000000002;"/><line style="stroke:#181818;stroke-width:0.8000000000000002;stroke-dasharray:2.0,2.0;" x1="635.2" x2="800" y1="975.3094" y2="975.3094"/><text fill="#000000" font-family="sans-serif" font-size="10.4" font-weight="bold" lengthAdjust="spacing" textLength="11.2" x="644.8" y="971.0992">35</text><text fill="#000000" font-family="sans-serif" font-size="10.4" lengthAdjust="spacing" textLength="53.6" x="659.2" y="971.0992">repositories</text><polygon fill="#181818" points="872.8,997.1422,880.8,1000.3422,872.8,1003.5422,876,1000.3422" style="stroke:#181818;stroke-width:0.8000000000000002;"/><line style="stroke:#181818;stroke-width:0.8000000000000002;" x1="631.2" x2="877.6" y1="1000.3422" y2="1000.3422"/><text fill="#000000" font-family="sans-serif" font-size="10.4" font-weight="bold" lengthAdjust="spacing" textLength="11.2" x="636.8" y="996.132">36</text><text fill="#000000" font-family="sans-serif" font-size="10.4" lengthAdjust="spacing" textLength="138.4" x="651.2" y="996.132">getGenerateTeamRepository()</text><polygon fill="#181818" points="640,1022.175,632,1025.375,640,1028.575,636.8,1025.375" style="stroke:#181818;stroke-width:0.8000000000000002;"/><line style="stroke:#181818;stroke-width:0.8000000000000002;stroke-dasharray:2.0,2.0;" x1="635.2" x2="885.6" y1="1025.375" y2="1025.375"/><text fill="#000000" font-family="sans-serif" font-size="10.4" font-weight="bold" lengthAdjust="spacing" textLength="11.2" x="644.8" y="1021.1648">37</text><text fill="#000000" font-family="sans-serif" font-size="10.4" lengthAdjust="spacing" textLength="115.2" x="659.2" y="1021.1648">generateTeamRepository</text><polygon fill="#181818" points="1227.2,1047.2078,1235.2,1050.4078,1227.2,1053.6078,1230.4,1050.4078" style="stroke:#181818;stroke-width:0.8000000000000002;"/><line style="stroke:#181818;stroke-width:0.8000000000000002;" x1="631.2" x2="1232" y1="1050.4078" y2="1050.4078"/><text fill="#000000" font-family="sans-serif" font-size="10.4" font-weight="bold" lengthAdjust="spacing" textLength="11.2" x="636.8" y="1046.1977">38</text><text fill="#000000" font-family="sans-serif" font-size="10.4" lengthAdjust="spacing" textLength="222.4" x="651.2" y="1046.1977">generateTeam(minSize, maxSize, skillsNeeded)</text><polygon fill="#181818" points="1465.6,1072.2406,1473.6,1075.4406,1465.6,1078.6406,1468.8,1075.4406" style="stroke:#181818;stroke-width:0.8000000000000002;"/><line style="stroke:#181818;stroke-width:0.8000000000000002;" x1="1244.8" x2="1470.4" y1="1075.4406" y2="1075.4406"/><text fill="#000000" font-family="sans-serif" font-size="10.4" font-weight="bold" lengthAdjust="spacing" textLength="11.2" x="1250.4" y="1071.2305">39</text><text fill="#000000" font-family="sans-serif" font-size="10.4" lengthAdjust="spacing" textLength="196.8" x="1264.8" y="1071.2305">generate(minSize, maxSize, skillsNeeded)</text><rect fill="#E3E3E3" height="40.9938" rx="2" ry="2" style="stroke:#181818;stroke-width:0.4000000000000001;" width="43.2" x="1475.2" y="1056.8078"/><text fill="#000000" font-family="sans-serif" font-size="11.2" lengthAdjust="spacing" textLength="24.8" x="1484.4" y="1074.4938">team</text><text fill="#000000" font-family="sans-serif" font-size="11.2" lengthAdjust="spacing" textLength="32" x="1480.8" y="1089.3906">:Team</text><line style="stroke:#181818;stroke-width:0.8000000000000002;" x1="1244.8" x2="1278.4" y1="1125.2344" y2="1125.2344"/><line style="stroke:#181818;stroke-width:0.8000000000000002;" x1="1278.4" x2="1278.4" y1="1125.2344" y2="1135.6344"/><line style="stroke:#181818;stroke-width:0.8000000000000002;" x1="1245.6" x2="1278.4" y1="1135.6344" y2="1135.6344"/><polygon fill="#181818" points="1253.6,1132.4344,1245.6,1135.6344,1253.6,1138.8344,1250.4,1135.6344" style="stroke:#181818;stroke-width:0.8000000000000002;"/><text fill="#000000" font-family="sans-serif" font-size="10.4" font-weight="bold" lengthAdjust="spacing" textLength="11.2" x="1250.4" y="1121.0242">40</text><text fill="#000000" font-family="sans-serif" font-size="10.4" lengthAdjust="spacing" textLength="72" x="1264.8" y="1121.0242">addTeam(team)</text><line style="stroke:#181818;stroke-width:0.8000000000000002;" x1="1244.8" x2="1278.4" y1="1160.6672" y2="1160.6672"/><line style="stroke:#181818;stroke-width:0.8000000000000002;" x1="1278.4" x2="1278.4" y1="1160.6672" y2="1171.0672"/><line style="stroke:#181818;stroke-width:0.8000000000000002;" x1="1245.6" x2="1278.4" y1="1171.0672" y2="1171.0672"/><polygon fill="#181818" points="1253.6,1167.8672,1245.6,1171.0672,1253.6,1174.2672,1250.4,1171.0672" style="stroke:#181818;stroke-width:0.8000000000000002;"/><text fill="#000000" font-family="sans-serif" font-size="10.4" font-weight="bold" lengthAdjust="spacing" textLength="11.2" x="1250.4" y="1156.457">41</text><text fill="#000000" font-family="sans-serif" font-size="10.4" lengthAdjust="spacing" textLength="89.6" x="1264.8" y="1156.457">validateTeam(team)</text><polygon fill="#181818" points="640,1192.9,632,1196.1,640,1199.3,636.8,1196.1" style="stroke:#181818;stroke-width:0.8000000000000002;"/><line style="stroke:#181818;stroke-width:0.8000000000000002;stroke-dasharray:2.0,2.0;" x1="635.2" x2="1240" y1="1196.1" y2="1196.1"/><text fill="#000000" font-family="sans-serif" font-size="10.4" font-weight="bold" lengthAdjust="spacing" textLength="11.2" x="644.8" y="1191.8898">42</text><text fill="#000000" font-family="sans-serif" font-size="10.4" lengthAdjust="spacing" textLength="23.2" x="659.2" y="1191.8898">team</text><polygon fill="#181818" points="380,1217.9328,372,1221.1328,380,1224.3328,376.8,1221.1328" style="stroke:#181818;stroke-width:0.8000000000000002;"/><line style="stroke:#181818;stroke-width:0.8000000000000002;stroke-dasharray:2.0,2.0;" x1="375.2" x2="626.4" y1="1221.1328" y2="1221.1328"/><text fill="#000000" font-family="sans-serif" font-size="10.4" font-weight="bold" lengthAdjust="spacing" textLength="11.2" x="384.8" y="1216.9227">43</text><text fill="#000000" font-family="sans-serif" font-size="10.4" lengthAdjust="spacing" textLength="23.2" x="399.2" y="1216.9227">team</text><polygon fill="#181818" points="85.6,1242.9656,77.6,1246.1656,85.6,1249.3656,82.4,1246.1656" style="stroke:#181818;stroke-width:0.8000000000000002;"/><line style="stroke:#181818;stroke-width:0.8000000000000002;stroke-dasharray:2.0,2.0;" x1="80.8" x2="366.4" y1="1246.1656" y2="1246.1656"/><text fill="#000000" font-family="sans-serif" font-size="10.4" font-weight="bold" lengthAdjust="spacing" textLength="11.2" x="90.4" y="1241.9555">44</text><text fill="#000000" font-family="sans-serif" font-size="10.4" lengthAdjust="spacing" textLength="126.4" x="104.8" y="1241.9555">displays operation success</text><!--SRC=[pLTDRzim3BtxLn2zh2tMFv333Wk6Da1R355wwqMrcKIeBNcIqZRxzQFaE97y4TivpQV48X-VI3w9Dkz2bbpp0WebLRhLga2mUeU9EQwKF7td6sHsdoDeJ2sNcpmqC5kUgKyXDx3ckS4auJkhvAvuGvqatxOYGrWhPT_KLy9JgpHSFUmABc69HkrqYWQUkAG8-WguWOVbKqAuLgIYvDB2rUmU9MfkSOMyU5buevV56PkvabQhF3y0pbVBnuRr4ajb154HQBpDyjVls4G75g-oqu757fIFF3_QxSc9nM-y7sj5IeafVrD4Nkd8VTwvK6sfXR89zdyodhtA-yu5ZtA_Qi5OigBGpjYRh9B4rKny48AlJ0Bqq0-u-q55W1aifB22LWrmSDvGQaLHU0u7Ia99xtI4eThv5-uX209o5Rgz9R1K8rbKosw9rboi6RNAdnqQQo3ZbiDr8IHmcK71lwgWHlp56- -MOIjGI7UrBucghk0mytXZw97h1gslg7aKnbxV78sEdhxHZg_Tupq9WV9S0Ioa8Vca6BX74AuWqOhpl3jmc47ObP5PiEiMH4221TiuDSCPCgp5XWLq6ZXd6B5kIauD_OcDoB3MlbYO6pYmyHXzH5XFRkhc64OubJXgJxDLdmRi5Y4dPr1hyAU1yKtApJkjAJ2Oq-49IkAOHastIXbgLG_KtQ4HXVe0y2nY8JeIkXPGgkHQwEAaoo4UbRqvuTQHidxTj8GJdcKTLHwGqLGv3Sjgehp6oAnVRjq7-GZEh9TqgC9k-17ysVaDp6jnZYXUNC3-t3GasqGU8ZqVo7hTj9DnevOxDUz9Lkv6TDSEeulckxjtgX-Lp9yHCymctGWrUdNo_Tm_ymAlkz4k44gZ3yTePPnUBj3CMDqqjJFYffgecuats6JXzDzibzMNdSqLY-iGOe_P1XjHY8l1pqv2_yKWv4bqpyONZqFTC_ZqgSZFvHSUFH7ZQi1l5So_Te5MVkYkump6w0SwCEPPvicwCM64-GVFHLPliCFdO7_ChpFfosPZgy5rqF0R6EPca0bJvdnlG9M7pnSmkvI-KatNk1JyTPz7_m00]--></g></svg>