<?xml version="1.0" encoding="us-ascii" standalone="no"?><svg xmlns="http://www.w3.org/2000/svg" xmlns:xlink="http://www.w3.org/1999/xlink" contentStyleType="text/css" height="568.5px" preserveAspectRatio="none" style="width:851px;height:568px;background:#FFFFFF;" version="1.1" viewBox="0 0 851 568" width="851.5px" zoomAndPan="magnify"><defs/><g><rect fill="#FFFFFF" height="471.5156" style="stroke:#181818;stroke-width:0.5;" width="5" x="45.5" y="46.8105"/><rect fill="#FFFFFF" height="37.4561" style="stroke:#181818;stroke-width:0.5;" width="5" x="223.5" y="58.4561"/><rect fill="#FFFFFF" height="71.0625" style="stroke:#181818;stroke-width:0.5;" width="5" x="223.5" y="111.5576"/><rect fill="#FFFFFF" height="15.6455" style="stroke:#181818;stroke-width:0.5;" width="5" x="223.5" y="198.2656"/><rect fill="#FFFFFF" height="288.7695" style="stroke:#181818;stroke-width:0.5;" width="5" x="223.5" y="229.5566"/><rect fill="#FFFFFF" height="39.7715" style="stroke:#181818;stroke-width:0.5;" width="5" x="386" y="127.2031"/><rect fill="#FFFFFF" height="39.7715" style="stroke:#181818;stroke-width:0.5;" width="5" x="386" y="245.2021"/><rect fill="#FFFFFF" height="202.0615" style="stroke:#181818;stroke-width:0.5;" width="5" x="386" y="300.6191"/><rect fill="#FFFFFF" height="45.2715" style="stroke:#181818;stroke-width:0.5;" width="5" x="388.5" y="320.2646"/><rect fill="#FFFFFF" height="15.6455" style="stroke:#181818;stroke-width:0.5;" width="5" x="494.5" y="384.6816"/><rect fill="#FFFFFF" height="15.6455" style="stroke:#181818;stroke-width:0.5;" width="5" x="548" y="415.9727"/><rect fill="#FFFFFF" height="39.7715" style="stroke:#181818;stroke-width:0.5;" width="5" x="769.5" y="447.2637"/><line style="stroke:#181818;stroke-width:0.25;stroke-dasharray:5.0,5.0;" x1="48" x2="48" y1="41.8105" y2="527.3262"/><line style="stroke:#181818;stroke-width:0.25;stroke-dasharray:5.0,5.0;" x1="226" x2="226" y1="41.8105" y2="527.3262"/><line style="stroke:#181818;stroke-width:0.25;stroke-dasharray:5.0,5.0;" x1="388.5" x2="388.5" y1="78.3613" y2="527.3262"/><line style="stroke:#181818;stroke-width:0.25;stroke-dasharray:5.0,5.0;" x1="496.75" x2="496.75" y1="41.8105" y2="527.3262"/><line style="stroke:#181818;stroke-width:0.25;stroke-dasharray:5.0,5.0;" x1="550.25" x2="550.25" y1="41.8105" y2="527.3262"/><line style="stroke:#181818;stroke-width:0.25;stroke-dasharray:5.0,5.0;" x1="607.25" x2="607.25" y1="41.8105" y2="527.3262"/><line style="stroke:#181818;stroke-width:0.25;stroke-dasharray:5.0,5.0;" x1="681.25" x2="681.25" y1="41.8105" y2="527.3262"/><line style="stroke:#181818;stroke-width:0.25;stroke-dasharray:5.0,5.0;" x1="771.75" x2="771.75" y1="41.8105" y2="527.3262"/><line style="stroke:#181818;stroke-width:0.25;stroke-dasharray:5.0,5.0;" x1="835.25" x2="835.25" y1="41.8105" y2="527.3262"/><text fill="#000000" font-family="sans-serif" font-size="7" lengthAdjust="spacing" textLength="88" x="2.5" y="40.0537">Human Resources Manager</text><ellipse cx="48" cy="6.75" fill="#E3E3E3" rx="4" ry="4" style="stroke:#181818;stroke-width:0.25;"/><path d="M48,10.75 L48,24.25 M41.5,14.75 L54.5,14.75 M48,24.25 L41.5,31.75 M48,24.25 L54.5,31.75 " fill="none" style="stroke:#181818;stroke-width:0.25;"/><text fill="#000000" font-family="sans-serif" font-size="7" lengthAdjust="spacing" textLength="88" x="2.5" y="534.3799">Human Resources Manager</text><ellipse cx="48" cy="540.3867" fill="#E3E3E3" rx="4" ry="4" style="stroke:#181818;stroke-width:0.25;"/><path d="M48,544.3867 L48,557.8867 M41.5,548.3867 L54.5,548.3867 M48,557.8867 L41.5,565.3867 M48,557.8867 L54.5,565.3867 " fill="none" style="stroke:#181818;stroke-width:0.25;"/><rect fill="#E3E3E3" height="16.3105" rx="1.25" ry="1.25" style="stroke:#181818;stroke-width:0.25;" width="63" x="194.5" y="25"/><text fill="#000000" font-family="sans-serif" font-size="7" lengthAdjust="spacing" textLength="56" x="198" y="36.0537">:GenerateTeamUI</text><rect fill="#E3E3E3" height="16.3105" rx="1.25" ry="1.25" style="stroke:#181818;stroke-width:0.25;" width="63" x="194.5" y="526.8262"/><text fill="#000000" font-family="sans-serif" font-size="7" lengthAdjust="spacing" textLength="56" x="198" y="537.8799">:GenerateTeamUI</text><rect fill="#E3E3E3" height="16.3105" rx="1.25" ry="1.25" style="stroke:#181818;stroke-width:0.25;" width="88" x="344.5" y="526.8262"/><text fill="#000000" font-family="sans-serif" font-size="7" lengthAdjust="spacing" textLength="81" x="348" y="537.8799">:GenerateTeamController</text><rect fill="#E3E3E3" height="16.3105" rx="1.25" ry="1.25" style="stroke:#181818;stroke-width:0.25;" width="48.5" x="472.75" y="25"/><text fill="#000000" font-family="sans-serif" font-size="7" lengthAdjust="spacing" textLength="41.5" x="476.25" y="36.0537">:Repositories</text><rect fill="#E3E3E3" height="16.3105" rx="1.25" ry="1.25" style="stroke:#181818;stroke-width:0.25;" width="48.5" x="472.75" y="526.8262"/><text fill="#000000" font-family="sans-serif" font-size="7" lengthAdjust="spacing" textLength="41.5" x="476.25" y="537.8799">:Repositories</text><rect fill="#E3E3E3" height="25.6211" rx="1.25" ry="1.25" style="stroke:#181818;stroke-width:0.25;" width="48.5" x="526.25" y="15.6895"/><text fill="#000000" font-family="sans-serif" font-size="7" lengthAdjust="spacing" textLength="37" x="532" y="26.7432">repositories</text><text fill="#000000" font-family="sans-serif" font-size="7" lengthAdjust="spacing" textLength="41.5" x="529.75" y="36.0537">:Repositories</text><rect fill="#E3E3E3" height="25.6211" rx="1.25" ry="1.25" style="stroke:#181818;stroke-width:0.25;" width="48.5" x="526.25" y="526.8262"/><text fill="#000000" font-family="sans-serif" font-size="7" lengthAdjust="spacing" textLength="37" x="532" y="537.8799">repositories</text><text fill="#000000" font-family="sans-serif" font-size="7" lengthAdjust="spacing" textLength="41.5" x="529.75" y="547.1904">:Repositories</text><rect fill="#E3E3E3" height="25.6211" rx="1.25" ry="1.25" style="stroke:#181818;stroke-width:0.25;" width="55.5" x="579.75" y="15.6895"/><text fill="#000000" font-family="sans-serif" font-size="7" lengthAdjust="spacing" textLength="45.5" x="584.75" y="26.7432">skillRepository</text><text fill="#000000" font-family="sans-serif" font-size="7" lengthAdjust="spacing" textLength="48.5" x="583.25" y="36.0537">:SkillRepository</text><rect fill="#E3E3E3" height="25.6211" rx="1.25" ry="1.25" style="stroke:#181818;stroke-width:0.25;" width="55.5" x="579.75" y="526.8262"/><text fill="#000000" font-family="sans-serif" font-size="7" lengthAdjust="spacing" textLength="45.5" x="584.75" y="537.8799">skillRepository</text><text fill="#000000" font-family="sans-serif" font-size="7" lengthAdjust="spacing" textLength="48.5" x="583.25" y="547.1904">:SkillRepository</text><rect fill="#E3E3E3" height="25.6211" rx="1.25" ry="1.25" style="stroke:#181818;stroke-width:0.25;" width="82" x="640.25" y="15.6895"/><text fill="#000000" font-family="sans-serif" font-size="7" lengthAdjust="spacing" textLength="71.5" x="645.5" y="26.7432">collaboratorRepository</text><text fill="#000000" font-family="sans-serif" font-size="7" lengthAdjust="spacing" textLength="75" x="643.75" y="36.0537">:CollaboratorRepository</text><rect fill="#E3E3E3" height="25.6211" rx="1.25" ry="1.25" style="stroke:#181818;stroke-width:0.25;" width="82" x="640.25" y="526.8262"/><text fill="#000000" font-family="sans-serif" font-size="7" lengthAdjust="spacing" textLength="71.5" x="645.5" y="537.8799">collaboratorRepository</text><text fill="#000000" font-family="sans-serif" font-size="7" lengthAdjust="spacing" textLength="75" x="643.75" y="547.1904">:CollaboratorRepository</text><rect fill="#E3E3E3" height="25.6211" rx="1.25" ry="1.25" style="stroke:#181818;stroke-width:0.25;" width="89.5" x="727.25" y="15.6895"/><text fill="#000000" font-family="sans-serif" font-size="7" lengthAdjust="spacing" textLength="82.5" x="730.75" y="26.7432">generateTeamRepository:</text><text fill="#000000" font-family="sans-serif" font-size="7" lengthAdjust="spacing" textLength="82" x="731" y="36.0537">GenerateTeamRepository</text><rect fill="#E3E3E3" height="25.6211" rx="1.25" ry="1.25" style="stroke:#181818;stroke-width:0.25;" width="89.5" x="727.25" y="526.8262"/><text fill="#000000" font-family="sans-serif" font-size="7" lengthAdjust="spacing" textLength="82.5" x="730.75" y="537.8799">generateTeamRepository:</text><text fill="#000000" font-family="sans-serif" font-size="7" lengthAdjust="spacing" textLength="82" x="731" y="547.1904">GenerateTeamRepository</text><rect fill="#E3E3E3" height="25.6211" rx="1.25" ry="1.25" style="stroke:#181818;stroke-width:0.25;" width="27" x="821.75" y="15.6895"/><text fill="#000000" font-family="sans-serif" font-size="7" lengthAdjust="spacing" textLength="15.5" x="827.5" y="26.7432">team</text><text fill="#000000" font-family="sans-serif" font-size="7" lengthAdjust="spacing" textLength="20" x="825.25" y="36.0537">:Team</text><rect fill="#E3E3E3" height="25.6211" rx="1.25" ry="1.25" style="stroke:#181818;stroke-width:0.25;" width="27" x="821.75" y="526.8262"/><text fill="#000000" font-family="sans-serif" font-size="7" lengthAdjust="spacing" textLength="15.5" x="827.5" y="537.8799">team</text><text fill="#000000" font-family="sans-serif" font-size="7" lengthAdjust="spacing" textLength="20" x="825.25" y="547.1904">:Team</text><rect fill="#FFFFFF" height="471.5156" style="stroke:#181818;stroke-width:0.5;" width="5" x="45.5" y="46.8105"/><rect fill="#FFFFFF" height="37.4561" style="stroke:#181818;stroke-width:0.5;" width="5" x="223.5" y="58.4561"/><rect fill="#FFFFFF" height="71.0625" style="stroke:#181818;stroke-width:0.5;" width="5" x="223.5" y="111.5576"/><rect fill="#FFFFFF" height="15.6455" style="stroke:#181818;stroke-width:0.5;" width="5" x="223.5" y="198.2656"/><rect fill="#FFFFFF" height="288.7695" style="stroke:#181818;stroke-width:0.5;" width="5" x="223.5" y="229.5566"/><rect fill="#FFFFFF" height="39.7715" style="stroke:#181818;stroke-width:0.5;" width="5" x="386" y="127.2031"/><rect fill="#FFFFFF" height="39.7715" style="stroke:#181818;stroke-width:0.5;" width="5" x="386" y="245.2021"/><rect fill="#FFFFFF" height="202.0615" style="stroke:#181818;stroke-width:0.5;" width="5" x="386" y="300.6191"/><rect fill="#FFFFFF" height="45.2715" style="stroke:#181818;stroke-width:0.5;" width="5" x="388.5" y="320.2646"/><rect fill="#FFFFFF" height="15.6455" style="stroke:#181818;stroke-width:0.5;" width="5" x="494.5" y="384.6816"/><rect fill="#FFFFFF" height="15.6455" style="stroke:#181818;stroke-width:0.5;" width="5" x="548" y="415.9727"/><rect fill="#FFFFFF" height="39.7715" style="stroke:#181818;stroke-width:0.5;" width="5" x="769.5" y="447.2637"/><polygon fill="#181818" points="217.5,56.4561,222.5,58.4561,217.5,60.4561,219.5,58.4561" style="stroke:#181818;stroke-width:0.5;"/><line style="stroke:#181818;stroke-width:0.5;" x1="50.5" x2="220.5" y1="58.4561" y2="58.4561"/><text fill="#000000" font-family="sans-serif" font-size="6.5" font-weight="bold" lengthAdjust="spacing" textLength="3.5" x="54" y="55.8247">1</text><text fill="#000000" font-family="sans-serif" font-size="6.5" lengthAdjust="spacing" textLength="103" x="59.5" y="55.8247">Initiates a team proposal generation</text><polygon fill="#181818" points="338.5,72.1016,343.5,74.1016,338.5,76.1016,340.5,74.1016" style="stroke:#181818;stroke-width:0.5;"/><line style="stroke:#181818;stroke-width:0.5;" x1="228.5" x2="341.5" y1="74.1016" y2="74.1016"/><text fill="#000000" font-family="sans-serif" font-size="6.5" font-weight="bold" lengthAdjust="spacing" textLength="3.5" x="232" y="71.4702">2</text><text fill="#000000" font-family="sans-serif" font-size="6.5" lengthAdjust="spacing" textLength="18" x="237.5" y="71.4702">create</text><rect fill="#E3E3E3" height="16.3105" rx="1.25" ry="1.25" style="stroke:#181818;stroke-width:0.25;" width="88" x="344.5" y="62.4561"/><text fill="#000000" font-family="sans-serif" font-size="7" lengthAdjust="spacing" textLength="81" x="348" y="73.5098">:GenerateTeamController</text><polygon fill="#181818" points="56,93.9121,51,95.9121,56,97.9121,54,95.9121" style="stroke:#181818;stroke-width:0.5;"/><line style="stroke:#181818;stroke-width:0.5;stroke-dasharray:2.0,2.0;" x1="53" x2="225.5" y1="95.9121" y2="95.9121"/><text fill="#000000" font-family="sans-serif" font-size="6.5" font-weight="bold" lengthAdjust="spacing" textLength="3.5" x="59" y="93.2808">3</text><text fill="#000000" font-family="sans-serif" font-size="6.5" lengthAdjust="spacing" textLength="116" x="64.5" y="93.2808">Requests data (min and max team size)</text><polygon fill="#181818" points="217.5,109.5576,222.5,111.5576,217.5,113.5576,219.5,111.5576" style="stroke:#181818;stroke-width:0.5;"/><line style="stroke:#181818;stroke-width:0.5;" x1="50.5" x2="220.5" y1="111.5576" y2="111.5576"/><text fill="#000000" font-family="sans-serif" font-size="6.5" font-weight="bold" lengthAdjust="spacing" textLength="3.5" x="54" y="108.9263">4</text><text fill="#000000" font-family="sans-serif" font-size="6.5" lengthAdjust="spacing" textLength="62.5" x="59.5" y="108.9263">Types requested data</text><polygon fill="#181818" points="380,125.2031,385,127.2031,380,129.2031,382,127.2031" style="stroke:#181818;stroke-width:0.5;"/><line style="stroke:#181818;stroke-width:0.5;" x1="228.5" x2="383" y1="127.2031" y2="127.2031"/><text fill="#000000" font-family="sans-serif" font-size="6.5" font-weight="bold" lengthAdjust="spacing" textLength="3.5" x="232" y="124.5718">5</text><text fill="#000000" font-family="sans-serif" font-size="6.5" lengthAdjust="spacing" textLength="39.5" x="237.5" y="124.5718">getSkillsList()</text><rect fill="none" height="21.626" style="stroke:#000000;stroke-width:0.75;" width="91" x="343" y="131.2031"/><path d="M343,131.2031 L374,131.2031 L374,135.7031 L369,140.7031 L343,140.7031 L343,131.2031 " fill="#EEEEEE" style="stroke:#000000;stroke-width:1.0;"/><text fill="#000000" font-family="sans-serif" font-size="6.5" font-weight="bold" lengthAdjust="spacing" textLength="8.5" x="349.5" y="139.2173">ref</text><text fill="#000000" font-family="sans-serif" font-size="6" lengthAdjust="spacing" textLength="37.5" x="369.75" y="149.1777">Get Skills List</text><polygon fill="#181818" points="234,164.9746,229,166.9746,234,168.9746,232,166.9746" style="stroke:#181818;stroke-width:0.5;"/><line style="stroke:#181818;stroke-width:0.5;stroke-dasharray:2.0,2.0;" x1="231" x2="388" y1="166.9746" y2="166.9746"/><text fill="#000000" font-family="sans-serif" font-size="6.5" font-weight="bold" lengthAdjust="spacing" textLength="3.5" x="237" y="164.3433">6</text><text fill="#000000" font-family="sans-serif" font-size="6.5" lengthAdjust="spacing" textLength="26.5" x="242.5" y="164.3433">SkillsList</text><polygon fill="#181818" points="56,180.6201,51,182.6201,56,184.6201,54,182.6201" style="stroke:#181818;stroke-width:0.5;"/><line style="stroke:#181818;stroke-width:0.5;stroke-dasharray:2.0,2.0;" x1="53" x2="225.5" y1="182.6201" y2="182.6201"/><text fill="#000000" font-family="sans-serif" font-size="6.5" font-weight="bold" lengthAdjust="spacing" textLength="3.5" x="59" y="179.9888">7</text><text fill="#000000" font-family="sans-serif" font-size="6.5" lengthAdjust="spacing" textLength="132" x="64.5" y="179.9888">shows the list of skills and asks to select one</text><polygon fill="#181818" points="217.5,196.2656,222.5,198.2656,217.5,200.2656,219.5,198.2656" style="stroke:#181818;stroke-width:0.5;"/><line style="stroke:#181818;stroke-width:0.5;" x1="50.5" x2="220.5" y1="198.2656" y2="198.2656"/><text fill="#000000" font-family="sans-serif" font-size="6.5" font-weight="bold" lengthAdjust="spacing" textLength="3.5" x="54" y="195.6343">8</text><text fill="#000000" font-family="sans-serif" font-size="6.5" lengthAdjust="spacing" textLength="38" x="59.5" y="195.6343">chooses skill</text><polygon fill="#181818" points="56,211.9111,51,213.9111,56,215.9111,54,213.9111" style="stroke:#181818;stroke-width:0.5;"/><line style="stroke:#181818;stroke-width:0.5;stroke-dasharray:2.0,2.0;" x1="53" x2="225.5" y1="213.9111" y2="213.9111"/><text fill="#000000" font-family="sans-serif" font-size="6.5" font-weight="bold" lengthAdjust="spacing" textLength="3.5" x="59" y="211.2798">9</text><text fill="#000000" font-family="sans-serif" font-size="6.5" lengthAdjust="spacing" textLength="155.5" x="64.5" y="211.2798">generate the team proposal and requests confirmation</text><polygon fill="#181818" points="217.5,227.5566,222.5,229.5566,217.5,231.5566,219.5,229.5566" style="stroke:#181818;stroke-width:0.5;"/><line style="stroke:#181818;stroke-width:0.5;" x1="50.5" x2="220.5" y1="229.5566" y2="229.5566"/><text fill="#000000" font-family="sans-serif" font-size="6.5" font-weight="bold" lengthAdjust="spacing" textLength="7" x="54" y="226.9253">10</text><text fill="#000000" font-family="sans-serif" font-size="6.5" lengthAdjust="spacing" textLength="82.5" x="63" y="226.9253">confirms the team generated</text><polygon fill="#181818" points="380,243.2021,385,245.2021,380,247.2021,382,245.2021" style="stroke:#181818;stroke-width:0.5;"/><line style="stroke:#181818;stroke-width:0.5;" x1="228.5" x2="383" y1="245.2021" y2="245.2021"/><text fill="#000000" font-family="sans-serif" font-size="6.5" font-weight="bold" lengthAdjust="spacing" textLength="7" x="232" y="242.5708">11</text><text fill="#000000" font-family="sans-serif" font-size="6.5" lengthAdjust="spacing" textLength="58" x="241" y="242.5708">getCollaboratorList()</text><rect fill="none" height="21.626" style="stroke:#000000;stroke-width:0.75;" width="91" x="343" y="249.2021"/><path d="M343,249.2021 L374,249.2021 L374,253.7021 L369,258.7021 L343,258.7021 L343,249.2021 " fill="#EEEEEE" style="stroke:#000000;stroke-width:1.0;"/><text fill="#000000" font-family="sans-serif" font-size="6.5" font-weight="bold" lengthAdjust="spacing" textLength="8.5" x="349.5" y="257.2163">ref</text><text fill="#000000" font-family="sans-serif" font-size="6" lengthAdjust="spacing" textLength="56.5" x="360.25" y="267.1768">Get Collaborator List</text><polygon fill="#181818" points="234,282.9736,229,284.9736,234,286.9736,232,284.9736" style="stroke:#181818;stroke-width:0.5;"/><line style="stroke:#181818;stroke-width:0.5;stroke-dasharray:2.0,2.0;" x1="231" x2="388" y1="284.9736" y2="284.9736"/><text fill="#000000" font-family="sans-serif" font-size="6.5" font-weight="bold" lengthAdjust="spacing" textLength="7" x="237" y="282.3423">12</text><text fill="#000000" font-family="sans-serif" font-size="6.5" lengthAdjust="spacing" textLength="44" x="246" y="282.3423">collaboratorList</text><polygon fill="#181818" points="380,298.6191,385,300.6191,380,302.6191,382,300.6191" style="stroke:#181818;stroke-width:0.5;"/><line style="stroke:#181818;stroke-width:0.5;" x1="228.5" x2="383" y1="300.6191" y2="300.6191"/><text fill="#000000" font-family="sans-serif" font-size="6.5" font-weight="bold" lengthAdjust="spacing" textLength="7" x="232" y="297.9878">13</text><text fill="#000000" font-family="sans-serif" font-size="6.5" lengthAdjust="spacing" textLength="139" x="241" y="297.9878">generateTeam(minSize, maxSize, skillsNeeded)</text><line style="stroke:#181818;stroke-width:0.5;" x1="391" x2="414.5" y1="313.7646" y2="313.7646"/><line style="stroke:#181818;stroke-width:0.5;" x1="414.5" x2="414.5" y1="313.7646" y2="320.2646"/><line style="stroke:#181818;stroke-width:0.5;" x1="394" x2="414.5" y1="320.2646" y2="320.2646"/><polygon fill="#181818" points="399,318.2646,394,320.2646,399,322.2646,397,320.2646" style="stroke:#181818;stroke-width:0.5;"/><text fill="#000000" font-family="sans-serif" font-size="6.5" font-weight="bold" lengthAdjust="spacing" textLength="7" x="397" y="311.1333">14</text><text fill="#000000" font-family="sans-serif" font-size="6.5" lengthAdjust="spacing" textLength="87.5" x="406" y="311.1333">getSkillByName(skillsNeeded)</text><rect fill="none" height="21.626" style="stroke:#000000;stroke-width:0.75;" width="91" x="343" y="326.7646"/><path d="M343,326.7646 L374,326.7646 L374,331.2646 L369,336.2646 L343,336.2646 L343,326.7646 " fill="#EEEEEE" style="stroke:#000000;stroke-width:1.0;"/><text fill="#000000" font-family="sans-serif" font-size="6.5" font-weight="bold" lengthAdjust="spacing" textLength="8.5" x="349.5" y="334.7788">ref</text><text fill="#000000" font-family="sans-serif" font-size="6" lengthAdjust="spacing" textLength="67" x="355" y="344.7393">Get SkillsNeeded Object</text><line style="stroke:#181818;stroke-width:0.5;stroke-dasharray:2.0,2.0;" x1="393.5" x2="414.5" y1="365.0361" y2="365.0361"/><line style="stroke:#181818;stroke-width:0.5;stroke-dasharray:2.0,2.0;" x1="414.5" x2="414.5" y1="365.0361" y2="371.5361"/><line style="stroke:#181818;stroke-width:0.5;stroke-dasharray:2.0,2.0;" x1="391" x2="414.5" y1="371.5361" y2="371.5361"/><polygon fill="#181818" points="396,369.5361,391,371.5361,396,373.5361,394,371.5361" style="stroke:#181818;stroke-width:0.5;"/><text fill="#000000" font-family="sans-serif" font-size="6.5" font-weight="bold" lengthAdjust="spacing" textLength="7" x="397" y="362.4048">15</text><text fill="#000000" font-family="sans-serif" font-size="6.5" lengthAdjust="spacing" textLength="37" x="406" y="362.4048">skillsNeeded</text><polygon fill="#181818" points="488.5,382.6816,493.5,384.6816,488.5,386.6816,490.5,384.6816" style="stroke:#181818;stroke-width:0.5;"/><line style="stroke:#181818;stroke-width:0.5;" x1="391" x2="491.5" y1="384.6816" y2="384.6816"/><text fill="#000000" font-family="sans-serif" font-size="6.5" font-weight="bold" lengthAdjust="spacing" textLength="7" x="394.5" y="382.0503">16</text><text fill="#000000" font-family="sans-serif" font-size="6.5" lengthAdjust="spacing" textLength="37.5" x="403.5" y="382.0503">getInstance()</text><polygon fill="#181818" points="396.5,398.3271,391.5,400.3271,396.5,402.3271,394.5,400.3271" style="stroke:#181818;stroke-width:0.5;"/><line style="stroke:#181818;stroke-width:0.5;stroke-dasharray:2.0,2.0;" x1="393.5" x2="496.5" y1="400.3271" y2="400.3271"/><text fill="#000000" font-family="sans-serif" font-size="6.5" font-weight="bold" lengthAdjust="spacing" textLength="7" x="399.5" y="397.6958">17</text><text fill="#000000" font-family="sans-serif" font-size="6.5" lengthAdjust="spacing" textLength="33.5" x="408.5" y="397.6958">repositories</text><polygon fill="#181818" points="542,413.9727,547,415.9727,542,417.9727,544,415.9727" style="stroke:#181818;stroke-width:0.5;"/><line style="stroke:#181818;stroke-width:0.5;" x1="391" x2="545" y1="415.9727" y2="415.9727"/><text fill="#000000" font-family="sans-serif" font-size="6.5" font-weight="bold" lengthAdjust="spacing" textLength="7" x="394.5" y="413.3413">18</text><text fill="#000000" font-family="sans-serif" font-size="6.5" lengthAdjust="spacing" textLength="86.5" x="403.5" y="413.3413">getGenerateTeamRepository()</text><polygon fill="#181818" points="396.5,429.6182,391.5,431.6182,396.5,433.6182,394.5,431.6182" style="stroke:#181818;stroke-width:0.5;"/><line style="stroke:#181818;stroke-width:0.5;stroke-dasharray:2.0,2.0;" x1="393.5" x2="550" y1="431.6182" y2="431.6182"/><text fill="#000000" font-family="sans-serif" font-size="6.5" font-weight="bold" lengthAdjust="spacing" textLength="7" x="399.5" y="428.9868">19</text><text fill="#000000" font-family="sans-serif" font-size="6.5" lengthAdjust="spacing" textLength="72" x="408.5" y="428.9868">generateTeamRepository</text><polygon fill="#181818" points="763.5,445.2637,768.5,447.2637,763.5,449.2637,765.5,447.2637" style="stroke:#181818;stroke-width:0.5;"/><line style="stroke:#181818;stroke-width:0.5;" x1="391" x2="766.5" y1="447.2637" y2="447.2637"/><text fill="#000000" font-family="sans-serif" font-size="6.5" font-weight="bold" lengthAdjust="spacing" textLength="7" x="394.5" y="444.6323">20</text><text fill="#000000" font-family="sans-serif" font-size="6.5" lengthAdjust="spacing" textLength="139" x="403.5" y="444.6323">generateTeam(minSize, maxSize, skillsNeeded)</text><rect fill="none" height="21.626" style="stroke:#000000;stroke-width:0.75;" width="92.5" x="725.75" y="451.2637"/><path d="M725.75,451.2637 L756.75,451.2637 L756.75,455.7637 L751.75,460.7637 L725.75,460.7637 L725.75,451.2637 " fill="#EEEEEE" style="stroke:#000000;stroke-width:1.0;"/><text fill="#000000" font-family="sans-serif" font-size="6.5" font-weight="bold" lengthAdjust="spacing" textLength="8.5" x="732.25" y="459.2778">ref</text><text fill="#000000" font-family="sans-serif" font-size="6" lengthAdjust="spacing" textLength="43" x="750.5" y="469.2383">Generate Team</text><polygon fill="#181818" points="396.5,485.0352,391.5,487.0352,396.5,489.0352,394.5,487.0352" style="stroke:#181818;stroke-width:0.5;"/><line style="stroke:#181818;stroke-width:0.5;stroke-dasharray:2.0,2.0;" x1="393.5" x2="771.5" y1="487.0352" y2="487.0352"/><text fill="#000000" font-family="sans-serif" font-size="6.5" font-weight="bold" lengthAdjust="spacing" textLength="7" x="399.5" y="484.4038">21</text><text fill="#000000" font-family="sans-serif" font-size="6.5" lengthAdjust="spacing" textLength="14.5" x="408.5" y="484.4038">team</text><polygon fill="#181818" points="234,500.6807,229,502.6807,234,504.6807,232,502.6807" style="stroke:#181818;stroke-width:0.5;"/><line style="stroke:#181818;stroke-width:0.5;stroke-dasharray:2.0,2.0;" x1="231" x2="388" y1="502.6807" y2="502.6807"/><text fill="#000000" font-family="sans-serif" font-size="6.5" font-weight="bold" lengthAdjust="spacing" textLength="7" x="237" y="500.0493">22</text><text fill="#000000" font-family="sans-serif" font-size="6.5" lengthAdjust="spacing" textLength="14.5" x="246" y="500.0493">team</text><polygon fill="#181818" points="53.5,516.3262,48.5,518.3262,53.5,520.3262,51.5,518.3262" style="stroke:#181818;stroke-width:0.5;"/><line style="stroke:#181818;stroke-width:0.5;stroke-dasharray:2.0,2.0;" x1="50.5" x2="225.5" y1="518.3262" y2="518.3262"/><text fill="#000000" font-family="sans-serif" font-size="6.5" font-weight="bold" lengthAdjust="spacing" textLength="7" x="56.5" y="515.6948">23</text><text fill="#000000" font-family="sans-serif" font-size="6.5" lengthAdjust="spacing" textLength="79" x="65.5" y="515.6948">displays operation success</text><!--SRC=[dLPDKzim4BtxL-nmAJ3b3-JGGvbEo0pGJXnkN1HxawZOagkLWVJNToKPM_w259ySx-xRftsxsj2JL9KmeeHIAvqTZ2uHhAaneTPIYUn9x36rnmB1O6Q5sXUn0nr4hb-asiDE58H98cghLLrkqIJ9buFC4NPQswr-JKHcjO6pcxeK2jP8kZOP4jm9nHdC6GY2c_LTmhXMPh8IoiBPOeaAZR2uGL4-hBpJm-eTdskjhD55qG1URzQt0-yrLfeaKv58tcVzurVVnKGUZseo8Er7S3sAelKxSb3Q_-BZqb6cZ9cAhMRoslJ2hoSDuKWZb7rq_ivvyQYMamQFijoCO2nxSMhdx5qsIU8qay-Cu9L9W1z-WQjlB08iOAMabMmb4E2YeJAQiuW26afIAn_Kmh1s_eDx68A1d4ANbmoM6MIFO7OcjhbS2swLFpMI9SY55N1UIWL2vL2Arv2Kv5-yy64vZXB5T3V7YgcQ08Uvnpk57eVkqNf5wLQIFRzedTf8tsZjPtuCxa0_emaM63nBj100mI76TkIpSN07vYbSlHsYez4wHCVkQFHAI0VzGc0F20K7Wju1XUIka8AUsAQ1iE011wtmb69c1ws9o-c1fglOe_3Mf9v5lrc4Ft4ZSgRLJfgowvsFU0H_wd3VCkNpsex4ZUTj8F77Kf-e-L3_EEUe2-RROT0FsO3v9CXaX_Jhq2daBW0tPIdFrLStPk4bTCmzOexvAGFGyEpGmmHzFzwB4i-dqJvHy_-hUt_sGdhukVtDZJyRDrOW5g7feVWyyqHdTOZhnHUpBzTA4Q_R30Uzs2Au2xnduGyjfGN4MooP8J62Y3YadiJq2dc7KZhYb4QafbVLE_JIQNv-VNsoPNkCmnvCPZigsETRgRdK787afCRnW555x30oEl-0N3JuWxWFDi02SabL8Ou4kchsCb2TyTylchfZevzkx_y3]--></g></svg>