<?xml version="1.0" encoding="us-ascii" standalone="no"?><svg xmlns="http://www.w3.org/2000/svg" xmlns:xlink="http://www.w3.org/1999/xlink" contentStyleType="text/css" height="720px" preserveAspectRatio="none" style="width:802px;height:720px;background:#FFFFFF;" version="1.1" viewBox="0 0 802 720" width="802px" zoomAndPan="magnify"><defs/><g><!--class Skill--><g id="elem_Skill"><rect codeLine="9" fill="#F1F1F1" height="103.8633" id="Skill" rx="2.5" ry="2.5" style="stroke:#181818;stroke-width:0.5;" width="127" x="230" y="610"/><ellipse cx="276.75" cy="626" fill="#ADD1B2" rx="11" ry="11" style="stroke:#181818;stroke-width:1.0;"/><path d="M279.5156,621.875 Q279.6719,621.6563 279.8594,621.5469 Q280.0469,621.4375 280.2656,621.4375 Q280.6406,621.4375 280.875,621.7031 Q281.1094,621.9531 281.1094,622.5625 L281.1094,624.0156 Q281.1094,624.625 280.875,624.8906 Q280.6406,625.1563 280.2656,625.1563 Q279.9219,625.1563 279.7188,624.9531 Q279.5156,624.7656 279.4063,624.25 Q279.3594,623.8906 279.1719,623.7031 Q278.8438,623.3281 278.2344,623.1094 Q277.625,622.8906 277,622.8906 Q276.2344,622.8906 275.5938,623.2188 Q274.9688,623.5469 274.4688,624.2969 Q273.9844,625.0469 273.9844,626.0781 L273.9844,627.1719 Q273.9844,628.4063 274.875,629.2344 Q275.7656,630.0469 277.3594,630.0469 Q278.2969,630.0469 278.9531,629.7969 Q279.3438,629.6406 279.7656,629.2031 Q280.0313,628.9375 280.1719,628.8594 Q280.3281,628.7813 280.5313,628.7813 Q280.8594,628.7813 281.1094,629.0469 Q281.375,629.2969 281.375,629.6406 Q281.375,629.9844 281.0313,630.3906 Q280.5313,630.9688 279.7344,631.2969 Q278.6563,631.75 277.3594,631.75 Q275.8438,631.75 274.6406,631.125 Q273.6563,630.625 272.9688,629.5625 Q272.2813,628.4844 272.2813,627.2031 L272.2813,626.0469 Q272.2813,624.7188 272.8906,623.5781 Q273.5156,622.4219 274.6094,621.8125 Q275.7031,621.1875 276.9375,621.1875 Q277.6719,621.1875 278.3125,621.3594 Q278.9688,621.5156 279.5156,621.875 Z " fill="#000000"/><text fill="#000000" font-family="sans-serif" font-size="14" lengthAdjust="spacing" textLength="25" x="297.25" y="631.7969">Skill</text><line style="stroke:#181818;stroke-width:0.5;" x1="231" x2="356" y1="642" y2="642"/><text fill="#000000" font-family="sans-serif" font-size="14" lengthAdjust="spacing" textLength="81" x="236" y="661.1074">-String name</text><line style="stroke:#181818;stroke-width:0.5;" x1="231" x2="356" y1="668.6211" y2="668.6211"/><text fill="#000000" font-family="sans-serif" font-size="14" lengthAdjust="spacing" textLength="78" x="236" y="687.7285">+Skill(name)</text><text fill="#000000" font-family="sans-serif" font-size="14" lengthAdjust="spacing" textLength="115" x="236" y="706.3496">+validateSkill(skill)</text></g><!--class HumanResourcesManager--><g id="elem_HumanResourcesManager"><rect codeLine="16" fill="#F1F1F1" height="85.2422" id="HumanResourcesManager" rx="2.5" ry="2.5" style="stroke:#181818;stroke-width:0.5;" width="233" x="7" y="454.5"/><ellipse cx="36.85" cy="470.5" fill="#ADD1B2" rx="11" ry="11" style="stroke:#181818;stroke-width:1.0;"/><path d="M39.6156,466.375 Q39.7719,466.1563 39.9594,466.0469 Q40.1469,465.9375 40.3656,465.9375 Q40.7406,465.9375 40.975,466.2031 Q41.2094,466.4531 41.2094,467.0625 L41.2094,468.5156 Q41.2094,469.125 40.975,469.3906 Q40.7406,469.6563 40.3656,469.6563 Q40.0219,469.6563 39.8188,469.4531 Q39.6156,469.2656 39.5063,468.75 Q39.4594,468.3906 39.2719,468.2031 Q38.9438,467.8281 38.3344,467.6094 Q37.725,467.3906 37.1,467.3906 Q36.3344,467.3906 35.6938,467.7188 Q35.0688,468.0469 34.5688,468.7969 Q34.0844,469.5469 34.0844,470.5781 L34.0844,471.6719 Q34.0844,472.9063 34.975,473.7344 Q35.8656,474.5469 37.4594,474.5469 Q38.3969,474.5469 39.0531,474.2969 Q39.4438,474.1406 39.8656,473.7031 Q40.1313,473.4375 40.2719,473.3594 Q40.4281,473.2813 40.6313,473.2813 Q40.9594,473.2813 41.2094,473.5469 Q41.475,473.7969 41.475,474.1406 Q41.475,474.4844 41.1313,474.8906 Q40.6313,475.4688 39.8344,475.7969 Q38.7563,476.25 37.4594,476.25 Q35.9438,476.25 34.7406,475.625 Q33.7563,475.125 33.0688,474.0625 Q32.3813,472.9844 32.3813,471.7031 L32.3813,470.5469 Q32.3813,469.2188 32.9906,468.0781 Q33.6156,466.9219 34.7094,466.3125 Q35.8031,465.6875 37.0375,465.6875 Q37.7719,465.6875 38.4125,465.8594 Q39.0688,466.0156 39.6156,466.375 Z " fill="#000000"/><text fill="#000000" font-family="sans-serif" font-size="14" lengthAdjust="spacing" textLength="168" x="54.15" y="476.2969">HumanResourcesManager</text><line style="stroke:#181818;stroke-width:0.5;" x1="8" x2="239" y1="486.5" y2="486.5"/><text fill="#000000" font-family="sans-serif" font-size="14" lengthAdjust="spacing" textLength="40" x="13" y="505.6074">-name</text><line style="stroke:#181818;stroke-width:0.5;" x1="8" x2="239" y1="513.1211" y2="513.1211"/><text fill="#000000" font-family="sans-serif" font-size="14" lengthAdjust="spacing" textLength="221" x="13" y="532.2285">+HumanResourcesManager(name)</text></g><!--class SkillRepository--><g id="elem_SkillRepository"><rect codeLine="21" fill="#F1F1F1" height="103.8633" id="SkillRepository" rx="2.5" ry="2.5" style="stroke:#181818;stroke-width:0.5;" width="138" x="346.5" y="445"/><ellipse cx="367.35" cy="461" fill="#ADD1B2" rx="11" ry="11" style="stroke:#181818;stroke-width:1.0;"/><path d="M370.1156,456.875 Q370.2719,456.6563 370.4594,456.5469 Q370.6469,456.4375 370.8656,456.4375 Q371.2406,456.4375 371.475,456.7031 Q371.7094,456.9531 371.7094,457.5625 L371.7094,459.0156 Q371.7094,459.625 371.475,459.8906 Q371.2406,460.1563 370.8656,460.1563 Q370.5219,460.1563 370.3188,459.9531 Q370.1156,459.7656 370.0063,459.25 Q369.9594,458.8906 369.7719,458.7031 Q369.4438,458.3281 368.8344,458.1094 Q368.225,457.8906 367.6,457.8906 Q366.8344,457.8906 366.1938,458.2188 Q365.5688,458.5469 365.0688,459.2969 Q364.5844,460.0469 364.5844,461.0781 L364.5844,462.1719 Q364.5844,463.4063 365.475,464.2344 Q366.3656,465.0469 367.9594,465.0469 Q368.8969,465.0469 369.5531,464.7969 Q369.9438,464.6406 370.3656,464.2031 Q370.6313,463.9375 370.7719,463.8594 Q370.9281,463.7813 371.1313,463.7813 Q371.4594,463.7813 371.7094,464.0469 Q371.975,464.2969 371.975,464.6406 Q371.975,464.9844 371.6313,465.3906 Q371.1313,465.9688 370.3344,466.2969 Q369.2563,466.75 367.9594,466.75 Q366.4438,466.75 365.2406,466.125 Q364.2563,465.625 363.5688,464.5625 Q362.8813,463.4844 362.8813,462.2031 L362.8813,461.0469 Q362.8813,459.7188 363.4906,458.5781 Q364.1156,457.4219 365.2094,456.8125 Q366.3031,456.1875 367.5375,456.1875 Q368.2719,456.1875 368.9125,456.3594 Q369.5688,456.5156 370.1156,456.875 Z " fill="#000000"/><text fill="#000000" font-family="sans-serif" font-size="14" lengthAdjust="spacing" textLength="93" x="382.65" y="466.7969">SkillRepository</text><line style="stroke:#181818;stroke-width:0.5;" x1="347.5" x2="483.5" y1="477" y2="477"/><line style="stroke:#181818;stroke-width:0.5;" x1="347.5" x2="483.5" y1="485" y2="485"/><text fill="#000000" font-family="sans-serif" font-size="14" lengthAdjust="spacing" textLength="90" x="352.5" y="504.1074">+addSkill(skill)</text><text fill="#000000" font-family="sans-serif" font-size="14" lengthAdjust="spacing" textLength="109" x="352.5" y="522.7285">+isSkillInList(skill)</text><text fill="#000000" font-family="sans-serif" font-size="14" lengthAdjust="spacing" textLength="126" x="352.5" y="541.3496">+registerSkill(name)</text></g><!--class Repositories--><g id="elem_Repositories"><rect codeLine="27" fill="#F1F1F1" height="103.8633" id="Repositories" rx="2.5" ry="2.5" style="stroke:#181818;stroke-width:0.5;" width="194" x="505.5" y="280"/><ellipse cx="558.75" cy="296" fill="#ADD1B2" rx="11" ry="11" style="stroke:#181818;stroke-width:1.0;"/><path d="M561.5156,291.875 Q561.6719,291.6563 561.8594,291.5469 Q562.0469,291.4375 562.2656,291.4375 Q562.6406,291.4375 562.875,291.7031 Q563.1094,291.9531 563.1094,292.5625 L563.1094,294.0156 Q563.1094,294.625 562.875,294.8906 Q562.6406,295.1563 562.2656,295.1563 Q561.9219,295.1563 561.7188,294.9531 Q561.5156,294.7656 561.4063,294.25 Q561.3594,293.8906 561.1719,293.7031 Q560.8438,293.3281 560.2344,293.1094 Q559.625,292.8906 559,292.8906 Q558.2344,292.8906 557.5938,293.2188 Q556.9688,293.5469 556.4688,294.2969 Q555.9844,295.0469 555.9844,296.0781 L555.9844,297.1719 Q555.9844,298.4063 556.875,299.2344 Q557.7656,300.0469 559.3594,300.0469 Q560.2969,300.0469 560.9531,299.7969 Q561.3438,299.6406 561.7656,299.2031 Q562.0313,298.9375 562.1719,298.8594 Q562.3281,298.7813 562.5313,298.7813 Q562.8594,298.7813 563.1094,299.0469 Q563.375,299.2969 563.375,299.6406 Q563.375,299.9844 563.0313,300.3906 Q562.5313,300.9688 561.7344,301.2969 Q560.6563,301.75 559.3594,301.75 Q557.8438,301.75 556.6406,301.125 Q555.6563,300.625 554.9688,299.5625 Q554.2813,298.4844 554.2813,297.2031 L554.2813,296.0469 Q554.2813,294.7188 554.8906,293.5781 Q555.5156,292.4219 556.6094,291.8125 Q557.7031,291.1875 558.9375,291.1875 Q559.6719,291.1875 560.3125,291.3594 Q560.9688,291.5156 561.5156,291.875 Z " fill="#000000"/><text fill="#000000" font-family="sans-serif" font-size="14" lengthAdjust="spacing" textLength="79" x="579.25" y="301.7969">Repositories</text><line style="stroke:#181818;stroke-width:0.5;" x1="506.5" x2="698.5" y1="312" y2="312"/><line style="stroke:#181818;stroke-width:0.5;" x1="506.5" x2="698.5" y1="320" y2="320"/><text fill="#000000" font-family="sans-serif" font-size="14" lengthAdjust="spacing" textLength="94" x="511.5" y="339.1074">-Repositories()</text><text fill="#000000" font-family="sans-serif" font-size="14" lengthAdjust="spacing" textLength="182" x="511.5" y="357.7285">+getInstance() : Repositories</text><text fill="#000000" font-family="sans-serif" font-size="14" lengthAdjust="spacing" textLength="131" x="511.5" y="376.3496">+getSkillRepository()</text></g><!--class RegisterSkillController--><g id="elem_RegisterSkillController"><rect codeLine="33" fill="#F1F1F1" height="85.2422" id="RegisterSkillController" rx="2.5" ry="2.5" style="stroke:#181818;stroke-width:0.5;" width="261" x="251" y="116"/><ellipse cx="307.25" cy="132" fill="#ADD1B2" rx="11" ry="11" style="stroke:#181818;stroke-width:1.0;"/><path d="M310.0156,127.875 Q310.1719,127.6563 310.3594,127.5469 Q310.5469,127.4375 310.7656,127.4375 Q311.1406,127.4375 311.375,127.7031 Q311.6094,127.9531 311.6094,128.5625 L311.6094,130.0156 Q311.6094,130.625 311.375,130.8906 Q311.1406,131.1563 310.7656,131.1563 Q310.4219,131.1563 310.2188,130.9531 Q310.0156,130.7656 309.9063,130.25 Q309.8594,129.8906 309.6719,129.7031 Q309.3438,129.3281 308.7344,129.1094 Q308.125,128.8906 307.5,128.8906 Q306.7344,128.8906 306.0938,129.2188 Q305.4688,129.5469 304.9688,130.2969 Q304.4844,131.0469 304.4844,132.0781 L304.4844,133.1719 Q304.4844,134.4063 305.375,135.2344 Q306.2656,136.0469 307.8594,136.0469 Q308.7969,136.0469 309.4531,135.7969 Q309.8438,135.6406 310.2656,135.2031 Q310.5313,134.9375 310.6719,134.8594 Q310.8281,134.7813 311.0313,134.7813 Q311.3594,134.7813 311.6094,135.0469 Q311.875,135.2969 311.875,135.6406 Q311.875,135.9844 311.5313,136.3906 Q311.0313,136.9688 310.2344,137.2969 Q309.1563,137.75 307.8594,137.75 Q306.3438,137.75 305.1406,137.125 Q304.1563,136.625 303.4688,135.5625 Q302.7813,134.4844 302.7813,133.2031 L302.7813,132.0469 Q302.7813,130.7188 303.3906,129.5781 Q304.0156,128.4219 305.1094,127.8125 Q306.2031,127.1875 307.4375,127.1875 Q308.1719,127.1875 308.8125,127.3594 Q309.4688,127.5156 310.0156,127.875 Z " fill="#000000"/><text fill="#000000" font-family="sans-serif" font-size="14" lengthAdjust="spacing" textLength="140" x="327.75" y="137.7969">RegisterSkillController</text><line style="stroke:#181818;stroke-width:0.5;" x1="252" x2="511" y1="148" y2="148"/><line style="stroke:#181818;stroke-width:0.5;" x1="252" x2="511" y1="156" y2="156"/><text fill="#000000" font-family="sans-serif" font-size="14" lengthAdjust="spacing" textLength="249" x="257" y="175.1074">+RegisterSkillController(skillRepository)</text><text fill="#000000" font-family="sans-serif" font-size="14" lengthAdjust="spacing" textLength="126" x="257" y="193.7285">+registerSkill(name)</text></g><!--class RegisterSkillUI--><g id="elem_RegisterSkillUI"><rect codeLine="38" fill="#F1F1F1" height="48" id="RegisterSkillUI" rx="2.5" ry="2.5" style="stroke:#181818;stroke-width:0.5;" width="122" x="320.5" y="7"/><ellipse cx="335.5" cy="23" fill="#ADD1B2" rx="11" ry="11" style="stroke:#181818;stroke-width:1.0;"/><path d="M338.2656,18.875 Q338.4219,18.6563 338.6094,18.5469 Q338.7969,18.4375 339.0156,18.4375 Q339.3906,18.4375 339.625,18.7031 Q339.8594,18.9531 339.8594,19.5625 L339.8594,21.0156 Q339.8594,21.625 339.625,21.8906 Q339.3906,22.1563 339.0156,22.1563 Q338.6719,22.1563 338.4688,21.9531 Q338.2656,21.7656 338.1563,21.25 Q338.1094,20.8906 337.9219,20.7031 Q337.5938,20.3281 336.9844,20.1094 Q336.375,19.8906 335.75,19.8906 Q334.9844,19.8906 334.3438,20.2188 Q333.7188,20.5469 333.2188,21.2969 Q332.7344,22.0469 332.7344,23.0781 L332.7344,24.1719 Q332.7344,25.4063 333.625,26.2344 Q334.5156,27.0469 336.1094,27.0469 Q337.0469,27.0469 337.7031,26.7969 Q338.0938,26.6406 338.5156,26.2031 Q338.7813,25.9375 338.9219,25.8594 Q339.0781,25.7813 339.2813,25.7813 Q339.6094,25.7813 339.8594,26.0469 Q340.125,26.2969 340.125,26.6406 Q340.125,26.9844 339.7813,27.3906 Q339.2813,27.9688 338.4844,28.2969 Q337.4063,28.75 336.1094,28.75 Q334.5938,28.75 333.3906,28.125 Q332.4063,27.625 331.7188,26.5625 Q331.0313,25.4844 331.0313,24.2031 L331.0313,23.0469 Q331.0313,21.7188 331.6406,20.5781 Q332.2656,19.4219 333.3594,18.8125 Q334.4531,18.1875 335.6875,18.1875 Q336.4219,18.1875 337.0625,18.3594 Q337.7188,18.5156 338.2656,18.875 Z " fill="#000000"/><text fill="#000000" font-family="sans-serif" font-size="14" lengthAdjust="spacing" textLength="90" x="349.5" y="28.7969">RegisterSkillUI</text><line style="stroke:#181818;stroke-width:0.5;" x1="321.5" x2="441.5" y1="39" y2="39"/><line style="stroke:#181818;stroke-width:0.5;" x1="321.5" x2="441.5" y1="47" y2="47"/></g><!--link RegisterSkillUI to RegisterSkillController--><g id="link_RegisterSkillUI_RegisterSkillController"><path codeLine="41" d="M381.5,55.02 C381.5,72 381.5,89.58 381.5,109.84 " fill="none" id="RegisterSkillUI-to-RegisterSkillController" style="stroke:#181818;stroke-width:1.0;stroke-dasharray:7.0,7.0;"/><polygon fill="#181818" points="381.5,115.84,385.5,106.84,381.5,110.84,377.5,106.84,381.5,115.84" style="stroke:#181818;stroke-width:1.0;"/></g><!--link RegisterSkillController to Repositories--><g id="link_RegisterSkillController_Repositories"><path codeLine="42" d="M435,201.02 C465.53,224.71 499.3203,250.9209 531.7203,276.0709 " fill="none" id="RegisterSkillController-to-Repositories" style="stroke:#181818;stroke-width:1.0;stroke-dasharray:7.0,7.0;"/><polygon fill="#181818" points="536.46,279.75,531.8032,271.0716,532.5103,276.6841,526.8978,277.3911,536.46,279.75" style="stroke:#181818;stroke-width:1.0;"/><text fill="#000000" font-family="sans-serif" font-size="13" lengthAdjust="spacing" textLength="67" x="492.5" y="246.0283">repositories</text></g><!--link Repositories to Repositories--><g id="link_Repositories_Repositories"><path codeLine="43" d="M699.78,317.17 C719.98,318.73 734.5,323.67 734.5,332 C734.5,340.33 725.9622,344.808 705.7622,346.368 " fill="none" id="Repositories-to-Repositories" style="stroke:#181818;stroke-width:1.0;"/><polygon fill="#181818" points="699.78,346.83,709.0613,350.1251,704.7652,346.445,708.4453,342.1489,699.78,346.83" style="stroke:#181818;stroke-width:1.0;"/><text fill="#000000" font-family="sans-serif" font-size="13" lengthAdjust="spacing" textLength="49" x="740.5" y="337.5283">instance</text></g><!--link RegisterSkillController to SkillRepository--><g id="link_RegisterSkillController_SkillRepository"><path codeLine="44" d="M384.84,201.2 C390.05,266.12 399.5,384 399.5,384 C399.5,384 403.1315,409.4403 407.3515,438.9803 " fill="none" id="RegisterSkillController-to-SkillRepository" style="stroke:#181818;stroke-width:1.0;stroke-dasharray:7.0,7.0;"/><polygon fill="#181818" points="408.2,444.92,410.887,435.4448,407.4929,439.9703,402.9674,436.5761,408.2,444.92" style="stroke:#181818;stroke-width:1.0;"/><text fill="#000000" font-family="sans-serif" font-size="13" lengthAdjust="spacing" textLength="87" x="400.5" y="337.5283">SkillRepository</text></g><!--link RegisterSkillController to Skill--><g id="link_RegisterSkillController_Skill"><path codeLine="45" d="M373.79,201.01 C359.09,280.2 328.5,445 328.5,445 C328.5,445 313.0998,540.0173 302.7498,603.8873 " fill="none" id="RegisterSkillController-to-Skill" style="stroke:#181818;stroke-width:1.0;stroke-dasharray:7.0,7.0;"/><polygon fill="#181818" points="301.79,609.81,307.1781,601.5657,302.5898,604.8744,299.2812,600.286,301.79,609.81" style="stroke:#181818;stroke-width:1.0;"/></g><!--link Repositories to SkillRepository--><g id="link_Repositories_SkillRepository"><path codeLine="46" d="M543.85,384.13 C521.67,403.45 500.9733,421.4979 478.7933,440.8279 " fill="none" id="Repositories-to-SkillRepository" style="stroke:#181818;stroke-width:1.0;"/><polygon fill="#181818" points="474.27,444.77,483.683,441.8724,478.0394,441.4849,478.4269,435.8414,474.27,444.77" style="stroke:#181818;stroke-width:1.0;"/><text fill="#000000" font-family="sans-serif" font-size="13" lengthAdjust="spacing" textLength="7" x="474.6969" y="433.6665">1</text></g><!--link HumanResourcesManager to Skill--><g id="link_HumanResourcesManager_Skill"><path codeLine="47" d="M166.84,539.55 C189.17,560.96 212.2702,583.1063 235.8802,605.7563 " fill="none" id="HumanResourcesManager-to-Skill" style="stroke:#181818;stroke-width:1.0;"/><polygon fill="#181818" points="240.21,609.91,236.4845,600.7929,236.6019,606.4486,230.9462,606.5659,240.21,609.91" style="stroke:#181818;stroke-width:1.0;"/></g><!--link SkillRepository to Skill--><g id="link_SkillRepository_Skill"><path codeLine="48" d="M377.23,549.13 C362.77,568.45 349.9056,585.6367 335.4356,604.9667 " fill="none" id="SkillRepository-to-Skill" style="stroke:#181818;stroke-width:1.0;"/><polygon fill="#181818" points="331.84,609.77,340.4356,604.9622,334.8364,605.7673,334.0313,600.168,331.84,609.77" style="stroke:#181818;stroke-width:1.0;"/><text fill="#000000" font-family="sans-serif" font-size="13" lengthAdjust="spacing" textLength="20" x="315.6482" y="598.6665">1..*</text></g><!--SRC=[ZL91JiCm4Bpx5QjUIAaQmJK79CI5I71fn0DCiarNTUp8Ta41zUyuTPhQQGla42apuvdPTSoMPCirRw3bvPRNMDXE86WiBPUrG6P6WTdmIdsIh67DXGaPGH9jroAqIdJz1ml8Kd1Z7gtLzBwpc9TA5lI5SCVOZS2r1Qj0KxsnK56VIaeoTZW3nPQ4W6y6xbb2uHnSjkIDi- -XXHSaFJ8Va0ykgE8MFMFwzvpjZuRFkuRB5HgrqoMQLoxTl7eCE3Xxcul28MWVrLjXgmnPfRl1Pm6ygg9uZv8vWBby8MDZIcFjCDJXE6FA641engeXc1njQhIvDExQIapca4MYasJIEecYWXvFIbgjX1WNjBZ6-s5EblySAo3VSfVXg2cOfW_NGjcrilvCiBFC5GaM4N7BPIpEW8OD_ke_lVbiYlnz-hp7x7vsPdFvX-tLtcHQnFkawUrWnHZx0G00]--></g></svg>