<?xml version="1.0" encoding="us-ascii" standalone="no"?><svg xmlns="http://www.w3.org/2000/svg" xmlns:xlink="http://www.w3.org/1999/xlink" contentStyleType="text/css" height="932px" preserveAspectRatio="none" style="width:1253px;height:932px;background:#FFFFFF;" version="1.1" viewBox="0 0 1253 932" width="1253px" zoomAndPan="magnify"><defs/><g><rect fill="#FFFFFF" height="700.1016" style="stroke:#181818;stroke-width:1.0;" width="10" x="61" y="112.2422"/><rect fill="#FFFFFF" height="74.9121" style="stroke:#181818;stroke-width:1.0;" width="10" x="441" y="135.5332"/><rect fill="#FFFFFF" height="31.291" style="stroke:#181818;stroke-width:1.0;" width="10" x="441" y="241.7363"/><rect fill="#FFFFFF" height="508.0254" style="stroke:#181818;stroke-width:1.0;" width="10" x="441" y="304.3184"/><rect fill="#FFFFFF" height="445.4434" style="stroke:#181818;stroke-width:1.0;" width="10" x="596" y="335.6094"/><rect fill="#FFFFFF" height="31.291" style="stroke:#181818;stroke-width:1.0;" width="10" x="733.5" y="366.9004"/><rect fill="#FFFFFF" height="31.291" style="stroke:#181818;stroke-width:1.0;" width="10" x="840.5" y="429.4824"/><rect fill="#FFFFFF" height="257.6973" style="stroke:#181818;stroke-width:1.0;" width="10" x="953.5" y="492.0645"/><rect fill="#FFFFFF" height="96.5332" style="stroke:#181818;stroke-width:1.0;" width="10" x="1108" y="533.3555"/><line style="stroke:#181818;stroke-width:0.5;stroke-dasharray:5.0,5.0;" x1="66" x2="66" y1="102.2422" y2="830.3438"/><line style="stroke:#181818;stroke-width:0.5;stroke-dasharray:5.0,5.0;" x1="446" x2="446" y1="102.2422" y2="830.3438"/><line style="stroke:#181818;stroke-width:0.5;stroke-dasharray:5.0,5.0;" x1="601" x2="601" y1="175.3438" y2="830.3438"/><line style="stroke:#181818;stroke-width:0.5;stroke-dasharray:5.0,5.0;" x1="738" x2="738" y1="102.2422" y2="830.3438"/><line style="stroke:#181818;stroke-width:0.5;stroke-dasharray:5.0,5.0;" x1="845" x2="845" y1="102.2422" y2="830.3438"/><line style="stroke:#181818;stroke-width:0.5;stroke-dasharray:5.0,5.0;" x1="958" x2="958" y1="102.2422" y2="830.3438"/><line style="stroke:#181818;stroke-width:0.5;stroke-dasharray:5.0,5.0;" x1="1112.5" x2="1112.5" y1="541.1855" y2="830.3438"/><text fill="#000000" font-family="sans-serif" font-size="14" lengthAdjust="spacing" textLength="116" x="5" y="80.1074">Human Resources</text><text fill="#000000" font-family="sans-serif" font-size="14" lengthAdjust="spacing" textLength="56" x="35" y="98.7285">Manager</text><ellipse cx="66" cy="13.5" fill="#E3E3E3" rx="8" ry="8" style="stroke:#181818;stroke-width:0.5;"/><path d="M66,21.5 L66,48.5 M53,29.5 L79,29.5 M66,48.5 L53,63.5 M66,48.5 L79,63.5 " fill="none" style="stroke:#181818;stroke-width:0.5;"/><text fill="#000000" font-family="sans-serif" font-size="14" lengthAdjust="spacing" textLength="116" x="5" y="844.4512">Human Resources</text><text fill="#000000" font-family="sans-serif" font-size="14" lengthAdjust="spacing" textLength="56" x="35" y="863.0723">Manager</text><ellipse cx="66" cy="875.0859" fill="#E3E3E3" rx="8" ry="8" style="stroke:#181818;stroke-width:0.5;"/><path d="M66,883.0859 L66,910.0859 M53,891.0859 L79,891.0859 M66,910.0859 L53,925.0859 M66,910.0859 L79,925.0859 " fill="none" style="stroke:#181818;stroke-width:0.5;"/><rect fill="#E3E3E3" height="32.6211" rx="2.5" ry="2.5" style="stroke:#181818;stroke-width:0.5;" width="108" x="392" y="68.6211"/><text fill="#000000" font-family="sans-serif" font-size="14" lengthAdjust="spacing" textLength="94" x="399" y="90.7285">:RegisterSkillUI</text><rect fill="#E3E3E3" height="32.6211" rx="2.5" ry="2.5" style="stroke:#181818;stroke-width:0.5;" width="108" x="392" y="829.3438"/><text fill="#000000" font-family="sans-serif" font-size="14" lengthAdjust="spacing" textLength="94" x="399" y="851.4512">:RegisterSkillUI</text><rect fill="#E3E3E3" height="32.6211" rx="2.5" ry="2.5" style="stroke:#181818;stroke-width:0.5;" width="158" x="522" y="829.3438"/><text fill="#000000" font-family="sans-serif" font-size="14" lengthAdjust="spacing" textLength="144" x="529" y="851.4512">:RegisterSkillController</text><rect fill="#E3E3E3" height="32.6211" rx="2.5" ry="2.5" style="stroke:#181818;stroke-width:0.5;" width="97" x="690" y="68.6211"/><text fill="#000000" font-family="sans-serif" font-size="14" lengthAdjust="spacing" textLength="83" x="697" y="90.7285">:Repositories</text><rect fill="#E3E3E3" height="32.6211" rx="2.5" ry="2.5" style="stroke:#181818;stroke-width:0.5;" width="97" x="690" y="829.3438"/><text fill="#000000" font-family="sans-serif" font-size="14" lengthAdjust="spacing" textLength="83" x="697" y="851.4512">:Repositories</text><rect fill="#E3E3E3" height="51.2422" rx="2.5" ry="2.5" style="stroke:#181818;stroke-width:0.5;" width="97" x="797" y="50"/><text fill="#000000" font-family="sans-serif" font-size="14" lengthAdjust="spacing" textLength="74" x="808.5" y="72.1074">repositories</text><text fill="#000000" font-family="sans-serif" font-size="14" lengthAdjust="spacing" textLength="83" x="804" y="90.7285">:Repositories</text><rect fill="#E3E3E3" height="51.2422" rx="2.5" ry="2.5" style="stroke:#181818;stroke-width:0.5;" width="97" x="797" y="829.3438"/><text fill="#000000" font-family="sans-serif" font-size="14" lengthAdjust="spacing" textLength="74" x="808.5" y="851.4512">repositories</text><text fill="#000000" font-family="sans-serif" font-size="14" lengthAdjust="spacing" textLength="83" x="804" y="870.0723">:Repositories</text><rect fill="#E3E3E3" height="51.2422" rx="2.5" ry="2.5" style="stroke:#181818;stroke-width:0.5;" width="109" x="904" y="50"/><text fill="#000000" font-family="sans-serif" font-size="14" lengthAdjust="spacing" textLength="95" x="911" y="72.1074">skillRepository:</text><text fill="#000000" font-family="sans-serif" font-size="14" lengthAdjust="spacing" textLength="93" x="912" y="90.7285">SkillRepository</text><rect fill="#E3E3E3" height="51.2422" rx="2.5" ry="2.5" style="stroke:#181818;stroke-width:0.5;" width="109" x="904" y="829.3438"/><text fill="#000000" font-family="sans-serif" font-size="14" lengthAdjust="spacing" textLength="95" x="911" y="851.4512">skillRepository:</text><text fill="#000000" font-family="sans-serif" font-size="14" lengthAdjust="spacing" textLength="93" x="912" y="870.0723">SkillRepository</text><rect fill="#E3E3E3" height="51.2422" rx="2.5" ry="2.5" style="stroke:#181818;stroke-width:0.5;" width="41" x="1092.5" y="829.3438"/><text fill="#000000" font-family="sans-serif" font-size="14" lengthAdjust="spacing" textLength="27" x="1099.5" y="851.4512">skill:</text><text fill="#000000" font-family="sans-serif" font-size="14" lengthAdjust="spacing" textLength="25" x="1100.5" y="870.0723">Skill</text><rect fill="#FFFFFF" height="700.1016" style="stroke:#181818;stroke-width:1.0;" width="10" x="61" y="112.2422"/><rect fill="#FFFFFF" height="74.9121" style="stroke:#181818;stroke-width:1.0;" width="10" x="441" y="135.5332"/><rect fill="#FFFFFF" height="31.291" style="stroke:#181818;stroke-width:1.0;" width="10" x="441" y="241.7363"/><rect fill="#FFFFFF" height="508.0254" style="stroke:#181818;stroke-width:1.0;" width="10" x="441" y="304.3184"/><rect fill="#FFFFFF" height="445.4434" style="stroke:#181818;stroke-width:1.0;" width="10" x="596" y="335.6094"/><rect fill="#FFFFFF" height="31.291" style="stroke:#181818;stroke-width:1.0;" width="10" x="733.5" y="366.9004"/><rect fill="#FFFFFF" height="31.291" style="stroke:#181818;stroke-width:1.0;" width="10" x="840.5" y="429.4824"/><rect fill="#FFFFFF" height="257.6973" style="stroke:#181818;stroke-width:1.0;" width="10" x="953.5" y="492.0645"/><rect fill="#FFFFFF" height="96.5332" style="stroke:#181818;stroke-width:1.0;" width="10" x="1108" y="533.3555"/><polygon fill="#181818" points="429,131.5332,439,135.5332,429,139.5332,433,135.5332" style="stroke:#181818;stroke-width:1.0;"/><line style="stroke:#181818;stroke-width:1.0;" x1="71" x2="435" y1="135.5332" y2="135.5332"/><text fill="#000000" font-family="sans-serif" font-size="13" font-weight="bold" lengthAdjust="spacing" textLength="7" x="78" y="130.2705">1</text><text fill="#000000" font-family="sans-serif" font-size="13" lengthAdjust="spacing" textLength="121" x="89" y="130.2705">asks to create a skill</text><polygon fill="#181818" points="510,162.8242,520,166.8242,510,170.8242,514,166.8242" style="stroke:#181818;stroke-width:1.0;"/><line style="stroke:#181818;stroke-width:1.0;" x1="451" x2="516" y1="166.8242" y2="166.8242"/><text fill="#000000" font-family="sans-serif" font-size="13" font-weight="bold" lengthAdjust="spacing" textLength="7" x="458" y="161.5615">2</text><text fill="#000000" font-family="sans-serif" font-size="13" lengthAdjust="spacing" textLength="36" x="469" y="161.5615">create</text><rect fill="#E3E3E3" height="32.6211" rx="2.5" ry="2.5" style="stroke:#181818;stroke-width:0.5;" width="158" x="522" y="143.5332"/><text fill="#000000" font-family="sans-serif" font-size="14" lengthAdjust="spacing" textLength="144" x="529" y="165.6406">:RegisterSkillController</text><polygon fill="#181818" points="82,206.4453,72,210.4453,82,214.4453,78,210.4453" style="stroke:#181818;stroke-width:1.0;"/><line style="stroke:#181818;stroke-width:1.0;stroke-dasharray:2.0,2.0;" x1="76" x2="445" y1="210.4453" y2="210.4453"/><text fill="#000000" font-family="sans-serif" font-size="13" font-weight="bold" lengthAdjust="spacing" textLength="7" x="88" y="205.1826">3</text><text fill="#000000" font-family="sans-serif" font-size="13" lengthAdjust="spacing" textLength="79" x="99" y="205.1826">requests data</text><polygon fill="#181818" points="429,237.7363,439,241.7363,429,245.7363,433,241.7363" style="stroke:#181818;stroke-width:1.0;"/><line style="stroke:#181818;stroke-width:1.0;" x1="71" x2="435" y1="241.7363" y2="241.7363"/><text fill="#000000" font-family="sans-serif" font-size="13" font-weight="bold" lengthAdjust="spacing" textLength="7" x="78" y="236.4736">4</text><text fill="#000000" font-family="sans-serif" font-size="13" lengthAdjust="spacing" textLength="122" x="89" y="236.4736">types requested data</text><polygon fill="#181818" points="82,269.0273,72,273.0273,82,277.0273,78,273.0273" style="stroke:#181818;stroke-width:1.0;"/><line style="stroke:#181818;stroke-width:1.0;stroke-dasharray:2.0,2.0;" x1="76" x2="445" y1="273.0273" y2="273.0273"/><text fill="#000000" font-family="sans-serif" font-size="13" font-weight="bold" lengthAdjust="spacing" textLength="7" x="88" y="267.7646">5</text><text fill="#000000" font-family="sans-serif" font-size="13" lengthAdjust="spacing" textLength="335" x="99" y="267.7646">Shows all data and requests confirmation for the operation</text><polygon fill="#181818" points="429,300.3184,439,304.3184,429,308.3184,433,304.3184" style="stroke:#181818;stroke-width:1.0;"/><line style="stroke:#181818;stroke-width:1.0;" x1="71" x2="435" y1="304.3184" y2="304.3184"/><text fill="#000000" font-family="sans-serif" font-size="13" font-weight="bold" lengthAdjust="spacing" textLength="7" x="78" y="299.0557">6</text><text fill="#000000" font-family="sans-serif" font-size="13" lengthAdjust="spacing" textLength="80" x="89" y="299.0557">Confirms data</text><polygon fill="#181818" points="584,331.6094,594,335.6094,584,339.6094,588,335.6094" style="stroke:#181818;stroke-width:1.0;"/><line style="stroke:#181818;stroke-width:1.0;" x1="451" x2="590" y1="335.6094" y2="335.6094"/><text fill="#000000" font-family="sans-serif" font-size="13" font-weight="bold" lengthAdjust="spacing" textLength="7" x="458" y="330.3467">7</text><text fill="#000000" font-family="sans-serif" font-size="13" lengthAdjust="spacing" textLength="112" x="469" y="330.3467">registerSkill (name)</text><polygon fill="#181818" points="721.5,362.9004,731.5,366.9004,721.5,370.9004,725.5,366.9004" style="stroke:#181818;stroke-width:1.0;"/><line style="stroke:#181818;stroke-width:1.0;" x1="606" x2="727.5" y1="366.9004" y2="366.9004"/><text fill="#000000" font-family="sans-serif" font-size="13" font-weight="bold" lengthAdjust="spacing" textLength="7" x="613" y="361.6377">8</text><text fill="#000000" font-family="sans-serif" font-size="13" lengthAdjust="spacing" textLength="75" x="624" y="361.6377">getInstance()</text><polygon fill="#181818" points="617,394.1914,607,398.1914,617,402.1914,613,398.1914" style="stroke:#181818;stroke-width:1.0;"/><line style="stroke:#181818;stroke-width:1.0;stroke-dasharray:2.0,2.0;" x1="611" x2="737.5" y1="398.1914" y2="398.1914"/><text fill="#000000" font-family="sans-serif" font-size="13" font-weight="bold" lengthAdjust="spacing" textLength="7" x="623" y="392.9287">9</text><text fill="#000000" font-family="sans-serif" font-size="13" lengthAdjust="spacing" textLength="57" x="634" y="392.9287">repository</text><polygon fill="#181818" points="828.5,425.4824,838.5,429.4824,828.5,433.4824,832.5,429.4824" style="stroke:#181818;stroke-width:1.0;"/><line style="stroke:#181818;stroke-width:1.0;" x1="606" x2="834.5" y1="429.4824" y2="429.4824"/><text fill="#000000" font-family="sans-serif" font-size="13" font-weight="bold" lengthAdjust="spacing" textLength="14" x="613" y="424.2197">10</text><text fill="#000000" font-family="sans-serif" font-size="13" lengthAdjust="spacing" textLength="105" x="631" y="424.2197">getSkillRepository</text><polygon fill="#181818" points="617,456.7734,607,460.7734,617,464.7734,613,460.7734" style="stroke:#181818;stroke-width:1.0;"/><line style="stroke:#181818;stroke-width:1.0;stroke-dasharray:2.0,2.0;" x1="611" x2="844.5" y1="460.7734" y2="460.7734"/><text fill="#000000" font-family="sans-serif" font-size="13" font-weight="bold" lengthAdjust="spacing" textLength="14" x="623" y="455.5107">11</text><text fill="#000000" font-family="sans-serif" font-size="13" lengthAdjust="spacing" textLength="91" x="641" y="455.5107">Skill Repository</text><polygon fill="#181818" points="941.5,488.0645,951.5,492.0645,941.5,496.0645,945.5,492.0645" style="stroke:#181818;stroke-width:1.0;"/><line style="stroke:#181818;stroke-width:1.0;" x1="606" x2="947.5" y1="492.0645" y2="492.0645"/><text fill="#000000" font-family="sans-serif" font-size="13" font-weight="bold" lengthAdjust="spacing" textLength="14" x="613" y="486.8018">12</text><text fill="#000000" font-family="sans-serif" font-size="13" lengthAdjust="spacing" textLength="112" x="631" y="486.8018">registerSkill (name)</text><polygon fill="#181818" points="1080.5,519.3555,1090.5,523.3555,1080.5,527.3555,1084.5,523.3555" style="stroke:#181818;stroke-width:1.0;"/><line style="stroke:#181818;stroke-width:1.0;" x1="963.5" x2="1086.5" y1="523.3555" y2="523.3555"/><text fill="#000000" font-family="sans-serif" font-size="13" font-weight="bold" lengthAdjust="spacing" textLength="14" x="970.5" y="518.0928">13</text><text fill="#000000" font-family="sans-serif" font-size="13" lengthAdjust="spacing" textLength="87" x="988.5" y="518.0928">register (name)</text><rect fill="#E3E3E3" height="51.2422" rx="2.5" ry="2.5" style="stroke:#181818;stroke-width:0.5;" width="41" x="1092.5" y="500.0645"/><text fill="#000000" font-family="sans-serif" font-size="14" lengthAdjust="spacing" textLength="27" x="1099.5" y="522.1719">skill:</text><text fill="#000000" font-family="sans-serif" font-size="14" lengthAdjust="spacing" textLength="25" x="1100.5" y="540.793">Skill</text><line style="stroke:#181818;stroke-width:1.0;" x1="1118" x2="1160" y1="585.5977" y2="585.5977"/><line style="stroke:#181818;stroke-width:1.0;" x1="1160" x2="1160" y1="585.5977" y2="598.5977"/><line style="stroke:#181818;stroke-width:1.0;" x1="1119" x2="1160" y1="598.5977" y2="598.5977"/><polygon fill="#181818" points="1129,594.5977,1119,598.5977,1129,602.5977,1125,598.5977" style="stroke:#181818;stroke-width:1.0;"/><text fill="#000000" font-family="sans-serif" font-size="13" font-weight="bold" lengthAdjust="spacing" textLength="14" x="1125" y="580.335">14</text><text fill="#000000" font-family="sans-serif" font-size="13" lengthAdjust="spacing" textLength="103" x="1143" y="580.335">validateSkill (skill)</text><polygon fill="#181818" points="974.5,625.8887,964.5,629.8887,974.5,633.8887,970.5,629.8887" style="stroke:#181818;stroke-width:1.0;"/><line style="stroke:#181818;stroke-width:1.0;" x1="968.5" x2="1112" y1="629.8887" y2="629.8887"/><text fill="#000000" font-family="sans-serif" font-size="13" font-weight="bold" lengthAdjust="spacing" textLength="14" x="980.5" y="624.626">15</text><text fill="#000000" font-family="sans-serif" font-size="13" lengthAdjust="spacing" textLength="23" x="998.5" y="624.626">skill</text><line style="stroke:#181818;stroke-width:1.0;" x1="963.5" x2="1005.5" y1="661.1797" y2="661.1797"/><line style="stroke:#181818;stroke-width:1.0;" x1="1005.5" x2="1005.5" y1="661.1797" y2="674.1797"/><line style="stroke:#181818;stroke-width:1.0;" x1="964.5" x2="1005.5" y1="674.1797" y2="674.1797"/><polygon fill="#181818" points="974.5,670.1797,964.5,674.1797,974.5,678.1797,970.5,674.1797" style="stroke:#181818;stroke-width:1.0;"/><text fill="#000000" font-family="sans-serif" font-size="13" font-weight="bold" lengthAdjust="spacing" textLength="14" x="970.5" y="655.917">16</text><text fill="#000000" font-family="sans-serif" font-size="13" lengthAdjust="spacing" textLength="103" x="988.5" y="655.917">registerSkill (skill)</text><line style="stroke:#181818;stroke-width:1.0;" x1="963.5" x2="1005.5" y1="705.4707" y2="705.4707"/><line style="stroke:#181818;stroke-width:1.0;" x1="1005.5" x2="1005.5" y1="705.4707" y2="718.4707"/><line style="stroke:#181818;stroke-width:1.0;" x1="964.5" x2="1005.5" y1="718.4707" y2="718.4707"/><polygon fill="#181818" points="974.5,714.4707,964.5,718.4707,974.5,722.4707,970.5,718.4707" style="stroke:#181818;stroke-width:1.0;"/><text fill="#000000" font-family="sans-serif" font-size="13" font-weight="bold" lengthAdjust="spacing" textLength="14" x="970.5" y="700.208">17</text><text fill="#000000" font-family="sans-serif" font-size="13" lengthAdjust="spacing" textLength="81" x="988.5" y="700.208">addSkill (skill)</text><polygon fill="#181818" points="617,745.7617,607,749.7617,617,753.7617,613,749.7617" style="stroke:#181818;stroke-width:1.0;"/><line style="stroke:#181818;stroke-width:1.0;stroke-dasharray:2.0,2.0;" x1="611" x2="957.5" y1="749.7617" y2="749.7617"/><text fill="#000000" font-family="sans-serif" font-size="13" font-weight="bold" lengthAdjust="spacing" textLength="14" x="623" y="744.499">18</text><text fill="#000000" font-family="sans-serif" font-size="13" lengthAdjust="spacing" textLength="23" x="641" y="744.499">skill</text><polygon fill="#181818" points="462,777.0527,452,781.0527,462,785.0527,458,781.0527" style="stroke:#181818;stroke-width:1.0;"/><line style="stroke:#181818;stroke-width:1.0;stroke-dasharray:2.0,2.0;" x1="456" x2="600" y1="781.0527" y2="781.0527"/><text fill="#000000" font-family="sans-serif" font-size="13" font-weight="bold" lengthAdjust="spacing" textLength="14" x="468" y="775.79">19</text><text fill="#000000" font-family="sans-serif" font-size="13" lengthAdjust="spacing" textLength="23" x="486" y="775.79">skill</text><polygon fill="#181818" points="77,808.3438,67,812.3438,77,816.3438,73,812.3438" style="stroke:#181818;stroke-width:1.0;"/><line style="stroke:#181818;stroke-width:1.0;stroke-dasharray:2.0,2.0;" x1="71" x2="445" y1="812.3438" y2="812.3438"/><text fill="#000000" font-family="sans-serif" font-size="13" font-weight="bold" lengthAdjust="spacing" textLength="14" x="83" y="807.0811">20</text><text fill="#000000" font-family="sans-serif" font-size="13" lengthAdjust="spacing" textLength="160" x="101" y="807.0811">Displays operation success</text><!--SRC=[ZLN1Rjim3BtxAuXSrXJe3-ImIpQWmL9WiDTRBgpD9a9aoHFbTldxKN9jot6ILgU4VE_fYI9bFYhJeCCQQcjiUN2s9l2kfOo7J8Fb4VTK-9CcS5HwD7kT0lY0bNrNPW-lg9co35jlJLk_aCkoRmTL4RnQwr_ilmnBRnqi7jiQ3UJ4jdKbySuyeP4jt0AGuJ5_oaJOgr8rQ3miLZdj5NjonL5f_Ro9gEVDBT3Q6k-irX-Iwp_vTWPlB2jneuWZ9l_vUmfn2M9dBXAAAOF3rWFkjDgPOXg9l2vslblazemEzskptMQXPEeDFSMwP21BVi33Twa0h0HtPF0MIaS1Wn1r8cmWIgbY82mX2JNKu_vUw1sjIuUKv8BwIkxvRqli6Ihq6DCLpGHJ8_xK4FSqgaRUZ3NkioeEzfq1jOvmG5ED6vVMl2fNerVMIFyuy0S2sv2BaIzOMdS2VCFAj2Bns4aJmPt1cfO3Sg37TXh2OKMwoCYrYigU_CQmp4b9Tyi9Rf08zp_91EP3QgJlcGagEV5C8V5GT2REkk-gas9cfKYzTCN8l-Aek6ofR_dFAZmnDip993r81Tam8R6FUzNRWjr0mTcAuK5EnDvGA-aP-h0O9sfvYpUURfo-ApMwvY4zrTLYNNLocOrLTOCuaiQRdjjFhS_kexlU_WMOaXFYE2xf4_D3SQFnnEDC0xUbV0tuqcmdV-Cx-1y0]--></g></svg>