<?xml version="1.0" encoding="us-ascii" standalone="no"?><svg xmlns="http://www.w3.org/2000/svg" xmlns:xlink="http://www.w3.org/1999/xlink" contentStyleType="text/css" height="455px" preserveAspectRatio="none" style="width:445px;height:455px;background:#FFFFFF;" version="1.1" viewBox="0 0 445 455" width="445px" zoomAndPan="magnify"><defs/><g><rect fill="#FFFFFF" height="290.9883" style="stroke:#181818;stroke-width:1.0;" width="10" x="113" y="90.5332"/><rect fill="#FFFFFF" height="96.5332" style="stroke:#181818;stroke-width:1.0;" width="10" x="278.5" y="158.1152"/><rect fill="none" height="245.6973" style="stroke:#000000;stroke-width:1.5;" width="386" x="53.5" y="105.5332"/><line style="stroke:#181818;stroke-width:0.5;stroke-dasharray:5.0,5.0;" x1="117.5" x2="117.5" y1="57.2422" y2="399.5215"/><line style="stroke:#181818;stroke-width:0.5;stroke-dasharray:5.0,5.0;" x1="283" x2="283" y1="165.9453" y2="399.5215"/><rect fill="#E3E3E3" height="51.2422" rx="2.5" ry="2.5" style="stroke:#181818;stroke-width:0.5;" width="109" x="63.5" y="5"/><text fill="#000000" font-family="sans-serif" font-size="14" lengthAdjust="spacing" textLength="95" x="70.5" y="27.1074">skillRepository:</text><text fill="#000000" font-family="sans-serif" font-size="14" lengthAdjust="spacing" textLength="93" x="71.5" y="45.7285">SkillRepository</text><rect fill="#E3E3E3" height="51.2422" rx="2.5" ry="2.5" style="stroke:#181818;stroke-width:0.5;" width="109" x="63.5" y="398.5215"/><text fill="#000000" font-family="sans-serif" font-size="14" lengthAdjust="spacing" textLength="95" x="70.5" y="420.6289">skillRepository:</text><text fill="#000000" font-family="sans-serif" font-size="14" lengthAdjust="spacing" textLength="93" x="71.5" y="439.25">SkillRepository</text><rect fill="#E3E3E3" height="51.2422" rx="2.5" ry="2.5" style="stroke:#181818;stroke-width:0.5;" width="41" x="263" y="398.5215"/><text fill="#000000" font-family="sans-serif" font-size="14" lengthAdjust="spacing" textLength="27" x="270" y="420.6289">skill:</text><text fill="#000000" font-family="sans-serif" font-size="14" lengthAdjust="spacing" textLength="25" x="271" y="439.25">Skill</text><rect fill="#FFFFFF" height="290.9883" style="stroke:#181818;stroke-width:1.0;" width="10" x="113" y="90.5332"/><rect fill="#FFFFFF" height="96.5332" style="stroke:#181818;stroke-width:1.0;" width="10" x="278.5" y="158.1152"/><polygon fill="#181818" points="101,86.5332,111,90.5332,101,94.5332,105,90.5332" style="stroke:#181818;stroke-width:1.0;"/><line style="stroke:#181818;stroke-width:1.0;" x1="0" x2="107" y1="90.5332" y2="90.5332"/><text fill="#000000" font-family="sans-serif" font-size="13" font-weight="bold" lengthAdjust="spacing" textLength="14" x="7" y="85.2705">12</text><text fill="#000000" font-family="sans-serif" font-size="13" lengthAdjust="spacing" textLength="76" x="25" y="85.2705">registerSkill()</text><path d="M53.5,105.5332 L178.5,105.5332 L178.5,114.8242 L168.5,124.8242 L53.5,124.8242 L53.5,105.5332 " fill="#EEEEEE" style="stroke:#000000;stroke-width:1.5;"/><rect fill="none" height="245.6973" style="stroke:#000000;stroke-width:1.5;" width="386" x="53.5" y="105.5332"/><text fill="#000000" font-family="sans-serif" font-size="13" font-weight="bold" lengthAdjust="spacing" textLength="80" x="68.5" y="120.5615">register Skill</text><polygon fill="#181818" points="251,144.1152,261,148.1152,251,152.1152,255,148.1152" style="stroke:#181818;stroke-width:1.0;"/><line style="stroke:#181818;stroke-width:1.0;" x1="123" x2="257" y1="148.1152" y2="148.1152"/><text fill="#000000" font-family="sans-serif" font-size="13" font-weight="bold" lengthAdjust="spacing" textLength="25" x="130" y="142.8525">12.1</text><text fill="#000000" font-family="sans-serif" font-size="13" lengthAdjust="spacing" textLength="87" x="159" y="142.8525">register (name)</text><rect fill="#E3E3E3" height="51.2422" rx="2.5" ry="2.5" style="stroke:#181818;stroke-width:0.5;" width="41" x="263" y="124.8242"/><text fill="#000000" font-family="sans-serif" font-size="14" lengthAdjust="spacing" textLength="27" x="270" y="146.9316">skill:</text><text fill="#000000" font-family="sans-serif" font-size="14" lengthAdjust="spacing" textLength="25" x="271" y="165.5527">Skill</text><line style="stroke:#181818;stroke-width:1.0;" x1="288.5" x2="330.5" y1="210.3574" y2="210.3574"/><line style="stroke:#181818;stroke-width:1.0;" x1="330.5" x2="330.5" y1="210.3574" y2="223.3574"/><line style="stroke:#181818;stroke-width:1.0;" x1="289.5" x2="330.5" y1="223.3574" y2="223.3574"/><polygon fill="#181818" points="299.5,219.3574,289.5,223.3574,299.5,227.3574,295.5,223.3574" style="stroke:#181818;stroke-width:1.0;"/><text fill="#000000" font-family="sans-serif" font-size="13" font-weight="bold" lengthAdjust="spacing" textLength="25" x="295.5" y="205.0947">12.2</text><text fill="#000000" font-family="sans-serif" font-size="13" lengthAdjust="spacing" textLength="103" x="324.5" y="205.0947">validateSkill (skill)</text><polygon fill="#181818" points="134,250.6484,124,254.6484,134,258.6484,130,254.6484" style="stroke:#181818;stroke-width:1.0;"/><line style="stroke:#181818;stroke-width:1.0;" x1="128" x2="282.5" y1="254.6484" y2="254.6484"/><text fill="#000000" font-family="sans-serif" font-size="13" font-weight="bold" lengthAdjust="spacing" textLength="25" x="140" y="249.3857">12.3</text><text fill="#000000" font-family="sans-serif" font-size="13" lengthAdjust="spacing" textLength="23" x="169" y="249.3857">skill</text><line style="stroke:#181818;stroke-width:1.0;" x1="123" x2="165" y1="285.9395" y2="285.9395"/><line style="stroke:#181818;stroke-width:1.0;" x1="165" x2="165" y1="285.9395" y2="298.9395"/><line style="stroke:#181818;stroke-width:1.0;" x1="124" x2="165" y1="298.9395" y2="298.9395"/><polygon fill="#181818" points="134,294.9395,124,298.9395,134,302.9395,130,298.9395" style="stroke:#181818;stroke-width:1.0;"/><text fill="#000000" font-family="sans-serif" font-size="13" font-weight="bold" lengthAdjust="spacing" textLength="25" x="130" y="280.6768">12.4</text><text fill="#000000" font-family="sans-serif" font-size="13" lengthAdjust="spacing" textLength="103" x="159" y="280.6768">registerSkill (skill)</text><line style="stroke:#181818;stroke-width:1.0;" x1="123" x2="165" y1="330.2305" y2="330.2305"/><line style="stroke:#181818;stroke-width:1.0;" x1="165" x2="165" y1="330.2305" y2="343.2305"/><line style="stroke:#181818;stroke-width:1.0;" x1="124" x2="165" y1="343.2305" y2="343.2305"/><polygon fill="#181818" points="134,339.2305,124,343.2305,134,347.2305,130,343.2305" style="stroke:#181818;stroke-width:1.0;"/><text fill="#000000" font-family="sans-serif" font-size="13" font-weight="bold" lengthAdjust="spacing" textLength="25" x="130" y="324.9678">12.5</text><text fill="#000000" font-family="sans-serif" font-size="13" lengthAdjust="spacing" textLength="81" x="159" y="324.9678">addSkill (skill)</text><polygon fill="#181818" points="11,377.5215,1,381.5215,11,385.5215,7,381.5215" style="stroke:#181818;stroke-width:1.0;"/><line style="stroke:#181818;stroke-width:1.0;stroke-dasharray:2.0,2.0;" x1="5" x2="117" y1="381.5215" y2="381.5215"/><text fill="#000000" font-family="sans-serif" font-size="13" font-weight="bold" lengthAdjust="spacing" textLength="14" x="17" y="376.2588">13</text><text fill="#000000" font-family="sans-serif" font-size="13" lengthAdjust="spacing" textLength="23" x="35" y="376.2588">skill</text><!--SRC=[ZL6zQiCm4DxlAOuijGCkfDr2wPQXD4DfrYuNw-A8o9AHvBHv-yeojcLmIMyHt7r_Tt8NgHkoL6Djj2dFrjICthOCRfmqL5weueE_AKRBfITTgHJWpYJCjzGLdaWv1g3M6ztMHxO03sSf64_6-AFv0GWCBqlPaFQu2X9AVN9ZdFJ6thPV-Z3lh90SzhtTnm9tOFIuzxVzFZN7pHC05g-Z0cv3_aewppQsidoEVjm0bLvUoVFaYg4gQzfcvFOpY9EXHelEhWkoNYTkc6cgEPynkfhS-kouK74qoWRHAoaf0YbQOXOFaT_ZJXU8-4Kq2lvNe7JLFovx9zQo0WcnG6Ojufl-r7Fil1J5H1ytIvSO_X3W5m00]--></g></svg>