<?xml version="1.0" encoding="us-ascii" standalone="no"?><svg xmlns="http://www.w3.org/2000/svg" xmlns:xlink="http://www.w3.org/1999/xlink" contentStyleType="text/css" height="376.5px" preserveAspectRatio="none" style="width:509px;height:376px;background:#FFFFFF;" version="1.1" viewBox="0 0 509 376" width="509px" zoomAndPan="magnify"><defs/><g><rect fill="#FFFFFF" height="260.9736" style="stroke:#181818;stroke-width:0.5;" width="5" x="30.5" y="56.1211"/><rect fill="#FFFFFF" height="37.4561" style="stroke:#181818;stroke-width:0.5;" width="5" x="220.5" y="67.7666"/><rect fill="#FFFFFF" height="15.6455" style="stroke:#181818;stroke-width:0.5;" width="5" x="220.5" y="120.8682"/><rect fill="#FFFFFF" height="164.9355" style="stroke:#181818;stroke-width:0.5;" width="5" x="220.5" y="152.1592"/><rect fill="#FFFFFF" height="133.6445" style="stroke:#181818;stroke-width:0.5;" width="5" x="297.5" y="167.8047"/><rect fill="#FFFFFF" height="15.6455" style="stroke:#181818;stroke-width:0.5;" width="5" x="363.75" y="183.4502"/><rect fill="#FFFFFF" height="15.6455" style="stroke:#181818;stroke-width:0.5;" width="5" x="417.25" y="214.7412"/><rect fill="#FFFFFF" height="39.7715" style="stroke:#181818;stroke-width:0.5;" width="5" x="474.25" y="246.0322"/><line style="stroke:#181818;stroke-width:0.25;stroke-dasharray:5.0,5.0;" x1="33" x2="33" y1="51.1211" y2="326.0947"/><line style="stroke:#181818;stroke-width:0.25;stroke-dasharray:5.0,5.0;" x1="223" x2="223" y1="51.1211" y2="326.0947"/><line style="stroke:#181818;stroke-width:0.25;stroke-dasharray:5.0,5.0;" x1="300" x2="300" y1="87.6719" y2="326.0947"/><line style="stroke:#181818;stroke-width:0.25;stroke-dasharray:5.0,5.0;" x1="366" x2="366" y1="51.1211" y2="326.0947"/><line style="stroke:#181818;stroke-width:0.25;stroke-dasharray:5.0,5.0;" x1="419.5" x2="419.5" y1="51.1211" y2="326.0947"/><line style="stroke:#181818;stroke-width:0.25;stroke-dasharray:5.0,5.0;" x1="476.5" x2="476.5" y1="51.1211" y2="326.0947"/><text fill="#000000" font-family="sans-serif" font-size="7" lengthAdjust="spacing" textLength="58" x="2.5" y="40.0537">Human Resources</text><text fill="#000000" font-family="sans-serif" font-size="7" lengthAdjust="spacing" textLength="28" x="17.5" y="49.3643">Manager</text><ellipse cx="33" cy="6.75" fill="#E3E3E3" rx="4" ry="4" style="stroke:#181818;stroke-width:0.25;"/><path d="M33,10.75 L33,24.25 M26.5,14.75 L39.5,14.75 M33,24.25 L26.5,31.75 M33,24.25 L39.5,31.75 " fill="none" style="stroke:#181818;stroke-width:0.25;"/><text fill="#000000" font-family="sans-serif" font-size="7" lengthAdjust="spacing" textLength="58" x="2.5" y="333.1484">Human Resources</text><text fill="#000000" font-family="sans-serif" font-size="7" lengthAdjust="spacing" textLength="28" x="17.5" y="342.459">Manager</text><ellipse cx="33" cy="348.4658" fill="#E3E3E3" rx="4" ry="4" style="stroke:#181818;stroke-width:0.25;"/><path d="M33,352.4658 L33,365.9658 M26.5,356.4658 L39.5,356.4658 M33,365.9658 L26.5,373.4658 M33,365.9658 L39.5,373.4658 " fill="none" style="stroke:#181818;stroke-width:0.25;"/><rect fill="#E3E3E3" height="16.3105" rx="1.25" ry="1.25" style="stroke:#181818;stroke-width:0.25;" width="49" x="198.5" y="34.3105"/><text fill="#000000" font-family="sans-serif" font-size="7" lengthAdjust="spacing" textLength="42" x="202" y="45.3643">:CreateSkillUI</text><rect fill="#E3E3E3" height="16.3105" rx="1.25" ry="1.25" style="stroke:#181818;stroke-width:0.25;" width="49" x="198.5" y="325.5947"/><text fill="#000000" font-family="sans-serif" font-size="7" lengthAdjust="spacing" textLength="42" x="202" y="336.6484">:CreateSkillUI</text><rect fill="#E3E3E3" height="16.3105" rx="1.25" ry="1.25" style="stroke:#181818;stroke-width:0.25;" width="74" x="263" y="325.5947"/><text fill="#000000" font-family="sans-serif" font-size="7" lengthAdjust="spacing" textLength="67" x="266.5" y="336.6484">:CreateSkillController</text><rect fill="#E3E3E3" height="16.3105" rx="1.25" ry="1.25" style="stroke:#181818;stroke-width:0.25;" width="48.5" x="342" y="34.3105"/><text fill="#000000" font-family="sans-serif" font-size="7" lengthAdjust="spacing" textLength="41.5" x="345.5" y="45.3643">:Repositories</text><rect fill="#E3E3E3" height="16.3105" rx="1.25" ry="1.25" style="stroke:#181818;stroke-width:0.25;" width="48.5" x="342" y="325.5947"/><text fill="#000000" font-family="sans-serif" font-size="7" lengthAdjust="spacing" textLength="41.5" x="345.5" y="336.6484">:Repositories</text><rect fill="#E3E3E3" height="25.6211" rx="1.25" ry="1.25" style="stroke:#181818;stroke-width:0.25;" width="48.5" x="395.5" y="25"/><text fill="#000000" font-family="sans-serif" font-size="7" lengthAdjust="spacing" textLength="37" x="401.25" y="36.0537">repositories</text><text fill="#000000" font-family="sans-serif" font-size="7" lengthAdjust="spacing" textLength="41.5" x="399" y="45.3643">:Repositories</text><rect fill="#E3E3E3" height="25.6211" rx="1.25" ry="1.25" style="stroke:#181818;stroke-width:0.25;" width="48.5" x="395.5" y="325.5947"/><text fill="#000000" font-family="sans-serif" font-size="7" lengthAdjust="spacing" textLength="37" x="401.25" y="336.6484">repositories</text><text fill="#000000" font-family="sans-serif" font-size="7" lengthAdjust="spacing" textLength="41.5" x="399" y="345.959">:Repositories</text><rect fill="#E3E3E3" height="25.6211" rx="1.25" ry="1.25" style="stroke:#181818;stroke-width:0.25;" width="55.5" x="449" y="25"/><text fill="#000000" font-family="sans-serif" font-size="7" lengthAdjust="spacing" textLength="48.5" x="452.5" y="36.0537">SkillRepository:</text><text fill="#000000" font-family="sans-serif" font-size="7" lengthAdjust="spacing" textLength="46.5" x="453.5" y="45.3643">SkillRepository</text><rect fill="#E3E3E3" height="25.6211" rx="1.25" ry="1.25" style="stroke:#181818;stroke-width:0.25;" width="55.5" x="449" y="325.5947"/><text fill="#000000" font-family="sans-serif" font-size="7" lengthAdjust="spacing" textLength="48.5" x="452.5" y="336.6484">SkillRepository:</text><text fill="#000000" font-family="sans-serif" font-size="7" lengthAdjust="spacing" textLength="46.5" x="453.5" y="345.959">SkillRepository</text><rect fill="#FFFFFF" height="260.9736" style="stroke:#181818;stroke-width:0.5;" width="5" x="30.5" y="56.1211"/><rect fill="#FFFFFF" height="37.4561" style="stroke:#181818;stroke-width:0.5;" width="5" x="220.5" y="67.7666"/><rect fill="#FFFFFF" height="15.6455" style="stroke:#181818;stroke-width:0.5;" width="5" x="220.5" y="120.8682"/><rect fill="#FFFFFF" height="164.9355" style="stroke:#181818;stroke-width:0.5;" width="5" x="220.5" y="152.1592"/><rect fill="#FFFFFF" height="133.6445" style="stroke:#181818;stroke-width:0.5;" width="5" x="297.5" y="167.8047"/><rect fill="#FFFFFF" height="15.6455" style="stroke:#181818;stroke-width:0.5;" width="5" x="363.75" y="183.4502"/><rect fill="#FFFFFF" height="15.6455" style="stroke:#181818;stroke-width:0.5;" width="5" x="417.25" y="214.7412"/><rect fill="#FFFFFF" height="39.7715" style="stroke:#181818;stroke-width:0.5;" width="5" x="474.25" y="246.0322"/><polygon fill="#181818" points="214.5,65.7666,219.5,67.7666,214.5,69.7666,216.5,67.7666" style="stroke:#181818;stroke-width:0.5;"/><line style="stroke:#181818;stroke-width:0.5;" x1="35.5" x2="217.5" y1="67.7666" y2="67.7666"/><text fill="#000000" font-family="sans-serif" font-size="6.5" font-weight="bold" lengthAdjust="spacing" textLength="3.5" x="39" y="65.1353">1</text><text fill="#000000" font-family="sans-serif" font-size="6.5" lengthAdjust="spacing" textLength="60.5" x="44.5" y="65.1353">asks to create a skill</text><polygon fill="#181818" points="257,81.4121,262,83.4121,257,85.4121,259,83.4121" style="stroke:#181818;stroke-width:0.5;"/><line style="stroke:#181818;stroke-width:0.5;" x1="225.5" x2="260" y1="83.4121" y2="83.4121"/><text fill="#000000" font-family="sans-serif" font-size="6.5" font-weight="bold" lengthAdjust="spacing" textLength="3.5" x="229" y="80.7808">2</text><text fill="#000000" font-family="sans-serif" font-size="6.5" lengthAdjust="spacing" textLength="18" x="234.5" y="80.7808">create</text><rect fill="#E3E3E3" height="16.3105" rx="1.25" ry="1.25" style="stroke:#181818;stroke-width:0.25;" width="74" x="263" y="71.7666"/><text fill="#000000" font-family="sans-serif" font-size="7" lengthAdjust="spacing" textLength="67" x="266.5" y="82.8203">:CreateSkillController</text><polygon fill="#181818" points="41,103.2227,36,105.2227,41,107.2227,39,105.2227" style="stroke:#181818;stroke-width:0.5;"/><line style="stroke:#181818;stroke-width:0.5;stroke-dasharray:2.0,2.0;" x1="38" x2="222.5" y1="105.2227" y2="105.2227"/><text fill="#000000" font-family="sans-serif" font-size="6.5" font-weight="bold" lengthAdjust="spacing" textLength="3.5" x="44" y="102.5913">3</text><text fill="#000000" font-family="sans-serif" font-size="6.5" lengthAdjust="spacing" textLength="39.5" x="49.5" y="102.5913">requests data</text><polygon fill="#181818" points="214.5,118.8682,219.5,120.8682,214.5,122.8682,216.5,120.8682" style="stroke:#181818;stroke-width:0.5;"/><line style="stroke:#181818;stroke-width:0.5;" x1="35.5" x2="217.5" y1="120.8682" y2="120.8682"/><text fill="#000000" font-family="sans-serif" font-size="6.5" font-weight="bold" lengthAdjust="spacing" textLength="3.5" x="39" y="118.2368">4</text><text fill="#000000" font-family="sans-serif" font-size="6.5" lengthAdjust="spacing" textLength="61" x="44.5" y="118.2368">types requested data</text><polygon fill="#181818" points="41,134.5137,36,136.5137,41,138.5137,39,136.5137" style="stroke:#181818;stroke-width:0.5;"/><line style="stroke:#181818;stroke-width:0.5;stroke-dasharray:2.0,2.0;" x1="38" x2="222.5" y1="136.5137" y2="136.5137"/><text fill="#000000" font-family="sans-serif" font-size="6.5" font-weight="bold" lengthAdjust="spacing" textLength="3.5" x="44" y="133.8823">5</text><text fill="#000000" font-family="sans-serif" font-size="6.5" lengthAdjust="spacing" textLength="167.5" x="49.5" y="133.8823">Shows all data and requests confirmation for the operation</text><polygon fill="#181818" points="214.5,150.1592,219.5,152.1592,214.5,154.1592,216.5,152.1592" style="stroke:#181818;stroke-width:0.5;"/><line style="stroke:#181818;stroke-width:0.5;" x1="35.5" x2="217.5" y1="152.1592" y2="152.1592"/><text fill="#000000" font-family="sans-serif" font-size="6.5" font-weight="bold" lengthAdjust="spacing" textLength="3.5" x="39" y="149.5278">6</text><text fill="#000000" font-family="sans-serif" font-size="6.5" lengthAdjust="spacing" textLength="40" x="44.5" y="149.5278">Confirms data</text><polygon fill="#181818" points="291.5,165.8047,296.5,167.8047,291.5,169.8047,293.5,167.8047" style="stroke:#181818;stroke-width:0.5;"/><line style="stroke:#181818;stroke-width:0.5;" x1="225.5" x2="294.5" y1="167.8047" y2="167.8047"/><text fill="#000000" font-family="sans-serif" font-size="6.5" font-weight="bold" lengthAdjust="spacing" textLength="3.5" x="229" y="165.1733">7</text><text fill="#000000" font-family="sans-serif" font-size="6.5" lengthAdjust="spacing" textLength="57" x="234.5" y="165.1733">register skill (name)</text><polygon fill="#181818" points="357.75,181.4502,362.75,183.4502,357.75,185.4502,359.75,183.4502" style="stroke:#181818;stroke-width:0.5;"/><line style="stroke:#181818;stroke-width:0.5;" x1="302.5" x2="360.75" y1="183.4502" y2="183.4502"/><text fill="#000000" font-family="sans-serif" font-size="6.5" font-weight="bold" lengthAdjust="spacing" textLength="3.5" x="306" y="180.8188">8</text><text fill="#000000" font-family="sans-serif" font-size="6.5" lengthAdjust="spacing" textLength="37.5" x="311.5" y="180.8188">getInstance()</text><polygon fill="#181818" points="308,197.0957,303,199.0957,308,201.0957,306,199.0957" style="stroke:#181818;stroke-width:0.5;"/><line style="stroke:#181818;stroke-width:0.5;stroke-dasharray:2.0,2.0;" x1="305" x2="365.75" y1="199.0957" y2="199.0957"/><text fill="#000000" font-family="sans-serif" font-size="6.5" font-weight="bold" lengthAdjust="spacing" textLength="3.5" x="311" y="196.4644">9</text><text fill="#000000" font-family="sans-serif" font-size="6.5" lengthAdjust="spacing" textLength="28.5" x="316.5" y="196.4644">repository</text><polygon fill="#181818" points="411.25,212.7412,416.25,214.7412,411.25,216.7412,413.25,214.7412" style="stroke:#181818;stroke-width:0.5;"/><line style="stroke:#181818;stroke-width:0.5;" x1="302.5" x2="414.25" y1="214.7412" y2="214.7412"/><text fill="#000000" font-family="sans-serif" font-size="6.5" font-weight="bold" lengthAdjust="spacing" textLength="7" x="306" y="212.1099">10</text><text fill="#000000" font-family="sans-serif" font-size="6.5" lengthAdjust="spacing" textLength="52.5" x="315" y="212.1099">getSkillRepository</text><polygon fill="#181818" points="308,228.3867,303,230.3867,308,232.3867,306,230.3867" style="stroke:#181818;stroke-width:0.5;"/><line style="stroke:#181818;stroke-width:0.5;stroke-dasharray:2.0,2.0;" x1="305" x2="419.25" y1="230.3867" y2="230.3867"/><text fill="#000000" font-family="sans-serif" font-size="6.5" font-weight="bold" lengthAdjust="spacing" textLength="7" x="311" y="227.7554">11</text><text fill="#000000" font-family="sans-serif" font-size="6.5" lengthAdjust="spacing" textLength="45.5" x="320" y="227.7554">Skill Repository</text><polygon fill="#181818" points="468.25,244.0322,473.25,246.0322,468.25,248.0322,470.25,246.0322" style="stroke:#181818;stroke-width:0.5;"/><line style="stroke:#181818;stroke-width:0.5;" x1="302.5" x2="471.25" y1="246.0322" y2="246.0322"/><text fill="#000000" font-family="sans-serif" font-size="6.5" font-weight="bold" lengthAdjust="spacing" textLength="7" x="306" y="243.4009">12</text><text fill="#000000" font-family="sans-serif" font-size="6.5" lengthAdjust="spacing" textLength="57" x="315" y="243.4009">register skill (name)</text><rect fill="none" height="21.626" style="stroke:#000000;stroke-width:0.75;" width="58.5" x="447.5" y="250.0322"/><path d="M447.5,250.0322 L478.5,250.0322 L478.5,254.5322 L473.5,259.5322 L447.5,259.5322 L447.5,250.0322 " fill="#EEEEEE" style="stroke:#000000;stroke-width:1.0;"/><text fill="#000000" font-family="sans-serif" font-size="6.5" font-weight="bold" lengthAdjust="spacing" textLength="8.5" x="454" y="258.0464">ref</text><text fill="#000000" font-family="sans-serif" font-size="6" lengthAdjust="spacing" textLength="34" x="459.75" y="268.0068">register Skill</text><polygon fill="#181818" points="308,283.8037,303,285.8037,308,287.8037,306,285.8037" style="stroke:#181818;stroke-width:0.5;"/><line style="stroke:#181818;stroke-width:0.5;stroke-dasharray:2.0,2.0;" x1="305" x2="476.25" y1="285.8037" y2="285.8037"/><text fill="#000000" font-family="sans-serif" font-size="6.5" font-weight="bold" lengthAdjust="spacing" textLength="7" x="311" y="283.1724">13</text><text fill="#000000" font-family="sans-serif" font-size="6.5" lengthAdjust="spacing" textLength="11.5" x="320" y="283.1724">skill</text><polygon fill="#181818" points="231,299.4492,226,301.4492,231,303.4492,229,301.4492" style="stroke:#181818;stroke-width:0.5;"/><line style="stroke:#181818;stroke-width:0.5;stroke-dasharray:2.0,2.0;" x1="228" x2="299.5" y1="301.4492" y2="301.4492"/><text fill="#000000" font-family="sans-serif" font-size="6.5" font-weight="bold" lengthAdjust="spacing" textLength="7" x="234" y="298.8179">14</text><text fill="#000000" font-family="sans-serif" font-size="6.5" lengthAdjust="spacing" textLength="11.5" x="243" y="298.8179">skill</text><polygon fill="#181818" points="38.5,315.0947,33.5,317.0947,38.5,319.0947,36.5,317.0947" style="stroke:#181818;stroke-width:0.5;"/><line style="stroke:#181818;stroke-width:0.5;stroke-dasharray:2.0,2.0;" x1="35.5" x2="222.5" y1="317.0947" y2="317.0947"/><text fill="#000000" font-family="sans-serif" font-size="6.5" font-weight="bold" lengthAdjust="spacing" textLength="7" x="41.5" y="314.4634">15</text><text fill="#000000" font-family="sans-serif" font-size="6.5" lengthAdjust="spacing" textLength="80" x="50.5" y="314.4634">Displays operation success</text><!--SRC=[ZLHDRzim3BtxLn2vz0Fe7_1Xbsn00wp0OA-tN5YRiON8aYlAxVBlHykBBCVfMfuIyht7Huao7vNfqM47dJMsQftj2BmRAEDOwR4wOaEbFsa2HvL7q-WKm2tMzbsP1WwecR8C1s_DqBsGoxARLjK41slzY_sJOUMjWytZqA61WjWEhYBUcoSqqi9j01aUYwTCXBsgL8_6moRVEa9FvL5f_RmBcEVTnv2jDTvPhV_9RNyNFo_01VMMbJXHn05J_FYrXBW4iJTN2UMI4Lf7t2dVcujCu4qvwJQUX7eJos7S32Ja1pnyaz4W5-YHmLkembY0m2Cnm29HpY0anX2IKCTHx- -5Fj6cybYIsgYUo_Mz3iIUeKQFeLpJIZ0ruayzyPb6zSnRiUO-UTdQTmRKEi01JJqthgmvADUXLzR8MZZmBO7joONC5onj9m7-ZvNbYOIn6oNstNICS6kmexi8ZVomAZ4zHk2BZboPo3JaTuPb_okwlLlWeaIusxGoCXzI9-TzMA2IaLSAYOToCd6nMHywALTMojHBa87YAuxAwvREw_pf4I-SpOy0BiBH0UoRY4G8N8dOgeoF8WqAwtPOgaUdoVoyeYT3hqrEGvyVnfAS4ESbIb_UTyMznXFFgmuyLFBjusihd_mDduU_]--></g></svg>