<?xml version="1.0" encoding="us-ascii" standalone="no"?><svg xmlns="http://www.w3.org/2000/svg" xmlns:xlink="http://www.w3.org/1999/xlink" contentStyleType="text/css" height="656px" preserveAspectRatio="none" style="width:579px;height:656px;background:#FFFFFF;" version="1.1" viewBox="0 0 579 656" width="579px" zoomAndPan="magnify"><defs/><g><rect fill="#FFFFFF" height="491.7344" style="stroke:#181818;stroke-width:1.0;" width="10" x="199" y="90.5332"/><rect fill="#FFFFFF" height="42.291" style="stroke:#181818;stroke-width:1.0;" width="10" x="204" y="218.3574"/><rect fill="#FFFFFF" height="230.0371" style="stroke:#181818;stroke-width:1.0;" width="10" x="204" y="306.9395"/><rect fill="#FFFFFF" height="31.291" style="stroke:#181818;stroke-width:1.0;" width="10" x="430" y="343.2305"/><rect fill="#FFFFFF" height="31.291" style="stroke:#181818;stroke-width:1.0;" width="10" x="430" y="405.8125"/><rect fill="#FFFFFF" height="31.291" style="stroke:#181818;stroke-width:1.0;" width="10" x="512" y="468.3945"/><rect fill="none" height="446.4434" style="stroke:#000000;stroke-width:1.5;" width="412.5" x="161" y="105.5332"/><line style="stroke:#181818;stroke-width:0.5;stroke-dasharray:5.0,5.0;" x1="204" x2="204" y1="57.2422" y2="600.2676"/><line style="stroke:#181818;stroke-width:0.5;stroke-dasharray:5.0,5.0;" x1="434.5" x2="434.5" y1="165.9453" y2="600.2676"/><line style="stroke:#181818;stroke-width:0.5;stroke-dasharray:5.0,5.0;" x1="516.5" x2="516.5" y1="57.2422" y2="600.2676"/><rect fill="#E3E3E3" height="51.2422" rx="2.5" ry="2.5" style="stroke:#181818;stroke-width:0.5;" width="66" x="171" y="5"/><text fill="#000000" font-family="sans-serif" font-size="14" lengthAdjust="spacing" textLength="52" x="178" y="27.1074">agenda:</text><text fill="#000000" font-family="sans-serif" font-size="14" lengthAdjust="spacing" textLength="49" x="179.5" y="45.7285">Agenda</text><rect fill="#E3E3E3" height="51.2422" rx="2.5" ry="2.5" style="stroke:#181818;stroke-width:0.5;" width="66" x="171" y="599.2676"/><text fill="#000000" font-family="sans-serif" font-size="14" lengthAdjust="spacing" textLength="52" x="178" y="621.375">agenda:</text><text fill="#000000" font-family="sans-serif" font-size="14" lengthAdjust="spacing" textLength="49" x="179.5" y="639.9961">Agenda</text><rect fill="#E3E3E3" height="51.2422" rx="2.5" ry="2.5" style="stroke:#181818;stroke-width:0.5;" width="51" x="409.5" y="599.2676"/><text fill="#000000" font-family="sans-serif" font-size="14" lengthAdjust="spacing" textLength="32" x="419" y="621.375">entry</text><text fill="#000000" font-family="sans-serif" font-size="14" lengthAdjust="spacing" textLength="37" x="416.5" y="639.9961">:Entry</text><rect fill="#E3E3E3" height="51.2422" rx="2.5" ry="2.5" style="stroke:#181818;stroke-width:0.5;" width="93" x="470.5" y="5"/><text fill="#000000" font-family="sans-serif" font-size="14" lengthAdjust="spacing" textLength="79" x="477.5" y="27.1074">collaborator:</text><text fill="#000000" font-family="sans-serif" font-size="14" lengthAdjust="spacing" textLength="78" x="478" y="45.7285">Collaborator</text><rect fill="#E3E3E3" height="51.2422" rx="2.5" ry="2.5" style="stroke:#181818;stroke-width:0.5;" width="93" x="470.5" y="599.2676"/><text fill="#000000" font-family="sans-serif" font-size="14" lengthAdjust="spacing" textLength="79" x="477.5" y="621.375">collaborator:</text><text fill="#000000" font-family="sans-serif" font-size="14" lengthAdjust="spacing" textLength="78" x="478" y="639.9961">Collaborator</text><rect fill="#FFFFFF" height="491.7344" style="stroke:#181818;stroke-width:1.0;" width="10" x="199" y="90.5332"/><rect fill="#FFFFFF" height="42.291" style="stroke:#181818;stroke-width:1.0;" width="10" x="204" y="218.3574"/><rect fill="#FFFFFF" height="230.0371" style="stroke:#181818;stroke-width:1.0;" width="10" x="204" y="306.9395"/><rect fill="#FFFFFF" height="31.291" style="stroke:#181818;stroke-width:1.0;" width="10" x="430" y="343.2305"/><rect fill="#FFFFFF" height="31.291" style="stroke:#181818;stroke-width:1.0;" width="10" x="430" y="405.8125"/><rect fill="#FFFFFF" height="31.291" style="stroke:#181818;stroke-width:1.0;" width="10" x="512" y="468.3945"/><polygon fill="#181818" points="187,86.5332,197,90.5332,187,94.5332,191,90.5332" style="stroke:#181818;stroke-width:1.0;"/><line style="stroke:#181818;stroke-width:1.0;" x1="0" x2="193" y1="90.5332" y2="90.5332"/><text fill="#000000" font-family="sans-serif" font-size="13" font-weight="bold" lengthAdjust="spacing" textLength="14" x="7" y="85.2705">18</text><text fill="#000000" font-family="sans-serif" font-size="13" lengthAdjust="spacing" textLength="162" x="25" y="85.2705">CompleteEntry(entry, email)</text><path d="M161,105.5332 L303,105.5332 L303,114.8242 L293,124.8242 L161,124.8242 L161,105.5332 " fill="#EEEEEE" style="stroke:#000000;stroke-width:1.5;"/><rect fill="none" height="446.4434" style="stroke:#000000;stroke-width:1.5;" width="412.5" x="161" y="105.5332"/><text fill="#000000" font-family="sans-serif" font-size="13" font-weight="bold" lengthAdjust="spacing" textLength="97" x="176" y="120.5615">Complete Entry</text><polygon fill="#181818" points="397.5,144.1152,407.5,148.1152,397.5,152.1152,401.5,148.1152" style="stroke:#181818;stroke-width:1.0;"/><line style="stroke:#181818;stroke-width:1.0;" x1="209" x2="403.5" y1="148.1152" y2="148.1152"/><text fill="#000000" font-family="sans-serif" font-size="13" font-weight="bold" lengthAdjust="spacing" textLength="25" x="216" y="142.8525">18.1</text><text fill="#000000" font-family="sans-serif" font-size="13" lengthAdjust="spacing" textLength="114" x="245" y="142.8525">cancel(entry, email)</text><rect fill="#E3E3E3" height="51.2422" rx="2.5" ry="2.5" style="stroke:#181818;stroke-width:0.5;" width="51" x="409.5" y="124.8242"/><text fill="#000000" font-family="sans-serif" font-size="14" lengthAdjust="spacing" textLength="32" x="419" y="146.9316">entry</text><text fill="#000000" font-family="sans-serif" font-size="14" lengthAdjust="spacing" textLength="37" x="416.5" y="165.5527">:Entry</text><line style="stroke:#181818;stroke-width:1.0;" x1="209" x2="256" y1="205.3574" y2="205.3574"/><line style="stroke:#181818;stroke-width:1.0;" x1="256" x2="256" y1="205.3574" y2="218.3574"/><line style="stroke:#181818;stroke-width:1.0;" x1="215" x2="256" y1="218.3574" y2="218.3574"/><polygon fill="#181818" points="225,214.3574,215,218.3574,225,222.3574,221,218.3574" style="stroke:#181818;stroke-width:1.0;"/><text fill="#000000" font-family="sans-serif" font-size="13" font-weight="bold" lengthAdjust="spacing" textLength="25" x="221" y="200.0947">18.2</text><text fill="#000000" font-family="sans-serif" font-size="13" lengthAdjust="spacing" textLength="115" x="250" y="200.0947">validateEntry (entry)</text><line style="stroke:#181818;stroke-width:1.0;stroke-dasharray:2.0,2.0;" x1="214" x2="256" y1="259.6484" y2="259.6484"/><line style="stroke:#181818;stroke-width:1.0;stroke-dasharray:2.0,2.0;" x1="256" x2="256" y1="259.6484" y2="272.6484"/><line style="stroke:#181818;stroke-width:1.0;stroke-dasharray:2.0,2.0;" x1="209" x2="256" y1="272.6484" y2="272.6484"/><polygon fill="#181818" points="219,268.6484,209,272.6484,219,276.6484,215,272.6484" style="stroke:#181818;stroke-width:1.0;"/><text fill="#000000" font-family="sans-serif" font-size="13" font-weight="bold" lengthAdjust="spacing" textLength="25" x="221" y="254.3857">18.3</text><text fill="#000000" font-family="sans-serif" font-size="13" lengthAdjust="spacing" textLength="4" x="250" y="254.3857">&#160;</text><line style="stroke:#181818;stroke-width:1.0;" x1="209" x2="256" y1="293.9395" y2="293.9395"/><line style="stroke:#181818;stroke-width:1.0;" x1="256" x2="256" y1="293.9395" y2="306.9395"/><line style="stroke:#181818;stroke-width:1.0;" x1="215" x2="256" y1="306.9395" y2="306.9395"/><polygon fill="#181818" points="225,302.9395,215,306.9395,225,310.9395,221,306.9395" style="stroke:#181818;stroke-width:1.0;"/><text fill="#000000" font-family="sans-serif" font-size="13" font-weight="bold" lengthAdjust="spacing" textLength="25" x="221" y="288.6768">18.4</text><text fill="#000000" font-family="sans-serif" font-size="13" lengthAdjust="spacing" textLength="178" x="250" y="288.6768">verifyCollaborator (email, entry)</text><polygon fill="#181818" points="418,339.2305,428,343.2305,418,347.2305,422,343.2305" style="stroke:#181818;stroke-width:1.0;"/><line style="stroke:#181818;stroke-width:1.0;" x1="214" x2="424" y1="343.2305" y2="343.2305"/><text fill="#000000" font-family="sans-serif" font-size="13" font-weight="bold" lengthAdjust="spacing" textLength="25" x="221" y="337.9678">18.5</text><text fill="#000000" font-family="sans-serif" font-size="13" lengthAdjust="spacing" textLength="98" x="250" y="337.9678">getTeamAssign()</text><polygon fill="#181818" points="225,370.5215,215,374.5215,225,378.5215,221,374.5215" style="stroke:#181818;stroke-width:1.0;"/><line style="stroke:#181818;stroke-width:1.0;stroke-dasharray:2.0,2.0;" x1="219" x2="434" y1="374.5215" y2="374.5215"/><text fill="#000000" font-family="sans-serif" font-size="13" font-weight="bold" lengthAdjust="spacing" textLength="25" x="231" y="369.2588">18.6</text><text fill="#000000" font-family="sans-serif" font-size="13" lengthAdjust="spacing" textLength="69" x="260" y="369.2588">teamAssign</text><polygon fill="#181818" points="418,401.8125,428,405.8125,418,409.8125,422,405.8125" style="stroke:#181818;stroke-width:1.0;"/><line style="stroke:#181818;stroke-width:1.0;" x1="214" x2="424" y1="405.8125" y2="405.8125"/><text fill="#000000" font-family="sans-serif" font-size="13" font-weight="bold" lengthAdjust="spacing" textLength="25" x="221" y="400.5498">18.7</text><text fill="#000000" font-family="sans-serif" font-size="13" lengthAdjust="spacing" textLength="58" x="250" y="400.5498">getTeam()</text><polygon fill="#181818" points="225,433.1035,215,437.1035,225,441.1035,221,437.1035" style="stroke:#181818;stroke-width:1.0;"/><line style="stroke:#181818;stroke-width:1.0;stroke-dasharray:2.0,2.0;" x1="219" x2="434" y1="437.1035" y2="437.1035"/><text fill="#000000" font-family="sans-serif" font-size="13" font-weight="bold" lengthAdjust="spacing" textLength="25" x="231" y="431.8408">18.8</text><text fill="#000000" font-family="sans-serif" font-size="13" lengthAdjust="spacing" textLength="29" x="260" y="431.8408">team</text><polygon fill="#181818" points="500,464.3945,510,468.3945,500,472.3945,504,468.3945" style="stroke:#181818;stroke-width:1.0;"/><line style="stroke:#181818;stroke-width:1.0;" x1="214" x2="506" y1="468.3945" y2="468.3945"/><text fill="#000000" font-family="sans-serif" font-size="13" font-weight="bold" lengthAdjust="spacing" textLength="25" x="221" y="463.1318">18.9</text><text fill="#000000" font-family="sans-serif" font-size="13" lengthAdjust="spacing" textLength="59" x="250" y="463.1318">getEmail()</text><polygon fill="#181818" points="225,495.6855,215,499.6855,225,503.6855,221,499.6855" style="stroke:#181818;stroke-width:1.0;"/><line style="stroke:#181818;stroke-width:1.0;stroke-dasharray:2.0,2.0;" x1="219" x2="516" y1="499.6855" y2="499.6855"/><text fill="#000000" font-family="sans-serif" font-size="13" font-weight="bold" lengthAdjust="spacing" textLength="32" x="231" y="494.4229">18.10</text><text fill="#000000" font-family="sans-serif" font-size="13" lengthAdjust="spacing" textLength="31" x="267" y="494.4229">email</text><line style="stroke:#181818;stroke-width:1.0;stroke-dasharray:2.0,2.0;" x1="214" x2="256" y1="535.9766" y2="535.9766"/><line style="stroke:#181818;stroke-width:1.0;stroke-dasharray:2.0,2.0;" x1="256" x2="256" y1="535.9766" y2="548.9766"/><line style="stroke:#181818;stroke-width:1.0;stroke-dasharray:2.0,2.0;" x1="209" x2="256" y1="548.9766" y2="548.9766"/><polygon fill="#181818" points="219,544.9766,209,548.9766,219,552.9766,215,548.9766" style="stroke:#181818;stroke-width:1.0;"/><text fill="#000000" font-family="sans-serif" font-size="13" font-weight="bold" lengthAdjust="spacing" textLength="32" x="221" y="530.7139">18.11</text><text fill="#000000" font-family="sans-serif" font-size="13" lengthAdjust="spacing" textLength="4" x="257" y="530.7139">&#160;</text><polygon fill="#181818" points="11,578.2676,1,582.2676,11,586.2676,7,582.2676" style="stroke:#181818;stroke-width:1.0;"/><line style="stroke:#181818;stroke-width:1.0;stroke-dasharray:2.0,2.0;" x1="5" x2="203" y1="582.2676" y2="582.2676"/><text fill="#000000" font-family="sans-serif" font-size="13" font-weight="bold" lengthAdjust="spacing" textLength="14" x="17" y="577.0049">19</text><text fill="#000000" font-family="sans-serif" font-size="13" lengthAdjust="spacing" textLength="29" x="35" y="577.0049">entry</text><!--SRC=[lLH1Jy8m5BxtLxnu4OYOSDF5c2ouUEC0U33XyjWUew5hbwv3-VTs1MQ7oi2WlRHRl_TzxtjjNx7YCaUD6MHAgdYfLKPWT4cig7ToZ5UOqiHi186csA1CXGyebfYeDovJMA0eY34iZP9bDYVDsFMI9mGBfSnSlJDc8moFUOxIm9LbbGa6CncwnHLW0U5pD7eAcpYIHczcCeYgsQ6YqNJysWJ5IWYSAur6QKivz3vToCia6lkfmU2ECUW_xXGXWA7ASa66d4p7YTu0PSX5jnbtEs0O6xv6G_jymOvKgpAlMS3HCBUp7pifA-eCz7fMDKOPapYGQqGTZa-MxIg0DGgUu2vps79rZt8Svd-IOAru59tGhyWzDwJvOkCVeBLKrSMMvyBElZcK058oKy8iB0gUoawtbQ1MtDxALho3UTKCmDHohS5UTK-K-ydVlpdxKq_LitQMekg6dEDfsn3Qu1MguSZTn7CijUjSv7tP3kfclrFTkpyF_VvUmlORzuJOLv8F]--></g></svg>