<?xml version="1.0" encoding="us-ascii" standalone="no"?><svg xmlns="http://www.w3.org/2000/svg" xmlns:xlink="http://www.w3.org/1999/xlink" contentStyleType="text/css" height="1033px" preserveAspectRatio="none" style="width:794px;height:1033px;background:#FFFFFF;" version="1.1" viewBox="0 0 794 1033" width="794px" zoomAndPan="magnify"><defs/><g><!--class CompleteEntryAgendaUI--><g id="elem_CompleteEntryAgendaUI"><rect codeLine="8" fill="#F1F1F1" height="48" id="CompleteEntryAgendaUI" rx="2.5" ry="2.5" style="stroke:#181818;stroke-width:0.5;" width="186" x="369" y="7"/><ellipse cx="384" cy="23" fill="#ADD1B2" rx="11" ry="11" style="stroke:#181818;stroke-width:1.0;"/><path d="M386.7656,18.875 Q386.9219,18.6563 387.1094,18.5469 Q387.2969,18.4375 387.5156,18.4375 Q387.8906,18.4375 388.125,18.7031 Q388.3594,18.9531 388.3594,19.5625 L388.3594,21.0156 Q388.3594,21.625 388.125,21.8906 Q387.8906,22.1563 387.5156,22.1563 Q387.1719,22.1563 386.9688,21.9531 Q386.7656,21.7656 386.6563,21.25 Q386.6094,20.8906 386.4219,20.7031 Q386.0938,20.3281 385.4844,20.1094 Q384.875,19.8906 384.25,19.8906 Q383.4844,19.8906 382.8438,20.2188 Q382.2188,20.5469 381.7188,21.2969 Q381.2344,22.0469 381.2344,23.0781 L381.2344,24.1719 Q381.2344,25.4063 382.125,26.2344 Q383.0156,27.0469 384.6094,27.0469 Q385.5469,27.0469 386.2031,26.7969 Q386.5938,26.6406 387.0156,26.2031 Q387.2813,25.9375 387.4219,25.8594 Q387.5781,25.7813 387.7813,25.7813 Q388.1094,25.7813 388.3594,26.0469 Q388.625,26.2969 388.625,26.6406 Q388.625,26.9844 388.2813,27.3906 Q387.7813,27.9688 386.9844,28.2969 Q385.9063,28.75 384.6094,28.75 Q383.0938,28.75 381.8906,28.125 Q380.9063,27.625 380.2188,26.5625 Q379.5313,25.4844 379.5313,24.2031 L379.5313,23.0469 Q379.5313,21.7188 380.1406,20.5781 Q380.7656,19.4219 381.8594,18.8125 Q382.9531,18.1875 384.1875,18.1875 Q384.9219,18.1875 385.5625,18.3594 Q386.2188,18.5156 386.7656,18.875 Z " fill="#000000"/><text fill="#000000" font-family="sans-serif" font-size="14" lengthAdjust="spacing" textLength="154" x="398" y="28.7969">CompleteEntryAgendaUI</text><line style="stroke:#181818;stroke-width:0.5;" x1="370" x2="554" y1="39" y2="39"/><line style="stroke:#181818;stroke-width:0.5;" x1="370" x2="554" y1="47" y2="47"/></g><!--class CompleteEntryAgendaController--><g id="elem_CompleteEntryAgendaController"><rect codeLine="10" fill="#F1F1F1" height="141.1055" id="CompleteEntryAgendaController" rx="2.5" ry="2.5" style="stroke:#181818;stroke-width:0.5;" width="447" x="238.5" y="116"/><ellipse cx="355.75" cy="132" fill="#ADD1B2" rx="11" ry="11" style="stroke:#181818;stroke-width:1.0;"/><path d="M358.5156,127.875 Q358.6719,127.6563 358.8594,127.5469 Q359.0469,127.4375 359.2656,127.4375 Q359.6406,127.4375 359.875,127.7031 Q360.1094,127.9531 360.1094,128.5625 L360.1094,130.0156 Q360.1094,130.625 359.875,130.8906 Q359.6406,131.1563 359.2656,131.1563 Q358.9219,131.1563 358.7188,130.9531 Q358.5156,130.7656 358.4063,130.25 Q358.3594,129.8906 358.1719,129.7031 Q357.8438,129.3281 357.2344,129.1094 Q356.625,128.8906 356,128.8906 Q355.2344,128.8906 354.5938,129.2188 Q353.9688,129.5469 353.4688,130.2969 Q352.9844,131.0469 352.9844,132.0781 L352.9844,133.1719 Q352.9844,134.4063 353.875,135.2344 Q354.7656,136.0469 356.3594,136.0469 Q357.2969,136.0469 357.9531,135.7969 Q358.3438,135.6406 358.7656,135.2031 Q359.0313,134.9375 359.1719,134.8594 Q359.3281,134.7813 359.5313,134.7813 Q359.8594,134.7813 360.1094,135.0469 Q360.375,135.2969 360.375,135.6406 Q360.375,135.9844 360.0313,136.3906 Q359.5313,136.9688 358.7344,137.2969 Q357.6563,137.75 356.3594,137.75 Q354.8438,137.75 353.6406,137.125 Q352.6563,136.625 351.9688,135.5625 Q351.2813,134.4844 351.2813,133.2031 L351.2813,132.0469 Q351.2813,130.7188 351.8906,129.5781 Q352.5156,128.4219 353.6094,127.8125 Q354.7031,127.1875 355.9375,127.1875 Q356.6719,127.1875 357.3125,127.3594 Q357.9688,127.5156 358.5156,127.875 Z " fill="#000000"/><text fill="#000000" font-family="sans-serif" font-size="14" lengthAdjust="spacing" textLength="204" x="376.25" y="137.7969">CompleteEntryAgendaController</text><line style="stroke:#181818;stroke-width:0.5;" x1="239.5" x2="684.5" y1="148" y2="148"/><line style="stroke:#181818;stroke-width:0.5;" x1="239.5" x2="684.5" y1="156" y2="156"/><text fill="#000000" font-family="sans-serif" font-size="14" lengthAdjust="spacing" textLength="435" x="244.5" y="175.1074">+CompleteEntryAgendaController(agenda, authenticationRepository)</text><text fill="#000000" font-family="sans-serif" font-size="14" lengthAdjust="spacing" textLength="157" x="244.5" y="193.7285">+cancelEntry(entryIndex)</text><text fill="#000000" font-family="sans-serif" font-size="14" lengthAdjust="spacing" textLength="134" x="244.5" y="212.3496">+getEntriesListDTO()</text><text fill="#000000" font-family="sans-serif" font-size="14" lengthAdjust="spacing" textLength="150" x="244.5" y="230.9707">-getEntryByIndex(index)</text><text fill="#000000" font-family="sans-serif" font-size="14" lengthAdjust="spacing" textLength="230" x="244.5" y="249.5918">-getEmailCollaboratorFromSession()</text></g><!--class Repositories--><g id="elem_Repositories"><rect codeLine="19" fill="#F1F1F1" height="122.4844" id="Repositories" rx="2.5" ry="2.5" style="stroke:#181818;stroke-width:0.5;" width="208" x="169" y="336"/><ellipse cx="229.25" cy="352" fill="#ADD1B2" rx="11" ry="11" style="stroke:#181818;stroke-width:1.0;"/><path d="M232.0156,347.875 Q232.1719,347.6563 232.3594,347.5469 Q232.5469,347.4375 232.7656,347.4375 Q233.1406,347.4375 233.375,347.7031 Q233.6094,347.9531 233.6094,348.5625 L233.6094,350.0156 Q233.6094,350.625 233.375,350.8906 Q233.1406,351.1563 232.7656,351.1563 Q232.4219,351.1563 232.2188,350.9531 Q232.0156,350.7656 231.9063,350.25 Q231.8594,349.8906 231.6719,349.7031 Q231.3438,349.3281 230.7344,349.1094 Q230.125,348.8906 229.5,348.8906 Q228.7344,348.8906 228.0938,349.2188 Q227.4688,349.5469 226.9688,350.2969 Q226.4844,351.0469 226.4844,352.0781 L226.4844,353.1719 Q226.4844,354.4063 227.375,355.2344 Q228.2656,356.0469 229.8594,356.0469 Q230.7969,356.0469 231.4531,355.7969 Q231.8438,355.6406 232.2656,355.2031 Q232.5313,354.9375 232.6719,354.8594 Q232.8281,354.7813 233.0313,354.7813 Q233.3594,354.7813 233.6094,355.0469 Q233.875,355.2969 233.875,355.6406 Q233.875,355.9844 233.5313,356.3906 Q233.0313,356.9688 232.2344,357.2969 Q231.1563,357.75 229.8594,357.75 Q228.3438,357.75 227.1406,357.125 Q226.1563,356.625 225.4688,355.5625 Q224.7813,354.4844 224.7813,353.2031 L224.7813,352.0469 Q224.7813,350.7188 225.3906,349.5781 Q226.0156,348.4219 227.1094,347.8125 Q228.2031,347.1875 229.4375,347.1875 Q230.1719,347.1875 230.8125,347.3594 Q231.4688,347.5156 232.0156,347.875 Z " fill="#000000"/><text fill="#000000" font-family="sans-serif" font-size="14" lengthAdjust="spacing" textLength="79" x="249.75" y="357.7969">Repositories</text><line style="stroke:#181818;stroke-width:0.5;" x1="170" x2="376" y1="368" y2="368"/><line style="stroke:#181818;stroke-width:0.5;" x1="170" x2="376" y1="376" y2="376"/><text fill="#000000" font-family="sans-serif" font-size="14" lengthAdjust="spacing" textLength="94" x="175" y="395.1074">-Repositories()</text><text fill="#000000" font-family="sans-serif" font-size="14" lengthAdjust="spacing" textLength="182" x="175" y="413.7285">+getInstance() : Repositories</text><text fill="#000000" font-family="sans-serif" font-size="14" lengthAdjust="spacing" textLength="87" x="175" y="432.3496">+getAgenda()</text><text fill="#000000" font-family="sans-serif" font-size="14" lengthAdjust="spacing" textLength="196" x="175" y="450.9707">+getAuthenticationRepository()</text></g><!--class AuthenticationRepository--><g id="elem_AuthenticationRepository"><rect codeLine="26" fill="#F1F1F1" height="66.6211" id="AuthenticationRepository" rx="2.5" ry="2.5" style="stroke:#181818;stroke-width:0.5;" width="190" x="38" y="546.5"/><ellipse cx="53" cy="562.5" fill="#ADD1B2" rx="11" ry="11" style="stroke:#181818;stroke-width:1.0;"/><path d="M55.7656,558.375 Q55.9219,558.1563 56.1094,558.0469 Q56.2969,557.9375 56.5156,557.9375 Q56.8906,557.9375 57.125,558.2031 Q57.3594,558.4531 57.3594,559.0625 L57.3594,560.5156 Q57.3594,561.125 57.125,561.3906 Q56.8906,561.6563 56.5156,561.6563 Q56.1719,561.6563 55.9688,561.4531 Q55.7656,561.2656 55.6563,560.75 Q55.6094,560.3906 55.4219,560.2031 Q55.0938,559.8281 54.4844,559.6094 Q53.875,559.3906 53.25,559.3906 Q52.4844,559.3906 51.8438,559.7188 Q51.2188,560.0469 50.7188,560.7969 Q50.2344,561.5469 50.2344,562.5781 L50.2344,563.6719 Q50.2344,564.9063 51.125,565.7344 Q52.0156,566.5469 53.6094,566.5469 Q54.5469,566.5469 55.2031,566.2969 Q55.5938,566.1406 56.0156,565.7031 Q56.2813,565.4375 56.4219,565.3594 Q56.5781,565.2813 56.7813,565.2813 Q57.1094,565.2813 57.3594,565.5469 Q57.625,565.7969 57.625,566.1406 Q57.625,566.4844 57.2813,566.8906 Q56.7813,567.4688 55.9844,567.7969 Q54.9063,568.25 53.6094,568.25 Q52.0938,568.25 50.8906,567.625 Q49.9063,567.125 49.2188,566.0625 Q48.5313,564.9844 48.5313,563.7031 L48.5313,562.5469 Q48.5313,561.2188 49.1406,560.0781 Q49.7656,558.9219 50.8594,558.3125 Q51.9531,557.6875 53.1875,557.6875 Q53.9219,557.6875 54.5625,557.8594 Q55.2188,558.0156 55.7656,558.375 Z " fill="#000000"/><text fill="#000000" font-family="sans-serif" font-size="14" lengthAdjust="spacing" textLength="158" x="67" y="568.2969">AuthenticationRepository</text><line style="stroke:#181818;stroke-width:0.5;" x1="39" x2="227" y1="578.5" y2="578.5"/><line style="stroke:#181818;stroke-width:0.5;" x1="39" x2="227" y1="586.5" y2="586.5"/><text fill="#000000" font-family="sans-serif" font-size="14" lengthAdjust="spacing" textLength="165" x="44" y="605.6074">+getCurrentUserSession()</text></g><!--class UserSession--><g id="elem_UserSession"><rect codeLine="30" fill="#F1F1F1" height="66.6211" id="UserSession" rx="2.5" ry="2.5" style="stroke:#181818;stroke-width:0.5;" width="111" x="77.5" y="739"/><ellipse cx="92.5" cy="755" fill="#ADD1B2" rx="11" ry="11" style="stroke:#181818;stroke-width:1.0;"/><path d="M95.2656,750.875 Q95.4219,750.6563 95.6094,750.5469 Q95.7969,750.4375 96.0156,750.4375 Q96.3906,750.4375 96.625,750.7031 Q96.8594,750.9531 96.8594,751.5625 L96.8594,753.0156 Q96.8594,753.625 96.625,753.8906 Q96.3906,754.1563 96.0156,754.1563 Q95.6719,754.1563 95.4688,753.9531 Q95.2656,753.7656 95.1563,753.25 Q95.1094,752.8906 94.9219,752.7031 Q94.5938,752.3281 93.9844,752.1094 Q93.375,751.8906 92.75,751.8906 Q91.9844,751.8906 91.3438,752.2188 Q90.7188,752.5469 90.2188,753.2969 Q89.7344,754.0469 89.7344,755.0781 L89.7344,756.1719 Q89.7344,757.4063 90.625,758.2344 Q91.5156,759.0469 93.1094,759.0469 Q94.0469,759.0469 94.7031,758.7969 Q95.0938,758.6406 95.5156,758.2031 Q95.7813,757.9375 95.9219,757.8594 Q96.0781,757.7813 96.2813,757.7813 Q96.6094,757.7813 96.8594,758.0469 Q97.125,758.2969 97.125,758.6406 Q97.125,758.9844 96.7813,759.3906 Q96.2813,759.9688 95.4844,760.2969 Q94.4063,760.75 93.1094,760.75 Q91.5938,760.75 90.3906,760.125 Q89.4063,759.625 88.7188,758.5625 Q88.0313,757.4844 88.0313,756.2031 L88.0313,755.0469 Q88.0313,753.7188 88.6406,752.5781 Q89.2656,751.4219 90.3594,750.8125 Q91.4531,750.1875 92.6875,750.1875 Q93.4219,750.1875 94.0625,750.3594 Q94.7188,750.5156 95.2656,750.875 Z " fill="#000000"/><text fill="#000000" font-family="sans-serif" font-size="14" lengthAdjust="spacing" textLength="79" x="106.5" y="760.7969">UserSession</text><line style="stroke:#181818;stroke-width:0.5;" x1="78.5" x2="187.5" y1="771" y2="771"/><line style="stroke:#181818;stroke-width:0.5;" x1="78.5" x2="187.5" y1="779" y2="779"/><text fill="#000000" font-family="sans-serif" font-size="14" lengthAdjust="spacing" textLength="78" x="83.5" y="798.1074">+getUserId()</text></g><!--class EntryMapper--><g id="elem_EntryMapper"><rect codeLine="34" fill="#F1F1F1" height="85.2422" id="EntryMapper" rx="2.5" ry="2.5" style="stroke:#181818;stroke-width:0.5;" width="159" x="605.5" y="354.5"/><ellipse cx="641.2" cy="370.5" fill="#ADD1B2" rx="11" ry="11" style="stroke:#181818;stroke-width:1.0;"/><path d="M643.9656,366.375 Q644.1219,366.1563 644.3094,366.0469 Q644.4969,365.9375 644.7156,365.9375 Q645.0906,365.9375 645.325,366.2031 Q645.5594,366.4531 645.5594,367.0625 L645.5594,368.5156 Q645.5594,369.125 645.325,369.3906 Q645.0906,369.6563 644.7156,369.6563 Q644.3719,369.6563 644.1688,369.4531 Q643.9656,369.2656 643.8563,368.75 Q643.8094,368.3906 643.6219,368.2031 Q643.2938,367.8281 642.6844,367.6094 Q642.075,367.3906 641.45,367.3906 Q640.6844,367.3906 640.0438,367.7188 Q639.4188,368.0469 638.9188,368.7969 Q638.4344,369.5469 638.4344,370.5781 L638.4344,371.6719 Q638.4344,372.9063 639.325,373.7344 Q640.2156,374.5469 641.8094,374.5469 Q642.7469,374.5469 643.4031,374.2969 Q643.7938,374.1406 644.2156,373.7031 Q644.4813,373.4375 644.6219,373.3594 Q644.7781,373.2813 644.9813,373.2813 Q645.3094,373.2813 645.5594,373.5469 Q645.825,373.7969 645.825,374.1406 Q645.825,374.4844 645.4813,374.8906 Q644.9813,375.4688 644.1844,375.7969 Q643.1063,376.25 641.8094,376.25 Q640.2938,376.25 639.0906,375.625 Q638.1063,375.125 637.4188,374.0625 Q636.7313,372.9844 636.7313,371.7031 L636.7313,370.5469 Q636.7313,369.2188 637.3406,368.0781 Q637.9656,366.9219 639.0594,366.3125 Q640.1531,365.6875 641.3875,365.6875 Q642.1219,365.6875 642.7625,365.8594 Q643.4188,366.0156 643.9656,366.375 Z " fill="#000000"/><text fill="#000000" font-family="sans-serif" font-size="14" lengthAdjust="spacing" textLength="81" x="659.8" y="376.2969">EntryMapper</text><line style="stroke:#181818;stroke-width:0.5;" x1="606.5" x2="763.5" y1="386.5" y2="386.5"/><line style="stroke:#181818;stroke-width:0.5;" x1="606.5" x2="763.5" y1="394.5" y2="394.5"/><text fill="#000000" font-family="sans-serif" font-size="14" lengthAdjust="spacing" textLength="147" x="611.5" y="413.6074">+toDTOList(entriesList)</text><text fill="#000000" font-family="sans-serif" font-size="14" lengthAdjust="spacing" textLength="129" x="611.5" y="432.2285">+entryToDTO(entry)</text></g><!--class EntryDTO--><g id="elem_EntryDTO"><rect codeLine="39" fill="#F1F1F1" height="122.4844" id="EntryDTO" rx="2.5" ry="2.5" style="stroke:#181818;stroke-width:0.5;" width="204" x="583" y="519"/><ellipse cx="649.25" cy="535" fill="#ADD1B2" rx="11" ry="11" style="stroke:#181818;stroke-width:1.0;"/><path d="M652.0156,530.875 Q652.1719,530.6563 652.3594,530.5469 Q652.5469,530.4375 652.7656,530.4375 Q653.1406,530.4375 653.375,530.7031 Q653.6094,530.9531 653.6094,531.5625 L653.6094,533.0156 Q653.6094,533.625 653.375,533.8906 Q653.1406,534.1563 652.7656,534.1563 Q652.4219,534.1563 652.2188,533.9531 Q652.0156,533.7656 651.9063,533.25 Q651.8594,532.8906 651.6719,532.7031 Q651.3438,532.3281 650.7344,532.1094 Q650.125,531.8906 649.5,531.8906 Q648.7344,531.8906 648.0938,532.2188 Q647.4688,532.5469 646.9688,533.2969 Q646.4844,534.0469 646.4844,535.0781 L646.4844,536.1719 Q646.4844,537.4063 647.375,538.2344 Q648.2656,539.0469 649.8594,539.0469 Q650.7969,539.0469 651.4531,538.7969 Q651.8438,538.6406 652.2656,538.2031 Q652.5313,537.9375 652.6719,537.8594 Q652.8281,537.7813 653.0313,537.7813 Q653.3594,537.7813 653.6094,538.0469 Q653.875,538.2969 653.875,538.6406 Q653.875,538.9844 653.5313,539.3906 Q653.0313,539.9688 652.2344,540.2969 Q651.1563,540.75 649.8594,540.75 Q648.3438,540.75 647.1406,540.125 Q646.1563,539.625 645.4688,538.5625 Q644.7813,537.4844 644.7813,536.2031 L644.7813,535.0469 Q644.7813,533.7188 645.3906,532.5781 Q646.0156,531.4219 647.1094,530.8125 Q648.2031,530.1875 649.4375,530.1875 Q650.1719,530.1875 650.8125,530.3594 Q651.4688,530.5156 652.0156,530.875 Z " fill="#000000"/><text fill="#000000" font-family="sans-serif" font-size="14" lengthAdjust="spacing" textLength="63" x="669.75" y="540.7969">EntryDTO</text><line style="stroke:#181818;stroke-width:0.5;" x1="584" x2="786" y1="551" y2="551"/><text fill="#000000" font-family="sans-serif" font-size="14" lengthAdjust="spacing" textLength="116" x="589" y="570.1074">-Date startingDate</text><text fill="#000000" font-family="sans-serif" font-size="14" lengthAdjust="spacing" textLength="66" x="589" y="588.7285">-Task task</text><text fill="#000000" font-family="sans-serif" font-size="14" lengthAdjust="spacing" textLength="136" x="589" y="607.3496">-AgendaStatus status</text><line style="stroke:#181818;stroke-width:0.5;" x1="584" x2="786" y1="614.8633" y2="614.8633"/><text fill="#000000" font-family="sans-serif" font-size="14" lengthAdjust="spacing" textLength="192" x="589" y="633.9707">+EntryDTO(startingDate, task)</text></g><!--class Agenda--><g id="elem_Agenda"><rect codeLine="46" fill="#F1F1F1" height="122.4844" id="Agenda" rx="2.5" ry="2.5" style="stroke:#181818;stroke-width:0.5;" width="212" x="287" y="519"/><ellipse cx="364.25" cy="535" fill="#ADD1B2" rx="11" ry="11" style="stroke:#181818;stroke-width:1.0;"/><path d="M367.0156,530.875 Q367.1719,530.6563 367.3594,530.5469 Q367.5469,530.4375 367.7656,530.4375 Q368.1406,530.4375 368.375,530.7031 Q368.6094,530.9531 368.6094,531.5625 L368.6094,533.0156 Q368.6094,533.625 368.375,533.8906 Q368.1406,534.1563 367.7656,534.1563 Q367.4219,534.1563 367.2188,533.9531 Q367.0156,533.7656 366.9063,533.25 Q366.8594,532.8906 366.6719,532.7031 Q366.3438,532.3281 365.7344,532.1094 Q365.125,531.8906 364.5,531.8906 Q363.7344,531.8906 363.0938,532.2188 Q362.4688,532.5469 361.9688,533.2969 Q361.4844,534.0469 361.4844,535.0781 L361.4844,536.1719 Q361.4844,537.4063 362.375,538.2344 Q363.2656,539.0469 364.8594,539.0469 Q365.7969,539.0469 366.4531,538.7969 Q366.8438,538.6406 367.2656,538.2031 Q367.5313,537.9375 367.6719,537.8594 Q367.8281,537.7813 368.0313,537.7813 Q368.3594,537.7813 368.6094,538.0469 Q368.875,538.2969 368.875,538.6406 Q368.875,538.9844 368.5313,539.3906 Q368.0313,539.9688 367.2344,540.2969 Q366.1563,540.75 364.8594,540.75 Q363.3438,540.75 362.1406,540.125 Q361.1563,539.625 360.4688,538.5625 Q359.7813,537.4844 359.7813,536.2031 L359.7813,535.0469 Q359.7813,533.7188 360.3906,532.5781 Q361.0156,531.4219 362.1094,530.8125 Q363.2031,530.1875 364.4375,530.1875 Q365.1719,530.1875 365.8125,530.3594 Q366.4688,530.5156 367.0156,530.875 Z " fill="#000000"/><text fill="#000000" font-family="sans-serif" font-size="14" lengthAdjust="spacing" textLength="49" x="384.75" y="540.7969">Agenda</text><line style="stroke:#181818;stroke-width:0.5;" x1="288" x2="498" y1="551" y2="551"/><line style="stroke:#181818;stroke-width:0.5;" x1="288" x2="498" y1="559" y2="559"/><text fill="#000000" font-family="sans-serif" font-size="14" lengthAdjust="spacing" textLength="129" x="293" y="578.1074">-validateEntry(entry)</text><text fill="#000000" font-family="sans-serif" font-size="14" lengthAdjust="spacing" textLength="200" x="293" y="596.7285">-verifyCollaborator(email, entry)</text><text fill="#000000" font-family="sans-serif" font-size="14" lengthAdjust="spacing" textLength="104" x="293" y="615.3496">+getEntriesList()</text><text fill="#000000" font-family="sans-serif" font-size="14" lengthAdjust="spacing" textLength="181" x="293" y="633.9707">+completeEntry(entry, email)</text></g><!--class Entry--><g id="elem_Entry"><rect codeLine="53" fill="#F1F1F1" height="141.1055" id="Entry" rx="2.5" ry="2.5" style="stroke:#181818;stroke-width:0.5;" width="174" x="306" y="702"/><ellipse cx="372.25" cy="718" fill="#ADD1B2" rx="11" ry="11" style="stroke:#181818;stroke-width:1.0;"/><path d="M375.0156,713.875 Q375.1719,713.6563 375.3594,713.5469 Q375.5469,713.4375 375.7656,713.4375 Q376.1406,713.4375 376.375,713.7031 Q376.6094,713.9531 376.6094,714.5625 L376.6094,716.0156 Q376.6094,716.625 376.375,716.8906 Q376.1406,717.1563 375.7656,717.1563 Q375.4219,717.1563 375.2188,716.9531 Q375.0156,716.7656 374.9063,716.25 Q374.8594,715.8906 374.6719,715.7031 Q374.3438,715.3281 373.7344,715.1094 Q373.125,714.8906 372.5,714.8906 Q371.7344,714.8906 371.0938,715.2188 Q370.4688,715.5469 369.9688,716.2969 Q369.4844,717.0469 369.4844,718.0781 L369.4844,719.1719 Q369.4844,720.4063 370.375,721.2344 Q371.2656,722.0469 372.8594,722.0469 Q373.7969,722.0469 374.4531,721.7969 Q374.8438,721.6406 375.2656,721.2031 Q375.5313,720.9375 375.6719,720.8594 Q375.8281,720.7813 376.0313,720.7813 Q376.3594,720.7813 376.6094,721.0469 Q376.875,721.2969 376.875,721.6406 Q376.875,721.9844 376.5313,722.3906 Q376.0313,722.9688 375.2344,723.2969 Q374.1563,723.75 372.8594,723.75 Q371.3438,723.75 370.1406,723.125 Q369.1563,722.625 368.4688,721.5625 Q367.7813,720.4844 367.7813,719.2031 L367.7813,718.0469 Q367.7813,716.7188 368.3906,715.5781 Q369.0156,714.4219 370.1094,713.8125 Q371.2031,713.1875 372.4375,713.1875 Q373.1719,713.1875 373.8125,713.3594 Q374.4688,713.5156 375.0156,713.875 Z " fill="#000000"/><text fill="#000000" font-family="sans-serif" font-size="14" lengthAdjust="spacing" textLength="33" x="392.75" y="723.7969">Entry</text><line style="stroke:#181818;stroke-width:0.5;" x1="307" x2="479" y1="734" y2="734"/><text fill="#000000" font-family="sans-serif" font-size="14" lengthAdjust="spacing" textLength="116" x="312" y="753.1074">-Date startingDate</text><text fill="#000000" font-family="sans-serif" font-size="14" lengthAdjust="spacing" textLength="66" x="312" y="771.7285">-Task task</text><text fill="#000000" font-family="sans-serif" font-size="14" lengthAdjust="spacing" textLength="136" x="312" y="790.3496">-AgendaStatus status</text><line style="stroke:#181818;stroke-width:0.5;" x1="307" x2="479" y1="797.8633" y2="797.8633"/><text fill="#000000" font-family="sans-serif" font-size="14" lengthAdjust="spacing" textLength="143" x="312" y="816.9707">+changeStatus(status)</text><text fill="#000000" font-family="sans-serif" font-size="14" lengthAdjust="spacing" textLength="162" x="312" y="835.5918">+Entry(startingDate, task)</text></g><!--class AgendaStatus--><g id="elem_AgendaStatus"><rect codeLine="61" fill="#F1F1F1" height="122.4844" id="AgendaStatus" rx="2.5" ry="2.5" style="stroke:#181818;stroke-width:0.5;" width="121" x="332.5" y="904"/><ellipse cx="347.5" cy="920" fill="#EB937F" rx="11" ry="11" style="stroke:#181818;stroke-width:1.0;"/><path d="M346.3594,920.7969 L346.3594,923.2969 L350.6875,923.2969 L350.6875,922.375 Q350.6875,921.7656 350.9219,921.5 Q351.1719,921.2344 351.5469,921.2344 Q351.9219,921.2344 352.1563,921.5 Q352.3906,921.7656 352.3906,922.375 L352.3906,925 L344.3906,925 Q343.7656,925 343.5,924.7656 Q343.25,924.5313 343.25,924.1406 Q343.25,923.7656 343.5156,923.5313 Q343.7813,923.2969 344.3906,923.2969 L344.6563,923.2969 L344.6563,916.6406 L344.3906,916.6406 Q343.7656,916.6406 343.5,916.4063 Q343.25,916.1719 343.25,915.7813 Q343.25,915.4063 343.5,915.1719 Q343.7656,914.9375 344.3906,914.9375 L352.0156,914.9375 L352.0156,917.5313 Q352.0156,918.1406 351.7813,918.4063 Q351.5625,918.6563 351.1719,918.6563 Q350.7969,918.6563 350.5625,918.4063 Q350.3281,918.1406 350.3281,917.5313 L350.3281,916.6406 L346.3594,916.6406 L346.3594,919.0938 L347.8438,919.0938 Q347.8438,918.4375 347.9688,918.25 Q348.2344,917.8438 348.7031,917.8438 Q349.0781,917.8438 349.3125,918.1094 Q349.5469,918.3594 349.5469,918.9688 L349.5469,920.9375 Q349.5469,921.4844 349.4219,921.6719 Q349.1563,922.0625 348.7031,922.0625 Q348.2344,922.0625 347.9688,921.6563 Q347.8438,921.4688 347.8438,920.7969 L346.3594,920.7969 Z " fill="#000000"/><text fill="#000000" font-family="sans-serif" font-size="14" lengthAdjust="spacing" textLength="89" x="361.5" y="925.7969">AgendaStatus</text><line style="stroke:#181818;stroke-width:0.5;" x1="333.5" x2="452.5" y1="936" y2="936"/><text fill="#000000" font-family="sans-serif" font-size="14" lengthAdjust="spacing" textLength="63" x="338.5" y="955.1074">PLANNED</text><text fill="#000000" font-family="sans-serif" font-size="14" lengthAdjust="spacing" textLength="86" x="338.5" y="973.7285">POSTPONED</text><text fill="#000000" font-family="sans-serif" font-size="14" lengthAdjust="spacing" textLength="74" x="338.5" y="992.3496">CANCELED</text><text fill="#000000" font-family="sans-serif" font-size="14" lengthAdjust="spacing" textLength="39" x="338.5" y="1010.9707">DONE</text><line style="stroke:#181818;stroke-width:0.5;" x1="333.5" x2="452.5" y1="1018.4844" y2="1018.4844"/></g><!--link CompleteEntryAgendaUI to CompleteEntryAgendaController--><g id="link_CompleteEntryAgendaUI_CompleteEntryAgendaController"><path codeLine="68" d="M462,55.31 C462,71.5 462,87.98 462,109.71 " fill="none" id="CompleteEntryAgendaUI-to-CompleteEntryAgendaController" style="stroke:#181818;stroke-width:1.0;stroke-dasharray:7.0,7.0;"/><polygon fill="#181818" points="462,115.71,466,106.71,462,110.71,458,106.71,462,115.71" style="stroke:#181818;stroke-width:1.0;"/></g><!--link CompleteEntryAgendaController to Repositories--><g id="link_CompleteEntryAgendaController_Repositories"><path codeLine="69" d="M398.8,257.22 C375.73,282.67 353.8803,306.7751 331.6203,331.3251 " fill="none" id="CompleteEntryAgendaController-to-Repositories" style="stroke:#181818;stroke-width:1.0;stroke-dasharray:7.0,7.0;"/><polygon fill="#181818" points="327.59,335.77,336.5987,331.7895,330.9486,332.0659,330.6721,326.4158,327.59,335.77" style="stroke:#181818;stroke-width:1.0;"/><text fill="#000000" font-family="sans-serif" font-size="13" lengthAdjust="spacing" textLength="67" x="369" y="302.0283">repositories</text></g><!--link CompleteEntryAgendaController to AuthenticationRepository--><g id="link_CompleteEntryAgendaController_AuthenticationRepository"><path codeLine="70" d="M248.35,257.08 C129.78,295.69 6,336 6,336 C6,336 6,458 6,458 C6,458 56.6764,506.2808 94.2864,542.1208 " fill="none" id="CompleteEntryAgendaController-to-AuthenticationRepository" style="stroke:#181818;stroke-width:1.0;stroke-dasharray:7.0,7.0;"/><polygon fill="#181818" points="98.63,546.26,94.874,537.1555,95.0103,542.8107,89.3551,542.9469,98.63,546.26" style="stroke:#181818;stroke-width:1.0;"/><text fill="#000000" font-family="sans-serif" font-size="13" lengthAdjust="spacing" textLength="143" x="7" y="402.5283">authenticationRepository</text></g><!--link CompleteEntryAgendaController to Agenda--><g id="link_CompleteEntryAgendaController_Agenda"><path codeLine="71" d="M467.18,257.4 C470.03,295.92 473,336 473,336 C473,336 473,458 473,458 C473,458 456.1488,483.4848 436.0788,513.8448 " fill="none" id="CompleteEntryAgendaController-to-Agenda" style="stroke:#181818;stroke-width:1.0;stroke-dasharray:7.0,7.0;"/><polygon fill="#181818" points="432.77,518.85,441.07,513.548,435.5273,514.679,434.3964,509.1364,432.77,518.85" style="stroke:#181818;stroke-width:1.0;"/><text fill="#000000" font-family="sans-serif" font-size="13" lengthAdjust="spacing" textLength="42" x="474" y="402.5283">agenda</text></g><!--link Repositories to Repositories--><g id="link_Repositories_Repositories"><path codeLine="72" d="M377.26,380.88 C397.58,382.75 412,388.12 412,397 C412,405.88 403.5548,410.7002 383.2348,412.5702 " fill="none" id="Repositories-to-Repositories" style="stroke:#181818;stroke-width:1.0;"/><polygon fill="#181818" points="377.26,413.12,386.5887,416.2784,382.239,412.6618,385.8556,408.3121,377.26,413.12" style="stroke:#181818;stroke-width:1.0;"/><text fill="#000000" font-family="sans-serif" font-size="13" lengthAdjust="spacing" textLength="49" x="418" y="402.5283">instance</text></g><!--link Repositories to Agenda--><g id="link_Repositories_Agenda"><path codeLine="73" d="M312.79,458.02 C325.75,477.57 336.8242,494.2695 349.7942,513.8295 " fill="none" id="Repositories-to-Agenda" style="stroke:#181818;stroke-width:1.0;"/><polygon fill="#181818" points="353.11,518.83,351.47,509.1186,350.3468,514.6629,344.8026,513.5397,353.11,518.83" style="stroke:#181818;stroke-width:1.0;"/><text fill="#000000" font-family="sans-serif" font-size="13" lengthAdjust="spacing" textLength="7" x="341.093" y="507.7915">1</text></g><!--link Repositories to AuthenticationRepository--><g id="link_Repositories_AuthenticationRepository"><path codeLine="74" d="M226.58,458.02 C203.81,487.45 180.9498,517.0032 161.9698,541.5532 " fill="none" id="Repositories-to-AuthenticationRepository" style="stroke:#181818;stroke-width:1.0;"/><polygon fill="#181818" points="158.3,546.3,166.9693,541.6263,161.3582,542.3443,160.6402,536.7332,158.3,546.3" style="stroke:#181818;stroke-width:1.0;"/><text fill="#000000" font-family="sans-serif" font-size="13" lengthAdjust="spacing" textLength="7" x="155.4556" y="535.3478">1</text></g><!--link AuthenticationRepository to UserSession--><g id="link_AuthenticationRepository_UserSession"><path codeLine="75" d="M133,613.75 C133,648.75 133,697.9 133,732.86 " fill="none" id="AuthenticationRepository-to-UserSession" style="stroke:#181818;stroke-width:1.0;stroke-dasharray:7.0,7.0;"/><polygon fill="#181818" points="133,738.86,137,729.86,133,733.86,129,729.86,133,738.86" style="stroke:#181818;stroke-width:1.0;"/></g><!--link CompleteEntryAgendaController to EntryMapper--><g id="link_CompleteEntryAgendaController_EntryMapper"><path codeLine="76" d="M536.57,257.22 C571.01,289.42 606.368,322.4715 636.048,350.2315 " fill="none" id="CompleteEntryAgendaController-to-EntryMapper" style="stroke:#181818;stroke-width:1.0;stroke-dasharray:7.0,7.0;"/><polygon fill="#181818" points="640.43,354.33,636.5893,345.2609,636.7783,350.9146,631.1246,351.1035,640.43,354.33" style="stroke:#181818;stroke-width:1.0;"/></g><!--link EntryMapper to EntryDTO--><g id="link_EntryMapper_EntryDTO"><path codeLine="77" d="M685,439.53 C685,463.01 685,486.79 685,512.79 " fill="none" id="EntryMapper-to-EntryDTO" style="stroke:#181818;stroke-width:1.0;stroke-dasharray:7.0,7.0;"/><polygon fill="#181818" points="685,518.79,689,509.79,685,513.79,681,509.79,685,518.79" style="stroke:#181818;stroke-width:1.0;"/></g><!--link Agenda to Entry--><g id="link_Agenda_Entry"><path codeLine="78" d="M393,641.01 C393,660.32 393,675.87 393,695.81 " fill="none" id="Agenda-to-Entry" style="stroke:#181818;stroke-width:1.0;"/><polygon fill="#181818" points="393,701.81,397,692.81,393,696.81,389,692.81,393,701.81" style="stroke:#181818;stroke-width:1.0;"/><text fill="#000000" font-family="sans-serif" font-size="13" lengthAdjust="spacing" textLength="5" x="387.7422" y="690.6814">*</text></g><!--link Entry to AgendaStatus--><g id="link_Entry_AgendaStatus"><path codeLine="79" d="M393,843.08 C393,862.96 393,878.45 393,897.72 " fill="none" id="Entry-to-AgendaStatus" style="stroke:#181818;stroke-width:1.0;"/><polygon fill="#181818" points="393,903.72,397,894.72,393,898.72,389,894.72,393,903.72" style="stroke:#181818;stroke-width:1.0;"/><text fill="#000000" font-family="sans-serif" font-size="13" lengthAdjust="spacing" textLength="7" x="385.5953" y="892.6688">1</text></g><!--SRC=[hLJ1Zjem4BtxAonEeOLLU-LGYGrKYaHXLTWFc0spO67io7RQfgZ_NjiJWg4DtKCv9F6yDyzlnXxiGQWA31nv1UK1ThXsZKHki7IWTXAPxGXs3rlzNQWTVmLfKqGAXQwfa5TQDc71M8AM4goTEcV4I-smABLQYv_8Fp0M4PxhOoNHuLmvqqntgBRmN9n-tO5pxR-rb6XEZFlV-xkS369WnA5sUrHEbE24Lb-nqbOuRPeXYPIWIfHH8iFmBDGMVxJW3br01Dg5i6wsMMK4Z5kWUIHw9Yv94Jk2aBdt0I_QWD_jiz77DLhh7NW9rfNPsV5RK5NZD9HTV1JAkc0r6_B9LLh7e0uaATEUoZsbCz37uQTE9g-DyPHdY-PIGYUGX9ES42ssAI-swmjK5PeppsdVqT3OsFYsoQtzU1IRGA1JkLNoG2ipde53xfjZdB-bOK7X3TW3T_v1I-hEse6hRM3x5-rqbijIYL7CJFiKqziTlu4KMsWltjaV8MZ4QvEUV8RXBenumhgvLkSJAzFhJAe-BMJV5lz_2Y_tVjQHW8o0OTAIldwWge_yIfJiF2sco-LyHj-hzUPfTLxbqsK-NxIBcGy7cR_EFtzu-7H_zDbTDEQdm-5dnQIpyk_ite6OzFwJl4Kr1hr4VBChY-FnjUS95-si_yaRV1oqMZrOdyNUieAxP8RVK4iooIoTwWxpmyGeatoz6r2Ss3Trq1rYx3S0]--></g></svg>