<?xml version="1.0" encoding="us-ascii" standalone="no"?><svg xmlns="http://www.w3.org/2000/svg" xmlns:xlink="http://www.w3.org/1999/xlink" contentStyleType="text/css" height="700px" preserveAspectRatio="none" style="width:903px;height:700px;background:#FFFFFF;" version="1.1" viewBox="0 0 903 700" width="903px" zoomAndPan="magnify"><defs/><g><rect fill="#FFFFFF" height="535.6074" style="stroke:#181818;stroke-width:1.0;" width="10" x="123" y="90.5332"/><rect fill="#FFFFFF" height="31.291" style="stroke:#181818;stroke-width:1.0;" width="10" x="268" y="148.1152"/><rect fill="#FFFFFF" height="31.291" style="stroke:#181818;stroke-width:1.0;" width="10" x="375" y="210.6973"/><rect fill="#FFFFFF" height="31.291" style="stroke:#181818;stroke-width:1.0;" width="10" x="466.5" y="273.2793"/><rect fill="#FFFFFF" height="251.9883" style="stroke:#181818;stroke-width:1.0;" width="10" x="559" y="335.8613"/><rect fill="#FFFFFF" height="31.291" style="stroke:#181818;stroke-width:1.0;" width="10" x="716" y="455.6855"/><rect fill="#FFFFFF" height="38.291" style="stroke:#181818;stroke-width:1.0;" width="10" x="817.5" y="518.2676"/><rect fill="none" height="490.3164" style="stroke:#000000;stroke-width:1.5;" width="866" x="31.5" y="105.5332"/><rect fill="none" height="113.1641" style="stroke:#000000;stroke-width:1.5;" width="383" x="504.5" y="413.1035"/><line style="stroke:#181818;stroke-width:0.5;stroke-dasharray:5.0,5.0;" x1="127.5" x2="127.5" y1="57.2422" y2="644.1406"/><line style="stroke:#181818;stroke-width:0.5;stroke-dasharray:5.0,5.0;" x1="272.5" x2="272.5" y1="57.2422" y2="644.1406"/><line style="stroke:#181818;stroke-width:0.5;stroke-dasharray:5.0,5.0;" x1="379.5" x2="379.5" y1="57.2422" y2="644.1406"/><line style="stroke:#181818;stroke-width:0.5;stroke-dasharray:5.0,5.0;" x1="471.5" x2="471.5" y1="57.2422" y2="644.1406"/><line style="stroke:#181818;stroke-width:0.5;stroke-dasharray:5.0,5.0;" x1="563.5" x2="563.5" y1="57.2422" y2="644.1406"/><line style="stroke:#181818;stroke-width:0.5;stroke-dasharray:5.0,5.0;" x1="720.5" x2="720.5" y1="57.2422" y2="644.1406"/><line style="stroke:#181818;stroke-width:0.5;stroke-dasharray:5.0,5.0;" x1="822.5" x2="822.5" y1="384.9824" y2="644.1406"/><rect fill="#E3E3E3" height="32.6211" rx="2.5" ry="2.5" style="stroke:#181818;stroke-width:0.5;" width="173" x="41.5" y="23.6211"/><text fill="#000000" font-family="sans-serif" font-size="14" lengthAdjust="spacing" textLength="159" x="48.5" y="45.7285">:CompleteEntryController</text><rect fill="#E3E3E3" height="32.6211" rx="2.5" ry="2.5" style="stroke:#181818;stroke-width:0.5;" width="173" x="41.5" y="643.1406"/><text fill="#000000" font-family="sans-serif" font-size="14" lengthAdjust="spacing" textLength="159" x="48.5" y="665.248">:CompleteEntryController</text><rect fill="#E3E3E3" height="32.6211" rx="2.5" ry="2.5" style="stroke:#181818;stroke-width:0.5;" width="97" x="224.5" y="23.6211"/><text fill="#000000" font-family="sans-serif" font-size="14" lengthAdjust="spacing" textLength="83" x="231.5" y="45.7285">:Repositories</text><rect fill="#E3E3E3" height="32.6211" rx="2.5" ry="2.5" style="stroke:#181818;stroke-width:0.5;" width="97" x="224.5" y="643.1406"/><text fill="#000000" font-family="sans-serif" font-size="14" lengthAdjust="spacing" textLength="83" x="231.5" y="665.248">:Repositories</text><rect fill="#E3E3E3" height="51.2422" rx="2.5" ry="2.5" style="stroke:#181818;stroke-width:0.5;" width="97" x="331.5" y="5"/><text fill="#000000" font-family="sans-serif" font-size="14" lengthAdjust="spacing" textLength="74" x="343" y="27.1074">repositories</text><text fill="#000000" font-family="sans-serif" font-size="14" lengthAdjust="spacing" textLength="83" x="338.5" y="45.7285">:Repositories</text><rect fill="#E3E3E3" height="51.2422" rx="2.5" ry="2.5" style="stroke:#181818;stroke-width:0.5;" width="97" x="331.5" y="643.1406"/><text fill="#000000" font-family="sans-serif" font-size="14" lengthAdjust="spacing" textLength="74" x="343" y="665.248">repositories</text><text fill="#000000" font-family="sans-serif" font-size="14" lengthAdjust="spacing" textLength="83" x="338.5" y="683.8691">:Repositories</text><rect fill="#E3E3E3" height="51.2422" rx="2.5" ry="2.5" style="stroke:#181818;stroke-width:0.5;" width="66" x="438.5" y="5"/><text fill="#000000" font-family="sans-serif" font-size="14" lengthAdjust="spacing" textLength="52" x="445.5" y="27.1074">agenda:</text><text fill="#000000" font-family="sans-serif" font-size="14" lengthAdjust="spacing" textLength="49" x="447" y="45.7285">Agenda</text><rect fill="#E3E3E3" height="51.2422" rx="2.5" ry="2.5" style="stroke:#181818;stroke-width:0.5;" width="66" x="438.5" y="643.1406"/><text fill="#000000" font-family="sans-serif" font-size="14" lengthAdjust="spacing" textLength="52" x="445.5" y="665.248">agenda:</text><text fill="#000000" font-family="sans-serif" font-size="14" lengthAdjust="spacing" textLength="49" x="447" y="683.8691">Agenda</text><rect fill="#E3E3E3" height="32.6211" rx="2.5" ry="2.5" style="stroke:#181818;stroke-width:0.5;" width="99" x="514.5" y="23.6211"/><text fill="#000000" font-family="sans-serif" font-size="14" lengthAdjust="spacing" textLength="85" x="521.5" y="45.7285">:EntryMapper</text><rect fill="#E3E3E3" height="32.6211" rx="2.5" ry="2.5" style="stroke:#181818;stroke-width:0.5;" width="99" x="514.5" y="643.1406"/><text fill="#000000" font-family="sans-serif" font-size="14" lengthAdjust="spacing" textLength="85" x="521.5" y="665.248">:EntryMapper</text><rect fill="#E3E3E3" height="51.2422" rx="2.5" ry="2.5" style="stroke:#181818;stroke-width:0.5;" width="73" x="684.5" y="5"/><text fill="#000000" font-family="sans-serif" font-size="14" lengthAdjust="spacing" textLength="54" x="694" y="27.1074">entryDto</text><text fill="#000000" font-family="sans-serif" font-size="14" lengthAdjust="spacing" textLength="59" x="691.5" y="45.7285">:EntryDto</text><rect fill="#E3E3E3" height="51.2422" rx="2.5" ry="2.5" style="stroke:#181818;stroke-width:0.5;" width="73" x="684.5" y="643.1406"/><text fill="#000000" font-family="sans-serif" font-size="14" lengthAdjust="spacing" textLength="54" x="694" y="665.248">entryDto</text><text fill="#000000" font-family="sans-serif" font-size="14" lengthAdjust="spacing" textLength="59" x="691.5" y="683.8691">:EntryDto</text><rect fill="#E3E3E3" height="51.2422" rx="2.5" ry="2.5" style="stroke:#181818;stroke-width:0.5;" width="110" x="767.5" y="643.1406"/><text fill="#000000" font-family="sans-serif" font-size="14" lengthAdjust="spacing" textLength="76" x="784.5" y="665.248">entryListDto</text><text fill="#000000" font-family="sans-serif" font-size="14" lengthAdjust="spacing" textLength="96" x="774.5" y="683.8691">:List&lt;entryDto&gt;</text><rect fill="#FFFFFF" height="535.6074" style="stroke:#181818;stroke-width:1.0;" width="10" x="123" y="90.5332"/><rect fill="#FFFFFF" height="31.291" style="stroke:#181818;stroke-width:1.0;" width="10" x="268" y="148.1152"/><rect fill="#FFFFFF" height="31.291" style="stroke:#181818;stroke-width:1.0;" width="10" x="375" y="210.6973"/><rect fill="#FFFFFF" height="31.291" style="stroke:#181818;stroke-width:1.0;" width="10" x="466.5" y="273.2793"/><rect fill="#FFFFFF" height="251.9883" style="stroke:#181818;stroke-width:1.0;" width="10" x="559" y="335.8613"/><rect fill="#FFFFFF" height="31.291" style="stroke:#181818;stroke-width:1.0;" width="10" x="716" y="455.6855"/><rect fill="#FFFFFF" height="38.291" style="stroke:#181818;stroke-width:1.0;" width="10" x="817.5" y="518.2676"/><polygon fill="#181818" points="111,86.5332,121,90.5332,111,94.5332,115,90.5332" style="stroke:#181818;stroke-width:1.0;"/><line style="stroke:#181818;stroke-width:1.0;" x1="0" x2="117" y1="90.5332" y2="90.5332"/><text fill="#000000" font-family="sans-serif" font-size="13" font-weight="bold" lengthAdjust="spacing" textLength="7" x="7" y="85.2705">3</text><text fill="#000000" font-family="sans-serif" font-size="13" lengthAdjust="spacing" textLength="93" x="18" y="85.2705">getEntriesDTO()</text><path d="M31.5,105.5332 L196.5,105.5332 L196.5,114.8242 L186.5,124.8242 L31.5,124.8242 L31.5,105.5332 " fill="#EEEEEE" style="stroke:#000000;stroke-width:1.5;"/><rect fill="none" height="490.3164" style="stroke:#000000;stroke-width:1.5;" width="866" x="31.5" y="105.5332"/><text fill="#000000" font-family="sans-serif" font-size="13" font-weight="bold" lengthAdjust="spacing" textLength="120" x="46.5" y="120.5615">Get Entries Dto List</text><polygon fill="#181818" points="256,144.1152,266,148.1152,256,152.1152,260,148.1152" style="stroke:#181818;stroke-width:1.0;"/><line style="stroke:#181818;stroke-width:1.0;" x1="133" x2="262" y1="148.1152" y2="148.1152"/><text fill="#000000" font-family="sans-serif" font-size="13" font-weight="bold" lengthAdjust="spacing" textLength="18" x="140" y="142.8525">3.1</text><text fill="#000000" font-family="sans-serif" font-size="13" lengthAdjust="spacing" textLength="75" x="162" y="142.8525">getInstance()</text><polygon fill="#181818" points="144,175.4063,134,179.4063,144,183.4063,140,179.4063" style="stroke:#181818;stroke-width:1.0;"/><line style="stroke:#181818;stroke-width:1.0;stroke-dasharray:2.0,2.0;" x1="138" x2="272" y1="179.4063" y2="179.4063"/><text fill="#000000" font-family="sans-serif" font-size="13" font-weight="bold" lengthAdjust="spacing" textLength="18" x="150" y="174.1436">3.2</text><text fill="#000000" font-family="sans-serif" font-size="13" lengthAdjust="spacing" textLength="67" x="172" y="174.1436">repositories</text><polygon fill="#181818" points="363,206.6973,373,210.6973,363,214.6973,367,210.6973" style="stroke:#181818;stroke-width:1.0;"/><line style="stroke:#181818;stroke-width:1.0;" x1="133" x2="369" y1="210.6973" y2="210.6973"/><text fill="#000000" font-family="sans-serif" font-size="13" font-weight="bold" lengthAdjust="spacing" textLength="18" x="140" y="205.4346">3.3</text><text fill="#000000" font-family="sans-serif" font-size="13" lengthAdjust="spacing" textLength="70" x="162" y="205.4346">getAgenda()</text><polygon fill="#181818" points="144,237.9883,134,241.9883,144,245.9883,140,241.9883" style="stroke:#181818;stroke-width:1.0;"/><line style="stroke:#181818;stroke-width:1.0;stroke-dasharray:2.0,2.0;" x1="138" x2="379" y1="241.9883" y2="241.9883"/><text fill="#000000" font-family="sans-serif" font-size="13" font-weight="bold" lengthAdjust="spacing" textLength="18" x="150" y="236.7256">3.4</text><text fill="#000000" font-family="sans-serif" font-size="13" lengthAdjust="spacing" textLength="42" x="172" y="236.7256">agenda</text><polygon fill="#181818" points="454.5,269.2793,464.5,273.2793,454.5,277.2793,458.5,273.2793" style="stroke:#181818;stroke-width:1.0;"/><line style="stroke:#181818;stroke-width:1.0;" x1="133" x2="460.5" y1="273.2793" y2="273.2793"/><text fill="#000000" font-family="sans-serif" font-size="13" font-weight="bold" lengthAdjust="spacing" textLength="18" x="140" y="268.0166">3.5</text><text fill="#000000" font-family="sans-serif" font-size="13" lengthAdjust="spacing" textLength="88" x="162" y="268.0166">getEntriesList()</text><polygon fill="#181818" points="144,300.5703,134,304.5703,144,308.5703,140,304.5703" style="stroke:#181818;stroke-width:1.0;"/><line style="stroke:#181818;stroke-width:1.0;stroke-dasharray:2.0,2.0;" x1="138" x2="470.5" y1="304.5703" y2="304.5703"/><text fill="#000000" font-family="sans-serif" font-size="13" font-weight="bold" lengthAdjust="spacing" textLength="18" x="150" y="299.3076">3.6</text><text fill="#000000" font-family="sans-serif" font-size="13" lengthAdjust="spacing" textLength="60" x="172" y="299.3076">entriesList</text><polygon fill="#181818" points="547,331.8613,557,335.8613,547,339.8613,551,335.8613" style="stroke:#181818;stroke-width:1.0;"/><line style="stroke:#181818;stroke-width:1.0;" x1="133" x2="553" y1="335.8613" y2="335.8613"/><text fill="#000000" font-family="sans-serif" font-size="13" font-weight="bold" lengthAdjust="spacing" textLength="18" x="140" y="330.5986">3.7</text><text fill="#000000" font-family="sans-serif" font-size="13" lengthAdjust="spacing" textLength="126" x="162" y="330.5986">toDTOList(entriesList)</text><polygon fill="#181818" points="755.5,363.1523,765.5,367.1523,755.5,371.1523,759.5,367.1523" style="stroke:#181818;stroke-width:1.0;"/><line style="stroke:#181818;stroke-width:1.0;" x1="569" x2="761.5" y1="367.1523" y2="367.1523"/><text fill="#000000" font-family="sans-serif" font-size="13" font-weight="bold" lengthAdjust="spacing" textLength="18" x="576" y="361.8896">3.8</text><text fill="#000000" font-family="sans-serif" font-size="13" lengthAdjust="spacing" textLength="44" x="598" y="361.8896">create()</text><rect fill="#E3E3E3" height="51.2422" rx="2.5" ry="2.5" style="stroke:#181818;stroke-width:0.5;" width="110" x="767.5" y="343.8613"/><text fill="#000000" font-family="sans-serif" font-size="14" lengthAdjust="spacing" textLength="76" x="784.5" y="365.9688">entryListDto</text><text fill="#000000" font-family="sans-serif" font-size="14" lengthAdjust="spacing" textLength="96" x="774.5" y="384.5898">:List&lt;entryDto&gt;</text><path d="M504.5,413.1035 L577.5,413.1035 L577.5,422.3945 L567.5,432.3945 L504.5,432.3945 L504.5,413.1035 " fill="#EEEEEE" style="stroke:#000000;stroke-width:1.5;"/><rect fill="none" height="113.1641" style="stroke:#000000;stroke-width:1.5;" width="383" x="504.5" y="413.1035"/><text fill="#000000" font-family="sans-serif" font-size="13" font-weight="bold" lengthAdjust="spacing" textLength="28" x="519.5" y="428.1318">loop</text><text fill="#000000" font-family="sans-serif" font-size="11" font-weight="bold" lengthAdjust="spacing" textLength="164" x="592.5" y="426.9736">[For each entry in entriesList]</text><polygon fill="#181818" points="704,451.6855,714,455.6855,704,459.6855,708,455.6855" style="stroke:#181818;stroke-width:1.0;"/><line style="stroke:#181818;stroke-width:1.0;" x1="569" x2="710" y1="455.6855" y2="455.6855"/><text fill="#000000" font-family="sans-serif" font-size="13" font-weight="bold" lengthAdjust="spacing" textLength="18" x="576" y="450.4229">3.9</text><text fill="#000000" font-family="sans-serif" font-size="13" lengthAdjust="spacing" textLength="106" x="598" y="450.4229">entryToDTO(entry)</text><polygon fill="#181818" points="580,482.9766,570,486.9766,580,490.9766,576,486.9766" style="stroke:#181818;stroke-width:1.0;"/><line style="stroke:#181818;stroke-width:1.0;stroke-dasharray:2.0,2.0;" x1="574" x2="720" y1="486.9766" y2="486.9766"/><text fill="#000000" font-family="sans-serif" font-size="13" font-weight="bold" lengthAdjust="spacing" textLength="25" x="586" y="481.7139">3.10</text><text fill="#000000" font-family="sans-serif" font-size="13" lengthAdjust="spacing" textLength="49" x="615" y="481.7139">entryDto</text><polygon fill="#181818" points="805.5,514.2676,815.5,518.2676,805.5,522.2676,809.5,518.2676" style="stroke:#181818;stroke-width:1.0;"/><line style="stroke:#181818;stroke-width:1.0;" x1="569" x2="811.5" y1="518.2676" y2="518.2676"/><text fill="#000000" font-family="sans-serif" font-size="13" font-weight="bold" lengthAdjust="spacing" textLength="25" x="576" y="513.0049">3.11</text><text fill="#000000" font-family="sans-serif" font-size="13" lengthAdjust="spacing" textLength="78" x="605" y="513.0049">add(entryDto)</text><polygon fill="#181818" points="580,552.5586,570,556.5586,580,560.5586,576,556.5586" style="stroke:#181818;stroke-width:1.0;"/><line style="stroke:#181818;stroke-width:1.0;stroke-dasharray:2.0,2.0;" x1="574" x2="821.5" y1="556.5586" y2="556.5586"/><text fill="#000000" font-family="sans-serif" font-size="13" font-weight="bold" lengthAdjust="spacing" textLength="25" x="586" y="551.2959">3.12</text><text fill="#000000" font-family="sans-serif" font-size="13" lengthAdjust="spacing" textLength="80" x="615" y="551.2959">entriesListDto</text><polygon fill="#181818" points="144,583.8496,134,587.8496,144,591.8496,140,587.8496" style="stroke:#181818;stroke-width:1.0;"/><line style="stroke:#181818;stroke-width:1.0;stroke-dasharray:2.0,2.0;" x1="138" x2="563" y1="587.8496" y2="587.8496"/><text fill="#000000" font-family="sans-serif" font-size="13" font-weight="bold" lengthAdjust="spacing" textLength="25" x="150" y="582.5869">3.13</text><text fill="#000000" font-family="sans-serif" font-size="13" lengthAdjust="spacing" textLength="80" x="179" y="582.5869">entriesListDto</text><polygon fill="#181818" points="11,622.1406,1,626.1406,11,630.1406,7,626.1406" style="stroke:#181818;stroke-width:1.0;"/><line style="stroke:#181818;stroke-width:1.0;stroke-dasharray:2.0,2.0;" x1="5" x2="127" y1="626.1406" y2="626.1406"/><text fill="#000000" font-family="sans-serif" font-size="13" font-weight="bold" lengthAdjust="spacing" textLength="7" x="17" y="620.8779">4</text><text fill="#000000" font-family="sans-serif" font-size="13" lengthAdjust="spacing" textLength="80" x="28" y="620.8779">entriesListDto</text><!--SRC=[ZLH1Rjim4Bpp5OjScWHmWQ8z2K40mrQ30cbhM3xcmaWRcOZ45IYwhN_V5IdBf2KbuS6GnPdPcULIxQlIZJIoXfeqvNj3DO8r1nJjiDF8_5MMcDbZXM0mjrANLGXezxAWlqgNy2Ah5eMG1qlwK3-Z4UBJNXK8BqJscVu9mGohSjL8RU4gML7TL6WnrTOSLyI_L5Leha2siDfj7o_WMsoeLPQCmjPXjkacXfW0yQGd2LdCu6IwaCcJNhe7Xre-fB_MoulYpkDFsJIzFtJ_bvjDkesHRcDjYUkd_UEPiDxzda0_gjPwHlTqTrAuF_CSWhb1R-6h4B2uTus214gqNJbEohZhcmZu-OkGkLL_f4NVL-1L6Zeqy80MUXvmIUWA2U4qMPlxvQL_w9RFFKSMXc0Dgjr9H3iTSz6xIo0ybmXMuBn4O2BpBlmPlU4X6vd80XV-hD-edqqRyFCGjhZhqfoDVdgYJVzkiC9fy2mqPsXAw6GfcBu4BF6HEqk1weoxS6mZHBU2pQ58FtctjsmwDyWQ77p4h8WQ-4u6sFxU4q7fAEM7gd4btvlZhWlb0XrlHjGuZhiOa-gyuveUjUjqlKQKeFVlw4xtY2UiAAvFyk-v7gxqk48nKxQdJ4Vg-_oHO9Ebes2JWtefVIaRZbKNmcK-VuQ-kHTtYuMN7ci7UkuhzHy0]--></g></svg>