<?xml version="1.0" encoding="us-ascii" standalone="no"?><svg xmlns="http://www.w3.org/2000/svg" xmlns:xlink="http://www.w3.org/1999/xlink" contentStyleType="text/css" height="990.9px" preserveAspectRatio="none" style="width:930px;height:990px;background:#FFFFFF;" version="1.1" viewBox="0 0 930 990" width="930.6px" zoomAndPan="magnify"><defs/><g><rect fill="#FFFFFF" height="815.8043" style="stroke:#181818;stroke-width:0.9;" width="9" x="37.8" y="84.259"/><rect fill="#FFFFFF" height="167.1715" style="stroke:#181818;stroke-width:0.9;" width="9" x="290.7" y="105.2209"/><rect fill="#FFFFFF" height="28.1619" style="stroke:#181818;stroke-width:0.9;" width="9" x="290.7" y="300.5543"/><rect fill="#FFFFFF" height="543.1852" style="stroke:#181818;stroke-width:0.9;" width="9" x="290.7" y="356.8781"/><rect fill="#FFFFFF" height="71.5887" style="stroke:#181818;stroke-width:0.9;" width="9" x="469.8" y="172.6418"/><rect fill="#FFFFFF" height="486.8613" style="stroke:#181818;stroke-width:0.9;" width="9" x="469.8" y="385.04"/><rect fill="#FFFFFF" height="81.4887" style="stroke:#181818;stroke-width:0.9;" width="9" x="474.3" y="420.402"/><rect fill="#FFFFFF" height="81.4887" style="stroke:#181818;stroke-width:0.9;" width="9" x="474.3" y="543.5525"/><rect fill="#FFFFFF" height="28.1619" style="stroke:#181818;stroke-width:0.9;" width="9" x="692.1" y="659.5031"/><rect fill="#FFFFFF" height="28.1619" style="stroke:#181818;stroke-width:0.9;" width="9" x="788.4" y="715.827"/><rect fill="#FFFFFF" height="71.5887" style="stroke:#181818;stroke-width:0.9;" width="9" x="870.75" y="772.1508"/><line style="stroke:#181818;stroke-width:0.45;stroke-dasharray:5.0,5.0;" x1="42.3" x2="42.3" y1="75.259" y2="916.2633"/><line style="stroke:#181818;stroke-width:0.45;stroke-dasharray:5.0,5.0;" x1="295.2" x2="295.2" y1="75.259" y2="916.2633"/><line style="stroke:#181818;stroke-width:0.45;stroke-dasharray:5.0,5.0;" x1="474.3" x2="474.3" y1="141.0504" y2="916.2633"/><line style="stroke:#181818;stroke-width:0.45;stroke-dasharray:5.0,5.0;" x1="696.15" x2="696.15" y1="75.259" y2="916.2633"/><line style="stroke:#181818;stroke-width:0.45;stroke-dasharray:5.0,5.0;" x1="792.45" x2="792.45" y1="75.259" y2="916.2633"/><line style="stroke:#181818;stroke-width:0.45;stroke-dasharray:5.0,5.0;" x1="875.25" x2="875.25" y1="75.259" y2="916.2633"/><text fill="#000000" font-family="sans-serif" font-size="12.6" lengthAdjust="spacing" textLength="70.2" x="4.5" y="72.0967">Collaborator</text><ellipse cx="42.3" cy="12.15" fill="#E3E3E3" rx="7.2" ry="7.2" style="stroke:#181818;stroke-width:0.45;"/><path d="M42.3,19.35 L42.3,43.65 M30.6,26.55 L54,26.55 M42.3,43.65 L30.6,57.15 M42.3,43.65 L54,57.15 " fill="none" style="stroke:#181818;stroke-width:0.45;"/><text fill="#000000" font-family="sans-serif" font-size="12.6" lengthAdjust="spacing" textLength="70.2" x="4.5" y="928.96">Collaborator</text><ellipse cx="42.3" cy="939.7723" fill="#E3E3E3" rx="7.2" ry="7.2" style="stroke:#181818;stroke-width:0.45;"/><path d="M42.3,946.9723 L42.3,971.2723 M30.6,954.1723 L54,954.1723 M42.3,971.2723 L30.6,984.7723 M42.3,971.2723 L54,984.7723 " fill="none" style="stroke:#181818;stroke-width:0.45;"/><rect fill="#E3E3E3" height="29.359" rx="2.25" ry="2.25" style="stroke:#181818;stroke-width:0.45;" width="154.8" x="217.8" y="45"/><text fill="#000000" font-family="sans-serif" font-size="12.6" lengthAdjust="spacing" textLength="142.2" x="224.1" y="64.8967">:CompleteEntryAgendaUI</text><rect fill="#E3E3E3" height="29.359" rx="2.25" ry="2.25" style="stroke:#181818;stroke-width:0.45;" width="154.8" x="217.8" y="915.3633"/><text fill="#000000" font-family="sans-serif" font-size="12.6" lengthAdjust="spacing" textLength="142.2" x="224.1" y="935.26">:CompleteEntryAgendaUI</text><rect fill="#E3E3E3" height="29.359" rx="2.25" ry="2.25" style="stroke:#181818;stroke-width:0.45;" width="185.4" x="381.6" y="915.3633"/><text fill="#000000" font-family="sans-serif" font-size="12.6" lengthAdjust="spacing" textLength="172.8" x="387.9" y="935.26">:CancelEntryAgendaController</text><rect fill="#E3E3E3" height="29.359" rx="2.25" ry="2.25" style="stroke:#181818;stroke-width:0.45;" width="87.3" x="652.95" y="45"/><text fill="#000000" font-family="sans-serif" font-size="12.6" lengthAdjust="spacing" textLength="74.7" x="659.25" y="64.8967">:Repositories</text><rect fill="#E3E3E3" height="29.359" rx="2.25" ry="2.25" style="stroke:#181818;stroke-width:0.45;" width="87.3" x="652.95" y="915.3633"/><text fill="#000000" font-family="sans-serif" font-size="12.6" lengthAdjust="spacing" textLength="74.7" x="659.25" y="935.26">:Repositories</text><rect fill="#E3E3E3" height="46.118" rx="2.25" ry="2.25" style="stroke:#181818;stroke-width:0.45;" width="87.3" x="749.25" y="28.241"/><text fill="#000000" font-family="sans-serif" font-size="12.6" lengthAdjust="spacing" textLength="66.6" x="759.6" y="48.1377">repositories</text><text fill="#000000" font-family="sans-serif" font-size="12.6" lengthAdjust="spacing" textLength="74.7" x="755.55" y="64.8967">:Repositories</text><rect fill="#E3E3E3" height="46.118" rx="2.25" ry="2.25" style="stroke:#181818;stroke-width:0.45;" width="87.3" x="749.25" y="915.3633"/><text fill="#000000" font-family="sans-serif" font-size="12.6" lengthAdjust="spacing" textLength="66.6" x="759.6" y="935.26">repositories</text><text fill="#000000" font-family="sans-serif" font-size="12.6" lengthAdjust="spacing" textLength="74.7" x="755.55" y="952.0189">:Repositories</text><rect fill="#E3E3E3" height="46.118" rx="2.25" ry="2.25" style="stroke:#181818;stroke-width:0.45;" width="59.4" x="845.55" y="28.241"/><text fill="#000000" font-family="sans-serif" font-size="12.6" lengthAdjust="spacing" textLength="46.8" x="851.85" y="48.1377">agenda:</text><text fill="#000000" font-family="sans-serif" font-size="12.6" lengthAdjust="spacing" textLength="44.1" x="853.2" y="64.8967">Agenda</text><rect fill="#E3E3E3" height="46.118" rx="2.25" ry="2.25" style="stroke:#181818;stroke-width:0.45;" width="59.4" x="845.55" y="915.3633"/><text fill="#000000" font-family="sans-serif" font-size="12.6" lengthAdjust="spacing" textLength="46.8" x="851.85" y="935.26">agenda:</text><text fill="#000000" font-family="sans-serif" font-size="12.6" lengthAdjust="spacing" textLength="44.1" x="853.2" y="952.0189">Agenda</text><rect fill="#FFFFFF" height="815.8043" style="stroke:#181818;stroke-width:0.9;" width="9" x="37.8" y="84.259"/><rect fill="#FFFFFF" height="167.1715" style="stroke:#181818;stroke-width:0.9;" width="9" x="290.7" y="105.2209"/><rect fill="#FFFFFF" height="28.1619" style="stroke:#181818;stroke-width:0.9;" width="9" x="290.7" y="300.5543"/><rect fill="#FFFFFF" height="543.1852" style="stroke:#181818;stroke-width:0.9;" width="9" x="290.7" y="356.8781"/><rect fill="#FFFFFF" height="71.5887" style="stroke:#181818;stroke-width:0.9;" width="9" x="469.8" y="172.6418"/><rect fill="#FFFFFF" height="486.8613" style="stroke:#181818;stroke-width:0.9;" width="9" x="469.8" y="385.04"/><rect fill="#FFFFFF" height="81.4887" style="stroke:#181818;stroke-width:0.9;" width="9" x="474.3" y="420.402"/><rect fill="#FFFFFF" height="81.4887" style="stroke:#181818;stroke-width:0.9;" width="9" x="474.3" y="543.5525"/><rect fill="#FFFFFF" height="28.1619" style="stroke:#181818;stroke-width:0.9;" width="9" x="692.1" y="659.5031"/><rect fill="#FFFFFF" height="28.1619" style="stroke:#181818;stroke-width:0.9;" width="9" x="788.4" y="715.827"/><rect fill="#FFFFFF" height="71.5887" style="stroke:#181818;stroke-width:0.9;" width="9" x="870.75" y="772.1508"/><polygon fill="#181818" points="279.9,101.6209,288.9,105.2209,279.9,108.8209,283.5,105.2209" style="stroke:#181818;stroke-width:0.9;"/><line style="stroke:#181818;stroke-width:0.9;" x1="46.8" x2="285.3" y1="105.2209" y2="105.2209"/><text fill="#000000" font-family="sans-serif" font-size="11.7" font-weight="bold" lengthAdjust="spacing" textLength="6.3" x="53.1" y="100.4845">1</text><text fill="#000000" font-family="sans-serif" font-size="11.7" lengthAdjust="spacing" textLength="207" x="63" y="100.4845">Asks to complete a entry in the Agenda</text><polygon fill="#181818" points="370.8,129.7828,379.8,133.3828,370.8,136.9828,374.4,133.3828" style="stroke:#181818;stroke-width:0.9;"/><line style="stroke:#181818;stroke-width:0.9;" x1="299.7" x2="376.2" y1="133.3828" y2="133.3828"/><text fill="#000000" font-family="sans-serif" font-size="11.7" font-weight="bold" lengthAdjust="spacing" textLength="6.3" x="306" y="128.6464">2</text><text fill="#000000" font-family="sans-serif" font-size="11.7" lengthAdjust="spacing" textLength="32.4" x="315.9" y="128.6464">create</text><rect fill="#E3E3E3" height="29.359" rx="2.25" ry="2.25" style="stroke:#181818;stroke-width:0.45;" width="185.4" x="381.6" y="112.4209"/><text fill="#000000" font-family="sans-serif" font-size="12.6" lengthAdjust="spacing" textLength="172.8" x="387.9" y="132.3176">:CancelEntryAgendaController</text><polygon fill="#181818" points="459,169.0418,468,172.6418,459,176.2418,462.6,172.6418" style="stroke:#181818;stroke-width:0.9;"/><line style="stroke:#181818;stroke-width:0.9;" x1="299.7" x2="464.4" y1="172.6418" y2="172.6418"/><text fill="#000000" font-family="sans-serif" font-size="11.7" font-weight="bold" lengthAdjust="spacing" textLength="6.3" x="306" y="167.9054">3</text><text fill="#000000" font-family="sans-serif" font-size="11.7" lengthAdjust="spacing" textLength="83.7" x="315.9" y="167.9054">getEntriesDTO()</text><rect fill="none" height="38.9268" style="stroke:#000000;stroke-width:1.35;" width="190.8" x="378.9" y="179.8418"/><path d="M378.9,179.8418 L434.7,179.8418 L434.7,187.9418 L425.7,196.9418 L378.9,196.9418 L378.9,179.8418 " fill="#EEEEEE" style="stroke:#000000;stroke-width:1.8;"/><text fill="#000000" font-family="sans-serif" font-size="11.7" font-weight="bold" lengthAdjust="spacing" textLength="15.3" x="390.6" y="194.2673">ref</text><text fill="#000000" font-family="sans-serif" font-size="10.8" lengthAdjust="spacing" textLength="95.4" x="426.6" y="212.1961">Get Entries Dto List</text><polygon fill="#181818" points="309.6,240.6305,300.6,244.2305,309.6,247.8305,306,244.2305" style="stroke:#181818;stroke-width:0.9;"/><line style="stroke:#181818;stroke-width:0.9;stroke-dasharray:2.0,2.0;" x1="304.2" x2="473.4" y1="244.2305" y2="244.2305"/><text fill="#000000" font-family="sans-serif" font-size="11.7" font-weight="bold" lengthAdjust="spacing" textLength="6.3" x="315" y="239.494">4</text><text fill="#000000" font-family="sans-serif" font-size="11.7" lengthAdjust="spacing" textLength="78.3" x="324.9" y="239.494">entriesListoDto</text><polygon fill="#181818" points="56.7,268.7924,47.7,272.3924,56.7,275.9924,53.1,272.3924" style="stroke:#181818;stroke-width:0.9;"/><line style="stroke:#181818;stroke-width:0.9;stroke-dasharray:2.0,2.0;" x1="51.3" x2="294.3" y1="272.3924" y2="272.3924"/><text fill="#000000" font-family="sans-serif" font-size="11.7" font-weight="bold" lengthAdjust="spacing" textLength="6.3" x="62.1" y="267.656">5</text><text fill="#000000" font-family="sans-serif" font-size="11.7" lengthAdjust="spacing" textLength="180.9" x="72" y="267.656">Shows list of entries in the Agenda</text><polygon fill="#181818" points="279.9,296.9543,288.9,300.5543,279.9,304.1543,283.5,300.5543" style="stroke:#181818;stroke-width:0.9;"/><line style="stroke:#181818;stroke-width:0.9;" x1="46.8" x2="285.3" y1="300.5543" y2="300.5543"/><text fill="#000000" font-family="sans-serif" font-size="11.7" font-weight="bold" lengthAdjust="spacing" textLength="6.3" x="53.1" y="295.8179">6</text><text fill="#000000" font-family="sans-serif" font-size="11.7" lengthAdjust="spacing" textLength="77.4" x="63" y="295.8179">selects a entry</text><polygon fill="#181818" points="56.7,325.1162,47.7,328.7162,56.7,332.3162,53.1,328.7162" style="stroke:#181818;stroke-width:0.9;"/><line style="stroke:#181818;stroke-width:0.9;stroke-dasharray:2.0,2.0;" x1="51.3" x2="294.3" y1="328.7162" y2="328.7162"/><text fill="#000000" font-family="sans-serif" font-size="11.7" font-weight="bold" lengthAdjust="spacing" textLength="6.3" x="62.1" y="323.9798">7</text><text fill="#000000" font-family="sans-serif" font-size="11.7" lengthAdjust="spacing" textLength="212.4" x="72" y="323.9798">shows all data and requests confirmation</text><polygon fill="#181818" points="279.9,353.2781,288.9,356.8781,279.9,360.4781,283.5,356.8781" style="stroke:#181818;stroke-width:0.9;"/><line style="stroke:#181818;stroke-width:0.9;" x1="46.8" x2="285.3" y1="356.8781" y2="356.8781"/><text fill="#000000" font-family="sans-serif" font-size="11.7" font-weight="bold" lengthAdjust="spacing" textLength="6.3" x="53.1" y="352.1417">8</text><text fill="#000000" font-family="sans-serif" font-size="11.7" lengthAdjust="spacing" textLength="70.2" x="63" y="352.1417">confirms data</text><polygon fill="#181818" points="459,381.44,468,385.04,459,388.64,462.6,385.04" style="stroke:#181818;stroke-width:0.9;"/><line style="stroke:#181818;stroke-width:0.9;" x1="299.7" x2="464.4" y1="385.04" y2="385.04"/><text fill="#000000" font-family="sans-serif" font-size="11.7" font-weight="bold" lengthAdjust="spacing" textLength="6.3" x="306" y="380.3036">9</text><text fill="#000000" font-family="sans-serif" font-size="11.7" lengthAdjust="spacing" textLength="123.3" x="315.9" y="380.3036">cancelEntry(entryIndex)</text><line style="stroke:#181818;stroke-width:0.9;" x1="478.8" x2="521.1" y1="408.702" y2="408.702"/><line style="stroke:#181818;stroke-width:0.9;" x1="521.1" x2="521.1" y1="408.702" y2="420.402"/><line style="stroke:#181818;stroke-width:0.9;" x1="484.2" x2="521.1" y1="420.402" y2="420.402"/><polygon fill="#181818" points="493.2,416.802,484.2,420.402,493.2,424.002,489.6,420.402" style="stroke:#181818;stroke-width:0.9;"/><text fill="#000000" font-family="sans-serif" font-size="11.7" font-weight="bold" lengthAdjust="spacing" textLength="12.6" x="489.6" y="403.9655">10</text><text fill="#000000" font-family="sans-serif" font-size="11.7" lengthAdjust="spacing" textLength="147.6" x="505.8" y="403.9655">getEntryByIndex(entryIndex)</text><rect fill="none" height="38.9268" style="stroke:#000000;stroke-width:1.35;" width="190.8" x="378.9" y="432.102"/><path d="M378.9,432.102 L434.7,432.102 L434.7,440.202 L425.7,449.202 L378.9,449.202 L378.9,432.102 " fill="#EEEEEE" style="stroke:#000000;stroke-width:1.8;"/><text fill="#000000" font-family="sans-serif" font-size="11.7" font-weight="bold" lengthAdjust="spacing" textLength="15.3" x="390.6" y="446.5274">ref</text><text fill="#000000" font-family="sans-serif" font-size="10.8" lengthAdjust="spacing" textLength="87.3" x="430.65" y="464.4563">Get Entry By Index</text><line style="stroke:#181818;stroke-width:0.9;stroke-dasharray:2.0,2.0;" x1="483.3" x2="521.1" y1="500.9906" y2="500.9906"/><line style="stroke:#181818;stroke-width:0.9;stroke-dasharray:2.0,2.0;" x1="521.1" x2="521.1" y1="500.9906" y2="512.6906"/><line style="stroke:#181818;stroke-width:0.9;stroke-dasharray:2.0,2.0;" x1="478.8" x2="521.1" y1="512.6906" y2="512.6906"/><polygon fill="#181818" points="487.8,509.0906,478.8,512.6906,487.8,516.2906,484.2,512.6906" style="stroke:#181818;stroke-width:0.9;"/><text fill="#000000" font-family="sans-serif" font-size="11.7" font-weight="bold" lengthAdjust="spacing" textLength="12.6" x="489.6" y="496.2542">11</text><text fill="#000000" font-family="sans-serif" font-size="11.7" lengthAdjust="spacing" textLength="26.1" x="505.8" y="496.2542">entry</text><line style="stroke:#181818;stroke-width:0.9;" x1="478.8" x2="521.1" y1="531.8525" y2="531.8525"/><line style="stroke:#181818;stroke-width:0.9;" x1="521.1" x2="521.1" y1="531.8525" y2="543.5525"/><line style="stroke:#181818;stroke-width:0.9;" x1="484.2" x2="521.1" y1="543.5525" y2="543.5525"/><polygon fill="#181818" points="493.2,539.9525,484.2,543.5525,493.2,547.1525,489.6,543.5525" style="stroke:#181818;stroke-width:0.9;"/><text fill="#000000" font-family="sans-serif" font-size="11.7" font-weight="bold" lengthAdjust="spacing" textLength="12.6" x="489.6" y="527.1161">12</text><text fill="#000000" font-family="sans-serif" font-size="11.7" lengthAdjust="spacing" textLength="184.5" x="505.8" y="527.1161">getEmailCollaboratorFromSession()</text><rect fill="none" height="38.9268" style="stroke:#000000;stroke-width:1.35;" width="190.8" x="378.9" y="555.2525"/><path d="M378.9,555.2525 L434.7,555.2525 L434.7,563.3525 L425.7,572.3525 L378.9,572.3525 L378.9,555.2525 " fill="#EEEEEE" style="stroke:#000000;stroke-width:1.8;"/><text fill="#000000" font-family="sans-serif" font-size="11.7" font-weight="bold" lengthAdjust="spacing" textLength="15.3" x="390.6" y="569.678">ref</text><text fill="#000000" font-family="sans-serif" font-size="10.8" lengthAdjust="spacing" textLength="111.6" x="418.5" y="587.6068">Get Collaborator email</text><line style="stroke:#181818;stroke-width:0.9;stroke-dasharray:2.0,2.0;" x1="483.3" x2="521.1" y1="624.1412" y2="624.1412"/><line style="stroke:#181818;stroke-width:0.9;stroke-dasharray:2.0,2.0;" x1="521.1" x2="521.1" y1="624.1412" y2="635.8412"/><line style="stroke:#181818;stroke-width:0.9;stroke-dasharray:2.0,2.0;" x1="478.8" x2="521.1" y1="635.8412" y2="635.8412"/><polygon fill="#181818" points="487.8,632.2412,478.8,635.8412,487.8,639.4412,484.2,635.8412" style="stroke:#181818;stroke-width:0.9;"/><text fill="#000000" font-family="sans-serif" font-size="11.7" font-weight="bold" lengthAdjust="spacing" textLength="12.6" x="489.6" y="619.4048">13</text><text fill="#000000" font-family="sans-serif" font-size="11.7" lengthAdjust="spacing" textLength="27.9" x="505.8" y="619.4048">email</text><polygon fill="#181818" points="681.3,655.9031,690.3,659.5031,681.3,663.1031,684.9,659.5031" style="stroke:#181818;stroke-width:0.9;"/><line style="stroke:#181818;stroke-width:0.9;" x1="478.8" x2="686.7" y1="659.5031" y2="659.5031"/><text fill="#000000" font-family="sans-serif" font-size="11.7" font-weight="bold" lengthAdjust="spacing" textLength="12.6" x="485.1" y="654.7667">14</text><text fill="#000000" font-family="sans-serif" font-size="11.7" lengthAdjust="spacing" textLength="67.5" x="501.3" y="654.7667">getInstance()</text><polygon fill="#181818" points="488.7,684.065,479.7,687.665,488.7,691.265,485.1,687.665" style="stroke:#181818;stroke-width:0.9;"/><line style="stroke:#181818;stroke-width:0.9;stroke-dasharray:2.0,2.0;" x1="483.3" x2="695.7" y1="687.665" y2="687.665"/><text fill="#000000" font-family="sans-serif" font-size="11.7" font-weight="bold" lengthAdjust="spacing" textLength="12.6" x="494.1" y="682.9286">15</text><text fill="#000000" font-family="sans-serif" font-size="11.7" lengthAdjust="spacing" textLength="60.3" x="510.3" y="682.9286">repositories</text><polygon fill="#181818" points="777.6,712.227,786.6,715.827,777.6,719.427,781.2,715.827" style="stroke:#181818;stroke-width:0.9;"/><line style="stroke:#181818;stroke-width:0.9;" x1="478.8" x2="783" y1="715.827" y2="715.827"/><text fill="#000000" font-family="sans-serif" font-size="11.7" font-weight="bold" lengthAdjust="spacing" textLength="12.6" x="485.1" y="711.0905">16</text><text fill="#000000" font-family="sans-serif" font-size="11.7" lengthAdjust="spacing" textLength="63" x="501.3" y="711.0905">getAgenda()</text><polygon fill="#181818" points="488.7,740.3889,479.7,743.9889,488.7,747.5889,485.1,743.9889" style="stroke:#181818;stroke-width:0.9;"/><line style="stroke:#181818;stroke-width:0.9;stroke-dasharray:2.0,2.0;" x1="483.3" x2="792" y1="743.9889" y2="743.9889"/><text fill="#000000" font-family="sans-serif" font-size="11.7" font-weight="bold" lengthAdjust="spacing" textLength="12.6" x="494.1" y="739.2524">17</text><text fill="#000000" font-family="sans-serif" font-size="11.7" lengthAdjust="spacing" textLength="37.8" x="510.3" y="739.2524">agenda</text><polygon fill="#181818" points="859.95,768.5508,868.95,772.1508,859.95,775.7508,863.55,772.1508" style="stroke:#181818;stroke-width:0.9;"/><line style="stroke:#181818;stroke-width:0.9;" x1="478.8" x2="865.35" y1="772.1508" y2="772.1508"/><text fill="#000000" font-family="sans-serif" font-size="11.7" font-weight="bold" lengthAdjust="spacing" textLength="12.6" x="485.1" y="767.4144">18</text><text fill="#000000" font-family="sans-serif" font-size="11.7" lengthAdjust="spacing" textLength="144" x="501.3" y="767.4144">completeEntry(entry, email)</text><rect fill="none" height="38.9268" style="stroke:#000000;stroke-width:1.35;" width="82.8" x="842.85" y="779.3508"/><path d="M842.85,779.3508 L898.65,779.3508 L898.65,787.4508 L889.65,796.4508 L842.85,796.4508 L842.85,779.3508 " fill="#EEEEEE" style="stroke:#000000;stroke-width:1.8;"/><text fill="#000000" font-family="sans-serif" font-size="11.7" font-weight="bold" lengthAdjust="spacing" textLength="15.3" x="854.55" y="793.7763">ref</text><text fill="#000000" font-family="sans-serif" font-size="10.8" lengthAdjust="spacing" textLength="75.6" x="846.45" y="811.7051">Complete Entry</text><polygon fill="#181818" points="488.7,840.1395,479.7,843.7395,488.7,847.3395,485.1,843.7395" style="stroke:#181818;stroke-width:0.9;"/><line style="stroke:#181818;stroke-width:0.9;stroke-dasharray:2.0,2.0;" x1="483.3" x2="874.35" y1="843.7395" y2="843.7395"/><text fill="#000000" font-family="sans-serif" font-size="11.7" font-weight="bold" lengthAdjust="spacing" textLength="12.6" x="494.1" y="839.003">19</text><text fill="#000000" font-family="sans-serif" font-size="11.7" lengthAdjust="spacing" textLength="26.1" x="510.3" y="839.003">entry</text><polygon fill="#181818" points="309.6,868.3014,300.6,871.9014,309.6,875.5014,306,871.9014" style="stroke:#181818;stroke-width:0.9;"/><line style="stroke:#181818;stroke-width:0.9;stroke-dasharray:2.0,2.0;" x1="304.2" x2="473.4" y1="871.9014" y2="871.9014"/><text fill="#000000" font-family="sans-serif" font-size="11.7" font-weight="bold" lengthAdjust="spacing" textLength="12.6" x="315" y="867.1649">20</text><text fill="#000000" font-family="sans-serif" font-size="11.7" lengthAdjust="spacing" textLength="26.1" x="331.2" y="867.1649">entry</text><polygon fill="#181818" points="52.2,896.4633,43.2,900.0633,52.2,903.6633,48.6,900.0633" style="stroke:#181818;stroke-width:0.9;"/><line style="stroke:#181818;stroke-width:0.9;stroke-dasharray:2.0,2.0;" x1="46.8" x2="294.3" y1="900.0633" y2="900.0633"/><text fill="#000000" font-family="sans-serif" font-size="11.7" font-weight="bold" lengthAdjust="spacing" textLength="12.6" x="57.6" y="895.3269">21</text><text fill="#000000" font-family="sans-serif" font-size="11.7" lengthAdjust="spacing" textLength="142.2" x="73.8" y="895.3269">displays operation success</text><!--SRC=[hLN1SXen3BtlLsYub6QQ7-3G6I0qmmnJEYovvQBi2l34QszjauI_h-nbmO2N96rzWhNqzFGaI_PPg1eDLb1ffOkDqHM1CrlAxE6cnk8PrvIxdIGmL3XKQnaRs0sM-bMeDQnGMieot3gjjjKJcIpxiX4bmKfhzwJVCYoSDj0RQodnIHlaVpr02-FvR3OSpHV3vNoHCQeJXQXHEUWDnhgg9JcQA6TsmpMf4X-cmUbXUcwAgY0P6Our_-POj8-oNCpEN1PKQokOXY0RR1QJNwSc9h9uL4c7_DG3G-p1esf81AlX_UJdtJ3p0eWNT7IQSGPyuYzm-vtJWm4CxRC5fw7Ogm08vFC3eS1j29eGmVy0pRg43_um24Fvn6zk6Aumn1QfQxvSa_FQSM9totd_wy6eFKVkNiUBwt0ChK2_a6bieEFSauDzABZZx6R2khGnP-SnBwC5phUjJDI0UHpDW1VM9IN8- -Hzzh7k0yWt-jM2P2JGgnOu8NS4sGgUhA0boM_6jeLBbofDnGOgA2MKw10mQF5xIvRX2grMmbJeX5QVuhDtj07p8ut3BiTtrGz9J5L9RyS6kT8OJPbQe7s7xKODGXBiRxhkKyrtteGx6EqWaBZgqjc95ntPv7giTkea6x8RDHQmGY7Z0Vg3XtPErd8ZzFzTnezhwFMBUG1vPjd_4_0gt5K1Mz5uDWVDfiewtyDd-XmG_D0_kU4F4PDu1MGT92uW8Wvv8D7CZYiKyWiEUKG2ZwCd7JvFnsysp-2mGQ9d_AtHk8DHkx8wEsHla2nbkwucoLVGsGeDvBklA4hyd6Mq5ywzFxe41b0AMqlSMT0rcJ1YmMwBWXzPQjJ6kF5M_mC0]--></g></svg>